<?xml version="1.0" encoding="utf-8"?>
<svg x="0" y="0" width="1564" height="1173" viewBox="74.084 251.677 1289.671 904.646" version="1.1" style="display: block;margin-left: auto;margin-right: auto;" xmlns="http://www.w3.org/2000/svg" xmlns:xlink="http://www.w3.org/1999/xlink" xmlns:bx="https://boxy-svg.com">
  <defs>
    <style bx:fonts="DejaVuSans-Oblique_84">@font-face { font-family: DejaVuSans-Oblique_84; src: url("fonts/DejaVuSans-Oblique_84.woff") format("woff"); }</style>
    <style type="text/css">

.g0_1{
fill: #FFFFFF;
}
.g1_1{
fill-opacity: 0.21000001;
}
.g2_1{
fill: #0077B1;
fill-opacity: 0.21000001;
}
.g3_1{
fill-opacity: 0.5;
}
.g4_1{
fill: none;
stroke: #000000;
stroke-width: 3.069764;
stroke-linecap: butt;
stroke-linejoin: miter;
stroke-miterlimit: 7;
stroke-opacity: 0.5;
}
.g5_1{
fill: #0077B1;
fill-opacity: 0.52;
}
.g6_1{
fill: none;
stroke: #0077B1;
stroke-width: 3.069764;
stroke-linecap: butt;
stroke-linejoin: miter;
stroke-miterlimit: 7;
}
.g7_1{
fill: #70BF41;
}
.g8_1{
fill: none;
stroke: #0077B1;
stroke-width: 1.513264;
stroke-linecap: butt;
stroke-linejoin: miter;
stroke-miterlimit: 7;
}
.g9_1{
fill-opacity: 0.75;
}
.g10_1{
fill: #0175AE;
}
.g11_1{
fill: #00AB1D;
}
.g12_1{
fill: #F38F18;
}
.g13_1{
fill: #F5D328;
}
.g14_1{
fill: #B36AE1;
}
.g15_1{
fill: #EC5C57;
}
.g16_1{
fill: none;
stroke: #000000;
stroke-width: 6.0962915;
stroke-linecap: butt;
stroke-linejoin: miter;
stroke-opacity: 0.5;
}
.g17_1{
fill: none;
stroke: #F38F18;
stroke-width: 6.0962915;
stroke-linecap: butt;
stroke-linejoin: miter;
}
.g18_1{
fill: none;
stroke: #F38F18;
stroke-width: 3.069764;
stroke-linecap: butt;
stroke-linejoin: miter;
}
.g19_1{
fill: none;
stroke: #F5D328;
stroke-width: 6.0962915;
stroke-linecap: butt;
stroke-linejoin: miter;
}
.g20_1{
fill: none;
stroke: #F5D328;
stroke-width: 4.583028;
stroke-linecap: butt;
stroke-linejoin: miter;
}
.g21_1{
fill: none;
stroke: #B36AE1;
stroke-width: 6.0962915;
stroke-linecap: butt;
stroke-linejoin: miter;
}
.g22_1{
fill: none;
stroke: #B36AE1;
stroke-width: 4.583028;
stroke-linecap: butt;
stroke-linejoin: miter;
}

.s1_1{
font-size: 48.89px;
font-family: DejaVuSans-Oblique_84;
fill: #00AB1D;
}
.s2_1{
font-size: 48.89px;
font-family: DejaVuSans-Oblique_84;
fill: #0175AF;
}
.s3_1{
font-size: 36.67px;
font-family: DejaVuSans-Oblique_84;
fill: #000000;
}
.s4_1{
font-size: 29.03px;
font-family: DejaVuSans-Oblique_84;
fill: #000000;
}

</style>
    <style bx:fonts="DejaVuSans-Oblique_2_">@font-face { font-family: DejaVuSans-Oblique_2_; src: url("fonts/DejaVuSans-Oblique_2_.woff") format("woff"); }</style>
    <style bx:fonts="DejaVuSans-Bold_2w">@font-face { font-family: DejaVuSans-Bold_2w; src: url("fonts/DejaVuSans-Bold_2w.woff") format("woff"); }</style>
  </defs>
  <path fill-rule="evenodd" d="M 1137.37 1081.227 L 1137.37 1080.927 L 1137.57 1080.827 L 1137.57 1080.327 L 1137.67 1080.327 L 1137.67 1080.227 L 1137.87 1080.027 L 1137.97 1079.927 L 1137.97 1079.727 L 1138.17 1079.727 L 1138.17 1079.627 L 1138.47 1079.627 L 1138.57 1079.427 L 1138.87 1079.427 L 1138.87 1079.327 L 1139.87 1079.327 L 1139.87 1079.427 L 1140.17 1079.427 L 1140.17 1079.627 L 1140.47 1079.627 L 1140.47 1079.727 L 1140.57 1079.727 L 1140.77 1079.927 L 1140.77 1080.027 L 1140.87 1080.027 L 1140.87 1080.227 L 1141.07 1080.327 L 1141.07 1080.527 L 1141.17 1080.627 L 1141.17 1081.927 L 1141.07 1081.927 L 1141.07 1082.027 L 1140.87 1082.227 L 1140.87 1082.327 L 1140.77 1082.527 L 1140.57 1082.627 L 1140.47 1082.827 L 1140.27 1082.927 L 1139.97 1082.927 L 1139.97 1083.127 L 1138.77 1083.127 L 1138.57 1082.927 L 1138.27 1082.927 L 1138.27 1082.827 L 1138.17 1082.827 L 1138.17 1082.627 L 1137.97 1082.627 L 1137.87 1082.527 L 1137.87 1082.327 L 1137.67 1082.327 L 1137.67 1082.227 L 1137.57 1082.227 L 1137.57 1081.727 L 1137.37 1081.627 L 1137.37 1081.227 Z" class="g0_1"/>
  <path fill-rule="evenodd" d="M 1137.87 1105.827 L 1137.87 1105.527 L 1137.97 1105.527 L 1137.97 1105.127 L 1138.17 1104.927 L 1138.17 1104.827 L 1138.27 1104.827 L 1138.27 1104.627 L 1138.47 1104.627 L 1138.47 1104.527 L 1138.57 1104.527 L 1138.57 1104.327 L 1138.77 1104.327 L 1138.87 1104.227 L 1139.07 1104.227 L 1139.17 1104.027 L 1140.47 1104.027 L 1140.47 1104.227 L 1140.77 1104.227 L 1140.87 1104.327 L 1140.87 1104.527 L 1141.17 1104.527 L 1141.17 1104.627 L 1141.37 1104.827 L 1141.47 1104.927 L 1141.47 1105.227 L 1141.67 1105.227 L 1141.67 1106.527 L 1141.47 1106.627 L 1141.47 1106.827 L 1141.37 1106.927 L 1141.37 1107.127 L 1141.17 1107.127 L 1141.17 1107.227 L 1141.07 1107.427 L 1140.87 1107.427 L 1140.87 1107.527 L 1140.77 1107.527 L 1140.57 1107.727 L 1140.27 1107.727 L 1140.17 1107.827 L 1139.37 1107.827 L 1139.17 1107.727 L 1139.07 1107.727 L 1138.87 1107.527 L 1138.57 1107.527 L 1138.57 1107.427 L 1138.47 1107.427 L 1138.47 1107.227 L 1138.27 1107.227 L 1138.27 1107.127 L 1138.17 1106.927 L 1137.97 1106.827 L 1137.97 1106.527 L 1137.87 1106.327 L 1137.87 1105.827 Z" class="g0_1"/>
  <path fill-rule="evenodd" d="M 1137.87 1130.627 L 1137.87 1130.327 L 1137.97 1130.127 L 1137.97 1129.727 L 1138.17 1129.727 L 1138.17 1129.527 L 1138.27 1129.427 L 1138.47 1129.227 L 1138.57 1129.127 L 1138.57 1128.927 L 1138.87 1128.927 L 1138.87 1128.827 L 1139.37 1128.827 L 1139.37 1128.627 L 1140.27 1128.627 L 1140.47 1128.827 L 1140.77 1128.827 L 1140.77 1128.927 L 1140.87 1128.927 L 1140.87 1129.127 L 1141.07 1129.127 L 1141.17 1129.227 L 1141.17 1129.427 L 1141.37 1129.427 L 1141.37 1129.527 L 1141.47 1129.527 L 1141.47 1129.827 L 1141.67 1129.827 L 1141.67 1131.127 L 1141.47 1131.227 L 1141.47 1131.527 L 1141.37 1131.527 L 1141.37 1131.727 L 1141.17 1131.727 L 1141.17 1131.827 L 1141.07 1132.027 L 1140.87 1132.127 L 1140.77 1132.127 L 1140.77 1132.327 L 1140.47 1132.327 L 1140.47 1132.427 L 1139.17 1132.427 L 1139.07 1132.327 L 1138.87 1132.327 L 1138.87 1132.127 L 1138.57 1132.127 L 1138.57 1132.027 L 1138.47 1132.027 L 1138.27 1131.827 L 1138.27 1131.727 L 1138.17 1131.727 L 1138.17 1131.527 L 1137.97 1131.427 L 1137.97 1131.127 L 1137.87 1130.927 L 1137.87 1130.627 Z" class="g0_1"/>
  <path fill-rule="evenodd" d="M 1032.883 307.094 L 1032.883 326.494 L 1010.683 326.494 L 1010.683 419.194 L 1065.883 419.194 L 1065.883 396.694 L 1076.683 396.694 L 1076.683 419.194 L 1087.883 419.194 L 1087.883 396.694 L 1098.683 396.694 L 1098.683 419.194 L 1154.283 419.194 L 1154.283 326.494 L 1131.683 326.494 L 1131.683 307.094 L 1032.883 307.094 Z M 1043.883 317.094 L 1054.883 317.094 L 1054.883 326.494 L 1043.883 326.494 L 1043.883 317.094 Z M 1065.883 317.094 L 1076.683 317.094 L 1076.683 326.494 L 1065.883 326.494 L 1065.883 317.094 Z M 1087.883 317.094 L 1098.683 317.094 L 1098.683 326.494 L 1087.883 326.494 L 1087.883 317.094 Z M 1109.683 317.094 L 1120.583 317.094 L 1120.583 326.494 L 1109.683 326.494 L 1109.683 317.094 Z M 1021.983 336.994 L 1032.883 336.994 L 1032.883 346.494 L 1021.983 346.494 L 1021.983 336.994 Z M 1043.883 336.994 L 1054.883 336.994 L 1054.883 346.494 L 1043.883 346.494 L 1043.883 336.994 Z M 1065.883 336.994 L 1076.683 336.994 L 1076.683 346.494 L 1065.883 346.494 L 1065.883 336.994 Z M 1087.883 336.994 L 1098.683 336.994 L 1098.683 346.494 L 1087.883 346.494 L 1087.883 336.994 Z M 1109.683 336.994 L 1120.583 336.994 L 1120.583 346.494 L 1109.683 346.494 L 1109.683 336.994 Z M 1131.683 336.994 L 1142.583 336.994 L 1142.583 346.494 L 1131.683 346.494 L 1131.683 336.994 Z M 1021.983 356.894 L 1032.883 356.894 L 1032.883 366.294 L 1021.983 366.294 L 1021.983 356.894 Z M 1043.883 356.894 L 1054.883 356.894 L 1054.883 366.294 L 1043.883 366.294 L 1043.883 356.894 Z M 1109.683 356.894 L 1120.583 356.894 L 1120.583 366.294 L 1109.683 366.294 L 1109.683 356.894 Z M 1131.683 356.894 L 1142.583 356.894 L 1142.583 366.294 L 1131.683 366.294 L 1131.683 356.894 Z M 1082.483 357.494 C 1089.983 357.494 1096.283 363.594 1096.283 371.194 C 1096.283 378.694 1089.983 384.794 1082.483 384.794 C 1074.883 384.794 1068.783 378.694 1068.783 371.194 C 1068.783 363.594 1074.883 357.494 1082.483 357.494 Z M 1079.283 362.694 L 1079.283 367.894 L 1073.983 367.894 L 1073.983 374.394 L 1079.283 374.394 L 1079.283 379.594 L 1085.683 379.594 L 1085.683 374.394 L 1090.883 374.394 L 1090.883 367.894 L 1085.683 367.894 L 1085.683 362.694 L 1079.283 362.694 Z M 1021.983 376.894 L 1032.883 376.894 L 1032.883 386.394 L 1021.983 386.394 L 1021.983 376.894 Z M 1043.883 376.894 L 1054.883 376.894 L 1054.883 386.394 L 1043.883 386.394 L 1043.883 376.894 Z M 1109.683 376.894 L 1120.583 376.894 L 1120.583 386.394 L 1109.683 386.394 L 1109.683 376.894 Z M 1131.683 376.894 L 1142.583 376.894 L 1142.583 386.394 L 1131.683 386.394 L 1131.683 376.894 Z M 1021.983 396.694 L 1032.883 396.694 L 1032.883 406.194 L 1021.983 406.194 L 1021.983 396.694 Z M 1043.883 396.694 L 1054.883 396.694 L 1054.883 406.194 L 1043.883 406.194 L 1043.883 396.694 Z M 1109.683 396.694 L 1120.583 396.694 L 1120.583 406.194 L 1109.683 406.194 L 1109.683 396.694 Z M 1131.683 396.694 L 1142.583 396.694 L 1142.583 406.194 L 1131.683 406.194 L 1131.683 396.694 Z" class="g9_1"/>
  <path fill-rule="evenodd" d="M 1031.34 304.008 L 1031.34 323.407 L 1009.139 323.407 L 1009.139 416.108 L 1064.34 416.108 L 1064.34 393.608 L 1075.139 393.608 L 1075.139 416.108 L 1086.34 416.108 L 1086.34 393.608 L 1097.139 393.608 L 1097.139 416.108 L 1152.739 416.108 L 1152.739 323.407 L 1130.139 323.407 L 1130.139 304.008 L 1031.34 304.008 Z M 1042.34 314.008 L 1053.34 314.008 L 1053.34 323.407 L 1042.34 323.407 L 1042.34 314.008 Z M 1064.34 314.008 L 1075.139 314.008 L 1075.139 323.407 L 1064.34 323.407 L 1064.34 314.008 Z M 1086.34 314.008 L 1097.139 314.008 L 1097.139 323.407 L 1086.34 323.407 L 1086.34 314.008 Z M 1108.139 314.008 L 1119.04 314.008 L 1119.04 323.407 L 1108.139 323.407 L 1108.139 314.008 Z M 1020.44 333.907 L 1031.34 333.907 L 1031.34 343.407 L 1020.44 343.407 L 1020.44 333.907 Z M 1042.34 333.907 L 1053.34 333.907 L 1053.34 343.407 L 1042.34 343.407 L 1042.34 333.907 Z M 1064.34 333.907 L 1075.139 333.907 L 1075.139 343.407 L 1064.34 343.407 L 1064.34 333.907 Z M 1086.34 333.907 L 1097.139 333.907 L 1097.139 343.407 L 1086.34 343.407 L 1086.34 333.907 Z M 1108.139 333.907 L 1119.04 333.907 L 1119.04 343.407 L 1108.139 343.407 L 1108.139 333.907 Z M 1130.139 333.907 L 1141.04 333.907 L 1141.04 343.407 L 1130.139 343.407 L 1130.139 333.907 Z M 1020.44 353.808 L 1031.34 353.808 L 1031.34 363.208 L 1020.44 363.208 L 1020.44 353.808 Z M 1042.34 353.808 L 1053.34 353.808 L 1053.34 363.208 L 1042.34 363.208 L 1042.34 353.808 Z M 1108.139 353.808 L 1119.04 353.808 L 1119.04 363.208 L 1108.139 363.208 L 1108.139 353.808 Z M 1130.139 353.808 L 1141.04 353.808 L 1141.04 363.208 L 1130.139 363.208 L 1130.139 353.808 Z M 1080.94 354.407 C 1088.44 354.407 1094.739 360.508 1094.739 368.108 C 1094.739 375.608 1088.44 381.708 1080.94 381.708 C 1073.34 381.708 1067.239 375.608 1067.239 368.108 C 1067.239 360.508 1073.34 354.407 1080.94 354.407 Z M 1077.739 359.608 L 1077.739 364.808 L 1072.44 364.808 L 1072.44 371.308 L 1077.739 371.308 L 1077.739 376.508 L 1084.139 376.508 L 1084.139 371.308 L 1089.34 371.308 L 1089.34 364.808 L 1084.139 364.808 L 1084.139 359.608 L 1077.739 359.608 Z M 1020.44 373.808 L 1031.34 373.808 L 1031.34 383.308 L 1020.44 383.308 L 1020.44 373.808 Z M 1042.34 373.808 L 1053.34 373.808 L 1053.34 383.308 L 1042.34 383.308 L 1042.34 373.808 Z M 1108.139 373.808 L 1119.04 373.808 L 1119.04 383.308 L 1108.139 383.308 L 1108.139 373.808 Z M 1130.139 373.808 L 1141.04 373.808 L 1141.04 383.308 L 1130.139 383.308 L 1130.139 373.808 Z M 1020.44 393.608 L 1031.34 393.608 L 1031.34 403.108 L 1020.44 403.108 L 1020.44 393.608 Z M 1042.34 393.608 L 1053.34 393.608 L 1053.34 403.108 L 1042.34 403.108 L 1042.34 393.608 Z M 1108.139 393.608 L 1119.04 393.608 L 1119.04 403.108 L 1108.139 403.108 L 1108.139 393.608 Z M 1130.139 393.608 L 1141.04 393.608 L 1141.04 403.108 L 1130.139 403.108 L 1130.139 393.608 Z" class="g10_1"/>
  <path fill-rule="evenodd" d="M 732.37 671.527 L 191.97 671.527 L 191.97 632.727 L 1272.77 632.727 L 1272.77 671.527 L 732.37 671.527 Z" class="g3_1"/>
  <path fill-rule="evenodd" d="M 732.37 668.427 L 191.97 668.427 L 191.97 629.627 L 1272.77 629.627 L 1272.77 668.427 L 732.37 668.427 Z" class="g11_1"/>
  <path fill-rule="evenodd" d="M 350.07 918.927 L 229.17 918.927 L 229.17 828.827 L 471.27 828.827 L 471.27 918.927 L 350.07 918.927 Z" class="g3_1"/>
  <path fill-rule="evenodd" d="M 350.07 915.727 L 229.17 915.727 L 229.17 825.727 L 471.27 825.727 L 471.27 915.727 L 350.07 915.727 Z" class="g12_1"/>
  <path fill-rule="evenodd" d="M 717.37 918.927 L 596.37 918.927 L 596.37 828.827 L 838.57 828.827 L 838.57 918.927 L 717.37 918.927 Z" class="g3_1"/>
  <path fill-rule="evenodd" d="M 717.37 915.727 L 596.37 915.727 L 596.37 825.727 L 838.57 825.727 L 838.57 915.727 L 717.37 915.727 Z" class="g13_1"/>
  <path fill-rule="evenodd" d="M 1094.87 918.927 L 973.87 918.927 L 973.87 828.827 L 1216.07 828.827 L 1216.07 918.927 L 1094.87 918.927 Z" class="g3_1"/>
  <path fill-rule="evenodd" d="M 1094.87 915.727 L 973.87 915.727 L 973.87 825.727 L 1216.07 825.727 L 1216.07 915.727 L 1094.87 915.727 Z" class="g14_1"/>
  <path d="M 641.313 625.695 L 641.313 383.095" class="g21_1" style="stroke: rgb(225, 122, 106); stroke-width: 11;" transform="matrix(-0.809017, 0.587786, -0.587786, -0.809017, 1456.622078, 535.504438)"/>
  <path fill-rule="evenodd" d="M 715.742 601.353 L 724.942 619.653 L 706.542 619.653 L 715.742 601.353 Z" class="g14_1" style="stroke: rgb(225, 122, 106); stroke-width: 11;" transform="matrix(-0.809017, 0.587785, -0.587785, -0.809017, 1653.634141, 683.708087)"/>
  <text x="1470.876" y="158.972" style="white-space: pre; fill: rgb(51, 51, 51); font-size: 24px;"> </text>
  <text x="788.686" y="871.773" style="white-space: pre; fill: rgb(51, 51, 51); font-size: 24px;"> </text>
  <path d="M 881.404 662.063 L 881.405 403.584" class="g21_1" style="stroke: rgb(225, 122, 106); stroke-width: 11; fill: none;" transform="matrix(0.629322, 0.777145, -0.777145, 0.629322, 740.798348, -487.47292)"/>
  <path fill-rule="evenodd" d="M 988.021 437.336 L 997.221 455.636 L 978.821 455.636 L 988.021 437.336 Z" class="g14_1" style="stroke: rgb(225, 122, 106); stroke-width: 11; fill: rgb(179, 106, 225);" transform="matrix(0.62932, 0.777146, -0.777146, 0.62932, 713.224451, -602.333376)"/>
  <path d="M 971.986 628.38 L 971.987 412.658" class="g21_1" style="stroke: rgb(225, 122, 106); stroke-width: 11; fill: none;" transform="matrix(-0.777147, -0.629319, 0.629319, -0.777147, 1399.790675, 1536.728243)"/>
  <path fill-rule="evenodd" d="M 899.933 601.865 L 906.737 617.137 L 893.128 617.137 L 899.933 601.865 Z" class="g14_1" style="stroke: rgb(225, 122, 106); stroke-width: 11; fill: rgb(179, 106, 225);" transform="matrix(-0.777145, -0.629321, 0.629321, -0.777145, 1215.738667, 1649.518546)"/>
  <path d="M 848.136 671.837 L 848.137 814.374" class="g21_1" style="stroke: rgb(225, 122, 106); stroke-width: 11; fill: none;" transform="matrix(0.939693, 0.342019, -0.342019, 0.939693, 305.304902, -245.264462)"/>
  <path fill-rule="evenodd" d="M 822.26 819.242 L 824.443 809.151 L 820.078 809.151 L 822.26 819.242 Z" class="g14_1" style="stroke: rgb(225, 122, 106); stroke-width: 11; fill: rgb(179, 106, 225);" transform="matrix(0.939692, 0.342021, -0.342021, 0.939692, 328.061249, -232.128178)"/>
  <path fill-rule="evenodd" d="M 551.306 497.326 C 548.975 497.326 546.935 498.896 546.935 500.951 L 546.935 527.236 C 546.935 529.169 548.975 530.862 551.306 530.862 L 604.712 530.862 C 607.043 530.862 609.084 529.169 609.084 527.236 L 609.084 500.951 C 609.084 498.896 607.043 497.326 604.712 497.326 L 551.306 497.326 Z M 554.366 508.322 L 554.876 508.322 L 554.876 511.102 L 551.16 511.102 L 551.16 510.982 C 551.16 509.531 552.618 508.322 554.366 508.322 Z M 555.75 508.322 L 560.633 508.322 C 562.38 508.322 563.838 509.531 563.838 510.982 L 563.838 511.102 L 555.75 511.102 L 555.75 508.322 Z M 551.16 511.827 L 554.876 511.827 L 554.876 514.244 L 551.16 514.244 L 551.16 511.827 Z M 555.75 511.827 L 559.103 511.827 L 559.103 514.244 L 555.75 514.244 L 555.75 511.827 Z M 560.049 511.827 L 563.838 511.827 L 563.838 514.244 L 560.049 514.244 L 560.049 511.827 Z M 551.16 514.969 L 554.876 514.969 L 554.876 517.628 L 554.366 517.628 C 552.618 517.628 551.16 516.419 551.16 514.969 Z M 555.75 514.969 L 559.103 514.969 L 559.103 517.628 L 555.75 517.628 L 555.75 514.969 Z M 560.049 514.969 L 563.838 514.969 C 563.838 516.419 562.38 517.628 560.633 517.628 L 560.049 517.628 L 560.049 514.969 Z M 551.743 522.825 L 552.982 522.825 C 553.2 522.825 553.419 522.885 553.419 523.187 L 553.419 525.12 C 553.419 525.302 553.2 525.422 552.982 525.422 L 551.743 525.422 C 551.525 525.422 551.306 525.302 551.306 525.12 L 551.306 523.067 C 551.306 522.885 551.525 522.825 551.743 522.825 Z M 554.366 522.825 L 555.386 522.825 L 555.386 525.12 L 555.824 525.12 L 555.824 524.396 C 555.824 524.275 555.969 524.214 556.042 524.214 C 556.188 524.214 556.26 524.275 556.26 524.396 L 556.26 525.242 C 556.26 525.422 556.188 525.422 556.042 525.422 L 554.366 525.422 C 554.294 525.422 554.148 525.422 554.148 525.242 C 554.148 525.12 554.294 525.12 554.366 525.12 L 555.095 525.12 L 555.095 523.067 L 554.366 523.067 C 554.294 523.067 554.148 523.067 554.148 523.005 C 554.148 522.885 554.294 522.825 554.366 522.825 Z M 557.426 522.825 L 558.738 522.825 C 558.956 522.825 559.175 522.885 559.175 523.187 L 559.175 523.911 C 559.175 524.094 558.956 524.275 558.738 524.275 L 557.499 524.275 L 557.499 525.12 L 558.956 525.12 C 559.103 525.12 559.175 525.12 559.175 525.242 C 559.175 525.422 559.103 525.422 558.956 525.422 L 557.208 525.422 L 557.208 524.275 C 557.208 524.094 557.28 523.911 557.499 523.911 L 558.738 523.911 L 558.738 523.067 L 557.426 523.067 C 557.28 523.067 557.208 523.046 557.208 523.005 C 557.208 522.885 557.208 522.825 557.426 522.825 Z M 560.268 522.825 L 561.653 522.825 C 561.87 522.825 561.944 522.885 561.944 523.067 L 561.944 523.852 C 561.944 523.911 561.944 524.033 561.87 524.094 C 561.944 524.214 561.944 524.275 561.944 524.456 L 561.944 525.12 C 561.944 525.302 561.87 525.422 561.653 525.422 L 560.268 525.422 C 560.123 525.422 560.049 525.362 560.049 525.242 C 560.049 525.161 560.123 525.12 560.268 525.12 L 561.653 525.12 L 561.653 524.456 C 561.653 524.396 561.506 524.275 561.434 524.275 L 560.633 524.275 C 560.486 524.275 560.414 524.214 560.414 524.094 C 560.414 524.033 560.486 523.911 560.633 523.911 L 561.434 523.911 C 561.506 523.911 561.653 523.911 561.653 523.731 L 561.653 523.067 L 560.268 523.067 C 560.123 523.067 560.049 523.046 560.049 523.005 C 560.049 522.885 560.049 522.825 560.268 522.825 Z M 566.096 522.825 C 566.169 522.825 566.169 522.885 566.169 523.005 L 566.169 524.214 L 567.116 524.214 L 567.116 523.247 C 567.116 523.187 567.116 523.067 567.335 523.067 C 567.408 523.067 567.408 523.187 567.408 523.247 L 567.408 524.214 C 567.554 524.255 567.627 524.315 567.627 524.396 C 567.627 524.456 567.554 524.577 567.554 524.577 L 567.554 525.242 C 567.456 525.362 567.384 525.422 567.335 525.422 C 567.189 525.422 567.116 525.362 567.116 525.242 L 567.116 524.577 L 565.878 524.577 L 565.878 523.005 C 565.878 522.885 565.951 522.825 566.096 522.825 Z M 571.634 522.825 L 571.853 522.825 C 571.998 522.825 572.071 522.885 572.071 523.005 C 572.071 523.067 571.998 523.067 571.853 523.067 L 571.853 524.214 L 573.237 524.214 C 573.455 524.214 573.455 524.275 573.455 524.396 L 573.455 525.242 C 573.455 525.362 573.383 525.422 573.237 525.422 L 571.634 525.422 C 571.561 525.422 571.415 525.422 571.415 525.242 L 571.415 523.005 C 571.415 522.885 571.561 522.825 571.634 522.825 Z M 574.548 522.825 L 576.297 522.825 L 576.297 523.852 C 576.297 523.893 576.297 523.953 576.297 524.033 L 575.641 524.396 C 575.593 524.435 575.568 524.497 575.568 524.577 L 575.568 525.242 C 575.568 525.362 575.495 525.422 575.35 525.422 C 575.204 525.422 575.131 525.422 575.131 525.242 L 575.131 524.396 C 575.131 524.275 575.204 524.275 575.204 524.275 L 575.86 523.852 C 575.86 523.731 576.005 523.731 576.005 523.671 L 576.005 523.067 L 574.767 523.067 C 574.767 523.247 574.621 523.247 574.548 523.247 C 574.403 523.247 574.33 523.187 574.33 523.067 L 574.33 523.005 C 574.33 522.885 574.403 522.825 574.548 522.825 Z M 580.523 522.825 L 581.324 522.825 C 581.47 522.825 581.543 522.885 581.543 523.005 L 581.543 523.911 C 581.761 524.033 581.98 524.094 581.98 524.275 L 581.98 525.12 C 581.98 525.302 581.761 525.422 581.543 525.422 L 580.304 525.422 C 580.085 525.422 580.013 525.302 580.013 525.12 L 580.013 524.275 C 580.013 524.094 580.085 524.033 580.304 523.911 L 580.304 523.005 C 580.304 522.885 580.45 522.825 580.523 522.825 Z M 583.145 522.825 L 584.675 522.825 C 584.821 522.825 584.894 522.885 584.894 523.005 L 584.894 525.302 C 584.894 525.422 584.821 525.422 584.675 525.422 L 584.457 525.422 C 584.311 525.422 584.239 525.422 584.239 525.242 C 584.239 525.242 584.311 525.12 584.457 525.12 L 584.457 524.033 L 583.145 524.033 C 582.927 524.033 582.927 523.911 582.927 523.852 L 582.927 523.005 C 582.927 522.885 582.927 522.825 583.145 522.825 Z M 586.133 522.825 L 587.371 522.825 C 587.59 522.825 587.809 522.885 587.809 523.187 L 587.809 525.12 C 587.809 525.302 587.59 525.422 587.371 525.422 L 586.133 525.422 C 585.914 525.422 585.769 525.302 585.769 525.12 L 585.769 523.067 C 585.769 522.885 585.914 522.825 586.133 522.825 Z M 588.901 522.825 L 589.921 522.825 L 589.921 525.12 L 590.213 525.12 L 590.213 524.396 C 590.213 524.275 590.359 524.214 590.431 524.214 C 590.578 524.214 590.65 524.275 590.65 524.396 L 590.65 525.242 C 590.65 525.422 590.578 525.422 590.431 525.422 L 588.901 525.422 C 588.829 525.422 588.683 525.422 588.683 525.242 C 588.683 525.12 588.829 525.12 588.901 525.12 L 589.484 525.12 L 589.484 523.067 L 588.901 523.067 C 588.829 523.067 588.683 523.067 588.683 523.005 C 588.683 522.885 588.829 522.825 588.901 522.825 Z M 594.439 522.825 L 595.896 522.825 C 596.114 522.825 596.26 522.885 596.26 523.187 L 596.26 523.911 C 596.26 524.094 596.114 524.275 595.896 524.275 L 594.658 524.275 L 594.658 525.12 L 596.041 525.12 C 596.114 525.12 596.26 525.12 596.26 525.242 C 596.26 525.422 596.114 525.422 596.041 525.422 L 594.22 525.422 L 594.22 524.275 C 594.22 524.094 594.439 523.911 594.658 523.911 L 595.896 523.911 L 595.896 523.067 L 594.439 523.067 C 594.366 523.067 594.22 523.067 594.22 523.005 C 594.22 522.885 594.366 522.825 594.439 522.825 Z M 597.353 522.825 L 598.81 522.825 C 599.029 522.825 599.174 522.885 599.174 523.067 L 599.174 523.852 C 599.174 523.911 599.174 524.033 599.029 524.094 C 599.174 524.214 599.174 524.275 599.174 524.456 L 599.174 525.12 C 599.174 525.302 599.029 525.422 598.81 525.422 L 597.353 525.422 C 597.28 525.422 597.134 525.422 597.134 525.242 C 597.134 525.12 597.28 525.12 597.353 525.12 L 598.81 525.12 L 598.81 524.456 C 598.81 524.396 598.664 524.275 598.591 524.275 L 597.79 524.275 C 597.718 524.275 597.572 524.214 597.572 524.094 C 597.572 524.033 597.718 523.911 597.79 523.911 L 598.591 523.911 C 598.64 523.911 598.664 523.852 598.664 523.731 L 598.664 523.067 L 597.353 523.067 C 597.28 523.067 597.134 523.067 597.134 523.005 C 597.134 522.885 597.28 522.825 597.353 522.825 Z M 600.486 522.825 C 600.559 522.825 600.705 522.885 600.705 523.005 L 600.705 524.214 L 601.506 524.214 L 601.506 523.247 C 601.506 523.187 601.579 523.067 601.725 523.067 C 601.798 523.067 601.943 523.187 601.943 523.247 L 601.943 524.214 C 601.992 524.255 602.016 524.315 602.016 524.396 C 602.016 524.456 602.016 524.577 601.943 524.577 L 601.943 525.242 C 601.943 525.422 601.798 525.422 601.725 525.422 C 601.579 525.422 601.506 525.422 601.506 525.242 L 601.506 524.577 L 600.268 524.577 L 600.268 523.005 C 600.268 522.885 600.34 522.825 600.486 522.825 Z M 569.011 522.825 L 570.323 522.825 C 570.395 522.825 570.541 522.885 570.541 523.005 C 570.541 523.067 570.395 523.067 570.323 523.067 L 569.303 523.067 L 569.303 523.911 L 570.104 523.911 C 570.395 523.911 570.541 524.094 570.541 524.275 L 570.541 525.12 C 570.541 525.302 570.395 525.422 570.104 525.422 L 569.229 525.422 C 569.229 525.422 569.011 525.422 569.011 525.422 L 568.793 525.302 C 568.598 525.262 568.501 525.201 568.501 525.12 C 568.501 525.06 568.647 524.94 568.793 524.94 L 568.865 524.94 L 568.865 525.06 L 569.229 525.06 C 569.229 525.101 569.229 525.12 569.229 525.12 L 570.104 525.12 L 570.104 524.275 L 569.011 524.275 L 569.011 522.825 Z M 603.4 522.825 L 604.712 522.825 C 604.93 522.825 605.076 522.885 605.076 523.005 C 605.076 523.067 604.93 523.067 604.712 523.067 L 603.838 523.067 L 603.838 523.911 L 604.566 523.911 C 604.858 523.911 605.076 524.094 605.076 524.275 L 605.076 525.12 C 605.076 525.302 604.858 525.422 604.566 525.422 L 603.619 525.422 C 603.619 525.422 603.473 525.422 603.4 525.422 L 603.181 525.302 C 603.036 525.242 602.963 525.242 602.963 525.12 C 602.963 525.06 603.036 524.94 603.181 524.94 C 603.181 524.94 603.255 524.94 603.255 524.94 L 603.4 525.06 L 603.619 525.06 C 603.619 525.101 603.619 525.12 603.619 525.12 L 604.566 525.12 L 604.566 524.275 L 603.4 524.275 L 603.4 522.825 Z M 580.741 523.067 L 580.741 523.911 L 581.251 523.911 L 581.251 523.067 L 580.741 523.067 Z M 551.743 523.067 L 551.743 525.12 L 552.982 525.12 L 552.982 523.067 L 551.743 523.067 Z M 583.219 523.067 L 583.219 523.671 L 584.457 523.671 L 584.457 523.067 L 583.219 523.067 Z M 586.133 523.067 L 586.133 525.12 L 587.371 525.12 L 587.371 523.067 L 586.133 523.067 Z M 580.304 524.275 L 580.304 525.12 L 581.543 525.12 L 581.543 524.275 L 580.304 524.275 Z M 571.853 524.577 L 571.853 525.12 L 573.091 525.12 L 573.091 524.577 L 571.853 524.577 Z" class="g1_1" style="fill-opacity: 0.5;"/>
  <path fill-rule="evenodd" d="M 551.306 495.512 C 548.975 495.512 546.935 497.082 546.935 499.077 L 546.935 525.422 C 546.935 527.357 548.975 528.987 551.306 528.987 L 604.712 528.987 C 607.043 528.987 609.084 527.357 609.084 525.422 L 609.084 499.077 C 609.084 497.082 607.043 495.512 604.712 495.512 L 551.306 495.512 Z M 554.366 506.448 L 554.876 506.448 L 554.876 509.228 L 551.16 509.228 L 551.16 509.167 C 551.16 507.658 552.618 506.448 554.366 506.448 Z M 555.75 506.448 L 560.633 506.448 C 562.38 506.448 563.838 507.658 563.838 509.167 L 563.838 509.228 L 555.75 509.228 L 555.75 506.448 Z M 551.16 509.953 L 554.876 509.953 L 554.876 512.372 L 551.16 512.372 L 551.16 509.953 Z M 555.75 509.953 L 559.103 509.953 L 559.103 512.372 L 555.75 512.372 L 555.75 509.953 Z M 560.049 509.953 L 563.838 509.953 L 563.838 512.372 L 560.049 512.372 L 560.049 509.953 Z M 551.16 513.096 L 554.876 513.096 L 554.876 515.815 L 554.366 515.815 C 552.618 515.815 551.16 514.607 551.16 513.096 Z M 555.75 513.096 L 559.103 513.096 L 559.103 515.815 L 555.75 515.815 L 555.75 513.096 Z M 560.049 513.096 L 563.838 513.096 C 563.838 514.607 562.38 515.815 560.633 515.815 L 560.049 515.815 L 560.049 513.096 Z M 551.743 520.952 L 552.982 520.952 C 553.2 520.952 553.419 521.073 553.419 521.314 L 553.419 523.247 C 553.419 523.489 553.2 523.549 552.982 523.549 L 551.743 523.549 C 551.525 523.549 551.306 523.489 551.306 523.247 L 551.306 521.253 C 551.306 521.073 551.525 520.952 551.743 520.952 Z M 554.366 520.952 L 555.386 520.952 L 555.386 523.247 L 555.824 523.247 L 555.824 522.523 C 555.824 522.461 555.969 522.341 556.042 522.341 C 556.188 522.341 556.26 522.461 556.26 522.523 L 556.26 523.367 C 556.26 523.489 556.188 523.549 556.042 523.549 L 554.366 523.549 C 554.294 523.549 554.148 523.489 554.148 523.367 C 554.148 523.247 554.294 523.247 554.366 523.247 L 555.095 523.247 L 555.095 521.253 L 554.366 521.253 C 554.294 521.253 554.148 521.253 554.148 521.133 C 554.148 520.952 554.294 520.952 554.366 520.952 Z M 557.426 520.952 L 558.738 520.952 C 558.956 520.952 559.175 521.073 559.175 521.314 L 559.175 522.099 C 559.175 522.281 558.956 522.461 558.738 522.461 L 557.499 522.461 L 557.499 523.247 L 558.956 523.247 C 559.103 523.247 559.175 523.247 559.175 523.367 C 559.175 523.489 559.103 523.549 558.956 523.549 L 557.208 523.549 L 557.208 522.461 C 557.208 522.281 557.28 522.099 557.499 522.099 L 558.738 522.099 L 558.738 521.253 L 557.426 521.253 C 557.28 521.253 557.208 521.214 557.208 521.133 C 557.208 521.012 557.28 520.952 557.426 520.952 Z M 560.268 520.952 L 561.653 520.952 C 561.87 520.952 561.944 521.073 561.944 521.253 L 561.944 521.979 C 561.944 522.099 561.944 522.161 561.87 522.281 C 561.944 522.341 561.944 522.461 561.944 522.643 L 561.944 523.247 C 561.944 523.489 561.87 523.549 561.653 523.549 L 560.268 523.549 C 560.049 523.549 560.049 523.489 560.049 523.367 C 560.049 523.288 560.123 523.247 560.268 523.247 L 561.653 523.247 L 561.653 522.643 C 561.653 522.523 561.506 522.461 561.434 522.461 L 560.633 522.461 C 560.486 522.461 560.414 522.341 560.414 522.281 C 560.414 522.161 560.486 522.099 560.633 522.099 L 561.434 522.099 C 561.506 522.099 561.653 522.099 561.653 521.917 L 561.653 521.253 L 560.268 521.253 C 560.123 521.253 560.049 521.214 560.049 521.133 C 560.049 521.012 560.123 520.952 560.268 520.952 Z M 566.096 520.952 C 566.145 520.952 566.169 521.012 566.169 521.133 L 566.169 522.341 L 567.116 522.341 L 567.116 521.435 C 567.116 521.314 567.116 521.253 567.335 521.253 C 567.408 521.253 567.408 521.314 567.408 521.435 L 567.408 522.341 C 567.627 522.341 567.627 522.461 567.627 522.523 C 567.627 522.643 567.554 522.703 567.554 522.703 L 567.554 523.367 C 567.408 523.489 567.408 523.549 567.335 523.549 C 567.116 523.549 567.116 523.489 567.116 523.367 L 567.116 522.703 L 565.878 522.703 L 565.878 521.133 C 565.878 520.952 565.951 520.952 566.096 520.952 Z M 571.634 520.952 L 571.853 520.952 C 571.998 520.952 572.071 520.952 572.071 521.133 C 572.071 521.133 571.998 521.253 571.853 521.253 L 571.853 522.341 L 573.237 522.341 C 573.455 522.341 573.455 522.461 573.455 522.523 L 573.455 523.367 C 573.455 523.489 573.455 523.549 573.237 523.549 L 571.634 523.549 C 571.561 523.549 571.415 523.489 571.415 523.367 L 571.415 521.133 C 571.415 520.952 571.561 520.952 571.634 520.952 Z M 574.548 520.952 L 576.297 520.952 L 576.297 521.979 C 576.297 522.06 576.297 522.099 576.297 522.099 L 575.641 522.523 C 575.593 522.603 575.568 522.664 575.568 522.703 L 575.568 523.367 C 575.568 523.489 575.568 523.549 575.35 523.549 C 575.204 523.549 575.131 523.489 575.131 523.367 L 575.131 522.523 C 575.131 522.461 575.204 522.461 575.204 522.461 L 575.86 521.979 C 575.86 521.917 576.005 521.917 576.005 521.797 L 576.005 521.253 L 574.767 521.253 C 574.767 521.314 574.621 521.435 574.548 521.435 C 574.403 521.435 574.33 521.314 574.33 521.253 L 574.33 521.133 C 574.33 520.952 574.403 520.952 574.548 520.952 Z M 580.523 520.952 L 581.324 520.952 C 581.47 520.952 581.543 520.952 581.543 521.133 L 581.543 522.099 C 581.761 522.099 581.98 522.281 581.98 522.461 L 581.98 523.247 C 581.98 523.489 581.761 523.549 581.543 523.549 L 580.304 523.549 C 580.085 523.549 580.013 523.489 580.013 523.247 L 580.013 522.461 C 580.013 522.281 580.085 522.099 580.304 522.099 L 580.304 521.133 C 580.304 520.952 580.45 520.952 580.523 520.952 Z M 583.145 520.952 L 584.675 520.952 C 584.821 520.952 584.894 520.952 584.894 521.133 L 584.894 523.489 C 584.894 523.489 584.821 523.549 584.675 523.549 L 584.457 523.549 C 584.311 523.549 584.239 523.489 584.239 523.367 C 584.239 523.247 584.311 523.247 584.457 523.247 L 584.457 522.161 L 583.145 522.161 C 582.927 522.161 582.927 522.099 582.927 521.979 L 582.927 521.133 C 582.927 521.012 583 520.952 583.145 520.952 Z M 586.133 520.952 L 587.371 520.952 C 587.59 520.952 587.809 521.073 587.809 521.314 L 587.809 523.247 C 587.809 523.489 587.59 523.549 587.371 523.549 L 586.133 523.549 C 585.914 523.549 585.769 523.489 585.769 523.247 L 585.769 521.253 C 585.769 521.073 585.914 520.952 586.133 520.952 Z M 588.901 520.952 L 589.921 520.952 L 589.921 523.247 L 590.213 523.247 L 590.213 522.523 C 590.213 522.461 590.359 522.341 590.431 522.341 C 590.578 522.341 590.65 522.461 590.65 522.523 L 590.65 523.367 C 590.65 523.489 590.578 523.549 590.431 523.549 L 588.901 523.549 C 588.829 523.549 588.683 523.489 588.683 523.367 C 588.683 523.247 588.829 523.247 588.901 523.247 L 589.484 523.247 L 589.484 521.253 L 588.901 521.253 C 588.829 521.253 588.683 521.253 588.683 521.133 C 588.683 520.952 588.829 520.952 588.901 520.952 Z M 594.439 520.952 L 595.896 520.952 C 596.114 520.952 596.26 521.073 596.26 521.314 L 596.26 522.099 C 596.26 522.281 596.114 522.461 595.896 522.461 L 594.658 522.461 L 594.658 523.247 L 596.041 523.247 C 596.114 523.247 596.26 523.247 596.26 523.367 C 596.26 523.489 596.114 523.549 596.041 523.549 L 594.22 523.549 L 594.22 522.461 C 594.22 522.281 594.439 522.099 594.658 522.099 L 595.896 522.099 L 595.896 521.253 L 594.439 521.253 C 594.366 521.253 594.22 521.253 594.22 521.133 C 594.22 520.952 594.366 520.952 594.439 520.952 Z M 597.353 520.952 L 598.81 520.952 C 599.029 520.952 599.174 521.073 599.174 521.253 L 599.174 521.979 C 599.174 522.099 599.174 522.161 599.029 522.281 C 599.174 522.341 599.174 522.461 599.174 522.643 L 599.174 523.247 C 599.174 523.489 599.029 523.549 598.81 523.549 L 597.353 523.549 C 597.28 523.549 597.134 523.489 597.134 523.367 C 597.134 523.247 597.28 523.247 597.353 523.247 L 598.81 523.247 L 598.81 522.643 C 598.81 522.523 598.664 522.461 598.591 522.461 L 597.79 522.461 C 597.718 522.461 597.572 522.341 597.572 522.281 C 597.572 522.161 597.718 522.099 597.79 522.099 L 598.591 522.099 C 598.64 522.099 598.664 522.039 598.664 521.917 L 598.664 521.253 L 597.353 521.253 C 597.28 521.253 597.134 521.253 597.134 521.133 C 597.134 520.952 597.28 520.952 597.353 520.952 Z M 600.486 520.952 C 600.559 520.952 600.705 520.952 600.705 521.133 L 600.705 522.341 L 601.506 522.341 L 601.506 521.435 C 601.506 521.314 601.579 521.253 601.725 521.253 C 601.798 521.253 601.943 521.314 601.943 521.435 L 601.943 522.341 C 602.016 522.341 602.016 522.461 602.016 522.523 C 602.016 522.643 602.016 522.703 601.943 522.703 L 601.943 523.367 C 601.943 523.489 601.798 523.549 601.725 523.549 C 601.579 523.549 601.506 523.489 601.506 523.367 L 601.506 522.703 L 600.268 522.703 L 600.268 521.133 C 600.268 520.952 600.34 520.952 600.486 520.952 Z M 569.011 520.952 L 570.323 520.952 C 570.395 520.952 570.541 520.952 570.541 521.133 C 570.541 521.253 570.395 521.253 570.323 521.253 L 569.303 521.253 L 569.303 522.099 L 570.104 522.099 C 570.395 522.099 570.541 522.281 570.541 522.461 L 570.541 523.247 C 570.541 523.489 570.395 523.549 570.104 523.549 L 569.229 523.549 C 569.229 523.549 569.011 523.549 569.011 523.549 L 568.793 523.489 C 568.598 523.409 568.501 523.328 568.501 523.247 C 568.501 523.187 568.647 523.067 568.793 523.067 L 568.865 523.067 L 569.084 523.187 L 569.229 523.187 C 569.229 523.228 569.229 523.247 569.229 523.247 L 570.104 523.247 L 570.104 522.461 L 569.011 522.461 L 569.011 520.952 Z M 603.4 520.952 L 604.712 520.952 C 604.93 520.952 605.076 520.952 605.076 521.133 C 605.076 521.253 604.93 521.253 604.712 521.253 L 603.838 521.253 L 603.838 522.099 L 604.566 522.099 C 604.858 522.099 605.076 522.281 605.076 522.461 L 605.076 523.247 C 605.076 523.489 604.858 523.549 604.566 523.549 L 603.619 523.549 C 603.619 523.549 603.473 523.549 603.4 523.549 L 603.181 523.489 C 603.036 523.367 602.963 523.367 602.963 523.247 C 602.963 523.187 603.036 523.067 603.181 523.067 C 603.181 523.067 603.255 523.067 603.255 523.067 L 603.4 523.067 L 603.619 523.187 C 603.619 523.228 603.619 523.247 603.619 523.247 L 604.566 523.247 L 604.566 522.461 L 603.4 522.461 L 603.4 520.952 Z M 580.741 521.253 L 580.741 522.099 L 581.251 522.099 L 581.251 521.253 L 580.741 521.253 Z M 551.743 521.253 L 551.743 523.247 L 552.982 523.247 L 552.982 521.253 L 551.743 521.253 Z M 583.219 521.253 L 583.219 521.797 L 584.457 521.797 L 584.457 521.253 L 583.219 521.253 Z M 586.133 521.253 L 586.133 523.247 L 587.371 523.247 L 587.371 521.253 L 586.133 521.253 Z M 580.304 522.461 L 580.304 523.247 L 581.543 523.247 L 581.543 522.461 L 580.304 522.461 Z M 571.853 522.703 L 571.853 523.247 L 573.091 523.247 L 573.091 522.703 L 571.853 522.703 Z" class="g11_1" style="fill: rgb(230, 133, 0);"/>
  <path fill-rule="evenodd" d="M 766.613 715.718 C 764.282 715.718 762.242 717.288 762.242 719.343 L 762.242 745.628 C 762.242 747.561 764.282 749.254 766.613 749.254 L 820.019 749.254 C 822.35 749.254 824.391 747.561 824.391 745.628 L 824.391 719.343 C 824.391 717.288 822.35 715.718 820.019 715.718 L 766.613 715.718 Z M 769.673 726.714 L 770.183 726.714 L 770.183 729.494 L 766.467 729.494 L 766.467 729.374 C 766.467 727.923 767.925 726.714 769.673 726.714 Z M 771.057 726.714 L 775.94 726.714 C 777.687 726.714 779.145 727.923 779.145 729.374 L 779.145 729.494 L 771.057 729.494 L 771.057 726.714 Z M 766.467 730.219 L 770.183 730.219 L 770.183 732.636 L 766.467 732.636 L 766.467 730.219 Z M 771.057 730.219 L 774.41 730.219 L 774.41 732.636 L 771.057 732.636 L 771.057 730.219 Z M 775.356 730.219 L 779.145 730.219 L 779.145 732.636 L 775.356 732.636 L 775.356 730.219 Z M 766.467 733.361 L 770.183 733.361 L 770.183 736.02 L 769.673 736.02 C 767.925 736.02 766.467 734.811 766.467 733.361 Z M 771.057 733.361 L 774.41 733.361 L 774.41 736.02 L 771.057 736.02 L 771.057 733.361 Z M 775.356 733.361 L 779.145 733.361 C 779.145 734.811 777.687 736.02 775.94 736.02 L 775.356 736.02 L 775.356 733.361 Z M 767.05 741.217 L 768.289 741.217 C 768.507 741.217 768.726 741.277 768.726 741.579 L 768.726 743.512 C 768.726 743.694 768.507 743.814 768.289 743.814 L 767.05 743.814 C 766.832 743.814 766.613 743.694 766.613 743.512 L 766.613 741.459 C 766.613 741.277 766.832 741.217 767.05 741.217 Z M 769.673 741.217 L 770.693 741.217 L 770.693 743.512 L 771.131 743.512 L 771.131 742.788 C 771.131 742.667 771.276 742.606 771.349 742.606 C 771.495 742.606 771.567 742.667 771.567 742.788 L 771.567 743.634 C 771.567 743.814 771.495 743.814 771.349 743.814 L 769.673 743.814 C 769.601 743.814 769.455 743.814 769.455 743.634 C 769.455 743.512 769.601 743.512 769.673 743.512 L 770.402 743.512 L 770.402 741.459 L 769.673 741.459 C 769.601 741.459 769.455 741.459 769.455 741.397 C 769.455 741.277 769.601 741.217 769.673 741.217 Z M 772.733 741.217 L 774.045 741.217 C 774.263 741.217 774.482 741.277 774.482 741.579 L 774.482 742.303 C 774.482 742.486 774.263 742.667 774.045 742.667 L 772.806 742.667 L 772.806 743.512 L 774.263 743.512 C 774.41 743.512 774.482 743.512 774.482 743.634 C 774.482 743.814 774.41 743.814 774.263 743.814 L 772.515 743.814 L 772.515 742.667 C 772.515 742.486 772.587 742.303 772.806 742.303 L 774.045 742.303 L 774.045 741.459 L 772.733 741.459 C 772.587 741.459 772.515 741.438 772.515 741.397 C 772.515 741.277 772.515 741.217 772.733 741.217 Z M 775.575 741.217 L 776.96 741.217 C 777.177 741.217 777.251 741.277 777.251 741.459 L 777.251 742.244 C 777.251 742.303 777.251 742.425 777.177 742.486 C 777.251 742.606 777.251 742.667 777.251 742.848 L 777.251 743.512 C 777.251 743.694 777.177 743.814 776.96 743.814 L 775.575 743.814 C 775.43 743.814 775.356 743.754 775.356 743.634 C 775.356 743.553 775.43 743.512 775.575 743.512 L 776.96 743.512 L 776.96 742.848 C 776.96 742.788 776.813 742.667 776.741 742.667 L 775.94 742.667 C 775.793 742.667 775.721 742.606 775.721 742.486 C 775.721 742.425 775.793 742.303 775.94 742.303 L 776.741 742.303 C 776.813 742.303 776.96 742.303 776.96 742.123 L 776.96 741.459 L 775.575 741.459 C 775.43 741.459 775.356 741.438 775.356 741.397 C 775.356 741.277 775.356 741.217 775.575 741.217 Z M 781.403 741.217 C 781.476 741.217 781.476 741.277 781.476 741.397 L 781.476 742.606 L 782.423 742.606 L 782.423 741.639 C 782.423 741.579 782.423 741.459 782.642 741.459 C 782.715 741.459 782.715 741.579 782.715 741.639 L 782.715 742.606 C 782.861 742.647 782.934 742.707 782.934 742.788 C 782.934 742.848 782.861 742.969 782.861 742.969 L 782.861 743.634 C 782.763 743.754 782.691 743.814 782.642 743.814 C 782.496 743.814 782.423 743.754 782.423 743.634 L 782.423 742.969 L 781.185 742.969 L 781.185 741.397 C 781.185 741.277 781.258 741.217 781.403 741.217 Z M 786.941 741.217 L 787.16 741.217 C 787.305 741.217 787.378 741.277 787.378 741.397 C 787.378 741.459 787.305 741.459 787.16 741.459 L 787.16 742.606 L 788.544 742.606 C 788.762 742.606 788.762 742.667 788.762 742.788 L 788.762 743.634 C 788.762 743.754 788.69 743.814 788.544 743.814 L 786.941 743.814 C 786.868 743.814 786.722 743.814 786.722 743.634 L 786.722 741.397 C 786.722 741.277 786.868 741.217 786.941 741.217 Z M 789.855 741.217 L 791.604 741.217 L 791.604 742.244 C 791.604 742.285 791.604 742.345 791.604 742.425 L 790.948 742.788 C 790.9 742.827 790.875 742.889 790.875 742.969 L 790.875 743.634 C 790.875 743.754 790.802 743.814 790.657 743.814 C 790.511 743.814 790.438 743.814 790.438 743.634 L 790.438 742.788 C 790.438 742.667 790.511 742.667 790.511 742.667 L 791.167 742.244 C 791.167 742.123 791.312 742.123 791.312 742.063 L 791.312 741.459 L 790.074 741.459 C 790.074 741.639 789.928 741.639 789.855 741.639 C 789.71 741.639 789.637 741.579 789.637 741.459 L 789.637 741.397 C 789.637 741.277 789.71 741.217 789.855 741.217 Z M 795.83 741.217 L 796.631 741.217 C 796.777 741.217 796.85 741.277 796.85 741.397 L 796.85 742.303 C 797.068 742.425 797.287 742.486 797.287 742.667 L 797.287 743.512 C 797.287 743.694 797.068 743.814 796.85 743.814 L 795.611 743.814 C 795.392 743.814 795.32 743.694 795.32 743.512 L 795.32 742.667 C 795.32 742.486 795.392 742.425 795.611 742.303 L 795.611 741.397 C 795.611 741.277 795.757 741.217 795.83 741.217 Z M 798.452 741.217 L 799.982 741.217 C 800.128 741.217 800.201 741.277 800.201 741.397 L 800.201 743.694 C 800.201 743.814 800.128 743.814 799.982 743.814 L 799.764 743.814 C 799.618 743.814 799.546 743.814 799.546 743.634 C 799.546 743.634 799.618 743.512 799.764 743.512 L 799.764 742.425 L 798.452 742.425 C 798.234 742.425 798.234 742.303 798.234 742.244 L 798.234 741.397 C 798.234 741.277 798.234 741.217 798.452 741.217 Z M 801.44 741.217 L 802.678 741.217 C 802.897 741.217 803.116 741.277 803.116 741.579 L 803.116 743.512 C 803.116 743.694 802.897 743.814 802.678 743.814 L 801.44 743.814 C 801.221 743.814 801.076 743.694 801.076 743.512 L 801.076 741.459 C 801.076 741.277 801.221 741.217 801.44 741.217 Z M 804.208 741.217 L 805.228 741.217 L 805.228 743.512 L 805.52 743.512 L 805.52 742.788 C 805.52 742.667 805.666 742.606 805.738 742.606 C 805.885 742.606 805.957 742.667 805.957 742.788 L 805.957 743.634 C 805.957 743.814 805.885 743.814 805.738 743.814 L 804.208 743.814 C 804.136 743.814 803.99 743.814 803.99 743.634 C 803.99 743.512 804.136 743.512 804.208 743.512 L 804.791 743.512 L 804.791 741.459 L 804.208 741.459 C 804.136 741.459 803.99 741.459 803.99 741.397 C 803.99 741.277 804.136 741.217 804.208 741.217 Z M 809.746 741.217 L 811.203 741.217 C 811.421 741.217 811.567 741.277 811.567 741.579 L 811.567 742.303 C 811.567 742.486 811.421 742.667 811.203 742.667 L 809.965 742.667 L 809.965 743.512 L 811.348 743.512 C 811.421 743.512 811.567 743.512 811.567 743.634 C 811.567 743.814 811.421 743.814 811.348 743.814 L 809.527 743.814 L 809.527 742.667 C 809.527 742.486 809.746 742.303 809.965 742.303 L 811.203 742.303 L 811.203 741.459 L 809.746 741.459 C 809.673 741.459 809.527 741.459 809.527 741.397 C 809.527 741.277 809.673 741.217 809.746 741.217 Z M 812.66 741.217 L 814.117 741.217 C 814.336 741.217 814.481 741.277 814.481 741.459 L 814.481 742.244 C 814.481 742.303 814.481 742.425 814.336 742.486 C 814.481 742.606 814.481 742.667 814.481 742.848 L 814.481 743.512 C 814.481 743.694 814.336 743.814 814.117 743.814 L 812.66 743.814 C 812.587 743.814 812.441 743.814 812.441 743.634 C 812.441 743.512 812.587 743.512 812.66 743.512 L 814.117 743.512 L 814.117 742.848 C 814.117 742.788 813.971 742.667 813.898 742.667 L 813.097 742.667 C 813.025 742.667 812.879 742.606 812.879 742.486 C 812.879 742.425 813.025 742.303 813.097 742.303 L 813.898 742.303 C 813.947 742.303 813.971 742.244 813.971 742.123 L 813.971 741.459 L 812.66 741.459 C 812.587 741.459 812.441 741.459 812.441 741.397 C 812.441 741.277 812.587 741.217 812.66 741.217 Z M 815.793 741.217 C 815.866 741.217 816.012 741.277 816.012 741.397 L 816.012 742.606 L 816.813 742.606 L 816.813 741.639 C 816.813 741.579 816.886 741.459 817.032 741.459 C 817.105 741.459 817.25 741.579 817.25 741.639 L 817.25 742.606 C 817.299 742.647 817.323 742.707 817.323 742.788 C 817.323 742.848 817.323 742.969 817.25 742.969 L 817.25 743.634 C 817.25 743.814 817.105 743.814 817.032 743.814 C 816.886 743.814 816.813 743.814 816.813 743.634 L 816.813 742.969 L 815.575 742.969 L 815.575 741.397 C 815.575 741.277 815.647 741.217 815.793 741.217 Z M 784.318 741.217 L 785.63 741.217 C 785.702 741.217 785.848 741.277 785.848 741.397 C 785.848 741.459 785.702 741.459 785.63 741.459 L 784.61 741.459 L 784.61 742.303 L 785.411 742.303 C 785.702 742.303 785.848 742.486 785.848 742.667 L 785.848 743.512 C 785.848 743.694 785.702 743.814 785.411 743.814 L 784.536 743.814 C 784.536 743.814 784.318 743.814 784.318 743.814 L 784.1 743.694 C 783.905 743.654 783.808 743.593 783.808 743.512 C 783.808 743.452 783.954 743.332 784.1 743.332 L 784.172 743.332 L 784.172 743.452 L 784.536 743.452 C 784.536 743.493 784.536 743.512 784.536 743.512 L 785.411 743.512 L 785.411 742.667 L 784.318 742.667 L 784.318 741.217 Z M 818.707 741.217 L 820.019 741.217 C 820.237 741.217 820.383 741.277 820.383 741.397 C 820.383 741.459 820.237 741.459 820.019 741.459 L 819.145 741.459 L 819.145 742.303 L 819.873 742.303 C 820.165 742.303 820.383 742.486 820.383 742.667 L 820.383 743.512 C 820.383 743.694 820.165 743.814 819.873 743.814 L 818.926 743.814 C 818.926 743.814 818.78 743.814 818.707 743.814 L 818.488 743.694 C 818.343 743.634 818.27 743.634 818.27 743.512 C 818.27 743.452 818.343 743.332 818.488 743.332 C 818.488 743.332 818.562 743.332 818.562 743.332 L 818.707 743.452 L 818.926 743.452 C 818.926 743.493 818.926 743.512 818.926 743.512 L 819.873 743.512 L 819.873 742.667 L 818.707 742.667 L 818.707 741.217 Z M 796.048 741.459 L 796.048 742.303 L 796.558 742.303 L 796.558 741.459 L 796.048 741.459 Z M 767.05 741.459 L 767.05 743.512 L 768.289 743.512 L 768.289 741.459 L 767.05 741.459 Z M 798.526 741.459 L 798.526 742.063 L 799.764 742.063 L 799.764 741.459 L 798.526 741.459 Z M 801.44 741.459 L 801.44 743.512 L 802.678 743.512 L 802.678 741.459 L 801.44 741.459 Z M 795.611 742.667 L 795.611 743.512 L 796.85 743.512 L 796.85 742.667 L 795.611 742.667 Z M 787.16 742.969 L 787.16 743.512 L 788.398 743.512 L 788.398 742.969 L 787.16 742.969 Z" class="g1_1" style="fill-opacity: 0.5;"/>
  <path fill-rule="evenodd" d="M 766.613 713.904 C 764.282 713.904 762.242 715.474 762.242 717.469 L 762.242 743.814 C 762.242 745.749 764.282 747.379 766.613 747.379 L 820.019 747.379 C 822.35 747.379 824.391 745.749 824.391 743.814 L 824.391 717.469 C 824.391 715.474 822.35 713.904 820.019 713.904 L 766.613 713.904 Z M 769.673 724.84 L 770.183 724.84 L 770.183 727.62 L 766.467 727.62 L 766.467 727.559 C 766.467 726.05 767.925 724.84 769.673 724.84 Z M 771.057 724.84 L 775.94 724.84 C 777.687 724.84 779.145 726.05 779.145 727.559 L 779.145 727.62 L 771.057 727.62 L 771.057 724.84 Z M 766.467 728.345 L 770.183 728.345 L 770.183 730.764 L 766.467 730.764 L 766.467 728.345 Z M 771.057 728.345 L 774.41 728.345 L 774.41 730.764 L 771.057 730.764 L 771.057 728.345 Z M 775.356 728.345 L 779.145 728.345 L 779.145 730.764 L 775.356 730.764 L 775.356 728.345 Z M 766.467 731.488 L 770.183 731.488 L 770.183 734.207 L 769.673 734.207 C 767.925 734.207 766.467 732.999 766.467 731.488 Z M 771.057 731.488 L 774.41 731.488 L 774.41 734.207 L 771.057 734.207 L 771.057 731.488 Z M 775.356 731.488 L 779.145 731.488 C 779.145 732.999 777.687 734.207 775.94 734.207 L 775.356 734.207 L 775.356 731.488 Z M 767.05 739.344 L 768.289 739.344 C 768.507 739.344 768.726 739.465 768.726 739.706 L 768.726 741.639 C 768.726 741.881 768.507 741.941 768.289 741.941 L 767.05 741.941 C 766.832 741.941 766.613 741.881 766.613 741.639 L 766.613 739.645 C 766.613 739.465 766.832 739.344 767.05 739.344 Z M 769.673 739.344 L 770.693 739.344 L 770.693 741.639 L 771.131 741.639 L 771.131 740.915 C 771.131 740.853 771.276 740.733 771.349 740.733 C 771.495 740.733 771.567 740.853 771.567 740.915 L 771.567 741.759 C 771.567 741.881 771.495 741.941 771.349 741.941 L 769.673 741.941 C 769.601 741.941 769.455 741.881 769.455 741.759 C 769.455 741.639 769.601 741.639 769.673 741.639 L 770.402 741.639 L 770.402 739.645 L 769.673 739.645 C 769.601 739.645 769.455 739.645 769.455 739.525 C 769.455 739.344 769.601 739.344 769.673 739.344 Z M 772.733 739.344 L 774.045 739.344 C 774.263 739.344 774.482 739.465 774.482 739.706 L 774.482 740.491 C 774.482 740.673 774.263 740.853 774.045 740.853 L 772.806 740.853 L 772.806 741.639 L 774.263 741.639 C 774.41 741.639 774.482 741.639 774.482 741.759 C 774.482 741.881 774.41 741.941 774.263 741.941 L 772.515 741.941 L 772.515 740.853 C 772.515 740.673 772.587 740.491 772.806 740.491 L 774.045 740.491 L 774.045 739.645 L 772.733 739.645 C 772.587 739.645 772.515 739.606 772.515 739.525 C 772.515 739.404 772.587 739.344 772.733 739.344 Z M 775.575 739.344 L 776.96 739.344 C 777.177 739.344 777.251 739.465 777.251 739.645 L 777.251 740.371 C 777.251 740.491 777.251 740.553 777.177 740.673 C 777.251 740.733 777.251 740.853 777.251 741.035 L 777.251 741.639 C 777.251 741.881 777.177 741.941 776.96 741.941 L 775.575 741.941 C 775.356 741.941 775.356 741.881 775.356 741.759 C 775.356 741.68 775.43 741.639 775.575 741.639 L 776.96 741.639 L 776.96 741.035 C 776.96 740.915 776.813 740.853 776.741 740.853 L 775.94 740.853 C 775.793 740.853 775.721 740.733 775.721 740.673 C 775.721 740.553 775.793 740.491 775.94 740.491 L 776.741 740.491 C 776.813 740.491 776.96 740.491 776.96 740.309 L 776.96 739.645 L 775.575 739.645 C 775.43 739.645 775.356 739.606 775.356 739.525 C 775.356 739.404 775.43 739.344 775.575 739.344 Z M 781.403 739.344 C 781.452 739.344 781.476 739.404 781.476 739.525 L 781.476 740.733 L 782.423 740.733 L 782.423 739.827 C 782.423 739.706 782.423 739.645 782.642 739.645 C 782.715 739.645 782.715 739.706 782.715 739.827 L 782.715 740.733 C 782.934 740.733 782.934 740.853 782.934 740.915 C 782.934 741.035 782.861 741.095 782.861 741.095 L 782.861 741.759 C 782.715 741.881 782.715 741.941 782.642 741.941 C 782.423 741.941 782.423 741.881 782.423 741.759 L 782.423 741.095 L 781.185 741.095 L 781.185 739.525 C 781.185 739.344 781.258 739.344 781.403 739.344 Z M 786.941 739.344 L 787.16 739.344 C 787.305 739.344 787.378 739.344 787.378 739.525 C 787.378 739.525 787.305 739.645 787.16 739.645 L 787.16 740.733 L 788.544 740.733 C 788.762 740.733 788.762 740.853 788.762 740.915 L 788.762 741.759 C 788.762 741.881 788.762 741.941 788.544 741.941 L 786.941 741.941 C 786.868 741.941 786.722 741.881 786.722 741.759 L 786.722 739.525 C 786.722 739.344 786.868 739.344 786.941 739.344 Z M 789.855 739.344 L 791.604 739.344 L 791.604 740.371 C 791.604 740.452 791.604 740.491 791.604 740.491 L 790.948 740.915 C 790.9 740.995 790.875 741.056 790.875 741.095 L 790.875 741.759 C 790.875 741.881 790.875 741.941 790.657 741.941 C 790.511 741.941 790.438 741.881 790.438 741.759 L 790.438 740.915 C 790.438 740.853 790.511 740.853 790.511 740.853 L 791.167 740.371 C 791.167 740.309 791.312 740.309 791.312 740.189 L 791.312 739.645 L 790.074 739.645 C 790.074 739.706 789.928 739.827 789.855 739.827 C 789.71 739.827 789.637 739.706 789.637 739.645 L 789.637 739.525 C 789.637 739.344 789.71 739.344 789.855 739.344 Z M 795.83 739.344 L 796.631 739.344 C 796.777 739.344 796.85 739.344 796.85 739.525 L 796.85 740.491 C 797.068 740.491 797.287 740.673 797.287 740.853 L 797.287 741.639 C 797.287 741.881 797.068 741.941 796.85 741.941 L 795.611 741.941 C 795.392 741.941 795.32 741.881 795.32 741.639 L 795.32 740.853 C 795.32 740.673 795.392 740.491 795.611 740.491 L 795.611 739.525 C 795.611 739.344 795.757 739.344 795.83 739.344 Z M 798.452 739.344 L 799.982 739.344 C 800.128 739.344 800.201 739.344 800.201 739.525 L 800.201 741.881 C 800.201 741.881 800.128 741.941 799.982 741.941 L 799.764 741.941 C 799.618 741.941 799.546 741.881 799.546 741.759 C 799.546 741.639 799.618 741.639 799.764 741.639 L 799.764 740.553 L 798.452 740.553 C 798.234 740.553 798.234 740.491 798.234 740.371 L 798.234 739.525 C 798.234 739.404 798.307 739.344 798.452 739.344 Z M 801.44 739.344 L 802.678 739.344 C 802.897 739.344 803.116 739.465 803.116 739.706 L 803.116 741.639 C 803.116 741.881 802.897 741.941 802.678 741.941 L 801.44 741.941 C 801.221 741.941 801.076 741.881 801.076 741.639 L 801.076 739.645 C 801.076 739.465 801.221 739.344 801.44 739.344 Z M 804.208 739.344 L 805.228 739.344 L 805.228 741.639 L 805.52 741.639 L 805.52 740.915 C 805.52 740.853 805.666 740.733 805.738 740.733 C 805.885 740.733 805.957 740.853 805.957 740.915 L 805.957 741.759 C 805.957 741.881 805.885 741.941 805.738 741.941 L 804.208 741.941 C 804.136 741.941 803.99 741.881 803.99 741.759 C 803.99 741.639 804.136 741.639 804.208 741.639 L 804.791 741.639 L 804.791 739.645 L 804.208 739.645 C 804.136 739.645 803.99 739.645 803.99 739.525 C 803.99 739.344 804.136 739.344 804.208 739.344 Z M 809.746 739.344 L 811.203 739.344 C 811.421 739.344 811.567 739.465 811.567 739.706 L 811.567 740.491 C 811.567 740.673 811.421 740.853 811.203 740.853 L 809.965 740.853 L 809.965 741.639 L 811.348 741.639 C 811.421 741.639 811.567 741.639 811.567 741.759 C 811.567 741.881 811.421 741.941 811.348 741.941 L 809.527 741.941 L 809.527 740.853 C 809.527 740.673 809.746 740.491 809.965 740.491 L 811.203 740.491 L 811.203 739.645 L 809.746 739.645 C 809.673 739.645 809.527 739.645 809.527 739.525 C 809.527 739.344 809.673 739.344 809.746 739.344 Z M 812.66 739.344 L 814.117 739.344 C 814.336 739.344 814.481 739.465 814.481 739.645 L 814.481 740.371 C 814.481 740.491 814.481 740.553 814.336 740.673 C 814.481 740.733 814.481 740.853 814.481 741.035 L 814.481 741.639 C 814.481 741.881 814.336 741.941 814.117 741.941 L 812.66 741.941 C 812.587 741.941 812.441 741.881 812.441 741.759 C 812.441 741.639 812.587 741.639 812.66 741.639 L 814.117 741.639 L 814.117 741.035 C 814.117 740.915 813.971 740.853 813.898 740.853 L 813.097 740.853 C 813.025 740.853 812.879 740.733 812.879 740.673 C 812.879 740.553 813.025 740.491 813.097 740.491 L 813.898 740.491 C 813.947 740.491 813.971 740.431 813.971 740.309 L 813.971 739.645 L 812.66 739.645 C 812.587 739.645 812.441 739.645 812.441 739.525 C 812.441 739.344 812.587 739.344 812.66 739.344 Z M 815.793 739.344 C 815.866 739.344 816.012 739.344 816.012 739.525 L 816.012 740.733 L 816.813 740.733 L 816.813 739.827 C 816.813 739.706 816.886 739.645 817.032 739.645 C 817.105 739.645 817.25 739.706 817.25 739.827 L 817.25 740.733 C 817.323 740.733 817.323 740.853 817.323 740.915 C 817.323 741.035 817.323 741.095 817.25 741.095 L 817.25 741.759 C 817.25 741.881 817.105 741.941 817.032 741.941 C 816.886 741.941 816.813 741.881 816.813 741.759 L 816.813 741.095 L 815.575 741.095 L 815.575 739.525 C 815.575 739.344 815.647 739.344 815.793 739.344 Z M 784.318 739.344 L 785.63 739.344 C 785.702 739.344 785.848 739.344 785.848 739.525 C 785.848 739.645 785.702 739.645 785.63 739.645 L 784.61 739.645 L 784.61 740.491 L 785.411 740.491 C 785.702 740.491 785.848 740.673 785.848 740.853 L 785.848 741.639 C 785.848 741.881 785.702 741.941 785.411 741.941 L 784.536 741.941 C 784.536 741.941 784.318 741.941 784.318 741.941 L 784.1 741.881 C 783.905 741.801 783.808 741.72 783.808 741.639 C 783.808 741.579 783.954 741.459 784.1 741.459 L 784.172 741.459 L 784.391 741.579 L 784.536 741.579 C 784.536 741.62 784.536 741.639 784.536 741.639 L 785.411 741.639 L 785.411 740.853 L 784.318 740.853 L 784.318 739.344 Z M 818.707 739.344 L 820.019 739.344 C 820.237 739.344 820.383 739.344 820.383 739.525 C 820.383 739.645 820.237 739.645 820.019 739.645 L 819.145 739.645 L 819.145 740.491 L 819.873 740.491 C 820.165 740.491 820.383 740.673 820.383 740.853 L 820.383 741.639 C 820.383 741.881 820.165 741.941 819.873 741.941 L 818.926 741.941 C 818.926 741.941 818.78 741.941 818.707 741.941 L 818.488 741.881 C 818.343 741.759 818.27 741.759 818.27 741.639 C 818.27 741.579 818.343 741.459 818.488 741.459 C 818.488 741.459 818.562 741.459 818.562 741.459 L 818.707 741.459 L 818.926 741.579 C 818.926 741.62 818.926 741.639 818.926 741.639 L 819.873 741.639 L 819.873 740.853 L 818.707 740.853 L 818.707 739.344 Z M 796.048 739.645 L 796.048 740.491 L 796.558 740.491 L 796.558 739.645 L 796.048 739.645 Z M 767.05 739.645 L 767.05 741.639 L 768.289 741.639 L 768.289 739.645 L 767.05 739.645 Z M 798.526 739.645 L 798.526 740.189 L 799.764 740.189 L 799.764 739.645 L 798.526 739.645 Z M 801.44 739.645 L 801.44 741.639 L 802.678 741.639 L 802.678 739.645 L 801.44 739.645 Z M 795.611 740.853 L 795.611 741.639 L 796.85 741.639 L 796.85 740.853 L 795.611 740.853 Z M 787.16 741.095 L 787.16 741.639 L 788.398 741.639 L 788.398 741.095 L 787.16 741.095 Z" class="g11_1" style="fill: rgb(230, 133, 0);"/>
  <path fill-rule="evenodd" d="M 995.712 537.758 C 995.112 537.258 979.612 554.558 976.912 557.958 C 976.712 558.258 976.612 558.358 976.412 558.558 C 976.312 558.358 976.112 558.258 976.012 557.958 C 974.712 556.558 974.112 555.358 972.912 553.958 C 972.512 553.358 971.812 552.758 971.412 552.258 C 971.212 551.958 970.912 551.958 970.612 552.158 C 970.312 552.158 969.912 552.158 969.612 552.458 C 969.412 552.558 969.612 552.858 969.612 553.058 C 969.612 553.358 968.512 553.358 967.912 553.758 C 967.712 553.758 968.012 554.258 967.912 554.258 C 967.712 554.558 967.612 554.558 967.712 554.858 C 968.912 557.958 970.812 560.558 972.312 563.758 C 974.712 568.658 975.012 565.558 975.812 566.158 C 978.012 567.958 977.012 568.458 981.912 562.058 C 984.112 558.958 995.212 545.258 997.712 542.458 C 998.012 542.158 998.312 541.858 998.412 541.458 C 998.746 540.924 998.712 540.458 998.312 540.058 C 998.112 539.758 998.012 539.758 997.712 539.758 C 997.112 539.758 996.712 539.458 996.712 538.958 C 996.712 538.858 996.712 538.658 996.712 538.558 C 996.612 538.358 996.012 537.958 995.712 537.758 Z" class="g17_1" style="fill: rgb(97, 216, 54); stroke: rgb(24, 243, 60);"/>
  <text x="892.095" y="492.35" style="white-space: pre; fill: rgb(51, 51, 51); font-size: 24px;">?</text>
</svg>
