<?xml version="1.0" encoding="UTF-8" standalone="no"?>
<!DOCTYPE svg PUBLIC "-//W3C//DTD SVG 1.1//EN"
"http://www.w3.org/Graphics/SVG/1.1/DTD/svg11.dtd">


<!-- Page 2 -->
<svg x="0" y="0" width="1564" height="1173" viewBox="0 0 1564 1173" version="1.1" xmlns="http://www.w3.org/2000/svg" xmlns:xlink="http://www.w3.org/1999/xlink"
style="display: block;margin-left: auto;margin-right: auto;">
<defs>
<clipPath id="c0_2"><path d="M0,1173.3V0H1564.4V1173.3Z" /></clipPath>

<style type="text/css"><![CDATA[

.g0_2{
fill: #FFFFFF;
}
.g1_2{
fill-opacity: 0.75;
}
.g2_2{
fill: #0175AE;
}
.g3_2{
fill-opacity: 0.5;
}
.g4_2{
fill: #70BF41;
}
.g5_2{
fill: none;
stroke: #F38F18;
stroke-width: 7.6095405;
stroke-linecap: butt;
stroke-linejoin: miter;
}
.g6_2{
fill: #F38F18;
}
.g7_2{
fill: #00882B;
}
.g8_2{
fill: #00AB1D;
}
.g9_2{
fill: none;
stroke: #F38F18;
stroke-width: 4.583028;
stroke-linecap: butt;
stroke-linejoin: miter;
}

.s1_2{
font-size: 36.67px;
font-family: DejaVuSans-Oblique_5c;
fill: #000000;
}

]]></style>

</defs>
<path d="M0,0
L0,1173
L1564,1173
L1564,0 Z " 
fill="#FFFFFF" stroke="none" />
<g clip-path="url(#c0_2)">
<path fill-rule="evenodd" d="M0,.1H1564.4V1173.4H0V.1Z" class="g0_2" />
<path fill-rule="evenodd" d="M0,.1H1564.4V1173.4H0V.1Z" class="g0_2" />
</g>
<path fill-rule="evenodd" d="M1305.2,597v22.9h-26.1V729.2h64.7V702.6h13v26.6h12.9V702.6h12.9v26.6H1448V619.9h-26.7V597H1305.2Zm13,11.9H1331v11h-12.8v-11Zm25.6,0h13v11h-13v-11Zm25.9,0h12.9v11h-12.9v-11Zm25.8,0h13v11h-13v-11Zm-103.2,23.4h12.9v11.1h-12.9V632.3Zm25.9,0H1331v11.1h-12.8V632.3Zm25.6,0h13v11.1h-13V632.3Zm25.9,0h12.9v11.1h-12.9V632.3Zm25.8,0h13v11.1h-13V632.3Zm25.8,0h12.8v11.1h-12.8V632.3Zm-129,23.5h12.9v11h-12.9v-11Zm25.9,0H1331v11h-12.8v-11Zm77.3,0h13v11h-13v-11Zm25.8,0h12.8v11h-12.8v-11Zm-57.8,.6c8.9,0,16.1,7.2,16.1,16.1c0,8.8,-7.2,16.2,-16.1,16.2c-9,0,-16.2,-7.4,-16.2,-16.2c0,-8.9,7.2,-16.1,16.2,-16.1Zm-3.8,6.1v6.2h-6.2v7.6h6.2v6.3h7.7v-6.3h6.1v-7.6h-6.1v-6.2h-7.7Zm-67.4,16.7h12.9v11.1h-12.9V679.2Zm25.9,0H1331v11.1h-12.8V679.2Zm77.3,0h13v11.1h-13V679.2Zm25.8,0h12.8v11.1h-12.8V679.2Zm-129,23.4h12.9v11.1h-12.9V702.6Zm25.9,0H1331v11.1h-12.8V702.6Zm77.3,0h13v11.1h-13V702.6Zm25.8,0h12.8v11.1h-12.8V702.6Z" class="g1_2" />
<path fill-rule="evenodd" d="M1305.2,597v22.9h-26.1V729.2h64.7V702.6h13v26.6h12.9V702.6h12.9v26.6H1448V619.9h-26.7V597H1305.2Zm13,11.9H1331v11h-12.8v-11Zm25.6,0h13v11h-13v-11Zm25.9,0h12.9v11h-12.9v-11Zm25.8,0h13v11h-13v-11Zm-103.2,23.4h12.9v11.1h-12.9V632.3Zm25.9,0H1331v11.1h-12.8V632.3Zm25.6,0h13v11.1h-13V632.3Zm25.9,0h12.9v11.1h-12.9V632.3Zm25.8,0h13v11.1h-13V632.3Zm25.8,0h12.8v11.1h-12.8V632.3Zm-129,23.5h12.9v11h-12.9v-11Zm25.9,0H1331v11h-12.8v-11Zm77.3,0h13v11h-13v-11Zm25.8,0h12.8v11h-12.8v-11Zm-57.8,.6c8.9,0,16.1,7.2,16.1,16.1c0,8.8,-7.2,16.2,-16.1,16.2c-9,0,-16.2,-7.4,-16.2,-16.2c0,-8.9,7.2,-16.1,16.2,-16.1Zm-3.8,6.1v6.2h-6.2v7.6h6.2v6.3h7.7v-6.3h6.1v-7.6h-6.1v-6.2h-7.7Zm-67.4,16.7h12.9v11.1h-12.9V679.2Zm25.9,0H1331v11.1h-12.8V679.2Zm77.3,0h13v11.1h-13V679.2Zm25.8,0h12.8v11.1h-12.8V679.2Zm-129,23.4h12.9v11.1h-12.9V702.6Zm25.9,0H1331v11.1h-12.8V702.6Zm77.3,0h13v11.1h-13V702.6Zm25.8,0h12.8v11.1h-12.8V702.6Z" class="g2_2" />
<path fill-rule="evenodd" d="M845.5,305.8c-10.1,0,-20.3,1.1,-28.1,3.5c-15.6,4.8,-15.6,12.2,0,17c15.5,4.7,40.8,4.7,56.3,0c15.6,-4.8,15.6,-12.2,0,-17c-7.8,-2.4,-18,-3.5,-28.2,-3.5Zm-39.9,17.4v75.2c0,6.7,17.9,12.8,39.9,12.8c22.1,0,40,-6.1,40,-12.8V323.2c-5.7,5.1,-21.4,8.7,-40,8.7c-18.5,0,-34.2,-3.6,-39.9,-8.7Z" class="g3_2" />
<path fill-rule="evenodd" d="M845.5,302.7c-10.1,0,-20.3,1.1,-28.1,3.6c-15.6,4.5,-15.6,12.2,0,16.9c15.5,4.8,40.8,4.8,56.3,0c15.6,-4.7,15.6,-12.4,0,-16.9c-7.8,-2.5,-18,-3.6,-28.2,-3.6Zm-39.9,17.5v75.1c0,6.8,17.9,12.9,39.9,12.9c22.1,0,40,-6.1,40,-12.9V320.2c-5.7,5,-21.4,8.5,-40,8.5c-18.5,0,-34.2,-3.5,-39.9,-8.5Z" class="g2_2" />
<path fill-rule="evenodd" d="M874.2,833.7c-2,0,-3.7,1.6,-3.7,3.6V944.7c0,2,1.7,3.5,3.7,3.5h65.5l-.3,1.1l-2.7,14.1h-8.3v5.2h48.2v-5.2h-8.3l-2.7,-14.1l-.4,-1.1h69c1.9,0,3.6,-1.5,3.6,-3.5V837.3c0,-2,-1.7,-3.6,-3.6,-3.6h-160Zm80,3.3c.8,0,1.6,.6,1.6,1.5c0,1,-.8,1.7,-1.6,1.7c-.9,0,-1.6,-.7,-1.6,-1.7c0,-.9,.7,-1.5,1.6,-1.5Zm-74,7.5h148v84.3h-148V844.5Z" class="g3_2" />
<path fill-rule="evenodd" d="M874.2,830.6c-2,0,-3.7,1.5,-3.7,3.7V941.7c0,2,1.7,3.5,3.7,3.5h65.5l-.3,1l-2.7,14.1h-8.3v5.2h48.2v-5.2h-8.3l-2.7,-14.1l-.4,-1h69c1.9,0,3.6,-1.5,3.6,-3.5V834.3c0,-2.2,-1.7,-3.7,-3.6,-3.7h-160Zm80,3.4c.8,0,1.6,.6,1.6,1.5c0,.9,-.8,1.7,-1.6,1.7c-.9,0,-1.6,-.8,-1.6,-1.7c0,-.9,.7,-1.5,1.6,-1.5Zm-74,7.4h148v84.2h-148V841.4Z" class="g2_2" />
<path fill-rule="evenodd" d="M984.8,578.7c0,5.9,4,11.6,10.2,14.9c-6.2,3.4,-10.2,9.1,-10.2,15.2c0,6.1,4,11.7,10.4,14.9c-6.4,3.5,-10.4,9,-10.4,15.2c0,6.1,4,11.7,10.4,15.1c-6.4,3.3,-10.4,9,-10.4,15.1h4.6c0,-1.2,.1,-2.3,.6,-3.4h22.6c.5,1.1,.6,2.2,.6,3.4h4.6c0,-6.1,-4,-11.8,-10.4,-15.1c6.4,-3.4,10.4,-9,10.4,-15.1c0,-6.2,-4,-11.7,-10.2,-15.2c6.2,-3.2,10.2,-8.8,10.2,-14.9c0,-6.1,-4,-11.8,-10.2,-15.2c6.2,-3.3,10.2,-9,10.2,-14.9h-4.6c0,1,-.1,2.1,-.4,3.2H990c-.5,-1.1,-.6,-2.2,-.6,-3.2h-4.6Zm6.6,5.8h19.8c-2,3,-5.5,5.5,-9.9,6.8c-4.4,-1.3,-7.9,-3.8,-9.9,-6.8Zm9.9,11.6c4.4,1.4,7.9,3.8,9.9,6.7H991.4c2,-2.9,5.5,-5.3,9.9,-6.7ZM990,605.6h22.8c.3,1,.4,2.1,.4,3.2c0,1,-.1,2.1,-.4,3.2h-23c-.3,-1.1,-.4,-2.2,-.4,-3.2c0,-1.1,.1,-2.2,.6,-3.2Zm1.4,9h20c-2,3,-5.7,5.5,-10.1,6.8c-4.4,-1.3,-7.9,-3.8,-9.9,-6.8Zm9.9,11.6c4.4,1.4,7.9,3.8,9.9,6.7H991.4c2,-2.9,5.5,-5.3,9.9,-6.7ZM990,635.7h22.8c.3,1,.4,2.1,.4,3.2c0,1,-.1,2.1,-.4,3h-23c-.3,-.9,-.4,-2,-.4,-3c0,-1.1,.1,-2.2,.6,-3.2Zm1.2,9h20.2c-2,3,-5.5,5.5,-10.1,6.8c-4.4,-1.3,-8.1,-3.8,-10.1,-6.8Zm10.1,11.7c4.4,1.3,7.9,3.7,9.9,6.6H991.4c2.1,-2.9,5.5,-5.3,9.9,-6.6Z" class="g3_2" />
<path fill-rule="evenodd" d="M984.8,575.6c0,6,4,11.6,10.2,15c-6.2,3.3,-10.2,9,-10.2,15.1c0,6.1,4,11.8,10.4,15c-6.4,3.3,-10.4,9,-10.4,15.1c0,6.1,4,11.8,10.4,15.1c-6.4,3.4,-10.4,9,-10.4,15.2h4.6c0,-1.3,.1,-2.3,.6,-3.6h22.6c.5,1.3,.6,2.3,.6,3.6h4.6c0,-6.2,-4,-11.8,-10.4,-15.2c6.4,-3.3,10.4,-9,10.4,-15.1c0,-6.1,-4,-11.8,-10.2,-15.1c6.2,-3.2,10.2,-8.9,10.2,-15c0,-6.1,-4,-11.8,-10.2,-15.1c6.2,-3.4,10.2,-9,10.2,-15h-4.6c0,1.1,-.1,2.1,-.4,3.2H990c-.5,-1.1,-.6,-2.1,-.6,-3.2h-4.6Zm6.6,5.8h19.8c-2,3.1,-5.5,5.5,-9.9,6.9c-4.4,-1.4,-7.9,-3.8,-9.9,-6.9Zm9.9,11.6c4.4,1.2,7.9,3.8,9.9,6.7H991.4c2,-2.9,5.5,-5.5,9.9,-6.7ZM990,602.5h22.8c.3,1.1,.4,2.1,.4,3.2c0,1.1,-.1,2.1,-.4,3.1h-23c-.3,-1,-.4,-2,-.4,-3.1c0,-1.1,.1,-2.1,.6,-3.2Zm1.4,9h20c-2,3.1,-5.7,5.5,-10.1,6.9c-4.4,-1.4,-7.9,-3.8,-9.9,-6.9Zm9.9,11.6c4.4,1.4,7.9,3.8,9.9,6.7H991.4c2,-2.9,5.5,-5.3,9.9,-6.7ZM990,632.6h22.8c.3,1.1,.4,2.1,.4,3.2c0,1.1,-.1,2.1,-.4,3.1h-23c-.3,-1,-.4,-2,-.4,-3.1c0,-1.1,.1,-2.1,.6,-3.2Zm1.2,9h20.2c-2,3.1,-5.5,5.5,-10.1,6.9c-4.4,-1.4,-8.1,-3.8,-10.1,-6.9Zm10.1,11.8c4.4,1.2,7.9,3.6,9.9,6.5H991.4c2.1,-2.9,5.5,-5.3,9.9,-6.5Z" class="g4_2" />
<path d="M920.6,501.1V805.4" class="g5_2" />
<path fill-rule="evenodd" d="M920.6,479.7l11.3,22.9H909.2l11.4,-22.9Z" class="g6_2" />
<path d="M970.1,500.1V804.5" class="g5_2" />
<path fill-rule="evenodd" d="M970.1,825.9l-11.3,-23h22.8l-11.5,23Z" class="g6_2" />
<path fill-rule="evenodd" d="M854.6,570.4c-2.3,0,-4.1,1.8,-4.1,4.1v30.6c0,2.3,1.8,4.1,4.1,4.1H906c2.3,0,4.1,-1.8,4.1,-4.1V574.5c0,-2.3,-1.8,-4.1,-4.1,-4.1H854.6Zm2.9,12.8h.5v3.1h-3.5c0,-1.7,1.4,-3.1,3,-3.1Zm1.4,0h4.8c1.6,0,3,1.4,3,3.1h-7.8v-3.1Zm-4.4,4H858V590h-3.5v-2.8Zm4.4,0h3.2V590h-3.2v-2.8Zm4.1,0h3.7V590H863v-2.8Zm-8.5,3.5H858v3.2h-.5c-1.6,0,-3,-1.3,-3,-3v-.2Zm4.4,0h3.2v3.2h-3.2v-3.2Zm4.1,0h3.7v.2c0,1.7,-1.4,3,-3,3H863v-3.2Zm-7.9,9.2h1.1c.3,0,.4,.2,.4,.5v2.3c0,.1,-.1,.3,-.4,.3h-1.3c-.1,0,-.3,-.2,-.3,-.3v-2.3c0,-.3,.2,-.5,.5,-.5Zm2.6,0h.9v2.8h.5v-1c0,0,0,-.1,.1,-.1c.2,0,.2,.1,.2,.1v1.1q0,.2,-.2,.2h-1.5c-.2,0,-.3,0,-.3,-.2c0,-.1,.1,-.1,.3,-.1h.5v-2.3h-.5c-.2,0,-.3,-.2,-.3,-.3c0,0,.1,-.2,.3,-.2Zm2.7,0h1.4c.2,0,.3,.2,.3,.5v.9c0,.1,-.1,.3,-.3,.3h-1.2v1.1H862q.1,0,.1,.1q0,.2,-.1,.2h-1.9v-1.4c0,-.2,.3,-.3,.5,-.3h1.2v-.9h-1.4c-.1,0,-.3,-.2,-.3,-.3c0,0,.2,-.2,.3,-.2Zm2.8,0h1.4c.1,0,.3,.2,.3,.3v.9q0,.2,0,.3c0,.2,0,.3,0,.5v.8c0,.1,0,.3,-.3,.3h-1.4q-.2,0,-.2,-.2q0,-.1,.2,-.1h1.4v-.8c0,-.2,0,-.3,-.2,-.3h-.7c-.2,0,-.4,0,-.4,-.2c0,-.1,.2,-.1,.4,-.1h.7c.2,0,.2,-.2,.2,-.3v-.6h-1.4c-.2,0,-.2,-.2,-.2,-.3c0,0,0,-.2,.2,-.2Zm5.6,0c0,0,.2,.2,.2,.2v1.5h.8v-1.1c0,-.1,.1,-.3,.1,-.3c.2,0,.3,.2,.3,.3v1.1q.2,0,.2,.1c0,.2,-.2,.3,-.2,.3v.8c0,.2,-.1,.2,-.3,.2c0,0,-.1,0,-.1,-.2V602h-1.3v-1.8c0,-.1,.2,-.3,.3,-.3Zm5.4,0h.1c.2,0,.4,.2,.4,.2c0,.1,-.2,.3,-.4,.3v1.2h1.4q.2,0,.2,.1v1.1q0,.2,-.2,.2h-1.5q-.2,0,-.2,-.2v-2.7c0,0,0,-.2,.2,-.2Zm2.7,0h1.7v1.2c0,0,0,.2,0,.2l-.6,.4q0,.2,0,.3v.8c0,.2,-.1,.2,-.3,.2c0,0,-.1,0,-.1,-.2v-1.2l.6,-.5q.1,-.1,.1,-.1v-.6h-1c-.2,0,-.2,.1,-.4,.1c0,0,-.1,-.1,-.1,-.1v-.2c0,-.1,0,-.3,.1,-.3Zm5.8,0h.8c.2,0,.2,.2,.2,.2v1.2c.3,0,.4,.1,.4,.4v1c0,.1,-.1,.3,-.4,.3h-1.1c-.3,0,-.5,-.2,-.5,-.3v-1.1c0,-.2,.2,-.3,.5,-.3v-1.2c0,0,0,-.2,.1,-.2Zm2.5,0h1.5c.2,0,.2,.2,.2,.2v2.7q0,.2,-.2,.2h-.1c-.2,0,-.3,0,-.3,-.2c0,-.1,.1,-.1,.3,-.1v-1.4h-1.4q-.2,0,-.2,-.2v-1c0,0,0,-.2,.2,-.2Zm2.9,0h1.2c.2,0,.3,.2,.3,.5v2.3c0,.1,-.1,.3,-.3,.3h-1.2c-.2,0,-.3,-.2,-.3,-.3v-2.3c0,-.3,.1,-.5,.3,-.5Zm2.7,0h1v2.8h.3v-1c0,0,.1,-.1,.3,-.1c0,0,.1,.1,.1,.1v1.1c0,.2,-.1,.2,-.1,.2h-1.6q-.3,0,-.3,-.2q0,-.1,.3,-.1h.5v-2.3h-.5c-.3,0,-.3,-.2,-.3,-.3c0,0,0,-.2,.3,-.2Zm5.4,0h1.4c.1,0,.3,.2,.3,.5v.9c0,.1,-.2,.3,-.3,.3h-1.3v1.1h1.4q.2,0,.2,.1q0,.2,-.2,.2h-1.8v-1.4c0,-.2,.1,-.3,.4,-.3h1.3v-.9h-1.4c-.2,0,-.3,-.2,-.3,-.3c0,0,.1,-.2,.3,-.2Zm2.7,0h1.4c.2,0,.3,.2,.3,.3v.9q0,.2,-.1,.3c.1,.2,.1,.3,.1,.5v.8c0,.1,-.1,.3,-.3,.3h-1.4c-.1,0,-.3,0,-.3,-.2c0,-.1,.2,-.1,.3,-.1h1.4v-.8c0,-.2,-.1,-.3,-.3,-.3h-.8c0,0,-.1,0,-.1,-.2c0,-.1,.1,-.1,.1,-.1h.8c.2,0,.3,-.2,.3,-.3v-.6h-1.4c-.1,0,-.3,-.2,-.3,-.3c0,0,.2,-.2,.3,-.2Zm2.9,0c.2,0,.4,.2,.4,.2v1.5h.7v-1.1c0,-.1,0,-.3,.2,-.3c.1,0,.1,.2,.1,.3v1.1c.2,0,.3,0,.3,.1c0,.2,-.1,.3,-.1,.3h-.2v.8q0,.2,-.1,.2q-.2,0,-.2,-.2V602h-1.2v-1.8c0,-.1,.1,-.3,.1,-.3Zm-30.2,0H873c0,0,.1,.2,.1,.2c0,.1,-.1,.3,-.1,.3h-.9v.9h.6c.3,0,.4,.1,.4,.3v1.1c0,.1,-.1,.3,-.4,.3h-.8q-.2,0,-.3,0l-.2,-.2c-.1,0,-.3,-.1,-.3,-.1c0,-.2,.2,-.4,.3,-.4v.2h.3q0,.2,0,.2h1v-1.1h-1.1v-1.7Zm33.2,0H906c.1,0,.3,.2,.3,.2c0,.1,-.2,.3,-.3,.3h-.9v.9h.7c.3,0,.5,.1,.5,.3v1.1c0,.1,-.2,.3,-.5,.3h-.9c0,0,-.1,0,-.1,0l-.4,-.2c-.1,0,-.1,-.1,-.1,-.1c0,-.2,.1,-.4,.1,-.4c0,0,.2,0,.2,.2h.3q0,.2,0,.2h.9v-1.1h-1v-1.7Zm-21.9,.5v.9h.5v-.9h-.5Zm-27.8,0v2.3h1.1v-2.3h-1.1Zm30.2,0v.6h1.3v-.6h-1.3Zm2.8,0v2.3h1.2v-2.3h-1.2Zm-5.5,1.2v1.1h1.1v-1.1h-1.1Zm-8.3,.3v.8h1.3v-.8h-1.3Z" class="g3_2" />
<path fill-rule="evenodd" d="M854.6,567.4c-2.3,0,-4.1,1.8,-4.1,4.1V602c0,2.3,1.8,4.2,4.1,4.2H906c2.3,0,4.1,-1.9,4.1,-4.2V571.5c0,-2.3,-1.8,-4.1,-4.1,-4.1H854.6Zm2.9,12.6h.5v3.2h-3.5c0,-1.6,1.4,-3.2,3,-3.2Zm1.4,0h4.8c1.6,0,3,1.6,3,3.2h-7.8V580Zm-4.4,4.2H858v2.7h-3.5v-2.7Zm4.4,0h3.2v2.7h-3.2v-2.7Zm4.1,0h3.7v2.7H863v-2.7Zm-8.5,3.5H858v3.2h-.5c-1.6,0,-3,-1.4,-3,-3.1v-.1Zm4.4,0h3.2v3.2h-3.2v-3.2Zm4.1,0h3.7v.1c0,1.7,-1.4,3.1,-3,3.1H863v-3.2Zm-7.9,9.1h1.1c.3,0,.4,.2,.4,.5v2.1c0,.3,-.1,.5,-.4,.5h-1.3c-.1,0,-.3,-.2,-.3,-.5v-2.2c0,-.2,.2,-.4,.5,-.4Zm2.6,0h.9v2.6h.5v-.7q0,-.2,.1,-.2q.2,0,.2,.2v1c0,0,0,.2,-.2,.2h-1.5c-.2,0,-.3,-.2,-.3,-.2c0,-.1,.1,-.3,.3,-.3h.5v-2.2h-.5c-.2,0,-.3,0,-.3,-.2c0,-.2,.1,-.2,.3,-.2Zm2.7,0h1.4c.2,0,.3,.2,.3,.5v.9c0,.2,-.1,.3,-.3,.3h-1.2v.9H862c.1,0,.1,.2,.1,.3c0,0,0,.2,-.1,.2h-1.9v-1.4c0,-.1,.3,-.3,.5,-.3h1.2v-1h-1.4c-.1,0,-.3,0,-.3,-.2c0,-.2,.2,-.2,.3,-.2Zm2.8,0h1.4c.1,0,.3,.2,.3,.4v.9q0,.1,0,.3q0,.1,0,.4v.6c0,.3,0,.5,-.3,.5h-1.4c-.2,0,-.2,-.2,-.2,-.2c0,-.1,0,-.3,.2,-.3h1.4v-.6c0,-.1,0,-.3,-.2,-.3h-.7c-.2,0,-.4,0,-.4,-.1c0,-.2,.2,-.2,.4,-.2h.7c.2,0,.2,-.1,.2,-.3v-.7h-1.4q-.2,0,-.2,-.2q0,-.2,.2,-.2Zm5.6,0c0,0,.2,0,.2,.2v1.5h.8v-1c0,-.2,.1,-.3,.1,-.3c.2,0,.3,.1,.3,.3v1q.2,0,.2,.2c0,.1,-.2,.1,-.2,.1v.9c0,0,-.1,.2,-.3,.2c0,0,-.1,-.2,-.1,-.2v-.9h-1.3v-1.6c0,-.4,.2,-.4,.3,-.4Zm5.4,0h.1c.2,0,.4,0,.4,.2c0,.2,-.2,.2,-.4,.2v1.3h1.4q.2,0,.2,.2v1c0,0,0,.2,-.2,.2h-1.5c-.2,0,-.2,-.2,-.2,-.2V597q0,-.2,.2,-.2Zm2.7,0h1.7v1.3c0,0,0,.1,0,.1l-.6,.5q0,.1,0,.1v.9c0,0,-.1,.2,-.3,.2c0,0,-.1,-.2,-.1,-.2v-1c0,0,0,-.2,0,-.2l.6,-.4q.1,-.2,.1,-.3v-.6h-1c-.2,.1,-.2,.3,-.4,.3c0,0,-.1,-.2,-.1,-.3q0,-.4,.1,-.4Zm5.8,0h.8c.2,0,.2,.2,.2,.2v1.2c.3,0,.4,.2,.4,.3v.9c0,.3,-.1,.5,-.4,.5h-1.1c-.3,0,-.5,-.2,-.5,-.5v-.9c0,-.1,.2,-.3,.5,-.3V597q0,-.2,.1,-.2Zm2.5,0h1.5q.2,0,.2,.2v2.7c0,0,0,.2,-.2,.2h-.1c-.2,0,-.3,-.2,-.3,-.2c0,-.1,.1,-.3,.3,-.3v-1.2h-1.4q-.2,0,-.2,-.1V597q0,-.2,.2,-.2Zm2.9,0h1.2c.2,0,.3,.2,.3,.5v2.1c0,.3,-.1,.5,-.3,.5h-1.2c-.2,0,-.3,-.2,-.3,-.5v-2.2c0,-.2,.1,-.4,.3,-.4Zm2.7,0h1v2.6h.3v-.7c0,-.2,.1,-.2,.3,-.2c0,0,.1,0,.1,.2v1c0,0,-.1,.2,-.1,.2h-1.6c-.3,0,-.3,-.2,-.3,-.2c0,-.1,0,-.3,.3,-.3h.5v-2.2h-.5q-.3,0,-.3,-.2q0,-.2,.3,-.2Zm5.4,0h1.4c.1,0,.3,.2,.3,.5v.9c0,.2,-.2,.3,-.3,.3h-1.3v.9h1.4c.2,0,.2,.2,.2,.3c0,0,0,.2,-.2,.2h-1.8v-1.4c0,-.1,.1,-.3,.4,-.3h1.3v-1h-1.4c-.2,0,-.3,0,-.3,-.2c0,-.2,.1,-.2,.3,-.2Zm2.7,0h1.4c.2,0,.3,.2,.3,.4v.9q0,.1,-.1,.3q.1,.1,.1,.4v.6c0,.3,-.1,.5,-.3,.5h-1.4c-.1,0,-.3,-.2,-.3,-.2c0,-.1,.2,-.3,.3,-.3h1.4v-.6c0,-.1,-.1,-.3,-.3,-.3h-.8c0,0,-.1,0,-.1,-.1c0,-.2,.1,-.2,.1,-.2h.8c.2,0,.3,-.1,.3,-.3v-.7h-1.4c-.1,0,-.3,0,-.3,-.2c0,-.2,.2,-.2,.3,-.2Zm2.9,0c.2,0,.4,0,.4,.2v1.5h.7v-1c0,-.2,0,-.3,.2,-.3c.1,0,.1,.1,.1,.3v1c.2,0,.3,0,.3,.2c0,.1,-.1,.1,-.1,.1h-.2v.9c0,0,0,.2,-.1,.2c-.2,0,-.2,-.2,-.2,-.2v-.9h-1.2v-1.6c0,-.4,.1,-.4,.1,-.4Zm-30.2,0H873c0,0,.1,0,.1,.2c0,.2,-.1,.2,-.1,.2h-.9v1h.6c.3,0,.4,.2,.4,.3v.9c0,.3,-.1,.5,-.4,.5h-.8q-.2,0,-.3,-.2h-.2c-.1,0,-.3,-.1,-.3,-.3c0,0,.2,-.1,.3,-.1v.1h1.3v-.9h-1.1v-1.7Zm33.2,0H906c.1,0,.3,0,.3,.2c0,.2,-.2,.2,-.3,.2h-.9v1h.7c.3,0,.5,.2,.5,.3v.9c0,.3,-.2,.5,-.5,.5h-.9c0,0,-.1,0,-.1,-.2h-.4c-.1,0,-.1,-.1,-.1,-.3c0,0,.1,-.1,.1,-.1c0,0,.2,0,.2,.1h1.2v-.9h-1v-1.7Zm-21.9,.4v1h.5v-1h-.5Zm-27.8,0v2.2h1.1v-2.2h-1.1Zm30.2,0v.7h1.3v-.7h-1.3Zm2.8,0v2.2h1.2v-2.2h-1.2Zm-5.5,1.3v.9h1.1v-.9h-1.1Zm-8.3,.3v.6h1.3v-.6h-1.3Z" class="g7_2" />
<path fill-rule="evenodd" d="M954.2,478.6H798.3V439.8h311.9v38.8h-156Z" class="g3_2" />
<path fill-rule="evenodd" d="M954.2,475.5H798.3V436.7h311.9v38.8h-156Z" class="g8_2" />
<text x="770" y="285" dx="0,-2.3,0,0,0,0.1,0,-0.2" class="s1_2">Variants</text>
<path fill-rule="evenodd" d="M1025.6,305.8c-10.2,0,-20.5,1.1,-28.3,3.5c-15.6,4.8,-15.6,12.2,0,17c15.8,4.7,41,4.7,56.6,0c15.5,-4.8,15.5,-12.2,0,-17c-7.8,-2.4,-18.1,-3.5,-28.3,-3.5Zm-39.9,17.4v75.2c0,6.7,17.9,12.8,39.9,12.8c22.1,0,39.9,-6.1,39.9,-12.8V323.2c-5.7,5.1,-21.4,8.7,-39.9,8.7c-18.5,0,-34.2,-3.6,-39.9,-8.7Z" class="g3_2" />
<path fill-rule="evenodd" d="M1025.6,302.7c-10.2,0,-20.5,1.1,-28.3,3.6c-15.6,4.5,-15.6,12.2,0,16.9c15.8,4.8,41,4.8,56.6,0c15.5,-4.7,15.5,-12.4,0,-16.9c-7.8,-2.5,-18.1,-3.6,-28.3,-3.6Zm-39.9,17.5v75.1c0,6.8,17.9,12.9,39.9,12.9c22.1,0,39.9,-6.1,39.9,-12.9V320.2c-5.7,5,-21.4,8.5,-39.9,8.5c-18.5,0,-34.2,-3.5,-39.9,-8.5Z" class="g2_2" />
<text x="930" y="285" dx="0,0.1,-0.1,0,0,-0.1,0,0.1" class="s1_2">Workfows</text>
<path d="M890.2,386.8l38.4,38.3" class="g9_2" />
<path fill-rule="evenodd" d="M937.7,434.3l-14.6,-4.9l9.8,-9.8l4.8,14.7Z" class="g6_2" />
<path d="M875.1,412.9l17.9,18" class="g9_2" />
<path fill-rule="evenodd" d="M865.9,403.9l14.7,4.9l-9.8,9.6l-4.9,-14.5Z" class="g6_2" />
<path fill-rule="evenodd" d="M831.9,414.9c-1.2,0,-2.2,1.1,-2.2,2.1v16.4c0,1.2,1,2.3,2.2,2.3h27.3c1.2,0,2.3,-1.1,2.3,-2.3V417c0,-1,-1.1,-2.1,-2.3,-2.1H831.9Zm1.5,6.9h.3v1.6h-1.8v-.1c0,-.9,.6,-1.5,1.5,-1.5Zm.8,0h2.4c.9,0,1.7,.6,1.7,1.5v.1h-4.1v-1.6Zm-2.3,2.1h1.8v1.4h-1.8v-1.4Zm2.3,0h1.6v1.4h-1.6v-1.4Zm2.1,0h2v1.4h-2v-1.4Zm-4.4,1.8h1.8v1.7h-.3c-.9,0,-1.5,-.7,-1.5,-1.7Zm2.3,0h1.6v1.7h-1.6v-1.7Zm2.1,0h2c0,1,-.8,1.7,-1.7,1.7h-.3v-1.7Zm-4.3,4.9h.6c.2,0,.3,0,.3,.2V432c0,.2,-.1,.2,-.3,.2H832c0,0,-.1,0,-.1,-.2v-1.2c0,-.2,.1,-.2,.1,-.2Zm1.6,0h.4V432h.2v-.5c0,0,.1,0,.1,0c0,0,.2,0,.2,0v.7c0,0,-.2,0,-.2,0h-.7q-.2,0,-.2,0c0,0,0,-.2,.2,-.2h.3v-1.2h-.3q-.2,0,-.2,-.2h.2Zm1.3,0h.8q.1,0,.1,.2v.4c0,.2,0,.3,-.1,.3h-.6v.5h.7c0,0,0,.2,0,.2h-.9v-.7c0,-.1,0,-.3,.2,-.3h.6v-.4h-.8v-.2Zm1.6,0h.7q.2,0,.2,.2v.4c0,0,0,.2,0,.2q0,.1,0,.3v.3q0,.2,-.2,.2h-.7c0,0,-.2,0,-.2,0c0,0,.2,-.2,.2,-.2h.7v-.3c0,-.2,-.1,-.2,-.1,-.2h-.3q-.2,0,-.2,-.1c0,0,0,-.2,.2,-.2h.3c0,0,.1,0,.1,0v-.4h-.7c0,0,-.2,0,-.2,-.2c0,0,.2,0,.2,0Zm2.9,0q.1,0,.1,.2v.7h.5v-.6q0,-.1,.1,-.1v.7q.2,0,.2,0c0,.2,-.2,.2,-.2,.2v.5q-.1,0,-.1,0v-.5h-.6v-.9q0,-.2,0,-.2Zm2.9,0h.1c0,0,.2,0,.2,0q0,.2,-.2,.2v.7h.8v.7h-.9v-1.6Zm1.5,0h.9v.6l-.3,.3q-.2,.2,-.2,.2v.5q-.1,0,-.1,0v-.7l.3,-.3q.2,0,.2,-.1v-.3h-.7c0,.1,-.1,.1,-.1,.1q-.2,0,-.2,-.1q0,-.2,.2,-.2Zm3,0h.5c0,0,.2,0,.2,0v.6c0,.2,.1,.2,.1,.3v.5c0,.2,-.1,.2,-.1,.2h-.8c0,0,-.2,0,-.2,-.2v-.5c0,-.1,.2,-.3,.3,-.3v-.6Zm1.4,0h.8c0,0,.1,0,.1,0v1.6c0,0,-.1,0,-.1,0h-.2c0,0,0,-.2,0,-.2v-.6h-.7c0,0,0,-.2,0,-.2v-.6h.1Zm1.6,0h.6q.1,0,.1,.2V432q0,.2,-.1,.2h-.6c-.2,0,-.4,0,-.4,-.2v-1.2c0,-.2,.2,-.2,.4,-.2Zm1.3,0h.5V432h.3v-.5q.1,0,.1,0v.7h-.9c0,0,-.1,0,-.1,0c0,0,.1,-.2,.1,-.2h.3v-1.2h-.3c0,0,-.1,0,-.1,-.2c0,0,.1,0,.1,0Zm2.9,0h.6c.2,0,.3,0,.3,.2v.4c0,.2,-.1,.3,-.3,.3H854v.5h.8c.1,0,.1,.2,.1,.2h-1v-.7c0,-.1,.1,-.3,.1,-.3h.6v-.4H854q-.1,0,-.1,-.2h.1Zm1.6,0h.6c.1,0,.3,0,.3,.2v.4c0,0,0,.2,-.2,.2q.2,.1,.2,.3v.3c0,.2,-.2,.2,-.3,.2h-.6q-.2,0,-.2,0c0,0,0,-.2,.2,-.2h.6v-.3q0,-.2,0,-.2h-.5q-.1,0,-.1,-.1c0,0,0,-.2,.1,-.2h.5v-.4h-.6q-.2,0,-.2,-.2h.2Zm1.5,0c0,0,.1,0,.1,.2v.7h.3v-.6q0,-.1,.2,-.1c0,0,.1,0,.1,.1v.6q0,.2,0,.2v.5c0,0,-.1,0,-.1,0q-.2,0,-.2,0v-.5h-.6v-.9q0,-.2,.2,-.2Zm-16.2,0h.8c0,0,.1,0,.1,0c0,.2,-.1,.2,-.1,.2H841v.4h.5c.2,0,.3,.2,.3,.3v.5c0,.2,-.1,.2,-.3,.2h-.8V432q.2,0,.2,0h.6v-.5h-.6v-.9Zm17.7,0h.6q.2,0,.2,0q0,.2,-.2,.2h-.4v.4h.4c.2,0,.2,.2,.2,.3v.5q0,.2,-.2,.2h-.4q-.2,0,-.2,0h-.1c0,0,-.2,0,-.2,-.2c0,0,.2,0,.2,0h.7v-.5h-.6v-.9Zm-11.6,.2v.4h.2v-.4H847Zm-15,0V432h.6v-1.2H832Zm16.2,0v.3h.6v-.3h-.6Zm1.6,0V432h.6v-1.2h-.6Zm-3,.7v.5h.7v-.5h-.7Zm-4.4,.2v.3h.6v-.3h-.6Z" class="g3_2" />
<path fill-rule="evenodd" d="M831.9,411.8c-1.2,0,-2.2,.9,-2.2,2.2v16.3c0,1.2,1,2.2,2.2,2.2h27.3c1.2,0,2.3,-1,2.3,-2.2V414c0,-1.3,-1.1,-2.2,-2.3,-2.2H831.9Zm1.5,6.8h.3v1.6h-1.8c0,-.9,.6,-1.6,1.5,-1.6Zm.8,0h2.4c.9,0,1.7,.7,1.7,1.6h-4.1v-1.6Zm-2.3,2.2h1.8v1.4h-1.8v-1.4Zm2.3,0h1.6v1.4h-1.6v-1.4Zm2.1,0h2v1.4h-2v-1.4Zm-4.4,1.9h1.8v1.7h-.3c-.9,0,-1.5,-.8,-1.5,-1.7Zm2.3,0h1.6v1.7h-1.6v-1.7Zm2.1,0h2c0,.9,-.8,1.7,-1.7,1.7h-.3v-1.7Zm-4.3,4.9h.6c.2,0,.3,0,.3,.1v1.2c0,.2,-.1,.2,-.3,.2H832c0,0,-.1,0,-.1,-.2v-1.2c0,-.1,.1,-.1,.1,-.1Zm1.6,0h.4v1.3h.2v-.4c0,0,.1,-.2,.1,-.2c0,0,.2,.2,.2,.2v.6c0,0,-.2,0,-.2,0h-.7q-.2,0,-.2,0q0,-.2,.2,-.2h.3v-1.2h-.3q-.2,0,-.2,-.1h.2Zm1.3,0h.8q.1,0,.1,.1v.5c0,.1,0,.3,-.1,.3h-.6v.4h.7v.2h-.9v-.6c0,-.2,0,-.3,.2,-.3h.6v-.5h-.8v-.1Zm1.6,0h.7q.2,0,.2,.1v.5c0,0,0,.1,0,.1c0,0,0,.2,0,.3v.3q0,.2,-.2,.2h-.7c0,0,-.2,0,-.2,0c0,-.2,.2,-.2,.2,-.2h.7v-.3c0,-.1,-.1,-.1,-.1,-.1h-.3c-.2,0,-.2,-.2,-.2,-.2c0,0,0,-.1,.2,-.1h.3c0,0,.1,0,.1,-.2v-.3h-.7c0,0,-.2,0,-.2,-.1c0,0,.2,0,.2,0Zm2.9,0q.1,0,.1,.1v.6h.5v-.4q0,-.2,.1,-.2v.6c.2,0,.2,.2,.2,.2c0,.1,-.2,.1,-.2,.1v.5q-.1,0,-.1,0v-.5h-.6v-.9q0,-.1,0,-.1Zm2.9,0h.1c0,0,.2,0,.2,0q0,.1,-.2,.1v.6h.8c0,0,0,.2,0,.2v.6h-.9v-1.5Zm1.5,0h.9v.6l-.3,.3q-.2,.1,-.2,.1v.5q-.1,0,-.1,0v-.6l.3,-.3c.2,0,.2,-.2,.2,-.2v-.3h-.7c0,0,-.1,.2,-.1,.2c-.2,0,-.2,-.2,-.2,-.2q0,-.1,.2,-.1Zm3,0h.5c0,0,.2,0,.2,0v.6c0,.1,.1,.1,.1,.3v.4c0,.2,-.1,.2,-.1,.2h-.8c0,0,-.2,0,-.2,-.2v-.4c0,-.2,.2,-.3,.3,-.3v-.6Zm1.4,0h.8c0,0,.1,0,.1,0v1.5c0,0,-.1,0,-.1,0h-.2q0,-.2,0,-.2v-.6h-.7c0,0,0,-.1,0,-.1v-.6h.1Zm1.6,0h.6q.1,0,.1,.1v1.2q0,.2,-.1,.2h-.6c-.2,0,-.4,0,-.4,-.2v-1.2c0,-.1,.2,-.1,.4,-.1Zm1.3,0h.5v1.3h.3v-.4c0,0,0,-.2,0,-.2c.1,0,.1,.2,.1,.2v.6h-.9c0,0,-.1,0,-.1,0c0,-.2,.1,-.2,.1,-.2h.3v-1.2h-.3c0,0,-.1,0,-.1,-.1c0,0,.1,0,.1,0Zm2.9,0h.6c.2,0,.3,0,.3,.1v.5c0,.1,-.1,.3,-.3,.3H854v.4h.8q.1,0,.1,.2h-1v-.6c0,-.2,.1,-.3,.1,-.3h.6v-.5H854q-.1,0,-.1,-.1h.1Zm1.6,0h.6c.1,0,.3,0,.3,.1v.5c0,0,0,.1,-.2,.1c.2,0,.2,.2,.2,.3v.3c0,.2,-.2,.2,-.3,.2h-.6q-.2,0,-.2,0q0,-.2,.2,-.2h.6v-.3q0,-.1,0,-.1h-.5c-.1,0,-.1,-.2,-.1,-.2c0,0,0,-.1,.1,-.1h.5v-.5h-.6q-.2,0,-.2,-.1h.2Zm1.5,0c0,0,.1,0,.1,.1v.6h.3v-.4q0,-.2,.2,-.2c0,0,.1,0,.1,.2v.4c0,0,0,.2,0,.2q0,.1,0,.1v.5c0,0,-.1,0,-.1,0q-.2,0,-.2,0v-.5h-.6v-.9q0,-.1,.2,-.1Zm-16.2,0h.8c0,0,.1,0,.1,0c0,.1,-.1,.1,-.1,.1H841v.5h.5c.2,0,.3,.1,.3,.3v.4c0,.2,-.1,.2,-.3,.2h-.8c0,0,0,-.2,0,-.2q.2,0,.2,0h.6v-.4h-.6v-.9Zm17.7,0h.6q.2,0,.2,0q0,.1,-.2,.1h-.4v.5h.4c.2,0,.2,.1,.2,.3v.4q0,.2,-.2,.2h-.4q-.2,0,-.2,0h-.1c0,0,-.2,-.2,-.2,-.2c0,0,.2,0,.2,0h.7v-.4h-.6v-.9Zm-11.6,.1v.5h.2v-.5H847Zm-15,0v1.2h.6v-1.2H832Zm16.2,0v.3h.6v-.3h-.6Zm1.6,0v1.2h.6v-1.2h-.6Zm-3,.8v.4h.7v-.4h-.7Zm-4.4,.1v.3h.6v-.3h-.6Z" class="g7_2" />
<path fill-rule="evenodd" d="M911.8,353.9c0,3.2,2.1,6.3,5.5,8.1c-3.4,1.9,-5.5,4.8,-5.5,8c0,3.2,2.1,6.2,5.5,8.1c-3.4,1.6,-5.5,4.7,-5.5,7.9c0,3.2,2.1,6.3,5.5,8.1c-3.4,1.7,-5.5,4.7,-5.5,8h2.4c0,-.7,.2,-1.3,.3,-1.9h12.1c.1,.6,.3,1.2,.3,1.9h2.4c0,-3.3,-2.1,-6.2,-5.5,-8c3.4,-1.8,5.5,-4.9,5.5,-8.1c0,-3.2,-2.1,-6.3,-5.5,-7.9c3.4,-1.9,5.5,-4.9,5.5,-8.1c0,-3.2,-2.1,-6.1,-5.5,-8c3.4,-1.8,5.5,-4.9,5.5,-8.1h-2.4c0,.6,-.2,1.3,-.3,1.7H914.5c-.1,-.4,-.3,-1.1,-.3,-1.7h-2.4Zm3.5,3.2h10.5c-1,1.6,-2.9,2.9,-5.2,3.6c-2.4,-.7,-4.2,-2,-5.3,-3.6Zm5.3,6.1c2.3,.8,4.2,2,5.2,3.7H915.3c1.1,-1.7,2.9,-2.9,5.3,-3.7Zm-6.1,5.1h12.1c.1,.6,.3,1.1,.3,1.7c0,.6,-.2,1,-.3,1.7H914.5c-.1,-.7,-.3,-1.1,-.3,-1.7c0,-.6,.2,-1.1,.3,-1.7Zm.8,4.7h10.5c-1,1.7,-2.9,3.1,-5.2,3.7c-2.4,-.6,-4.2,-2,-5.3,-3.7Zm5.3,6.3c2.3,.8,4.2,2,5.2,3.5H915.3c1.1,-1.5,2.9,-2.7,5.3,-3.5Zm-6.1,5h12.1c.1,.5,.3,1.1,.3,1.7c0,.6,-.2,1.1,-.3,1.7H914.5c-.1,-.6,-.3,-1.1,-.3,-1.7c0,-.6,.2,-1.2,.3,-1.7Zm.6,4.8H926c-1.1,1.6,-3.1,3,-5.4,3.6c-2.4,-.6,-4.2,-2,-5.5,-3.6Zm5.5,6.2c2.3,.8,4.2,2,5.2,3.5H915.3c1.1,-1.5,2.9,-2.7,5.3,-3.5Z" class="g3_2" />
<path fill-rule="evenodd" d="M911.8,350.9c0,3.2,2.1,6.2,5.5,8.1c-3.4,1.7,-5.5,4.7,-5.5,7.9c0,3.2,2.1,6.3,5.5,8c-3.4,1.8,-5.5,4.8,-5.5,8.1c0,3.2,2.1,6.2,5.5,8.1c-3.4,1.6,-5.5,4.7,-5.5,7.9h2.4c0,-.6,.2,-1.2,.3,-1.8h12.1c.1,.6,.3,1.2,.3,1.8h2.4c0,-3.2,-2.1,-6.3,-5.5,-7.9c3.4,-1.9,5.5,-4.9,5.5,-8.1c0,-3.3,-2.1,-6.3,-5.5,-8.1c3.4,-1.7,5.5,-4.8,5.5,-8c0,-3.2,-2.1,-6.2,-5.5,-7.9c3.4,-1.9,5.5,-4.9,5.5,-8.1h-2.4c0,.6,-.2,1.2,-.3,1.7H914.5c-.1,-.5,-.3,-1.1,-.3,-1.7h-2.4Zm3.5,3.2h10.5c-1,1.5,-2.9,2.9,-5.2,3.5c-2.4,-.6,-4.2,-2,-5.3,-3.5Zm5.3,6.1c2.3,.8,4.2,2,5.2,3.7H915.3c1.1,-1.7,2.9,-2.9,5.3,-3.7Zm-6.1,5h12.1c.1,.6,.3,1.1,.3,1.7c0,.6,-.2,1.1,-.3,1.7H914.5c-.1,-.6,-.3,-1.1,-.3,-1.7c0,-.6,.2,-1.1,.3,-1.7Zm.8,4.8h10.5c-1,1.7,-2.9,3,-5.2,3.6c-2.4,-.6,-4.2,-1.9,-5.3,-3.6Zm5.3,6.2c2.3,.6,4.2,2,5.2,3.5H915.3c1.1,-1.5,2.9,-2.9,5.3,-3.5Zm-6.1,4.9h12.1c.1,.6,.3,1.2,.3,1.9c0,.6,-.2,1,-.3,1.6H914.5c-.1,-.6,-.3,-1,-.3,-1.6c0,-.7,.2,-1.3,.3,-1.9Zm.6,4.9H926c-1.1,1.7,-3.1,3.1,-5.4,3.7c-2.4,-.6,-4.2,-2,-5.5,-3.7Zm5.5,6.3c2.3,.7,4.2,2,5.2,3.5H915.3c1.1,-1.5,2.9,-2.8,5.3,-3.5Z" class="g4_2" />
<path d="M1124.1,452.8l170.5,116.9" class="g5_2" />
<path fill-rule="evenodd" d="M1312.4,581.7L1287,578.2l12.8,-18.9l12.6,22.4Z" class="g6_2" />
<path fill-rule="evenodd" d="M1191.4,439.8c-2.3,0,-4.2,1.8,-4.2,4.1v30.6c0,2.3,1.9,4.1,4.2,4.1h51.3c2.3,0,4.3,-1.8,4.3,-4.1V443.9c0,-2.3,-2,-4.1,-4.3,-4.1h-51.3Zm3,12.8h.5v3.1h-3.7c0,-1.7,1.4,-3.1,3.2,-3.1Zm1.2,0h4.8c1.7,0,3,1.4,3,3.1h-7.8v-3.1Zm-4.4,4h3.7v2.7h-3.7v-2.7Zm4.4,0h3.4v2.7h-3.4v-2.7Zm4.2,0h3.6v2.7h-3.6v-2.7Zm-8.6,3.7h3.7v3h-.5c-1.8,0,-3.2,-1.4,-3.2,-3Zm4.4,0h3.4v3h-3.4v-3Zm4.2,0h3.6c0,1.6,-1.3,3,-3,3h-.6v-3Zm-8,9h1.2c.2,0,.3,.1,.3,.4V472c0,.2,-.1,.3,-.3,.3h-1.2c-.1,0,-.3,-.1,-.3,-.3v-2.3c0,-.3,.2,-.4,.3,-.4Zm2.6,0h.9V472h.5v-.7c0,-.2,.1,-.3,.1,-.3c.2,0,.4,.1,.4,.3v.9c0,.1,-.2,.1,-.4,.1h-1.5q-.1,0,-.1,-.1q0,-.2,.1,-.2h.6v-2.3h-.6c-.1,0,-.1,-.1,-.1,-.3c0,0,0,-.1,.1,-.1Zm2.8,0h1.3c.3,0,.5,.1,.5,.4v1c0,.1,-.2,.3,-.5,.3h-1v1h1.2c.1,0,.3,0,.3,.2c0,.1,-.2,.1,-.3,.1H1197V471c0,-.2,.2,-.3,.5,-.3h1v-1h-1.3c0,0,-.2,-.1,-.2,-.3c0,0,.2,-.1,.2,-.1Zm2.9,0h1.2c.3,0,.4,.1,.4,.3v.9q0,.2,-.1,.3c.1,.2,.1,.3,.1,.5v.7c0,.2,-.1,.3,-.4,.3h-1.2c-.2,0,-.3,0,-.3,-.1c0,-.2,.1,-.2,.3,-.2h1.2v-.7c0,-.2,0,-.3,-.2,-.3h-.7c0,0,-.2,0,-.2,-.2c0,-.1,.2,-.1,.2,-.1h.7c.2,0,.2,-.2,.2,-.4v-.6h-1.2c-.2,0,-.3,-.1,-.3,-.3c0,0,.1,-.1,.3,-.1Zm5.5,0c.1,0,.3,.1,.3,.1V471h.7v-1.1c0,-.2,0,-.3,.2,-.3c.1,0,.1,.1,.1,.3V471q.2,0,.2,.1c0,.2,0,.3,-.2,.3v.8q0,.1,-.1,.1q-.2,0,-.2,-.1v-.8h-1.2v-1.8c0,-.2,.2,-.3,.2,-.3Zm5.5,0h.1c.2,0,.2,.1,.2,.1c0,.2,0,.3,-.2,.3V471h1.4c0,0,.1,0,.1,.1v1.1c0,.1,-.1,.1,-.3,.1h-1.3c-.2,0,-.3,0,-.3,-.1v-2.8c0,0,.1,-.1,.3,-.1Zm2.7,0h1.7v1.2c0,0,0,.2,0,.2l-.8,.6v.9q0,.1,-.1,.1q-.2,0,-.2,-.1V471l.6,-.5c0,-.2,.2,-.2,.2,-.2v-.6H1214c0,0,0,.2,-.2,.2c-.1,0,-.1,-.2,-.1,-.2v-.1c0,-.2,0,-.3,.1,-.3Zm5.8,0h.6c.2,0,.3,.1,.3,.1v1.3c.3,0,.3,.1,.3,.4v.9c0,.2,-.1,.3,-.3,.3h-1.2c-.1,0,-.3,-.1,-.3,-.3v-1c0,-.2,.2,-.3,.3,-.3v-1.3c0,0,.2,-.1,.3,-.1Zm2.3,0h1.5c.2,0,.4,.1,.4,.1v2.8c0,.1,-.2,.1,-.4,.1h-.1q-.2,0,-.2,-.1q0,-.2,.2,-.2v-1.3h-1.4q-.1,0,-.1,-.2v-1.1c0,0,.1,-.1,.1,-.1Zm3.1,0h1c.3,0,.5,.1,.5,.4V472c0,.2,-.2,.3,-.5,.3h-1c-.3,0,-.5,-.1,-.5,-.3v-2.3c0,-.3,.2,-.4,.5,-.4Zm2.6,0h.9V472h.4v-.7c0,-.2,0,-.3,.2,-.3c.1,0,.1,.1,.1,.3v.9q0,.1,-.1,.1h-1.5q-.2,0,-.2,-.1q0,-.2,.2,-.2h.4v-2.3h-.4c-.2,0,-.2,-.1,-.2,-.3c0,0,0,-.1,.2,-.1Zm5.3,0h1.4c.1,0,.5,.1,.5,.4v1c0,.1,-.4,.3,-.5,.3h-1.2v1h1.3c.2,0,.4,0,.4,.2c0,.1,-.2,.1,-.4,.1h-1.6V471c0,-.2,.1,-.3,.3,-.3h1.2v-1h-1.4c-.1,0,-.1,-.1,-.1,-.3c0,0,0,-.1,.1,-.1Zm2.8,0h1.3c.3,0,.5,.1,.5,.3v.9c0,.2,-.2,.2,-.2,.3c0,.2,.2,.3,.2,.5v.7c0,.2,-.2,.3,-.5,.3h-1.3c0,0,-.2,0,-.2,-.1c0,-.2,.2,-.2,.2,-.2h1.3v-.7c0,-.2,0,-.3,-.1,-.3h-.8q-.1,0,-.1,-.2q0,-.1,.1,-.1h.8c.1,0,.1,-.2,.1,-.4v-.6h-1.3c0,0,-.2,-.1,-.2,-.3c0,0,.2,-.1,.2,-.1Zm3,0c.2,0,.2,.1,.2,.1V471h.7v-1.1c0,-.2,.2,-.3,.3,-.3c0,0,.2,.1,.2,.3V471q.1,0,.1,.1c0,.2,0,.3,-.1,.3v.8c0,.1,-.2,.1,-.2,.1c-.1,0,-.3,0,-.3,-.1v-.8h-1v-1.8c0,-.2,0,-.3,.1,-.3Zm-30.2,0h1.2c.1,0,.1,.1,.1,.1c0,.2,0,.3,-.1,.3h-.9v1h.7c.3,0,.3,.1,.3,.3v1c0,.2,-.1,.3,-.3,.3h-.9c0,0,-.1,0,-.1,0l-.3,-.1c-.2,0,-.2,-.2,-.2,-.2c0,-.1,.2,-.3,.2,-.3c0,0,.1,0,.1,.2h.2q.1,0,.1,0q0,.1,0,.1h.9v-1h-1v-1.7Zm33,0h1.3c.2,0,.2,.1,.2,.1c0,.2,0,.3,-.2,.3h-.9v1h.8c.1,0,.3,.1,.3,.3v1c0,.2,-.2,.3,-.3,.3h-.9q-.2,0,-.3,0l-.2,-.1c-.1,0,-.1,-.2,-.1,-.2c0,-.1,0,-.3,.1,-.3l.2,.2h.1q0,.1,0,.1h1.1v-1h-1.2v-1.7Zm-21.7,.4v1h.3v-1h-.3Zm-28,0V472h1.2v-2.3h-1.2Zm30.4,0v.6h1.1v-.6h-1.1Zm2.8,0V472h1v-2.3h-1Zm-5.7,1.3v1h1.2v-1h-1.2Zm-8.1,.3v.7h1.1v-.7h-1.1Z" class="g3_2" />
<path fill-rule="evenodd" d="M1191.4,436.7c-2.3,0,-4.2,1.9,-4.2,4.2v30.5c0,2.3,1.9,4.1,4.2,4.1h51.3c2.3,0,4.3,-1.8,4.3,-4.1V440.9c0,-2.3,-2,-4.2,-4.3,-4.2h-51.3Zm3,12.9h.5v3h-3.7c0,-1.7,1.4,-3,3.2,-3Zm1.2,0h4.8c1.7,0,3,1.3,3,3h-7.8v-3Zm-4.4,3.9h3.7v2.8h-3.7v-2.8Zm4.4,0h3.4v2.8h-3.4v-2.8Zm4.2,0h3.6v2.8h-3.6v-2.8Zm-8.6,3.6h3.7v3.2h-.5c-1.8,0,-3.2,-1.4,-3.2,-3.1v-.1Zm4.4,0h3.4v3.2h-3.4v-3.2Zm4.2,0h3.6v.1c0,1.7,-1.3,3.1,-3,3.1h-.6v-3.2Zm-8,9.1h1.2c.2,0,.3,.2,.3,.5V469c0,.1,-.1,.3,-.3,.3h-1.2c-.1,0,-.3,-.2,-.3,-.3v-2.5c0,-.1,.2,-.3,.3,-.3Zm2.6,0h.9V469h.5v-.9c0,0,.1,-.2,.1,-.2c.2,0,.4,.2,.4,.2v1c0,0,-.2,.2,-.4,.2h-1.5c-.1,0,-.1,-.2,-.1,-.2q0,-.1,.1,-.1h.6v-2.5h-.6q-.1,0,-.1,-.1q0,-.2,.1,-.2Zm2.8,0h1.3c.3,0,.5,.2,.5,.5v.9c0,.1,-.2,.3,-.5,.3h-1V469h1.2c.1,0,.3,0,.3,.1c0,0,-.2,.2,-.3,.2H1197v-1.4c0,-.2,.2,-.3,.5,-.3h1v-1.1h-1.3c0,0,-.2,0,-.2,-.1c0,-.2,.2,-.2,.2,-.2Zm2.9,0h1.2c.3,0,.4,.2,.4,.3v.9q0,.2,-.1,.3c.1,.2,.1,.4,.1,.5v.8c0,.1,-.1,.3,-.4,.3h-1.2c-.2,0,-.3,-.2,-.3,-.2c0,-.1,.1,-.1,.3,-.1h1.2v-.8c0,-.1,0,-.3,-.2,-.3h-.7c0,0,-.2,0,-.2,-.2c0,-.1,.2,-.1,.2,-.1h.7c.2,0,.2,-.2,.2,-.3v-.8h-1.2c-.2,0,-.3,0,-.3,-.1c0,-.2,.1,-.2,.3,-.2Zm5.5,0c.1,0,.3,0,.3,.2v1.5h.7v-1.1c0,-.1,0,-.3,.2,-.3c.1,0,.1,.2,.1,.3v1.1q.2,0,.2,.2c0,.1,0,.3,-.2,.3v.7c0,0,0,.2,-.1,.2c-.2,0,-.2,-.2,-.2,-.2v-.7h-1.2v-1.9c0,-.3,.2,-.3,.2,-.3Zm5.5,0h.1q.2,0,.2,.2q0,.1,-.2,.1v1.4h1.4c0,0,.1,0,.1,.2v1c0,0,-.1,.2,-.3,.2h-1.3c-.2,0,-.3,-.2,-.3,-.2v-2.7c0,-.2,.1,-.2,.3,-.2Zm2.7,0h1.7v1.2c0,0,0,.2,0,.2l-.8,.5q0,.1,0,.3v.7c0,0,0,.2,-.1,.2c-.2,0,-.2,-.2,-.2,-.2v-1.2l.6,-.5c0,-.1,.2,-.1,.2,-.3v-.6H1214c0,.2,0,.3,-.2,.3c-.1,0,-.1,-.1,-.1,-.3q0,-.3,.1,-.3Zm5.8,0h.6c.2,0,.3,.2,.3,.2v1.2c.3,0,.3,.1,.3,.5v.9c0,.1,-.1,.3,-.3,.3h-1.2c-.1,0,-.3,-.2,-.3,-.3v-1.1c0,-.2,.2,-.3,.3,-.3v-1.2c0,-.2,.2,-.2,.3,-.2Zm2.3,0h1.5c.2,0,.4,0,.4,.2v2.7c0,0,-.2,.2,-.4,.2h-.1c-.2,0,-.2,-.2,-.2,-.2q0,-.1,.2,-.1v-1.4h-1.4q-.1,0,-.1,-.2v-1c0,-.2,.1,-.2,.1,-.2Zm3.1,0h1c.3,0,.5,.2,.5,.5V469c0,.1,-.2,.3,-.5,.3h-1c-.3,0,-.5,-.2,-.5,-.3v-2.5c0,-.1,.2,-.3,.5,-.3Zm2.6,0h.9V469h.4v-.9c0,0,0,-.2,.2,-.2c.1,0,.1,.2,.1,.2v1c0,0,0,.2,-.1,.2h-1.5c-.2,0,-.2,-.2,-.2,-.2q0,-.1,.2,-.1h.4v-2.5h-.4q-.2,0,-.2,-.1q0,-.2,.2,-.2Zm5.3,0h1.4c.1,0,.5,.2,.5,.5v.9c0,.1,-.4,.3,-.5,.3h-1.2V469h1.3c.2,0,.4,0,.4,.1c0,0,-.2,.2,-.4,.2h-1.6v-1.4c0,-.2,.1,-.3,.3,-.3h1.2v-1.1h-1.4q-.1,0,-.1,-.1q0,-.2,.1,-.2Zm2.8,0h1.3c.3,0,.5,.2,.5,.3v.9c0,.2,-.2,.2,-.2,.3c0,.2,.2,.4,.2,.5v.8c0,.1,-.2,.3,-.5,.3h-1.3c0,0,-.2,-.2,-.2,-.2c0,-.1,.2,-.1,.2,-.1h1.3v-.8c0,-.1,0,-.3,-.1,-.3h-.8q-.1,0,-.1,-.2q0,-.1,.1,-.1h.8c.1,0,.1,-.2,.1,-.3v-.8h-1.3c0,0,-.2,0,-.2,-.1c0,-.2,.2,-.2,.2,-.2Zm3,0q.2,0,.2,.2v1.5h.7v-1.1c0,-.1,.2,-.3,.3,-.3c0,0,.2,.2,.2,.3v1.1q.1,0,.1,.2c0,.1,0,.3,-.1,.3v.7c0,0,-.2,.2,-.2,.2c-.1,0,-.3,-.2,-.3,-.2v-.7h-1v-1.9q0,-.3,.1,-.3Zm-30.2,0h1.2q.1,0,.1,.2q0,.1,-.1,.1h-.9v1.1h.7c.3,0,.3,.1,.3,.3V469c0,.1,-.1,.3,-.3,.3h-.9c0,0,-.1,0,-.1,-.2h-.3c-.2,0,-.2,-.1,-.2,-.1c0,-.2,.2,-.3,.2,-.3c0,0,.1,0,.1,.1h.2q.1,0,.1,0q0,.2,0,.2h.9v-1.1h-1v-1.7Zm33,0h1.3q.2,0,.2,.2q0,.1,-.2,.1h-.9v1.1h.8c.1,0,.3,.1,.3,.3V469c0,.1,-.2,.3,-.3,.3h-.9q-.2,0,-.3,-.2h-.2c-.1,0,-.1,-.1,-.1,-.1c0,-.2,0,-.3,.1,-.3l.2,.1h.1q0,.2,0,.2h1.1v-1.1h-1.2v-1.7Zm-21.7,.3v1.1h.3v-1.1h-.3Zm-28,0V469h1.2v-2.5h-1.2Zm30.4,0v.8h1.1v-.8h-1.1Zm2.8,0V469h1v-2.5h-1Zm-5.7,1.4V469h1.2v-1.1h-1.2Zm-8.1,.3v.8h1.1v-.8h-1.1Z" class="g7_2" />
<text x="1251" y="470" class="s1_2">?</text>
<path d="M1099.4,501.1L1270,617.8" class="g5_2" />
<path fill-rule="evenodd" d="M1081.8,489l25.4,3.5l-13,18.8L1081.8,489Z" class="g6_2" />
<text x="1188" y="607" class="s1_2">!</text>
<path fill-rule="evenodd" d="M1160.3,570.4c-.3,0,-.6,.2,-.7,.3c-.9,.8,-1.9,2.3,-1.7,4.6c.5,4.1,3.8,5.4,1.4,9.8c0,0,-1.9,-.3,-5.8,.4c-3.2,.7,-4.6,.3,-6,1c-2.4,1.3,-1.7,4.5,.8,5.5c-2.2,1.3,-2.6,4.4,.9,5.8c-2,2.1,-2.1,4.7,1.1,5.6c-2.2,2.2,-.2,4.8,2.1,4.8c16.8,0,14.1,-1.3,19.3,-1.3c5.8,0,9.7,2.3,9.7,2.3V591.7c0,0,-4.9,-1.4,-8.2,-3.1c-1.2,-.8,-2.8,-1.7,-4.1,-6.3c-1.3,-4.2,-4.3,-4.9,-5.4,-6.5c-.6,-1,-1.5,-3.2,-2.1,-4.6c-.3,-.5,-.8,-.8,-1.3,-.8Z" class="g3_2" />
<path fill-rule="evenodd" d="M1160.3,567.4c-.3,0,-.6,0,-.7,.3c-.9,.7,-1.9,2.3,-1.7,4.5c.5,4,3.8,5.4,1.4,9.8c0,0,-1.9,-.3,-5.8,.5c-3.2,.6,-4.6,.1,-6,.9c-2.4,1.4,-1.7,4.4,.8,5.5c-2.2,1.4,-2.6,4.4,.9,5.8c-2,2.1,-2.1,4.7,1.1,5.7c-2.2,2.1,-.2,4.7,2.1,4.7c16.8,0,14.1,-1.2,19.3,-1.2c5.8,0,9.7,2.3,9.7,2.3V588.6c0,0,-4.9,-1.4,-8.2,-3.1c-1.2,-.7,-2.8,-1.6,-4.1,-6.4c-1.3,-4.3,-4.3,-4.7,-5.4,-6.4c-.6,-1.1,-1.5,-3.2,-2.1,-4.6c-.3,-.4,-.8,-.7,-1.3,-.7Z" class="g4_2" />
<image preserveAspectRatio="none" x="923" y="437" width="32" height="43" xlink:href="2/img/1.png" />


<!-- Any embedded fonts defined here -->
<style type="text/css" ><![CDATA[

@font-face {
	font-family: DejaVuSans-Oblique_5c;
	src: url("fonts/DejaVuSans-Oblique_5c.woff") format("woff");
}

]]></style>

</svg>
