<?xml version="1.0" encoding="UTF-8" standalone="no"?>
<!DOCTYPE svg PUBLIC "-//W3C//DTD SVG 1.1//EN"
"http://www.w3.org/Graphics/SVG/1.1/DTD/svg11.dtd">


<!-- Page 3 -->
<svg x="0" y="0" width="1564" height="1173" viewBox="0 0 1564 1173" version="1.1" xmlns="http://www.w3.org/2000/svg" xmlns:xlink="http://www.w3.org/1999/xlink"
style="display: block;margin-left: auto;margin-right: auto;">
<defs>
<clipPath id="c0_3"><path d="M0,1173.3V0H1564.4V1173.3Z" /></clipPath>

<style type="text/css"><![CDATA[

.g0_3{
fill: #FFFFFF;
}
.g1_3{
fill: none;
stroke: #000000;
stroke-width: 3.069764;
stroke-linecap: butt;
stroke-linejoin: miter;
stroke-miterlimit: 7;
stroke-opacity: 0.7;
}
.g2_3{
fill: none;
stroke: #F3F7F5;
stroke-width: 3.069764;
stroke-linecap: butt;
stroke-linejoin: miter;
stroke-miterlimit: 7;
}
.g3_3{
fill: none;
stroke: #000000;
stroke-width: 3.069764;
stroke-linecap: butt;
stroke-linejoin: miter;
stroke-miterlimit: 7;
}
.g4_3{
fill-opacity: 0.5;
}
.g5_3{
fill: #51A8F9;
}
.g6_3{
fill: none;
stroke: #000000;
stroke-width: 3.069764;
stroke-linecap: butt;
stroke-linejoin: miter;
}
.g7_3{
}
.g8_3{
fill: none;
stroke: #85888D;
stroke-width: 3.069764;
stroke-linecap: butt;
stroke-linejoin: miter;
stroke-miterlimit: 7;
}
.g9_3{
fill: none;
stroke: #000000;
stroke-width: 7.6095405;
stroke-linecap: butt;
stroke-linejoin: miter;
}
.g10_3{
fill-opacity: 0.75;
}
.g11_3{
fill: #0175AE;
}
.g12_3{
fill: #70BF41;
}
.g13_3{
fill: none;
stroke: #000000;
stroke-width: 3.069764;
stroke-linecap: butt;
stroke-linejoin: miter;
stroke-miterlimit: 7;
stroke-opacity: 0.5;
}
.g14_3{
fill: #0077B1;
fill-opacity: 0.52;
}
.g15_3{
fill: none;
stroke: #0077B1;
stroke-width: 3.069764;
stroke-linecap: butt;
stroke-linejoin: miter;
stroke-miterlimit: 7;
}
.g16_3{
fill: none;
stroke: #0077B1;
stroke-width: 1.513264;
stroke-linecap: butt;
stroke-linejoin: miter;
stroke-miterlimit: 7;
}
.g17_3{
fill: none;
stroke: #002452;
stroke-width: 3.069764;
stroke-linecap: butt;
stroke-linejoin: miter;
}
.g18_3{
fill: #01B22B;
}

.s1_3{
font-size: 36.67px;
font-family: DejaVuSans_4a;
fill: rgba(0, 0, 0, 0.5);
}
.s2_3{
font-size: 36.67px;
font-family: DejaVuSans_4a;
fill: #FFFFFF;
}
.s3_3{
font-size: 36.67px;
font-family: DejaVuSans-Oblique_45;
fill: #000000;
}
.s4_3{
font-size: 36.67px;
font-family: DejaVuSans_4a;
fill: #000000;
}

]]></style>

</defs>
<path d="M0,0
L0,1173
L1564,1173
L1564,0 Z " 
fill="#FFFFFF" stroke="none" />
<g clip-path="url(#c0_3)">
<path fill-rule="evenodd" d="M0,.1H1564.4V1173.4H0V.1Z" class="g0_3" />
<path fill-rule="evenodd" d="M0,.1H1564.4V1173.4H0V.1Z" class="g0_3" />
</g>
<image preserveAspectRatio="none" x="993" y="333" width="230" height="217" opacity="0.7" xlink:href="3/img/1.png" />
<path d="M991.4,331.9h232.7V551.6H991.4V331.9Z" class="g1_3" />
<image preserveAspectRatio="none" x="991" y="331" width="230" height="216" xlink:href="3/img/2.png" />
<path d="M989.8,329.3h232.7V549H989.8V329.3Z" class="g2_3" />
<image preserveAspectRatio="none" x="868" y="774" width="534" height="313" xlink:href="3/img/3.png" />
<path d="M945.8,833.2h366.4v194.3H945.8V833.2Z" class="g3_3" />
<path fill-rule="evenodd" d="M1129,803.7H945.8V679.8h366.3V803.7H1129Z" class="g4_3" />
<text x="971" y="756" dx="0,0,0,-0.1,0,0,0,0,-0.1,0.1,0,-0.1,0.1,0,0.1,-0.1,0" class="s1_3">persistence layer</text>
<path fill-rule="evenodd" d="M1129,800.7H945.8v-124h366.3v124H1129Z" class="g5_3" />
<text x="971" y="753" dx="0,0,0,-0.1,0,0,0,0,-0.1,0.1,0,-0.1,0.1,0,0.1,-0.1,0" class="s2_3">persistence layer</text>
<path d="M1330.2,868.6c161.7,-40.1,162.4,-73,1.9,-102.5" class="g6_3" />
<path fill-rule="evenodd" d="M1321.2,870.8l7.8,-6.7l2.2,9l-10,-2.3Z" class="g7_3" />
<path fill-rule="evenodd" d="M1323.7,764.6l9.9,-2.9l-1.7,9.2l-8.2,-6.3Z" class="g7_3" />
<text x="1325" y="753" dx="0,0,0,0,0,0,0.1,0.1,-0.1,0" class="s3_3">Spring ORM</text>
<path d="M1337.4,678.4C1442.5,538,1416.6,492.8,1256.3,538" class="g6_3" />
<path fill-rule="evenodd" d="M1331.9,685.9l1.9,-10.1l7.3,5.5l-9.2,4.6Z" class="g7_3" />
<path fill-rule="evenodd" d="M1248.2,540.3l7.6,-6.9l2.5,8.8l-10.1,-1.9Z" class="g7_3" />
<text x="1259" y="493" dx="0,0,0,0.1,0.1,-0.1,0,-0.1,0,0,0,-0.2" class="s3_3">jsp servlet </text>
<text x="796" y="509" dx="0,-0.1,0,0,-0.1,0.1,0.1,0,0" class="s3_3">REST APIs</text>
<path d="M879.1,930.1l.6,85.7l-56.2,.4L822.3,844.8l56.2,-.5l.6,85.8Z" class="g8_3" />
<text transform="matrix(-0.01, -1, 1, -0.01, 866, 1009)" class="s4_3">I</text>
<text transform="matrix(-0.01, -1, 1, -0.01, 866, 999)" class="s4_3">m</text>
<text transform="matrix(-0.01, -1, 1, -0.01, 866, 963)" class="s4_3">p</text>
<text transform="matrix(-0.01, -1, 1, -0.01, 865, 940)" class="s4_3">o</text>
<text transform="matrix(-0.01, -1, 1, -0.01, 865, 917)" class="s4_3">r</text>
<text transform="matrix(-0.01, -1, 1, -0.01, 865, 902)" class="s4_3">t</text>
<text transform="matrix(-0.01, -1, 1, -0.01, 865, 888)" class="s4_3">e</text>
<text transform="matrix(-0.01, -1, 1, -0.01, 865, 865)" class="s4_3">r</text>
<path d="M884.6,930.4h38.3" class="g9_3" />
<path fill-rule="evenodd" d="M944.2,930.4l-22.8,11.4V918.9l22.8,11.5Z" class="g7_3" />
<path fill-rule="evenodd" d="M322.4,743.7v16H304v76.1h45.4V817.3h8.9v18.5h9.1V817.3h8.9v18.5H422V759.7H403.3v-16H322.4Zm9,8.2h8.8v7.8h-8.8v-7.8Zm18,0h8.9v7.8h-8.9v-7.8Zm18,0h8.9v7.8h-8.9v-7.8Zm18.1,0h8.8v7.8h-8.8v-7.8Zm-72.2,16.4h9.1v7.8h-9.1v-7.8Zm18.1,0h8.8v7.8h-8.8v-7.8Zm18,0h8.9v7.8h-8.9v-7.8Zm18,0h8.9v7.8h-8.9v-7.8Zm18.1,0h8.8v7.8h-8.8v-7.8Zm17.8,0h9v7.8h-9v-7.8Zm-90,16.3h9.1v7.8h-9.1v-7.8Zm18.1,0h8.8v7.8h-8.8v-7.8Zm54.1,0h8.8v7.8h-8.8v-7.8Zm17.8,0h9v7.8h-9v-7.8Zm-40.3,.5c6.3,0,11.3,5,11.3,11.3c0,6.1,-5,11.1,-11.3,11.1c-6.3,0,-11.2,-5,-11.2,-11.1c0,-6.3,4.9,-11.3,11.2,-11.3Zm-2.6,4.2v4.3H356V799h4.4v4.4h5.3V799H370v-5.4h-4.3v-4.3h-5.3ZM313.3,801h9.1v7.7h-9.1V801Zm18.1,0h8.8v7.7h-8.8V801Zm54.1,0h8.8v7.7h-8.8V801Zm17.8,0h9v7.7h-9V801Zm-90,16.3h9.1v7.8h-9.1v-7.8Zm18.1,0h8.8v7.8h-8.8v-7.8Zm54.1,0h8.8v7.8h-8.8v-7.8Zm17.8,0h9v7.8h-9v-7.8Z" class="g10_3" />
<path fill-rule="evenodd" d="M322.4,743.7v16H304v76.1h45.4V817.3h8.9v18.5h9.1V817.3h8.9v18.5H422V759.7H403.3v-16H322.4Zm9,8.2h8.8v7.8h-8.8v-7.8Zm18,0h8.9v7.8h-8.9v-7.8Zm18,0h8.9v7.8h-8.9v-7.8Zm18.1,0h8.8v7.8h-8.8v-7.8Zm-72.2,16.4h9.1v7.8h-9.1v-7.8Zm18.1,0h8.8v7.8h-8.8v-7.8Zm18,0h8.9v7.8h-8.9v-7.8Zm18,0h8.9v7.8h-8.9v-7.8Zm18.1,0h8.8v7.8h-8.8v-7.8Zm17.8,0h9v7.8h-9v-7.8Zm-90,16.3h9.1v7.8h-9.1v-7.8Zm18.1,0h8.8v7.8h-8.8v-7.8Zm54.1,0h8.8v7.8h-8.8v-7.8Zm17.8,0h9v7.8h-9v-7.8Zm-40.3,.5c6.3,0,11.3,5,11.3,11.3c0,6.1,-5,11.1,-11.3,11.1c-6.3,0,-11.2,-5,-11.2,-11.1c0,-6.3,4.9,-11.3,11.2,-11.3Zm-2.6,4.2v4.3H356V799h4.4v4.4h5.3V799H370v-5.4h-4.3v-4.3h-5.3ZM313.3,801h9.1v7.7h-9.1V801Zm18.1,0h8.8v7.7h-8.8V801Zm54.1,0h8.8v7.7h-8.8V801Zm17.8,0h9v7.7h-9V801Zm-90,16.3h9.1v7.8h-9.1v-7.8Zm18.1,0h8.8v7.8h-8.8v-7.8Zm54.1,0h8.8v7.8h-8.8v-7.8Zm17.8,0h9v7.8h-9v-7.8Z" class="g11_3" />
<path fill-rule="evenodd" d="M380.1,868c-7,0,-14,.8,-19.4,2.3c-10.5,3.2,-10.5,8.6,0,11.8c10.7,3.2,28,3.2,38.7,0c10.7,-3.2,10.7,-8.6,0,-11.8C394,868.8,387.1,868,380.1,868Zm-27.3,11.9v51.5c0,4.6,12.2,8.7,27.3,8.7c15.1,0,27.4,-4.1,27.4,-8.7V879.9c-4,3.6,-14.7,6,-27.4,6c-12.7,0,-23.5,-2.4,-27.3,-6Z" class="g4_3" />
<path fill-rule="evenodd" d="M380.1,865c-7,0,-14,.7,-19.4,2.3c-10.5,3.2,-10.5,8.5,0,11.7c10.7,3.2,28,3.2,38.7,0c10.7,-3.2,10.7,-8.5,0,-11.7C394,865.7,387.1,865,380.1,865Zm-27.3,11.9v51.5c0,4.6,12.2,8.7,27.3,8.7c15.1,0,27.4,-4.1,27.4,-8.7V876.9c-4,3.3,-14.7,5.9,-27.4,5.9c-12.7,0,-23.5,-2.6,-27.3,-5.9Z" class="g11_3" />
<path fill-rule="evenodd" d="M402.4,885c-7,0,-13.9,.7,-19.2,2.4c-10.7,3.2,-10.7,8.4,0,11.6c10.7,3.4,27.9,3.4,38.6,0c10.7,-3.2,10.7,-8.4,0,-11.6C416.5,885.7,409.4,885,402.4,885Zm-27.3,12.1v51.4c0,4.6,12.2,8.7,27.3,8.7c15.1,0,27.4,-4.1,27.4,-8.7V897.1c-3.9,3.3,-14.7,5.8,-27.4,5.8c-12.7,0,-23.4,-2.5,-27.3,-5.8Z" class="g4_3" />
<path fill-rule="evenodd" d="M402.4,881.9c-7,0,-13.9,.8,-19.2,2.5c-10.7,3.2,-10.7,8.4,0,11.6c10.7,3.3,27.9,3.3,38.6,0c10.7,-3.2,10.7,-8.4,0,-11.6c-5.3,-1.7,-12.4,-2.5,-19.4,-2.5ZM375.1,894v51.5c0,4.6,12.2,8.7,27.3,8.7c15.1,0,27.4,-4.1,27.4,-8.7V894c-3.9,3.4,-14.7,5.8,-27.4,5.8c-12.7,0,-23.4,-2.4,-27.3,-5.8Z" class="g11_3" />
<image preserveAspectRatio="none" x="387" y="902" width="19" height="46" xlink:href="3/img/4.png" />
<path fill-rule="evenodd" d="M427,906.4c-7,0,-14,.7,-19.4,2.4c-10.5,3.2,-10.5,8.4,0,11.6c10.7,3.2,28,3.2,38.7,0c10.7,-3.2,10.7,-8.4,0,-11.6C440.9,907.1,434,906.4,427,906.4Zm-27.3,12v51.5c0,4.5,12.2,8.7,27.3,8.7c15.1,0,27.4,-4.2,27.4,-8.7V918.4c-4,3.4,-14.7,5.8,-27.4,5.8c-12.7,0,-23.5,-2.4,-27.3,-5.8Z" class="g4_3" />
<path fill-rule="evenodd" d="M427,903.3c-7,0,-14,.8,-19.4,2.5c-10.5,3.2,-10.5,8.4,0,11.6c10.7,3.2,28,3.2,38.7,0c10.7,-3.2,10.7,-8.4,0,-11.6C440.9,904.1,434,903.3,427,903.3Zm-27.3,11.9v51.5c0,4.6,12.2,8.9,27.3,8.9c15.1,0,27.4,-4.3,27.4,-8.9V915.2c-4,3.5,-14.7,6,-27.4,6c-12.7,0,-23.5,-2.5,-27.3,-6Z" class="g11_3" />
<path fill-rule="evenodd" d="M419.4,929.7c0,3,1.8,5.4,4.7,6.9c-2.9,1.7,-4.7,4.1,-4.7,7.1c0,2.7,1.8,5.3,4.7,6.8c-2.9,1.6,-4.7,4.2,-4.7,7.1c0,2.7,1.8,5.3,4.7,6.8c-2.9,1.6,-4.7,4.2,-4.7,7.1h2.1c0,-.7,0,-1.3,.2,-1.7h10.5c.2,.4,.2,1,.2,1.7h2.1c0,-2.9,-1.8,-5.5,-4.7,-7.1c2.9,-1.5,4.7,-4.1,4.7,-6.8c0,-2.9,-1.8,-5.5,-4.7,-7.1c2.9,-1.5,4.7,-4.1,4.7,-6.8c0,-3,-1.8,-5.4,-4.7,-7.1c2.9,-1.5,4.7,-3.9,4.7,-6.9h-2.1c0,.7,0,1.1,-.2,1.6H421.7c-.2,-.5,-.2,-.9,-.2,-1.6h-2.1Zm2.9,2.8h9.3c-1.1,1.4,-2.6,2.4,-4.6,3.1h-.1c-2,-.7,-3.6,-1.7,-4.6,-3.1Zm4.6,5.3c2.1,.7,3.6,1.7,4.7,3.1h-9.3c1,-1.4,2.6,-2.4,4.6,-3.1Zm-5.2,4.3h10.5c.2,.5,.2,.9,.2,1.6c0,.4,0,.9,-.2,1.3H421.7c-.2,-.4,-.2,-.9,-.2,-1.3c0,-.7,0,-1.1,.2,-1.6Zm.6,4.1h9.3c-.9,1.4,-2.6,2.6,-4.7,3.3c-2,-.7,-3.7,-1.9,-4.6,-3.3Zm4.6,5.4c2.1,.6,3.6,1.8,4.5,3.2h-9c.9,-1.4,2.5,-2.6,4.5,-3.2Zm-5.2,4.4h10.5c.2,.5,.2,.9,.2,1.6c0,.4,0,.9,-.2,1.3H421.7c-.2,-.4,-.2,-.9,-.2,-1.3c0,-.7,0,-1.1,.2,-1.6Zm.6,4.2h9.3c-.9,1.3,-2.6,2.5,-4.7,3.2c-2,-.7,-3.7,-1.9,-4.6,-3.2Zm4.6,5.3c2.1,.6,3.6,1.7,4.5,3.1h-9c.9,-1.4,2.5,-2.5,4.5,-3.1Z" class="g4_3" />
<path fill-rule="evenodd" d="M419.4,926.7c0,2.7,1.8,5.3,4.7,6.9c-2.9,1.6,-4.7,4.1,-4.7,7c0,2.7,1.8,5.3,4.7,6.9c-2.9,1.5,-4.7,4.1,-4.7,6.8c0,2.9,1.8,5.5,4.7,7.1c-2.9,1.5,-4.7,4.1,-4.7,6.8h2.1c0,-.4,0,-1,.2,-1.5h10.5c.2,.5,.2,1.1,.2,1.5h2.1c0,-2.7,-1.8,-5.3,-4.7,-6.8c2.9,-1.6,4.7,-4.2,4.7,-7.1c0,-2.7,-1.8,-5.3,-4.7,-6.8c2.9,-1.6,4.7,-4.2,4.7,-6.9c0,-2.9,-1.8,-5.4,-4.7,-7c2.9,-1.6,4.7,-4.2,4.7,-6.9h-2.1c0,.5,0,1.1,-.2,1.5H421.7c-.2,-.4,-.2,-1,-.2,-1.5h-2.1Zm2.9,2.7h9.3c-1.1,1.4,-2.6,2.5,-4.6,3.1h-.1c-2,-.6,-3.6,-1.7,-4.6,-3.1Zm4.6,5.2c2.1,.8,3.6,1.9,4.7,3.2h-9.3c1,-1.3,2.6,-2.4,4.6,-3.2Zm-5.2,4.5h10.5c.2,.4,.2,.9,.2,1.5c0,.5,0,.9,-.2,1.4H421.7c-.2,-.5,-.2,-.9,-.2,-1.4c0,-.6,0,-1.1,.2,-1.5Zm.6,4.1h9.3c-.9,1.4,-2.6,2.6,-4.7,3.2c-2,-.6,-3.7,-1.8,-4.6,-3.2Zm4.6,5.3c2.1,.7,3.6,1.7,4.5,3.2h-9c.9,-1.5,2.5,-2.5,4.5,-3.2Zm-5.2,4.5h10.5c.2,.4,.2,.9,.2,1.3c0,.7,0,1.1,-.2,1.6H421.7c-.2,-.5,-.2,-.9,-.2,-1.6c0,-.4,0,-.9,.2,-1.3Zm.6,4.1h9.3c-.9,1.4,-2.6,2.4,-4.7,3.2c-2,-.8,-3.7,-1.8,-4.6,-3.2Zm4.6,5.3c2.1,.7,3.6,1.7,4.5,3.1h-9c.9,-1.4,2.5,-2.4,4.5,-3.1Z" class="g12_3" />
<path fill-rule="evenodd" d="M273.8,879.9V879l.1,-.1v-.5l.2,-.1l.1,-.2v-.3l.2,-.1l.1,-.2l.2,-.2l.1,-.1l.2,-.2l.2,-.1l.1,-.2l.2,-.1l.1,-.2h.2l.3,-.1l.1,-.2h.2l.1,-.1h.5l.1,-.2H325l.1,.2h.5l.1,.1h.3l.2,.2l.1,.1h.2l.1,.2l.3,.1l.2,.2l.1,.1l.2,.2l.2,.1v.2l.1,.2l.2,.3l.1,.1v.2l.2,.1v.3l.1,.2v.6l.2,.1v11l-.2,.3v.2l-.1,.1v.5l-.2,.2l-.1,.1v.3l-.2,.2l-.1,.1l-.2,.2l-.2,.1l-.1,.2l-.2,.1l-.1,.2l-.2,.1h-.3l-.1,.2l-.2,.1h-.4l-.2,.2h-.1l-.3,.2H277l-.2,-.2h-.3l-.1,-.2h-.2l-.1,-.1l-.3,-.2h-.2l-.1,-.1l-.2,-.2l-.1,-.1l-.2,-.2l-.2,-.1l-.1,-.2l-.2,-.1l-.1,-.2l-.2,-.1v-.3l-.1,-.2l-.2,-.1v-.5l-.1,-.2v-11Z" class="g4_3" />
<path d="M273.8,879.9v0V879l.1,-.1v-.5l.2,-.1l.1,-.2v-.3l.2,-.1l.1,-.2l.2,-.2l.1,-.1l.2,-.2l.2,-.1l.1,-.2l.2,-.1l.1,-.2h.2l.3,-.1l.1,-.2h.2l.1,-.1h.5l.1,-.2H325l.1,.2h.5l.1,.1h.3l.2,.2l.1,.1h.2l.1,.2l.3,.1l.2,.2l.1,.1l.2,.2l.2,.1v.2l.1,.2l.2,.3l.1,.1v.2l.2,.1v.3l.1,.2v.6l.2,.1v11l-.2,.3v.2l-.1,.1v.5l-.2,.2l-.1,.1v.3l-.2,.2l-.1,.1l-.2,.2l-.2,.1l-.1,.2l-.2,.1l-.1,.2l-.2,.1h-.3l-.1,.2l-.2,.1h-.4l-.2,.2h-.1l-.3,.2H277l-.2,-.2h-.3l-.1,-.2h-.2l-.1,-.1l-.3,-.2h-.2l-.1,-.1l-.2,-.2l-.1,-.1l-.2,-.2l-.2,-.1l-.1,-.2l-.2,-.1l-.1,-.2l-.2,-.1v-.3l-.1,-.2l-.2,-.1v-.5l-.1,-.2v-11Zm0,-4.1v0Zm54.7,18.4v0Z" class="g13_3" />
<path fill-rule="evenodd" d="M273.8,876.9V876l.1,-.2v-.4l.2,-.2l.1,-.1v-.4l.2,-.1l.1,-.2l.2,-.1l.1,-.2l.2,-.1l.2,-.2l.1,-.1l.2,-.2l.1,-.1l.2,-.2h.3l.1,-.1h.2l.1,-.2h.3l.2,-.1h48.1l.3,.1h.2l.1,.2h.3l.2,.1h.1l.2,.2l.1,.1l.3,.2l.2,.1l.1,.2l.2,.1l.2,.2v.1l.1,.2l.2,.1l.1,.4v.1l.2,.2v.3l.1,.1v.6l.2,.2v11l-.2,.1v.3l-.1,.2v.5l-.2,.1l-.1,.2v.3l-.2,.1l-.1,.2l-.2,.1l-.2,.2l-.1,.1l-.2,.2l-.1,.1h-.2l-.3,.2l-.1,.1H326l-.1,.2h-.3l-.2,.1h-.6l-.3,.2H277.1l-.1,-.2h-.5l-.1,-.1h-.2l-.1,-.2l-.3,-.1h-.2l-.1,-.2l-.2,-.1l-.1,-.2l-.2,-.1l-.2,-.2l-.1,-.1l-.2,-.2l-.1,-.1l-.2,-.2v-.3l-.1,-.1l-.2,-.2V888l-.1,-.1v-11Z" class="g14_3" />
<path d="M273.8,876.9v0V876l.1,-.2v-.4l.2,-.2l.1,-.1v-.4l.2,-.1l.1,-.2l.2,-.1l.1,-.2l.2,-.1l.2,-.2l.1,-.1l.2,-.2l.1,-.1l.2,-.2h.3l.1,-.1h.2l.1,-.2h.3l.2,-.1h48.1l.3,.1h.2l.1,.2h.3l.2,.1h.1l.2,.2l.1,.1l.3,.2l.2,.1l.1,.2l.2,.1l.2,.2v.1l.1,.2l.2,.1l.1,.4v.1l.2,.2v.3l.1,.1v.6l.2,.2v11l-.2,.1v.3l-.1,.2v.5l-.2,.1l-.1,.2v.3l-.2,.1l-.1,.2l-.2,.1l-.2,.2l-.1,.1l-.2,.2l-.1,.1h-.2l-.3,.2l-.1,.1H326l-.1,.2h-.3l-.2,.1h-.6l-.3,.2H277.1l-.1,-.2h-.5l-.1,-.1h-.2l-.1,-.2l-.3,-.1h-.2l-.1,-.2l-.2,-.1l-.1,-.2l-.2,-.1l-.2,-.2l-.1,-.1l-.2,-.2l-.1,-.1l-.2,-.2v-.3l-.1,-.1l-.2,-.2V888l-.1,-.1v-11Zm0,-4.1v0Zm54.7,18.3v0Z" class="g15_3" />
<path fill-rule="evenodd" d="M321.4,877.5V877l.2,-.1v-.2h.2v-.3h.1v-.1h.2v-.2h.3l.1,-.1h.9l.2,.1h.1l.2,.2h.1v.1h.2v.2h.1v.3l.2,.1v1l-.2,.1v.3h-.1v.2H324v.1h-.1v.2h-.2l-.1,.1h-1.2v-.1h-.3v-.2h-.2l-.1,-.1l-.2,-.2v-.1l-.2,-.2v-.6Z" class="g0_3" />
<path fill-rule="evenodd" d="M317.5,877.5v-.2l.1,-.1v-.5h.2v-.1h.1v-.2l.2,-.1l.1,-.2h.3V876h1.1l.2,.1h.1l.2,.2v.1h.1l.2,.2v.1h.1v.5l.2,.1v.4l-.2,.1v.5h-.1v.3h-.2v.1h-.1l-.2,.2h-.1v.1h-1.3l-.1,-.1h-.2l-.1,-.2h-.2v-.1h-.1v-.2l-.2,-.1V878h-.1v-.5Z" class="g12_3" />
<path fill-rule="evenodd" d="M274.1,900.3v-.8l.1,-.2v-.4l.2,-.2v-.3l.1,-.1l.2,-.2V898l.1,-.2l.2,-.1l.2,-.3h.1l.2,-.3h.1l.2,-.2l.1,-.2l.3,-.1l.2,-.2h.1l.2,-.1h.3l.1,-.2h48.6l.2,.2h.1l.3,.1h.2l.1,.2l.3,.1l.2,.2l.1,.2h.2l.2,.3h.1l.2,.3l.1,.1l.2,.2v.1l.1,.2l.2,.1v.5l.1,.1v.8l.2,.2v11l-.2,.1v.5l-.1,.1v.3l-.2,.2l-.1,.1v.2l-.2,.1l-.1,.3l-.2,.2l-.1,.1l-.2,.2l-.2,.2h-.1l-.2,.1l-.1,.2l-.3,.1h-.2l-.1,.2h-.3l-.2,.1h-.6l-.1,.2H277.6l-.3,-.2h-.2l-.1,-.1h-.5l-.1,-.2l-.2,-.1h-.3l-.1,-.2l-.2,-.1l-.1,-.2l-.2,-.2l-.1,-.1l-.2,-.2l-.2,-.1l-.1,-.2v-.3l-.2,-.1l-.1,-.2v-.3l-.2,-.1v-.3l-.1,-.3V900.3Z" class="g4_3" />
<path d="M274.1,900.3v0v-.8l.1,-.2v-.4l.2,-.2v-.3l.1,-.1l.2,-.2V898l.1,-.2l.2,-.1l.2,-.3h.1l.2,-.3h.1l.2,-.2l.1,-.2l.3,-.1l.2,-.2h.1l.2,-.1h.3l.1,-.2h48.6l.2,.2h.1l.3,.1h.2l.1,.2l.3,.1l.2,.2l.1,.2h.2l.2,.3h.1l.2,.3l.1,.1l.2,.2v.1l.1,.2l.2,.1v.5l.1,.1v.8l.2,.2v11l-.2,.1v.5l-.1,.1v.3l-.2,.2l-.1,.1v.2l-.2,.1l-.1,.3l-.2,.2l-.1,.1l-.2,.2l-.2,.2h-.1l-.2,.1l-.1,.2l-.3,.1h-.2l-.1,.2h-.3l-.2,.1h-.6l-.1,.2H277.6l-.3,-.2h-.2l-.1,-.1h-.5l-.1,-.2l-.2,-.1h-.3l-.1,-.2l-.2,-.1l-.1,-.2l-.2,-.2l-.1,-.1l-.2,-.2l-.2,-.1l-.1,-.2v-.3l-.2,-.1l-.1,-.2v-.3l-.2,-.1v-.3l-.1,-.3V900.3Zm0,-4.2v0Zm54.7,18.4v0Z" class="g13_3" />
<path fill-rule="evenodd" d="M274.1,897.1v-.7l.1,-.1v-.5l.2,-.1v-.3l.1,-.2l.2,-.1v-.2l.1,-.1l.2,-.3l.2,-.2l.1,-.1l.2,-.2l.1,-.2h.2l.1,-.1l.3,-.2l.2,-.1h.1l.2,-.2h.3l.1,-.1h.7l.3,-.2h46.7l.3,.2h.6l.2,.1h.1l.3,.2h.2l.1,.1l.3,.2l.2,.1h.1l.2,.2l.2,.2l.1,.1l.2,.2l.1,.3l.2,.1v.2l.1,.1l.2,.2v.4l.1,.2v.7l.2,.2v11l-.2,.2v.4l-.1,.2v.3l-.2,.1l-.1,.2v.1l-.2,.2l-.1,.1l-.2,.3h-.1l-.2,.3h-.2l-.1,.2l-.2,.2l-.1,.1l-.3,.2h-.2l-.1,.1h-.3l-.2,.2h-1l-46.5,.1h-.1l-.3,-.1h-.7l-.1,-.2h-.3l-.2,-.1h-.1l-.2,-.2l-.3,-.1h-.1l-.2,-.2l-.1,-.2l-.2,-.1l-.1,-.2l-.2,-.1l-.2,-.2l-.1,-.3v-.1l-.2,-.2l-.1,-.1v-.3l-.2,-.2v-.4l-.1,-.2V897.1Z" class="g14_3" />
<path d="M274.1,897.1v0v-.7l.1,-.1v-.5l.2,-.1v-.3l.1,-.2l.2,-.1v-.2l.1,-.1l.2,-.3l.2,-.2l.1,-.1l.2,-.2l.1,-.2h.2l.1,-.1l.3,-.2l.2,-.1h.1l.2,-.2h.3l.1,-.1h.7l.3,-.2h46.7l.3,.2h.6l.2,.1h.1l.3,.2h.2l.1,.1l.3,.2l.2,.1h.1l.2,.2l.2,.2l.1,.1l.2,.2l.1,.3l.2,.1v.2l.1,.1l.2,.2v.4l.1,.2v.7l.2,.2v11l-.2,.2v.4l-.1,.2v.3l-.2,.1l-.1,.2v.1l-.2,.2l-.1,.1l-.2,.3h-.1l-.2,.3h-.2l-.1,.2l-.2,.2l-.1,.1l-.3,.2h-.2l-.1,.1h-.3l-.2,.2h-1l-46.5,.1h-.1l-.3,-.1h-.7l-.1,-.2h-.3l-.2,-.1h-.1l-.2,-.2l-.3,-.1h-.1l-.2,-.2l-.1,-.2l-.2,-.1l-.1,-.2l-.2,-.1l-.2,-.2l-.1,-.3v-.1l-.2,-.2l-.1,-.1v-.3l-.2,-.2v-.4l-.1,-.2V897.1Zm0,-4.2v0Zm54.7,18.5v0Z" class="g15_3" />
<path fill-rule="evenodd" d="M321.8,897.8v-.3h.1v-.4h.2v-.2l.1,-.2h.2v-.1l.1,-.2h.2v-.1h.4v-.2h.5v.2h.4v.1h.3v.2l.2,.1h.2v.4h.1v.3h.2v.7h-.2v.3l-.1,.2v.1l-.2,.2l-.2,.1h-.1v.2h-.3l-.2,.1h-.9v-.1h-.1l-.2,-.2h-.1v-.1h-.2v-.2h-.1v-.1l-.2,-.2v-.1l-.1,-.2v-.3Z" class="g0_3" />
<path fill-rule="evenodd" d="M317.9,897.8v-.7h.2v-.2h.1v-.2h.2v-.1h.1v-.2h.2l.1,-.1h.4l.1,-.2h.3l.2,.2h.3v.1h.3v.2h.1v.1h.2v.2l.1,.2v.3h.2v.7h-.2v.5h-.1v.1l-.2,.2l-.1,.1l-.2,.2h-.3v.1h-1.1v-.1h-.1l-.2,-.2h-.1v-.1h-.2v-.2h-.1v-.1l-.2,-.2v-.3l-.1,-.1v-.2h.1Z" class="g12_3" />
<path fill-rule="evenodd" d="M274.1,920.4v-.6l.1,-.1v-.5l.2,-.1v-.4l.1,-.1l.2,-.2v-.3l.1,-.1l.2,-.2l.2,-.1l.1,-.2l.2,-.1l.1,-.2l.2,-.1h.1l.3,-.2l.2,-.1h.1l.2,-.2h.3l.1,-.1h.7l.3,-.2h46.7l.3,.2h.6l.2,.1h.1l.3,.2h.2l.1,.1l.3,.2h.2l.1,.1l.2,.2l.2,.1l.1,.2l.2,.1l.1,.2l.2,.1v.3l.1,.2l.2,.1v.5l.1,.2v.6l.2,.3v10.8l-.2,.3v.3l-.1,.3v.2l-.2,.1l-.1,.4v.1l-.2,.2l-.1,.1l-.2,.2l-.1,.1l-.2,.2l-.2,.1l-.1,.2l-.2,.1h-.1l-.3,.2l-.2,.1h-.1l-.3,.2h-.2l-.1,.1H277.1l-.1,-.1h-.3l-.2,-.2h-.1l-.2,-.1l-.3,-.2l-.1,-.1l-.2,-.2h-.1l-.2,-.1l-.1,-.2l-.2,-.1l-.2,-.3l-.1,-.2v-.1l-.2,-.2l-.1,-.2V932l-.2,-.1v-.5l-.1,-.1V920.4Z" class="g4_3" />
<path d="M274.1,920.4v0v-.6l.1,-.1v-.5l.2,-.1v-.4l.1,-.1l.2,-.2v-.3l.1,-.1l.2,-.2l.2,-.1l.1,-.2l.2,-.1l.1,-.2l.2,-.1h.1l.3,-.2l.2,-.1h.1l.2,-.2h.3l.1,-.1h.7l.3,-.2h46.7l.3,.2h.6l.2,.1h.1l.3,.2h.2l.1,.1l.3,.2h.2l.1,.1l.2,.2l.2,.1l.1,.2l.2,.1l.1,.2l.2,.1v.3l.1,.2l.2,.1v.5l.1,.2v.6l.2,.3v10.8l-.2,.3v.3l-.1,.3v.2l-.2,.1l-.1,.4v.1l-.2,.2l-.1,.1l-.2,.2l-.1,.1l-.2,.2l-.2,.1l-.1,.2l-.2,.1h-.1l-.3,.2l-.2,.1h-.1l-.3,.2h-.2l-.1,.1H277.1l-.1,-.1h-.3l-.2,-.2h-.1l-.2,-.1l-.3,-.2l-.1,-.1l-.2,-.2h-.1l-.2,-.1l-.1,-.2l-.2,-.1l-.2,-.3l-.1,-.2v-.1l-.2,-.2l-.1,-.2V932l-.2,-.1v-.5l-.1,-.1V920.4Zm0,-4.1v0Zm54.7,18.3v0Z" class="g13_3" />
<path fill-rule="evenodd" d="M274.1,917.4v-.6l.1,-.3v-.3l.2,-.4v-.1l.1,-.2l.2,-.3v-.1l.1,-.2l.2,-.1l.2,-.2l.1,-.1l.2,-.2l.1,-.1l.2,-.2l.1,-.1h.3l.2,-.2l.1,-.1h.5l.1,-.2h.2l.3,-.2h47.7l.3,.2h.1l.2,.2h.4l.2,.1l.1,.2h.3l.2,.1l.1,.2l.2,.1l.2,.2l.1,.1l.2,.2l.1,.1l.2,.2v.3l.1,.1l.2,.2v.5l.1,.1v.6l.2,.3v10.9l-.2,.3v.3l-.1,.3v.1l-.2,.2l-.1,.1v.3l-.2,.2l-.1,.2l-.2,.1l-.1,.2l-.2,.1l-.2,.2l-.1,.1l-.2,.2h-.1l-.3,.1l-.2,.2h-.1l-.3,.1h-.3l-.3,.2h-48l-.2,-.2h-.4l-.2,-.1l-.1,-.2h-.2l-.3,-.1l-.1,-.2l-.2,-.1h-.1l-.2,-.3h-.1l-.2,-.3l-.2,-.2l-.1,-.2v-.1l-.2,-.2l-.1,-.3V929l-.2,-.2v-.4l-.1,-.2V917.4Z" class="g14_3" />
<path d="M274.1,917.4v0v-.6l.1,-.3v-.3l.2,-.4v-.1l.1,-.2l.2,-.3v-.1l.1,-.2l.2,-.1l.2,-.2l.1,-.1l.2,-.2l.1,-.1l.2,-.2l.1,-.1h.3l.2,-.2l.1,-.1h.5l.1,-.2h.2l.3,-.2h47.7l.3,.2h.1l.2,.2h.4l.2,.1l.1,.2h.3l.2,.1l.1,.2l.2,.1l.2,.2l.1,.1l.2,.2l.1,.1l.2,.2v.3l.1,.1l.2,.2v.5l.1,.1v.6l.2,.3v10.9l-.2,.3v.3l-.1,.3v.1l-.2,.2l-.1,.1v.3l-.2,.2l-.1,.2l-.2,.1l-.1,.2l-.2,.1l-.2,.2l-.1,.1l-.2,.2h-.1l-.3,.1l-.2,.2h-.1l-.3,.1h-.3l-.3,.2h-48l-.2,-.2h-.4l-.2,-.1l-.1,-.2h-.2l-.3,-.1l-.1,-.2l-.2,-.1h-.1l-.2,-.3h-.1l-.2,-.3l-.2,-.2l-.1,-.2v-.1l-.2,-.2l-.1,-.3V929l-.2,-.2v-.4l-.1,-.2V917.4Zm0,-4.2v0Zm54.7,18.4v0Z" class="g15_3" />
<path fill-rule="evenodd" d="M321.8,918.1v-.3l.1,-.1v-.3l.2,-.2v-.1h.1l.2,-.2v-.1h.3v-.2h.3v-.1h.7v.1h.3l.2,.2h.1v.1h.2v.2h.2v.1l.1,.2v.1l.2,.2v.7h-.2v.3h-.1v.4h-.2v.1h-.2v.2h-.1l-.2,.1h-.3v.2H323v-.2h-.3v-.1h-.3v-.2h-.2v-.1h-.1v-.2l-.2,-.2v-.3h-.1v-.3Z" class="g0_3" />
<path fill-rule="evenodd" d="M317.9,918.1v-.7l.2,-.2l.1,-.1l.2,-.2l.1,-.1h.2v-.2h.3v-.1h.8l.1,.1h.2l.1,.2h.2l.1,.1v.2h.2v.1h.1v.3l.2,.2v.7h-.2v.3l-.1,.2v.2h-.2v.1h-.1v.2h-.2l-.1,.1h-.2l-.1,.2h-.6l-.2,-.2h-.3v-.1h-.3v-.2h-.2v-.1l-.1,-.2l-.2,-.2v-.4h-.1v-.2h.1Z" class="g12_3" />
<path fill-rule="evenodd" d="M274.1,940.7v-.6l.1,-.3v-.3l.2,-.3v-.1l.1,-.2l.2,-.1v-.3l.1,-.2l.2,-.1l.2,-.2l.1,-.2l.2,-.1l.1,-.2l.2,-.1l.1,-.2h.3l.2,-.1l.1,-.2h.5l.1,-.1h.2l.3,-.2h47.7l.3,.2h.1l.2,.1h.4l.2,.2l.1,.1h.3l.2,.2l.1,.1l.2,.2l.2,.1l.1,.2l.2,.2l.1,.1l.2,.2v.3l.1,.1l.2,.2v.4l.1,.2v.6l.2,.3v22.5l-.2,.1v.5l-.1,.1v.2l-.2,.1l-.1,.3v.2l-.2,.1l-.1,.2l-.2,.1l-.1,.2l-.2,.1l-.2,.2l-.1,.2l-.2,.1l-.1,.2h-.3l-.2,.1l-.1,.2h-.5l-.1,.1h-.9l-46.5,.2h-.1l-.3,-.2h-.7l-.1,-.1h-.3l-.2,-.2h-.1l-.2,-.1l-.3,-.2l-.1,-.1h-.2l-.1,-.2l-.2,-.2l-.1,-.1L275,965l-.2,-.3l-.1,-.1v-.2l-.2,-.1l-.1,-.2v-.3l-.2,-.1v-.5l-.1,-.1V940.7Z" class="g4_3" />
<path d="M274.1,940.7v0v-.6l.1,-.3v-.3l.2,-.3v-.1l.1,-.2l.2,-.1v-.3l.1,-.2l.2,-.1l.2,-.2l.1,-.2l.2,-.1l.1,-.2l.2,-.1l.1,-.2h.3l.2,-.1l.1,-.2h.5l.1,-.1h.2l.3,-.2h47.7l.3,.2h.1l.2,.1h.4l.2,.2l.1,.1h.3l.2,.2l.1,.1l.2,.2l.2,.1l.1,.2l.2,.2l.1,.1l.2,.2v.3l.1,.1l.2,.2v.4l.1,.2v.6l.2,.3v22.5l-.2,.1v.5l-.1,.1v.2l-.2,.1l-.1,.3v.2l-.2,.1l-.1,.2l-.2,.1l-.1,.2l-.2,.1l-.2,.2l-.1,.2l-.2,.1l-.1,.2h-.3l-.2,.1l-.1,.2h-.5l-.1,.1h-.9l-46.5,.2h-.1l-.3,-.2h-.7l-.1,-.1h-.3l-.2,-.2h-.1l-.2,-.1l-.3,-.2l-.1,-.1h-.2l-.1,-.2l-.2,-.2l-.1,-.1L275,965l-.2,-.3l-.1,-.1v-.2l-.2,-.1l-.1,-.2v-.3l-.2,-.1v-.5l-.1,-.1V940.7Zm0,-4.1v0Zm54.7,30v0Z" class="g13_3" />
<path fill-rule="evenodd" d="M274.1,937.7v-.6l.1,-.3v-.3l.2,-.3V936l.1,-.1l.2,-.3v-.2l.1,-.2l.2,-.1l.2,-.2l.1,-.1l.2,-.2l.1,-.1l.2,-.2l.1,-.1h.3l.2,-.2l.1,-.1h.2l.3,-.2h.3l.3,-.1h47.7l.3,.1h.3l.1,.2h.3l.2,.1l.1,.2h.3l.2,.1l.1,.2l.2,.1l.2,.2l.1,.1l.2,.2l.1,.1l.2,.2v.3l.1,.2l.2,.1v.5l.1,.1v.6l.2,.3v22.3l-.2,.4v.3l-.1,.3v.1l-.2,.2l-.1,.1v.3l-.2,.2l-.1,.1l-.2,.2l-.1,.1l-.2,.2l-.2,.1l-.1,.2l-.2,.1h-.1l-.3,.2l-.2,.2h-.1l-.3,.1h-.2l-.1,.2H277.1l-.1,-.2h-.3l-.2,-.1h-.1l-.2,-.2l-.3,-.2l-.1,-.1l-.2,-.2h-.1l-.2,-.3h-.1l-.2,-.3l-.2,-.1l-.1,-.2v-.1l-.2,-.2l-.1,-.1v-.3l-.2,-.2v-.4l-.1,-.2V937.7Z" class="g14_3" />
<path d="M274.1,937.7v0v-.6l.1,-.3v-.3l.2,-.3V936l.1,-.1l.2,-.3v-.2l.1,-.2l.2,-.1l.2,-.2l.1,-.1l.2,-.2l.1,-.1l.2,-.2l.1,-.1h.3l.2,-.2l.1,-.1h.2l.3,-.2h.3l.3,-.1h47.7l.3,.1h.3l.1,.2h.3l.2,.1l.1,.2h.3l.2,.1l.1,.2l.2,.1l.2,.2l.1,.1l.2,.2l.1,.1l.2,.2v.3l.1,.2l.2,.1v.5l.1,.1v.6l.2,.3v22.3l-.2,.4v.3l-.1,.3v.1l-.2,.2l-.1,.1v.3l-.2,.2l-.1,.1l-.2,.2l-.1,.1l-.2,.2l-.2,.1l-.1,.2l-.2,.1h-.1l-.3,.2l-.2,.2h-.1l-.3,.1h-.2l-.1,.2H277.1l-.1,-.2h-.3l-.2,-.1h-.1l-.2,-.2l-.3,-.2l-.1,-.1l-.2,-.2h-.1l-.2,-.3h-.1l-.2,-.3l-.2,-.1l-.1,-.2v-.1l-.2,-.2l-.1,-.1v-.3l-.2,-.2v-.4l-.1,-.2V937.7Zm0,-4.1v0Zm54.7,29.8v0Z" class="g15_3" />
<path d="M279.6,959.4l7.9,-21.9m-3.2,21.1l8,-20.8m-3.4,21.6l7.9,-21.9" class="g16_3" />
<path d="M249.3,865.1v-1.4l.2,-.9v-.7l.1,-.9l.2,-.8l.1,-.9v-.2m1.9,-4l.1,-.3l.5,-.7l.6,-.6l.5,-.6l.6,-.7l.4,-.4m3.5,-2.5v-.1l1,-.3l.7,-.3l.8,-.3l.8,-.2l.7,-.3h.2m4.2,-.3h4.5m4.3,0h4.4m4.4,0h4.3m4.4,0H297m4.4,0h4.5m4.2,0h4.5m4.2,0h4.5m4.3,0H332m4.3,0h4.4m4.4,0h4.3m4.4,0h4.3m4.4,0H367m4.3,0h4.4m4.3,0h4.4m4.3,0h4.4m4.4,0h4.3m4.4,0h4.3m4.4,0h4.5m4.3,0h4.4m4.3,0h4.4m4.3,0h4.4m4.4,0h4.3m4.4,0h2.9l1,.2h.4m4.3,1.2v0l.8,.3l.7,.4l.8,.5l.6,.5l.8,.4m2.9,3.2l.3,.6l.4,.7l.5,.7l.3,.8l.3,.7l.1,.5m1,4.3V867m0,4.4v4.3m0,4.4v4.4m0,4.3v4.4m0,4.3v4.4m0,4.3v4.5m0,4.2l.1,4.5m0,4.4v4.3m0,4.4v4.4m0,4.3v4.4m0,4.3v4.4m0,4.3v4.5m0,4.2v4.5m-.4,4.2l-.2,.7l-.1,.7l-.4,.8l-.3,.7l-.4,.8l-.2,.5m-2.6,3.5l-.1,.1l-.6,.5l-.6,.6l-.7,.5l-.7,.4l-.6,.5l-.2,.1m-3.9,1.6l-.7,.1l-.7,.2l-.9,.1h-2m-4.5,0h-4.4m-4.3,0h-4.4m-4.3,0h-4.4m-4.4,0h-4.3m-4.4,0h-4.5m-4.3,0h-4.2m-4.5,0h-4.4m-4.3,0h-4.4m-4.3,0h-4.4m-4.4,0h-4.3m-4.4,0h-4.3m-4.5,.2h-4.2m-4.5,0h-4.4m-4.3,0h-4.4m-4.3,0h-4.4m-4.4,0h-4.3m-4.4,0H312m-4.5,0h-4.2m-4.5,0h-4.2m-4.5,0h-4.4m-4.3,0H277m-4.4,0h-4.3m-4.5,-.2h-.1l-.8,-.1l-.9,-.2l-.7,-.1l-.8,-.3l-.8,-.4m-3.8,-1.9l-.6,-.5l-.6,-.5l-.6,-.6l-.6,-.6l-.5,-.6l-.3,-.3m-2.1,-3.8v-.3l-.3,-.8l-.4,-.7l-.1,-.8l-.2,-.9l-.1,-.6m-.2,-4.5v-4.2m0,-4.5v-4.4m0,-4.3v-4.4m0,-4.3v-4.4m0,-4.5v-4.2m0,-4.5V922m0,-4.5v-4.3m0,-4.4v-4.4m0,-4.3v-4.4m0,-4.3V887m0,-4.5v-4.2m0,-4.5v-4.2" class="g17_3" />
<path fill-rule="evenodd" d="M525.2,963.2H510V760h30.5V963.2H525.2Z" class="g4_3" />
<path fill-rule="evenodd" d="M525.2,960.2H510V757h30.5V960.2H525.2Z" class="g12_3" />
<image preserveAspectRatio="none" x="510" y="831" width="26" height="35" xlink:href="3/img/5.png" />
<path fill-rule="evenodd" d="M548.2,907.1H716.8v-6.7l98,20.8l-98,20.8v-6.9H548.2v-28Z" class="g4_3" />
<path fill-rule="evenodd" d="M548.2,904.1H716.8v-6.7l98,20.7l-98,20.8V932H548.2V904.1Z" class="g18_3" />
<path d="M908,685C840.4,587.8,858.6,542.6,965.2,541.2" class="g6_3" />
<path fill-rule="evenodd" d="M913.2,692.3l-9.1,-4.7l7.5,-5.4l1.6,10.1Z" class="g7_3" />
<path fill-rule="evenodd" d="M974,541.2l-9.4,4.8v-9.3l9.4,4.5Z" class="g7_3" />


<!-- Any embedded fonts defined here -->
<style type="text/css" ><![CDATA[

@font-face {
	font-family: DejaVuSans-Oblique_45;
	src: url("fonts/DejaVuSans-Oblique_45.woff") format("woff");
}

@font-face {
	font-family: DejaVuSans_4a;
	src: url("fonts/DejaVuSans_4a.woff") format("woff");
}

]]></style>

</svg>
