<?xml version="1.0" encoding="UTF-8" standalone="no"?>
<!DOCTYPE svg PUBLIC "-//W3C//DTD SVG 1.1//EN"
"http://www.w3.org/Graphics/SVG/1.1/DTD/svg11.dtd">


<!-- Page 2 -->
<svg x="0" y="0" width="1564" height="1173" viewBox="0 0 1564 1173" version="1.1" xmlns="http://www.w3.org/2000/svg" xmlns:xlink="http://www.w3.org/1999/xlink"
style="display: block;margin-left: auto;margin-right: auto;">
<defs>
<clipPath id="c0_2"><path d="M0,1173.3V0H1564.4V1173.3Z" /></clipPath>

<style type="text/css"><![CDATA[

.g0_2{
fill: #FFFFFF;
}
.g1_2{
fill: none;
stroke: #000000;
stroke-width: 3.069764;
stroke-linecap: butt;
stroke-linejoin: miter;
stroke-miterlimit: 7;
stroke-opacity: 0.7;
}
.g2_2{
fill: none;
stroke: #F3F7F5;
stroke-width: 3.069764;
stroke-linecap: butt;
stroke-linejoin: miter;
stroke-miterlimit: 7;
}
.g3_2{
fill: none;
stroke: #000000;
stroke-width: 3.069764;
stroke-linecap: butt;
stroke-linejoin: miter;
stroke-miterlimit: 7;
}
.g4_2{
fill-opacity: 0.5;
}
.g5_2{
fill: #51A8F9;
}
.g6_2{
fill: none;
stroke: #000000;
stroke-width: 3.069764;
stroke-linecap: butt;
stroke-linejoin: miter;
}
.g7_2{
}
.g8_2{
fill: none;
stroke: #85888D;
stroke-width: 3.069764;
stroke-linecap: butt;
stroke-linejoin: miter;
stroke-miterlimit: 7;
}
.g9_2{
fill: none;
stroke: #000000;
stroke-width: 7.6095405;
stroke-linecap: butt;
stroke-linejoin: miter;
}
.g10_2{
fill-opacity: 0.75;
}
.g11_2{
fill: #0175AE;
}
.g12_2{
fill: #70BF41;
}
.g13_2{
fill: none;
stroke: #000000;
stroke-width: 3.069764;
stroke-linecap: butt;
stroke-linejoin: miter;
stroke-miterlimit: 7;
stroke-opacity: 0.5;
}
.g14_2{
fill: #0077B1;
fill-opacity: 0.52;
}
.g15_2{
fill: none;
stroke: #0077B1;
stroke-width: 3.069764;
stroke-linecap: butt;
stroke-linejoin: miter;
stroke-miterlimit: 7;
}
.g16_2{
fill: none;
stroke: #0077B1;
stroke-width: 1.513264;
stroke-linecap: butt;
stroke-linejoin: miter;
stroke-miterlimit: 7;
}
.g17_2{
fill: none;
stroke: #002452;
stroke-width: 3.069764;
stroke-linecap: butt;
stroke-linejoin: miter;
}
.g18_2{
fill: #01B22B;
}

.s1_2{
font-size: 36.67px;
font-family: DejaVuSans_4a;
fill: rgba(0, 0, 0, 0.5);
}
.s2_2{
font-size: 36.67px;
font-family: DejaVuSans_4a;
fill: #FFFFFF;
}
.s3_2{
font-size: 36.67px;
font-family: DejaVuSans-Oblique_45;
fill: #000000;
}
.s4_2{
font-size: 36.67px;
font-family: DejaVuSans_4a;
fill: #000000;
}

]]></style>

</defs>
<path d="M0,0
L0,1173
L1564,1173
L1564,0 Z " 
fill="#FFFFFF" stroke="none" />
<g clip-path="url(#c0_2)">
<path fill-rule="evenodd" d="M0,.1H1564.4V1173.4H0V.1Z" class="g0_2" />
<path fill-rule="evenodd" d="M0,.1H1564.4V1173.4H0V.1Z" class="g0_2" />
</g>
<image preserveAspectRatio="none" x="993" y="333" width="230" height="217" opacity="0.7" xlink:href="2/img/1.png" />
<path d="M991.4,331.9h232.7V551.6H991.4V331.9Z" class="g1_2" />
<image preserveAspectRatio="none" x="991" y="331" width="230" height="216" xlink:href="2/img/2.png" />
<path d="M989.8,329.3h232.7V549H989.8V329.3Z" class="g2_2" />
<image preserveAspectRatio="none" x="868" y="774" width="534" height="313" xlink:href="2/img/3.png" />
<path d="M945.8,833.2h366.4v194.3H945.8V833.2Z" class="g3_2" />
<path fill-rule="evenodd" d="M1129,803.7H945.8V679.8h366.3V803.7H1129Z" class="g4_2" />
<text x="971" y="756" dx="0,0,0,-0.1,0,0,0,0,-0.1,0.1,0,-0.1,0.1,0,0.1,-0.1,0" class="s1_2">persistence layer</text>
<path fill-rule="evenodd" d="M1129,800.7H945.8v-124h366.3v124H1129Z" class="g5_2" />
<text x="971" y="753" dx="0,0,0,-0.1,0,0,0,0,-0.1,0.1,0,-0.1,0.1,0,0.1,-0.1,0" class="s2_2">persistence layer</text>
<path d="M1330.2,868.6c161.7,-40.1,162.4,-73,1.9,-102.5" class="g6_2" />
<path fill-rule="evenodd" d="M1321.2,870.8l7.8,-6.7l2.2,9l-10,-2.3Z" class="g7_2" />
<path fill-rule="evenodd" d="M1323.7,764.6l9.9,-2.9l-1.7,9.2l-8.2,-6.3Z" class="g7_2" />
<text x="1325" y="753" dx="0,0,0,0,0,0,0.1,0.1,-0.1,0" class="s3_2">Spring ORM</text>
<path d="M1337.4,678.4C1442.5,538,1416.6,492.8,1256.3,538" class="g6_2" />
<path fill-rule="evenodd" d="M1331.9,685.9l1.9,-10.1l7.3,5.5l-9.2,4.6Z" class="g7_2" />
<path fill-rule="evenodd" d="M1248.2,540.3l7.6,-6.9l2.5,8.8l-10.1,-1.9Z" class="g7_2" />
<text x="1259" y="493" dx="0,0,0,0.1,0.1,-0.1,0,-0.1,0,0,0,-0.2" class="s3_2">jsp servlet </text>
<text x="796" y="509" dx="0,-0.1,0,0,-0.1,0.1,0.1,0,0" class="s3_2">REST APIs</text>
<path d="M879.1,930.1l.6,85.7l-56.2,.4L822.3,844.8l56.2,-.5l.6,85.8Z" class="g8_2" />
<text transform="matrix(-0.01, -1, 1, -0.01, 866, 1009)" class="s4_2">I</text>
<text transform="matrix(-0.01, -1, 1, -0.01, 866, 999)" class="s4_2">m</text>
<text transform="matrix(-0.01, -1, 1, -0.01, 866, 963)" class="s4_2">p</text>
<text transform="matrix(-0.01, -1, 1, -0.01, 865, 940)" class="s4_2">o</text>
<text transform="matrix(-0.01, -1, 1, -0.01, 865, 917)" class="s4_2">r</text>
<text transform="matrix(-0.01, -1, 1, -0.01, 865, 902)" class="s4_2">t</text>
<text transform="matrix(-0.01, -1, 1, -0.01, 865, 888)" class="s4_2">e</text>
<text transform="matrix(-0.01, -1, 1, -0.01, 865, 865)" class="s4_2">r</text>
<path d="M884.6,930.4h38.3" class="g9_2" />
<path fill-rule="evenodd" d="M944.2,930.4l-22.8,11.4V918.9l22.8,11.5Z" class="g7_2" />
<path fill-rule="evenodd" d="M333.1,746.7v16.1H314.7v76h45.4V820.4H369v18.4h9.1V820.4H387v18.4h45.7v-76H414V746.7H333.1Zm9,8.3h8.8v7.8h-8.8V755Zm18,0H369v7.8h-8.9V755Zm18,0H387v7.8h-8.9V755Zm18.1,0H405v7.8h-8.8V755ZM324,771.3h9.1v7.8H324v-7.8Zm18.1,0h8.8v7.8h-8.8v-7.8Zm18,0H369v7.8h-8.9v-7.8Zm18,0H387v7.8h-8.9v-7.8Zm18.1,0H405v7.8h-8.8v-7.8Zm17.8,0h9v7.8h-9v-7.8Zm-90,16.4h9.1v7.8H324v-7.8Zm18.1,0h8.8v7.8h-8.8v-7.8Zm54.1,0H405v7.8h-8.8v-7.8Zm17.8,0h9v7.8h-9v-7.8Zm-40.3,.4c6.3,0,11.3,5.1,11.3,11.3c0,6.1,-5,11.3,-11.3,11.3c-6.3,0,-11.2,-5.2,-11.2,-11.3c0,-6.2,4.9,-11.3,11.2,-11.3Zm-2.6,4.3v4.4h-4.4V802h4.4v4.5h5.3V802h4.3v-5.2h-4.3v-4.4h-5.3ZM324,804h9.1v7.8H324V804Zm18.1,0h8.8v7.8h-8.8V804Zm54.1,0H405v7.8h-8.8V804Zm17.8,0h9v7.8h-9V804Zm-90,16.4h9.1v7.8H324v-7.8Zm18.1,0h8.8v7.8h-8.8v-7.8Zm54.1,0H405v7.8h-8.8v-7.8Zm17.8,0h9v7.8h-9v-7.8Z" class="g10_2" />
<path fill-rule="evenodd" d="M333.1,746.7v16.1H314.7v76h45.4V820.4H369v18.4h9.1V820.4H387v18.4h45.7v-76H414V746.7H333.1Zm9,8.3h8.8v7.8h-8.8V755Zm18,0H369v7.8h-8.9V755Zm18,0H387v7.8h-8.9V755Zm18.1,0H405v7.8h-8.8V755ZM324,771.3h9.1v7.8H324v-7.8Zm18.1,0h8.8v7.8h-8.8v-7.8Zm18,0H369v7.8h-8.9v-7.8Zm18,0H387v7.8h-8.9v-7.8Zm18.1,0H405v7.8h-8.8v-7.8Zm17.8,0h9v7.8h-9v-7.8Zm-90,16.4h9.1v7.8H324v-7.8Zm18.1,0h8.8v7.8h-8.8v-7.8Zm54.1,0H405v7.8h-8.8v-7.8Zm17.8,0h9v7.8h-9v-7.8Zm-40.3,.4c6.3,0,11.3,5.1,11.3,11.3c0,6.1,-5,11.3,-11.3,11.3c-6.3,0,-11.2,-5.2,-11.2,-11.3c0,-6.2,4.9,-11.3,11.2,-11.3Zm-2.6,4.3v4.4h-4.4V802h4.4v4.5h5.3V802h4.3v-5.2h-4.3v-4.4h-5.3ZM324,804h9.1v7.8H324V804Zm18.1,0h8.8v7.8h-8.8V804Zm54.1,0H405v7.8h-8.8V804Zm17.8,0h9v7.8h-9V804Zm-90,16.4h9.1v7.8H324v-7.8Zm18.1,0h8.8v7.8h-8.8v-7.8Zm54.1,0H405v7.8h-8.8v-7.8Zm17.8,0h9v7.8h-9v-7.8Z" class="g11_2" />
<path fill-rule="evenodd" d="M390.8,870.9c-7,0,-14,.9,-19.4,2.5c-10.5,3.2,-10.5,8.5,0,11.7c10.7,3.2,28,3.2,38.7,0c10.6,-3.2,10.6,-8.5,0,-11.7c-5.4,-1.6,-12.3,-2.5,-19.3,-2.5ZM363.5,883v51.5c0,4.6,12.2,8.7,27.3,8.7c15.1,0,27.4,-4.1,27.4,-8.7V883c-4,3.4,-14.7,6,-27.4,6c-12.7,0,-23.5,-2.6,-27.3,-6Z" class="g4_2" />
<path fill-rule="evenodd" d="M390.8,867.9c-7,0,-14,.7,-19.4,2.4c-10.5,3.2,-10.5,8.4,0,11.6c10.7,3.4,28,3.4,38.7,0c10.6,-3.2,10.6,-8.4,0,-11.6c-5.4,-1.7,-12.3,-2.4,-19.3,-2.4Zm-27.3,12v51.5c0,4.6,12.2,8.7,27.3,8.7c15.1,0,27.4,-4.1,27.4,-8.7V879.9c-4,3.4,-14.7,5.8,-27.4,5.8c-12.7,0,-23.5,-2.4,-27.3,-5.8Z" class="g11_2" />
<path fill-rule="evenodd" d="M413.1,888c-7,0,-13.9,1,-19.2,2.5c-10.7,3.2,-10.7,8.5,0,11.7c10.7,3.3,27.9,3.3,38.6,0c10.7,-3.2,10.7,-8.5,0,-11.7C427.2,889,420.1,888,413.1,888Zm-27.3,12.1v51.5c0,4.6,12.2,8.7,27.3,8.7c15.1,0,27.4,-4.1,27.4,-8.7V900.1c-3.9,3.4,-14.7,6,-27.4,6c-12.7,0,-23.4,-2.6,-27.3,-6Z" class="g4_2" />
<path fill-rule="evenodd" d="M413.1,885c-7,0,-13.9,.7,-19.2,2.4c-10.7,3.2,-10.7,8.4,0,11.6c10.7,3.4,27.9,3.4,38.6,0c10.7,-3.2,10.7,-8.4,0,-11.6C427.2,885.7,420.1,885,413.1,885Zm-27.3,12.1v51.4c0,4.6,12.2,8.7,27.3,8.7c15.1,0,27.4,-4.1,27.4,-8.7V897.1c-3.9,3.3,-14.7,5.8,-27.4,5.8c-12.7,0,-23.4,-2.5,-27.3,-5.8Z" class="g11_2" />
<image preserveAspectRatio="none" x="398" y="905" width="19" height="46" xlink:href="2/img/4.png" />
<path fill-rule="evenodd" d="M437.7,909.4c-7,0,-14,.8,-19.4,2.3c-10.5,3.4,-10.5,8.6,0,11.8c10.7,3.2,28,3.2,38.7,0c10.7,-3.2,10.7,-8.4,0,-11.8c-5.4,-1.5,-12.3,-2.3,-19.3,-2.3Zm-27.3,11.9v51.5c0,4.6,12.2,8.9,27.3,8.9c15.1,0,27.4,-4.3,27.4,-8.9V921.3c-4,3.6,-14.7,6,-27.4,6c-12.7,0,-23.5,-2.4,-27.3,-6Z" class="g4_2" />
<path fill-rule="evenodd" d="M437.7,906.4c-7,0,-14,.7,-19.4,2.3c-10.5,3.3,-10.5,8.5,0,11.7c10.7,3.2,28,3.2,38.7,0c10.7,-3.2,10.7,-8.4,0,-11.7c-5.4,-1.6,-12.3,-2.3,-19.3,-2.3Zm-27.3,11.9v51.5c0,4.6,12.2,8.8,27.3,8.8c15.1,0,27.4,-4.2,27.4,-8.8V918.3c-4,3.5,-14.7,5.9,-27.4,5.9c-12.7,0,-23.5,-2.4,-27.3,-5.9Z" class="g11_2" />
<path fill-rule="evenodd" d="M430.1,933c0,2.7,1.8,5.2,4.7,6.8c-2.9,1.6,-4.7,4.2,-4.7,6.9c0,2.8,1.8,5.4,4.7,6.9c-2.9,1.7,-4.7,4.1,-4.7,7c0,2.8,1.8,5.4,4.7,6.9c-2.9,1.5,-4.7,4.1,-4.7,7h2.1c0,-.6,0,-1.1,.2,-1.7h10.5c.2,.6,.2,1.1,.2,1.7h2.1c0,-2.9,-1.8,-5.5,-4.7,-7c2.9,-1.5,4.7,-4.1,4.7,-6.9c0,-2.9,-1.8,-5.3,-4.7,-7c2.9,-1.5,4.7,-4.1,4.7,-6.9c0,-2.7,-1.8,-5.3,-4.7,-6.9c2.9,-1.6,4.7,-4.1,4.7,-6.8h-2.1c0,.4,0,.9,-.2,1.3H432.4c-.2,-.4,-.2,-.9,-.2,-1.3h-2.1Zm2.9,2.6h9.3c-.9,1.3,-2.6,2.6,-4.6,3.2h-.1c-2,-.6,-3.6,-1.9,-4.6,-3.2Zm4.6,5.3c2.1,.6,3.8,1.7,4.7,3.1H433c1,-1.4,2.6,-2.5,4.6,-3.1Zm-5.2,4.3h10.5c.2,.4,.2,1,.2,1.5c0,.5,0,.9,-.2,1.4H432.4c-.2,-.5,-.2,-.9,-.2,-1.4c0,-.5,0,-1.1,.2,-1.5Zm.6,4.3h9.3c-.9,1.3,-2.6,2.4,-4.7,3c-2,-.6,-3.7,-1.7,-4.6,-3Zm4.6,5.2c2.1,.6,3.6,1.8,4.5,3.2h-9c.9,-1.4,2.5,-2.6,4.5,-3.2Zm-5.2,4.4h10.5c.2,.4,.2,.9,.2,1.5c0,.5,0,.9,-.2,1.4H432.4c-.2,-.5,-.2,-.9,-.2,-1.4c0,-.6,0,-1.1,.2,-1.5Zm.6,4.1h9.3c-.9,1.4,-2.6,2.6,-4.7,3.2c-2,-.6,-3.7,-1.8,-4.6,-3.2Zm4.6,5.4c2.1,.6,3.6,1.6,4.5,3h-9c.9,-1.4,2.5,-2.4,4.5,-3Z" class="g4_2" />
<path fill-rule="evenodd" d="M430.1,929.7c0,3,1.8,5.4,4.7,6.9c-2.9,1.7,-4.7,4.1,-4.7,7.1c0,2.7,1.8,5.3,4.7,6.8c-2.9,1.6,-4.7,4.2,-4.7,7.1c0,2.7,1.8,5.3,4.7,6.8c-2.9,1.6,-4.7,4.2,-4.7,7.1h2.1c0,-.7,0,-1.3,.2,-1.7h10.5c.2,.4,.2,1,.2,1.7h2.1c0,-2.9,-1.8,-5.5,-4.7,-7.1c2.9,-1.5,4.7,-4.1,4.7,-6.8c0,-2.9,-1.8,-5.5,-4.7,-7.1c2.9,-1.5,4.7,-4.1,4.7,-6.8c0,-3,-1.8,-5.4,-4.7,-7.1c2.9,-1.5,4.7,-3.9,4.7,-6.9h-2.1c0,.7,0,1.1,-.2,1.6H432.4c-.2,-.5,-.2,-.9,-.2,-1.6h-2.1Zm2.9,2.8h9.3c-.9,1.4,-2.6,2.4,-4.6,3.1h-.1c-2,-.7,-3.6,-1.7,-4.6,-3.1Zm4.6,5.3c2.1,.7,3.8,1.7,4.7,3.1H433c1,-1.4,2.6,-2.4,4.6,-3.1Zm-5.2,4.3h10.5c.2,.5,.2,.9,.2,1.6c0,.4,0,.9,-.2,1.3H432.4c-.2,-.4,-.2,-.9,-.2,-1.3c0,-.7,0,-1.1,.2,-1.6Zm.6,4.1h9.3c-.9,1.4,-2.6,2.6,-4.7,3.3c-2,-.7,-3.7,-1.9,-4.6,-3.3Zm4.6,5.4c2.1,.6,3.6,1.8,4.5,3.2h-9c.9,-1.4,2.5,-2.6,4.5,-3.2Zm-5.2,4.4h10.5c.2,.5,.2,.9,.2,1.6c0,.4,0,.9,-.2,1.3H432.4c-.2,-.4,-.2,-.9,-.2,-1.3c0,-.7,0,-1.1,.2,-1.6Zm.6,4.2h9.3c-.9,1.3,-2.6,2.5,-4.7,3.2c-2,-.7,-3.7,-1.9,-4.6,-3.2Zm4.6,5.3c2.1,.6,3.6,1.7,4.5,3.1h-9c.9,-1.4,2.5,-2.5,4.5,-3.1Z" class="g12_2" />
<path fill-rule="evenodd" d="M284.5,883v-1.1l.1,-.1v-.3l.2,-.2v-.1l.1,-.3l.2,-.2l.1,-.1v-.2l.2,-.2l.1,-.1l.2,-.2l.1,-.1l.4,-.2l.1,-.1h.2l.1,-.2l.2,-.1h.3l.1,-.2h.5l.1,-.1h47.9l.1,.1h.5l.1,.2h.2l.3,.1l.1,.2h.2l.1,.1l.2,.2l.1,.1l.2,.2l.1,.1l.2,.2l.1,.2l.2,.1l.2,.3v.2l.1,.1l.2,.2v.4l.1,.2v.9l.2,10.1v.1l-.2,.3v.7l-.1,.1v.3l-.2,.2v.1l-.1,.2l-.2,.3l-.2,.1v.2l-.1,.1l-.2,.2l-.1,.1l-.2,.2l-.3,.1l-.1,.2H337l-.1,.1l-.2,.2h-.3l-.1,.2h-.5l-.1,.1h-48l-.3,-.1h-.3l-.3,-.2l-.2,-.2h-.1l-.2,-.1l-.1,-.2l-.4,-.1l-.1,-.2l-.2,-.1l-.1,-.2l-.2,-.1v-.2l-.1,-.1l-.2,-.2l-.1,-.1v-.3l-.2,-.2v-.1l-.1,-.3V883Z" class="g4_2" />
<path d="M284.5,883v0v-1.1l.1,-.1v-.3l.2,-.2v-.1l.1,-.3l.2,-.2l.1,-.1v-.2l.2,-.2l.1,-.1l.2,-.2l.1,-.1l.4,-.2l.1,-.1h.2l.1,-.2l.2,-.1h.3l.1,-.2h.5l.1,-.1h47.9l.1,.1h.5l.1,.2h.2l.3,.1l.1,.2h.2l.1,.1l.2,.2l.1,.1l.2,.2l.1,.1l.2,.2l.1,.2l.2,.1l.2,.3v.2l.1,.1l.2,.2v.4l.1,.2v.9l.2,10.1v.1l-.2,.3v.7l-.1,.1v.3l-.2,.2v.1l-.1,.2l-.2,.3l-.2,.1v.2l-.1,.1l-.2,.2l-.1,.1l-.2,.2l-.3,.1l-.1,.2H337l-.1,.1l-.2,.2h-.3l-.1,.2h-.5l-.1,.1h-48l-.3,-.1h-.3l-.3,-.2l-.2,-.2h-.1l-.2,-.1l-.1,-.2l-.4,-.1l-.1,-.2l-.2,-.1l-.1,-.2l-.2,-.1v-.2l-.1,-.1l-.2,-.2l-.1,-.1v-.3l-.2,-.2v-.1l-.1,-.3V883Zm0,-4.1v0Zm54.7,18.3v0Z" class="g13_2" />
<path fill-rule="evenodd" d="M284.5,879.9v-1l.1,-.2v-.3l.2,-.1v-.2l.1,-.3l.2,-.1l.1,-.2v-.2l.2,-.1l.1,-.2l.2,-.1l.1,-.2l.4,-.1l.1,-.2h.2l.1,-.1l.2,-.2h.3l.1,-.1h.5l.1,-.2h47.9l.1,.2h.5l.1,.1h.2l.3,.2l.1,.1h.2l.1,.2l.2,.1l.1,.2l.2,.1l.1,.2l.2,.1l.1,.2l.2,.2l.2,.3v.1l.1,.2l.2,.1v.5l.1,.1v.9l.2,10.1v.2l-.2,.3v.6l-.1,.1v.4l-.2,.1v.2l-.1,.1l-.2,.3l-.2,.2v.1l-.1,.2l-.2,.1l-.1,.2l-.2,.1l-.3,.2l-.1,.1H337l-.1,.2l-.2,.1h-.4l-.2,.2h-.3l-.1,.2h-48l-.3,-.2h-.2l-.1,-.2h-.3l-.2,-.1l-.1,-.2h-.2l-.1,-.1l-.4,-.2l-.1,-.1l-.2,-.2l-.1,-.1l-.2,-.2v-.1l-.1,-.2l-.2,-.1l-.1,-.3v-.2l-.2,-.1v-.4l-.1,-.1V879.9Z" class="g14_2" />
<path d="M284.5,879.9v0v-1l.1,-.2v-.3l.2,-.1v-.2l.1,-.3l.2,-.1l.1,-.2v-.2l.2,-.1l.1,-.2l.2,-.1l.1,-.2l.4,-.1l.1,-.2h.2l.1,-.1l.2,-.2h.3l.1,-.1h.5l.1,-.2h47.9l.1,.2h.5l.1,.1h.2l.3,.2l.1,.1h.2l.1,.2l.2,.1l.1,.2l.2,.1l.1,.2l.2,.1l.1,.2l.2,.2l.2,.3v.1l.1,.2l.2,.1v.5l.1,.1v.9l.2,10.1v.2l-.2,.3v.6l-.1,.1v.4l-.2,.1v.2l-.1,.1l-.2,.3l-.2,.2v.1l-.1,.2l-.2,.1l-.1,.2l-.2,.1l-.3,.2l-.1,.1H337l-.1,.2l-.2,.1h-.4l-.2,.2h-.3l-.1,.2h-48l-.3,-.2h-.2l-.1,-.2h-.3l-.2,-.1l-.1,-.2h-.2l-.1,-.1l-.4,-.2l-.1,-.1l-.2,-.2l-.1,-.1l-.2,-.2v-.1l-.1,-.2l-.2,-.1l-.1,-.3v-.2l-.2,-.1v-.4l-.1,-.1V879.9Zm0,-4.1v0Zm54.7,18.4v0Z" class="g15_2" />
<path fill-rule="evenodd" d="M332.1,880.6v-.5l.2,-.2v-.1h.1v-.3h.2v-.2h.2l.1,-.1h.2l.1,-.2h.9l.2,.2h.1v.1h.3v.2l.2,.1h.1v.3l.2,.2v1.1H335v.3h-.1v.1h-.2v.2h-.1v.1h-.2l-.1,.2H334l-.2,.1h-.3l-.1,-.1h-.3v-.2h-.3v-.1h-.2l-.2,-.2l-.1,-.1v-.2l-.2,-.1v-.6Z" class="g0_2" />
<path fill-rule="evenodd" d="M328.2,880.6v-.2l.1,-.2v-.3l.2,-.1v-.2h.1v-.1l.2,-.2h.1v-.1h.3V879h1.1l.2,.2h.1v.1h.2v.2h.1v.1h.2v.2l.1,.1v.2l.2,.1v.7l-.2,.1v.3h-.1v.3h-.2v.2h-.1l-.2,.1h-.1v.2H330v.1h-.5v-.1h-.3l-.1,-.2h-.3v-.1h-.2v-.2h-.1v-.1l-.2,-.2V881h-.1v-.4Z" class="g12_2" />
<path fill-rule="evenodd" d="M284.8,903.3v-.7l.1,-.2v-.5l.2,-.1v-.2l.1,-.3l.2,-.1V901l.1,-.1l.2,-.2l.1,-.1l.2,-.2l.2,-.1l.1,-.2l.2,-.1l.1,-.2l.3,-.1h.2l.1,-.2l.2,-.2h.4l.2,-.1h48.3l.1,.1h.5l.1,.2l.2,.2h.1l.3,.1l.2,.2l.1,.1l.2,.2l.1,.1l.2,.2l.2,.1l.1,.2l.2,.1v.2l.1,.1l.2,.3v.3l.1,.3v.2l.2,.2v11.6l-.2,.3v.1l-.1,.2v.3l-.2,.1l-.1,.2v.1l-.2,.3l-.1,.2l-.2,.2l-.2,.1l-.1,.2l-.2,.1l-.1,.2h-.2l-.1,.1l-.3,.2H337l-.1,.1h-.3l-.2,.2h-.6l-.1,.1H288.3l-.3,-.1h-.2l-.1,-.2h-.5l-.1,-.1l-.2,-.2h-.3l-.1,-.1l-.2,-.2l-.1,-.1l-.2,-.2l-.2,-.1l-.1,-.2l-.2,-.2l-.1,-.1v-.2l-.2,-.3l-.1,-.1v-.2l-.2,-.3v-.3l-.1,-.3V903.3Z" class="g4_2" />
<path d="M284.8,903.3v0v-.7l.1,-.2v-.5l.2,-.1v-.2l.1,-.3l.2,-.1V901l.1,-.1l.2,-.2l.1,-.1l.2,-.2l.2,-.1l.1,-.2l.2,-.1l.1,-.2l.3,-.1h.2l.1,-.2l.2,-.2h.4l.2,-.1h48.3l.1,.1h.5l.1,.2l.2,.2h.1l.3,.1l.2,.2l.1,.1l.2,.2l.1,.1l.2,.2l.2,.1l.1,.2l.2,.1v.2l.1,.1l.2,.3v.3l.1,.3v.2l.2,.2v11.6l-.2,.3v.1l-.1,.2v.3l-.2,.1l-.1,.2v.1l-.2,.3l-.1,.2l-.2,.2l-.2,.1l-.1,.2l-.2,.1l-.1,.2h-.2l-.1,.1l-.3,.2H337l-.1,.1h-.3l-.2,.2h-.6l-.1,.1H288.3l-.3,-.1h-.2l-.1,-.2h-.5l-.1,-.1l-.2,-.2h-.3l-.1,-.1l-.2,-.2l-.1,-.1l-.2,-.2l-.2,-.1l-.1,-.2l-.2,-.2l-.1,-.1v-.2l-.2,-.3l-.1,-.1v-.2l-.2,-.3v-.3l-.1,-.3V903.3Zm0,-4.1v0Zm54.7,18.3v0Z" class="g13_2" />
<path fill-rule="evenodd" d="M284.8,900.3v-.8l.1,-.2v-.4l.2,-.2v-.3l.1,-.1l.2,-.2V898l.1,-.2l.2,-.1l.1,-.3h.2l.2,-.3h.1l.2,-.2l.1,-.2l.3,-.1l.2,-.2h.1l.2,-.1h.3l.1,-.2h48.6l.2,.2h.3l.1,.1h.2l.1,.2l.3,.1l.2,.2l.1,.2h.2l.1,.3h.2l.2,.3l.1,.1l.2,.2v.1l.1,.2l.2,.1v.5l.1,.1v.3l.2,.2v11.6l-.2,.3v.2l-.1,.1v.3l-.2,.2l-.1,.1v.2l-.2,.1l-.1,.3l-.2,.2l-.2,.1l-.1,.2l-.2,.2h-.1l-.2,.1l-.1,.2l-.3,.1H337l-.1,.2h-.3l-.2,.1h-.6l-.1,.2H288.3l-.3,-.2h-.2l-.1,-.1h-.5l-.1,-.2l-.2,-.1h-.3l-.1,-.2l-.2,-.1l-.1,-.2l-.2,-.2l-.2,-.1l-.1,-.2l-.2,-.1l-.1,-.2v-.3l-.2,-.1l-.1,-.2v-.3l-.2,-.1v-.3l-.1,-.3V900.3Z" class="g14_2" />
<path d="M284.8,900.3v0v-.8l.1,-.2v-.4l.2,-.2v-.3l.1,-.1l.2,-.2V898l.1,-.2l.2,-.1l.1,-.3h.2l.2,-.3h.1l.2,-.2l.1,-.2l.3,-.1l.2,-.2h.1l.2,-.1h.3l.1,-.2h48.6l.2,.2h.3l.1,.1h.2l.1,.2l.3,.1l.2,.2l.1,.2h.2l.1,.3h.2l.2,.3l.1,.1l.2,.2v.1l.1,.2l.2,.1v.5l.1,.1v.3l.2,.2v11.6l-.2,.3v.2l-.1,.1v.3l-.2,.2l-.1,.1v.2l-.2,.1l-.1,.3l-.2,.2l-.2,.1l-.1,.2l-.2,.2h-.1l-.2,.1l-.1,.2l-.3,.1H337l-.1,.2h-.3l-.2,.1h-.6l-.1,.2H288.3l-.3,-.2h-.2l-.1,-.1h-.5l-.1,-.2l-.2,-.1h-.3l-.1,-.2l-.2,-.1l-.1,-.2l-.2,-.2l-.2,-.1l-.1,-.2l-.2,-.1l-.1,-.2v-.3l-.2,-.1l-.1,-.2v-.3l-.2,-.1v-.3l-.1,-.3V900.3Zm0,-4.2v0Zm54.7,18.4v0Z" class="g15_2" />
<path fill-rule="evenodd" d="M332.4,900.9v-.3h.2v-.3l.2,-.2V900h.1v-.2h.2v-.1l.1,-.2h.2v-.2h1.3v.2h.2l.1,.2l.2,.1l.1,.2v.1h.2v.3l.2,.2v.6l-.2,.1v.2l-.2,.1v.2l-.1,.1l-.2,.2l-.1,.1h-.3l-.2,.2h-.9v-.2h-.3l-.1,-.1v-.2h-.2l-.1,-.1v-.2h-.2v-.3l-.2,-.1v-.3Z" class="g0_2" />
<path fill-rule="evenodd" d="M328.6,900.9v-.6l.2,-.2V900h.1v-.2h.2v-.1h.1v-.2h.2l.1,-.2h1.3v.2h.1l.2,.2h.1v.1h.2v.2l.1,.1v.3l.2,.2v.6l-.2,.1v.3h-.1v.2l-.2,.1l-.1,.2v.1h-.5v.2h-1.1v-.2h-.3v-.1h-.1v-.2h-.2v-.1h-.1v-.2h-.2v-.4l-.1,-.2v-.1h.1Z" class="g12_2" />
<path fill-rule="evenodd" d="M284.8,923.5v-.6l.1,-.2v-.4l.2,-.2v-.3l.1,-.1l.2,-.2v-.2l.1,-.3l.2,-.1l.1,-.2l.2,-.1l.2,-.2l.1,-.1l.2,-.2h.1l.3,-.1l.2,-.2h.1l.2,-.1h.3l.1,-.2h.6l.4,-.1h46.7l.3,.1h.6l.2,.2h.3l.1,.1h.2l.1,.2l.3,.1h.2l.1,.2l.2,.1l.1,.2l.2,.1l.2,.2l.1,.1l.2,.3v.2l.1,.2l.2,.1v.5l.1,.1v.3l.2,.2v11.6l-.2,.1v.3l-.1,.2v.1l-.2,.4l-.1,.1v.2l-.2,.1l-.1,.2l-.2,.3h-.2l-.1,.1l-.2,.2l-.1,.1l-.2,.2l-.1,.1h-.3l-.2,.2l-.1,.1h-.5l-.1,.2h-1l-46.4,.1h-.1l-.4,-.1h-.6l-.1,-.2h-.3l-.2,-.1h-.1l-.2,-.2l-.3,-.1l-.1,-.2h-.2l-.1,-.1l-.2,-.2l-.2,-.1l-.1,-.2l-.2,-.1l-.1,-.3v-.2l-.2,-.1l-.1,-.2v-.3l-.2,-.2v-.4l-.1,-.2V923.5Z" class="g4_2" />
<path d="M284.8,923.5v0v-.6l.1,-.2v-.4l.2,-.2v-.3l.1,-.1l.2,-.2v-.2l.1,-.3l.2,-.1l.1,-.2l.2,-.1l.2,-.2l.1,-.1l.2,-.2h.1l.3,-.1l.2,-.2h.1l.2,-.1h.3l.1,-.2h.6l.4,-.1h46.7l.3,.1h.6l.2,.2h.3l.1,.1h.2l.1,.2l.3,.1h.2l.1,.2l.2,.1l.1,.2l.2,.1l.2,.2l.1,.1l.2,.3v.2l.1,.2l.2,.1v.5l.1,.1v.3l.2,.2v11.6l-.2,.1v.3l-.1,.2v.1l-.2,.4l-.1,.1v.2l-.2,.1l-.1,.2l-.2,.3h-.2l-.1,.1l-.2,.2l-.1,.1l-.2,.2l-.1,.1h-.3l-.2,.2l-.1,.1h-.5l-.1,.2h-1l-46.4,.1h-.1l-.4,-.1h-.6l-.1,-.2h-.3l-.2,-.1h-.1l-.2,-.2l-.3,-.1l-.1,-.2h-.2l-.1,-.1l-.2,-.2l-.2,-.1l-.1,-.2l-.2,-.1l-.1,-.3v-.2l-.2,-.1l-.1,-.2v-.3l-.2,-.2v-.4l-.1,-.2V923.5Zm0,-4.1v0Zm54.7,18.4v0Z" class="g13_2" />
<path fill-rule="evenodd" d="M284.8,920.4v-.6l.1,-.1v-.5l.2,-.1v-.4l.1,-.1l.2,-.2v-.3l.1,-.1l.2,-.2l.1,-.1l.2,-.2l.2,-.1l.1,-.2l.2,-.1h.1l.3,-.2l.2,-.1h.1l.2,-.2h.3l.1,-.1h.6l.4,-.2h46.7l.3,.2h.6l.2,.1h.3l.1,.2h.2l.1,.1l.3,.2h.2l.1,.1l.2,.2l.1,.1l.2,.2l.2,.1l.1,.2l.2,.1v.3l.1,.2l.2,.1v.5l.1,.2v.3l.2,.1v11.6l-.2,.2v.1l-.1,.3v.2l-.2,.1l-.1,.4v.1l-.2,.2l-.1,.1l-.2,.2l-.2,.1l-.1,.2l-.2,.1l-.1,.2l-.2,.1h-.1l-.3,.2l-.2,.1h-.1l-.3,.2h-.2l-.1,.1H287.8l-.1,-.1h-.3l-.2,-.2h-.1l-.2,-.1l-.3,-.2l-.1,-.1l-.2,-.2h-.1l-.2,-.1l-.2,-.2l-.1,-.1l-.2,-.3l-.1,-.2v-.1l-.2,-.2l-.1,-.2V932l-.2,-.1v-.5l-.1,-.1V920.4Z" class="g14_2" />
<path d="M284.8,920.4v0v-.6l.1,-.1v-.5l.2,-.1v-.4l.1,-.1l.2,-.2v-.3l.1,-.1l.2,-.2l.1,-.1l.2,-.2l.2,-.1l.1,-.2l.2,-.1h.1l.3,-.2l.2,-.1h.1l.2,-.2h.3l.1,-.1h.6l.4,-.2h46.7l.3,.2h.6l.2,.1h.3l.1,.2h.2l.1,.1l.3,.2h.2l.1,.1l.2,.2l.1,.1l.2,.2l.2,.1l.1,.2l.2,.1v.3l.1,.2l.2,.1v.5l.1,.2v.3l.2,.1v11.6l-.2,.2v.1l-.1,.3v.2l-.2,.1l-.1,.4v.1l-.2,.2l-.1,.1l-.2,.2l-.2,.1l-.1,.2l-.2,.1l-.1,.2l-.2,.1h-.1l-.3,.2l-.2,.1h-.1l-.3,.2h-.2l-.1,.1H287.8l-.1,-.1h-.3l-.2,-.2h-.1l-.2,-.1l-.3,-.2l-.1,-.1l-.2,-.2h-.1l-.2,-.1l-.2,-.2l-.1,-.1l-.2,-.3l-.1,-.2v-.1l-.2,-.2l-.1,-.2V932l-.2,-.1v-.5l-.1,-.1V920.4Zm0,-4.1v0Zm54.7,18.3v0Z" class="g15_2" />
<path fill-rule="evenodd" d="M332.4,921.2v-.3l.2,-.2v-.3h.2v-.3h.1l.2,-.1l.1,-.2h.2v-.1h.4l.2,-.2h.3v.2h.4l.2,.1h.1v.2h.2v.1h.1v.2l.2,.1v.3h.2v.8h-.2v.3l-.2,.2v.1l-.1,.2H335v.1h-.1v.2h-.5v.1h-.7v-.1h-.3l-.2,-.2h-.1v-.1h-.2v-.2h-.1V922l-.2,-.2v-.1l-.2,-.2v-.3Z" class="g0_2" />
<path fill-rule="evenodd" d="M328.6,921.2v-.8h.2v-.1l.1,-.2l.2,-.1h.1v-.2h.2v-.1h.4l.2,-.2h.3l.2,.2h.3l.1,.1h.2v.2h.1l.2,.1v.2h.1v.4h.2v.8h-.2v.5h-.1v.1l-.2,.2h-.1v.1l-.2,.2h-.3l-.1,.1h-.7l-.1,-.1h-.3l-.2,-.2h-.1v-.1h-.2v-.2l-.1,-.1l-.2,-.2v-.5h-.1v-.1h.1Z" class="g12_2" />
<path fill-rule="evenodd" d="M284.8,943.8v-.6l.1,-.2v-.4l.2,-.2v-.3l.1,-.1l.2,-.2v-.1l.1,-.3l.2,-.2l.1,-.1l.2,-.2l.2,-.2l.1,-.1l.2,-.2h.1l.3,-.1l.2,-.2h.1l.2,-.1h.3l.1,-.2h.6l.4,-.1h46.7l.3,.1h.6l.2,.2h.3l.1,.1h.2l.1,.2l.3,.1h.2l.1,.2l.2,.1l.1,.2l.2,.2l.2,.1l.1,.2l.2,.3v.1l.1,.2l.2,.1v.5l.1,.1v.3l.2,.2v23.1l-.2,.3v.1l-.1,.2v.1l-.2,.3l-.1,.2v.1l-.2,.2l-.1,.1l-.2,.3h-.2l-.1,.4h-.2l-.1,.1l-.2,.2l-.1,.1l-.3,.2H337l-.1,.1h-.3l-.2,.2h-1.1l-46.4,.1h-.1l-.4,-.1h-.6l-.1,-.2h-.3l-.2,-.1h-.1l-.2,-.2l-.3,-.1h-.1l-.2,-.2l-.1,-.1l-.2,-.2l-.2,-.2l-.1,-.1l-.2,-.2l-.1,-.3v-.1l-.2,-.2l-.1,-.1v-.3l-.2,-.2v-.4l-.1,-.2V943.8Z" class="g4_2" />
<path d="M284.8,943.8v0v-.6l.1,-.2v-.4l.2,-.2v-.3l.1,-.1l.2,-.2v-.1l.1,-.3l.2,-.2l.1,-.1l.2,-.2l.2,-.2l.1,-.1l.2,-.2h.1l.3,-.1l.2,-.2h.1l.2,-.1h.3l.1,-.2h.6l.4,-.1h46.7l.3,.1h.6l.2,.2h.3l.1,.1h.2l.1,.2l.3,.1h.2l.1,.2l.2,.1l.1,.2l.2,.2l.2,.1l.1,.2l.2,.3v.1l.1,.2l.2,.1v.5l.1,.1v.3l.2,.2v23.1l-.2,.3v.1l-.1,.2v.1l-.2,.3l-.1,.2v.1l-.2,.2l-.1,.1l-.2,.3h-.2l-.1,.4h-.2l-.1,.1l-.2,.2l-.1,.1l-.3,.2H337l-.1,.1h-.3l-.2,.2h-1.1l-46.4,.1h-.1l-.4,-.1h-.6l-.1,-.2h-.3l-.2,-.1h-.1l-.2,-.2l-.3,-.1h-.1l-.2,-.2l-.1,-.1l-.2,-.2l-.2,-.2l-.1,-.1l-.2,-.2l-.1,-.3v-.1l-.2,-.2l-.1,-.1v-.3l-.2,-.2v-.4l-.1,-.2V943.8Zm0,-4.1v0Zm54.7,29.9v0Z" class="g13_2" />
<path fill-rule="evenodd" d="M284.8,940.7v-.6l.1,-.3v-.3l.2,-.3v-.1l.1,-.2l.2,-.1v-.3l.1,-.2l.2,-.1l.1,-.2l.2,-.2l.2,-.1l.1,-.2l.2,-.1l.1,-.2h.3l.2,-.1l.1,-.2h.5l.1,-.1h.2l.3,-.2H336l.3,.2h.1l.2,.1h.4l.2,.2l.1,.1h.3l.2,.2l.1,.1l.2,.2l.1,.1l.2,.2l.2,.2l.1,.1l.2,.2v.3l.1,.1l.2,.2v.4l.1,.2v.1l.2,.3v23.1l-.2,.2v.3l-.1,.1v.2l-.2,.1l-.1,.3v.2l-.2,.1l-.1,.2l-.2,.1l-.2,.2l-.1,.1l-.2,.2l-.1,.2l-.2,.1l-.1,.2h-.3l-.2,.1l-.1,.2h-.5l-.1,.1h-1l-46.4,.2h-.1l-.4,-.2h-.6l-.1,-.1h-.3l-.2,-.2h-.1l-.2,-.1l-.3,-.2l-.1,-.1h-.2l-.1,-.2l-.2,-.2l-.2,-.1l-.1,-.2l-.2,-.3l-.1,-.1v-.2l-.2,-.1l-.1,-.2v-.3l-.2,-.1v-.5l-.1,-.1V940.7Z" class="g14_2" />
<path d="M284.8,940.7v0v-.6l.1,-.3v-.3l.2,-.3v-.1l.1,-.2l.2,-.1v-.3l.1,-.2l.2,-.1l.1,-.2l.2,-.2l.2,-.1l.1,-.2l.2,-.1l.1,-.2h.3l.2,-.1l.1,-.2h.5l.1,-.1h.2l.3,-.2H336l.3,.2h.1l.2,.1h.4l.2,.2l.1,.1h.3l.2,.2l.1,.1l.2,.2l.1,.1l.2,.2l.2,.2l.1,.1l.2,.2v.3l.1,.1l.2,.2v.4l.1,.2v.1l.2,.3v23.1l-.2,.2v.3l-.1,.1v.2l-.2,.1l-.1,.3v.2l-.2,.1l-.1,.2l-.2,.1l-.2,.2l-.1,.1l-.2,.2l-.1,.2l-.2,.1l-.1,.2h-.3l-.2,.1l-.1,.2h-.5l-.1,.1h-1l-46.4,.2h-.1l-.4,-.2h-.6l-.1,-.1h-.3l-.2,-.2h-.1l-.2,-.1l-.3,-.2l-.1,-.1h-.2l-.1,-.2l-.2,-.2l-.2,-.1l-.1,-.2l-.2,-.3l-.1,-.1v-.2l-.2,-.1l-.1,-.2v-.3l-.2,-.1v-.5l-.1,-.1V940.7Zm0,-4.1v0Zm54.7,30v0Z" class="g15_2" />
<path d="M290.3,962.4l7.9,-21.7m-3.2,21l8,-20.8m-3.4,21.5l7.9,-21.7" class="g16_2" />
<path d="M260,866.8l.2,-.9v-.8l.1,-.9l.2,-.8l.1,-.9l.3,-.7l.4,-.8v-.2m3.3,-5.1l.2,-.2l.6,-.6l.6,-.6l.8,-.5l.6,-.4l.7,-.5l.6,-.5l1,-.3m5.9,-1.3h6.1m6.1,0h6.1m6.3,0h6.1m6.1,0h6.1m6.3,0h6.1m6.1,0h6.1m6.3,0h6.1m6.1,0h6.1m6.3,0h6.1m6.1,0h6.1m6.3,0h6.1m6.1,0h6.1m6.3,0h6.1m6.1,0h6.1m6.3,0h6.1m6.1,0h6.1m6.3,0l.8,.1l.7,.2h.9l.8,.3l.8,.1l.7,.3l.8,.3l.4,.2m4.9,3.7v.1l.6,.6l.7,.6l.3,.8l.6,.8l.3,.6l.3,.7l.3,.8l.1,.2m1,6.1v6.1m0,6.1v6.1m0,6.3V898m0,6.1v6.1m0,6.3l.1,6.1m0,6.1v6.1m0,6.3v6.1m0,6.1v6.1m0,6.3v6.1m-.1,6.1l-.2,.1l-.1,.9l-.2,.8l-.1,.8l-.4,.7l-.3,.8l-.4,.8l-.3,.7l-.2,.2m-3.9,4.6l-.4,.3l-.7,.3l-.6,.4l-.8,.5l-.8,.3l-.9,.3l-.7,.3l-.7,.2m-6.1,.6h-6.1m-6.1,0h-6.2m-6.2,0h-6.1m-6.1,0h-6.2m-6.2,0h-6.1m-6.1,0H402m-6.2,0h-6.1m-6.1,0h-6.2m-6.1,.1h-6.2m-6.1,0h-6.2m-6.1,0h-6.2m-6.1,0h-6.2m-6.1,0h-6.2m-6.1,0h-6.2m-6.1,0h-6.2m-6.1,0H279m-6.1,-.3l-.2,-.1l-.8,-.2l-.7,-.1l-.8,-.3l-.7,-.4l-1,-.4l-.6,-.3l-.7,-.5l-.2,-.1m-4.3,-4.3l-.3,-.3l-.4,-.8l-.3,-.6l-.3,-.7l-.3,-1l-.4,-.7l-.3,-.8l-.1,-.8m-.5,-6.1v-6.1m0,-6.1v-6.1m0,-6.3v-6.1m0,-6.1v-6.1m0,-6.3v-6.1m0,-6.1v-6.1m0,-6.3v-6.1m0,-6.1v-6.1m0,-6.3v-6.1" class="g17_2" />
<path fill-rule="evenodd" d="M597.2,885.1l-13.4,7.4l-97,-178.8l27,-14.5l96.9,178.6l-13.5,7.3Z" class="g4_2" />
<path fill-rule="evenodd" d="M597.2,882.1l-13.4,7.3l-97,-178.7l27,-14.5l96.9,178.5l-13.5,7.4Z" class="g12_2" />
<image preserveAspectRatio="none" x="522" y="764" width="39" height="42" xlink:href="2/img/5.png" />
<path fill-rule="evenodd" d="M944.9,530.8l-44.3,55.5L895,577.6L630.7,748.1l5.5,8.6l-68.8,17.5l44.3,-55.4l5.7,8.7L881.7,557l-5.5,-8.7l68.7,-17.5Z" class="g4_2" />
<path fill-rule="evenodd" d="M941.9,530.2l-44.3,55.5l-5.5,-8.6L627.6,747.5l5.7,8.7l-68.8,17.4l44.3,-55.4l5.5,8.7L878.8,556.4l-5.7,-8.6l68.8,-17.6Z" class="g18_2" />


<!-- Any embedded fonts defined here -->
<style type="text/css" ><![CDATA[

@font-face {
	font-family: DejaVuSans-Oblique_45;
	src: url("fonts/DejaVuSans-Oblique_45.woff") format("woff");
}

@font-face {
	font-family: DejaVuSans_4a;
	src: url("fonts/DejaVuSans_4a.woff") format("woff");
}

]]></style>

</svg>
