<?xml version="1.0" encoding="utf-8"?>
<svg x="0" y="0" width="1564" height="1173" viewBox="0 0 1564 1173" version="1.1" style="display: block;margin-left: auto;margin-right: auto;" xmlns="http://www.w3.org/2000/svg" xmlns:xlink="http://www.w3.org/1999/xlink" xmlns:bx="https://boxy-svg.com">
  <defs>
    <clipPath id="c0_3">
      <path d="M0,1173.3V0H1564.4V1173.3Z"/>
    </clipPath>
    <style bx:fonts="DejaVuSans-Oblique_84">@font-face { font-family: DejaVuSans-Oblique_84; src: url("fonts/DejaVuSans-Oblique_84.woff") format("woff"); }</style>
    <style type="text/css">

.g0_3{
fill: #FFFFFF;
}
.g1_3{
fill: none;
stroke: #000000;
stroke-width: 7.6095405;
stroke-linecap: butt;
stroke-linejoin: miter;
stroke-miterlimit: 7;
stroke-opacity: 0.5;
}
.g2_3{
fill: none;
stroke: #EC5C57;
stroke-width: 7.6095405;
stroke-linecap: butt;
stroke-linejoin: miter;
stroke-miterlimit: 7;
}
.g3_3{
fill-opacity: 0.5;
}
.g4_3{
fill: none;
stroke: #000000;
stroke-width: 3.069764;
stroke-linecap: butt;
stroke-linejoin: miter;
stroke-miterlimit: 7;
stroke-opacity: 0.5;
}
.g5_3{
fill: #0077B1;
fill-opacity: 0.52;
}
.g6_3{
fill: none;
stroke: #0077B1;
stroke-width: 3.069764;
stroke-linecap: butt;
stroke-linejoin: miter;
stroke-miterlimit: 7;
}
.g7_3{
fill: #70BF41;
}
.g8_3{
fill: none;
stroke: #0077B1;
stroke-width: 1.513264;
stroke-linecap: butt;
stroke-linejoin: miter;
stroke-miterlimit: 7;
}
.g9_3{
fill: #EC5C57;
}
.g10_3{
fill: #0175AE;
}

.s1_3{
font-size: 48.89px;
font-family: DejaVuSans-Oblique_84;
fill: #00AB1D;
}
.s2_3{
font-size: 48.89px;
font-family: DejaVuSans-Oblique_84;
fill: #0175AF;
}
.s3_3{
font-size: 36.67px;
font-family: DejaVuSans-Oblique_84;
fill: #000000;
}

</style>
  </defs>
  <path d="M0,0 L0,1173 L1564,1173 L1564,0 Z " fill="#FFFFFF" stroke="none"/>
  <g clip-path="url(#c0_3)">
    <path fill-rule="evenodd" d="M0,.1H1564.4V1173.4H0V.1Z" class="g0_3"/>
    <path fill-rule="evenodd" d="M0,.1H1564.4V1173.4H0V.1Z" class="g0_3"/>
  </g>
  <image preserveAspectRatio="none" x="7" y="1076" width="60" height="79" xlink:href="3/img/1.png"/>
  <path d="M1140.9,942.7H823V447.6h635.9V942.7h-318Z" class="g1_3"/>
  <path d="M1140.9,939.7H823V444.5h635.9V939.7h-318Z" class="g2_3"/>
  <path fill-rule="evenodd" d="M1155.8,535.7V535l.1,-.3v-.5l.2,-.3v-.3l.1,-.5l.2,-.3l.1,-.3l.2,-.3l.3,-.3l.1,-.4l.3,-.2l.2,-.3l.3,-.3l.3,-.3l.3,-.2l.2,-.3l.4,-.1l.3,-.3l.3,-.2l.3,-.1l.3,-.2l.5,-.1h.3l.3,-.2h.5l.3,-.1h82.3l.5,.1h.4l.4,.2h.3l.3,.1l.4,.2l.3,.1l.3,.2l.3,.3l.3,.1l.3,.3l.4,.2l.3,.3l.3,.3l.1,.3l.3,.2l.2,.4l.1,.3l.3,.3l.2,.3l.1,.3v.5l.2,.3l.1,.3v.8l.2,.4v18.7l-.2,.4v.3l-.1,.5v.3l-.2,.3l-.1,.5l-.2,.3l-.1,.3l-.3,.3l-.2,.3l-.1,.3l-.3,.3l-.3,.3l-.3,.2l-.4,.3l-.1,.3l-.5,.1l-.3,.2l-.3,.1l-.3,.3h-.3l-.4,.2l-.3,.1h-.4l-.4,.2h-.3l-.3,.1h-82.2l-.3,-.1h-.5l-.3,-.2h-.3l-.5,-.1l-.3,-.2l-.3,-.1l-.3,-.2l-.3,-.3l-.4,-.1l-.2,-.3l-.3,-.2l-.3,-.3l-.3,-.3l-.2,-.3l-.3,-.2l-.1,-.4l-.3,-.3l-.2,-.3l-.1,-.3l-.2,-.3l-.1,-.5v-.3l-.2,-.3v-.5l-.1,-.3V535.7Z" class="g3_3"/>
  <path d="M1155.8,535.7v0V535l.1,-.3v-.5l.2,-.3v-.3l.1,-.5l.2,-.3l.1,-.3l.2,-.3l.3,-.3l.1,-.4l.3,-.2l.2,-.3l.3,-.3l.3,-.3l.3,-.2l.2,-.3l.4,-.1l.3,-.3l.3,-.2l.3,-.1l.3,-.2l.5,-.1h.3l.3,-.2h.5l.3,-.1h82.3l.5,.1h.4l.4,.2h.3l.3,.1l.4,.2l.3,.1l.3,.2l.3,.3l.3,.1l.3,.3l.4,.2l.3,.3l.3,.3l.1,.3l.3,.2l.2,.4l.1,.3l.3,.3l.2,.3l.1,.3v.5l.2,.3l.1,.3v.8l.2,.4v18.7l-.2,.4v.3l-.1,.5v.3l-.2,.3l-.1,.5l-.2,.3l-.1,.3l-.3,.3l-.2,.3l-.1,.3l-.3,.3l-.3,.3l-.3,.2l-.4,.3l-.1,.3l-.5,.1l-.3,.2l-.3,.1l-.3,.3h-.3l-.4,.2l-.3,.1h-.4l-.4,.2h-.3l-.3,.1h-82.2l-.3,-.1h-.5l-.3,-.2h-.3l-.5,-.1l-.3,-.2l-.3,-.1l-.3,-.2l-.3,-.3l-.4,-.1l-.2,-.3l-.3,-.2l-.3,-.3l-.3,-.3l-.2,-.3l-.3,-.2l-.1,-.4l-.3,-.3l-.2,-.3l-.1,-.3l-.2,-.3l-.1,-.5v-.3l-.2,-.3v-.5l-.1,-.3V535.7Zm0,-7.1v0Zm95.3,32v0Z" class="g4_3"/>
  <path fill-rule="evenodd" d="M1155.8,532.7v-.8l.1,-.3v-.4l.2,-.4v-.3l.1,-.4l.2,-.3l.1,-.3l.2,-.3l.3,-.3l.1,-.5l.3,-.2l.2,-.3l.3,-.3l.3,-.3l.3,-.3l.2,-.1l.4,-.2l.3,-.3l.3,-.1l.3,-.2l.3,-.1l.5,-.2h.3l.3,-.1h.5l.3,-.2h82.3l.5,.2h.4l.4,.1h.3l.3,.2l.4,.1l.3,.2l.3,.1l.3,.3l.3,.2l.3,.1l.4,.3l.3,.3l.3,.3l.1,.3l.3,.2l.2,.5l.1,.3l.3,.3l.2,.3l.1,.3v.4l.2,.3l.1,.4v.7l.2,.3V551l-.2,.5v.3l-.1,.4v.3l-.2,.3l-.1,.5l-.2,.3l-.1,.3l-.3,.3l-.2,.3l-.1,.3l-.3,.3l-.3,.3l-.3,.2l-.4,.3l-.1,.2l-.5,.3l-.3,.1l-.3,.2l-.3,.3h-.3l-.4,.1l-.3,.2h-.4l-.4,.1h-1.1l-81,.2h-.3l-.4,-.2h-.8l-.3,-.1l-.3,-.2h-.5l-.3,-.1l-.3,-.2l-.3,-.1l-.3,-.3l-.4,-.2l-.2,-.3l-.3,-.2l-.3,-.3l-.3,-.3l-.2,-.3l-.3,-.3l-.1,-.3l-.3,-.3l-.2,-.3l-.1,-.3l-.2,-.5l-.1,-.3v-.3l-.2,-.3v-.4l-.1,-.3V532.7Z" class="g5_3"/>
  <path d="M1155.8,532.7v0v-.8l.1,-.3v-.4l.2,-.4v-.3l.1,-.4l.2,-.3l.1,-.3l.2,-.3l.3,-.3l.1,-.5l.3,-.2l.2,-.3l.3,-.3l.3,-.3l.3,-.3l.2,-.1l.4,-.2l.3,-.3l.3,-.1l.3,-.2l.3,-.1l.5,-.2h.3l.3,-.1h.5l.3,-.2h82.3l.5,.2h.4l.4,.1h.3l.3,.2l.4,.1l.3,.2l.3,.1l.3,.3l.3,.2l.3,.1l.4,.3l.3,.3l.3,.3l.1,.3l.3,.2l.2,.5l.1,.3l.3,.3l.2,.3l.1,.3v.4l.2,.3l.1,.4v.7l.2,.3V551l-.2,.5v.3l-.1,.4v.3l-.2,.3l-.1,.5l-.2,.3l-.1,.3l-.3,.3l-.2,.3l-.1,.3l-.3,.3l-.3,.3l-.3,.2l-.4,.3l-.1,.2l-.5,.3l-.3,.1l-.3,.2l-.3,.3h-.3l-.4,.1l-.3,.2h-.4l-.4,.1h-1.1l-81,.2h-.3l-.4,-.2h-.8l-.3,-.1l-.3,-.2h-.5l-.3,-.1l-.3,-.2l-.3,-.1l-.3,-.3l-.4,-.2l-.2,-.3l-.3,-.2l-.3,-.3l-.3,-.3l-.2,-.3l-.3,-.3l-.1,-.3l-.3,-.3l-.2,-.3l-.1,-.3l-.2,-.5l-.1,-.3v-.3l-.2,-.3v-.4l-.1,-.3V532.7Zm0,-7.2v0Zm95.3,32.1v0Z" class="g6_3"/>
  <path fill-rule="evenodd" d="M1239,533.9V533l.2,-.2v-.1l.1,-.2v-.1l.2,-.2l.1,-.1l.2,-.2l.1,-.1l.2,-.2l.1,-.1h.4v-.2h.1l.2,-.1h1.6l.2,.1h.1l.2,.2h.3l.2,.1v.2h.1l.2,.1v.2h.1l.2,.1v.3h.1v.2l.2,.1v.3l.1,.2v.9l-.1,.2v.4l-.2,.2v.1l-.1,.2v.1h-.2v.2l-.1,.1l-.2,.2l-.1,.1h-.2l-.1,.2l-.2,.1h-.3l-.2,.2h-.3v.2h-.7l-.2,-.2h-.4l-.2,-.2h-.1l-.2,-.1h-.2l-.1,-.2h-.2v-.1l-.1,-.2h-.2v-.1l-.1,-.2v-.1h-.2v-.2l-.1,-.1v-.2l-.2,-.1v-.8Z" class="g0_3"/>
  <path fill-rule="evenodd" d="M1232.2,533.9v-.6l.1,-.2v-.3l.2,-.1v-.2h.1v-.1l.2,-.2v-.1h.1l.2,-.2v-.1h.1l.2,-.2v-.1h.3l.1,-.2h.2l.1,-.1h1.7l.2,.1h.1v.2h.3l.2,.1l.1,.2l.2,.1l.1,.2l.2,.1l.1,.2v.1l.2,.2v.1l.2,.2v1.5l-.2,.2v.3l-.2,.1v.2l-.1,.1l-.2,.2v.1h-.1l-.2,.2v.1h-.1l-.2,.2h-.1l-.2,.1h-.1l-.2,.2h-.3l-.1,.2h-.8l-.2,-.2h-.3l-.1,-.2h-.3l-.2,-.1h-.1V536h-.2l-.1,-.1v-.2h-.2l-.1,-.1v-.2l-.2,-.1l-.1,-.2v-.3l-.2,-.1v-.3h-.1v-.5Z" class="g7_3"/>
  <path fill-rule="evenodd" d="M1156.4,571v-.3l.1,-.4v-.8l.2,-.3l.1,-.3v-.5l.2,-.3l.1,-.3l.3,-.3l.2,-.3l.1,-.5l.4,-.1l.3,-.3l.1,-.3l.3,-.3l.3,-.2l.3,-.3l.3,-.1l.3,-.3l.3,-.2l.4,-.1l.4,-.2l.3,-.1h.3l.3,-.2h.5l.4,-.2h82.4l.3,.2h.5l.3,.2h.3l.4,.1l.3,.2l.3,.1l.3,.2l.3,.3l.5,.1l.2,.3l.3,.2l.3,.3l.3,.3l.1,.3l.3,.1l.2,.5l.3,.3l.1,.3l.2,.3l.2,.3l.1,.5v.3l.2,.3v.5l.1,.3v19.5l-.1,.3v.5l-.2,.3l-.1,.3l-.2,.5l-.2,.3l-.1,.3l-.2,.3l-.3,.3l-.1,.3l-.3,.3l-.3,.3l-.2,.1l-.3,.3l-.3,.4l-.3,.1l-.3,.2l-.5,.3l-.3,.1l-.3,.2h-.3l-.4,.1h-.3l-.3,.2h-.5l-.3,.1h-82.1l-.4,-.1h-.5l-.3,-.2h-.3l-.3,-.1l-.4,-.2l-.4,-.1l-.3,-.2l-.3,-.3l-.3,-.1l-.3,-.4l-.3,-.1l-.3,-.3l-.1,-.3l-.3,-.3l-.4,-.2l-.1,-.4l-.2,-.3l-.3,-.3l-.1,-.3l-.2,-.4v-.4l-.1,-.3l-.2,-.3v-.8l-.1,-.4V571Z" class="g3_3"/>
  <path d="M1156.4,571v0v-.3l.1,-.4v-.8l.2,-.3l.1,-.3v-.5l.2,-.3l.1,-.3l.3,-.3l.2,-.3l.1,-.5l.4,-.1l.3,-.3l.1,-.3l.3,-.3l.3,-.2l.3,-.3l.3,-.1l.3,-.3l.3,-.2l.4,-.1l.4,-.2l.3,-.1h.3l.3,-.2h.5l.4,-.2h82.4l.3,.2h.5l.3,.2h.3l.4,.1l.3,.2l.3,.1l.3,.2l.3,.3l.5,.1l.2,.3l.3,.2l.3,.3l.3,.3l.1,.3l.3,.1l.2,.5l.3,.3l.1,.3l.2,.3l.2,.3l.1,.5v.3l.2,.3v.5l.1,.3v19.5l-.1,.3v.5l-.2,.3l-.1,.3l-.2,.5l-.2,.3l-.1,.3l-.2,.3l-.3,.3l-.1,.3l-.3,.3l-.3,.3l-.2,.1l-.3,.3l-.3,.4l-.3,.1l-.3,.2l-.5,.3l-.3,.1l-.3,.2h-.3l-.4,.1h-.3l-.3,.2h-.5l-.3,.1h-82.1l-.4,-.1h-.5l-.3,-.2h-.3l-.3,-.1l-.4,-.2l-.4,-.1l-.3,-.2l-.3,-.3l-.3,-.1l-.3,-.4l-.3,-.1l-.3,-.3l-.1,-.3l-.3,-.3l-.4,-.2l-.1,-.4l-.2,-.3l-.3,-.3l-.1,-.3l-.2,-.4v-.4l-.1,-.3l-.2,-.3v-.8l-.1,-.4V571Zm0,-7.2v0Zm95.3,32.1v0Z" class="g4_3"/>
  <path fill-rule="evenodd" d="M1156.4,568v-.3l.1,-.5v-.8l.2,-.3l.1,-.3v-.4l.2,-.3l.1,-.3l.3,-.3l.2,-.3l.1,-.5l.4,-.2l.3,-.3l.1,-.3l.3,-.3l.3,-.1l.3,-.3l.3,-.2l.3,-.3l.3,-.1l.4,-.2l.4,-.2l.3,-.1h.3l.3,-.2h.5l.4,-.1h82.4l.3,.1h.5l.3,.2h.3l.4,.1l.3,.2l.3,.2l.3,.1l.3,.3l.5,.2l.2,.3l.3,.1l.3,.3l.3,.3l.1,.3l.3,.2l.2,.5l.3,.3l.1,.3l.2,.3l.2,.3l.1,.4v.3l.2,.3v.5l.1,.3v19.6l-.1,.3v.4l-.2,.3l-.1,.3l-.2,.5l-.2,.3l-.1,.3l-.2,.3l-.3,.3l-.1,.3l-.3,.3l-.3,.3l-.2,.2l-.3,.3l-.3,.1l-.3,.4l-.3,.1l-.5,.2l-.3,.3h-.3l-.3,.1l-.4,.2h-.3l-.3,.1h-1.3l-80.9,.2h-.3l-.4,-.2h-.9l-.3,-.1h-.3l-.3,-.2l-.4,-.1l-.4,-.2l-.3,-.1l-.3,-.3l-.3,-.2l-.3,-.3l-.3,-.2l-.3,-.3l-.1,-.3l-.3,-.3l-.4,-.1l-.1,-.5l-.2,-.3l-.3,-.3l-.1,-.3l-.2,-.5v-.3l-.1,-.3l-.2,-.3v-.7l-.1,-.5V568Z" class="g5_3"/>
  <path d="M1156.4,568v0v-.3l.1,-.5v-.8l.2,-.3l.1,-.3v-.4l.2,-.3l.1,-.3l.3,-.3l.2,-.3l.1,-.5l.4,-.2l.3,-.3l.1,-.3l.3,-.3l.3,-.1l.3,-.3l.3,-.2l.3,-.3l.3,-.1l.4,-.2l.4,-.2l.3,-.1h.3l.3,-.2h.5l.4,-.1h82.4l.3,.1h.5l.3,.2h.3l.4,.1l.3,.2l.3,.2l.3,.1l.3,.3l.5,.2l.2,.3l.3,.1l.3,.3l.3,.3l.1,.3l.3,.2l.2,.5l.3,.3l.1,.3l.2,.3l.2,.3l.1,.4v.3l.2,.3v.5l.1,.3v19.6l-.1,.3v.4l-.2,.3l-.1,.3l-.2,.5l-.2,.3l-.1,.3l-.2,.3l-.3,.3l-.1,.3l-.3,.3l-.3,.3l-.2,.2l-.3,.3l-.3,.1l-.3,.4l-.3,.1l-.5,.2l-.3,.3h-.3l-.3,.1l-.4,.2h-.3l-.3,.1h-1.3l-80.9,.2h-.3l-.4,-.2h-.9l-.3,-.1h-.3l-.3,-.2l-.4,-.1l-.4,-.2l-.3,-.1l-.3,-.3l-.3,-.2l-.3,-.3l-.3,-.2l-.3,-.3l-.1,-.3l-.3,-.3l-.4,-.1l-.1,-.5l-.2,-.3l-.3,-.3l-.1,-.3l-.2,-.5v-.3l-.1,-.3l-.2,-.3v-.7l-.1,-.5V568Zm0,-7.2v0Zm95.3,32.1v0Z" class="g6_3"/>
  <path fill-rule="evenodd" d="M1239.6,569.2v-.8l.2,-.1v-.2h.1v-.3l.2,-.1v-.2h.1v-.1l.2,-.2l.2,-.1h.1v-.2h.2l.1,-.2h.3l.2,-.1l.1,-.2h1.6l.1,.2h.2v.1h.3l.1,.2h.2v.2h.1l.2,.1l.1,.2v.1h.2v.2l.1,.1v.3h.2v.2l.1,.1v1.4l-.1,.2v.3h-.2v.3l-.1,.1h-.2v.2l-.1,.1v.2h-.2l-.1,.1l-.2,.2l-.1,.1h-.3v.2h-.2l-.1,.1h-1.4l-.2,-.1h-.1l-.2,-.2h-.3l-.1,-.1v-.2h-.2l-.1,-.1h-.2V571l-.2,-.1v-.2h-.1l-.2,-.1v-.3h-.1v-.2l-.2,-.1v-.8Z" class="g0_3"/>
  <path fill-rule="evenodd" d="M1232.8,569.2v-.3l.1,-.2v-.4l.2,-.2V568l.1,-.2v-.1l.2,-.2l.1,-.1l.2,-.2v-.1h.1l.2,-.2h.1v-.2h.3l.2,-.1h.2l.1,-.2h1.4l.1,.2h.2l.1,.1h.3v.2h.2l.1,.2h.2v.1l.2,.2l.1,.1l.2,.2v.1l.1,.2v.1h.2v.6l.1,.2v.3h-.1v.9l-.2,.2l-.1,.1v.3h-.2l-.1,.2v.1l-.2,.2h-.2v.1h-.1l-.2,.2v.1h-.3l-.1,.2h-.2l-.1,.1h-1.2l-.2,-.1h-.3l-.2,-.2h-.3v-.1l-.1,-.2h-.2v-.1h-.1l-.2,-.2v-.1l-.1,-.2l-.2,-.1l-.1,-.2v-.1l-.2,-.2v-.4l-.1,-.2v-.3Z" class="g7_3"/>
  <path fill-rule="evenodd" d="M1156.4,606.5V606l.1,-.3v-.8l.2,-.4l.1,-.3v-.3l.2,-.5l.1,-.3l.3,-.3l.2,-.3l.1,-.3l.4,-.3l.3,-.3l.1,-.3l.3,-.2l.3,-.3l.3,-.1l.3,-.3l.3,-.2l.3,-.1l.4,-.4h.4l.3,-.1l.3,-.2h.3l.5,-.1h.4l.4,-.2h81.5l.5,.2h.3l.5,.1h.3l.3,.2l.4,.1h.3l.3,.4l.3,.1l.3,.2l.5,.3l.2,.1l.3,.3l.3,.2l.3,.3l.1,.3l.3,.3l.2,.3l.3,.3l.1,.3l.2,.3l.2,.5l.1,.3v.3l.2,.4v.3l.1,.5v19.4l-.1,.5v.3l-.2,.3l-.1,.4l-.2,.3l-.2,.3l-.1,.4l-.2,.3l-.3,.4l-.1,.2l-.3,.3l-.3,.3l-.2,.3l-.3,.1l-.3,.3l-.3,.2l-.3,.3l-.5,.2l-.3,.1l-.3,.2l-.3,.1h-.4l-.3,.2h-.3l-.5,.1h-82.8l-.5,-.1h-.3l-.3,-.2l-.3,-.1l-.4,-.2l-.4,-.1l-.3,-.2l-.3,-.1l-.3,-.4l-.3,-.1l-.3,-.3l-.3,-.3l-.1,-.2l-.3,-.3l-.4,-.3l-.1,-.3l-.2,-.3l-.3,-.5l-.1,-.3l-.2,-.3v-.3l-.1,-.4l-.2,-.3v-.8l-.1,-.3v-18Z" class="g3_3"/>
  <path d="M1156.4,606.5v0V606l.1,-.3v-.8l.2,-.4l.1,-.3v-.3l.2,-.5l.1,-.3l.3,-.3l.2,-.3l.1,-.3l.4,-.3l.3,-.3l.1,-.3l.3,-.2l.3,-.3l.3,-.1l.3,-.3l.3,-.2l.3,-.1l.4,-.4h.4l.3,-.1l.3,-.2h.3l.5,-.1h.4l.4,-.2h81.5l.5,.2h.3l.5,.1h.3l.3,.2l.4,.1h.3l.3,.4l.3,.1l.3,.2l.5,.3l.2,.1l.3,.3l.3,.2l.3,.3l.1,.3l.3,.3l.2,.3l.3,.3l.1,.3l.2,.3l.2,.5l.1,.3v.3l.2,.4v.3l.1,.5v19.4l-.1,.5v.3l-.2,.3l-.1,.4l-.2,.3l-.2,.3l-.1,.4l-.2,.3l-.3,.4l-.1,.2l-.3,.3l-.3,.3l-.2,.3l-.3,.1l-.3,.3l-.3,.2l-.3,.3l-.5,.2l-.3,.1l-.3,.2l-.3,.1h-.4l-.3,.2h-.3l-.5,.1h-82.8l-.5,-.1h-.3l-.3,-.2l-.3,-.1l-.4,-.2l-.4,-.1l-.3,-.2l-.3,-.1l-.3,-.4l-.3,-.1l-.3,-.3l-.3,-.3l-.1,-.2l-.3,-.3l-.4,-.3l-.1,-.3l-.2,-.3l-.3,-.5l-.1,-.3l-.2,-.3v-.3l-.1,-.4l-.2,-.3v-.8l-.1,-.3v-18Zm0,-7.4v0Zm95.3,32.1v0Z" class="g4_3"/>
  <path fill-rule="evenodd" d="M1156.4,603.3V603l.1,-.3v-1l.2,-.3l.1,-.3v-.3l.2,-.4l.1,-.3l.3,-.4l.2,-.3l.1,-.3l.4,-.3l.3,-.3l.1,-.3l.3,-.1l.3,-.3l.3,-.3l.3,-.2l.3,-.1l.3,-.4l.4,-.1l.4,-.2h.3l.3,-.1l.3,-.2h.9l.4,-.1h81.5l.5,.1h.8l.3,.2l.3,.1h.4l.3,.2l.3,.1l.3,.4l.3,.1l.5,.2l.2,.3l.3,.3l.3,.1l.3,.3l.1,.3l.3,.3l.2,.3l.3,.3l.1,.4l.2,.3l.2,.4l.1,.3v.3l.2,.3v.5l.1,.5v19.4l-.1,.4v.3l-.2,.3l-.1,.3l-.2,.5l-.2,.3l-.1,.3l-.2,.3l-.3,.5l-.1,.1l-.3,.3l-.3,.3l-.2,.3l-.3,.2l-.3,.3l-.3,.1l-.3,.3l-.5,.2l-.3,.2l-.3,.1l-.3,.2h-.4l-.3,.1h-.3l-.5,.2h-82.8l-.5,-.2l-.3,-.1h-.3l-.3,-.2l-.4,-.1l-.4,-.2l-.3,-.2l-.3,-.3l-.3,-.1l-.3,-.2l-.3,-.3l-.3,-.3l-.1,-.3l-.3,-.1l-.4,-.3l-.1,-.3l-.2,-.3l-.3,-.5l-.1,-.3l-.2,-.3v-.5l-.1,-.3l-.2,-.3v-.8l-.1,-.3V603.3Z" class="g5_3"/>
  <path d="M1156.4,603.3v0V603l.1,-.3v-1l.2,-.3l.1,-.3v-.3l.2,-.4l.1,-.3l.3,-.4l.2,-.3l.1,-.3l.4,-.3l.3,-.3l.1,-.3l.3,-.1l.3,-.3l.3,-.3l.3,-.2l.3,-.1l.3,-.4l.4,-.1l.4,-.2h.3l.3,-.1l.3,-.2h.9l.4,-.1h81.5l.5,.1h.8l.3,.2l.3,.1h.4l.3,.2l.3,.1l.3,.4l.3,.1l.5,.2l.2,.3l.3,.3l.3,.1l.3,.3l.1,.3l.3,.3l.2,.3l.3,.3l.1,.4l.2,.3l.2,.4l.1,.3v.3l.2,.3v.5l.1,.5v19.4l-.1,.4v.3l-.2,.3l-.1,.3l-.2,.5l-.2,.3l-.1,.3l-.2,.3l-.3,.5l-.1,.1l-.3,.3l-.3,.3l-.2,.3l-.3,.2l-.3,.3l-.3,.1l-.3,.3l-.5,.2l-.3,.2l-.3,.1l-.3,.2h-.4l-.3,.1h-.3l-.5,.2h-82.8l-.5,-.2l-.3,-.1h-.3l-.3,-.2l-.4,-.1l-.4,-.2l-.3,-.2l-.3,-.3l-.3,-.1l-.3,-.2l-.3,-.3l-.3,-.3l-.1,-.3l-.3,-.1l-.4,-.3l-.1,-.3l-.2,-.3l-.3,-.5l-.1,-.3l-.2,-.3v-.5l-.1,-.3l-.2,-.3v-.8l-.1,-.3V603.3Zm0,-7.2v0Zm95.3,32.1v0Z" class="g6_3"/>
  <path fill-rule="evenodd" d="M1239.6,604.5v-.8l.2,-.1l.1,-.2v-.3l.2,-.1v-.2h.1v-.1l.2,-.2l.2,-.2h.1v-.1h.2l.1,-.2h.3l.2,-.1l.1,-.2h1.6l.1,.2h.2v.1h.3l.1,.2h.2v.1h.1l.2,.2l.1,.2v.1h.2v.2l.1,.1v.3l.2,.2l.1,.1v1.4l-.1,.1v.4h-.2v.3l-.1,.1l-.2,.2l-.1,.1v.2h-.2l-.1,.1l-.2,.2l-.1,.1h-.3v.2h-.2l-.1,.1h-1.4l-.2,-.1h-.1l-.2,-.2h-.3l-.1,-.1v-.2h-.2l-.1,-.1h-.2v-.2l-.2,-.1l-.1,-.2l-.2,-.1v-.3h-.1v-.2l-.2,-.2v-.7Z" class="g0_3"/>
  <path fill-rule="evenodd" d="M1232.8,604.5v-.3l.1,-.2v-.4h.2v-.3l.1,-.2V603l.2,-.2l.1,-.1l.2,-.2v-.2h.1l.2,-.1h.1V602h.3l.2,-.1h.2l.1,-.2h1.4l.1,.2h.2l.1,.1h.3v.2h.2l.1,.1h.2v.2l.2,.2l.1,.1l.2,.2v.1l.1,.2v.1l.2,.2v.4l.1,.2v.3h-.1v.9l-.2,.2l-.1,.1v.3l-.2,.2h-.1v.1l-.2,.2h-.2v.1h-.1l-.2,.2v.1h-.3l-.1,.2h-.2l-.1,.1h-1.2l-.2,-.1h-.3l-.2,-.2h-.3v-.1l-.1,-.2h-.2v-.1h-.1l-.2,-.2v-.1h-.1V606l-.2,-.1l-.1,-.2v-.1l-.2,-.2v-.5l-.1,-.1v-.3Z" class="g7_3"/>
  <path fill-rule="evenodd" d="M1156.4,641.8v-.5l.1,-.3v-.8l.2,-.3l.1,-.4v-.3l.2,-.3l.1,-.3l.3,-.5l.2,-.3l.1,-.3l.4,-.3l.3,-.3l.1,-.2l.3,-.3l.3,-.3l.3,-.1l.3,-.3l.3,-.2l.3,-.2l.4,-.1l.4,-.2l.3,-.1l.3,-.2h.3l.5,-.1h83.1l.5,.1h.3l.3,.2l.4,.1l.3,.2l.3,.1l.3,.2l.3,.2l.5,.3l.2,.1l.3,.3l.3,.3l.3,.2l.1,.3l.3,.3l.2,.3l.3,.3l.1,.5l.2,.3l.2,.3l.1,.3v.4l.2,.3v.3l.1,.5v39.4l-.1,.5v.3l-.2,.3l-.1,.4l-.2,.3l-.2,.4l-.1,.3l-.2,.3l-.3,.4l-.1,.2l-.3,.3l-.3,.3l-.2,.3l-.3,.1l-.3,.4l-.3,.1l-.3,.3l-.5,.2l-.3,.1l-.3,.2l-.3,.1h-.4l-.3,.2h-.3l-.5,.1h-82.8l-.5,-.1l-.3,-.2h-.3l-.3,-.1l-.4,-.2l-.4,-.1l-.3,-.2l-.3,-.1l-.3,-.3l-.3,-.2l-.3,-.3l-.3,-.3l-.1,-.2l-.3,-.3l-.4,-.3l-.1,-.3l-.2,-.3l-.3,-.4l-.1,-.4l-.2,-.3v-.3l-.1,-.4l-.2,-.3v-.8l-.1,-.3v-38Z" class="g3_3"/>
  <path d="M1156.4,641.8v0v-.5l.1,-.3v-.8l.2,-.3l.1,-.4v-.3l.2,-.3l.1,-.3l.3,-.5l.2,-.3l.1,-.3l.4,-.3l.3,-.3l.1,-.2l.3,-.3l.3,-.3l.3,-.1l.3,-.3l.3,-.2l.3,-.2l.4,-.1l.4,-.2l.3,-.1l.3,-.2h.3l.5,-.1h83.1l.5,.1h.3l.3,.2l.4,.1l.3,.2l.3,.1l.3,.2l.3,.2l.5,.3l.2,.1l.3,.3l.3,.3l.3,.2l.1,.3l.3,.3l.2,.3l.3,.3l.1,.5l.2,.3l.2,.3l.1,.3v.4l.2,.3v.3l.1,.5v39.4l-.1,.5v.3l-.2,.3l-.1,.4l-.2,.3l-.2,.4l-.1,.3l-.2,.3l-.3,.4l-.1,.2l-.3,.3l-.3,.3l-.2,.3l-.3,.1l-.3,.4l-.3,.1l-.3,.3l-.5,.2l-.3,.1l-.3,.2l-.3,.1h-.4l-.3,.2h-.3l-.5,.1h-82.8l-.5,-.1l-.3,-.2h-.3l-.3,-.1l-.4,-.2l-.4,-.1l-.3,-.2l-.3,-.1l-.3,-.3l-.3,-.2l-.3,-.3l-.3,-.3l-.1,-.2l-.3,-.3l-.4,-.3l-.1,-.3l-.2,-.3l-.3,-.4l-.1,-.4l-.2,-.3v-.3l-.1,-.4l-.2,-.3v-.8l-.1,-.3v-38Zm0,-7.2v0Zm95.3,51.9v0Z" class="g4_3"/>
  <path fill-rule="evenodd" d="M1156.4,638.7v-.5l.1,-.3v-.7l.2,-.5l.1,-.3v-.3l.2,-.4l.1,-.4l.3,-.3l.2,-.3l.1,-.3l.4,-.3l.3,-.3l.1,-.1l.3,-.3l.3,-.3l.3,-.2l.3,-.3l.3,-.2l.3,-.1l.4,-.2l.4,-.1l.3,-.2l.3,-.1h.3l.5,-.2h83.1l.5,.2h.3l.3,.1l.4,.2l.3,.1l.3,.2l.3,.1l.3,.2l.5,.3l.2,.2l.3,.3l.3,.3l.3,.1l.1,.3l.3,.3l.2,.3l.3,.3l.1,.3l.2,.4l.2,.4l.1,.3v.3l.2,.5v.3l.1,.4v39.5l-.1,.4v.3l-.2,.3l-.1,.3l-.2,.5l-.2,.3l-.1,.3l-.2,.3l-.3,.5l-.1,.1l-.3,.3l-.3,.3l-.2,.3l-.3,.2l-.3,.3l-.3,.1l-.3,.4l-.5,.1l-.3,.2l-.3,.1l-.3,.2h-.4l-.3,.1h-.3l-.5,.2h-82.8l-.5,-.2l-.3,-.1h-.3l-.3,-.2l-.4,-.1l-.4,-.2l-.3,-.1l-.3,-.4l-.3,-.1l-.3,-.2l-.3,-.3l-.3,-.3l-.1,-.3l-.3,-.3l-.4,-.1l-.1,-.3l-.2,-.3l-.3,-.5l-.1,-.3l-.2,-.3v-.5l-.1,-.3l-.2,-.3v-.7l-.1,-.4v-38Z" class="g5_3"/>
  <path d="M1156.4,638.7v0v-.5l.1,-.3v-.7l.2,-.5l.1,-.3v-.3l.2,-.4l.1,-.4l.3,-.3l.2,-.3l.1,-.3l.4,-.3l.3,-.3l.1,-.1l.3,-.3l.3,-.3l.3,-.2l.3,-.3l.3,-.2l.3,-.1l.4,-.2l.4,-.1l.3,-.2l.3,-.1h.3l.5,-.2h83.1l.5,.2h.3l.3,.1l.4,.2l.3,.1l.3,.2l.3,.1l.3,.2l.5,.3l.2,.2l.3,.3l.3,.3l.3,.1l.1,.3l.3,.3l.2,.3l.3,.3l.1,.3l.2,.4l.2,.4l.1,.3v.3l.2,.5v.3l.1,.4v39.5l-.1,.4v.3l-.2,.3l-.1,.3l-.2,.5l-.2,.3l-.1,.3l-.2,.3l-.3,.5l-.1,.1l-.3,.3l-.3,.3l-.2,.3l-.3,.2l-.3,.3l-.3,.1l-.3,.4l-.5,.1l-.3,.2l-.3,.1l-.3,.2h-.4l-.3,.1h-.3l-.5,.2h-82.8l-.5,-.2l-.3,-.1h-.3l-.3,-.2l-.4,-.1l-.4,-.2l-.3,-.1l-.3,-.4l-.3,-.1l-.3,-.2l-.3,-.3l-.3,-.3l-.1,-.3l-.3,-.3l-.4,-.1l-.1,-.3l-.2,-.3l-.3,-.5l-.1,-.3l-.2,-.3v-.5l-.1,-.3l-.2,-.3v-.7l-.1,-.4v-38Zm0,-7.2v0Zm95.3,52v0Z" class="g6_3"/>
  <path d="M1166.2,676.4l13.7,-37.8m-5.8,36.6L1188,638.9m-5.8,37.5l13.7,-37.8" class="g8_3"/>
  <path fill-rule="evenodd" d="M1410.6,675.2v-121h90.1V796.4h-90.1V675.2Z" class="g3_3"/>
  <path fill-rule="evenodd" d="M1410.6,678.4V557.3h90.1V799.4h-90.1v-121Z" class="g9_3"/>
  <path fill-rule="evenodd" d="M1241.6,764.4c-15.3,0,-30.5,1.9,-42.1,5.4c-23.4,7,-23.4,18.5,0,25.5c23.2,7,61.1,7,84.4,0c23.4,-7,23.4,-18.5,0,-25.5c-11.6,-3.5,-26.8,-5.4,-42.3,-5.4Zm-59.7,26.3V903.3c0,9.9,26.7,19.1,59.7,19.1c33,0,59.9,-9.2,59.9,-19.1V790.7c-8.5,7.7,-32.1,13,-59.9,13c-27.6,0,-51.2,-5.3,-59.7,-13Z" class="g3_3"/>
  <path fill-rule="evenodd" d="M1241.6,761.4c-15.3,0,-30.5,1.8,-42.1,5.3c-23.4,7.1,-23.4,18.5,0,25.5c23.2,7.1,61.1,7.1,84.4,0c23.4,-7,23.4,-18.4,0,-25.5c-11.6,-3.5,-26.8,-5.3,-42.3,-5.3Zm-59.7,26.3V900.3c0,9.9,26.7,19.1,59.7,19.1c33,0,59.9,-9.2,59.9,-19.1V787.7c-8.5,7.5,-32.1,13,-59.9,13c-27.6,0,-51.2,-5.5,-59.7,-13Z" class="g10_3"/>
  <path fill-rule="evenodd" d="M1225.1,815.8c0,5.9,4,11.6,10.4,15.1c-6.4,3.4,-10.4,9,-10.4,15.1c0,6.1,4,11.8,10.4,15.2c-6.4,3.3,-10.4,9,-10.4,15.1c0,6.1,4,11.7,10.4,15.3c-6.4,3.3,-10.4,9,-10.4,15.1h4.6c0,-1.2,.2,-2.3,.6,-3.4h22.8c.3,1.1,.6,2.2,.6,3.4h4.6c0,-6.1,-4,-11.8,-10.4,-15.1c6.4,-3.6,10.4,-9.2,10.4,-15.3c0,-6.1,-4,-11.8,-10.4,-15.1c6.4,-3.4,10.4,-9.1,10.4,-15.2c0,-6.1,-4,-11.7,-10.4,-15.1c6.4,-3.5,10.4,-9.2,10.4,-15.1h-4.6c0,1,-.2,2.1,-.6,3h-22.9c-.3,-.9,-.5,-2,-.5,-3h-4.6Zm6.4,5.8h20.2c-2,3,-5.5,5.5,-10.1,6.9c-4.4,-1.4,-7.9,-3.9,-10.1,-6.9Zm10.1,11.6c4.6,1.4,8.1,3.8,10.1,6.9h-20.2c2.2,-3.1,5.7,-5.5,10.1,-6.9Zm-11.4,9.6h22.9c.4,.9,.6,2.2,.6,3.2c0,1.1,-.2,2.2,-.6,3.1h-22.9c-.3,-.9,-.5,-2,-.5,-3.1c0,-1,.2,-2.3,.5,-3.2Zm1.3,9h20.4c-2.2,3.1,-5.7,5.5,-10.3,6.9c-4.4,-1.4,-8.1,-3.8,-10.1,-6.9Zm10.1,11.8c4.5,1.4,8,3.7,10.1,6.7h-20c2,-3,5.5,-5.3,9.9,-6.7Zm-11.3,9.5h22.8c.4,1,.6,2.1,.6,3.2c0,1,-.2,2.1,-.5,3h-23c-.3,-.9,-.5,-2,-.5,-3c0,-1.1,.2,-2.2,.6,-3.2Zm1.2,9h20.4c-2,3,-5.7,5.6,-10.3,7c-4.4,-1.4,-8.1,-4,-10.1,-7Zm10.1,11.7c4.5,1.4,8,3.9,10.1,6.8h-20c2.1,-2.9,5.6,-5.4,9.9,-6.8Z" class="g3_3"/>
  <path fill-rule="evenodd" d="M1225.1,812.7c0,6,4,11.6,10.4,15.1c-6.4,3.4,-10.4,9.1,-10.4,15.2c0,6.1,4,11.7,10.4,15.1c-6.4,3.4,-10.4,9,-10.4,15.1c0,6.1,4,11.8,10.4,15.1c-6.4,3.6,-10.4,9.2,-10.4,15.3h4.6c0,-1.2,.2,-2.3,.6,-3.3h22.8c.3,1,.6,2.1,.6,3.3h4.6c0,-6.1,-4,-11.7,-10.4,-15.3c6.4,-3.3,10.4,-9,10.4,-15.1c0,-6.1,-4,-11.7,-10.4,-15.1c6.4,-3.4,10.4,-9,10.4,-15.1c0,-6.1,-4,-11.8,-10.4,-15.2c6.4,-3.5,10.4,-9.1,10.4,-15.1h-4.6c0,.9,-.2,2.2,-.6,3.1h-22.9c-.3,-.9,-.5,-2.2,-.5,-3.1h-4.6Zm6.4,5.8h20.2c-2,3.1,-5.5,5.5,-10.1,6.9c-4.4,-1.4,-7.9,-3.8,-10.1,-6.9Zm10.1,11.6c4.6,1.4,8.1,3.9,10.1,6.9h-20.2c2.2,-3,5.7,-5.5,10.1,-6.9Zm-11.4,9.7h22.9c.4,.9,.6,1.9,.6,3.2c0,1,-.2,2.1,-.6,3h-22.9c-.3,-.9,-.5,-2,-.5,-3c0,-1.3,.2,-2.3,.5,-3.2Zm1.3,9h20.4c-2.2,3,-5.7,5.5,-10.3,6.9c-4.4,-1.4,-8.1,-3.9,-10.1,-6.9Zm10.1,11.7c4.5,1.3,8,3.7,10.1,6.8h-20c2,-3.1,5.5,-5.5,9.9,-6.8Zm-11.3,9.5h22.8c.4,.9,.6,2.2,.6,3.2c0,1.1,-.2,2.2,-.5,3.1h-23c-.3,-.9,-.5,-2,-.5,-3.1c0,-1,.2,-2.3,.6,-3.2Zm1.2,9h20.4c-2,3.1,-5.7,5.5,-10.3,7.1c-4.4,-1.6,-8.1,-4,-10.1,-7.1Zm10.1,11.8c4.5,1.4,8,3.7,10.1,6.7h-20c2.1,-3,5.6,-5.3,9.9,-6.7Z" class="g7_3"/>
  <path fill-rule="evenodd" d="M1086.3,764.4c-15.3,0,-30.6,1.9,-42.4,5.4c-23.2,7,-23.2,18.5,0,25.5c23.4,7,61.3,7,84.7,0c23.3,-7,23.3,-18.5,0,-25.5c-11.8,-3.5,-27.1,-5.4,-42.3,-5.4Zm-59.8,26.3V903.3c0,9.9,26.8,19.1,59.8,19.1c32.9,0,59.7,-9.2,59.7,-19.1V790.7c-8.4,7.7,-31.9,13,-59.7,13c-27.9,0,-51.4,-5.3,-59.8,-13Z" class="g3_3"/>
  <path fill-rule="evenodd" d="M1086.3,761.4c-15.3,0,-30.6,1.8,-42.4,5.3c-23.2,7.1,-23.2,18.5,0,25.5c23.4,7.1,61.3,7.1,84.7,0c23.3,-7,23.3,-18.4,0,-25.5c-11.8,-3.5,-27.1,-5.3,-42.3,-5.3Zm-59.8,26.3V900.3c0,9.9,26.8,19.1,59.8,19.1c32.9,0,59.7,-9.2,59.7,-19.1V787.7c-8.4,7.5,-31.9,13,-59.7,13c-27.9,0,-51.4,-5.5,-59.8,-13Z" class="g10_3"/>
  <path fill-rule="evenodd" d="M1069.8,815.8c0,5.9,3.9,11.6,10.2,15.1c-6.3,3.4,-10.2,9,-10.2,15.1c0,6.1,3.9,11.8,10.2,15.2c-6.3,3.3,-10.2,9,-10.2,15.1c0,6.1,3.9,11.7,10.3,15.3c-6.4,3.3,-10.3,9,-10.3,15.1h4.5c0,-1.2,.2,-2.3,.5,-3.4h22.8c.4,1.1,.6,2.2,.6,3.4h4.5c0,-6.1,-3.9,-11.8,-10.3,-15.1c6.4,-3.6,10.3,-9.2,10.3,-15.3c0,-6.1,-3.9,-11.8,-10.2,-15.1c6.3,-3.4,10.2,-9.1,10.2,-15.2c0,-6.1,-3.9,-11.7,-10.2,-15.1c6.3,-3.5,10.2,-9.2,10.2,-15.1h-4.5c0,1,-.2,2.1,-.5,3h-22.9c-.3,-.9,-.5,-2,-.5,-3h-4.5Zm6.4,5.8h20.1c-2,3,-5.6,5.5,-10,6.9c-4.5,-1.4,-8.1,-3.9,-10.1,-6.9Zm10.1,11.6c4.4,1.4,8,3.8,10,6.9h-20.1c2,-3.1,5.6,-5.5,10.1,-6.9Zm-11.5,9.6h22.9c.3,.9,.5,2.2,.5,3.2c0,1.1,-.2,2.2,-.5,3.1h-22.9c-.3,-.9,-.5,-2,-.5,-3.1c0,-1,.2,-2.3,.5,-3.2Zm1.4,9h20.1c-2,3.1,-5.6,5.5,-10,6.9c-4.6,-1.4,-8.1,-3.8,-10.1,-6.9Zm10.1,11.8c4.4,1.4,7.9,3.7,10,6.7h-20.1c2.1,-3,5.6,-5.3,10.1,-6.7Zm-11.5,9.5h22.9c.3,1,.5,2.1,.5,3.2c0,1,-.2,2.1,-.5,3h-22.9c-.3,-.9,-.5,-2,-.5,-3c0,-1.1,.2,-2.2,.5,-3.2Zm1.4,9h20.1c-2,3,-5.5,5.6,-10,7c-4.6,-1.4,-8.1,-4,-10.1,-7Zm10.1,11.7c4.4,1.4,7.9,3.9,9.9,6.8h-19.9c2,-2.9,5.5,-5.4,10,-6.8Z" class="g3_3"/>
  <path fill-rule="evenodd" d="M1069.8,812.7c0,6,3.9,11.6,10.2,15.1c-6.3,3.4,-10.2,9.1,-10.2,15.2c0,6.1,3.9,11.7,10.2,15.1c-6.3,3.4,-10.2,9,-10.2,15.1c0,6.1,3.9,11.8,10.3,15.1c-6.4,3.6,-10.3,9.2,-10.3,15.3h4.5c0,-1.2,.2,-2.3,.5,-3.3h22.8c.4,1,.6,2.1,.6,3.3h4.5c0,-6.1,-3.9,-11.7,-10.3,-15.3c6.4,-3.3,10.3,-9,10.3,-15.1c0,-6.1,-3.9,-11.7,-10.2,-15.1c6.3,-3.4,10.2,-9,10.2,-15.1c0,-6.1,-3.9,-11.8,-10.2,-15.2c6.3,-3.5,10.2,-9.1,10.2,-15.1h-4.5c0,.9,-.2,2.2,-.5,3.1h-22.9c-.3,-.9,-.5,-2.2,-.5,-3.1h-4.5Zm6.4,5.8h20.1c-2,3.1,-5.6,5.5,-10,6.9c-4.5,-1.4,-8.1,-3.8,-10.1,-6.9Zm10.1,11.6c4.4,1.4,8,3.9,10,6.9h-20.1c2,-3,5.6,-5.5,10.1,-6.9Zm-11.5,9.7h22.9c.3,.9,.5,1.9,.5,3.2c0,1,-.2,2.1,-.5,3h-22.9c-.3,-.9,-.5,-2,-.5,-3c0,-1.3,.2,-2.3,.5,-3.2Zm1.4,9h20.1c-2,3,-5.6,5.5,-10,6.9c-4.6,-1.4,-8.1,-3.9,-10.1,-6.9Zm10.1,11.7c4.4,1.3,7.9,3.7,10,6.8h-20.1c2.1,-3.1,5.6,-5.5,10.1,-6.8Zm-11.5,9.5h22.9c.3,.9,.5,2.2,.5,3.2c0,1.1,-.2,2.2,-.5,3.1h-22.9c-.3,-.9,-.5,-2,-.5,-3.1c0,-1,.2,-2.3,.5,-3.2Zm1.4,9h20.1c-2,3.1,-5.5,5.5,-10,7.1c-4.6,-1.6,-8.1,-4,-10.1,-7.1Zm10.1,11.8c4.4,1.4,7.9,3.7,9.9,6.7h-19.9c2,-3,5.5,-5.3,10,-6.7Z" class="g7_3"/>
  <path fill-rule="evenodd" d="M930.9,764.4c-15.5,0,-30.7,1.9,-42.3,5.4c-23.4,7,-23.4,18.5,0,25.5c23.3,7,61.2,7,84.4,0c23.4,-7,23.4,-18.5,0,-25.5c-11.6,-3.5,-26.8,-5.4,-42.1,-5.4ZM871,790.7V903.3c0,9.9,26.9,19.1,59.9,19.1c33,0,59.7,-9.2,59.7,-19.1V790.7c-8.5,7.7,-32.1,13,-59.7,13c-27.8,0,-51.4,-5.3,-59.9,-13Z" class="g3_3"/>
  <path fill-rule="evenodd" d="M930.9,761.4c-15.5,0,-30.7,1.8,-42.3,5.3c-23.4,7.1,-23.4,18.5,0,25.5c23.3,7.1,61.2,7.1,84.4,0c23.4,-7,23.4,-18.4,0,-25.5c-11.6,-3.5,-26.8,-5.3,-42.1,-5.3ZM871,787.7V900.3c0,9.9,26.9,19.1,59.9,19.1c33,0,59.7,-9.2,59.7,-19.1V787.7c-8.5,7.5,-32.1,13,-59.7,13c-27.8,0,-51.4,-5.5,-59.9,-13Z" class="g10_3"/>
  <path fill-rule="evenodd" d="M914.4,815.8c0,5.9,3.9,11.6,10.2,15.1c-6.3,3.4,-10.2,9,-10.2,15.1c0,6.1,3.9,11.8,10.2,15.2c-6.3,3.3,-10.2,9,-10.2,15.1c0,6.1,3.9,11.7,10.4,15.3c-6.5,3.3,-10.4,9,-10.4,15.1H919c0,-1.2,.1,-2.3,.4,-3.4h22.8c.4,1.1,.6,2.2,.6,3.4h4.6c0,-6.1,-4,-11.8,-10.4,-15.1c6.4,-3.6,10.4,-9.2,10.4,-15.3c0,-6.1,-4,-11.8,-10.3,-15.1c6.3,-3.4,10.3,-9.1,10.3,-15.2c0,-6.1,-4,-11.7,-10.3,-15.1c6.3,-3.5,10.3,-9.2,10.3,-15.1h-4.6c0,1,-.2,2.1,-.5,3H919.4c-.3,-.9,-.4,-2,-.4,-3h-4.6Zm6.4,5.8H941c-2,3,-5.7,5.5,-10.1,6.9c-4.5,-1.4,-8.1,-3.9,-10.1,-6.9Zm10.1,11.6c4.4,1.4,8.1,3.8,10.1,6.9H920.8c2,-3.1,5.6,-5.5,10.1,-6.9Zm-11.5,9.6h22.9c.3,.9,.5,2.2,.5,3.2c0,1.1,-.2,2.2,-.5,3.1H919.4c-.3,-.9,-.4,-2,-.4,-3.1c0,-1,.1,-2.3,.4,-3.2Zm1.4,9H941c-2,3.1,-5.7,5.5,-10.1,6.9c-4.6,-1.4,-8.1,-3.8,-10.1,-6.9Zm10.1,11.8c4.4,1.4,7.9,3.7,10.1,6.7H920.8c2.1,-3,5.6,-5.3,10.1,-6.7Zm-11.5,9.5h22.9c.3,1,.5,2.1,.5,3.2c0,1,-.2,2.1,-.5,3H919.4c-.3,-.9,-.4,-2,-.4,-3c0,-1.1,.1,-2.2,.4,-3.2Zm1.2,9H941c-2,3,-5.5,5.6,-10.1,7c-4.6,-1.4,-8.1,-4,-10.3,-7Zm10.3,11.7c4.4,1.4,7.9,3.9,9.9,6.8H920.9c2,-2.9,5.5,-5.4,10,-6.8Z" class="g3_3"/>
  <path fill-rule="evenodd" d="M914.4,812.7c0,6,3.9,11.6,10.2,15.1c-6.3,3.4,-10.2,9.1,-10.2,15.2c0,6.1,3.9,11.7,10.2,15.1c-6.3,3.4,-10.2,9,-10.2,15.1c0,6.1,3.9,11.8,10.4,15.1c-6.5,3.6,-10.4,9.2,-10.4,15.3H919c0,-1.2,.1,-2.3,.4,-3.3h22.8c.4,1,.6,2.1,.6,3.3h4.6c0,-6.1,-4,-11.7,-10.4,-15.3c6.4,-3.3,10.4,-9,10.4,-15.1c0,-6.1,-4,-11.7,-10.3,-15.1c6.3,-3.4,10.3,-9,10.3,-15.1c0,-6.1,-4,-11.8,-10.3,-15.2c6.3,-3.5,10.3,-9.1,10.3,-15.1h-4.6c0,.9,-.2,2.2,-.5,3.1H919.4c-.3,-.9,-.4,-2.2,-.4,-3.1h-4.6Zm6.4,5.8H941c-2,3.1,-5.7,5.5,-10.1,6.9c-4.5,-1.4,-8.1,-3.8,-10.1,-6.9Zm10.1,11.6c4.4,1.4,8.1,3.9,10.1,6.9H920.8c2,-3,5.6,-5.5,10.1,-6.9Zm-11.5,9.7h22.9c.3,.9,.5,1.9,.5,3.2c0,1,-.2,2.1,-.5,3H919.4c-.3,-.9,-.4,-2,-.4,-3c0,-1.3,.1,-2.3,.4,-3.2Zm1.4,9H941c-2,3,-5.7,5.5,-10.1,6.9c-4.6,-1.4,-8.1,-3.9,-10.1,-6.9Zm10.1,11.7c4.4,1.3,7.9,3.7,10.1,6.8H920.8c2.1,-3.1,5.6,-5.5,10.1,-6.8ZM919.4,870h22.9c.3,.9,.5,2.2,.5,3.2c0,1.1,-.2,2.2,-.5,3.1H919.4c-.3,-.9,-.4,-2,-.4,-3.1c0,-1,.1,-2.3,.4,-3.2Zm1.2,9H941c-2,3.1,-5.5,5.5,-10.1,7.1c-4.6,-1.6,-8.1,-4,-10.3,-7.1Zm10.3,11.8c4.4,1.4,7.9,3.7,9.9,6.7H920.9c2,-3,5.5,-5.3,10,-6.7Z" class="g7_3"/>
  <image preserveAspectRatio="none" x="946" y="650" width="127" height="127" xlink:href="3/img/2.png"/>
  <image preserveAspectRatio="none" x="903" y="530" width="190" height="90" xlink:href="3/img/3.png"/>
</svg>