<?xml version="1.0" encoding="UTF-8" standalone="no"?>
<!DOCTYPE svg PUBLIC "-//W3C//DTD SVG 1.1//EN"
"http://www.w3.org/Graphics/SVG/1.1/DTD/svg11.dtd">


<!-- Page 2 -->
<svg x="0" y="0" width="1564" height="1173" viewBox="0 0 1564 1173" version="1.1" xmlns="http://www.w3.org/2000/svg" xmlns:xlink="http://www.w3.org/1999/xlink"
style="display: block;margin-left: auto;margin-right: auto;">
<defs>
<clipPath id="c0_2"><path d="M0,1173.3V0H1564.4V1173.3Z" /></clipPath>

<style type="text/css"><![CDATA[

.g0_2{
fill: #FFFFFF;
}
.g1_2{
fill-opacity: 0.75;
}
.g2_2{
fill: #0175AE;
}
.g3_2{
fill-opacity: 0.5;
}
.g4_2{
fill: #70BF41;
}
.g5_2{
fill: none;
stroke: #000000;
stroke-width: 3.069764;
stroke-linecap: butt;
stroke-linejoin: miter;
stroke-miterlimit: 7;
stroke-opacity: 0.5;
}
.g6_2{
fill: #0077B1;
fill-opacity: 0.52;
}
.g7_2{
fill: none;
stroke: #0077B1;
stroke-width: 3.069764;
stroke-linecap: butt;
stroke-linejoin: miter;
stroke-miterlimit: 7;
}
.g8_2{
fill: none;
stroke: #0077B1;
stroke-width: 1.513264;
stroke-linecap: butt;
stroke-linejoin: miter;
stroke-miterlimit: 7;
}
.g9_2{
fill: none;
stroke: #002452;
stroke-width: 3.069764;
stroke-linecap: butt;
stroke-linejoin: miter;
}
.g10_2{
fill: #6E99B8;
}
.g11_2{
fill: #0077B1;
}


]]></style>

</defs>
<path d="M0,0
L0,1173
L1564,1173
L1564,0 Z " 
fill="#FFFFFF" stroke="none" />
<g clip-path="url(#c0_2)">
<path fill-rule="evenodd" d="M0,.1H1564.4V1173.4H0V.1Z" class="g0_2" />
<path fill-rule="evenodd" d="M0,.1H1564.4V1173.4H0V.1Z" class="g0_2" />
</g>
<path fill-rule="evenodd" d="M1282.9,397.6v10.7h-12.1V459h30.1V446.7h6V459h5.9V446.7h6V459h30.4V408.3h-12.4V397.6h-53.9Zm5.9,5.5h6.1v5.2h-6.1v-5.2Zm12.1,0h6v5.2h-6v-5.2Zm11.9,0h6v5.2h-6v-5.2Zm12.1,0h5.9v5.2h-5.9v-5.2Zm-48,10.9h6v5.2h-6V414Zm11.9,0h6.1v5.2h-6.1V414Zm12.1,0h6v5.2h-6V414Zm11.9,0h6v5.2h-6V414Zm12.1,0h5.9v5.2h-5.9V414Zm11.9,0h6v5.2h-6V414Zm-59.9,11h6v5h-6v-5Zm11.9,0h6.1v5h-6.1v-5Zm36.1,0h5.9v5h-5.9v-5Zm11.9,0h6v5h-6v-5Zm-26.9,.1c4.1,0,7.5,3.5,7.5,7.7c0,4.1,-3.4,7.4,-7.5,7.4c-4.1,0,-7.5,-3.3,-7.5,-7.4c0,-4.2,3.4,-7.7,7.5,-7.7Zm-1.7,2.9v2.9h-2.9v3.5h2.9v2.9h3.5v-2.9h3v-3.5h-3V428h-3.5Zm-31.3,7.8h6V441h-6v-5.2Zm11.9,0h6.1V441h-6.1v-5.2Zm36.1,0h5.9V441h-5.9v-5.2Zm11.9,0h6V441h-6v-5.2Zm-59.9,10.9h6v5.2h-6v-5.2Zm11.9,0h6.1v5.2h-6.1v-5.2Zm36.1,0h5.9v5.2h-5.9v-5.2Zm11.9,0h6v5.2h-6v-5.2Z" class="g1_2" />
<path fill-rule="evenodd" d="M1282.9,397.6v10.7h-12.1V459h30.1V446.7h6V459h5.9V446.7h6V459h30.4V408.3h-12.4V397.6h-53.9Zm5.9,5.5h6.1v5.2h-6.1v-5.2Zm12.1,0h6v5.2h-6v-5.2Zm11.9,0h6v5.2h-6v-5.2Zm12.1,0h5.9v5.2h-5.9v-5.2Zm-48,10.9h6v5.2h-6V414Zm11.9,0h6.1v5.2h-6.1V414Zm12.1,0h6v5.2h-6V414Zm11.9,0h6v5.2h-6V414Zm12.1,0h5.9v5.2h-5.9V414Zm11.9,0h6v5.2h-6V414Zm-59.9,11h6v5h-6v-5Zm11.9,0h6.1v5h-6.1v-5Zm36.1,0h5.9v5h-5.9v-5Zm11.9,0h6v5h-6v-5Zm-26.9,.1c4.1,0,7.5,3.5,7.5,7.7c0,4.1,-3.4,7.4,-7.5,7.4c-4.1,0,-7.5,-3.3,-7.5,-7.4c0,-4.2,3.4,-7.7,7.5,-7.7Zm-1.7,2.9v2.9h-2.9v3.5h2.9v2.9h3.5v-2.9h3v-3.5h-3V428h-3.5Zm-31.3,7.8h6V441h-6v-5.2Zm11.9,0h6.1V441h-6.1v-5.2Zm36.1,0h5.9V441h-5.9v-5.2Zm11.9,0h6V441h-6v-5.2Zm-59.9,10.9h6v5.2h-6v-5.2Zm11.9,0h6.1v5.2h-6.1v-5.2Zm36.1,0h5.9v5.2h-5.9v-5.2Zm11.9,0h6v5.2h-6v-5.2Z" class="g2_2" />
<path fill-rule="evenodd" d="M1026.7,397c-.5,0,-.8,.5,-.8,.9v25.2c0,.5,.3,1,.8,1h15.4l-.2,.1l-.6,3.4h-2v1.2h11.4v-1.2h-1.9l-.7,-3.4v-.1h16.1c.5,0,1,-.5,1,-1V397.9c0,-.4,-.5,-.9,-1,-.9h-37.5Zm18.8,.8c.3,0,.4,.1,.4,.4c0,.2,-.1,.3,-.4,.3c-.2,0,-.3,-.1,-.3,-.3c0,-.3,.1,-.4,.3,-.4Zm-17.5,1.8h34.9v19.9H1028V399.6Z" class="g3_2" />
<path fill-rule="evenodd" d="M1026.7,394c-.5,0,-.8,.3,-.8,.7v25.4c0,.4,.3,.7,.8,.7h15.4l-.2,.4l-.6,3.2h-2v1.3h11.4v-1.3h-1.9l-.7,-3.2v-.4h16.1c.5,0,1,-.3,1,-.7V394.7c0,-.4,-.5,-.7,-1,-.7h-37.5Zm18.8,.7c.3,0,.4,.2,.4,.3c0,.3,-.1,.5,-.4,.5c-.2,0,-.3,-.2,-.3,-.5c0,-.1,.1,-.3,.3,-.3Zm-17.5,1.9h34.9v19.7H1028V396.6Z" class="g2_2" />
<path fill-rule="evenodd" d="M1321.2,481.5c-4.6,0,-9.3,.5,-12.8,1.5c-7,2.2,-7,5.7,0,7.8c7.2,2.2,18.6,2.2,25.7,0c7.1,-2.1,7.1,-5.6,0,-7.8c-3.6,-1,-8.1,-1.5,-12.9,-1.5Zm-18.2,7.9v34.3c0,3,8.1,5.8,18.2,5.8c10.1,0,18.2,-2.8,18.2,-5.8V489.4c-2.6,2.3,-9.8,4,-18.2,4c-8.4,0,-15.6,-1.7,-18.2,-4Z" class="g3_2" />
<path fill-rule="evenodd" d="M1321.2,478.4c-4.6,0,-9.3,.5,-12.8,1.6c-7,2.1,-7,5.6,0,7.8c7.2,2.1,18.6,2.1,25.7,0c7.1,-2.2,7.1,-5.7,0,-7.8c-3.6,-1.1,-8.1,-1.6,-12.9,-1.6Zm-18.2,8v34.2c0,3.1,8.1,5.8,18.2,5.8c10.1,0,18.2,-2.7,18.2,-5.8V486.4c-2.6,2.3,-9.8,4,-18.2,4c-8.4,0,-15.6,-1.7,-18.2,-4Z" class="g2_2" />
<path fill-rule="evenodd" d="M1336,492.8c-4.5,0,-9.1,.5,-12.6,1.5c-7.2,2.2,-7.2,5.7,0,7.8c7,2.2,18.4,2.2,25.6,0c7.1,-2.1,7.1,-5.6,0,-7.8c-3.6,-1,-8.2,-1.5,-13,-1.5Zm-18,7.9V535c0,3,8.1,5.8,18,5.8c10.1,0,18.4,-2.8,18.4,-5.8V500.7c-2.6,2.3,-9.8,4,-18.4,4c-8.4,0,-15.5,-1.7,-18,-4Z" class="g3_2" />
<path fill-rule="evenodd" d="M1336,489.7c-4.5,0,-9.1,.5,-12.6,1.6c-7.2,2.1,-7.2,5.6,0,7.8c7,2.1,18.4,2.1,25.6,0c7.1,-2.2,7.1,-5.7,0,-7.8c-3.6,-1.1,-8.2,-1.6,-13,-1.6Zm-18,8v34.2c0,3.1,8.1,5.8,18,5.8c10.1,0,18.4,-2.7,18.4,-5.8V497.7c-2.6,2.3,-9.8,4,-18.4,4c-8.4,0,-15.5,-1.7,-18,-4Z" class="g2_2" />
<image preserveAspectRatio="none" x="1326" y="503" width="12" height="30" xlink:href="2/img/1.png" />
<path fill-rule="evenodd" d="M1352.4,507c-4.6,0,-9.2,.5,-12.8,1.5c-7.1,2.2,-7.1,5.7,0,7.8c7.1,2.2,18.6,2.2,25.8,0c7,-2.1,7,-5.6,0,-7.8c-3.7,-1,-8.3,-1.5,-13,-1.5Zm-18,8v34.2c0,3,8.1,5.8,18,5.8c10.1,0,18.2,-2.8,18.2,-5.8V515c-2.5,2.2,-9.7,3.9,-18.2,3.9c-8.4,0,-15.6,-1.7,-18,-3.9Z" class="g3_2" />
<path fill-rule="evenodd" d="M1352.4,504c-4.6,0,-9.2,.4,-12.8,1.5c-7.1,2.1,-7.1,5.6,0,7.8c7.1,2.1,18.6,2.1,25.8,0c7,-2.2,7,-5.7,0,-7.8c-3.7,-1.1,-8.3,-1.5,-13,-1.5Zm-18,7.9v34.2c0,3.1,8.1,5.8,18,5.8c10.1,0,18.2,-2.7,18.2,-5.8V511.9c-2.5,2.3,-9.7,3.8,-18.2,3.8c-8.4,0,-15.6,-1.5,-18,-3.8Z" class="g2_2" />
<path fill-rule="evenodd" d="M1347.5,522.6c0,1.8,1.2,3.5,3.1,4.6c-1.9,1,-3.1,2.7,-3.1,4.6c0,1.8,1.2,3.6,3.1,4.5c-1.9,1.1,-3.1,2.8,-3.1,4.6c0,2,1.2,3.7,3.2,4.8c-2,1,-3.2,2.7,-3.2,4.5h1.4c0,-.3,0,-.7,.1,-1h7.1c0,.3,.1,.7,.1,1h1.4c0,-1.8,-1.2,-3.5,-3.2,-4.5c2,-1.1,3.2,-2.8,3.2,-4.8c0,-1.8,-1.2,-3.5,-3.2,-4.6c2,-.9,3.2,-2.7,3.2,-4.5c0,-1.9,-1.2,-3.6,-3.2,-4.6c2,-1.1,3.2,-2.8,3.2,-4.6h-1.4c0,.3,-.1,.6,-.1,.9H1349c-.1,-.3,-.1,-.6,-.1,-.9h-1.4Zm2,1.8h6.1c-.6,.9,-1.7,1.7,-3.1,2c-1.3,-.3,-2.4,-1.1,-3,-2Zm3,3.5c1.4,.3,2.5,1.1,3.1,2h-6.1c.6,-.9,1.7,-1.7,3,-2Zm-3.5,2.9h7.1c0,.4,.1,.7,.1,1c0,.3,-.1,.6,-.1,.9H1349c-.1,-.3,-.1,-.6,-.1,-.9c0,-.3,0,-.6,.1,-1Zm.5,2.8h6.1c-.6,.9,-1.7,1.7,-3.1,2.1c-1.3,-.4,-2.4,-1.2,-3,-2.1Zm3,3.5c1.4,.5,2.5,1.2,3.1,2.1h-6.1c.6,-.9,1.7,-1.6,3,-2.1ZM1349,540h7.1c0,.3,.1,.6,.1,.9c0,.5,-.1,.8,-.1,1.1H1349c-.1,-.3,-.1,-.6,-.1,-1.1c0,-.3,0,-.6,.1,-.9Zm.5,2.8h6.1c-.6,.9,-1.7,1.6,-3.1,2.1c-1.3,-.5,-2.4,-1.2,-3,-2.1Zm3,3.6c1.4,.3,2.5,1.1,3.1,2h-6.1c.6,-.9,1.7,-1.7,3,-2Z" class="g3_2" />
<path fill-rule="evenodd" d="M1347.5,519.5c0,1.9,1.2,3.6,3.1,4.6c-1.9,1.1,-3.1,2.8,-3.1,4.6c0,1.8,1.2,3.5,3.1,4.6c-1.9,1.1,-3.1,2.7,-3.1,4.6c0,2,1.2,3.6,3.2,4.7c-2,.9,-3.2,2.8,-3.2,4.6h1.4c0,-.5,0,-.8,.1,-1.1h7.1c0,.3,.1,.6,.1,1.1h1.4c0,-1.8,-1.2,-3.7,-3.2,-4.6c2,-1.1,3.2,-2.7,3.2,-4.7c0,-1.9,-1.2,-3.5,-3.2,-4.6c2,-1.1,3.2,-2.8,3.2,-4.6c0,-1.8,-1.2,-3.5,-3.2,-4.6c2,-1,3.2,-2.7,3.2,-4.6h-1.4c0,.3,-.1,.7,-.1,1H1349c-.1,-.3,-.1,-.7,-.1,-1h-1.4Zm2,1.7h6.1c-.6,.9,-1.7,1.9,-3.1,2.2c-1.3,-.3,-2.4,-1.3,-3,-2.2Zm3,3.7c1.4,.3,2.5,1.1,3.1,2h-6.1c.6,-.9,1.7,-1.7,3,-2Zm-3.5,2.9h7.1c0,.3,.1,.6,.1,.9c0,.3,-.1,.6,-.1,.9H1349c-.1,-.3,-.1,-.6,-.1,-.9c0,-.3,0,-.6,.1,-.9Zm.5,2.7h6.1c-.6,1,-1.7,1.7,-3.1,2c-1.3,-.3,-2.4,-1,-3,-2Zm3,3.6c1.4,.4,2.5,1,3.1,1.9h-6.1c.6,-.9,1.7,-1.5,3,-1.9ZM1349,537h7.1c0,.3,.1,.6,.1,.9c0,.4,-.1,.7,-.1,1H1349c-.1,-.3,-.1,-.6,-.1,-1c0,-.3,0,-.6,.1,-.9Zm.5,2.7h6.1c-.6,.9,-1.7,1.7,-3.1,2.1c-1.3,-.4,-2.4,-1.2,-3,-2.1Zm3,3.5c1.4,.5,2.5,1.2,3.1,2.2h-6.1c.6,-1,1.7,-1.7,3,-2.2Z" class="g4_2" />
<path fill-rule="evenodd" d="M1250.5,489.3V489l.1,-.2v-.4l.2,-.2v-.1l.1,-.2l.2,-.1v-.2l.2,-.1l.1,-.2l.2,-.1h.1l.2,-.2l.1,-.2h.3l.2,-.1h.3l.1,-.2h31.5l.2,.2h.4l.2,.1h.3v.2h.1l.2,.2h.1v.1l.2,.2h.1v.1l.2,.2v.1l.1,.2l.2,.1v.3l.1,.2v8.2l-.1,.2v.1h-.2v.3l-.1,.2l-.2,.1l-.1,.2l-.2,.2l-.1,.1h-.2v.2h-.1l-.2,.1h-.3l-.1,.2h-32.4l-.2,-.2h-.1l-.2,-.1h-.1l-.2,-.2l-.1,-.1h-.2l-.1,-.2v-.2h-.2v-.1l-.2,-.2l-.1,-.1v-.2l-.2,-.1v-.6h-.1v-7.2Z" class="g3_2" />
<path d="M1250.5,489.3v0V489l.1,-.2v-.4l.2,-.2v-.1l.1,-.2l.2,-.1v-.2l.2,-.1l.1,-.2l.2,-.1h.1l.2,-.2l.1,-.2h.3l.2,-.1h.3l.1,-.2h31.5l.2,.2h.4l.2,.1h.3v.2h.1l.2,.2h.1v.1l.2,.2h.1v.1l.2,.2v.1l.1,.2l.2,.1v.3l.1,.2v8.2l-.1,.2v.1h-.2v.3l-.1,.2l-.2,.1l-.1,.2l-.2,.2l-.1,.1h-.2v.2h-.1l-.2,.1h-.3l-.1,.2h-32.4l-.2,-.2h-.1l-.2,-.1h-.1l-.2,-.2l-.1,-.1h-.2l-.1,-.2v-.2h-.2v-.1l-.2,-.2l-.1,-.1v-.2l-.2,-.1v-.6h-.1v-7.2Zm0,-2.8v0Zm36.3,12.3v0Z" class="g5_2" />
<path fill-rule="evenodd" d="M1250.5,486.2v-.3l.1,-.1v-.5l.2,-.1V485l.1,-.1l.2,-.2v-.1l.2,-.2v-.2h.1l.2,-.1h.1l.2,-.2l.1,-.1h.2l.1,-.2h.5l.1,-.1h31.5l.2,.1h.6l.1,.2h.2v.1h.1l.2,.2h.1v.1h.2l.1,.2v.2l.2,.1v.2h.1v.1l.2,.2v.3l.1,.1v8.1l-.1,.3l-.2,.2v.3l-.1,.1h-.2v.2l-.1,.1h-.2v.2l-.1,.1h-.2v.2h-.1l-.2,.2h-.4l-.2,.1h-32.1l-.1,-.1h-.3l-.2,-.2h-.1v-.2h-.2l-.1,-.1h-.2l-.1,-.2v-.1h-.2v-.2l-.2,-.1v-.2h-.1v-.1l-.2,-.2v-.6l-.1,-.1v-7.1Z" class="g6_2" />
<path d="M1250.5,486.2v0v-.3l.1,-.1v-.5l.2,-.1V485l.1,-.1l.2,-.2v-.1l.2,-.2v-.2h.1l.2,-.1h.1l.2,-.2l.1,-.1h.2l.1,-.2h.5l.1,-.1h31.5l.2,.1h.6l.1,.2h.2v.1h.1l.2,.2h.1v.1h.2l.1,.2v.2l.2,.1v.2h.1v.1l.2,.2v.3l.1,.1v8.1l-.1,.3l-.2,.2v.3l-.1,.1h-.2v.2l-.1,.1h-.2v.2l-.1,.1h-.2v.2h-.1l-.2,.2h-.4l-.2,.1h-32.1l-.1,-.1h-.3l-.2,-.2h-.1v-.2h-.2l-.1,-.1h-.2l-.1,-.2v-.1h-.2v-.2l-.2,-.1v-.2h-.1v-.1l-.2,-.2v-.6l-.1,-.1v-7.1Zm0,-2.7v0Zm36.3,12.2v0Z" class="g7_2" />
<path fill-rule="evenodd" d="M1282.3,486.7v-.2h.1v-.3h.2v-.3h.3v-.1h.3v-.2h.3l.1,.2h.3v.1h.2v.2h.1v.3h.2v.4l-.2,.2v.3l-.1,.2h-.2v.1h-.1v.2h-.8v-.2h-.3v-.1h-.1v-.2l-.2,-.1v-.4h-.1v-.1Z" class="g0_2" />
<path fill-rule="evenodd" d="M1279.7,486.7v-.2h.1v-.3h.2v-.3h.1l.2,-.1h.3v-.2h.3l.1,.2h.3v.1h.2v.2h.2v.3h.1v.4l-.1,.2v.3l-.2,.2h-.2v.1h-.1v.2h-.8v-.2h-.3v-.1h-.1v-.2l-.2,-.1v-.4h-.1v-.1Z" class="g4_2" />
<path fill-rule="evenodd" d="M1250.8,502.9v-.8l.1,-.1v-.3h.2v-.2l.2,-.1v-.2l.1,-.1l.2,-.2l.1,-.2l.2,-.1h.1l.2,-.2l.1,-.1h.3l.2,-.2H1285l.2,.2h.3l.1,.1h.2v.2h.1l.2,.1h.1v.2l.2,.2h.1v.1l.2,.2v.1l.1,.2v.1l.2,.2v.4l.2,.2v7.5l-.2,.1v.3l-.2,.2v.1l-.1,.2l-.2,.1v.2l-.1,.1l-.2,.2l-.1,.1h-.2v.2h-.1l-.2,.2h-.1l-.3,.1h-.3l-.2,.2h-31.8l-.1,-.2h-.3l-.2,-.1h-.1l-.2,-.2l-.1,-.2h-.2v-.1h-.1l-.2,-.2v-.1l-.1,-.2l-.2,-.1v-.2l-.2,-.1v-.3l-.1,-.2v-7.3Z" class="g3_2" />
<path d="M1250.8,502.9v0v-.8l.1,-.1v-.3h.2v-.2l.2,-.1v-.2l.1,-.1l.2,-.2l.1,-.2l.2,-.1h.1l.2,-.2l.1,-.1h.3l.2,-.2H1285l.2,.2h.3l.1,.1h.2v.2h.1l.2,.1h.1v.2l.2,.2h.1v.1l.2,.2v.1l.1,.2v.1l.2,.2v.4l.2,.2v7.5l-.2,.1v.3l-.2,.2v.1l-.1,.2l-.2,.1v.2l-.1,.1l-.2,.2l-.1,.1h-.2v.2h-.1l-.2,.2h-.1l-.3,.1h-.3l-.2,.2h-31.8l-.1,-.2h-.3l-.2,-.1h-.1l-.2,-.2l-.1,-.2h-.2v-.1h-.1l-.2,-.2v-.1l-.1,-.2l-.2,-.1v-.2l-.2,-.1v-.3l-.1,-.2v-7.3Zm0,-2.8v0Zm36.4,12.3v0Z" class="g5_2" />
<path fill-rule="evenodd" d="M1250.8,499.8v-.7l.1,-.2v-.3l.2,-.1l.2,-.2v-.1l.1,-.2l.2,-.2l.1,-.1l.2,-.2h.1l.2,-.1l.1,-.2h.3l.2,-.1H1285l.2,.1h.3l.1,.2h.2v.1h.1l.2,.2h.1v.1l.2,.2h.1v.2l.2,.1v.2h.1v.3l.2,.1v.5l.2,.1V507l-.2,.2v.3l-.2,.1v.2l-.1,.1l-.2,.2v.1h-.1v.2l-.2,.1h-.1l-.2,.2v.1h-.3l-.1,.2l-.3,.2h-.8l-30.9,.1h-.3l-.1,-.1h-.6l-.2,-.2h-.1v-.2h-.2l-.1,-.1h-.2v-.2h-.1l-.2,-.1v-.2l-.1,-.1v-.2h-.2v-.1l-.2,-.2v-.3l-.1,-.1v-7.4Z" class="g6_2" />
<path d="M1250.8,499.8v0v-.7l.1,-.2v-.3l.2,-.1l.2,-.2v-.1l.1,-.2l.2,-.2l.1,-.1l.2,-.2h.1l.2,-.1l.1,-.2h.3l.2,-.1H1285l.2,.1h.3l.1,.2h.2v.1h.1l.2,.2h.1v.1l.2,.2h.1v.2l.2,.1v.2h.1v.3l.2,.1v.5l.2,.1V507l-.2,.2v.3l-.2,.1v.2l-.1,.1l-.2,.2v.1h-.1v.2l-.2,.1h-.1l-.2,.2v.1h-.3l-.1,.2l-.3,.2h-.8l-30.9,.1h-.3l-.1,-.1h-.6l-.2,-.2h-.1v-.2h-.2l-.1,-.1h-.2v-.2h-.1l-.2,-.1v-.2l-.1,-.1v-.2h-.2v-.1l-.2,-.2v-.3l-.1,-.1v-7.4Zm0,-2.7v0Zm36.4,12.2v0Z" class="g7_2" />
<path fill-rule="evenodd" d="M1282.6,500.3v-.5h.1v-.1l.2,-.2h.1v-.1h.2v-.2h.9v.2h.1v.1h.2l.2,.2v.3l.1,.1v.2h-.1v.4h-.2v.2l-.2,.2h-.1v.1h-.3v.2h-.2v-.2h-.4v-.1h-.3v-.2l-.2,-.2v-.1h-.1v-.3Z" class="g0_2" />
<path fill-rule="evenodd" d="M1280,500.3v-.5h.1v-.3h.3v-.1h.2v-.2h.9v.2h.2v.1h.1l.2,.2v.3l.1,.1v.2h-.1v.4h-.2v.2l-.1,.2h-.2v.1h-.3v.2h-.2v-.2h-.4v-.1h-.3v-.2h-.2v-.3h-.1v-.3Z" class="g4_2" />
<path fill-rule="evenodd" d="M1250.8,516.3v-.7h.1v-.3l.2,-.2V515l.2,-.2v-.1h.1v-.2l.2,-.2h.1v-.1l.2,-.2h.1l.2,-.1l.1,-.2h.5l.1,-.1h32l.1,.1h.5l.1,.2h.2v.1h.1l.2,.2l.1,.1l.2,.2l.1,.2l.2,.1v.2l.1,.1v.2l.2,.3v.3l.2,.1v7.7h-.2v.3l-.2,.1v.3h-.1l-.2,.2v.1l-.1,.2v.1h-.2l-.1,.2h-.2v.1h-.1l-.2,.2h-.1v.2h-.6l-.2,.1h-31.8l-.1,-.1h-.5l-.1,-.2l-.2,-.2h-.1l-.2,-.1V525h-.1l-.2,-.1v-.2h-.1v-.1l-.2,-.2v-.1l-.2,-.2V524l-.1,-.2v-7.5Z" class="g3_2" />
<path d="M1250.8,516.3v0v-.7h.1v-.3l.2,-.2V515l.2,-.2v-.1h.1v-.2l.2,-.2h.1v-.1l.2,-.2h.1l.2,-.1l.1,-.2h.5l.1,-.1h32l.1,.1h.5l.1,.2h.2v.1h.1l.2,.2l.1,.1l.2,.2l.1,.2l.2,.1v.2l.1,.1v.2l.2,.3v.3l.2,.1v7.7h-.2v.3l-.2,.1v.3h-.1l-.2,.2v.1l-.1,.2v.1h-.2l-.1,.2h-.2v.1h-.1l-.2,.2h-.1v.2h-.6l-.2,.1h-31.8l-.1,-.1h-.5l-.1,-.2l-.2,-.2h-.1l-.2,-.1V525h-.1l-.2,-.1v-.2h-.1v-.1l-.2,-.2v-.1l-.2,-.2V524l-.1,-.2v-7.5Zm0,-2.7v0Zm36.4,12.2v0Z" class="g5_2" />
<path fill-rule="evenodd" d="M1250.8,513.3v-.8l.1,-.1v-.3h.2v-.2l.2,-.2v-.1l.1,-.2l.2,-.1l.1,-.2l.2,-.1h.1l.2,-.2l.1,-.1h.3l.2,-.2H1285l.2,.2h.3l.1,.1h.2v.2h.1l.2,.1h.1v.2l.2,.1h.1v.2l.2,.1v.2l.1,.2v.1l.2,.2v.4l.2,.2v7.5l-.2,.1v.3l-.2,.2v.1l-.1,.2l-.2,.1v.2l-.1,.1l-.2,.2l-.1,.1h-.2v.2h-.1l-.2,.1h-.1l-.3,.2h-.3l-.2,.1h-31.8l-.1,-.1h-.3l-.2,-.2h-.1l-.2,-.1l-.1,-.2h-.2V522h-.1l-.2,-.2v-.1l-.1,-.2l-.2,-.1v-.2l-.2,-.1v-.3h-.1v-7.5Z" class="g6_2" />
<path d="M1250.8,513.3v0v-.8l.1,-.1v-.3h.2v-.2l.2,-.2v-.1l.1,-.2l.2,-.1l.1,-.2l.2,-.1h.1l.2,-.2l.1,-.1h.3l.2,-.2H1285l.2,.2h.3l.1,.1h.2v.2h.1l.2,.1h.1v.2l.2,.1h.1v.2l.2,.1v.2l.1,.2v.1l.2,.2v.4l.2,.2v7.5l-.2,.1v.3l-.2,.2v.1l-.1,.2l-.2,.1v.2l-.1,.1l-.2,.2l-.1,.1h-.2v.2h-.1l-.2,.1h-.1l-.3,.2h-.3l-.2,.1h-31.8l-.1,-.1h-.3l-.2,-.2h-.1l-.2,-.1l-.1,-.2h-.2V522h-.1l-.2,-.2v-.1l-.1,-.2l-.2,-.1v-.2l-.2,-.1v-.3h-.1v-7.5Zm0,-2.8v0Zm36.4,12.2v0Z" class="g7_2" />
<path fill-rule="evenodd" d="M1282.6,513.7v-.3l.1,-.1v-.2h.2V513h.1v-.2h.2l.1,-.1h.6v.1h.3v.2h.2v.1h.2v.3l.1,.2v.1h-.1v.5l-.2,.1l-.2,.2v.2h-.4v.1h-.2v-.1h-.6v-.2h-.1v-.2h-.2V514h-.1v-.3Z" class="g0_2" />
<path fill-rule="evenodd" d="M1280,513.7v-.3l.1,-.1v-.2h.2V513h.1v-.2h.2l.1,-.1h.6v.1h.4v.2h.1v.1h.2v.3l.1,.2v.1h-.1v.5l-.2,.1l-.1,.2v.2h-.5v.1h-.2v-.1h-.6v-.2h-.1v-.2h-.2V514h-.1v-.3Z" class="g4_2" />
<path fill-rule="evenodd" d="M1250.8,529.8v-.6l.1,-.2v-.3l.2,-.1v-.2l.2,-.2l.1,-.1v-.2l.2,-.1h.1v-.2h.2l.1,-.1l.2,-.2h.1l.2,-.1h.3l.1,-.2h32l.1,.2h.3l.2,.1h.3v.2l.1,.1h.2l.1,.2l.2,.1l.1,.2v.1h.2v.2l.1,.2v.3l.2,.1v.3l.2,.2v15.2h-.2v.4l-.2,.1v.3l-.1,.2h-.2v.1l-.1,.2v.1h-.2l-.1,.2h-.2v.1h-.1l-.2,.2h-.1v.1h-.6l-.2,.2h-31.8l-.1,-.2h-.5l-.1,-.1l-.2,-.2h-.1l-.2,-.1v-.2h-.1l-.2,-.1l-.1,-.2v-.1l-.2,-.2v-.1h-.2v-.3l-.1,-.2V529.8Z" class="g3_2" />
<path d="M1250.8,529.8v0v-.6l.1,-.2v-.3l.2,-.1v-.2l.2,-.2l.1,-.1v-.2l.2,-.1h.1v-.2h.2l.1,-.1l.2,-.2h.1l.2,-.1h.3l.1,-.2h32l.1,.2h.3l.2,.1h.3v.2l.1,.1h.2l.1,.2l.2,.1l.1,.2v.1h.2v.2l.1,.2v.3l.2,.1v.3l.2,.2v15.2h-.2v.4l-.2,.1v.3l-.1,.2h-.2v.1l-.1,.2v.1h-.2l-.1,.2h-.2v.1h-.1l-.2,.2h-.1v.1h-.6l-.2,.2h-31.8l-.1,-.2h-.5l-.1,-.1l-.2,-.2h-.1l-.2,-.1v-.2h-.1l-.2,-.1l-.1,-.2v-.1l-.2,-.2v-.1h-.2v-.3l-.1,-.2V529.8Zm0,-2.8v0Zm36.4,19.9v0Z" class="g5_2" />
<path fill-rule="evenodd" d="M1250.8,526.7V526h.1v-.3l.2,-.2v-.2l.2,-.1V525h.1v-.1l.2,-.2h.1v-.1l.2,-.2h.1l.2,-.1l.1,-.2h.5l.1,-.1h32l.1,.1h.5l.1,.2h.2v.1h.1l.2,.2l.1,.1l.2,.2l.1,.1l.2,.2v.1l.1,.2v.2l.2,.3v.3l.2,.1v15.1l-.2,.2v.3l-.2,.2v.3h-.1l-.2,.1v.2l-.1,.1v.2h-.2l-.1,.1h-.2v.2h-.1l-.2,.1h-.1l-.3,.2h-.3l-.2,.1h-31.8l-.1,-.1h-.3l-.2,-.2h-.1l-.2,-.1l-.1,-.2h-.2v-.1h-.1l-.2,-.2v-.1h-.1v-.2l-.2,-.1v-.2l-.2,-.1v-.4h-.1V526.7Z" class="g6_2" />
<path d="M1250.8,526.7v0V526h.1v-.3l.2,-.2v-.2l.2,-.1V525h.1v-.1l.2,-.2h.1v-.1l.2,-.2h.1l.2,-.1l.1,-.2h.5l.1,-.1h32l.1,.1h.5l.1,.2h.2v.1h.1l.2,.2l.1,.1l.2,.2l.1,.1l.2,.2v.1l.1,.2v.2l.2,.3v.3l.2,.1v15.1l-.2,.2v.3l-.2,.2v.3h-.1l-.2,.1v.2l-.1,.1v.2h-.2l-.1,.1h-.2v.2h-.1l-.2,.1h-.1l-.3,.2h-.3l-.2,.1h-31.8l-.1,-.1h-.3l-.2,-.2h-.1l-.2,-.1l-.1,-.2h-.2v-.1h-.1l-.2,-.2v-.1h-.1v-.2l-.2,-.1v-.2l-.2,-.1v-.4h-.1V526.7Zm0,-2.7v0Zm36.4,19.8v0Z" class="g7_2" />
<path d="M1254.5,541.2l5.3,-14.5m-2.3,13.9l5.4,-13.7m-2.3,14.3l5.3,-14.5" class="g8_2" />
<path d="M1234.3,481.7v-4.8l.1,-.4v-.7l.2,-.6l.2,-.4l.1,-.6l.2,-.5l.1,-.5l.3,-.6l.3,-.4l.3,-.5m4.6,-4l.5,-.1l.4,-.2l.6,-.1l.5,-.2l.6,-.1h.5l.6,-.2h2.3m6.2,0h6.1m6.2,0h6.1m6.2,0h6.1m6.2,0h6.1m6.2,0h6.1m6.1,0h6.2m6.2,0h6.1m6.1,0h6.2m6.2,0h6.1m6.1,0h6.2m6.2,.2h.6l.6,.1l.5,.2l.6,.1l.5,.2l.6,.1l.4,.4l.5,.3l.5,.3l.4,.3l.5,.1m3.3,5.1v0l.3,.6v.4l.2,.6l.1,.7v3.8m0,6.1v6.1m0,6.3v6.1m0,6.1v6.1m0,6.3v6.1m0,6.1v6.1m0,6.3v3l-.1,.6l-.2,.5v.6l-.3,.5l-.1,.6v.1m-3.8,4.8l-.3,.1l-.5,.3l-.5,.3l-.4,.2l-.5,.1l-.6,.3l-.5,.2l-.6,.1h-.6l-.4,.2h-.9m-6.2,0h-6.1m-6.1,0h-6.2m-6.2,0h-6.1m-6.1,0H1326m-6.2,0h-6.1m-6.1,.1h-6.2m-6.2,0h-6.1m-6.1,0h-6.2m-6.1,0h-6.2m-6.1,0h-6.2m-6.1,0H1245v-.1h-1.2l-.5,-.2h-.6l-.5,-.1l-.6,-.2l-.4,-.1l-.5,-.3l-.6,-.2m-4.3,-4.3l-.3,-.3l-.3,-.6l-.1,-.4l-.2,-.6l-.1,-.5l-.2,-.5l-.2,-.6v-.4l-.1,-.6v-1.3m0,-6.1V537m0,-6.2v-6.1m0,-6.1v-6.2m0,-6.2v-6.1m0,-6.1v-6.2" class="g9_2" />
<path fill-rule="evenodd" d="M928.6,394.7v10.7H916.5v50.7h30.1V443.8h6v12.3h5.9V443.8h6v12.3h30.4V405.4H982.5V394.7H928.6Zm5.9,5.5h6.2v5.2h-6.2v-5.2Zm12.1,0h6v5.2h-6v-5.2Zm11.9,0h6v5.2h-6v-5.2Zm12.1,0h6v5.2h-6v-5.2Zm-48,11h6v5.1h-6v-5.1Zm11.9,0h6.2v5.1h-6.2v-5.1Zm12.1,0h6v5.1h-6v-5.1Zm11.9,0h6v5.1h-6v-5.1Zm12.1,0h6v5.1h-6v-5.1Zm11.9,0h6v5.1h-6v-5.1Zm-59.9,10.9h6v5.2h-6v-5.2Zm11.9,0h6.2v5.2h-6.2v-5.2Zm36.1,0h6v5.2h-6v-5.2Zm11.9,0h6v5.2h-6v-5.2Zm-26.9,.3c4.2,0,7.5,3.3,7.5,7.5c0,4.1,-3.3,7.4,-7.5,7.4c-4.1,0,-7.5,-3.3,-7.5,-7.4c0,-4.2,3.4,-7.5,7.5,-7.5Zm-1.7,2.7V428H951v3.5h2.9v2.9h3.6v-2.9h2.9V428h-2.9v-2.9h-3.6Zm-31.3,7.8h6v5.2h-6v-5.2Zm11.9,0h6.2v5.2h-6.2v-5.2Zm36.1,0h6v5.2h-6v-5.2Zm11.9,0h6v5.2h-6v-5.2Zm-59.9,10.9h6V449h-6v-5.2Zm11.9,0h6.2V449h-6.2v-5.2Zm36.1,0h6V449h-6v-5.2Zm11.9,0h6V449h-6v-5.2Z" class="g1_2" />
<path fill-rule="evenodd" d="M928.6,394.7v10.7H916.5v50.7h30.1V443.8h6v12.3h5.9V443.8h6v12.3h30.4V405.4H982.5V394.7H928.6Zm5.9,5.5h6.2v5.2h-6.2v-5.2Zm12.1,0h6v5.2h-6v-5.2Zm11.9,0h6v5.2h-6v-5.2Zm12.1,0h6v5.2h-6v-5.2Zm-48,11h6v5.1h-6v-5.1Zm11.9,0h6.2v5.1h-6.2v-5.1Zm12.1,0h6v5.1h-6v-5.1Zm11.9,0h6v5.1h-6v-5.1Zm12.1,0h6v5.1h-6v-5.1Zm11.9,0h6v5.1h-6v-5.1Zm-59.9,10.9h6v5.2h-6v-5.2Zm11.9,0h6.2v5.2h-6.2v-5.2Zm36.1,0h6v5.2h-6v-5.2Zm11.9,0h6v5.2h-6v-5.2Zm-26.9,.3c4.2,0,7.5,3.3,7.5,7.5c0,4.1,-3.3,7.4,-7.5,7.4c-4.1,0,-7.5,-3.3,-7.5,-7.4c0,-4.2,3.4,-7.5,7.5,-7.5Zm-1.7,2.7V428H951v3.5h2.9v2.9h3.6v-2.9h2.9V428h-2.9v-2.9h-3.6Zm-31.3,7.8h6v5.2h-6v-5.2Zm11.9,0h6.2v5.2h-6.2v-5.2Zm36.1,0h6v5.2h-6v-5.2Zm11.9,0h6v5.2h-6v-5.2Zm-59.9,10.9h6V449h-6v-5.2Zm11.9,0h6.2V449h-6.2v-5.2Zm36.1,0h6V449h-6v-5.2Zm11.9,0h6V449h-6v-5.2Z" class="g2_2" />
<path fill-rule="evenodd" d="M966.9,478.6c-4.6,0,-9.1,.5,-12.8,1.5c-7,2.2,-7,5.7,0,7.8c7.2,2.2,18.6,2.2,25.7,0c7.1,-2.1,7.1,-5.6,0,-7.8c-3.5,-1,-8.1,-1.5,-12.9,-1.5Zm-18.1,7.9v34.3c0,3,8.2,5.8,18.1,5.8c10.1,0,18.2,-2.8,18.2,-5.8V486.5c-2.4,2.3,-9.8,4,-18.2,4c-8.4,0,-15.6,-1.7,-18.1,-4Z" class="g3_2" />
<path fill-rule="evenodd" d="M966.9,475.5c-4.6,0,-9.1,.5,-12.8,1.6c-7,2.1,-7,5.6,0,7.8c7.2,2.1,18.6,2.1,25.7,0c7.1,-2.2,7.1,-5.7,0,-7.8c-3.5,-1.1,-8.1,-1.6,-12.9,-1.6Zm-18.1,8v34.2c0,3.1,8.2,5.8,18.1,5.8c10.1,0,18.2,-2.7,18.2,-5.8V483.5c-2.4,2.3,-9.8,4,-18.2,4c-8.4,0,-15.6,-1.7,-18.1,-4Z" class="g2_2" />
<path fill-rule="evenodd" d="M981.9,489.9c-4.7,0,-9.3,.6,-12.8,1.7c-7.2,2.1,-7.2,5.6,0,7.6c7,2.3,18.5,2.3,25.6,0c7.1,-2,7.1,-5.5,0,-7.6c-3.5,-1.1,-8.2,-1.7,-12.8,-1.7Zm-18.2,7.9v34.4c0,2.9,8.1,5.8,18.2,5.8c9.9,0,18.2,-2.9,18.2,-5.8V497.8c-2.6,2.3,-9.8,4,-18.2,4c-8.4,0,-15.6,-1.7,-18.2,-4Z" class="g3_2" />
<path fill-rule="evenodd" d="M981.9,486.8c-4.7,0,-9.3,.7,-12.8,1.7c-7.2,2.2,-7.2,5.5,0,7.7c7,2.3,18.5,2.3,25.6,0c7.1,-2.2,7.1,-5.5,0,-7.7c-3.5,-1,-8.2,-1.7,-12.8,-1.7Zm-18.2,8v34.4c0,2.9,8.1,5.8,18.2,5.8c9.9,0,18.2,-2.9,18.2,-5.8V494.8c-2.6,2.3,-9.8,4,-18.2,4c-8.4,0,-15.6,-1.7,-18.2,-4Z" class="g2_2" />
<image preserveAspectRatio="none" x="972" y="500" width="12" height="31" xlink:href="2/img/2.png" />
<path fill-rule="evenodd" d="M998.3,504.1c-4.8,0,-9.4,.6,-12.9,1.7c-7.2,2.1,-7.2,5.6,0,7.6c7,2.3,18.5,2.3,25.7,0c7,-2,7,-5.5,0,-7.6c-3.5,-1.1,-8.3,-1.7,-12.8,-1.7Zm-18.2,8v34.3c0,2.9,8.1,5.8,18.2,5.8c9.9,0,18.1,-2.9,18.1,-5.8V512.1c-2.6,2.2,-9.7,3.9,-18.1,3.9c-8.5,0,-15.6,-1.7,-18.2,-3.9Z" class="g3_2" />
<path fill-rule="evenodd" d="M998.3,501.1c-4.8,0,-9.4,.6,-12.9,1.6c-7.2,2,-7.2,5.5,0,7.7c7,2.3,18.5,2.3,25.7,0c7,-2.2,7,-5.7,0,-7.7c-3.5,-1,-8.3,-1.6,-12.8,-1.6ZM980.1,509v34.2c0,3.1,8.1,5.8,18.2,5.8c9.9,0,18.1,-2.7,18.1,-5.8V509c-2.6,2.3,-9.7,4,-18.1,4c-8.5,0,-15.6,-1.7,-18.2,-4Z" class="g2_2" />
<path fill-rule="evenodd" d="M993.2,519.7c0,1.8,1.2,3.7,3.1,4.6c-1.9,1,-3.1,2.7,-3.1,4.6c0,1.9,1.2,3.6,3.1,4.7c-1.9,.9,-3.1,2.7,-3.1,4.6c0,1.8,1.2,3.5,3.2,4.6c-2,1,-3.2,2.7,-3.2,4.5h1.4c0,-.3,0,-.6,.1,-.9h7.1c0,.3,.1,.6,.1,.9h1.4c0,-1.8,-1.2,-3.5,-3.2,-4.5c2,-1.1,3.2,-2.8,3.2,-4.6c0,-1.9,-1.2,-3.7,-3.2,-4.6c2,-1.1,3.2,-2.8,3.2,-4.7c0,-1.9,-1.2,-3.6,-3.2,-4.6c2,-.9,3.2,-2.8,3.2,-4.6h-1.4c0,.3,-.1,.8,-.1,1.1h-7.1c-.1,-.3,-.1,-.8,-.1,-1.1h-1.4Zm2,1.8h6.1c-.6,.9,-1.7,1.7,-3,2.2c-1.4,-.5,-2.5,-1.3,-3.1,-2.2Zm3.1,3.5c1.3,.5,2.4,1.3,3,2h-6.1c.6,-.7,1.7,-1.5,3.1,-2Zm-3.6,2.9h7.1c0,.3,.1,.7,.1,1c0,.4,-.1,.7,-.1,1h-7.1c-.1,-.3,-.1,-.6,-.1,-1c0,-.3,0,-.7,.1,-1Zm.5,2.8h6.1c-.6,.9,-1.7,1.7,-3,2.1c-1.4,-.4,-2.5,-1.2,-3.1,-2.1Zm3.1,3.7c1.3,.3,2.4,1,3,1.9h-6.1c.6,-.9,1.7,-1.6,3.1,-1.9Zm-3.6,2.7h7.1c0,.5,.1,.6,.1,1.1c0,.3,-.1,.6,-.1,.9h-7.1c-.1,-.3,-.1,-.6,-.1,-.9c0,-.5,0,-.6,.1,-1.1Zm.5,2.8h6.1c-.6,1,-1.7,1.6,-3,2.1c-1.4,-.5,-2.5,-1.1,-3.1,-2.1Zm3.1,3.6c1.3,.3,2.4,1.1,3,2h-6.1c.6,-.9,1.7,-1.7,3.1,-2Z" class="g3_2" />
<path fill-rule="evenodd" d="M993.2,516.6c0,1.9,1.2,3.6,3.1,4.6c-1.9,1.1,-3.1,2.8,-3.1,4.6c0,1.8,1.2,3.7,3.1,4.7c-1.9,1,-3.1,2.6,-3.1,4.6c0,1.9,1.2,3.5,3.2,4.6c-2,1.1,-3.2,2.8,-3.2,4.6h1.4c0,-.3,0,-.8,.1,-1.1h7.1c0,.3,.1,.8,.1,1.1h1.4c0,-1.8,-1.2,-3.5,-3.2,-4.6c2,-1.1,3.2,-2.7,3.2,-4.6c0,-2,-1.2,-3.6,-3.2,-4.6c2,-1,3.2,-2.9,3.2,-4.7c0,-1.8,-1.2,-3.5,-3.2,-4.6c2,-1,3.2,-2.7,3.2,-4.6h-1.4c0,.3,-.1,.6,-.1,1h-7.1c-.1,-.4,-.1,-.7,-.1,-1h-1.4Zm2,1.9h6.1c-.6,.9,-1.7,1.7,-3,2c-1.4,-.3,-2.5,-1.1,-3.1,-2Zm3.1,3.5c1.3,.4,2.4,1.1,3,2h-6.1c.6,-.9,1.7,-1.6,3.1,-2Zm-3.6,2.9h7.1c0,.3,.1,.6,.1,.9c0,.5,-.1,.8,-.1,.9h-7.1c-.1,-.1,-.1,-.4,-.1,-.9c0,-.3,0,-.6,.1,-.9Zm.5,2.7h6.1c-.6,1,-1.7,1.7,-3,2.2c-1.4,-.5,-2.5,-1.2,-3.1,-2.2Zm3.1,3.6c1.3,.4,2.4,1.2,3,2.1h-6.1c.6,-.9,1.7,-1.7,3.1,-2.1Zm-3.6,2.9h7.1c0,.3,.1,.6,.1,1c0,.3,-.1,.6,-.1,.9h-7.1c-.1,-.3,-.1,-.6,-.1,-.9c0,-.4,0,-.7,.1,-1Zm.5,2.7h6.1c-.6,.9,-1.7,1.7,-3,2.1c-1.4,-.4,-2.5,-1.2,-3.1,-2.1Zm3.1,3.7c1.3,.3,2.4,1,3,2h-6.1c.6,-1,1.7,-1.7,3.1,-2Z" class="g4_2" />
<path fill-rule="evenodd" d="M896.2,486.5v-.3l.1,-.1v-.6h.2v-.2l.2,-.1V485l.1,-.1l.2,-.2v-.1h.1l.2,-.2l.1,-.2h.2v-.1h.1l.2,-.2h.4v-.1h32.1l.2,.1h.4v.2h.2l.1,.1h.2l.1,.2v.2h.2l.1,.1v.2h.2v.1l.2,.2v.1l.1,.2v.1l.2,.2V494l-.2,.2v.1l-.1,.2v.1l-.2,.2l-.2,.1v.2l-.1,.1h-.2v.2h-.1l-.2,.2l-.1,.1H931l-.1,.2h-.6v.1h-32v-.1h-.4l-.2,-.2h-.1v-.1h-.2l-.1,-.2l-.2,-.2H897v-.1l-.2,-.2l-.1,-.1v-.2l-.2,-.1v-.2h-.2v-.6l-.1,-.1v-7.1Z" class="g3_2" />
<path d="M896.2,486.5v0v-.3l.1,-.1v-.6h.2v-.2l.2,-.1V485l.1,-.1l.2,-.2v-.1h.1l.2,-.2l.1,-.2h.2v-.1h.1l.2,-.2h.4v-.1h32.1l.2,.1h.4v.2h.2l.1,.1h.2l.1,.2v.2h.2l.1,.1v.2h.2v.1l.2,.2v.1l.1,.2v.1l.2,.2V494l-.2,.2v.1l-.1,.2v.1l-.2,.2l-.2,.1v.2l-.1,.1h-.2v.2h-.1l-.2,.2l-.1,.1H931l-.1,.2h-.6v.1h-32v-.1h-.4l-.2,-.2h-.1v-.1h-.2l-.1,-.2l-.2,-.2H897v-.1l-.2,-.2l-.1,-.1v-.2l-.2,-.1v-.2h-.2v-.6l-.1,-.1v-7.1Zm0,-2.7v0ZM932.6,496v0Z" class="g5_2" />
<path fill-rule="evenodd" d="M896.2,483.5v-.3l.1,-.2v-.6l.2,-.1l.2,-.2V482l.1,-.2v-.1h.2v-.2l.1,-.2h.2l.1,-.1h.2V481h.1l.2,-.1h.3l.1,-.2h32.3l.1,.2h.3v.1h.2l.1,.2h.2l.1,.1l.2,.2l.1,.2l.2,.1v.2l.2,.1v.2h.1v.3l.2,.1V491l-.2,.1v.2l-.1,.1v.2l-.2,.1l-.2,.2v.1h-.1l-.2,.2v.1h-.1l-.2,.2l-.1,.2h-.3l-.2,.1h-.4v.2h-32v-.2H898l-.1,-.1h-.3v-.2l-.2,-.2h-.1l-.2,-.1H897V492l-.2,-.1v-.2h-.1v-.1l-.2,-.2v-.1l-.2,-.2v-.4l-.1,-.2v-7Z" class="g6_2" />
<path d="M896.2,483.5v0v-.3l.1,-.2v-.6l.2,-.1l.2,-.2V482l.1,-.2v-.1h.2v-.2l.1,-.2h.2l.1,-.1h.2V481h.1l.2,-.1h.3l.1,-.2h32.3l.1,.2h.3v.1h.2l.1,.2h.2l.1,.1l.2,.2l.1,.2l.2,.1v.2l.2,.1v.2h.1v.3l.2,.1V491l-.2,.1v.2l-.1,.1v.2l-.2,.1l-.2,.2v.1h-.1l-.2,.2v.1h-.1l-.2,.2l-.1,.2h-.3l-.2,.1h-.4v.2h-32v-.2H898l-.1,-.1h-.3v-.2l-.2,-.2h-.1l-.2,-.1H897V492l-.2,-.1v-.2h-.1v-.1l-.2,-.2v-.1l-.2,-.2v-.4l-.1,-.2v-7Zm0,-2.8v0ZM932.6,493v0Z" class="g7_2" />
<path fill-rule="evenodd" d="M928.1,483.9v-.6h.2v-.1h.1V483h.3v-.1h.8v.1h.3v.2h.2v.3h.1v.7H930v.4h-.2v.1h-.1v.2h-.4l-.1,.1H929v-.1h-.4v-.2h-.2v-.1h-.1v-.2h-.2v-.5Z" class="g0_2" />
<path fill-rule="evenodd" d="M925.5,483.9v-.6h.2v-.1h.1V483h.3v-.1h.8v.1h.3v.2h.2v.3h.1v.7h-.1v.4h-.2v.1h-.1v.2h-.4l-.1,.1h-.2v-.1H926v-.2h-.2v-.1h-.1v-.2h-.2v-.5Z" class="g4_2" />
<path fill-rule="evenodd" d="M896.5,500v-.6l.2,-.2v-.3l.1,-.1v-.2l.2,-.1l.1,-.2l.2,-.1V498h.1l.2,-.2l.1,-.1l.2,-.2h.1l.2,-.1h.3l.1,-.2h32.1l.2,.2h.1l.2,.1h.3l.1,.2v.1h.2l.1,.2h.2v.2l.2,.1v.2h.1l.2,.1v.3l.1,.2v.1l.2,.2v8.1h-.2v.3l-.1,.1v.2l-.2,.1l-.1,.2v.1l-.2,.2h-.2v.1h-.1l-.2,.2l-.1,.2h-.2l-.1,.1h-.3l-.2,.2H898.5l-.2,-.2H898v-.1h-.1l-.2,-.2h-.1v-.2h-.2l-.1,-.1v-.2h-.2l-.1,-.1v-.2l-.2,-.1v-.2h-.1v-.4l-.2,-.2V500Z" class="g3_2" />
<path d="M896.5,500v0v-.6l.2,-.2v-.3l.1,-.1v-.2l.2,-.1l.1,-.2l.2,-.1V498h.1l.2,-.2l.1,-.1l.2,-.2h.1l.2,-.1h.3l.1,-.2h32.1l.2,.2h.1l.2,.1h.3l.1,.2v.1h.2l.1,.2h.2v.2l.2,.1v.2h.1l.2,.1v.3l.1,.2v.1l.2,.2v8.1h-.2v.3l-.1,.1v.2l-.2,.1l-.1,.2v.1l-.2,.2h-.2v.1h-.1l-.2,.2l-.1,.2h-.2l-.1,.1h-.3l-.2,.2H898.5l-.2,-.2H898v-.1h-.1l-.2,-.2h-.1v-.2h-.2l-.1,-.1v-.2h-.2l-.1,-.1v-.2l-.2,-.1v-.2h-.1v-.4l-.2,-.2V500Zm0,-2.8v0Zm36.4,12.3v0Z" class="g5_2" />
<path fill-rule="evenodd" d="M896.5,496.9v-.6l.2,-.1v-.3l.1,-.2v-.1l.2,-.2v-.2h.1l.2,-.1v-.2h.1l.2,-.1v-.2h.1l.2,-.1h.1v-.2h.5l.1,-.1h32.1l.2,.1h.3l.1,.2h.2l.1,.1l.2,.2l.1,.1h.2v.2l.2,.1l.1,.2l.2,.2v.3h.1v.3l.2,.1v8l-.2,.1v.3l-.1,.2v.1h-.2v.2l-.1,.1v.2l-.2,.1h-.2v.2h-.1l-.2,.1h-.1l-.2,.2l-.1,.1h-.6l-.2,.2H898.6l-.1,-.2H898v-.1h-.1l-.2,-.2h-.1v-.1l-.2,-.2h-.1v-.1l-.2,-.2H897v-.1l-.2,-.2v-.1l-.1,-.2v-.3l-.2,-.1v-7.4Z" class="g6_2" />
<path d="M896.5,496.9v0v-.6l.2,-.1v-.3l.1,-.2v-.1l.2,-.2v-.2h.1l.2,-.1v-.2h.1l.2,-.1v-.2h.1l.2,-.1h.1v-.2h.5l.1,-.1h32.1l.2,.1h.3l.1,.2h.2l.1,.1l.2,.2l.1,.1h.2v.2l.2,.1l.1,.2l.2,.2v.3h.1v.3l.2,.1v8l-.2,.1v.3l-.1,.2v.1h-.2v.2l-.1,.1v.2l-.2,.1h-.2v.2h-.1l-.2,.1h-.1l-.2,.2l-.1,.1h-.6l-.2,.2H898.6l-.1,-.2H898v-.1h-.1l-.2,-.2h-.1v-.1l-.2,-.2h-.1v-.1l-.2,-.2H897v-.1l-.2,-.2v-.1l-.1,-.2v-.3l-.2,-.1v-7.4Zm0,-2.7v0Zm36.4,12.2v0Z" class="g7_2" />
<path fill-rule="evenodd" d="M928.3,497.4v-.3l.1,-.2v-.1h.2v-.2h.1v-.1h.3l.2,-.2h.3v.2h.5v.1h.1v.2h.2v.4h.1v.2h-.1v.4l-.2,.2v.2H930v.1h-.3v.2h-.5l-.2,-.2h-.3v-.1h-.1V498h-.2v-.3h-.1v-.3Z" class="g0_2" />
<path fill-rule="evenodd" d="M925.7,497.4v-.3l.1,-.2v-.1h.2v-.2h.1v-.1h.3l.2,-.2h.3v.2h.5v.1h.1v.2h.2v.4h.1v.2h-.1v.4l-.2,.2v.2h-.1v.1h-.3v.2h-.5l-.2,-.2h-.3v-.1H926V498h-.2v-.3h-.1v-.3Z" class="g4_2" />
<path fill-rule="evenodd" d="M896.5,513.4V513l.2,-.2v-.4l.1,-.2v-.1h.2v-.2l.1,-.2l.2,-.1v-.2h.1l.2,-.1l.1,-.2h.2l.1,-.1l.2,-.2h.6l.1,-.1h31.5l.2,.1h.4l.2,.2h.1l.2,.1h.1v.2h.2l.1,.1h.2v.2l.2,.1v.2l.1,.2h.2v.3l.1,.1v.3l.2,.2v7.9l-.2,.2v.1l-.1,.2v.1l-.2,.2v.1h-.1v.2l-.2,.1h-.2v.2l-.1,.1h-.2l-.1,.2h-.2v.1h-.4l-.2,.2H898.5l-.2,-.2H898v-.1h-.1l-.2,-.2h-.1v-.1h-.2l-.1,-.2V522h-.2l-.1,-.2v-.1l-.2,-.2l-.1,-.1v-.5l-.2,-.1v-7.4Z" class="g3_2" />
<path d="M896.5,513.4v0V513l.2,-.2v-.4l.1,-.2v-.1h.2v-.2l.1,-.2l.2,-.1v-.2h.1l.2,-.1l.1,-.2h.2l.1,-.1l.2,-.2h.6l.1,-.1h31.5l.2,.1h.4l.2,.2h.1l.2,.1h.1v.2h.2l.1,.1h.2v.2l.2,.1v.2l.1,.2h.2v.3l.1,.1v.3l.2,.2v7.9l-.2,.2v.1l-.1,.2v.1l-.2,.2v.1h-.1v.2l-.2,.1h-.2v.2l-.1,.1h-.2l-.1,.2h-.2v.1h-.4l-.2,.2H898.5l-.2,-.2H898v-.1h-.1l-.2,-.2h-.1v-.1h-.2l-.1,-.2V522h-.2l-.1,-.2v-.1l-.2,-.2l-.1,-.1v-.5l-.2,-.1v-7.4Zm0,-2.7v0Zm36.4,12.2v0Z" class="g5_2" />
<path fill-rule="evenodd" d="M896.5,510.4v-.6h.2v-.5l.1,-.1V509l.2,-.2l.1,-.1l.2,-.2v-.1h.1l.2,-.2l.1,-.1l.2,-.2h.1l.2,-.1h.3l.1,-.2h32.1l.2,.2h.1l.2,.1h.3l.1,.2v.1h.2l.1,.2h.2v.1l.2,.2v.1h.1l.2,.2v.3l.1,.2v.3h.2v8.1h-.2v.3l-.1,.1v.2l-.2,.1l-.1,.2v.1l-.2,.2h-.2v.1h-.1l-.2,.2l-.1,.1h-.2l-.1,.2h-.3l-.2,.1H898.5l-.2,-.1H898v-.2h-.1l-.2,-.1h-.1v-.2h-.2l-.1,-.1v-.2h-.2l-.1,-.1v-.2l-.2,-.1l-.1,-.2v-.4l-.2,-.2v-7.3Z" class="g6_2" />
<path d="M896.5,510.4v0v-.6h.2v-.5l.1,-.1V509l.2,-.2l.1,-.1l.2,-.2v-.1h.1l.2,-.2l.1,-.1l.2,-.2h.1l.2,-.1h.3l.1,-.2h32.1l.2,.2h.1l.2,.1h.3l.1,.2v.1h.2l.1,.2h.2v.1l.2,.2v.1h.1l.2,.2v.3l.1,.2v.3h.2v8.1h-.2v.3l-.1,.1v.2l-.2,.1l-.1,.2v.1l-.2,.2h-.2v.1h-.1l-.2,.2l-.1,.1h-.2l-.1,.2h-.3l-.2,.1H898.5l-.2,-.1H898v-.2h-.1l-.2,-.1h-.1v-.2h-.2l-.1,-.1v-.2h-.2l-.1,-.1v-.2l-.2,-.1l-.1,-.2v-.4l-.2,-.2v-7.3Zm0,-2.8v0Zm36.4,12.2v0Z" class="g7_2" />
<path fill-rule="evenodd" d="M928.3,510.8v-.3h.1v-.3h.2v-.1h.3v-.2h.9v.2h.2l.1,.1h.2v.5h.1v.1h-.1v.6h-.2v.2H930v.1h-.2l-.1,.2H929l-.1,-.2h-.2v-.1h-.1v-.2h-.2v-.1l-.1,-.2v-.3Z" class="g0_2" />
<path fill-rule="evenodd" d="M925.7,510.8v-.3h.1v-.3h.2v-.1h.3v-.2h.9v.2h.2l.1,.1h.2v.5h.1v.1h-.1v.6h-.2v.2h-.1v.1h-.2l-.1,.2h-.7l-.1,-.2h-.2v-.1H926v-.2h-.2v-.1l-.1,-.2v-.3Z" class="g4_2" />
<path fill-rule="evenodd" d="M896.5,527v-.6l.2,-.1v-.5l.1,-.1l.2,-.2v-.2l.1,-.1h.2V525l.1,-.1h.2v-.2h.1l.2,-.1h.1v-.2h.3l.2,-.1h32.4v.1h.3l.1,.2h.2l.1,.1l.2,.2h.1l.2,.1v.2h.2v.1l.1,.2l.2,.2v.1l.1,.2v.3l.2,.1V542l-.2,.2v.3l-.1,.1l-.2,.2v.1l-.1,.2l-.2,.1l-.2,.2l-.1,.1h-.2l-.1,.2h-.2v.1H931l-.1,.2h-.8l-30.9,.1h-.3l-.1,-.1h-.5l-.1,-.2H898l-.1,-.1h-.2l-.1,-.2l-.2,-.1l-.1,-.2l-.2,-.1l-.1,-.2v-.1h-.2v-.2l-.1,-.1V542l-.2,-.2V527Z" class="g3_2" />
<path d="M896.5,527v0v-.6l.2,-.1v-.5l.1,-.1l.2,-.2v-.2l.1,-.1h.2V525l.1,-.1h.2v-.2h.1l.2,-.1h.1v-.2h.3l.2,-.1h32.4v.1h.3l.1,.2h.2l.1,.1l.2,.2h.1l.2,.1v.2h.2v.1l.1,.2l.2,.2v.1l.1,.2v.3l.2,.1V542l-.2,.2v.3l-.1,.1l-.2,.2v.1l-.1,.2l-.2,.1l-.2,.2l-.1,.1h-.2l-.1,.2h-.2v.1H931l-.1,.2h-.8l-30.9,.1h-.3l-.1,-.1h-.5l-.1,-.2H898l-.1,-.1h-.2l-.1,-.2l-.2,-.1l-.1,-.2l-.2,-.1l-.1,-.2v-.1h-.2v-.2l-.1,-.1V542l-.2,-.2V527Zm0,-2.7v0Zm36.4,19.8v0Z" class="g5_2" />
<path fill-rule="evenodd" d="M896.5,524v-.6l.2,-.2v-.5l.1,-.1v-.2h.2v-.1l.1,-.2h.2V522l.1,-.2h.2v-.1l.1,-.2h.3v-.1h.2l.1,-.2h32.6l.1,.2h.2l.1,.1h.3v.2l.2,.1h.1l.2,.2v.1h.2v.2l.1,.1l.2,.2v.1l.1,.2v.3l.2,.2v15.5l-.2,.2v.3l-.1,.2l-.2,.1v.2l-.1,.1l-.2,.2l-.2,.1l-.1,.2h-.2l-.1,.1h-.2v.2H931l-.1,.1H898.3l-.1,-.1H898v-.2h-.3l-.1,-.1l-.2,-.2l-.1,-.1l-.2,-.2l-.1,-.1v-.2h-.2v-.1l-.1,-.2v-.5l-.2,-.1V524Z" class="g6_2" />
<path d="M896.5,524v0v-.6l.2,-.2v-.5l.1,-.1v-.2h.2v-.1l.1,-.2h.2V522l.1,-.2h.2v-.1l.1,-.2h.3v-.1h.2l.1,-.2h32.6l.1,.2h.2l.1,.1h.3v.2l.2,.1h.1l.2,.2v.1h.2v.2l.1,.1l.2,.2v.1l.1,.2v.3l.2,.2v15.5l-.2,.2v.3l-.1,.2l-.2,.1v.2l-.1,.1l-.2,.2l-.2,.1l-.1,.2h-.2l-.1,.1h-.2v.2H931l-.1,.1H898.3l-.1,-.1H898v-.2h-.3l-.1,-.1l-.2,-.2l-.1,-.1l-.2,-.2l-.1,-.1v-.2h-.2v-.1l-.1,-.2v-.5l-.2,-.1V524Zm0,-2.8v0Zm36.4,19.7v0Z" class="g7_2" />
<path d="M900.2,538.3l5.3,-14.5m-2.1,14.1L908.6,524m-2.2,14.3l5.2,-14.5" class="g8_2" />
<path d="M880.2,478.9v-5.8l.1,-.6l.2,-.5l.1,-.6l.2,-.4l.3,-.7l.1,-.4l.3,-.5l.3,-.4m4.6,-4l.5,-.2l.4,-.3l.6,-.1l.7,-.2h.4l.6,-.1h2.9m6.1,0h6.2m6.1,0h6.2m6.1,0h6.1m6.2,0h6.2m6.1,0h6.1m6.2,0h6.2m6.1,0h6.1m6.2,0h6.2m6.1,0h6.1m6.1,0h6.3m6.1,0h.2l.4,.1h.6l.7,.2l.4,.1l.6,.3l.5,.2l.4,.3l.7,.2l.3,.3l.6,.3l.3,.3m3.3,4.9l.2,.1l.1,.6l.2,.5v.6l.2,.5v3.8m0,6.2v6.1m0,6.2V502m0,6.2v6.1m0,6.2v6.1m0,6.2v6.1m0,6.2v3.2l-.2,.4v.6l-.2,.5l-.1,.6l-.2,.5l-.1,.3m-3.8,4.5l-.2,.4l-.4,.3l-.7,.1l-.4,.3l-.5,.2l-.6,.1l-.4,.2l-.7,.1l-.4,.2l-.6,.1h-.8m-6.2,0h-6.2m-6.1,0h-6.1m-6.2,0H984m-6.1,0h-6.1m-6.2,0h-6.2m-6.1,0h-6.1m-6.2,0h-6.2m-6.1,0h-6.1m-6.2,0h-6.2m-6.1,0H898m-6.2,0h-2.2l-.6,-.1l-.4,-.2h-.7l-.6,-.3l-.4,-.1l-.5,-.2l-.4,-.3m-4.5,-4.1l-.3,-.5l-.1,-.4l-.3,-.5l-.2,-.6l-.1,-.5l-.2,-.6l-.1,-.6v-2.3m0,-6.1v-6.1m0,-6.1v-6.3m0,-6.1v-6.1m0,-6.1v-6.3m0,-6.1V485" class="g9_2" />
<path fill-rule="evenodd" d="M1107.3,791.3V802h-12v50.7h30.1V840.4h5.9v12.3h6.1V840.4h6v12.3h30.4V802h-12.4V791.3h-54.1Zm6.1,5.5h6V802h-6v-5.2Zm12,0h5.9V802h-5.9v-5.2Zm12,0h6V802h-6v-5.2Zm11.9,0h6V802h-6v-5.2Zm-47.9,11h5.9v5.1h-5.9v-5.1Zm12,0h6v5.1h-6v-5.1Zm12,0h5.9v5.1h-5.9v-5.1Zm12,0h6v5.1h-6v-5.1Zm11.9,0h6v5.1h-6v-5.1Zm12.1,0h6v5.1h-6v-5.1Zm-60,10.9h5.9v5h-5.9v-5Zm12,0h6v5h-6v-5Zm35.9,0h6v5h-6v-5Zm12.1,0h6v5h-6v-5Zm-26.9,.3c4.2,0,7.5,3.3,7.5,7.5c0,4.1,-3.3,7.5,-7.5,7.5c-4.1,0,-7.5,-3.4,-7.5,-7.5c0,-4.2,3.4,-7.5,7.5,-7.5Zm-1.8,2.7v2.9h-2.9v3.6h2.9v2.9h3.5v-2.9h2.9v-3.6h-2.9v-2.9h-3.5Zm-31.3,7.8h5.9v5.2h-5.9v-5.2Zm12,0h6v5.2h-6v-5.2Zm35.9,0h6v5.2h-6v-5.2Zm12.1,0h6v5.2h-6v-5.2Zm-60,10.9h5.9v5.2h-5.9v-5.2Zm12,0h6v5.2h-6v-5.2Zm35.9,0h6v5.2h-6v-5.2Zm12.1,0h6v5.2h-6v-5.2Z" class="g1_2" />
<path fill-rule="evenodd" d="M1107.3,791.3V802h-12v50.7h30.1V840.4h5.9v12.3h6.1V840.4h6v12.3h30.4V802h-12.4V791.3h-54.1Zm6.1,5.5h6V802h-6v-5.2Zm12,0h5.9V802h-5.9v-5.2Zm12,0h6V802h-6v-5.2Zm11.9,0h6V802h-6v-5.2Zm-47.9,11h5.9v5.1h-5.9v-5.1Zm12,0h6v5.1h-6v-5.1Zm12,0h5.9v5.1h-5.9v-5.1Zm12,0h6v5.1h-6v-5.1Zm11.9,0h6v5.1h-6v-5.1Zm12.1,0h6v5.1h-6v-5.1Zm-60,10.9h5.9v5h-5.9v-5Zm12,0h6v5h-6v-5Zm35.9,0h6v5h-6v-5Zm12.1,0h6v5h-6v-5Zm-26.9,.3c4.2,0,7.5,3.3,7.5,7.5c0,4.1,-3.3,7.5,-7.5,7.5c-4.1,0,-7.5,-3.4,-7.5,-7.5c0,-4.2,3.4,-7.5,7.5,-7.5Zm-1.8,2.7v2.9h-2.9v3.6h2.9v2.9h3.5v-2.9h2.9v-3.6h-2.9v-2.9h-3.5Zm-31.3,7.8h5.9v5.2h-5.9v-5.2Zm12,0h6v5.2h-6v-5.2Zm35.9,0h6v5.2h-6v-5.2Zm12.1,0h6v5.2h-6v-5.2Zm-60,10.9h5.9v5.2h-5.9v-5.2Zm12,0h6v5.2h-6v-5.2Zm35.9,0h6v5.2h-6v-5.2Zm12.1,0h6v5.2h-6v-5.2Z" class="g2_2" />
<path fill-rule="evenodd" d="M1145.8,703.5c-4.7,0,-9.3,.4,-12.8,1.7c-7.2,2,-7.2,5.5,0,7.6c7,2.1,18.5,2.1,25.7,0c7,-2.1,7,-5.6,0,-7.6c-3.5,-1.3,-8.3,-1.7,-12.9,-1.7Zm-18.1,7.9v34.3c0,3,8.1,5.8,18.1,5.8c10,0,18.2,-2.8,18.2,-5.8V711.4c-2.6,2.3,-9.8,4,-18.2,4c-8.4,0,-15.6,-1.7,-18.1,-4Z" class="g3_2" />
<path fill-rule="evenodd" d="M1145.8,700.4c-4.7,0,-9.3,.5,-12.8,1.6c-7.2,2.1,-7.2,5.6,0,7.7c7,2.2,18.5,2.2,25.7,0c7,-2.1,7,-5.6,0,-7.7c-3.5,-1.1,-8.3,-1.6,-12.9,-1.6Zm-18.1,8v34.2c0,3.1,8.1,5.8,18.1,5.8c10,0,18.2,-2.7,18.2,-5.8V708.4c-2.6,2.3,-9.8,3.9,-18.2,3.9c-8.4,0,-15.6,-1.6,-18.1,-3.9Z" class="g2_2" />
<path fill-rule="evenodd" d="M1160.7,714.8c-4.6,0,-9.4,.6,-12.9,1.7c-7,2.1,-7,5.6,0,7.8c7.2,2.1,18.7,2.1,25.7,0c7.2,-2.2,7.2,-5.7,0,-7.8c-3.5,-1.1,-8.1,-1.7,-12.8,-1.7Zm-18.2,7.9v34.4c0,3.1,8.2,5.8,18.2,5.8c10,0,18.1,-2.7,18.1,-5.8V722.7c-2.6,2.3,-9.7,4,-18.1,4c-8.4,0,-15.6,-1.7,-18.2,-4Z" class="g3_2" />
<path fill-rule="evenodd" d="M1160.7,711.7c-4.6,0,-9.4,.6,-12.9,1.7c-7,2.2,-7,5.7,0,7.7c7.2,2.2,18.7,2.2,25.7,0c7.2,-2,7.2,-5.5,0,-7.7c-3.5,-1.1,-8.1,-1.7,-12.8,-1.7Zm-18.2,8v34.4c0,2.9,8.2,5.8,18.2,5.8c10,0,18.1,-2.9,18.1,-5.8V719.7c-2.6,2.3,-9.7,4,-18.1,4c-8.4,0,-15.6,-1.7,-18.2,-4Z" class="g2_2" />
<image preserveAspectRatio="none" x="1151" y="725" width="12" height="31" xlink:href="2/img/3.png" />
<path fill-rule="evenodd" d="M1177,729c-4.6,0,-9.3,.6,-12.8,1.7c-7.1,2.1,-7.1,5.6,0,7.8c7.1,2.1,18.6,2.1,25.6,0c7.2,-2.2,7.2,-5.7,0,-7.8c-3.5,-1.1,-8.1,-1.7,-12.8,-1.7Zm-18.2,7.9v34.4c0,2.9,8.3,5.8,18.2,5.8c10.1,0,18.2,-2.9,18.2,-5.8V736.9c-2.6,2.3,-9.8,4,-18.2,4c-8.4,0,-15.6,-1.7,-18.2,-4Z" class="g3_2" />
<path fill-rule="evenodd" d="M1177,725.9c-4.6,0,-9.3,.7,-12.8,1.7c-7.1,2.2,-7.1,5.5,0,7.7c7.1,2.3,18.6,2.3,25.6,0c7.2,-2.2,7.2,-5.5,0,-7.7c-3.5,-1,-8.1,-1.7,-12.8,-1.7Zm-18.2,8v34.4c0,2.9,8.3,5.8,18.2,5.8c10.1,0,18.2,-2.9,18.2,-5.8V733.9c-2.6,2.3,-9.8,4,-18.2,4c-8.4,0,-15.6,-1.7,-18.2,-4Z" class="g2_2" />
<path fill-rule="evenodd" d="M1172,744.6c0,1.8,1.2,3.6,3.2,4.6c-2,1,-3.2,2.7,-3.2,4.5c0,2,1.2,3.7,3.2,4.8c-2,.9,-3.2,2.7,-3.2,4.6c0,1.8,1.2,3.5,3.2,4.6c-2,1,-3.2,2.7,-3.2,4.5h1.3c0,-.3,.2,-.6,.3,-.9h6.9c.2,.3,.2,.6,.2,.9h1.3c0,-1.8,-1.2,-3.5,-3.2,-4.5c2,-1.1,3.2,-2.8,3.2,-4.6c0,-1.9,-1.2,-3.7,-3,-4.6c1.8,-1.1,3,-2.8,3,-4.8c0,-1.8,-1.2,-3.5,-3,-4.5c1.8,-1,3,-2.8,3,-4.6h-1.3c0,.3,0,.7,-.2,1.1h-6.9c-.1,-.4,-.3,-.8,-.3,-1.1H1172Zm1.9,1.8h6.2c-.7,.9,-1.7,1.7,-3.1,2.2c-1.4,-.5,-2.4,-1.3,-3.1,-2.2Zm3.1,3.5c1.4,.5,2.4,1.3,3.1,2.2h-6.2c.7,-.9,1.7,-1.7,3.1,-2.2Zm-3.4,2.9h6.9c.2,.3,.2,.6,.2,.9c0,.5,0,.8,-.2,1.1h-6.9c-.1,-.3,-.3,-.6,-.3,-1.1c0,-.3,.2,-.6,.3,-.9Zm.3,2.8h6.2c-.7,.9,-1.7,1.7,-3.1,2.1c-1.4,-.4,-2.4,-1.2,-3.1,-2.1Zm3.1,3.6c1.4,.4,2.4,1.1,3.1,2h-6.2c.7,-.9,1.7,-1.6,3.1,-2Zm-3.4,2.8h6.9c.2,.5,.2,.8,.2,1.1c0,.3,0,.6,-.2,.9h-7c0,-.3,-.2,-.6,-.2,-.9c0,-.3,.2,-.6,.3,-1.1Zm.3,2.7h6.2c-.7,1.1,-1.7,1.7,-3.1,2.2c-1.4,-.5,-2.4,-1.1,-3.1,-2.2Zm3.1,3.7c1.4,.3,2.4,1.1,3.1,2h-6.2c.7,-.9,1.7,-1.7,3.1,-2Z" class="g3_2" />
<path fill-rule="evenodd" d="M1172,741.5c0,1.9,1.2,3.5,3.2,4.6c-2,1.1,-3.2,2.8,-3.2,4.6c0,1.8,1.2,3.7,3.2,4.7c-2,.9,-3.2,2.6,-3.2,4.6c0,1.8,1.2,3.5,3.2,4.6c-2,1.1,-3.2,2.7,-3.2,4.6h1.3c0,-.3,.2,-.6,.3,-.9h6.9c.2,.3,.2,.6,.2,.9h1.3c0,-1.9,-1.2,-3.5,-3.2,-4.6c2,-1.1,3.2,-2.8,3.2,-4.6c0,-2,-1.2,-3.7,-3,-4.6c1.8,-1,3,-2.9,3,-4.7c0,-1.8,-1.2,-3.5,-3,-4.6c1.8,-1.1,3,-2.7,3,-4.6h-1.3c0,.3,0,.6,-.2,.9h-6.9c-.1,-.3,-.3,-.6,-.3,-.9H1172Zm1.9,1.9h6.2c-.7,.9,-1.7,1.6,-3.1,1.9c-1.4,-.3,-2.4,-1,-3.1,-1.9Zm3.1,3.5c1.4,.4,2.4,1,3.1,2h-6.2c.7,-1,1.7,-1.6,3.1,-2Zm-3.4,2.9h6.9c.2,.3,.2,.6,.2,.9c0,.5,0,.8,-.2,1.1h-6.9c-.1,-.3,-.3,-.6,-.3,-1.1c0,-.3,.2,-.6,.3,-.9Zm.3,2.7h6.2c-.7,.9,-1.7,1.7,-3.1,2.2c-1.4,-.5,-2.4,-1.3,-3.1,-2.2Zm3.1,3.5c1.4,.5,2.4,1.3,3.1,2.2h-6.2c.7,-.9,1.7,-1.7,3.1,-2.2Zm-3.4,2.9h6.9c.2,.3,.2,.7,.2,1.1c0,.3,0,.6,-.2,.9h-7c0,-.3,-.2,-.6,-.2,-.9c0,-.4,.2,-.8,.3,-1.1Zm.3,2.8h6.2c-.7,1.1,-1.7,1.7,-3.1,2.1c-1.4,-.4,-2.4,-1,-3.1,-2.1Zm3.1,3.7c1.4,.3,2.4,1,3.1,1.9h-6.2c.7,-.9,1.7,-1.6,3.1,-1.9Z" class="g4_2" />
<path fill-rule="evenodd" d="M1075.1,711.4v-.7l.1,-.2v-.3l.2,-.1l.2,-.2v-.2l.1,-.1l.2,-.2l.1,-.1l.2,-.2h.1l.2,-.1l.1,-.2h.3l.2,-.1h32.2l.2,.1h.3l.1,.2h.2v.1h.1l.2,.2h.1v.1l.2,.2h.1v.1l.2,.2v.2h.2v.3l.1,.1v.5l.2,.1v7.5l-.2,.2v.3l-.1,.1v.2l-.2,.1l-.2,.2v.1h-.1v.2l-.2,.1h-.1l-.2,.2v.1h-.3l-.1,.2h-.2l-.1,.1h-.8l-30.9,.2h-.3l-.1,-.2h-.6l-.2,-.1h-.1v-.2h-.2l-.1,-.1h-.2v-.2h-.1l-.2,-.1v-.2l-.1,-.1v-.2h-.2v-.1l-.2,-.2v-.3l-.1,-.1v-7.4Z" class="g3_2" />
<path d="M1075.1,711.4v0v-.7l.1,-.2v-.3l.2,-.1l.2,-.2v-.2l.1,-.1l.2,-.2l.1,-.1l.2,-.2h.1l.2,-.1l.1,-.2h.3l.2,-.1h32.2l.2,.1h.3l.1,.2h.2v.1h.1l.2,.2h.1v.1l.2,.2h.1v.1l.2,.2v.2h.2v.3l.1,.1v.5l.2,.1v7.5l-.2,.2v.3l-.1,.1v.2l-.2,.1l-.2,.2v.1h-.1v.2l-.2,.1h-.1l-.2,.2v.1h-.3l-.1,.2h-.2l-.1,.1h-.8l-30.9,.2h-.3l-.1,-.2h-.6l-.2,-.1h-.1v-.2h-.2l-.1,-.1h-.2v-.2h-.1l-.2,-.1v-.2l-.1,-.1v-.2h-.2v-.1l-.2,-.2v-.3l-.1,-.1v-7.4Zm0,-2.7v0Zm36.4,12.2v0Z" class="g5_2" />
<path fill-rule="evenodd" d="M1075.1,708.2v-.6l.1,-.1v-.3l.2,-.2v-.2h.2v-.1l.1,-.2l.2,-.1l.1,-.2l.2,-.1l.1,-.2h.2l.1,-.1h.2l.1,-.2h32.6l.1,.2h.2l.1,.1h.2l.1,.2l.2,.1h.1v.2l.2,.1h.1v.2l.2,.1v.2h.2v.3l.1,.2v.4l.2,.2v7.5l-.2,.1v.3l-.1,.2v.1l-.2,.2l-.2,.1v.2h-.1v.1l-.2,.2h-.1l-.2,.1l-.1,.2h-.2l-.1,.1h-.3v.2h-.8l-30.9,.1h-.3l-.1,-.1h-.5l-.1,-.2h-.3v-.1h-.2l-.1,-.2h-.2v-.1l-.1,-.2h-.2v-.1l-.1,-.2v-.1h-.2v-.2l-.2,-.1v-.3l-.1,-.2v-7.5Z" class="g6_2" />
<path d="M1075.1,708.2v0v-.6l.1,-.1v-.3l.2,-.2v-.2h.2v-.1l.1,-.2l.2,-.1l.1,-.2l.2,-.1l.1,-.2h.2l.1,-.1h.2l.1,-.2h32.6l.1,.2h.2l.1,.1h.2l.1,.2l.2,.1h.1v.2l.2,.1h.1v.2l.2,.1v.2h.2v.3l.1,.2v.4l.2,.2v7.5l-.2,.1v.3l-.1,.2v.1l-.2,.2l-.2,.1v.2h-.1v.1l-.2,.2h-.1l-.2,.1l-.1,.2h-.2l-.1,.1h-.3v.2h-.8l-30.9,.1h-.3l-.1,-.1h-.5l-.1,-.2h-.3v-.1h-.2l-.1,-.2h-.2v-.1l-.1,-.2h-.2v-.1l-.1,-.2v-.1h-.2v-.2l-.2,-.1v-.3l-.1,-.2v-7.5Zm0,-2.6v0Zm36.4,12.2v0Z" class="g7_2" />
<path fill-rule="evenodd" d="M1106.9,708.8v-.3l.1,-.1v-.2h.2v-.1h.1v-.2h.2l.1,-.1h.7v.1h.3v.2h.1v.1h.2v.3l.1,.2v.1h-.1v.5l-.2,.1l-.1,.2v.1h-.5v.2h-.2v-.2h-.6v-.1h-.1v-.2h-.2v-.3h-.1v-.3Z" class="g0_2" />
<path fill-rule="evenodd" d="M1104.3,708.8v-.3l.1,-.1v-.2h.2v-.1h.1v-.2h.2l.1,-.1h.7v.1h.3v.2h.1v.1h.2v.3l.1,.2v.1h-.1v.5l-.2,.1l-.1,.2v.1h-.5v.2h-.2v-.2h-.6v-.1h-.1v-.2h-.2v-.3h-.1v-.3Z" class="g4_2" />
<path fill-rule="evenodd" d="M1075.2,724.9v-.3l.2,-.2v-.3l.2,-.1v-.3l.1,-.2v-.2h.2v-.1l.1,-.2l.2,-.1l.1,-.2h.2l.1,-.1v-.2h.3l.2,-.1h.3l.1,-.2h32l.1,.2h.3l.2,.1h.1l.2,.2l.1,.1h.2v.2h.1l.2,.1v.2l.2,.1l.1,.2v.2l.2,.1v.3l.1,.2v.6l.2,6.7v.3l-.2,.2v.3l-.1,.3v.1l-.2,.2v.1h-.1v.2l-.2,.1l-.2,.2l-.1,.1h-.2l-.1,.2v.1h-.3l-.2,.2h-.3l-.1,.1h-32.1l-.2,-.1h-.3l-.1,-.2h-.2v-.1h-.1l-.2,-.2h-.1v-.1l-.2,-.2h-.1v-.1l-.2,-.2V733h-.1v-.3l-.2,-.2v-.4l-.2,-.2v-7Z" class="g3_2" />
<path d="M1075.2,724.9v0v-.3l.2,-.2v-.3l.2,-.1v-.3l.1,-.2v-.2h.2v-.1l.1,-.2l.2,-.1l.1,-.2h.2l.1,-.1v-.2h.3l.2,-.1h.3l.1,-.2h32l.1,.2h.3l.2,.1h.1l.2,.2l.1,.1h.2v.2h.1l.2,.1v.2l.2,.1l.1,.2v.2l.2,.1v.3l.1,.2v.6l.2,6.7v.3l-.2,.2v.3l-.1,.3v.1l-.2,.2v.1h-.1v.2l-.2,.1l-.2,.2l-.1,.1h-.2l-.1,.2v.1h-.3l-.2,.2h-.3l-.1,.1h-32.1l-.2,-.1h-.3l-.1,-.2h-.2v-.1h-.1l-.2,-.2h-.1v-.1l-.2,-.2h-.1v-.1l-.2,-.2V733h-.1v-.3l-.2,-.2v-.4l-.2,-.2v-7Zm0,-2.8v0Zm36.6,12.2v0Z" class="g5_2" />
<path fill-rule="evenodd" d="M1075.2,721.8v-.3l.2,-.1v-.3l.2,-.4v-.1l.1,-.2v-.1l.2,-.2l.1,-.1l.2,-.2l.1,-.1l.2,-.2h.1v-.1h.2l.1,-.2h.5l.1,-.1h32l.1,.1h.5l.1,.2l.2,.1h.1l.2,.2v.1h.1l.2,.2v.1h.2v.2l.1,.1v.2l.2,.1v.4h.1v.7l.2,6.7v.3l-.2,.2v.3l-.1,.2v.3l-.2,.1v.2h-.1v.1l-.2,.2l-.2,.1l-.1,.2h-.2l-.1,.1l-.2,.2h-.1l-.2,.1h-.4l-.2,.2h-31.8l-.1,-.2h-.5l-.1,-.1h-.2v-.2h-.1l-.2,-.1l-.1,-.2l-.2,-.1l-.1,-.2l-.2,-.1v-.2l-.1,-.1v-.2l-.2,-.1V729l-.2,-.2v-7Z" class="g6_2" />
<path d="M1075.2,721.8v0v-.3l.2,-.1v-.3l.2,-.4v-.1l.1,-.2v-.1l.2,-.2l.1,-.1l.2,-.2l.1,-.1l.2,-.2h.1v-.1h.2l.1,-.2h.5l.1,-.1h32l.1,.1h.5l.1,.2l.2,.1h.1l.2,.2v.1h.1l.2,.2v.1h.2v.2l.1,.1v.2l.2,.1v.4h.1v.7l.2,6.7v.3l-.2,.2v.3l-.1,.2v.3l-.2,.1v.2h-.1v.1l-.2,.2l-.2,.1l-.1,.2h-.2l-.1,.1l-.2,.2h-.1l-.2,.1h-.4l-.2,.2h-31.8l-.1,-.2h-.5l-.1,-.1h-.2v-.2h-.1l-.2,-.1l-.1,-.2l-.2,-.1l-.1,-.2l-.2,-.1v-.2l-.1,-.1v-.2l-.2,-.1V729l-.2,-.2v-7Zm0,-2.7v0Zm36.6,12.2v0Z" class="g7_2" />
<path fill-rule="evenodd" d="M1107,722.3v-.2h.2v-.3l.1,-.1v-.2h.2v-.1h.4v-.2h.4l.1,.2h.3l.2,.1v.2h.1v.1h.2v.8l-.2,.1v.2h-.1v.1h-.2v.2h-.1l-.2,.1h-.5v-.1h-.3V723h-.3v-.3h-.1v-.3h-.2v-.1Z" class="g0_2" />
<path fill-rule="evenodd" d="M1104.4,722.3v-.2h.2v-.3l.1,-.1v-.2h.2v-.1h.4v-.2h.4l.1,.2h.3l.2,.1v.2h.1v.1h.2v.8l-.2,.1v.2h-.1v.1h-.2v.2h-.1l-.2,.1h-.5v-.1h-.3V723h-.3v-.3h-.1v-.3h-.2v-.1Z" class="g4_2" />
<path fill-rule="evenodd" d="M1075.2,738.3V738l.2,-.1v-.3l.2,-.2v-.3l.1,-.2l.2,-.1v-.2l.1,-.1l.2,-.2l.1,-.1h.2l.1,-.2l.2,-.1h.1l.2,-.2h.4l.2,-.1h31.5l.1,.1h.6l.2,.2h.1v.1h.2l.1,.2h.2v.1h.1l.2,.2v.1l.2,.2v.1h.1v.2l.2,.1v.4l.1,.1v.6l.2,6.7v.3l-.2,.2v.5l-.1,.1v.2l-.2,.1v.2l-.1,.1l-.2,.2l-.2,.1l-.1,.2l-.2,.1h-.1v.2h-.2l-.1,.1h-.5l-.1,.2h-32.1l-.2,-.2h-.3l-.1,-.1h-.2v-.2h-.1l-.2,-.1h-.1V747l-.2,-.1h-.1v-.2l-.2,-.1l-.1,-.2v-.3l-.2,-.1v-.5l-.2,-.2v-7Z" class="g3_2" />
<path d="M1075.2,738.3v0V738l.2,-.1v-.3l.2,-.2v-.3l.1,-.2l.2,-.1v-.2l.1,-.1l.2,-.2l.1,-.1h.2l.1,-.2l.2,-.1h.1l.2,-.2h.4l.2,-.1h31.5l.1,.1h.6l.2,.2h.1v.1h.2l.1,.2h.2v.1h.1l.2,.2v.1l.2,.2v.1h.1v.2l.2,.1v.4l.1,.1v.6l.2,6.7v.3l-.2,.2v.5l-.1,.1v.2l-.2,.1v.2l-.1,.1l-.2,.2l-.2,.1l-.1,.2l-.2,.1h-.1v.2h-.2l-.1,.1h-.5l-.1,.2h-32.1l-.2,-.2h-.3l-.1,-.1h-.2v-.2h-.1l-.2,-.1h-.1V747l-.2,-.1h-.1v-.2l-.2,-.1l-.1,-.2v-.3l-.2,-.1v-.5l-.2,-.2v-7Zm0,-2.7v0Zm36.6,12.2v0Z" class="g5_2" />
<path fill-rule="evenodd" d="M1075.2,735.3V735l.2,-.2v-.3l.2,-.2V734l.1,-.1v-.2h.2v-.1l.1,-.2l.2,-.1l.1,-.2h.2l.1,-.1l.2,-.2h.1l.2,-.1h.4l.2,-.2h31.5l.1,.2h.6l.2,.1h.1v.2h.2l.1,.1h.2v.2h.1l.2,.1v.2l.2,.1l.1,.2v.1l.2,.2v.3l.1,.2v.6l.2,6.7v.3l-.2,.1v.3l-.1,.4v.1l-.2,.2v.1l-.1,.2l-.2,.1l-.2,.2l-.1,.1h-.2l-.1,.2v.1h-.3l-.2,.2h-.3l-.1,.1h-32.1l-.2,-.1h-.3l-.1,-.2h-.2v-.1h-.1l-.2,-.2h-.1V744l-.2,-.2h-.1v-.1l-.2,-.2v-.1h-.1v-.3l-.2,-.2v-.5l-.2,-.1v-7Z" class="g6_2" />
<path d="M1075.2,735.3v0V735l.2,-.2v-.3l.2,-.2V734l.1,-.1v-.2h.2v-.1l.1,-.2l.2,-.1l.1,-.2h.2l.1,-.1l.2,-.2h.1l.2,-.1h.4l.2,-.2h31.5l.1,.2h.6l.2,.1h.1v.2h.2l.1,.1h.2v.2h.1l.2,.1v.2l.2,.1l.1,.2v.1l.2,.2v.3l.1,.2v.6l.2,6.7v.3l-.2,.1v.3l-.1,.4v.1l-.2,.2v.1l-.1,.2l-.2,.1l-.2,.2l-.1,.1h-.2l-.1,.2v.1h-.3l-.2,.2h-.3l-.1,.1h-32.1l-.2,-.1h-.3l-.1,-.2h-.2v-.1h-.1l-.2,-.2h-.1V744l-.2,-.2h-.1v-.1l-.2,-.2v-.1h-.1v-.3l-.2,-.2v-.5l-.2,-.1v-7Zm0,-2.8v0Zm36.6,12.2v0Z" class="g7_2" />
<path fill-rule="evenodd" d="M1107,735.7v-.1h.2v-.3h.1V735h.3v-.2h.3v-.1h.4l.1,.1h.3v.2h.2v.1h.1v.2h.2v.7l-.2,.2v.1h-.1v.2h-.2v.1h-.1l-.2,.2h-.5v-.2h-.4v-.1h-.2v-.2l-.1,-.1v-.3h-.2v-.2Z" class="g0_2" />
<path fill-rule="evenodd" d="M1104.4,735.7v-.1h.2v-.3h.1V735h.3v-.2h.3v-.1h.4l.1,.1h.3v.2h.2v.1h.1v.2h.2v.7l-.2,.2v.1h-.1v.2h-.2v.1h-.1l-.2,.2h-.5v-.2h-.4v-.1h-.2v-.2l-.1,-.1v-.3h-.2v-.2Z" class="g4_2" />
<path fill-rule="evenodd" d="M1075.2,751.8v-.3h.2V751l.2,-.2v-.3l.1,-.1l.2,-.2v-.1l.1,-.2h.2v-.1l.1,-.2h.2l.1,-.1h.2l.1,-.2h.2l.1,-.1h32.6l.1,.1h.2l.1,.2h.2l.1,.1h.2v.2l.1,.1h.2v.2l.2,.1v.2l.1,.1l.2,.2v.3l.1,.2v.6l.2,14.3v.3l-.2,.2v.4l-.1,.2v.1l-.2,.2v.2l-.1,.1v.2h-.2l-.2,.1v.2h-.1l-.2,.1h-.1v.2h-.2l-.1,.1h-.5l-.1,.2h-32.1l-.2,-.2h-.3l-.1,-.1h-.2l-.1,-.2l-.2,-.1h-.1v-.2l-.2,-.1h-.1v-.2l-.2,-.1l-.1,-.2v-.3l-.2,-.2v-.4l-.2,-.2V751.8Z" class="g3_2" />
<path d="M1075.2,751.8v0v-.3h.2V751l.2,-.2v-.3l.1,-.1l.2,-.2v-.1l.1,-.2h.2v-.1l.1,-.2h.2l.1,-.1h.2l.1,-.2h.2l.1,-.1h32.6l.1,.1h.2l.1,.2h.2l.1,.1h.2v.2l.1,.1h.2v.2l.2,.1v.2l.1,.1l.2,.2v.3l.1,.2v.6l.2,14.3v.3l-.2,.2v.4l-.1,.2v.1l-.2,.2v.2l-.1,.1v.2h-.2l-.2,.1v.2h-.1l-.2,.1h-.1v.2h-.2l-.1,.1h-.5l-.1,.2h-32.1l-.2,-.2h-.3l-.1,-.1h-.2l-.1,-.2l-.2,-.1h-.1v-.2l-.2,-.1h-.1v-.2l-.2,-.1l-.1,-.2v-.3l-.2,-.2v-.4l-.2,-.2V751.8Zm0,-2.6v0Zm36.6,19.7v0Z" class="g5_2" />
<path fill-rule="evenodd" d="M1075.2,748.7v-.3l.2,-.2v-.3l.2,-.1v-.3l.1,-.2l.2,-.1V747l.1,-.1l.2,-.2l.1,-.1h.2l.1,-.2l.2,-.1h.3l.1,-.2h.3l.2,-.1h31.5l.1,.1h.5l.1,.2h.3v.1h.2l.1,.2h.2v.1h.1l.2,.2v.1l.2,.2v.1h.1v.2l.2,.1v.3l.1,.2v.6l.2,14.4v.3l-.2,.1v.3l-.1,.3v.2l-.2,.1v.2l-.1,.1l-.2,.2l-.2,.2l-.1,.1l-.2,.2h-.1v.1h-.2l-.1,.2h-.5l-.1,.1h-32.1l-.2,-.1h-.3l-.1,-.2h-.2v-.1h-.1l-.2,-.2h-.1v-.1l-.2,-.2h-.1v-.2l-.2,-.1v-.2h-.1v-.3l-.2,-.1v-.5l-.2,-.1V748.7Z" class="g6_2" />
<path d="M1075.2,748.7v0v-.3l.2,-.2v-.3l.2,-.1v-.3l.1,-.2l.2,-.1V747l.1,-.1l.2,-.2l.1,-.1h.2l.1,-.2l.2,-.1h.3l.1,-.2h.3l.2,-.1h31.5l.1,.1h.5l.1,.2h.3v.1h.2l.1,.2h.2v.1h.1l.2,.2v.1l.2,.2v.1h.1v.2l.2,.1v.3l.1,.2v.6l.2,14.4v.3l-.2,.1v.3l-.1,.3v.2l-.2,.1v.2l-.1,.1l-.2,.2l-.2,.2l-.1,.1l-.2,.2h-.1v.1h-.2l-.1,.2h-.5l-.1,.1h-32.1l-.2,-.1h-.3l-.1,-.2h-.2v-.1h-.1l-.2,-.2h-.1v-.1l-.2,-.2h-.1v-.2l-.2,-.1v-.2h-.1v-.3l-.2,-.1v-.5l-.2,-.1V748.7Zm0,-2.7v0Zm36.6,19.8v0Z" class="g7_2" />
<path d="M1079.1,763.2l5.2,-14.5m-2.2,14.1l5.2,-13.9m-2.1,14.3l5.2,-14.5" class="g8_2" />
<path d="M1058.9,703.6v-5.2l.2,-.6v-.4l.1,-.6l.2,-.5l.3,-.6l.1,-.5l.3,-.4l.2,-.6l.3,-.3v-.2m4.7,-4l.3,-.1l.6,-.2l.6,-.1l.5,-.2h.6l.5,-.1h2.9m6.1,0h6.3m6.1,0h6.1m6.1,0h6.3m6.1,0h6.1m6.1,0h6.2m6.2,0h6.1m6.1,0h6.2m6.2,0h6.1m6.1,0h6.2m6.2,0h6.1m6.1,0h.1l.6,.1h.6l.5,.2l.6,.1l.5,.2l.4,.3l.6,.1l.5,.3l.5,.4l.4,.3l.3,.3m3.5,4.9v.1l.2,.5l.1,.6l.2,.4v.6l.2,.7v3.2m0,6.1v6.2m0,6.1v6.2m0,6.1v6.2m0,6.1v6.2m0,6.1v6.2m0,6.1v2.6l-.2,.7v.4l-.2,.6l-.1,.5l-.2,.6l-.1,.4l-.2,.2m-3.6,4.7l-.3,.2l-.5,.3l-.5,.3l-.6,.3l-.4,.2l-.5,.1l-.6,.2l-.5,.1l-.6,.2h-.4l-.6,.1h-.3m-6.1,0h-6.2m-6.2,0h-6.1m-6.1,0h-6.2m-6.2,0h-6.1m-6.1,0h-6.2m-6.2,0H1126m-6.1,0h-6.1m-6.3,0h-6.1m-6.1,0h-6.1m-6.3,0h-6.1m-6.1,0H1069l-.6,-.1h-.5l-.6,-.2l-.5,-.1l-.6,-.2l-.6,-.1l-.4,-.2l-.5,-.3m-4.4,-4.1l-.2,-.5l-.3,-.4l-.1,-.7l-.3,-.4v-.6l-.2,-.5l-.1,-.6l-.2,-.4v-1.9m0,-6.1v-6.1m0,-6.3v-6.1m0,-6.1v-6.1m0,-6.3v-6.1m0,-6.1v-6.1" class="g9_2" />
<path fill-rule="evenodd" d="M1248.2,627.9l-8.9,5L1172.6,515.6l17.5,-10.3l67,117.5l-8.9,5.1Z" class="g3_2" />
<path fill-rule="evenodd" d="M1248.2,624.8l-8.9,5L1172.6,512.4l17.5,-10.1l67,117.5l-8.9,5Z" class="g4_2" />
<image preserveAspectRatio="none" x="1197" y="547" width="26" height="28" xlink:href="2/img/4.png" />
<path fill-rule="evenodd" d="M1015.1,627.9l-8.9,-5.1l67.1,-117.5l17.5,10.3l-66.9,117.3l-8.8,-5Z" class="g3_2" />
<path fill-rule="evenodd" d="M1015.1,624.8l-8.9,-5l67.1,-117.5l17.5,10.1l-66.9,117.4l-8.8,-5Z" class="g4_2" />
<image preserveAspectRatio="none" x="1037" y="545" width="26" height="29" xlink:href="2/img/5.png" />
<path fill-rule="evenodd" d="M1214.1,672.9v10.3H1054.8V662.8h159.3v10.1Z" class="g3_2" />
<path fill-rule="evenodd" d="M1214.1,669.9v10.2H1054.8V659.6h159.3v10.3Z" class="g4_2" />
<image preserveAspectRatio="none" x="1126" y="658" width="17" height="23" xlink:href="2/img/6.png" />
<path fill-rule="evenodd" d="M1031.3,428.6c3.2,2.6,4.4,6.5,5,9.7c.6,3.2,.1,6.7,-2.6,8.4c-.9,.4,-1.8,.6,-2.9,.4h-7.6l-7.8,-.1c-1,.1,-1.9,0,-2.6,-.3c-3.1,-1.6,-3.7,-4.9,-3.4,-8.1c.3,-3.4,1.5,-7.2,4.7,-10c4.9,-4.2,12.3,-4.2,17.2,0Z" class="g3_2" />
<path fill-rule="evenodd" d="M1031.3,425.6c3.2,2.6,4.4,6.4,5,9.6c.6,3.2,.1,6.7,-2.6,8.3c-.9,.6,-1.8,.7,-2.9,.6h-7.6l-7.8,-.3c-1,.3,-1.9,.1,-2.6,-.3c-3.1,-1.4,-3.7,-4.8,-3.4,-8.1c.3,-3.2,1.5,-7.1,4.7,-9.8c4.9,-4.3,12.3,-4.3,17.2,0Z" class="g10_2" />
<path fill-rule="evenodd" d="M1014.3,420.5v-.3l.1,-.6v-.7l.2,-.5l.2,-.5l.1,-.4l.2,-.3l.1,-.5l.3,-.4l.2,-.3l.3,-.3l.3,-.5l.3,-.3l.3,-.3l.3,-.3l.3,-.3l.3,-.3l.5,-.3l.3,-.2l.4,-.1l.3,-.4l.5,-.1l.4,-.2l.5,-.1h.5l.3,-.2h.4l.5,-.1h.9l.5,.1h.9l.4,.2l.3,.1l.5,.2l.5,.1l.3,.4l.4,.1l.3,.2l.5,.3l.3,.3l.5,.3l.3,.3l.3,.3l.3,.3l.1,.5l.3,.3l.3,.3l.2,.4l.1,.3l.2,.5l.1,.4l.2,.5l.2,.5v.4l.1,.3v1.9l-.1,.4v.5l-.2,.4l-.2,.5l-.1,.4l-.2,.4l-.1,.4l-.2,.5l-.3,.3l-.3,.3l-.1,.4l-.3,.3l-.3,.4l-.3,.3l-.5,.3l-.3,.3l-.5,.1l-.3,.3l-.3,.2l-.4,.3l-.5,.1l-.5,.2l-.3,.1h-.4l-.5,.2h-.4l-.5,.1h-.5v-.1h-1.3l-.3,-.2l-.5,-.1l-.5,-.2h-.4l-.5,-.3l-.3,-.1l-.4,-.2l-.3,-.3l-.5,-.1l-.3,-.3l-.3,-.3l-.5,-.3l-.3,-.4l-.3,-.3l-.1,-.4l-.3,-.3l-.2,-.3l-.3,-.5l-.1,-.4l-.2,-.4l-.1,-.4l-.2,-.5l-.2,-.4v-.5l-.1,-.4v-1Z" class="g3_2" />
<path fill-rule="evenodd" d="M1014.3,418.9v-.3l.1,-.7v-.7l.2,-.5l.2,-.4l.1,-.5l.2,-.3l.1,-.5l.3,-.4l.2,-.3l.3,-.3l.3,-.5l.3,-.3l.3,-.3l.3,-.3l.3,-.3l.3,-.3l.5,-.3l.3,-.2l.4,-.3l.3,-.1l.5,-.2l.4,-.1l.5,-.2h.5l.3,-.1h.4l.5,-.2h.9l.5,.2h.9l.4,.1l.3,.2l.5,.1l.5,.2l.3,.1l.4,.3l.3,.2l.5,.3l.3,.3l.5,.3l.3,.3l.3,.3l.3,.3l.1,.5l.3,.3l.3,.3l.2,.4l.1,.3l.2,.5l.1,.5l.2,.4l.2,.5v.4l.1,.3v1.9l-.1,.4v.5l-.2,.5l-.2,.4l-.1,.5l-.2,.3l-.1,.4l-.2,.3l-.3,.5l-.3,.3l-.1,.5l-.3,.3l-.3,.3l-.3,.3l-.5,.3l-.3,.3l-.5,.1l-.3,.3l-.3,.2l-.4,.3l-.5,.2l-.5,.1l-.3,.2h-.4l-.5,.1h-.4l-.5,.2h-.5v-.2h-1.3l-.3,-.1l-.5,-.2l-.5,-.1h-.4l-.5,-.3l-.3,-.2l-.4,-.2l-.3,-.3l-.5,-.3l-.3,-.1l-.3,-.3l-.5,-.3l-.3,-.3l-.3,-.3l-.1,-.5l-.3,-.3l-.2,-.5l-.3,-.3l-.1,-.4l-.2,-.3l-.1,-.5l-.2,-.4l-.2,-.5v-.5l-.1,-.4v-.9Z" class="g11_2" />
<path fill-rule="evenodd" d="M1217,403.4c-.4,0,-.7,.5,-.7,.9v25.3c0,.4,.3,.9,.7,.9h15.5v.1l-.8,3.4h-1.8v1.2h11.3V434h-2l-.6,-3.4l-.2,-.1h16.2c.5,0,.9,-.5,.9,-.9V404.3c0,-.4,-.4,-.9,-.9,-.9H1217Zm18.8,.9c.3,0,.5,0,.5,.4c0,.1,-.2,.3,-.5,.3c-.1,0,-.3,-.2,-.3,-.3c0,-.4,.2,-.4,.3,-.4Zm-17.2,1.7h34.6v19.9h-34.6V406Z" class="g3_2" />
<path fill-rule="evenodd" d="M1217,400.4c-.4,0,-.7,.4,-.7,.9v25.2c0,.5,.3,.9,.7,.9h15.5v.2l-.8,3.3h-1.8v1.3h11.3v-1.3h-2l-.6,-3.3l-.2,-.2h16.2c.5,0,.9,-.4,.9,-.9V401.3c0,-.5,-.4,-.9,-.9,-.9H1217Zm18.8,.7c.3,0,.5,.2,.5,.5c0,.1,-.2,.3,-.5,.3c-.1,0,-.3,-.2,-.3,-.3c0,-.3,.2,-.5,.3,-.5Zm-17.2,1.9h34.6v19.8h-34.6V403Z" class="g2_2" />
<path fill-rule="evenodd" d="M1221.8,435.1c3,2.7,4.2,6.4,4.9,9.7c.6,3.2,.1,6.6,-2.6,8.3c-.8,.4,-1.9,.6,-2.8,.4h-7.6l-8,-.1c-.7,.1,-1.7,0,-2.6,-.3c-2.9,-1.5,-3.6,-4.8,-3.3,-8.1c.4,-3.4,1.6,-7.2,4.7,-9.9c5,-4.2,12.4,-4.2,17.3,0Z" class="g3_2" />
<path fill-rule="evenodd" d="M1221.8,432c3,2.7,4.2,6.4,4.9,9.6c.6,3.2,.1,6.7,-2.6,8.4c-.8,.5,-1.9,.6,-2.8,.5h-7.6l-8,-.2c-.7,.2,-1.7,0,-2.6,-.3c-2.9,-1.5,-3.6,-4.9,-3.3,-8.1c.4,-3.3,1.6,-7.2,4.7,-9.9c5,-4.3,12.4,-4.3,17.3,0Z" class="g10_2" />
<path fill-rule="evenodd" d="M1204.8,427.1v-1.4l.2,-.4l.1,-.5l.2,-.4v-.3l.3,-.5l.1,-.5l.2,-.3l.3,-.4l.1,-.3l.3,-.3l.3,-.5l.4,-.3l.3,-.3l.3,-.3l.4,-.3l.3,-.2l.3,-.3l.5,-.1l.4,-.3l.4,-.2l.4,-.1h.5l.4,-.2l.5,-.1h2.6l.4,.1l.5,.2h.5l.4,.1l.3,.2l.5,.3l.4,.1l.3,.3l.4,.2l.4,.3l.3,.3l.3,.3l.3,.3l.3,.3l.3,.5l.2,.3l.3,.4l.1,.3l.4,.5l.1,.5l.2,.3v.4l.1,.5l.2,.4v2.6l-.2,.5l-.1,.4v.5l-.2,.5l-.1,.3l-.4,.4l-.1,.5l-.3,.3l-.2,.5l-.3,.3l-.3,.3l-.3,.3l-.3,.3l-.3,.3l-.4,.3l-.4,.3l-.3,.1l-.4,.3l-.5,.2l-.3,.2l-.4,.1l-.5,.2h-.5l-.4,.1l-.5,.2h-1.2l-.5,-.2h-.4l-.5,-.1h-.4l-.5,-.2l-.4,-.1l-.4,-.2l-.4,-.2l-.5,-.3l-.3,-.3l-.3,-.1l-.4,-.3l-.3,-.3l-.3,-.3l-.4,-.3l-.3,-.3l-.3,-.3l-.3,-.5l-.1,-.3l-.2,-.5l-.3,-.4l-.1,-.3l-.2,-.5l-.1,-.5v-.4l-.2,-.5V428l-.1,-.4v-.5h.1Z" class="g3_2" />
<path fill-rule="evenodd" d="M1204.8,425.4v-1.3l.2,-.5l.1,-.5l.2,-.4v-.5l.3,-.3l.1,-.4l.2,-.3l.3,-.5l.1,-.3l.3,-.5l.3,-.3l.4,-.3l.3,-.3l.3,-.3l.4,-.3l.3,-.2l.3,-.3l.5,-.1l.4,-.3l.4,-.2l.4,-.1l.5,-.2h.4l.5,-.1h.4l.5,-.2h.8l.4,.2h.5l.4,.1h.5l.5,.2l.4,.1l.3,.2l.5,.3l.4,.1l.3,.3l.4,.2l.4,.3l.3,.3l.3,.3l.3,.3l.3,.3l.3,.5l.2,.3l.3,.5l.1,.3l.4,.4l.1,.3l.2,.5v.4l.1,.5l.2,.5v2.6l-.2,.4l-.1,.5v.4l-.2,.5l-.1,.3l-.4,.4l-.1,.5l-.3,.3l-.2,.5l-.3,.3l-.3,.3l-.3,.3l-.3,.3l-.3,.3l-.4,.3l-.4,.3l-.3,.2l-.4,.3l-.5,.1l-.3,.2l-.4,.1l-.5,.2h-.5l-.4,.1h-.5l-.4,.2h-.3v-.2H1212l-.5,-.1l-.4,-.2h-.5l-.4,-.1l-.4,-.2l-.4,-.1l-.5,-.3l-.3,-.3l-.3,-.2l-.4,-.3l-.3,-.3l-.3,-.3l-.4,-.3l-.3,-.3l-.3,-.3l-.3,-.5l-.1,-.3l-.2,-.5l-.3,-.4l-.1,-.3l-.2,-.5l-.1,-.4v-.5l-.2,-.4v-.4l-.1,-.6v-.3h.1Z" class="g11_2" />
<path fill-rule="evenodd" d="M1034.9,800c-.4,0,-.7,.5,-.7,1v25.2c0,.4,.3,.9,.7,.9h15.4l-.1,.1l-.6,3.4h-2v1.2h11.3v-1.2h-1.8l-.8,-3.4v-.1h16.2c.5,0,.9,-.5,.9,-.9V801c0,-.5,-.4,-1,-.9,-1h-37.6Zm18.8,1c.2,0,.5,0,.5,.3c0,.1,-.3,.3,-.5,.3c-.1,0,-.4,-.2,-.4,-.3c0,-.3,.3,-.3,.4,-.3Zm-17.4,1.6h34.8v19.9h-34.8V802.6Z" class="g3_2" />
<path fill-rule="evenodd" d="M1034.9,797c-.4,0,-.7,.4,-.7,.9v25.2c0,.5,.3,.9,.7,.9h15.4l-.1,.2l-.6,3.3h-2v1.3h11.3v-1.3h-1.8l-.8,-3.3V824h16.2c.5,0,.9,-.4,.9,-.9V797.9c0,-.5,-.4,-.9,-.9,-.9h-37.6Zm18.8,.7c.2,0,.5,.2,.5,.5c0,.2,-.3,.3,-.5,.3c-.1,0,-.4,-.1,-.4,-.3c0,-.3,.3,-.5,.4,-.5Zm-17.4,1.9h34.8v19.8h-34.8V799.6Z" class="g2_2" />
<path fill-rule="evenodd" d="M1039.5,831.7c3.1,2.6,4.4,6.4,5,9.6c.7,3.2,.2,6.7,-2.6,8.2c-.9,.7,-1.8,.8,-2.9,.7h-7.6l-7.8,-.4c-.9,.4,-1.8,.2,-2.6,-.3c-3,-1.3,-3.7,-4.7,-3.3,-8.1c.3,-3.2,1.5,-7,4.7,-9.7c4.9,-4.3,12.2,-4.3,17.1,0Z" class="g3_2" />
<path fill-rule="evenodd" d="M1039.5,828.6c3.1,2.6,4.4,6.4,5,9.6c.7,3.2,.2,6.8,-2.6,8.3c-.9,.4,-1.8,.7,-2.9,.4h-7.6l-7.8,-.1c-.9,.1,-1.8,.1,-2.6,-.3c-3,-1.4,-3.7,-4.8,-3.3,-8.1c.3,-3.2,1.5,-7,4.7,-9.8c4.9,-4.3,12.2,-4.3,17.1,0Z" class="g10_2" />
<path fill-rule="evenodd" d="M1022.5,823.7v-.4l.2,-.5v-.5l.1,-.4v-.5l.2,-.4l.2,-.3l.1,-.5l.2,-.5l.3,-.3l.3,-.4l.1,-.3l.3,-.5l.3,-.3l.3,-.3l.3,-.3l.4,-.3l.3,-.3l.4,-.2l.3,-.3l.5,-.1l.4,-.3l.3,-.2l.5,-.1h.5l.4,-.2l.5,-.1h2.6l.4,.1l.5,.2h.4l.4,.1l.4,.2l.5,.3l.3,.1l.4,.3l.3,.2l.3,.3l.5,.3l.3,.3l.3,.3l.3,.3l.2,.5l.3,.3l.3,.4l.1,.3l.2,.5l.1,.5l.2,.3l.1,.4l.2,.5l.2,.4v2.6l-.2,.5l-.2,.5l-.1,.4l-.2,.5l-.1,.3l-.2,.4l-.1,.5l-.3,.3l-.3,.5l-.2,.3l-.3,.3l-.3,.3l-.3,.3l-.5,.3l-.3,.3l-.3,.3l-.4,.2l-.3,.3l-.5,.1l-.4,.2l-.4,.1l-.4,.2h-.5l-.4,.1h-.5l-.4,.2h-.5v-.2h-1.2l-.5,-.1h-.4l-.5,-.2l-.5,-.1l-.3,-.2l-.4,-.1l-.5,-.3l-.3,-.4l-.4,-.1l-.3,-.3l-.4,-.3l-.3,-.3l-.3,-.3l-.3,-.3l-.3,-.3l-.3,-.5l-.1,-.3l-.3,-.5l-.2,-.4l-.1,-.3l-.2,-.5l-.2,-.4v-.5l-.1,-.5l-.2,-.3v-.9Z" class="g3_2" />
<path fill-rule="evenodd" d="M1022.5,822v-.4l.2,-.5v-.4l.1,-.5v-.5l.2,-.4l.2,-.5l.1,-.3l.2,-.4l.3,-.3l.3,-.5l.1,-.3l.3,-.5l.3,-.3l.3,-.3l.3,-.3l.4,-.3l.3,-.3l.4,-.1l.3,-.3l.5,-.2l.4,-.3l.3,-.2l.5,-.1l.5,-.2h.4l.5,-.1h.3l.4,-.2h1l.4,.2h.5l.4,.1h.5l.4,.2l.4,.1l.4,.2l.5,.3l.3,.2l.4,.3l.3,.1l.3,.3l.5,.3l.3,.3l.3,.3l.3,.3l.2,.5l.3,.3l.3,.5l.1,.3l.2,.4l.1,.3l.2,.5l.1,.4l.2,.5l.2,.5v2.6l-.2,.4l-.2,.5l-.1,.4l-.2,.5l-.1,.3l-.2,.5l-.1,.4l-.3,.3l-.3,.3l-.2,.5l-.3,.3l-.3,.3l-.3,.3l-.5,.3l-.3,.3l-.3,.3l-.4,.2l-.3,.1l-.5,.3l-.4,.2l-.4,.1l-.4,.2h-.5l-.4,.1h-.5l-.4,.2h-.5v-.2h-1.2l-.5,-.1l-.4,-.2h-.5l-.5,-.1l-.3,-.2l-.4,-.3l-.5,-.1l-.3,-.3l-.4,-.2l-.3,-.3l-.4,-.3l-.3,-.3l-.3,-.3l-.3,-.3l-.3,-.5l-.3,-.3l-.1,-.3l-.3,-.4l-.2,-.5l-.1,-.3l-.2,-.5l-.2,-.4v-.5l-.1,-.4l-.2,-.3v-1Z" class="g11_2" />

</svg>
