<?xml version="1.0" encoding="UTF-8" standalone="no"?>
<!DOCTYPE svg PUBLIC "-//W3C//DTD SVG 1.1//EN"
"http://www.w3.org/Graphics/SVG/1.1/DTD/svg11.dtd">


<!-- Page 1 -->
<svg x="0" y="0" width="1564" height="1173" viewBox="0 0 1564 1173" version="1.1" xmlns="http://www.w3.org/2000/svg" xmlns:xlink="http://www.w3.org/1999/xlink"
style="display: block;margin-left: auto;margin-right: auto;">
<defs>
<clipPath id="c0_1"><path d="M0,1173.3V0H1564.4V1173.3Z" /></clipPath>

<style type="text/css"><![CDATA[

.g0_1{
fill: #FFFFFF;
}
.g1_1{
fill-opacity: 0.75;
}
.g2_1{
fill: #773F9B;
}
.g3_1{
fill-opacity: 0.5;
}
.g4_1{
fill: #00AB1D;
}
.g5_1{
fill: #0175AE;
}
.g6_1{
fill: none;
stroke: #53585F;
stroke-width: 3.069764;
stroke-linecap: butt;
stroke-linejoin: miter;
}
.g7_1{
fill: #53585F;
}
.g8_1{
fill: #70BF41;
}
.g9_1{
fill: #DE6A10;
}
.g10_1{
fill: #D07B16;
}
.g11_1{
fill: #0077B1;
}
.g12_1{
fill: none;
stroke: #F38F18;
stroke-width: 4.583028;
stroke-linecap: butt;
stroke-linejoin: miter;
}
.g13_1{
fill: #F38F18;
}

.s1_1{
font-size: 22.92px;
font-family: DejaVuSans-Oblique_1f;
fill: #000000;
}

]]></style>

</defs>
<path d="M0,0
L0,1173
L1564,1173
L1564,0 Z " 
fill="#FFFFFF" stroke="none" />
<g clip-path="url(#c0_1)">
<path fill-rule="evenodd" d="M0,.1H1564.4V1173.4H0V.1Z" class="g0_1" />
<path fill-rule="evenodd" d="M0,.1H1564.4V1173.4H0V.1Z" class="g0_1" />
</g>
<path fill-rule="evenodd" d="M1428.2,608.5v17.8h-20.4V711h50.5V690.5h10V711h10.1V690.5h10V711h50.8V626.3h-20.7V608.5h-90.3Zm10.1,9.1h9.9v8.7h-9.9v-8.7Zm20,0h10v8.7h-10v-8.7Zm20.1,0h10v8.7h-10v-8.7Zm20,0h10v8.7h-10v-8.7ZM1418.2,636h10v8.5h-10V636Zm20.1,0h9.9v8.5h-9.9V636Zm20,0h10v8.5h-10V636Zm20.1,0h10v8.5h-10V636Zm20,0h10v8.5h-10V636Zm20.1,0h9.9v8.5h-9.9V636Zm-100.3,18.1h10v8.6h-10v-8.6Zm20.1,0h9.9v8.6h-9.9v-8.6Zm60.1,0h10v8.6h-10v-8.6Zm20.1,0h9.9v8.6h-9.9v-8.6Zm-45,.5c6.9,0,12.6,5.6,12.6,12.5c0,6.9,-5.7,12.6,-12.6,12.6c-6.8,0,-12.5,-5.7,-12.5,-12.6c0,-6.9,5.7,-12.5,12.5,-12.5Zm-2.9,4.7v4.8h-4.8V670h4.8v4.9h5.8V670h4.9v-5.9h-4.9v-4.8h-5.8Zm-52.4,13h10v8.6h-10v-8.6Zm20.1,0h9.9v8.6h-9.9v-8.6Zm60.1,0h10v8.6h-10v-8.6Zm20.1,0h9.9v8.6h-9.9v-8.6Zm-100.3,18.2h10v8.6h-10v-8.6Zm20.1,0h9.9v8.6h-9.9v-8.6Zm60.1,0h10v8.6h-10v-8.6Zm20.1,0h9.9v8.6h-9.9v-8.6Z" class="g1_1" />
<path fill-rule="evenodd" d="M1428.2,608.5v17.8h-20.4V711h50.5V690.5h10V711h10.1V690.5h10V711h50.8V626.3h-20.7V608.5h-90.3Zm10.1,9.1h9.9v8.7h-9.9v-8.7Zm20,0h10v8.7h-10v-8.7Zm20.1,0h10v8.7h-10v-8.7Zm20,0h10v8.7h-10v-8.7ZM1418.2,636h10v8.5h-10V636Zm20.1,0h9.9v8.5h-9.9V636Zm20,0h10v8.5h-10V636Zm20.1,0h10v8.5h-10V636Zm20,0h10v8.5h-10V636Zm20.1,0h9.9v8.5h-9.9V636Zm-100.3,18.1h10v8.6h-10v-8.6Zm20.1,0h9.9v8.6h-9.9v-8.6Zm60.1,0h10v8.6h-10v-8.6Zm20.1,0h9.9v8.6h-9.9v-8.6Zm-45,.5c6.9,0,12.6,5.6,12.6,12.5c0,6.9,-5.7,12.6,-12.6,12.6c-6.8,0,-12.5,-5.7,-12.5,-12.6c0,-6.9,5.7,-12.5,12.5,-12.5Zm-2.9,4.7v4.8h-4.8V670h4.8v4.9h5.8V670h4.9v-5.9h-4.9v-4.8h-5.8Zm-52.4,13h10v8.6h-10v-8.6Zm20.1,0h9.9v8.6h-9.9v-8.6Zm60.1,0h10v8.6h-10v-8.6Zm20.1,0h9.9v8.6h-9.9v-8.6Zm-100.3,18.2h10v8.6h-10v-8.6Zm20.1,0h9.9v8.6h-9.9v-8.6Zm60.1,0h10v8.6h-10v-8.6Zm20.1,0h9.9v8.6h-9.9v-8.6Z" class="g2_1" />
<path fill-rule="evenodd" d="M1155.9,511.3H1034.8V481h242.3v30.3H1155.9Z" class="g3_1" />
<path fill-rule="evenodd" d="M1155.9,508.2H1034.8V478h242.3v30.2H1155.9Z" class="g4_1" />
<path fill-rule="evenodd" d="M1239.6,385.6c-7.9,0,-15.8,.9,-22,2.7c-12,3.7,-12,9.6,0,13.3c12.3,3.7,31.8,3.7,43.9,0c12.1,-3.7,12.1,-9.6,0,-13.3c-6,-1.8,-13.9,-2.7,-21.9,-2.7Zm-31,13.6v58.3c0,5.2,13.9,9.9,31,9.9c17.1,0,31.1,-4.7,31.1,-9.9V399.2c-4.5,3.9,-16.7,6.7,-31.1,6.7c-14.5,0,-26.5,-2.8,-31,-6.7Z" class="g3_1" />
<path fill-rule="evenodd" d="M1239.6,382.5c-7.9,0,-15.8,.9,-22,2.7c-12,3.7,-12,9.5,0,13.3c12.3,3.7,31.8,3.7,43.9,0c12.1,-3.8,12.1,-9.6,0,-13.3c-6,-1.8,-13.9,-2.7,-21.9,-2.7Zm-31,13.6v58.4c0,5.2,13.9,9.9,31,9.9c17.1,0,31.1,-4.7,31.1,-9.9V396.1c-4.5,4,-16.7,6.7,-31.1,6.7c-14.5,0,-26.5,-2.7,-31,-6.7Z" class="g5_1" />
<path d="M1287.6,496.5l139,95.3" class="g6_1" />
<path fill-rule="evenodd" d="M1433.7,596.5l-10.3,-1.3l5.2,-7.7l5.1,9Z" class="g7_1" />
<text x="1387" y="508" class="s1_1">?</text>
<path d="M1261.8,529.5l139,95.2" class="g6_1" />
<path fill-rule="evenodd" d="M1254.8,524.6l10,1.4l-5.1,7.6l-4.9,-9Z" class="g7_1" />
<text x="1340" y="614" class="s1_1">!</text>
<path fill-rule="evenodd" d="M1315.7,588.6c-.1,0,-.4,0,-.6,.1c-.8,.7,-1.4,1.9,-1.2,3.7c.1,3.1,2.9,4.1,1.1,7.5c0,0,-1.6,-.2,-4.6,.5c-2.5,.4,-3.5,.1,-4.8,.7c-1.8,.9,-1.2,3.4,.7,4.1c-1.6,1.1,-2,3.6,.7,4.6c-1.5,1.6,-1.5,3.7,.9,4.5c-1.6,1.6,-.1,3.6,1.6,3.6c13.1,0,11,-.9,14.9,-.9c4.6,0,7.7,1.7,7.7,1.7V605.1c0,0,-3.8,-1.1,-6.4,-2.4c-1,-.7,-2.2,-1.3,-3.3,-4.9c-.9,-3.4,-3.3,-3.7,-4.1,-5.1c-.4,-.7,-1.2,-2.4,-1.7,-3.6c-.1,-.4,-.6,-.5,-.9,-.5Z" class="g3_1" />
<path fill-rule="evenodd" d="M1315.7,585.5c-.1,0,-.4,0,-.6,.2c-.8,.6,-1.4,1.8,-1.2,3.7c.1,3,2.9,4.1,1.1,7.4c0,0,-1.6,-.1,-4.6,.5c-2.5,.5,-3.5,.2,-4.8,.8c-1.8,.9,-1.2,3.3,.7,4.1c-1.6,1.1,-2,3.5,.7,4.6c-1.5,1.5,-1.5,3.6,.9,4.3c-1.6,1.6,-.1,3.8,1.6,3.8c13.1,0,11,-.9,14.9,-.9c4.6,0,7.7,1.6,7.7,1.6V602c0,0,-3.8,-1,-6.4,-2.4c-1,-.6,-2.2,-1.2,-3.3,-4.9c-.9,-3.4,-3.3,-3.7,-4.1,-5c-.4,-.8,-1.2,-2.5,-1.7,-3.7c-.1,-.3,-.6,-.5,-.9,-.5Z" class="g8_1" />
<image preserveAspectRatio="none" x="1131" y="484" width="25" height="33" xlink:href="1/img/1.png" />
<path fill-rule="evenodd" d="M1191.4,769.9c-1.1,0,-2,1,-2,2v57.3c0,.9,.9,1.9,2,1.9h34.8l-.2,.6l-1.3,7.5h-4.5v2.7h25.7v-2.7h-4.4l-1.6,-7.5v-.6h36.7c1.1,0,2,-1,2,-1.9V771.9c0,-1,-.9,-2,-2,-2h-85.2Zm42.6,1.9c.4,0,.8,.3,.8,.7c0,.7,-.4,1,-.8,1c-.5,0,-.9,-.3,-.9,-1c0,-.4,.4,-.7,.9,-.7Zm-39.4,3.9h78.8v45h-78.8v-45Z" class="g3_1" />
<path fill-rule="evenodd" d="M1191.4,766.9c-1.1,0,-2,.9,-2,2v57.3c0,.9,.9,1.8,2,1.8h34.8l-.2,.6l-1.3,7.3h-4.5v2.9h25.7v-2.9h-4.4l-1.6,-7.3V828h36.7c1.1,0,2,-.9,2,-1.8V768.9c0,-1.1,-.9,-2,-2,-2h-85.2Zm42.6,1.8c.4,0,.8,.3,.8,.8c0,.4,-.4,.9,-.8,.9c-.5,0,-.9,-.5,-.9,-.9c0,-.5,.4,-.8,.9,-.8Zm-39.4,4h78.8v44.9h-78.8V772.7Z" class="g5_1" />
<path d="M1199.2,526V739.5" class="g6_1" />
<path fill-rule="evenodd" d="M1199.2,517.4l4.5,9.2h-9.1l4.6,-9.2Z" class="g7_1" />
<path d="M1234,525.7V739.1" class="g6_1" />
<path fill-rule="evenodd" d="M1234,747.6l-4.6,-9.1h9.2l-4.6,9.1Z" class="g7_1" />
<path fill-rule="evenodd" d="M1160,584.3c-1.6,0,-2.9,1.2,-2.9,2.9V608c0,1.5,1.3,2.9,2.9,2.9h35c1.6,0,2.9,-1.4,2.9,-2.9V587.2c0,-1.7,-1.3,-2.9,-2.9,-2.9h-35Zm2,8.7h.3v2.2h-2.4c0,-1.3,.9,-2.2,2.1,-2.2Zm.9,0h3.3c1.2,0,2.1,.9,2.1,2.2h-5.4V593Zm-3,2.8h2.4v2h-2.4v-2Zm3,0h2.2v2h-2.2v-2Zm2.8,0h2.6v2h-2.6v-2Zm-5.8,2.4h2.4v2.2h-.3c-1.2,0,-2.1,-1,-2.1,-2.2Zm3,0h2.2v2.2h-2.2v-2.2Zm2.8,0h2.6c0,1.2,-.9,2.2,-2.1,2.2h-.5v-2.2Zm-5.4,6.3h.8c.2,0,.2,.1,.2,.3v1.5c0,.2,0,.3,-.2,.3h-.8c-.1,0,-.3,-.1,-.3,-.3v-1.5c0,-.2,.2,-.3,.3,-.3Zm1.7,0h.6v1.8h.3v-.6c0,0,0,-.1,.2,-.1c.2,0,.2,.1,.2,.1v.8c0,0,0,.1,-.2,.1H1162c0,0,-.1,-.1,-.1,-.1c0,-.2,.1,-.2,.1,-.2h.5v-1.5h-.5c0,0,-.1,-.2,-.1,-.2c0,-.1,.1,-.1,.1,-.1Zm2,0h.9c0,0,.2,.1,.2,.3v.6c0,.2,-.2,.3,-.2,.3h-.7v.6h.7q.2,0,.2,.2c0,0,0,.1,-.2,.1h-1v-.9c0,-.1,0,-.3,.3,-.3h.7v-.6h-.9c-.1,0,-.1,-.2,-.1,-.2q0,-.1,.1,-.1Zm1.8,0h1c.1,0,.3,.1,.3,.1v.6q0,.2,-.2,.4c.2,0,.2,.1,.2,.3v.4c0,.2,-.2,.3,-.3,.3h-1c0,0,-.1,-.1,-.1,-.1c0,-.2,.1,-.2,.1,-.2h1v-.4q0,-.2,-.2,-.2h-.4c-.2,0,-.2,-.1,-.2,-.1q0,-.2,.2,-.2h.4c.2,0,.2,-.2,.2,-.2v-.4h-1c0,0,-.1,-.2,-.1,-.2c0,-.1,.1,-.1,.1,-.1Zm3.9,0q.1,0,.1,.1v1h.5v-.8c0,0,.1,-.2,.1,-.2c.2,0,.2,.2,.2,.2v.8c.1,0,.1,.1,.1,.1q0,.2,-.1,.2v.6c0,0,0,.1,-.2,.1c0,0,-.1,-.1,-.1,-.1v-.6h-.8v-1.3c0,-.1,.2,-.1,.2,-.1Zm3.6,0h.2c0,0,.1,0,.1,.1c0,0,0,.2,-.1,.2v.8h.9c.2,0,.2,.1,.2,.1v.8c0,0,0,.1,-.2,.1h-1.1c0,0,-.1,-.1,-.1,-.1v-1.9c0,-.1,.1,-.1,.1,-.1Zm2,0h1.1v.7q0,.2,0,.2l-.5,.3q0,.2,0,.2v.6c0,0,0,.1,-.1,.1c-.2,0,-.2,-.1,-.2,-.1v-.8l.5,-.5q.1,0,.1,-.1v-.3h-.9c0,0,0,.1,-.1,.1c0,0,0,-.1,0,-.3q0,-.1,.1,-.1Zm3.8,0h.7c0,0,.1,0,.1,.1v.8c.2,0,.2,.2,.2,.3v.6c0,.2,0,.3,-.2,.3h-.9c-.2,0,-.2,-.1,-.2,-.3v-.6c0,-.1,0,-.3,.2,-.3v-.8c0,-.1,.1,-.1,.1,-.1Zm1.7,0h1.1c0,0,.1,0,.1,.1v1.9c0,0,-.1,.1,-.1,.1h-.2c0,0,-.1,-.1,-.1,-.1c0,-.2,.1,-.2,.1,-.2v-.9h-.9q-.1,0,-.1,-.2v-.6c0,-.1,.1,-.1,.1,-.1Zm2,0h.9c.2,0,.2,.1,.2,.3v1.5c0,.2,0,.3,-.2,.3h-.9c-.1,0,-.1,-.1,-.1,-.3v-1.5c0,-.2,0,-.3,.1,-.3Zm1.8,0h.6v1.8h.4v-.6c0,0,0,-.1,.1,-.1c0,0,.2,.1,.2,.1v.8c0,0,-.2,.1,-.2,.1h-1.1c0,0,-.1,-.1,-.1,-.1c0,-.2,.1,-.2,.1,-.2h.3v-1.5h-.3c0,0,-.1,-.2,-.1,-.2c0,-.1,.1,-.1,.1,-.1Zm3.7,0h.9c.2,0,.3,.1,.3,.3v.6c0,.2,-.1,.3,-.3,.3h-.7v.6h.9c0,0,.1,0,.1,.2c0,0,-.1,.1,-.1,.1h-1.2v-.9c0,-.1,.1,-.3,.3,-.3h.7v-.6h-.9c0,0,-.1,-.2,-.1,-.2q0,-.1,.1,-.1Zm1.8,0h1c.3,0,.3,.1,.3,.1v.6q0,.2,0,.4c0,0,0,.1,0,.3v.4c0,.2,0,.3,-.3,.3h-1c0,0,0,-.1,0,-.1q0,-.2,0,-.2h1v-.4q0,-.2,0,-.2h-.7c0,0,-.1,-.1,-.1,-.1c0,-.2,.1,-.2,.1,-.2h.7c0,0,0,-.2,0,-.2v-.4h-1c0,0,0,-.2,0,-.2q0,-.1,0,-.1Zm2.2,0c0,0,.1,0,.1,.1v1h.5v-.8c0,0,.1,-.2,.1,-.2c0,0,.2,.2,.2,.2v.8c.1,0,.1,.1,.1,.1c0,.2,-.1,.2,-.1,.2v.6c0,0,-.2,.1,-.2,.1c0,0,-.1,-.1,-.1,-.1v-.6h-.8v-1.3q0,-.1,.2,-.1Zm-20.6,0h.7q.2,0,.2,.1c0,0,0,.2,-.2,.2h-.6v.6h.6c.2,0,.2,.2,.2,.3v.6c0,.2,0,.3,-.2,.3h-.6c-.1,0,-.1,-.1,-.1,-.1h-.4v-.2q0,-.1,0,-.1q.2,0,.2,0l.2,.1h.7v-.6h-.7v-1.2Zm22.4,0h.9q.2,0,.2,.1c0,0,0,.2,-.2,.2h-.6v.6h.5c.1,0,.3,.2,.3,.3v.6c0,.2,-.2,.3,-.3,.3h-.6c0,0,0,-.1,-.2,-.1h-.1v-.2q0,-.1,0,-.1h.1l.2,.1h.6v-.6h-.8v-1.2Zm-14.8,.3v.6h.3v-.6h-.3Zm-19,0v1.5h.8v-1.5h-.8Zm20.7,0v.4h.7v-.4h-.7Zm1.8,0v1.5h.9v-1.5h-.9Zm-3.8,.9v.6h.9v-.6h-.9Zm-5.5,.2v.4h.7v-.4h-.7Z" class="g3_1" />
<path fill-rule="evenodd" d="M1160,581.3c-1.6,0,-2.9,1.2,-2.9,2.9v20.7c0,1.6,1.3,2.9,2.9,2.9h35c1.6,0,2.9,-1.3,2.9,-2.9V584.2c0,-1.7,-1.3,-2.9,-2.9,-2.9h-35Zm2,8.7h.3v2.1h-2.4c0,-1.2,.9,-2.1,2.1,-2.1Zm.9,0h3.3c1.2,0,2.1,.9,2.1,2.1h-5.4V590Zm-3,2.7h2.4v1.9h-2.4v-1.9Zm3,0h2.2v1.9h-2.2v-1.9Zm2.8,0h2.6v1.9h-2.6v-1.9Zm-5.8,2.5h2.4v2.1h-.3c-1.2,0,-2.1,-.9,-2.1,-2.1Zm3,0h2.2v2.1h-2.2v-2.1Zm2.8,0h2.6c0,1.2,-.9,2.1,-2.1,2.1h-.5v-2.1Zm-5.4,6.2h.8c.2,0,.2,.2,.2,.3v1.6c0,.1,0,.3,-.2,.3h-.8c-.1,0,-.3,-.2,-.3,-.3v-1.6c0,-.1,.2,-.3,.3,-.3Zm1.7,0h.6v1.9h.3v-.6c0,0,0,-.2,.2,-.2c.2,0,.2,.2,.2,.2v.6c0,.1,0,.3,-.2,.3H1162c0,0,-.1,-.2,-.1,-.2c0,-.1,.1,-.1,.1,-.1h.5v-1.6h-.5c0,0,-.1,-.1,-.1,-.1c0,-.2,.1,-.2,.1,-.2Zm2,0h.9c0,0,.2,0,.2,.3v.6c0,.2,-.2,.4,-.2,.4h-.7v.6h.7q.2,0,.2,.1c0,0,0,.2,-.2,.2h-1v-.9q0,-.4,.3,-.4h.7v-.6h-.9c-.1,0,-.1,-.1,-.1,-.1q0,-.2,.1,-.2Zm1.8,0h1c.1,0,.3,0,.3,.2v.6q0,.1,-.2,.3c.2,0,.2,.2,.2,.2v.6c0,.1,-.2,.3,-.3,.3h-1c0,0,-.1,-.2,-.1,-.2c0,-.1,.1,-.1,.1,-.1h1v-.5q0,-.1,-.2,-.1h-.4c-.2,0,-.2,-.2,-.2,-.2q0,-.2,.2,-.2h.4c.2,0,.2,-.1,.2,-.1v-.5h-1c0,0,-.1,-.1,-.1,-.1c0,-.2,.1,-.2,.1,-.2Zm3.9,0q.1,0,.1,.2v.9h.5v-.8c0,0,.1,-.1,.1,-.1c.2,0,.2,.1,.2,.1v.8c.1,0,.1,.2,.1,.2c0,0,0,.1,-.1,.1v.5c0,.1,0,.3,-.2,.3c0,0,-.1,-.2,-.1,-.3v-.5h-.8v-1.2c0,-.2,.2,-.2,.2,-.2Zm3.6,0h.2c0,0,.1,0,.1,.2c0,0,0,.1,-.1,.1v.8h.9c.2,0,.2,.2,.2,.2v.7c0,0,0,.2,-.2,.2h-1.1c0,0,-.1,-.2,-.1,-.2v-1.8c0,-.2,.1,-.2,.1,-.2Zm2,0h1.1v.8q0,.1,0,.1l-.5,.4c0,0,0,.1,0,.1v.5c0,.1,0,.3,-.1,.3c-.2,0,-.2,-.2,-.2,-.3v-.6l.5,-.5q.1,0,.1,-.2v-.3h-1v-.1q0,-.2,.1,-.2Zm3.8,0h.7c0,0,.1,0,.1,.2v.7q.2,0,.2,.4v.6c0,.1,0,.3,-.2,.3h-.9c-.2,0,-.2,-.2,-.2,-.3v-.6c0,-.2,0,-.4,.2,-.4v-.7c0,-.2,.1,-.2,.1,-.2Zm1.7,0h1.1c0,0,.1,0,.1,.2v1.8c0,0,-.1,.2,-.1,.2h-.2c0,0,-.1,-.2,-.1,-.2c0,-.1,.1,-.1,.1,-.1v-1h-.9q-.1,0,-.1,-.1v-.6c0,-.2,.1,-.2,.1,-.2Zm2,0h.9c.2,0,.2,.2,.2,.3v1.6c0,.1,0,.3,-.2,.3h-.9c-.1,0,-.1,-.2,-.1,-.3v-1.6c0,-.1,0,-.3,.1,-.3Zm1.8,0h.6v1.9h.4v-.6c0,0,0,-.2,.1,-.2c0,0,.2,.2,.2,.2v.6c0,.1,-.2,.3,-.2,.3h-1.1c0,0,-.1,-.2,-.1,-.2c0,-.1,.1,-.1,.1,-.1h.3v-1.6h-.3c0,0,-.1,-.1,-.1,-.1c0,-.2,.1,-.2,.1,-.2Zm3.7,0h.9c.2,0,.3,0,.3,.3v.6c0,.2,-.1,.4,-.3,.4h-.7v.6h.9c0,0,.1,0,.1,.1c0,0,-.1,.2,-.1,.2h-1.2v-.9c0,-.4,.1,-.4,.3,-.4h.7v-.6h-.9c0,0,-.1,-.1,-.1,-.1q0,-.2,.1,-.2Zm1.8,0h1q.3,0,.3,.2v.6q0,.1,0,.3c0,0,0,.2,0,.2v.6c0,.1,0,.3,-.3,.3h-1c0,0,0,-.2,0,-.2q0,-.1,0,-.1h1v-.5q0,-.1,0,-.1h-.7c0,0,-.1,-.2,-.1,-.2c0,-.2,.1,-.2,.1,-.2h.7c0,0,0,-.1,0,-.1v-.5h-1c0,0,0,-.1,0,-.1q0,-.2,0,-.2Zm2.2,0c0,0,.1,0,.1,.2v.9h.5v-.8c0,0,.1,-.1,.1,-.1c0,0,.2,.1,.2,.1v.8c.1,0,.1,.2,.1,.2c0,0,-.1,.1,-.1,.1v.5c0,.1,-.2,.3,-.2,.3c0,0,-.1,-.2,-.1,-.3v-.5h-.8v-1.2q0,-.2,.2,-.2Zm-20.6,0h.7q.2,0,.2,.2c0,0,0,.1,-.2,.1h-.6v.6h.6q.2,0,.2,.4v.6c0,.1,0,.3,-.2,.3h-.6c-.1,0,-.1,-.2,-.1,-.2h-.4q0,-.1,0,-.1q0,-.2,0,-.2q.2,0,.2,0l.2,.2h.7v-.6h-.7v-1.3Zm22.4,0h.9q.2,0,.2,.2c0,0,0,.1,-.2,.1h-.6v.6h.5c.1,0,.3,0,.3,.4v.6c0,.1,-.2,.3,-.3,.3h-.6c0,0,0,-.2,-.2,-.2h-.1q0,-.1,0,-.1q0,-.2,0,-.2h.1l.2,.2h.6v-.6h-.8v-1.3Zm-14.8,.3v.6h.3v-.6h-.3Zm-19,0v1.6h.8v-1.6h-.8Zm20.7,0v.3h.7v-.3h-.7Zm1.8,0v1.6h.9v-1.6h-.9Zm-3.8,1v.6h.9v-.6h-.9Zm-5.5,.1v.5h.7v-.5h-.7Z" class="g2_1" />
<path fill-rule="evenodd" d="M1030,769.9c-1,0,-1.8,1,-1.8,2v57.3c0,.9,.8,1.9,1.8,1.9h35l-.1,.6l-1.6,7.5h-4.2v2.7h25.6v-2.7h-4.4l-1.5,-7.5l-.2,-.6h36.8c1.1,0,1.9,-1,1.9,-1.9V771.9c0,-1,-.8,-2,-1.9,-2H1030Zm42.8,1.9c.5,0,.8,.3,.8,.7c0,.7,-.3,1,-.8,1c-.5,0,-.9,-.3,-.9,-1c0,-.4,.4,-.7,.9,-.7Zm-39.6,3.9h79v45h-79v-45Z" class="g3_1" />
<path fill-rule="evenodd" d="M1030,766.9c-1,0,-1.8,.9,-1.8,2v57.3c0,.9,.8,1.8,1.8,1.8h35l-.1,.6l-1.6,7.3h-4.2v2.9h25.6v-2.9h-4.4l-1.5,-7.3l-.2,-.6h36.8c1.1,0,1.9,-.9,1.9,-1.8V768.9c0,-1.1,-.8,-2,-1.9,-2H1030Zm42.8,1.8c.5,0,.8,.3,.8,.8c0,.4,-.3,.9,-.8,.9c-.5,0,-.9,-.5,-.9,-.9c0,-.5,.4,-.8,.9,-.8Zm-39.6,4h79v44.9h-79V772.7Z" class="g5_1" />
<path d="M1062.4,534.2V747.6" class="g6_1" />
<path fill-rule="evenodd" d="M1062.4,525.7l4.8,9.1h-9.4l4.6,-9.1Z" class="g7_1" />
<path d="M1097.4,533.7V747.3" class="g6_1" />
<path fill-rule="evenodd" d="M1097.4,755.9l-4.6,-9.2h9.2l-4.6,9.2Z" class="g7_1" />
<path fill-rule="evenodd" d="M1023.5,584.3c-1.7,0,-2.9,1.2,-2.9,2.9V608c0,1.5,1.2,2.9,2.9,2.9h34.9c1.6,0,2.9,-1.4,2.9,-2.9V587.2c0,-1.7,-1.3,-2.9,-2.9,-2.9h-34.9Zm1.9,8.7h.4v2.2h-2.5c0,-1.3,.9,-2.2,2.1,-2.2Zm1,0h3.2c1,0,2.1,.9,2.1,2.2h-5.3V593Zm-3.1,2.8h2.5v2h-2.5v-2Zm3.1,0h2.1v2h-2.1v-2Zm2.7,0h2.6v2h-2.6v-2Zm-5.8,2.4h2.5v2.2h-.4c-1.2,0,-2.1,-1,-2.1,-2.2Zm3.1,0h2.1v2.2h-2.1v-2.2Zm2.7,0h2.6c0,1.2,-1.1,2.2,-2.1,2.2h-.5v-2.2Zm-5.3,6.3h.7c.2,0,.2,.1,.2,.3v1.5c0,.2,-.2,.3,-.2,.3h-.7c-.2,0,-.3,-.1,-.3,-.3v-1.5c0,-.2,.1,-.3,.3,-.3Zm1.6,0h.7v1.8h.3v-.6c0,0,0,-.1,.1,-.1c.2,0,.2,.1,.2,.1v.8c0,0,0,.1,-.2,.1h-1.1c0,0,-.1,-.1,-.1,-.1c0,-.2,.1,-.2,.1,-.2h.5v-1.5h-.5c0,0,-.1,-.2,-.1,-.2c0,-.1,.1,-.1,.1,-.1Zm2,0h.9c0,0,.2,.1,.2,.3v.6c0,.2,-.2,.3,-.2,.3h-.9v.6h.9q.2,0,.2,.2c0,0,0,.1,-.2,.1h-1v-.9c0,-.1,0,-.3,.1,-.3h.9v-.6h-.9c-.1,0,-.1,-.2,-.1,-.2q0,-.1,.1,-.1Zm1.9,0h.9c.1,0,.3,.1,.3,.1v.6c0,.2,-.2,.2,-.2,.4c0,0,.2,.1,.2,.3v.4c0,.2,-.2,.3,-.3,.3h-.9c0,0,-.2,-.1,-.2,-.1c0,-.2,.2,-.2,.2,-.2h.9v-.4q0,-.2,-.2,-.2h-.4c-.2,0,-.2,-.1,-.2,-.1q0,-.2,.2,-.2h.4c.2,0,.2,-.2,.2,-.2v-.4h-.9c0,0,-.2,-.2,-.2,-.2c0,-.1,.2,-.1,.2,-.1Zm3.8,0q.1,0,.1,.1v1h.5v-.8c0,0,.1,-.2,.1,-.2c.2,0,.2,.2,.2,.2v.8c.2,0,.2,.1,.2,.1q0,.2,-.2,.2v.6c0,0,0,.1,-.2,.1c0,0,-.1,-.1,-.1,-.1v-.6h-.8v-1.3q0,-.1,.2,-.1Zm3.6,0h.2c0,0,.2,0,.2,.1c0,0,0,.2,-.2,.2v.8h.9c.2,0,.2,.1,.2,.1v.8c0,0,0,.1,-.2,.1h-1.1c0,0,-.1,-.1,-.1,-.1v-1.9c0,-.1,.1,-.1,.1,-.1Zm2,0h1.1v.7q0,.2,0,.2l-.5,.3q0,.2,0,.2v.6c0,0,0,.1,-.1,.1c-.2,0,-.2,-.1,-.2,-.1v-.8l.5,-.5q.2,0,.2,-.1v-.3h-1c0,0,0,.1,-.1,.1c0,0,-.2,-.1,-.2,-.3c0,-.1,.2,-.1,.3,-.1Zm3.9,0h.6c0,0,.1,0,.1,.1v.8c.2,0,.2,.2,.2,.3v.6c0,.2,0,.3,-.2,.3h-.9c-.1,0,-.1,-.1,-.1,-.3v-.6c0,-.1,0,-.3,.1,-.3v-.8c0,-.1,.2,-.1,.2,-.1Zm1.6,0h1.1c0,0,.2,0,.2,.1v1.9c0,0,-.2,.1,-.2,.1h-.1c0,0,-.2,-.1,-.2,-.1c0,-.2,.2,-.2,.2,-.2v-.9h-1q-.1,0,-.1,-.2v-.6c0,-.1,.1,-.1,.1,-.1Zm2,0h.9c0,0,.2,.1,.2,.3v1.5c0,.2,-.2,.3,-.2,.3h-.9c-.1,0,-.1,-.1,-.1,-.3v-1.5c0,-.2,0,-.3,.1,-.3Zm1.9,0h.6v1.8h.3v-.6c0,0,0,-.1,.1,-.1c0,0,.2,.1,.2,.1v.8c0,0,-.2,.1,-.2,.1h-1c0,0,-.2,-.1,-.2,-.1c0,-.2,.2,-.2,.2,-.2h.3v-1.5h-.3c0,0,-.2,-.2,-.2,-.2c0,-.1,.2,-.1,.2,-.1Zm3.6,0h.9c.2,0,.3,.1,.3,.3v.6c0,.2,-.1,.3,-.3,.3h-.7v.6h.9c0,0,.1,0,.1,.2c0,0,-.1,.1,-.1,.1h-1.2v-.9c0,-.1,.1,-.3,.3,-.3h.7v-.6h-.9c0,0,-.1,-.2,-.1,-.2q0,-.1,.1,-.1Zm1.9,0h.9c.1,0,.3,.1,.3,.1v.6q0,.2,-.2,.4c.2,0,.2,.1,.2,.3v.4c0,.2,-.2,.3,-.3,.3h-.9c0,0,0,-.1,0,-.1q0,-.2,0,-.2h.9v-.4q0,-.2,0,-.2h-.6c0,0,-.2,-.1,-.2,-.1c0,-.2,.2,-.2,.2,-.2h.6c0,0,0,-.2,0,-.2v-.4h-.9c0,0,0,-.2,0,-.2q0,-.1,0,-.1Zm2.1,0c0,0,.1,0,.1,.1v1h.5v-.8c0,0,.2,-.2,.2,-.2c0,0,.1,.2,.1,.2v.8c.2,0,.2,.1,.2,.1c0,.2,-.2,.2,-.2,.2v.6c0,0,-.1,.1,-.1,.1c0,0,-.2,-.1,-.2,-.1v-.6h-.8v-1.3q0,-.1,.2,-.1Zm-20.6,0h.7q.2,0,.2,.1c0,0,0,.2,-.2,.2h-.6v.6h.6c0,0,.2,.2,.2,.3v.6c0,.2,-.2,.3,-.2,.3h-.6c-.1,0,-.1,-.1,-.1,-.1h-.3v-.2q0,-.1,0,-.1q.1,0,.1,0l.2,.1h.7v-.6h-.7v-1.2Zm22.4,0h.9q.2,0,.2,.1c0,0,0,.2,-.2,.2h-.6v.6h.5c.1,0,.3,.2,.3,.3v.6c0,.2,-.2,.3,-.3,.3h-.6c0,0,-.2,-.1,-.2,-.1h-.1v-.2q0,-.1,0,-.1h.1l.2,.1h.6v-.6h-.8v-1.2Zm-14.8,.3v.6h.3v-.6h-.3Zm-18.9,0v1.5h.7v-1.5h-.7Zm20.6,0v.4h.8v-.4h-.8Zm1.8,0v1.5h.9v-1.5h-.9Zm-3.8,.9v.6h.9v-.6h-.9Zm-5.5,.2v.4h.8v-.4h-.8Z" class="g3_1" />
<path fill-rule="evenodd" d="M1023.5,581.3c-1.7,0,-2.9,1.2,-2.9,2.9v20.7c0,1.6,1.2,2.9,2.9,2.9h34.9c1.6,0,2.9,-1.3,2.9,-2.9V584.2c0,-1.7,-1.3,-2.9,-2.9,-2.9h-34.9Zm1.9,8.7h.4v2.1h-2.5c0,-1.2,.9,-2.1,2.1,-2.1Zm1,0h3.2c1,0,2.1,.9,2.1,2.1h-5.3V590Zm-3.1,2.7h2.5v1.9h-2.5v-1.9Zm3.1,0h2.1v1.9h-2.1v-1.9Zm2.7,0h2.6v1.9h-2.6v-1.9Zm-5.8,2.5h2.5v2.1h-.4c-1.2,0,-2.1,-.9,-2.1,-2.1Zm3.1,0h2.1v2.1h-2.1v-2.1Zm2.7,0h2.6c0,1.2,-1.1,2.1,-2.1,2.1h-.5v-2.1Zm-5.3,6.2h.7c.2,0,.2,.2,.2,.3v1.6c0,.1,-.2,.3,-.2,.3h-.7c-.2,0,-.3,-.2,-.3,-.3v-1.6c0,-.1,.1,-.3,.3,-.3Zm1.6,0h.7v1.9h.3v-.6c0,0,0,-.2,.1,-.2c.2,0,.2,.2,.2,.2v.6c0,.1,0,.3,-.2,.3h-1.1c0,0,-.1,-.2,-.1,-.2c0,-.1,.1,-.1,.1,-.1h.5v-1.6h-.5c0,0,-.1,-.1,-.1,-.1c0,-.2,.1,-.2,.1,-.2Zm2,0h.9c0,0,.2,0,.2,.3v.6c0,.2,-.2,.4,-.2,.4h-.9v.6h.9q.2,0,.2,.1c0,0,0,.2,-.2,.2h-1v-.9q0,-.4,.1,-.4h.9v-.6h-.9c-.1,0,-.1,-.1,-.1,-.1q0,-.2,.1,-.2Zm1.9,0h.9c.1,0,.3,0,.3,.2v.6c0,.1,-.2,.1,-.2,.3c0,0,.2,.2,.2,.2v.6c0,.1,-.2,.3,-.3,.3h-.9c0,0,-.2,-.2,-.2,-.2c0,-.1,.2,-.1,.2,-.1h.9v-.5q0,-.1,-.2,-.1h-.4c-.2,0,-.2,-.2,-.2,-.2q0,-.2,.2,-.2h.4c.2,0,.2,-.1,.2,-.1v-.5h-.9c0,0,-.2,-.1,-.2,-.1c0,-.2,.2,-.2,.2,-.2Zm3.8,0q.1,0,.1,.2v.9h.5v-.8c0,0,.1,-.1,.1,-.1c.2,0,.2,.1,.2,.1v.8c.2,0,.2,.2,.2,.2c0,0,0,.1,-.2,.1v.5c0,.1,0,.3,-.2,.3c0,0,-.1,-.2,-.1,-.3v-.5h-.8v-1.2q0,-.2,.2,-.2Zm3.6,0h.2c0,0,.2,0,.2,.2c0,0,0,.1,-.2,.1v.8h.9c.2,0,.2,.2,.2,.2v.7c0,0,0,.2,-.2,.2h-1.1c0,0,-.1,-.2,-.1,-.2v-1.8c0,-.2,.1,-.2,.1,-.2Zm2,0h1.1v.8q0,.1,0,.1l-.5,.4c0,0,0,.1,0,.1v.5c0,.1,0,.3,-.1,.3c-.2,0,-.2,-.2,-.2,-.3v-.6l.5,-.5q.2,0,.2,-.2v-.3h-1.1c0,0,-.2,0,-.2,-.1c0,-.2,.2,-.2,.3,-.2Zm3.9,0h.6c0,0,.1,0,.1,.2v.7q.2,0,.2,.4v.6c0,.1,0,.3,-.2,.3h-.9c-.1,0,-.1,-.2,-.1,-.3v-.6c0,-.2,0,-.4,.1,-.4v-.7c0,-.2,.2,-.2,.2,-.2Zm1.6,0h1.1c0,0,.2,0,.2,.2v1.8c0,0,-.2,.2,-.2,.2h-.1c0,0,-.2,-.2,-.2,-.2c0,-.1,.2,-.1,.2,-.1v-1h-1q-.1,0,-.1,-.1v-.6c0,-.2,.1,-.2,.1,-.2Zm2,0h.9c0,0,.2,.2,.2,.3v1.6c0,.1,-.2,.3,-.2,.3h-.9c-.1,0,-.1,-.2,-.1,-.3v-1.6c0,-.1,0,-.3,.1,-.3Zm1.9,0h.6v1.9h.3v-.6c0,0,0,-.2,.1,-.2c0,0,.2,.2,.2,.2v.6c0,.1,-.2,.3,-.2,.3h-1c0,0,-.2,-.2,-.2,-.2c0,-.1,.2,-.1,.2,-.1h.3v-1.6h-.3c0,0,-.2,-.1,-.2,-.1c0,-.2,.2,-.2,.2,-.2Zm3.6,0h.9c.2,0,.3,0,.3,.3v.6c0,.2,-.1,.4,-.3,.4h-.7v.6h.9c0,0,.1,0,.1,.1c0,0,-.1,.2,-.1,.2h-1.2v-.9c0,-.4,.1,-.4,.3,-.4h.7v-.6h-.9c0,0,-.1,-.1,-.1,-.1q0,-.2,.1,-.2Zm1.9,0h.9c.1,0,.3,0,.3,.2v.6q0,.1,-.2,.3c.2,0,.2,.2,.2,.2v.6c0,.1,-.2,.3,-.3,.3h-.9c0,0,0,-.2,0,-.2q0,-.1,0,-.1h.9v-.5q0,-.1,0,-.1h-.6c0,0,-.2,-.2,-.2,-.2c0,-.2,.2,-.2,.2,-.2h.6c0,0,0,-.1,0,-.1v-.5h-.9c0,0,0,-.1,0,-.1q0,-.2,0,-.2Zm2.1,0c0,0,.1,0,.1,.2v.9h.5v-.8c0,0,.2,-.1,.2,-.1c0,0,.1,.1,.1,.1v.8c.2,0,.2,.2,.2,.2c0,0,-.2,.1,-.2,.1v.5c0,.1,-.1,.3,-.1,.3c0,0,-.2,-.2,-.2,-.3v-.5h-.8v-1.2q0,-.2,.2,-.2Zm-20.6,0h.7q.2,0,.2,.2c0,0,0,.1,-.2,.1h-.6v.6h.6c0,0,.2,0,.2,.4v.6c0,.1,-.2,.3,-.2,.3h-.6c-.1,0,-.1,-.2,-.1,-.2h-.3q0,-.1,0,-.1q0,-.2,0,-.2q.1,0,.1,0l.2,.2h.7v-.6h-.7v-1.3Zm22.4,0h.9q.2,0,.2,.2c0,0,0,.1,-.2,.1h-.6v.6h.5c.1,0,.3,0,.3,.4v.6c0,.1,-.2,.3,-.3,.3h-.6c0,0,-.2,-.2,-.2,-.2h-.1q0,-.1,0,-.1q0,-.2,0,-.2h.1l.2,.2h.6v-.6h-.8v-1.3Zm-14.8,.3v.6h.3v-.6h-.3Zm-18.9,0v1.6h.7v-1.6h-.7Zm20.6,0v.3h.8v-.3h-.8Zm1.8,0v1.6h.9v-1.6h-.9Zm-3.8,1v.6h.9v-.6h-.9Zm-5.5,.1v.5h.8v-.5h-.8Z" class="g9_1" />
<path fill-rule="evenodd" d="M1086.7,617c0,4.1,2.8,8,7,10.2c-4.2,2.3,-7,6.2,-7,10.3c0,4.3,2.8,8.1,7,10.4c-4.2,2.3,-7,6.1,-7,10.2c0,4.1,2.8,8,7,10.2c-4.2,2.3,-7,6.3,-7,10.4h3.1c0,-.7,.1,-1.6,.4,-2.3h15.5c.3,.7,.4,1.6,.4,2.3h3.1c0,-4.1,-2.6,-8.1,-7.1,-10.4c4.5,-2.2,7.1,-6.1,7.1,-10.2c0,-4.1,-2.6,-7.9,-7.1,-10.2c4.5,-2.3,7.1,-6.1,7.1,-10.4c0,-4.1,-2.6,-8,-7.1,-10.3c4.5,-2.2,7.1,-6.1,7.1,-10.2h-3.1c0,.8,-.1,1.5,-.4,2.2h-15.5c-.3,-.7,-.4,-1.4,-.4,-2.2h-3.1Zm4.4,4h13.6c-1.3,2.1,-3.6,3.8,-6.7,4.7h-.1c-2.9,-.9,-5.4,-2.6,-6.8,-4.7Zm6.8,7.9c3.2,.9,5.5,2.6,6.8,4.6h-13.6c1.4,-2,3.9,-3.7,6.8,-4.6Zm-7.7,6.4h15.5c.3,.8,.4,1.4,.4,2.2c0,.7,-.1,1.5,-.4,2.1h-15.5c-.3,-.6,-.4,-1.4,-.4,-2.1c0,-.8,.1,-1.4,.4,-2.2Zm.9,6.3h13.6c-1.3,2,-3.6,3.7,-6.8,4.6c-2.9,-.9,-5.4,-2.6,-6.8,-4.6Zm6.8,7.8c3,.9,5.5,2.6,6.8,4.6h-13.6c1.4,-2,3.9,-3.7,6.8,-4.6Zm-7.7,6.6h15.5c.3,.6,.4,1.3,.4,2.1c0,.8,-.1,1.4,-.3,2.1h-15.7c-.2,-.7,-.3,-1.3,-.3,-2.1c0,-.8,.1,-1.5,.4,-2.1Zm.8,6.1h13.9c-1.4,2,-3.8,3.6,-7,4.7c-3.1,-1.1,-5.5,-2.7,-6.9,-4.7Zm6.9,7.9c3,.9,5.5,2.5,6.8,4.5h-13.6c1.4,-2,3.9,-3.6,6.8,-4.5Z" class="g3_1" />
<path fill-rule="evenodd" d="M1086.7,614c0,4.1,2.8,7.9,7,10.2c-4.2,2.3,-7,6.1,-7,10.2c0,4.3,2.8,8.1,7,10.4c-4.2,2.3,-7,6.1,-7,10.3c0,4.1,2.8,7.9,7,10.2c-4.2,2.3,-7,6.3,-7,10.4h3.1c0,-.9,.1,-1.7,.4,-2.5h15.5c.3,.8,.4,1.6,.4,2.5h3.1c0,-4.1,-2.6,-8.1,-7.1,-10.4c4.5,-2.3,7.1,-6.1,7.1,-10.2c0,-4.2,-2.6,-8,-7.1,-10.3c4.5,-2.3,7.1,-6.1,7.1,-10.4c0,-4.1,-2.6,-7.9,-7.1,-10.2c4.5,-2.3,7.1,-6.1,7.1,-10.2h-3.1c0,.7,-.1,1.3,-.4,2.1h-15.5c-.3,-.8,-.4,-1.4,-.4,-2.1h-3.1Zm4.4,3.9h13.6c-1.3,2.2,-3.6,3.8,-6.7,4.8h-.1c-2.9,-1,-5.4,-2.6,-6.8,-4.8Zm6.8,8c3.2,.9,5.5,2.6,6.8,4.6h-13.6c1.4,-2,3.9,-3.7,6.8,-4.6Zm-7.7,6.4h15.5c.3,.8,.4,1.4,.4,2.1c0,.8,-.1,1.6,-.4,2.2h-15.5c-.3,-.6,-.4,-1.4,-.4,-2.2c0,-.7,.1,-1.3,.4,-2.1Zm.9,6.3h13.6c-1.3,1.9,-3.6,3.6,-6.8,4.5c-2.9,-.9,-5.4,-2.6,-6.8,-4.5Zm6.8,7.7c3,1,5.5,2.6,6.8,4.6h-13.6c1.4,-2,3.9,-3.6,6.8,-4.6Zm-7.7,6.5h15.5c.3,.7,.4,1.5,.4,2.3c0,.7,-.1,1.3,-.3,1.9h-15.7c-.2,-.6,-.3,-1.2,-.3,-1.9c0,-.8,.1,-1.6,.4,-2.3Zm.8,6.2h13.9c-1.4,2,-3.8,3.7,-7,4.8c-3.1,-1.1,-5.5,-2.8,-6.9,-4.8Zm6.9,8c3,.9,5.5,2.4,6.8,4.4h-13.6c1.4,-2,3.9,-3.5,6.8,-4.4Z" class="g8_1" />
<path fill-rule="evenodd" d="M1222.7,634.4c0,4.2,2.7,8,7,10.3c-4.3,2.3,-7,6.1,-7,10.4c0,4.1,2.7,7.9,7,10.2c-4.3,2.3,-7,6.1,-7,10.2c0,4.2,2.7,8.1,7.2,10.4c-4.5,2.3,-7.2,6.1,-7.2,10.3h3.2c0,-.8,.1,-1.6,.3,-2.3h15.4c.3,.7,.5,1.5,.5,2.3h3.2c0,-4.2,-2.8,-8,-7.2,-10.3c4.4,-2.3,7.2,-6.2,7.2,-10.4c0,-4.1,-2.8,-7.9,-7,-10.2c4.2,-2.3,7,-6.1,7,-10.2c0,-4.3,-2.8,-8.1,-7,-10.4c4.2,-2.3,7,-6.1,7,-10.3h-3.2c0,.8,-.2,1.6,-.3,2.2h-15.6c-.2,-.6,-.3,-1.4,-.3,-2.2h-3.2Zm4.4,4.2h13.8c-1.6,1.9,-3.9,3.6,-6.9,4.5c-3.1,-.9,-5.5,-2.6,-6.9,-4.5Zm6.9,7.7c3,1,5.3,2.6,6.9,4.6h-13.8c1.4,-2,3.8,-3.6,6.9,-4.6Zm-7.8,6.5h15.6c.1,.7,.3,1.5,.3,2.3c0,.6,-.2,1.3,-.3,2.1h-15.6c-.2,-.8,-.3,-1.5,-.3,-2.1c0,-.8,.1,-1.6,.3,-2.3Zm.9,6.2h13.8c-1.4,2,-3.9,3.7,-6.9,4.6c-3.1,-.9,-5.5,-2.6,-6.9,-4.6Zm6.9,8c3,.7,5.3,2.4,6.7,4.6h-13.4c1.3,-2.2,3.6,-3.9,6.7,-4.6Zm-7.8,6.4h15.4c.3,.6,.5,1.4,.5,2.1c0,.8,-.2,1.6,-.3,2.2h-15.6c-.3,-.6,-.3,-1.4,-.3,-2.2c0,-.7,.1,-1.5,.3,-2.1Zm.9,6.1h13.8c-1.4,2.1,-3.9,3.8,-6.9,4.7c-3.1,-.9,-5.5,-2.6,-6.9,-4.7Zm6.9,7.9c3,1,5.3,2.6,6.7,4.6h-13.4c1.3,-2,3.6,-3.6,6.7,-4.6Z" class="g3_1" />
<path fill-rule="evenodd" d="M1222.7,631.4c0,4.1,2.7,7.9,7,10.2c-4.3,2.3,-7,6.1,-7,10.2c0,4.3,2.7,8.1,7,10.4c-4.3,2.3,-7,6.1,-7,10.3c0,4.1,2.7,8.1,7.2,10.4c-4.5,2.3,-7.2,6.1,-7.2,10.2h3.2c0,-.8,.1,-1.5,.3,-2.3h15.4c.3,.8,.5,1.5,.5,2.3h3.2c0,-4.1,-2.8,-7.9,-7.2,-10.2c4.4,-2.3,7.2,-6.3,7.2,-10.4c0,-4.2,-2.8,-8,-7,-10.3c4.2,-2.3,7,-6.1,7,-10.4c0,-4.1,-2.8,-7.9,-7,-10.2c4.2,-2.3,7,-6.1,7,-10.2h-3.2c0,.7,-.2,1.5,-.3,2.1h-15.6c-.2,-.6,-.3,-1.4,-.3,-2.1h-3.2Zm4.4,3.9h13.8c-1.6,2.2,-3.9,3.9,-6.9,4.8c-3.1,-.9,-5.5,-2.6,-6.9,-4.8Zm6.9,8c3,.9,5.3,2.6,6.9,4.6h-13.8c1.4,-2,3.8,-3.7,6.9,-4.6Zm-7.8,6.4h15.6c.1,.8,.3,1.5,.3,2.1c0,.8,-.2,1.6,-.3,2.3h-15.6c-.2,-.7,-.3,-1.5,-.3,-2.3c0,-.6,.1,-1.3,.3,-2.1Zm.9,6.3h13.8c-1.4,2,-3.9,3.6,-6.9,4.6c-3.1,-1,-5.5,-2.6,-6.9,-4.6Zm6.9,7.8c3,.9,5.3,2.6,6.7,4.5h-13.4c1.3,-1.9,3.6,-3.6,6.7,-4.5Zm-7.8,6.5h15.4c.3,.6,.5,1.4,.5,2.2c0,.7,-.2,1.3,-.3,2.1h-15.6c-.3,-.8,-.3,-1.4,-.3,-2.1c0,-.8,.1,-1.6,.3,-2.2Zm.9,6.1h13.8c-1.4,2,-3.9,3.9,-6.9,4.8c-3.1,-.9,-5.5,-2.8,-6.9,-4.8Zm6.9,8c3,.9,5.3,2.4,6.7,4.6h-13.4c1.3,-2.2,3.6,-3.7,6.7,-4.6Z" class="g8_1" />
<path fill-rule="evenodd" d="M848.5,602.5v17.7h20.3V705H818.4V684.5H808.3V705h-10V684.5h-10V705H737.5V620.2h20.7V602.5h90.3Zm-10.1,9.2h-9.9v8.5h9.9v-8.5Zm-20,0H808.3v8.5h10.1v-8.5Zm-20.1,0h-10v8.5h10v-8.5Zm-20.1,0h-9.9v8.5h9.9v-8.5Zm80.3,18.1h-10v8.8h10v-8.8Zm-20.1,0h-9.9v8.8h9.9v-8.8Zm-20,0H808.3v8.8h10.1v-8.8Zm-20.1,0h-10v8.8h10v-8.8Zm-20.1,0h-9.9v8.8h9.9v-8.8Zm-20,0h-9.9v8.8h9.9v-8.8ZM858.5,648h-10v8.7h10V648Zm-20.1,0h-9.9v8.7h9.9V648Zm-60.2,0h-9.9v8.7h9.9V648Zm-20,0h-9.9v8.7h9.9V648Zm45,.6c-6.9,0,-12.6,5.5,-12.6,12.6c0,6.8,5.7,12.5,12.6,12.5c6.8,0,12.5,-5.7,12.5,-12.5c0,-7.1,-5.7,-12.6,-12.5,-12.6Zm2.9,4.6v4.9h4.8v6h-4.8V669h-5.9v-4.9h-4.8v-6h4.8v-4.9h5.9Zm52.4,13.2h-10v8.5h10v-8.5Zm-20.1,0h-9.9v8.5h9.9v-8.5Zm-60.2,0h-9.9v8.5h9.9v-8.5Zm-20,0h-9.9v8.5h9.9v-8.5Zm100.3,18.1h-10v8.6h10v-8.6Zm-20.1,0h-9.9v8.6h9.9v-8.6Zm-60.2,0h-9.9v8.6h9.9v-8.6Zm-20,0h-9.9v8.6h9.9v-8.6Z" class="g1_1" />
<path fill-rule="evenodd" d="M848.5,602.5v17.7h20.3V705H818.4V684.5H808.3V705h-10V684.5h-10V705H737.5V620.2h20.7V602.5h90.3Zm-10.1,9.2h-9.9v8.5h9.9v-8.5Zm-20,0H808.3v8.5h10.1v-8.5Zm-20.1,0h-10v8.5h10v-8.5Zm-20.1,0h-9.9v8.5h9.9v-8.5Zm80.3,18.1h-10v8.8h10v-8.8Zm-20.1,0h-9.9v8.8h9.9v-8.8Zm-20,0H808.3v8.8h10.1v-8.8Zm-20.1,0h-10v8.8h10v-8.8Zm-20.1,0h-9.9v8.8h9.9v-8.8Zm-20,0h-9.9v8.8h9.9v-8.8ZM858.5,648h-10v8.7h10V648Zm-20.1,0h-9.9v8.7h9.9V648Zm-60.2,0h-9.9v8.7h9.9V648Zm-20,0h-9.9v8.7h9.9V648Zm45,.6c-6.9,0,-12.6,5.5,-12.6,12.6c0,6.8,5.7,12.5,12.6,12.5c6.8,0,12.5,-5.7,12.5,-12.5c0,-7.1,-5.7,-12.6,-12.5,-12.6Zm2.9,4.6v4.9h4.8v6h-4.8V669h-5.9v-4.9h-4.8v-6h4.8v-4.9h5.9Zm52.4,13.2h-10v8.5h10v-8.5Zm-20.1,0h-9.9v8.5h9.9v-8.5Zm-60.2,0h-9.9v8.5h9.9v-8.5Zm-20,0h-9.9v8.5h9.9v-8.5Zm100.3,18.1h-10v8.6h10v-8.6Zm-20.1,0h-9.9v8.6h9.9v-8.6Zm-60.2,0h-9.9v8.6h9.9v-8.6Zm-20,0h-9.9v8.6h9.9v-8.6Z" class="g9_1" />
<path d="M989.1,490.5l-139,95.3" class="g6_1" />
<path fill-rule="evenodd" d="M843,590.6l5.1,-9l5.2,7.6L843,590.6Z" class="g7_1" />
<text x="942" y="502" class="s1_1">?</text>
<path d="M1014.9,523.5l-139,95.2" class="g6_1" />
<path fill-rule="evenodd" d="M1021.9,518.6l-4.9,9l-5.2,-7.6l10.1,-1.4Z" class="g7_1" />
<text x="960" y="609" class="s1_1">!</text>
<path fill-rule="evenodd" d="M947.2,582.6c.3,0,.5,0,.6,.2c.8,.6,1.6,1.8,1.4,3.7c-.3,3,-3,4.1,-1.1,7.4c0,0,1.6,-.1,4.5,.5c2.6,.5,3.6,.2,4.7,.8c1.8,.9,1.2,3.3,-.6,4.1c1.7,1.1,2,3.5,-.8,4.6c1.7,1.5,1.7,3.6,-.7,4.3c1.5,1.6,.1,3.8,-1.7,3.8c-13,0,-10.9,-.9,-15,-.9c-4.6,0,-7.6,1.6,-7.6,1.6V599.1c0,0,3.8,-1,6.4,-2.4c1.1,-.6,2.1,-1.2,3.2,-4.9c1.1,-3.4,3.4,-3.7,4.1,-5c.6,-.8,1.2,-2.5,1.9,-3.7c0,-.3,.4,-.5,.7,-.5Z" class="g3_1" />
<path fill-rule="evenodd" d="M947.2,579.4c.3,0,.5,.2,.6,.3c.8,.6,1.6,1.9,1.4,3.5c-.3,3.3,-3,4.3,-1.1,7.7c0,0,1.6,-.2,4.5,.4c2.6,.5,3.6,0,4.7,.7c1.8,1,1.2,3.5,-.6,4.2c1.7,1.1,2,3.5,-.8,4.6c1.7,1.5,1.7,3.7,-.7,4.3c1.5,1.7,.1,3.8,-1.7,3.8c-13,0,-10.9,-1.1,-15,-1.1c-4.6,0,-7.6,1.9,-7.6,1.9V595.9c0,0,3.8,-1,6.4,-2.3c1.1,-.6,2.1,-1.2,3.2,-4.9c1.1,-3.3,3.4,-3.8,4.1,-5c.6,-.8,1.2,-2.4,1.9,-3.7c0,-.3,.4,-.6,.7,-.6Z" class="g8_1" />
<path fill-rule="evenodd" d="M903.1,482.9c-1.6,0,-2.8,1.3,-2.8,2.9v20.8c0,1.5,1.2,2.9,2.8,2.9h35.1c1.5,0,2.8,-1.4,2.8,-2.9V485.8c0,-1.6,-1.3,-2.9,-2.8,-2.9H903.1Zm2.1,8.7h.3v2.1h-2.4c0,-1,.9,-2.1,2.1,-2.1Zm.9,0h3.2c1.1,0,2.2,1.1,2.2,2.1h-5.4v-2.1Zm-3,2.7h2.4v2h-2.4v-2Zm3,0h2.2v2h-2.2v-2Zm2.8,0h2.6v2h-2.6v-2Zm-5.8,2.5h2.4v2.3h-.3c-1.2,0,-2.1,-1.1,-2.1,-2.2v-.1Zm3,0h2.2v2.3h-2.2v-2.3Zm2.8,0h2.6v.1c0,1.1,-1.1,2.2,-2.2,2.2h-.4v-2.3Zm-5.5,6.2h.7c.3,0,.3,.2,.3,.3v1.6c0,.1,-.1,.3,-.3,.3h-.7c0,0,-.2,-.2,-.2,-.3v-1.6c0,-.1,.2,-.3,.2,-.3Zm1.8,0h.6v1.9h.3v-.6h.2c0,0,.1,0,.1,0v.7c0,0,-.1,.2,-.1,.2h-1.1c-.1,0,-.1,-.2,-.1,-.2q0,-.1,.1,-.1h.5v-1.6h-.5q-.1,0,-.1,-.1q0,-.2,.1,-.2Zm1.8,0h1c.1,0,.3,.2,.3,.3v.7c0,.1,-.2,.3,-.3,.3h-.8v.6h.9q.2,0,.2,.1c0,0,0,.2,-.2,.2H907v-.9c0,-.2,0,-.3,.2,-.3h.8v-.7h-1v-.1q0,-.2,0,-.2Zm2,0h.9c.2,0,.3,.2,.3,.3v.5c0,.2,-.1,.2,-.1,.3c0,.2,.1,.2,.1,.3v.5c0,.1,-.1,.3,-.3,.3H909c-.1,0,-.1,-.2,-.1,-.2q0,-.1,.1,-.1h.9v-.5q0,-.1,-.1,-.1h-.5q-.1,0,-.1,-.2q0,-.1,.1,-.1h.5q.1,0,.1,-.2v-.5H909q-.1,0,-.1,-.1q0,-.2,.1,-.2Zm3.8,0c0,0,.2,0,.2,.2v1.1h.5v-1h.1q.2,0,.2,0v1c0,0,.1,0,.1,0c0,.1,-.1,.1,-.1,.1v.6c0,0,0,.2,-.2,.2c-.1,0,-.1,-.2,-.1,-.2v-.6h-.8v-1.2q0,-.2,.1,-.2Zm3.7,0h.2c0,0,.1,0,.1,.2c0,.1,-.1,.1,-.1,.1v1h.9c0,0,.1,0,.1,0v.7c0,0,-.1,.2,-.1,.2h-1.1c-.1,0,-.1,-.2,-.1,-.2v-1.8q0,-.2,.1,-.2Zm1.8,0h1.3v.8q0,.2,0,.2l-.5,.3q0,.1,0,.1v.6c0,0,-.1,.2,-.1,.2c-.2,0,-.2,-.2,-.2,-.2v-.7l.5,-.5v-.5h-.8c0,0,0,.2,-.2,.2c0,0,-.1,-.2,-.1,-.2v-.1c0,-.2,.1,-.2,.1,-.2Zm4,0h.6v1c.3,0,.3,.1,.3,.3v.6c0,.1,-.1,.3,-.3,.3h-.7c-.2,0,-.3,-.2,-.3,-.3v-.6c0,-.2,.1,-.3,.3,-.3v-.8c0,-.2,.1,-.2,.1,-.2Zm1.7,0h1.1c0,0,.1,0,.1,.2V505c0,0,-.1,.2,-.1,.2h-.2c-.1,0,-.1,-.2,-.1,-.2q0,-.1,.1,-.1V504H924q-.2,0,-.2,-.2v-.6q0,-.2,.2,-.2Zm2,0h.7c.2,0,.4,.2,.4,.3v1.6c0,.1,-.2,.3,-.4,.3H926c-.2,0,-.3,-.2,-.3,-.3v-1.6c0,-.1,.1,-.3,.3,-.3Zm1.8,0h.6v1.9h.3v-.6h.2c0,0,.1,0,.1,0v.7c0,0,-.1,.2,-.1,.2h-1.1c-.1,0,-.1,-.2,-.1,-.2q0,-.1,.1,-.1h.3v-1.6h-.3q-.1,0,-.1,-.1q0,-.2,.1,-.2Zm3.7,0h.9c.2,0,.3,.2,.3,.3v.7c0,.1,-.1,.3,-.3,.3h-.8v.6h1c0,0,.1,0,.1,.1c0,0,-.1,.2,-.1,.2h-1.3v-.9c0,-.2,.2,-.3,.3,-.3h.8v-.7h-.9q-.2,0,-.2,-.1q0,-.2,.2,-.2Zm1.8,0h.9c.2,0,.3,.2,.3,.3v.5q0,.2,-.1,.3q.1,.2,.1,.3v.5c0,.1,-.1,.3,-.3,.3h-.9c0,0,-.1,-.2,-.1,-.2c0,-.1,.1,-.1,.1,-.1h.9v-.5q0,-.1,-.1,-.1h-.5q-.1,0,-.1,-.2q0,-.1,.1,-.1h.5q.1,0,.1,-.2v-.5h-.9c0,0,-.1,0,-.1,-.1c0,-.2,.1,-.2,.1,-.2Zm2.2,0v1.3h.6v-1h.1c0,0,.2,0,.2,0v1c0,0,.1,0,.1,0c0,.1,-.1,.1,-.1,.1v.6c0,0,-.2,.2,-.2,.2c-.1,0,-.1,-.2,-.1,-.2v-.6h-.8v-1.2q0,-.2,.2,-.2Zm-20.8,0h.9q.2,0,.2,.2q0,.1,-.2,.1H915v.7h.4c.2,0,.4,.1,.4,.3v.6c0,.1,-.2,.3,-.4,.3h-.6c0,0,0,-.2,-.1,-.2h-.2c0,0,-.1,0,-.1,-.1c0,-.2,.1,-.2,.1,-.2c0,0,.2,0,.2,0l.1,.2h.6v-.6h-.7V503Zm22.6,0h.9q.2,0,.2,.2q0,.1,-.2,.1h-.6v.7h.5c.1,0,.3,.1,.3,.3v.6c0,.1,-.2,.3,-.3,.3h-.7c0,0,-.1,-.2,-.1,-.2h-.2c0,0,-.1,0,-.1,-.1c0,-.2,.1,-.2,.1,-.2h.2l.1,.2h.7v-.6h-.8V503Zm-14.8,.3v.7h.3v-.7h-.3Zm-19.1,0v1.6h.7v-1.6h-.7Zm20.8,0v.5h.7v-.5h-.7Zm1.8,0v1.6h.7v-1.6H926Zm-3.8,1v.6h.7v-.6h-.7Zm-5.5,.1v.5h.7v-.5h-.7Z" class="g3_1" />
<path fill-rule="evenodd" d="M903.1,479.8c-1.6,0,-2.8,1.2,-2.8,2.9v20.8c0,1.5,1.2,2.9,2.8,2.9h35.1c1.5,0,2.8,-1.4,2.8,-2.9V482.7c0,-1.7,-1.3,-2.9,-2.8,-2.9H903.1Zm2.1,8.7h.3v2.2h-2.4c0,-1.3,.9,-2.2,2.1,-2.2Zm.9,0h3.2c1.1,0,2.2,.9,2.2,2.2h-5.4v-2.2Zm-3,2.8h2.4v2h-2.4v-2Zm3,0h2.2v2h-2.2v-2Zm2.8,0h2.6v2h-2.6v-2Zm-5.8,2.4h2.4v2.2h-.3c-1.2,0,-2.1,-1,-2.1,-2.2Zm3,0h2.2v2.2h-2.2v-2.2Zm2.8,0h2.6c0,1.2,-1.1,2.2,-2.2,2.2h-.4v-2.2Zm-5.5,6.3h.7c.3,0,.3,.1,.3,.3v1.5c0,.2,-.1,.3,-.3,.3h-.7c0,0,-.2,-.1,-.2,-.3v-1.5c0,-.2,.2,-.3,.2,-.3Zm1.8,0h.6v1.8h.3v-.6c0,0,0,-.1,.2,-.1c0,0,.1,.1,.1,.1v.8c0,0,-.1,.1,-.1,.1h-1.1c-.1,0,-.1,-.1,-.1,-.1q0,-.2,.1,-.2h.5v-1.5h-.5c-.1,0,-.1,-.2,-.1,-.2q0,-.1,.1,-.1Zm1.8,0h1c.1,0,.3,.1,.3,.3v.6c0,.2,-.2,.3,-.3,.3h-.8v.6h.9q.2,0,.2,.2c0,0,0,.1,-.2,.1H907v-.9c0,-.1,0,-.3,.2,-.3h.8v-.6h-1c0,0,0,-.2,0,-.2q0,-.1,0,-.1Zm2,0h.9c.2,0,.3,.1,.3,.1v.6c0,.2,-.1,.2,-.1,.4c0,0,.1,.1,.1,.3v.4c0,.2,-.1,.3,-.3,.3H909c-.1,0,-.1,-.1,-.1,-.1q0,-.2,.1,-.2h.9v-.4q0,-.2,-.1,-.2h-.5c-.1,0,-.1,-.1,-.1,-.1q0,-.2,.1,-.2h.5c.1,0,.1,-.2,.1,-.2v-.4H909c-.1,0,-.1,-.2,-.1,-.2q0,-.1,.1,-.1Zm3.8,0c0,0,.2,0,.2,.1v1h.5v-.8c0,0,0,-.2,.1,-.2c.2,0,.2,.2,.2,.2v.8c0,0,.1,.1,.1,.1c0,.2,-.1,.2,-.1,.2v.6c0,0,0,.1,-.2,.1c-.1,0,-.1,-.1,-.1,-.1v-.6h-.8v-1.3q0,-.1,.1,-.1Zm3.7,0h.2c0,0,.1,0,.1,.1c0,0,-.1,.2,-.1,.2v.8h.9c0,0,.1,.1,.1,.1v.8c0,0,-.1,.1,-.1,.1h-1.1c-.1,0,-.1,-.1,-.1,-.1v-1.9q0,-.1,.1,-.1Zm1.8,0h1.3v.7q0,.2,0,.2l-.5,.3q0,.2,0,.2v.6c0,0,-.1,.1,-.1,.1c-.2,0,-.2,-.1,-.2,-.1v-.8l.5,-.5v-.4h-.8c0,0,0,.1,-.2,.1c0,0,-.1,-.1,-.1,-.3c0,-.1,.1,-.1,.1,-.1Zm4,0h.6v.9c.3,0,.3,.2,.3,.3v.6c0,.2,-.1,.3,-.3,.3h-.7c-.2,0,-.3,-.1,-.3,-.3v-.6c0,-.1,.1,-.3,.3,-.3v-.8c0,-.1,.1,-.1,.1,-.1Zm1.7,0h1.1c0,0,.1,0,.1,.1V502c0,0,-.1,.1,-.1,.1h-.2c-.1,0,-.1,-.1,-.1,-.1q0,-.2,.1,-.2v-.9H924q-.2,0,-.2,-.2v-.6q0,-.1,.2,-.1Zm2,0h.7c.2,0,.4,.1,.4,.3v1.5c0,.2,-.2,.3,-.4,.3H926c-.2,0,-.3,-.1,-.3,-.3v-1.5c0,-.2,.1,-.3,.3,-.3Zm1.8,0h.6v1.8h.3v-.6c0,0,0,-.1,.2,-.1c0,0,.1,.1,.1,.1v.8c0,0,-.1,.1,-.1,.1h-1.1c-.1,0,-.1,-.1,-.1,-.1q0,-.2,.1,-.2h.3v-1.5h-.3c-.1,0,-.1,-.2,-.1,-.2q0,-.1,.1,-.1Zm3.7,0h.9c.2,0,.3,.1,.3,.3v.6c0,.2,-.1,.3,-.3,.3h-.8v.6h1c0,0,.1,0,.1,.2c0,0,-.1,.1,-.1,.1h-1.3v-.9c0,-.1,.2,-.3,.3,-.3h.8v-.6h-.9c-.2,0,-.2,-.2,-.2,-.2q0,-.1,.2,-.1Zm1.8,0h.9c.2,0,.3,.1,.3,.1v.6q0,.2,-.1,.4c.1,0,.1,.1,.1,.3v.4c0,.2,-.1,.3,-.3,.3h-.9c0,0,-.1,-.1,-.1,-.1c0,-.2,.1,-.2,.1,-.2h.9v-.4q0,-.2,-.1,-.2h-.5c-.1,0,-.1,-.1,-.1,-.1q0,-.2,.1,-.2h.5c.1,0,.1,-.2,.1,-.2v-.4h-.9c0,0,-.1,-.2,-.1,-.2c0,-.1,.1,-.1,.1,-.1Zm2.2,0v1.1h.6v-.8c0,0,0,-.2,.1,-.2c0,0,.2,.2,.2,.2v.8c0,0,.1,.1,.1,.1c0,.2,-.1,.2,-.1,.2v.6c0,0,-.2,.1,-.2,.1c-.1,0,-.1,-.1,-.1,-.1v-.6h-.8v-1.3q0,-.1,.2,-.1Zm-20.8,0h.9q.2,0,.2,.1c0,0,0,.2,-.2,.2H915v.6h.4c.2,0,.4,.2,.4,.3v.6c0,.2,-.2,.3,-.4,.3h-.6c0,0,0,-.1,-.1,-.1h-.2c0,0,-.1,0,-.1,-.2c0,-.1,.1,-.1,.1,-.1c0,0,.2,0,.2,0l.1,.1h.6v-.6h-.7V500Zm22.6,0h.9q.2,0,.2,.1c0,0,0,.2,-.2,.2h-.6v.6h.5c.1,0,.3,.2,.3,.3v.6c0,.2,-.2,.3,-.3,.3h-.7c0,0,-.1,-.1,-.1,-.1h-.2c0,0,-.1,0,-.1,-.2c0,-.1,.1,-.1,.1,-.1h.2l.1,.1h.7v-.6h-.8V500Zm-14.8,.3v.6h.3v-.6h-.3Zm-19.1,0v1.5h.7v-1.5h-.7Zm20.8,0v.4h.7v-.4h-.7Zm1.8,0v1.5h.7v-1.5H926Zm-3.8,.9v.6h.7v-.6h-.7Zm-5.5,.2v.4h.7v-.4h-.7Z" class="g9_1" />
<path fill-rule="evenodd" d="M1342.3,488.8c-1.7,0,-2.9,1.4,-2.9,2.9v20.8c0,1.5,1.2,2.9,2.9,2.9h35c1.5,0,2.9,-1.4,2.9,-2.9V491.7c0,-1.5,-1.4,-2.9,-2.9,-2.9h-35Zm2,8.7h.3v2.3h-2.4v-.1c0,-1.1,.9,-2.2,2.1,-2.2Zm.9,0h3.2c1.2,0,2.2,1.1,2.2,2.2v.1h-5.4v-2.3Zm-3,2.9h2.4v1.9h-2.4v-1.9Zm3,0h2.1v1.9h-2.1v-1.9Zm2.8,0h2.6v1.9H1348v-1.9Zm-5.8,2.3h2.4V505h-.3c-1.2,0,-2.1,-1,-2.1,-2.1v-.2Zm3,0h2.1V505h-2.1v-2.3Zm2.8,0h2.6v.2c0,1.1,-1,2.1,-2.2,2.1h-.4v-2.3Zm-5.4,6.3h.8c.1,0,.1,.2,.1,.3v1.5c0,.2,0,.3,-.1,.3h-.8c-.1,0,-.3,-.1,-.3,-.3v-1.5c0,-.1,.2,-.3,.3,-.3Zm1.7,0h.8v1.8h.1v-.6c0,0,.2,0,.2,0q.1,0,.1,0v.8c0,0,0,.1,-.1,.1h-1.1c0,0,-.2,-.1,-.2,-.1c0,-.2,.2,-.2,.2,-.2h.5v-1.5h-.5c0,0,-.2,0,-.2,-.1c0,0,.2,-.2,.2,-.2Zm2,0h.9c.1,0,.1,.2,.1,.3v.6c0,.2,0,.3,-.1,.3h-.8v.6h.9v.2c0,0,0,.1,0,.1h-1.2v-.9c0,-.1,0,-.3,.3,-.3h.8v-.6h-.9q-.2,0,-.2,-.1c0,0,0,-.2,.2,-.2Zm1.8,0h.9c.2,0,.3,.2,.3,.3v.5c0,.1,0,.3,-.1,.3q.1,.1,.1,.3v.4c0,.2,-.1,.3,-.3,.3h-.9c0,0,-.1,-.1,-.1,-.1c0,-.2,.1,-.2,.1,-.2h.9v-.4q0,-.2,-.1,-.2h-.5q-.1,0,-.1,-.1c0,0,0,-.2,.1,-.2h.5q.1,0,.1,-.1v-.5h-.9c0,0,-.1,0,-.1,-.1c0,0,.1,-.2,.1,-.2Zm3.8,0c.2,0,.2,.2,.2,.2v1h.4v-.7c0,-.2,.2,-.2,.2,-.2q.1,0,.1,.2v.7q.2,0,.2,0q0,.2,-.2,.2v.6c0,0,0,.1,-.1,.1c0,0,-.2,-.1,-.2,-.1v-.6h-.7v-1.2c0,0,.1,-.2,.1,-.2Zm3.7,0h.2c0,0,.1,.2,.1,.2q0,.1,-.1,.1v.9h.9q.1,0,.1,0v.8c0,0,0,.1,-.1,.1h-1.1c0,0,-.2,-.1,-.2,-.1v-1.8c0,0,.2,-.2,.2,-.2Zm2,0h1.1v.8q0,.1,0,.1l-.5,.3q0,.2,0,.2v.6c0,0,0,.1,-.2,.1c0,0,-.1,-.1,-.1,-.1v-.8h.1l.3,-.4q.2,0,.2,0v-.5h-.9q0,.2,-.2,.2c0,0,0,-.2,0,-.2v-.1c0,0,0,-.2,.2,-.2Zm4,0h.4c0,0,.2,.2,.2,.2v.7c.1,0,.3,.2,.3,.3v.6c0,.2,-.2,.3,-.3,.3h-.9c0,0,-.2,-.1,-.2,-.3v-.6c0,-.1,.2,-.3,.2,-.3v-.7c0,0,.1,-.2,.3,-.2Zm1.5,0h1.1c0,0,.1,.2,.1,.2V511c0,0,-.1,.1,-.1,.1h-.2c0,0,-.2,-.1,-.2,-.1c0,-.2,.2,-.2,.2,-.2v-.7h-.9c-.2,0,-.2,-.2,-.2,-.3v-.6c0,0,.2,-.2,.2,-.2Zm2,0h.9c.1,0,.1,.2,.1,.3v1.5c0,.2,0,.3,-.1,.3h-.9c0,0,-.2,-.1,-.2,-.3v-1.5c0,-.1,.2,-.3,.2,-.3Zm1.8,0h.6v1.8h.3v-.6c0,0,.2,0,.2,0c0,0,.1,0,.1,0v.8c0,0,-.1,.1,-.1,.1h-1.1c0,0,-.2,-.1,-.2,-.1c0,-.2,.2,-.2,.2,-.2h.5v-1.5h-.5c0,0,-.2,0,-.2,-.1c0,0,.2,-.2,.2,-.2Zm3.7,0h.9c.1,0,.3,.2,.3,.3v.6c0,.2,-.2,.3,-.3,.3h-.8v.6h.9c0,0,.2,0,.2,.2c0,0,-.2,.1,-.2,.1h-1.2v-.9c0,-.1,.2,-.3,.3,-.3h.8v-.6h-.9c0,0,-.2,0,-.2,-.1c0,0,.2,-.2,.2,-.2Zm2,0h.9c.1,0,.1,.2,.1,.3v.5c0,.1,0,.3,0,.3q0,.1,0,.3v.4c0,.2,0,.3,-.1,.3h-.9c-.2,0,-.2,-.1,-.2,-.1q0,-.2,.2,-.2h.9v-.4c0,-.2,-.2,-.2,-.2,-.2h-.4c-.2,0,-.3,0,-.3,-.1c0,0,.1,-.2,.1,-.2h.6c0,0,.2,0,.2,-.1v-.5h-.9q-.2,0,-.2,-.1c0,0,0,-.2,.2,-.2Zm1.9,0c0,0,.2,.2,.2,.2v1h.5v-.7c0,-.2,.1,-.2,.1,-.2q.2,0,.2,.2v.7q.1,0,.1,0c0,.2,-.1,.2,-.1,.2v.6c0,0,0,.1,-.2,.1c0,0,-.1,-.1,-.1,-.1v-.6h-.8v-1.2c0,0,0,-.2,.1,-.2Zm-20.6,0h.8c.1,0,.1,.2,.1,.2q0,.1,-.1,.1h-.6v.6h.6c.1,0,.1,.2,.1,.3v.6c0,.2,0,.3,-.1,.3h-.6c0,0,-.2,0,-.2,0l-.1,-.1q-.2,0,-.2,-.2c0,0,0,-.1,.2,-.1v.1h.9v-.6h-.8V509Zm22.5,0h.9c.1,0,.1,.2,.1,.2q0,.1,-.1,.1h-.6v.6h.4c.3,0,.3,.2,.3,.3v.6c0,.2,0,.3,-.3,.3h-.7V511q-.2,0,-.2,-.2c0,0,0,-.1,.2,-.1v.1h.7v-.6h-.7V509Zm-14.8,.3v.6h.3v-.6h-.3Zm-19,0v1.5h.8v-1.5h-.8Zm20.6,0v.5h.8v-.5h-.8Zm1.9,0v1.5h.9v-1.5h-.9Zm-3.8,.9v.6h.9v-.6h-.9Zm-5.5,.2v.4h.7v-.4h-.7Z" class="g3_1" />
<path fill-rule="evenodd" d="M1342.3,485.8c-1.7,0,-2.9,1.4,-2.9,2.9v20.8c0,1.5,1.2,2.9,2.9,2.9h35c1.5,0,2.9,-1.4,2.9,-2.9V488.7c0,-1.5,-1.4,-2.9,-2.9,-2.9h-35Zm2,8.7h.3v2.1h-2.4c0,-1,.9,-2.1,2.1,-2.1Zm.9,0h3.2c1.2,0,2.2,1.1,2.2,2.1h-5.4v-2.1Zm-3,2.7h2.4v2h-2.4v-2Zm3,0h2.1v2h-2.1v-2Zm2.8,0h2.6v2H1348v-2Zm-5.8,2.5h2.4V502h-.3c-1.2,0,-2.1,-1.1,-2.1,-2.2v-.1Zm3,0h2.1V502h-2.1v-2.3Zm2.8,0h2.6v.1c0,1.1,-1,2.2,-2.2,2.2h-.4v-2.3Zm-5.4,6.2h.8c.1,0,.1,.2,.1,.3v1.6c0,.1,0,.3,-.1,.3h-.8c-.1,0,-.3,-.2,-.3,-.3v-1.6c0,-.1,.2,-.3,.3,-.3Zm1.7,0h.8v1.9h.1v-.6c0,0,.2,0,.2,0q.1,0,.1,0v.7c0,0,0,.2,-.1,.2h-1.1c0,0,-.2,-.2,-.2,-.2c0,-.1,.2,-.1,.2,-.1h.5v-1.6h-.5c0,0,-.2,0,-.2,-.1c0,-.2,.2,-.2,.2,-.2Zm2,0h.9c.1,0,.1,.2,.1,.3v.7c0,.1,0,.3,-.1,.3h-.8v.6h.9v.1c0,0,0,.2,0,.2h-1.2v-.9c0,-.2,0,-.3,.3,-.3h.8v-.7h-.9q-.2,0,-.2,-.1q0,-.2,.2,-.2Zm1.8,0h.9c.2,0,.3,.2,.3,.3v.5q0,.2,-.1,.3q.1,.2,.1,.3v.5c0,.1,-.1,.3,-.3,.3h-.9c0,0,-.1,-.2,-.1,-.2c0,-.1,.1,-.1,.1,-.1h.9v-.5q0,-.1,-.1,-.1h-.5q-.1,0,-.1,-.2q0,-.1,.1,-.1h.5q.1,0,.1,-.2v-.5h-.9c0,0,-.1,0,-.1,-.1c0,-.2,.1,-.2,.1,-.2Zm3.8,0q.2,0,.2,.2v1.1h.4v-1c0,0,.2,0,.2,0q.1,0,.1,0v1q.2,0,.2,0q0,.1,-.2,.1v.6c0,0,0,.2,-.1,.2c0,0,-.2,-.2,-.2,-.2v-.6h-.7v-1.2c0,-.2,.1,-.2,.1,-.2Zm3.7,0h.2c0,0,.1,0,.1,.2q0,.1,-.1,.1v1h.9q.1,0,.1,0v.7c0,0,0,.2,-.1,.2h-1.1c0,0,-.2,-.2,-.2,-.2v-1.8c0,-.2,.2,-.2,.2,-.2Zm2,0h1.1v.8q0,.2,0,.2l-.5,.3q0,.1,0,.1v.6c0,0,0,.2,-.2,.2c0,0,-.1,-.2,-.1,-.2v-.7h.1l.3,-.5q.2,0,.2,-.1v-.4h-.9c0,0,0,.2,-.2,.2c0,0,0,-.2,0,-.2v-.1q0,-.2,.2,-.2Zm4,0h.4c0,0,.2,0,.2,.2v.8c.1,0,.3,.1,.3,.3v.6c0,.1,-.2,.3,-.3,.3h-.9c0,0,-.2,-.2,-.2,-.3v-.6c0,-.2,.2,-.3,.2,-.3v-.8c0,-.2,.1,-.2,.3,-.2Zm1.5,0h1.1c0,0,.1,0,.1,.2v1.8c0,0,-.1,.2,-.1,.2h-.2c0,0,-.2,-.2,-.2,-.2c0,-.1,.2,-.1,.2,-.1v-.9h-.9q-.2,0,-.2,-.2v-.6c0,-.2,.2,-.2,.2,-.2Zm2,0h.9c.1,0,.1,.2,.1,.3v1.6c0,.1,0,.3,-.1,.3h-.9c0,0,-.2,-.2,-.2,-.3v-1.6c0,-.1,.2,-.3,.2,-.3Zm1.8,0h.6v1.9h.3v-.6c0,0,.2,0,.2,0c0,0,.1,0,.1,0v.7c0,0,-.1,.2,-.1,.2h-1.1c0,0,-.2,-.2,-.2,-.2c0,-.1,.2,-.1,.2,-.1h.5v-1.6h-.5c0,0,-.2,0,-.2,-.1c0,-.2,.2,-.2,.2,-.2Zm3.7,0h.9c.1,0,.3,.2,.3,.3v.7c0,.1,-.2,.3,-.3,.3h-.8v.6h.9c0,0,.2,0,.2,.1c0,0,-.2,.2,-.2,.2h-1.2v-.9c0,-.2,.2,-.3,.3,-.3h.8v-.7h-.9c0,0,-.2,0,-.2,-.1c0,-.2,.2,-.2,.2,-.2Zm2,0h.9c.1,0,.1,.2,.1,.3v.5q0,.2,0,.3q0,.2,0,.3v.5c0,.1,0,.3,-.1,.3h-.9c-.2,0,-.2,-.2,-.2,-.2q0,-.1,.2,-.1h.9v-.5c0,-.1,-.2,-.1,-.2,-.1h-.4c-.2,0,-.3,0,-.3,-.2c0,-.1,.1,-.1,.1,-.1h.6c0,0,.2,0,.2,-.2v-.5h-.9q-.2,0,-.2,-.1q0,-.2,.2,-.2Zm1.9,0c0,0,.2,0,.2,.2v1.1h.5v-1c0,0,.1,0,.1,0q.2,0,.2,0v1q.1,0,.1,0c0,.1,-.1,.1,-.1,.1v.6c0,0,0,.2,-.2,.2c0,0,-.1,-.2,-.1,-.2v-.6h-.8v-1.2q0,-.2,.1,-.2Zm-20.6,0h.8q.1,0,.1,.2q0,.1,-.1,.1h-.6v.7h.6c.1,0,.1,.1,.1,.3v.6c0,.1,0,.3,-.1,.3h-.6c0,0,-.2,-.2,-.2,-.2h-.1q-.2,0,-.2,-.1q0,-.2,.2,-.2l.1,.2h.8v-.6h-.8v-1.3Zm22.5,0h.9q.1,0,.1,.2q0,.1,-.1,.1h-.6v.7h.4c.3,0,.3,.1,.3,.3v.6c0,.1,0,.3,-.3,.3h-.6c0,0,0,-.2,-.1,-.2q-.2,0,-.2,-.1q0,-.2,.2,-.2l.1,.2h.6v-.6h-.7v-1.3Zm-14.8,.3v.7h.3v-.7h-.3Zm-19,0v1.6h.8v-1.6h-.8Zm20.6,0v.5h.8v-.5h-.8Zm1.9,0v1.6h.9v-1.6h-.9Zm-3.8,1v.6h.9v-.6h-.9Zm-5.5,.1v.5h.7v-.5h-.7Z" class="g2_1" />
<path fill-rule="evenodd" d="M1055.1,878.4c5,4.4,7.2,10.7,8.2,16.1c.9,5.5,.3,11.3,-4.4,13.9c-1.4,.7,-3.1,1,-4.6,.7h-12.8l-13.3,-.1c-1.4,.1,-2.8,0,-4.1,-.6c-5.1,-2.3,-6.3,-8,-5.8,-13.5c.6,-5.6,2.7,-11.9,8.1,-16.5c8.1,-7.2,20.4,-7.2,28.7,0Z" class="g3_1" />
<path fill-rule="evenodd" d="M1055.1,875.4c5,4.4,7.2,10.7,8.2,16c.9,5.5,.3,11.2,-4.4,13.9c-1.4,.8,-3.1,1.1,-4.6,.8h-12.8l-13.3,-.2c-1.4,.2,-2.8,0,-4.1,-.6c-5.1,-2.3,-6.3,-7.9,-5.8,-13.4c.6,-5.7,2.7,-12,8.1,-16.5c8.1,-7.2,20.4,-7.2,28.7,0Z" class="g10_1" />
<path fill-rule="evenodd" d="M1026.7,865.9v-1.5l.1,-.7l.2,-.7l.1,-.8l.2,-.7l.3,-.7l.1,-.7l.5,-.6l.3,-.8l.5,-.6l.3,-.6l.4,-.6l.5,-.6l.6,-.5l.5,-.5l.6,-.6l.6,-.4l.6,-.3l.6,-.5l.8,-.3l.6,-.5l.6,-.3l.7,-.1l.8,-.2l.8,-.3l.6,-.1h.7l.8,-.2h1.5l.8,.2h.8l.6,.1l.7,.2l.8,.3l.8,.1l.6,.3l.7,.4l.7,.4l.6,.3l.6,.5l.6,.4l.4,.5l.7,.6l.6,.5l.4,.6l.5,.6l.3,.6l.5,.6l.3,.8l.3,.6l.3,.6l.3,.8l.1,.7l.3,.6v.8l.2,.8v.7l.1,.8v.8l-.1,.7l-.2,.8v.7l-.3,.7l-.1,.7l-.3,.8l-.3,.6l-.3,.8l-.3,.6l-.4,.6l-.4,.6l-.5,.6l-.4,.6l-.6,.5l-.5,.6l-.6,.4l-.6,.5l-.6,.5l-.6,.3l-.7,.4l-.7,.3l-.6,.3l-.8,.3l-.8,.2l-.6,.1l-.7,.2l-.8,.1h-3.1l-.7,-.1l-.6,-.2l-.8,-.1l-.8,-.2l-.6,-.3l-.7,-.3l-.6,-.3l-.8,-.3l-.6,-.4l-.6,-.5l-.6,-.5l-.6,-.4l-.5,-.5l-.6,-.6l-.5,-.6l-.4,-.5l-.3,-.7l-.5,-.6l-.5,-.6l-.3,-.7l-.3,-.7l-.1,-.8l-.3,-.6l-.2,-.8l-.1,-.7v-1.5l-.2,-.8h.2Z" class="g3_1" />
<path fill-rule="evenodd" d="M1026.7,864.2v-1.5l.1,-.6l.2,-.8l.1,-.8l.2,-.7l.3,-.6l.1,-.8l.5,-.6l.3,-.8l.5,-.6l.3,-.6l.4,-.6l.5,-.6l.6,-.5l.5,-.4l.6,-.6l.6,-.5l.6,-.5l.6,-.3l.8,-.3l.6,-.4l.6,-.3l.7,-.2l.8,-.1l.8,-.3l.6,-.2h.7l.8,-.2h1.5l.8,.2h.8l.6,.2l.7,.1l.8,.3l.8,.2l.6,.3l.7,.3l.7,.4l.6,.3l.6,.5l.6,.5l.4,.4l.7,.6l.6,.5l.4,.6l.5,.6l.3,.6l.5,.6l.3,.6l.3,.8l.3,.6l.3,.8l.1,.7l.3,.7v.7l.2,.8v.7l.1,.8v.8l-.1,.7l-.2,.8v.8l-.3,.6l-.1,.7l-.3,.8l-.3,.6l-.3,.6l-.3,.8l-.4,.6l-.4,.6l-.5,.6l-.4,.6l-.6,.5l-.5,.6l-.6,.5l-.6,.4l-.6,.5l-.6,.3l-.7,.4l-.7,.3l-.6,.4l-.8,.3l-.8,.1l-.6,.2l-.7,.1l-.8,.2h-3.1l-.7,-.2l-.6,-.1l-.8,-.2l-.8,-.1l-.6,-.3l-.7,-.4l-.6,-.3l-.8,-.3l-.6,-.4l-.6,-.5l-.6,-.4l-.6,-.5l-.5,-.5l-.6,-.6l-.5,-.6l-.4,-.4l-.3,-.8l-.5,-.6l-.5,-.6l-.3,-.6l-.3,-.8l-.1,-.8l-.3,-.6l-.2,-.7l-.1,-.8V865l-.2,-.8h.2Z" class="g11_1" />
<path fill-rule="evenodd" d="M1293.3,886.7c5.2,4.4,7.1,10.7,8.2,16c.9,5.4,.3,11.2,-4.4,13.9c-1.4,.8,-3.1,1.1,-4.6,.8h-12.8l-13.3,-.3c-1.4,.3,-2.8,.1,-4.1,-.5c-5.1,-2.4,-6.3,-7.9,-5.9,-13.6c.7,-5.5,2.8,-11.8,8.1,-16.3c8.1,-7.2,20.5,-7.2,28.8,0Z" class="g3_1" />
<path fill-rule="evenodd" d="M1293.3,883.5c5.2,4.5,7.1,10.7,8.2,16.2c.9,5.3,.3,11.1,-4.4,13.9c-1.4,.7,-3.1,1,-4.6,.7h-12.8l-13.3,-.3c-1.4,.3,-2.8,.2,-4.1,-.4c-5.1,-2.5,-6.3,-8.1,-5.9,-13.6c.7,-5.5,2.8,-12,8.1,-16.5c8.1,-7.1,20.5,-7.1,28.8,0Z" class="g2_1" />
<path fill-rule="evenodd" d="M1264.7,874.1v-.7l.1,-.8v-.8l.2,-.7l.2,-.6l.3,-.8l.3,-.8l.1,-.6l.5,-.7l.3,-.6l.3,-.7l.4,-.6l.5,-.6l.5,-.6l.6,-.4l.4,-.7l.6,-.4l.7,-.5l.6,-.4l.6,-.3l.6,-.5l.8,-.3l.6,-.3l.7,-.2l.6,-.3l.8,-.1l.8,-.2l.7,-.1h2.9l.9,.1l.7,.2l.7,.1l.8,.2l.6,.3l.8,.3l.6,.3l.7,.3l.6,.5l.7,.4l.6,.5l.4,.4l.6,.5l.5,.6l.5,.6l.6,.5l.3,.7l.4,.7l.3,.6l.3,.6l.3,.7l.4,.8l.1,.6l.2,.8l.1,.7l.2,.8v3.1l-.2,.6l-.1,.7l-.2,.8l-.1,.8l-.4,.6l-.3,.7l-.3,.7l-.3,.7l-.4,.6l-.3,.6l-.5,.7l-.6,.6l-.5,.4l-.6,.5l-.4,.6l-.6,.4l-.7,.4l-.6,.4l-.7,.3l-.6,.3l-.8,.3l-.6,.3l-.8,.2l-.7,.3l-.7,.1h-1.5l-.7,.2h-.8l-.8,-.2h-.7l-.8,-.1l-.8,-.2l-.6,-.3l-.7,-.3l-.6,-.3l-.8,-.1l-.6,-.5l-.6,-.3l-.6,-.5l-.7,-.4l-.6,-.5l-.4,-.6l-.6,-.4l-.5,-.6l-.5,-.7l-.4,-.6l-.3,-.6l-.5,-.7l-.3,-.7l-.3,-.6l-.1,-.7l-.3,-.8l-.2,-.8l-.2,-.6v-.7l-.1,-.8v-.8Z" class="g3_1" />
<path fill-rule="evenodd" d="M1264.7,872.5v-.8l.1,-.8v-.7l.2,-.8l.2,-.8l.3,-.6l.3,-.7l.1,-.6l.5,-.8l.3,-.6l.3,-.6l.4,-.6l.5,-.7l.5,-.6l.6,-.6l.4,-.4l.6,-.5l.7,-.5l.6,-.4l.6,-.5l.6,-.3l.8,-.3l.6,-.3l.7,-.1l.6,-.3l.8,-.2l.8,-.2l.7,-.1h2.9l.9,.1l.7,.2l.7,.2l.8,.1l.6,.3l.8,.3l.6,.3l.7,.3l.6,.5l.7,.4l.6,.5l.4,.5l.6,.4l.5,.6l.5,.6l.6,.5l.3,.8l.4,.4l.3,.8l.3,.6l.3,.8l.4,.7l.1,.6l.2,.8l.1,.8l.2,.7v2.9l-.2,.8l-.1,.8l-.2,.7l-.1,.6l-.4,.8l-.3,.8l-.3,.6l-.3,.7l-.4,.6l-.3,.7l-.5,.6l-.6,.4l-.5,.6l-.6,.5l-.4,.6l-.6,.5l-.7,.3l-.6,.4l-.7,.3l-.6,.3l-.8,.3l-.6,.4l-.8,.1l-.7,.3l-.7,.2h-1.5l-.7,.1h-.8l-.8,-.1h-.7l-.8,-.2l-.8,-.1l-.6,-.3l-.7,-.4l-.6,-.3l-.8,-.3l-.6,-.3l-.6,-.3l-.6,-.4l-.7,-.5l-.6,-.4l-.4,-.7l-.6,-.4l-.5,-.6l-.5,-.6l-.4,-.7l-.3,-.6l-.5,-.7l-.3,-.6l-.3,-.6l-.1,-.8l-.3,-.8l-.2,-.7l-.2,-.7V874l-.1,-.8v-.7Z" class="g11_1" />
<path d="M1132.5,420.4h67.1" class="g12_1" />
<path fill-rule="evenodd" d="M1212.4,420.4l-13.7,6.9V413.5l13.7,6.9Z" class="g13_1" />
<path fill-rule="evenodd" d="M1135.1,427c0,3.2,2.2,6.1,5.5,7.9c-3.3,1.8,-5.5,4.7,-5.5,7.9c0,3.3,2.2,6.3,5.5,8.1c-3.3,1.7,-5.5,4.8,-5.5,8c0,3.3,2.2,6.3,5.5,8.1c-3.3,1.7,-5.5,4.7,-5.5,7.9h2.5c0,-.6,.1,-1.2,.3,-1.7H1150c.1,.5,.3,1.1,.3,1.7h2.4c0,-3.2,-2.1,-6.1,-5.5,-7.9c3.4,-1.8,5.5,-4.8,5.5,-8.1c0,-3.2,-2.1,-6.3,-5.5,-8c3.4,-1.8,5.5,-4.8,5.5,-8.1c0,-3.2,-2.1,-6.1,-5.5,-7.9c3.4,-1.8,5.5,-4.7,5.5,-7.9h-2.4c0,.4,-.2,1,-.3,1.5h-12.1c-.2,-.5,-.3,-1.1,-.3,-1.5h-2.5Zm3.6,3h10.5c-1.1,1.5,-2.9,2.9,-5.4,3.5c-2.2,-.6,-4.1,-2,-5.1,-3.5Zm5.1,6.1c2.5,.8,4.3,2,5.4,3.7h-10.5c1,-1.7,2.9,-2.9,5.1,-3.7Zm-5.9,5.1H1150c.1,.6,.3,1,.3,1.6c0,.7,-.2,1.3,-.3,1.7h-12.1c-.2,-.4,-.3,-1,-.3,-1.7c0,-.6,.1,-1,.3,-1.6Zm.8,4.9h10.5c-1.1,1.5,-2.9,2.9,-5.4,3.5c-2.2,-.6,-4.1,-2,-5.1,-3.5Zm5.1,6.1c2.5,.7,4.3,2,5.4,3.5h-10.5c1,-1.5,2.9,-2.8,5.1,-3.5Zm-5.9,5H1150c.1,.5,.3,1.1,.3,1.7c0,.6,-.2,1.1,-.3,1.7h-12.1c-.2,-.6,-.3,-1.1,-.3,-1.7c0,-.6,.1,-1.2,.3,-1.7Zm.6,4.7h10.8c-1.2,1.7,-3,3.1,-5.5,3.7c-2.2,-.6,-4.2,-2,-5.3,-3.7Zm5.3,6.3c2.5,.8,4.3,2,5.4,3.5h-10.5c1,-1.5,2.9,-2.7,5.1,-3.5Z" class="g3_1" />
<path fill-rule="evenodd" d="M1135.1,423.7c0,3.3,2.2,6.3,5.5,8.1c-3.3,1.7,-5.5,4.8,-5.5,8c0,3.2,2.2,6.3,5.5,7.9c-3.3,1.9,-5.5,4.9,-5.5,8.1c0,3.2,2.2,6.3,5.5,8.1c-3.3,1.7,-5.5,4.8,-5.5,8h2.5c0,-.6,.1,-1.2,.3,-1.9H1150c.1,.7,.3,1.3,.3,1.9h2.4c0,-3.2,-2.1,-6.1,-5.5,-8c3.4,-1.8,5.5,-4.9,5.5,-8.1c0,-3.2,-2.1,-6.2,-5.5,-8.1c3.4,-1.6,5.5,-4.7,5.5,-7.9c0,-3.2,-2.1,-6.3,-5.5,-8c3.4,-1.8,5.5,-4.8,5.5,-8.1h-2.4c0,.7,-.2,1.3,-.3,1.7h-12.1c-.2,-.4,-.3,-1,-.3,-1.7h-2.5Zm3.6,3.3h10.5c-1.1,1.5,-2.9,2.9,-5.4,3.5c-2.2,-.6,-4.1,-2,-5.1,-3.5Zm5.1,6.1c2.5,.7,4.3,2,5.4,3.6h-10.5c1,-1.6,2.9,-2.9,5.1,-3.6Zm-5.9,5H1150c.1,.6,.3,1.1,.3,1.7c0,.6,-.2,1.1,-.3,1.7h-12.1c-.2,-.6,-.3,-1.1,-.3,-1.7c0,-.6,.1,-1.1,.3,-1.7Zm.8,4.7h10.5c-1.1,1.7,-2.9,3.1,-5.4,3.7c-2.2,-.6,-4.1,-2,-5.1,-3.7Zm5.1,6.3c2.5,.6,4.3,2,5.4,3.5h-10.5c1,-1.5,2.9,-2.9,5.1,-3.5Zm-5.9,5.1H1150c.1,.4,.3,1,.3,1.6c0,.6,-.2,1.1,-.3,1.7h-12.1c-.2,-.6,-.3,-1.1,-.3,-1.7c0,-.6,.1,-1.2,.3,-1.6Zm.6,4.7h10.8c-1.2,1.7,-3,3,-5.5,3.7c-2.2,-.7,-4.2,-2,-5.3,-3.7Zm5.3,6.3c2.5,.7,4.3,1.9,5.4,3.5h-10.5c1,-1.6,2.9,-2.8,5.1,-3.5Z" class="g8_1" />
<path fill-rule="evenodd" d="M1097.3,382.7c-7.8,0,-15.8,.9,-21.9,2.5c-12.1,3.7,-12.1,9.7,0,13.3c12.1,3.7,31.8,3.7,43.8,0c12.1,-3.6,12.1,-9.6,0,-13.3c-6.1,-1.6,-13.9,-2.5,-21.9,-2.5Zm-30.9,13.5v58.4c0,5.2,13.7,9.9,30.9,9.9c17.2,0,31,-4.7,31,-9.9V396.2c-4.3,3.9,-16.5,6.6,-31,6.6c-14.4,0,-26.6,-2.7,-30.9,-6.6Z" class="g3_1" />
<path fill-rule="evenodd" d="M1097.3,379.4c-7.8,0,-15.8,1,-21.9,2.8c-12.1,3.7,-12.1,9.6,0,13.3c12.1,3.7,31.8,3.7,43.8,0c12.1,-3.7,12.1,-9.6,0,-13.3c-6.1,-1.8,-13.9,-2.8,-21.9,-2.8ZM1066.4,393v58.6c0,5.1,13.7,9.7,30.9,9.7c17.2,0,31,-4.6,31,-9.7V393c-4.3,4,-16.5,6.8,-31,6.8c-14.4,0,-26.6,-2.8,-30.9,-6.8Z" class="g5_1" />


<!-- Any embedded fonts defined here -->
<style type="text/css" ><![CDATA[

@font-face {
	font-family: DejaVuSans-Oblique_1f;
	src: url("fonts/DejaVuSans-Oblique_1f.woff") format("woff");
}

]]></style>

</svg>
