<?xml version="1.0" encoding="UTF-8" standalone="no"?>
<!DOCTYPE svg PUBLIC "-//W3C//DTD SVG 1.1//EN"
"http://www.w3.org/Graphics/SVG/1.1/DTD/svg11.dtd">


<!-- Page 3 -->
<svg x="0" y="0" width="1564" height="1173" viewBox="0 0 1564 1173" version="1.1" xmlns="http://www.w3.org/2000/svg" xmlns:xlink="http://www.w3.org/1999/xlink"
style="display: block;margin-left: auto;margin-right: auto;">
<defs>
<clipPath id="c0_3"><path d="M0,1173.3V0H1564.4V1173.3Z" /></clipPath>

<style type="text/css"><![CDATA[

.g0_3{
fill: #FFFFFF;
}
.g1_3{
fill-opacity: 0.5;
}
.g2_3{
fill: #70BF41;
}
.g3_3{
fill-opacity: 0.75;
}
.g4_3{
fill: #0175AE;
}
.g5_3{
fill: none;
stroke: #000000;
stroke-width: 3.069764;
stroke-linecap: butt;
stroke-linejoin: miter;
stroke-miterlimit: 7;
stroke-opacity: 0.5;
}
.g6_3{
fill: #FCD186;
}
.g7_3{
fill: none;
stroke: #F38F18;
stroke-width: 3.069764;
stroke-linecap: butt;
stroke-linejoin: miter;
stroke-miterlimit: 7;
}
.g8_3{
fill: #0077B1;
fill-opacity: 0.52;
}
.g9_3{
fill: none;
stroke: #0077B1;
stroke-width: 3.069764;
stroke-linecap: butt;
stroke-linejoin: miter;
stroke-miterlimit: 7;
}
.g10_3{
fill: none;
stroke: #0077B1;
stroke-width: 1.513264;
stroke-linecap: butt;
stroke-linejoin: miter;
stroke-miterlimit: 7;
}
.g11_3{
fill: none;
stroke: #002452;
stroke-width: 3.069764;
stroke-linecap: butt;
stroke-linejoin: miter;
}
.g12_3{
fill: none;
stroke: #F38F18;
stroke-width: 4.583028;
stroke-linecap: butt;
stroke-linejoin: miter;
}
.g13_3{
fill: #F38F18;
}
.g14_3{
fill: none;
stroke: #70BF41;
stroke-width: 4.583028;
stroke-linecap: butt;
stroke-linejoin: miter;
}


]]></style>

</defs>
<path d="M0,0
L0,1173
L1564,1173
L1564,0 Z " 
fill="#FFFFFF" stroke="none" />
<g clip-path="url(#c0_3)">
<path fill-rule="evenodd" d="M0,.1H1564.4V1173.4H0V.1Z" class="g0_3" />
<path fill-rule="evenodd" d="M0,.1H1564.4V1173.4H0V.1Z" class="g0_3" />
</g>
<path fill-rule="evenodd" d="M1042.6,833.8h-25.4V498.2h50.7V833.8h-25.3Z" class="g1_3" />
<path fill-rule="evenodd" d="M1042.6,830.7h-25.4V494.9h50.7V830.7h-25.3Z" class="g2_3" />
<image preserveAspectRatio="none" x="1017" y="618" width="43" height="57" xlink:href="3/img/1.png" />
<path fill-rule="evenodd" d="M1366.1,449.3v19.5H1344v92.8h55.1V538.9H1410v22.7h11.1V538.9H1432v22.7h55.6V468.8H1465V449.3h-98.9Zm11,10h11v9.5h-11v-9.5Zm22,0H1410v9.5h-10.9v-9.5Zm22,0H1432v9.5h-10.9v-9.5Zm21.9,0h10.8v9.5H1443v-9.5Zm-87.7,19.9h10.8v9.5h-10.8v-9.5Zm21.8,0h11v9.5h-11v-9.5Zm22,0H1410v9.5h-10.9v-9.5Zm22,0H1432v9.5h-10.9v-9.5Zm21.9,0h10.8v9.5H1443v-9.5Zm22,0h10.8v9.5H1465v-9.5Zm-109.7,20h10.8v9.3h-10.8v-9.3Zm21.8,0h11v9.3h-11v-9.3Zm65.9,0h10.8v9.3H1443v-9.3Zm22,0h10.8v9.3H1465v-9.3Zm-49.2,.5c7.5,0,13.7,6.1,13.7,13.7c0,7.7,-6.2,13.6,-13.7,13.6c-7.6,0,-13.8,-5.9,-13.8,-13.6c0,-7.6,6.2,-13.7,13.8,-13.7Zm-3.2,5.2v5.3h-5.4v6.4h5.4V522h6.4v-5.4h5.3v-6.4H1419v-5.3h-6.4Zm-57.3,14.2h10.8v9.5h-10.8v-9.5Zm21.8,0h11v9.5h-11v-9.5Zm65.9,0h10.8v9.5H1443v-9.5Zm22,0h10.8v9.5H1465v-9.5Zm-109.7,19.8h10.8v9.5h-10.8v-9.5Zm21.8,0h11v9.5h-11v-9.5Zm65.9,0h10.8v9.5H1443v-9.5Zm22,0h10.8v9.5H1465v-9.5Z" class="g3_3" />
<path fill-rule="evenodd" d="M1366.1,449.3v19.5H1344v92.8h55.1V538.9H1410v22.7h11.1V538.9H1432v22.7h55.6V468.8H1465V449.3h-98.9Zm11,10h11v9.5h-11v-9.5Zm22,0H1410v9.5h-10.9v-9.5Zm22,0H1432v9.5h-10.9v-9.5Zm21.9,0h10.8v9.5H1443v-9.5Zm-87.7,19.9h10.8v9.5h-10.8v-9.5Zm21.8,0h11v9.5h-11v-9.5Zm22,0H1410v9.5h-10.9v-9.5Zm22,0H1432v9.5h-10.9v-9.5Zm21.9,0h10.8v9.5H1443v-9.5Zm22,0h10.8v9.5H1465v-9.5Zm-109.7,20h10.8v9.3h-10.8v-9.3Zm21.8,0h11v9.3h-11v-9.3Zm65.9,0h10.8v9.3H1443v-9.3Zm22,0h10.8v9.3H1465v-9.3Zm-49.2,.5c7.5,0,13.7,6.1,13.7,13.7c0,7.7,-6.2,13.6,-13.7,13.6c-7.6,0,-13.8,-5.9,-13.8,-13.6c0,-7.6,6.2,-13.7,13.8,-13.7Zm-3.2,5.2v5.3h-5.4v6.4h5.4V522h6.4v-5.4h5.3v-6.4H1419v-5.3h-6.4Zm-57.3,14.2h10.8v9.5h-10.8v-9.5Zm21.8,0h11v9.5h-11v-9.5Zm65.9,0h10.8v9.5H1443v-9.5Zm22,0h10.8v9.5H1465v-9.5Zm-109.7,19.8h10.8v9.5h-10.8v-9.5Zm21.8,0h11v9.5h-11v-9.5Zm65.9,0h10.8v9.5H1443v-9.5Zm22,0h10.8v9.5H1465v-9.5Z" class="g4_3" />
<path fill-rule="evenodd" d="M762.2,620.8c-1.7,0,-3,1.4,-3,3.1v91.3c0,1.7,1.3,3.1,3,3.1h55.6l-.1,.9l-2.3,11.9h-7.1v4.5h40.8v-4.5h-6.8l-2.5,-11.9l-.1,-.9h58.5c1.7,0,3,-1.4,3,-3.1V623.9c0,-1.7,-1.3,-3.1,-3,-3.1h-136Zm68,2.9c.8,0,1.4,.6,1.4,1.4c0,.8,-.6,1.4,-1.4,1.4c-.8,0,-1.4,-.6,-1.4,-1.4c0,-.8,.6,-1.4,1.4,-1.4Zm-62.9,6.5H893.1v71.5H767.3V630.2Z" class="g1_3" />
<path fill-rule="evenodd" d="M762.2,617.8c-1.7,0,-3,1.4,-3,3v91.4c0,1.7,1.3,3,3,3h55.6l-.1,1l-2.3,11.7h-7.1v4.6h40.8v-4.6h-6.8l-2.5,-11.7l-.1,-1h58.5c1.7,0,3,-1.3,3,-3V620.8c0,-1.6,-1.3,-3,-3,-3h-136Zm68,2.9c.8,0,1.4,.6,1.4,1.4c0,.7,-.6,1.3,-1.4,1.3c-.8,0,-1.4,-.6,-1.4,-1.3c0,-.8,.6,-1.4,1.4,-1.4Zm-62.9,6.2H893.1v71.7H767.3V626.9Z" class="g4_3" />
<path fill-rule="evenodd" d="M1187.4,833.5h-33.3v-335h66.6v335h-33.3Z" class="g1_3" />
<path d="M1187.4,833.5h-33.3v-335h66.6v335h-33.3Z" class="g5_3" />
<path fill-rule="evenodd" d="M1187.4,830.4h-33.3V495.2h66.6V830.4h-33.3Z" class="g6_3" />
<path d="M1187.4,830.4h-33.3V495.2h66.6V830.4h-33.3Z" class="g7_3" />
<image preserveAspectRatio="none" x="1160" y="614" width="244" height="56" xlink:href="3/img/2.png" />
<path fill-rule="evenodd" d="M1436.4,622.1c-8.5,0,-16.9,.9,-23.5,2.9c-13,3.9,-13,10.2,0,14.2c13,3.9,34.1,3.9,47,0c13,-4,13,-10.3,0,-14.2c-6.4,-2,-14.9,-2.9,-23.5,-2.9Zm-33.3,14.5v62.8c0,5.5,15,10.5,33.3,10.5c18.4,0,33.3,-5,33.3,-10.5V636.6c-4.7,4.2,-17.9,7.1,-33.3,7.1c-15.4,0,-28.6,-2.9,-33.3,-7.1Z" class="g1_3" />
<path fill-rule="evenodd" d="M1436.4,619c-8.5,0,-16.9,.9,-23.5,2.9c-13,3.8,-13,10.2,0,14.2c13,4,34.1,4,47,0c13,-4,13,-10.4,0,-14.2c-6.4,-2,-14.9,-2.9,-23.5,-2.9Zm-33.3,14.5v62.7c0,5.6,15,10.6,33.3,10.6c18.4,0,33.3,-5,33.3,-10.6V633.5c-4.7,4.3,-17.9,7.2,-33.3,7.2c-15.4,0,-28.6,-2.9,-33.3,-7.2Z" class="g4_3" />
<path fill-rule="evenodd" d="M1463.8,642.8c-8.6,0,-17.1,.9,-23.6,2.9c-12.9,3.9,-12.9,10.3,0,14.2c13,4,34.1,4,47.1,0c13,-3.9,13,-10.3,0,-14.2c-6.6,-2,-15.1,-2.9,-23.5,-2.9Zm-33.3,14.5V720c0,5.6,14.8,10.7,33.3,10.7c18.3,0,33.3,-5.1,33.3,-10.7V657.3c-4.8,4.3,-17.9,7.2,-33.3,7.2c-15.5,0,-28.6,-2.9,-33.3,-7.2Z" class="g1_3" />
<path fill-rule="evenodd" d="M1463.8,639.6c-8.6,0,-17.1,1.1,-23.6,3.1c-12.9,3.8,-12.9,10.2,0,14.2c13,4,34.1,4,47.1,0c13,-4,13,-10.4,0,-14.2c-6.6,-2,-15.1,-3.1,-23.5,-3.1Zm-33.3,14.7v62.6c0,5.7,14.8,10.7,33.3,10.7c18.3,0,33.3,-5,33.3,-10.7V654.3c-4.8,4.3,-17.9,7.2,-33.3,7.2c-15.5,0,-28.6,-2.9,-33.3,-7.2Z" class="g4_3" />
<image preserveAspectRatio="none" x="1445" y="664" width="23" height="56" xlink:href="3/img/3.png" />
<path fill-rule="evenodd" d="M1493.6,668.8c-8.6,0,-17.2,.9,-23.6,2.9c-13,3.8,-13,10.2,0,14.2c13,4,34.1,4,47.1,0c13,-4,13,-10.4,0,-14.2c-6.4,-2,-15,-2.9,-23.5,-2.9Zm-33.4,14.5V746c0,5.6,15,10.7,33.4,10.7c18.3,0,33.3,-5.1,33.3,-10.7V683.3c-4.8,4.3,-17.9,7.2,-33.3,7.2c-15.5,0,-28.6,-2.9,-33.4,-7.2Z" class="g1_3" />
<path fill-rule="evenodd" d="M1493.6,665.7c-8.6,0,-17.2,1,-23.6,3c-13,3.8,-13,10.2,0,14.2c13,3.9,34.1,3.9,47.1,0c13,-4,13,-10.4,0,-14.2c-6.4,-2,-15,-3,-23.5,-3Zm-33.4,14.6v62.6c0,5.7,15,10.7,33.4,10.7c18.3,0,33.3,-5,33.3,-10.7V680.3c-4.8,4.2,-17.9,7.1,-33.3,7.1c-15.5,0,-28.6,-2.9,-33.4,-7.1Z" class="g4_3" />
<path fill-rule="evenodd" d="M1484.4,697.4c0,3.3,2.1,6.4,5.6,8.4c-3.5,1.8,-5.6,5,-5.6,8.4c0,3.3,2.1,6.5,5.6,8.4c-3.5,2,-5.6,5,-5.6,8.4c0,3.5,2.1,6.6,5.6,8.5c-3.5,1.9,-5.6,5.1,-5.6,8.4h2.4c0,-.6,.2,-1.2,.3,-1.8H1500c.1,.6,.1,1.2,.1,1.8h2.6c0,-3.3,-2.1,-6.5,-5.6,-8.4c3.5,-1.9,5.6,-5,5.6,-8.5c0,-3.4,-2.1,-6.4,-5.6,-8.4c3.5,-1.9,5.6,-5.1,5.6,-8.4c0,-3.4,-2.1,-6.6,-5.6,-8.4c3.5,-2,5.6,-5.1,5.6,-8.4h-2.6c0,.4,0,1,-.1,1.7h-12.9c-.1,-.7,-.3,-1.3,-.3,-1.7h-2.4Zm3.5,3.2h11.3c-1.2,1.7,-3.2,3,-5.6,3.8c-2.5,-.8,-4.5,-2.1,-5.7,-3.8Zm5.7,6.6c2.4,.6,4.4,1.9,5.6,3.6h-11.3c1.2,-1.7,3.2,-3,5.7,-3.6Zm-6.5,5.1H1500c.1,.7,.1,1.3,.1,1.9c0,.6,0,1.2,-.1,1.7h-12.9c-.1,-.5,-.3,-1.1,-.3,-1.7c0,-.6,.2,-1.2,.3,-1.9Zm.8,5.1h11.3c-1.2,1.7,-3.2,3,-5.6,4c-2.5,-1,-4.5,-2.3,-5.7,-4Zm5.7,6.6c2.4,.7,4.4,2.1,5.5,3.6h-11c1,-1.5,3,-2.9,5.5,-3.6Zm-6.5,5.2H1500c.1,.6,.1,1.2,.1,1.8c0,.6,0,1.2,-.1,1.8h-12.9c-.1,-.6,-.3,-1.2,-.3,-1.8c0,-.6,.2,-1.2,.3,-1.8Zm.8,5.1h11.3c-1.1,1.7,-3,3.1,-5.6,3.9c-2.6,-.8,-4.6,-2.2,-5.7,-3.9Zm5.7,6.6c2.4,.6,4.4,2,5.5,3.7h-11c1,-1.7,3,-3.1,5.5,-3.7Z" class="g1_3" />
<path fill-rule="evenodd" d="M1484.4,694.3c0,3.4,2.1,6.4,5.6,8.4c-3.5,1.9,-5.6,5.1,-5.6,8.4c0,3.4,2.1,6.6,5.6,8.4c-3.5,1.9,-5.6,5.1,-5.6,8.4c0,3.5,2.1,6.6,5.6,8.4c-3.5,2,-5.6,5.2,-5.6,8.6h2.4c0,-.8,.2,-1.2,.3,-1.8H1500c.1,.6,.1,1,.1,1.8h2.6c0,-3.4,-2.1,-6.6,-5.6,-8.6c3.5,-1.8,5.6,-4.9,5.6,-8.4c0,-3.3,-2.1,-6.5,-5.6,-8.4c3.5,-1.8,5.6,-5,5.6,-8.4c0,-3.3,-2.1,-6.5,-5.6,-8.4c3.5,-2,5.6,-5,5.6,-8.4h-2.6c0,.5,0,1.1,-.1,1.7h-12.9c-.1,-.6,-.3,-1.2,-.3,-1.7h-2.4Zm3.5,3.2h11.3c-1.2,1.7,-3.2,3.1,-5.6,3.8c-2.5,-.7,-4.5,-2.1,-5.7,-3.8Zm5.7,6.4c2.4,.8,4.4,2.2,5.6,3.9h-11.3c1.2,-1.7,3.2,-3.1,5.7,-3.9Zm-6.5,5.4H1500c.1,.6,.1,1.2,.1,1.8c0,.6,0,1.2,-.1,1.7h-12.9c-.1,-.5,-.3,-1.1,-.3,-1.7c0,-.6,.2,-1.2,.3,-1.8Zm.8,5h11.3c-1.2,1.7,-3.2,3.1,-5.6,3.9c-2.5,-.8,-4.5,-2.2,-5.7,-3.9Zm5.7,6.6c2.4,.8,4.4,2.1,5.5,3.7h-11c1,-1.6,3,-2.9,5.5,-3.7Zm-6.5,5.2H1500c.1,.6,.1,1.2,.1,1.8c0,.6,0,1.3,-.1,1.9h-12.9c-.1,-.6,-.3,-1.3,-.3,-1.9c0,-.6,.2,-1.2,.3,-1.8Zm.8,5h11.3c-1.1,1.9,-3,3.2,-5.6,4c-2.6,-.8,-4.6,-2.1,-5.7,-4Zm5.7,6.8c2.4,.6,4.4,1.9,5.5,3.6h-11c1,-1.7,3,-3,5.5,-3.6Z" class="g2_3" />
<path fill-rule="evenodd" d="M1307,636.7V636l.2,-.3v-.4l.1,-.3v-.1l.2,-.3l.1,-.2v-.3l.2,-.1l.1,-.3l.2,-.2l.1,-.1l.3,-.3l.2,-.2l.1,-.2l.4,-.1l.1,-.2l.2,-.1l.3,-.2h.3l.1,-.1l.3,-.2h.5l.3,-.1h58l.4,.1h.4l.3,.2l.2,.1h.3l.1,.2l.3,.1l.2,.2l.1,.1l.3,.2l.2,.2l.2,.3l.1,.1l.2,.2l.1,.3l.2,.1l.1,.3l.2,.2v.3l.1,.1l.2,.3v.8l.1,.3v13.3l-.1,.3v.3l-.2,.2v.3l-.1,.1l-.2,.3l-.1,.3v.2l-.2,.1l-.1,.4l-.3,.1l-.2,.2l-.2,.3l-.1,.1l-.3,.2l-.2,.1h-.3l-.1,.2l-.3,.1l-.2,.2h-.3l-.1,.1h-.3l-.4,.2h-58l-.3,-.2h-.5l-.3,-.1l-.1,-.2h-.3l-.3,-.1l-.2,-.2l-.1,-.1l-.4,-.2l-.1,-.1l-.2,-.2l-.3,-.1l-.1,-.3l-.2,-.2l-.1,-.3l-.2,-.2v-.3l-.1,-.1l-.2,-.3v-.2l-.1,-.3V650l-.2,-.1V636.7Z" class="g1_3" />
<path d="M1307,636.7v0V636l.2,-.3v-.4l.1,-.3v-.1l.2,-.3l.1,-.2v-.3l.2,-.1l.1,-.3l.2,-.2l.1,-.1l.3,-.3l.2,-.2l.1,-.2l.4,-.1l.1,-.2l.2,-.1l.3,-.2h.3l.1,-.1l.3,-.2h.5l.3,-.1h58l.4,.1h.4l.3,.2l.2,.1h.3l.1,.2l.3,.1l.2,.2l.1,.1l.3,.2l.2,.2l.2,.3l.1,.1l.2,.2l.1,.3l.2,.1l.1,.3l.2,.2v.3l.1,.1l.2,.3v.8l.1,.3v13.3l-.1,.3v.3l-.2,.2v.3l-.1,.1l-.2,.3l-.1,.3v.2l-.2,.1l-.1,.4l-.3,.1l-.2,.2l-.2,.3l-.1,.1l-.3,.2l-.2,.1h-.3l-.1,.2l-.3,.1l-.2,.2h-.3l-.1,.1h-.3l-.4,.2h-58l-.3,-.2h-.5l-.3,-.1l-.1,-.2h-.3l-.3,-.1l-.2,-.2l-.1,-.1l-.4,-.2l-.1,-.1l-.2,-.2l-.3,-.1l-.1,-.3l-.2,-.2l-.1,-.3l-.2,-.2v-.3l-.1,-.1l-.2,-.3v-.2l-.1,-.3V650l-.2,-.1V636.7Zm0,-5v0Zm66.6,22.3v0Z" class="g5_3" />
<path fill-rule="evenodd" d="M1307,633.7v-1l.2,-.1v-.3l.1,-.3v-.2l.2,-.3l.1,-.3v-.1l.2,-.2l.1,-.3l.2,-.1l.1,-.3l.3,-.2l.2,-.2l.1,-.1l.4,-.2l.1,-.1l.2,-.2l.3,-.1l.3,-.2h.1l.3,-.1h.2l.3,-.2h58.7l.1,.2h.3l.3,.1h.2l.3,.2l.1,.1l.3,.2l.2,.1l.1,.2l.3,.1l.2,.2l.2,.2l.1,.3l.2,.1l.1,.3l.2,.2l.1,.1l.2,.3v.3l.1,.2l.2,.3v.8l.1,.3v13.3l-.1,.3v.3l-.2,.1v.3l-.1,.2l-.2,.3l-.1,.1v.3l-.2,.2l-.1,.3l-.3,.1l-.2,.2l-.2,.2l-.1,.3l-.3,.1l-.2,.2h-.3l-.1,.1l-.3,.2l-.2,.1h-.3l-.1,.2h-.3l-.4,.1h-58l-.3,-.1h-.3l-.2,-.2h-.3l-.1,-.1h-.3l-.3,-.2l-.2,-.1l-.1,-.2l-.4,-.1l-.1,-.2l-.2,-.1l-.3,-.4l-.1,-.1l-.2,-.2l-.1,-.3l-.2,-.1v-.3l-.1,-.2l-.2,-.3v-.1l-.1,-.3V647l-.2,-.3v-13Z" class="g8_3" />
<path d="M1307,633.7v0v-1l.2,-.1v-.3l.1,-.3v-.2l.2,-.3l.1,-.3v-.1l.2,-.2l.1,-.3l.2,-.1l.1,-.3l.3,-.2l.2,-.2l.1,-.1l.4,-.2l.1,-.1l.2,-.2l.3,-.1l.3,-.2h.1l.3,-.1h.2l.3,-.2h58.7l.1,.2h.3l.3,.1h.2l.3,.2l.1,.1l.3,.2l.2,.1l.1,.2l.3,.1l.2,.2l.2,.2l.1,.3l.2,.1l.1,.3l.2,.2l.1,.1l.2,.3v.3l.1,.2l.2,.3v.8l.1,.3v13.3l-.1,.3v.3l-.2,.1v.3l-.1,.2l-.2,.3l-.1,.1v.3l-.2,.2l-.1,.3l-.3,.1l-.2,.2l-.2,.2l-.1,.3l-.3,.1l-.2,.2h-.3l-.1,.1l-.3,.2l-.2,.1h-.3l-.1,.2h-.3l-.4,.1h-58l-.3,-.1h-.3l-.2,-.2h-.3l-.1,-.1h-.3l-.3,-.2l-.2,-.1l-.1,-.2l-.4,-.1l-.1,-.2l-.2,-.1l-.3,-.4l-.1,-.1l-.2,-.2l-.1,-.3l-.2,-.1v-.3l-.1,-.2l-.2,-.3v-.1l-.1,-.3V647l-.2,-.3v-13Zm0,-5.1v0Zm66.6,22.3v0Z" class="g9_3" />
<path fill-rule="evenodd" d="M1365.1,634.3V634h.1v-.3l.2,-.2v-.3h.1v-.1h.2v-.2h.1v-.2h.2l.1,-.1h.2v-.2h1.4l.1,.2h.2l.1,.1l.2,.2h.1v.2l.2,.1l.1,.2v.3h.2v1.2l-.2,.1v.2l-.1,.1l-.2,.2v.2h-.1v.1h-.2v.2h-.1l-.2,.1h-.3l-.1,.2h-.8l-.2,-.2h-.1l-.2,-.1h-.3v-.2h-.1v-.1h-.2v-.2l-.1,-.2v-.1l-.2,-.2v-.3h-.1v-.4Z" class="g0_3" />
<path fill-rule="evenodd" d="M1360.3,634.3v-.5h.2v-.3l.1,-.1v-.2h.2v-.1h.1v-.2l.2,-.2h.2v-.1h.3v-.2h1.3l.2,.2h.1v.1h.2l.1,.2l.2,.2l.1,.1v.2h.2v.3h.2v1.2l-.2,.1v.2h-.2v.1l-.1,.2v.2h-.2v.1h-.1l-.2,.2h-.1v.1h-.3l-.2,.2h-.7l-.2,-.2h-.1l-.2,-.1h-.3v-.2h-.2v-.1h-.1v-.2h-.2v-.2l-.1,-.1V635l-.2,-.1v-.6Z" class="g2_3" />
<path fill-rule="evenodd" d="M1307.5,661.3v-.7l.1,-.4v-.4l.2,-.3l.1,-.2V659l.2,-.3l.1,-.1l.2,-.2l.1,-.3l.2,-.1l.1,-.2l.4,-.1l.1,-.4l.2,-.1l.3,-.2h.1l.3,-.1l.2,-.2l.3,-.1h.1l.3,-.2h.3l.3,-.1h58.1l.2,.1h.3l.3,.2h.3l.1,.1l.3,.2l.2,.1h.1l.3,.2l.2,.1l.3,.4l.2,.1l.1,.2l.2,.1l.1,.3l.2,.2l.1,.1l.2,.3l.1,.3v.2l.2,.3v.1l.1,.3v1.1l.2,12.2v.3l-.2,.4v.7l-.1,.3l-.2,.2v.3l-.1,.1l-.2,.3l-.1,.2v.3l-.3,.1l-.2,.4l-.1,.1l-.2,.2l-.1,.1l-.4,.2l-.1,.1l-.3,.2l-.2,.1h-.3l-.1,.2l-.3,.1h-.5l-.3,.2h-.8l-56.5,.1h-.3l-.3,-.1h-.5l-.3,-.2h-.3l-.1,-.1h-.3l-.2,-.2l-.3,-.1l-.1,-.2l-.3,-.1l-.2,-.2l-.1,-.1l-.4,-.2l-.1,-.1l-.2,-.4l-.1,-.1l-.2,-.2l-.1,-.3l-.2,-.1v-.3l-.1,-.2l-.2,-.3v-.4l-.1,-.3V661.3Z" class="g1_3" />
<path d="M1307.5,661.3v0v-.7l.1,-.4v-.4l.2,-.3l.1,-.2V659l.2,-.3l.1,-.1l.2,-.2l.1,-.3l.2,-.1l.1,-.2l.4,-.1l.1,-.4l.2,-.1l.3,-.2h.1l.3,-.1l.2,-.2l.3,-.1h.1l.3,-.2h.3l.3,-.1h58.1l.2,.1h.3l.3,.2h.3l.1,.1l.3,.2l.2,.1h.1l.3,.2l.2,.1l.3,.4l.2,.1l.1,.2l.2,.1l.1,.3l.2,.2l.1,.1l.2,.3l.1,.3v.2l.2,.3v.1l.1,.3v1.1l.2,12.2v.3l-.2,.4v.7l-.1,.3l-.2,.2v.3l-.1,.1l-.2,.3l-.1,.2v.3l-.3,.1l-.2,.4l-.1,.1l-.2,.2l-.1,.1l-.4,.2l-.1,.1l-.3,.2l-.2,.1h-.3l-.1,.2l-.3,.1h-.5l-.3,.2h-.8l-56.5,.1h-.3l-.3,-.1h-.5l-.3,-.2h-.3l-.1,-.1h-.3l-.2,-.2l-.3,-.1l-.1,-.2l-.3,-.1l-.2,-.2l-.1,-.1l-.4,-.2l-.1,-.1l-.2,-.4l-.1,-.1l-.2,-.2l-.1,-.3l-.2,-.1v-.3l-.1,-.2l-.2,-.3v-.4l-.1,-.3V661.3Zm0,-5v0Zm66.6,22.4v0Z" class="g5_3" />
<path fill-rule="evenodd" d="M1307.5,658.3v-.8l.1,-.3v-.5l.2,-.3l.1,-.3V656l.2,-.3l.1,-.2l.2,-.1l.1,-.3l.2,-.2l.1,-.2l.4,-.3l.1,-.1l.2,-.2l.3,-.1l.1,-.2h.3l.2,-.1l.3,-.2h.1l.3,-.1h.3l.3,-.2h58.1l.2,.2h.3l.3,.1h.3l.1,.2l.3,.1h.2l.1,.2l.3,.1l.2,.2l.3,.1l.2,.3l.1,.2l.2,.2l.1,.3l.2,.1l.1,.2l.2,.3l.1,.1v.3l.2,.3v.2l.1,.3v1.1l.2,12.2v.3l-.2,.3v.8l-.1,.3l-.2,.1v.3l-.1,.2l-.2,.3l-.1,.1v.3l-.3,.2l-.2,.1l-.1,.4l-.2,.1l-.1,.2l-.4,.1l-.1,.2l-.3,.1l-.2,.2h-.3l-.1,.1h-.3l-.3,.2h-.2l-.3,.1h-58.4l-.3,-.1h-.3l-.1,-.2h-.3l-.2,-.1l-.3,-.2l-.1,-.1l-.3,-.2l-.2,-.1l-.1,-.2l-.4,-.1l-.1,-.2l-.2,-.3l-.1,-.2l-.2,-.3l-.1,-.1l-.2,-.2v-.3l-.1,-.1l-.2,-.3v-.6l-.1,-.2V658.3Z" class="g8_3" />
<path d="M1307.5,658.3v0v-.8l.1,-.3v-.5l.2,-.3l.1,-.3V656l.2,-.3l.1,-.2l.2,-.1l.1,-.3l.2,-.2l.1,-.2l.4,-.3l.1,-.1l.2,-.2l.3,-.1l.1,-.2h.3l.2,-.1l.3,-.2h.1l.3,-.1h.3l.3,-.2h58.1l.2,.2h.3l.3,.1h.3l.1,.2l.3,.1h.2l.1,.2l.3,.1l.2,.2l.3,.1l.2,.3l.1,.2l.2,.2l.1,.3l.2,.1l.1,.2l.2,.3l.1,.1v.3l.2,.3v.2l.1,.3v1.1l.2,12.2v.3l-.2,.3v.8l-.1,.3l-.2,.1v.3l-.1,.2l-.2,.3l-.1,.1v.3l-.3,.2l-.2,.1l-.1,.4l-.2,.1l-.1,.2l-.4,.1l-.1,.2l-.3,.1l-.2,.2h-.3l-.1,.1h-.3l-.3,.2h-.2l-.3,.1h-58.4l-.3,-.1h-.3l-.1,-.2h-.3l-.2,-.1l-.3,-.2l-.1,-.1l-.3,-.2l-.2,-.1l-.1,-.2l-.4,-.1l-.1,-.2l-.2,-.3l-.1,-.2l-.2,-.3l-.1,-.1l-.2,-.2v-.3l-.1,-.1l-.2,-.3v-.6l-.1,-.2V658.3Zm0,-5.1v0Zm66.6,22.3v0Z" class="g9_3" />
<path fill-rule="evenodd" d="M1365.5,659v-.4l.2,-.2v-.1l.1,-.2V658l.2,-.2l.1,-.1v-.2h.2v-.2h.3l.1,-.1h.4V657h.9v.2h.3v.1h.3v.2h.1v.2h.2v.1h.1v.2l.2,.1v.2l.1,.1v1.2h-.1v.2l-.2,.1v.2l-.1,.1h-.2v.4h-.3v.1h-.1l-.2,.2h-1.4v-.2h-.3v-.1h-.1l-.2,-.2l-.1,-.2l-.2,-.1v-.2h-.1v-.3h-.2V659Z" class="g0_3" />
<path fill-rule="evenodd" d="M1360.8,659v-.4l.1,-.2v-.3l.2,-.1l.2,-.2v-.1h.1v-.2h.2v-.2h.3v-.1h.3l.1,-.2h.9v.2h.3v.1h.3v.2h.2v.2h.2v.1l.1,.2l.2,.1v.5h.1v.9l-.1,.1v.2l-.2,.1v.2l-.1,.1h-.2v.2l-.2,.2h-.1v.1h-.2l-.1,.2H1362l-.1,-.2h-.2v-.1h-.1l-.2,-.2l-.1,-.2l-.2,-.1l-.2,-.2v-.3h-.1V659Z" class="g2_3" />
<path fill-rule="evenodd" d="M1307.5,686.1v-.9l.1,-.2v-.6l.2,-.2l.1,-.3v-.3l.2,-.1l.1,-.2l.2,-.3l.1,-.1l.2,-.3l.1,-.2l.4,-.2l.1,-.1l.2,-.2l.3,-.1l.1,-.2l.3,-.1l.2,-.2h.3l.1,-.1h.3l.3,-.2H1370l.3,.2h.3l.3,.1h.1l.3,.2l.2,.1l.1,.2l.3,.1l.2,.2l.3,.1l.2,.2l.1,.2l.2,.3l.1,.1l.2,.3l.1,.2l.2,.1l.1,.3v.3l.2,.2v.3l.1,.3v1.1l.2,12.2v.3l-.2,.1v1l-.1,.1l-.2,.3v.2l-.1,.3l-.2,.1l-.1,.3v.2l-.3,.3l-.2,.2l-.1,.1l-.2,.2l-.1,.3l-.4,.1l-.1,.2h-.3l-.2,.1l-.3,.2l-.1,.1h-.3l-.3,.2h-.2l-.3,.1h-58.1l-.3,-.1h-.3l-.3,-.2h-.1l-.3,-.1l-.2,-.2h-.3l-.1,-.1l-.3,-.2l-.2,-.1l-.1,-.2l-.4,-.1l-.1,-.3l-.2,-.2l-.1,-.2l-.2,-.3l-.1,-.1l-.2,-.3v-.2l-.1,-.3l-.2,-.1v-.6l-.1,-.3v-13Z" class="g1_3" />
<path d="M1307.5,686.1v0v-.9l.1,-.2v-.6l.2,-.2l.1,-.3v-.3l.2,-.1l.1,-.2l.2,-.3l.1,-.1l.2,-.3l.1,-.2l.4,-.2l.1,-.1l.2,-.2l.3,-.1l.1,-.2l.3,-.1l.2,-.2h.3l.1,-.1h.3l.3,-.2H1370l.3,.2h.3l.3,.1h.1l.3,.2l.2,.1l.1,.2l.3,.1l.2,.2l.3,.1l.2,.2l.1,.2l.2,.3l.1,.1l.2,.3l.1,.2l.2,.1l.1,.3v.3l.2,.2v.3l.1,.3v1.1l.2,12.2v.3l-.2,.1v1l-.1,.1l-.2,.3v.2l-.1,.3l-.2,.1l-.1,.3v.2l-.3,.3l-.2,.2l-.1,.1l-.2,.2l-.1,.3l-.4,.1l-.1,.2h-.3l-.2,.1l-.3,.2l-.1,.1h-.3l-.3,.2h-.2l-.3,.1h-58.1l-.3,-.1h-.3l-.3,-.2h-.1l-.3,-.1l-.2,-.2h-.3l-.1,-.1l-.3,-.2l-.2,-.1l-.1,-.2l-.4,-.1l-.1,-.3l-.2,-.2l-.1,-.2l-.2,-.3l-.1,-.1l-.2,-.3v-.2l-.1,-.3l-.2,-.1v-.6l-.1,-.3v-13Zm0,-5.1v0Zm66.6,22.3v0Z" class="g5_3" />
<path fill-rule="evenodd" d="M1307.5,682.9v-.8l.1,-.2v-.6l.2,-.3l.1,-.1v-.3l.2,-.2l.1,-.1l.2,-.3l.1,-.2l.2,-.3l.1,-.2l.4,-.1l.1,-.2l.2,-.1l.3,-.2l.1,-.1l.3,-.2l.2,-.1h.3l.1,-.2h.3l.3,-.1H1370l.3,.1h.3l.3,.2h.1l.3,.1l.2,.2l.1,.1l.3,.2l.2,.1l.3,.2l.2,.1l.1,.2l.2,.3l.1,.2l.2,.3l.1,.1l.2,.2l.1,.3v.1l.2,.3v.3l.1,.3v1l.2,12.3v.3l-.2,.2v.8l-.1,.3l-.2,.3v.1l-.1,.3l-.2,.2l-.1,.3v.1l-.3,.3l-.2,.2l-.1,.1l-.2,.2l-.1,.2l-.4,.3h-.1l-.3,.1l-.2,.2l-.3,.1l-.1,.2h-.3l-.3,.1h-.8l-.2,.2h-57.6l-.3,-.2h-.3l-.3,-.1h-.1l-.3,-.2l-.2,-.1h-.3l-.1,-.2l-.3,-.1l-.2,-.2l-.1,-.1l-.4,-.4l-.1,-.1l-.2,-.2l-.1,-.3l-.2,-.1l-.1,-.2l-.2,-.3v-.3l-.1,-.1l-.2,-.3v-.5l-.1,-.3V682.9Z" class="g8_3" />
<path d="M1307.5,682.9v0v-.8l.1,-.2v-.6l.2,-.3l.1,-.1v-.3l.2,-.2l.1,-.1l.2,-.3l.1,-.2l.2,-.3l.1,-.2l.4,-.1l.1,-.2l.2,-.1l.3,-.2l.1,-.1l.3,-.2l.2,-.1h.3l.1,-.2h.3l.3,-.1H1370l.3,.1h.3l.3,.2h.1l.3,.1l.2,.2l.1,.1l.3,.2l.2,.1l.3,.2l.2,.1l.1,.2l.2,.3l.1,.2l.2,.3l.1,.1l.2,.2l.1,.3v.1l.2,.3v.3l.1,.3v1l.2,12.3v.3l-.2,.2v.8l-.1,.3l-.2,.3v.1l-.1,.3l-.2,.2l-.1,.3v.1l-.3,.3l-.2,.2l-.1,.1l-.2,.2l-.1,.2l-.4,.3h-.1l-.3,.1l-.2,.2l-.3,.1l-.1,.2h-.3l-.3,.1h-.8l-.2,.2h-57.6l-.3,-.2h-.3l-.3,-.1h-.1l-.3,-.2l-.2,-.1h-.3l-.1,-.2l-.3,-.1l-.2,-.2l-.1,-.1l-.4,-.4l-.1,-.1l-.2,-.2l-.1,-.3l-.2,-.1l-.1,-.2l-.2,-.3v-.3l-.1,-.1l-.2,-.3v-.5l-.1,-.3V682.9Zm0,-4.9v0Zm66.6,22.3v0Z" class="g9_3" />
<path fill-rule="evenodd" d="M1365.5,683.6v-.4h.2v-.3h.1v-.3h.2v-.2h.1v-.2h.2v-.1h.1v-.2h.3l.2,-.1h1.1l.1,.1h.3v.2h.2v.1h.1l.2,.2l.1,.2v.1l.2,.2v.1h.1v1.2l-.1,.2v.1h-.2v.3h-.1v.2h-.2v.2h-.1l-.2,.1l-.1,.2h-.3l-.2,.1h-.7l-.2,-.1h-.3l-.2,-.2h-.1v-.1h-.2V685h-.1v-.2h-.2v-.1l-.1,-.2v-.1l-.2,-.2v-.6Z" class="g0_3" />
<path fill-rule="evenodd" d="M1360.8,683.6v-.4h.1v-.3l.2,-.2v-.1h.2v-.2l.1,-.2h.2v-.1h.1v-.2h.3l.2,-.1h1l.2,.1h.3v.2h.1v.1h.2l.2,.2v.2h.1v.1l.2,.2v.3l.1,.1v.8l-.1,.1v.3h-.2v.3h-.1v.2h-.2v.2h-.2l-.1,.1l-.2,.2h-.3l-.1,.1h-.9v-.1h-.3l-.2,-.2h-.1v-.1h-.2V685h-.1v-.2h-.2v-.1h-.2v-.3l-.1,-.2v-.6Z" class="g2_3" />
<path fill-rule="evenodd" d="M1307.5,710.7v-.8l.1,-.3v-.5l.2,-.3l.1,-.3v-.1l.2,-.3l.1,-.2l.2,-.1l.1,-.3l.2,-.2l.1,-.1l.4,-.4l.1,-.1l.2,-.2l.3,-.1l.1,-.2h.3l.2,-.1l.3,-.2h.1l.3,-.1h.3l.3,-.2h58.1l.2,.2h.3l.3,.1h.3l.1,.2l.3,.1h.2l.1,.2l.3,.1l.2,.2l.3,.1l.2,.4l.1,.1l.2,.2l.1,.3l.2,.1l.1,.2l.2,.3l.1,.1v.3l.2,.3v.2l.1,.3v1.1l.2,26.2v.2l-.2,.3v.8l-.1,.3l-.2,.1v.3l-.1,.3l-.2,.2l-.1,.1v.3l-.3,.2l-.2,.3l-.1,.2l-.2,.1l-.1,.2l-.4,.1l-.1,.2l-.3,.1l-.2,.2l-.3,.1h-.1l-.3,.2h-.3l-.2,.1H1369l-56.5,.2h-.3l-.3,-.2h-.8l-.3,-.1l-.1,-.2h-.3l-.2,-.1l-.3,-.2l-.1,-.1h-.3l-.2,-.3l-.1,-.2l-.4,-.1l-.1,-.2l-.2,-.1l-.1,-.4l-.2,-.1l-.1,-.3l-.2,-.2v-.3l-.1,-.1l-.2,-.3V738l-.1,-.3v-27Z" class="g1_3" />
<path d="M1307.5,710.7v0v-.8l.1,-.3v-.5l.2,-.3l.1,-.3v-.1l.2,-.3l.1,-.2l.2,-.1l.1,-.3l.2,-.2l.1,-.1l.4,-.4l.1,-.1l.2,-.2l.3,-.1l.1,-.2h.3l.2,-.1l.3,-.2h.1l.3,-.1h.3l.3,-.2h58.1l.2,.2h.3l.3,.1h.3l.1,.2l.3,.1h.2l.1,.2l.3,.1l.2,.2l.3,.1l.2,.4l.1,.1l.2,.2l.1,.3l.2,.1l.1,.2l.2,.3l.1,.1v.3l.2,.3v.2l.1,.3v1.1l.2,26.2v.2l-.2,.3v.8l-.1,.3l-.2,.1v.3l-.1,.3l-.2,.2l-.1,.1v.3l-.3,.2l-.2,.3l-.1,.2l-.2,.1l-.1,.2l-.4,.1l-.1,.2l-.3,.1l-.2,.2l-.3,.1h-.1l-.3,.2h-.3l-.2,.1H1369l-56.5,.2h-.3l-.3,-.2h-.8l-.3,-.1l-.1,-.2h-.3l-.2,-.1l-.3,-.2l-.1,-.1h-.3l-.2,-.3l-.1,-.2l-.4,-.1l-.1,-.2l-.2,-.1l-.1,-.4l-.2,-.1l-.1,-.3l-.2,-.2v-.3l-.1,-.1l-.2,-.3V738l-.1,-.3v-27Zm0,-5.1v0Zm66.6,36.4v0Z" class="g5_3" />
<path fill-rule="evenodd" d="M1307.5,707.6v-.8l.1,-.3v-.6l.2,-.1l.1,-.3v-.2l.2,-.3l.1,-.1l.2,-.3l.1,-.2l.2,-.2l.1,-.3l.4,-.1l.1,-.2l.2,-.1l.3,-.2l.1,-.1l.3,-.2h.2l.3,-.1l.1,-.2h.6l.3,-.1h58.1l.2,.1h.6l.3,.2l.1,.1h.3l.2,.2l.1,.1l.3,.2l.2,.1l.3,.2l.2,.1l.1,.3l.2,.2l.1,.2l.2,.3l.1,.1l.2,.3l.1,.2v.3l.2,.1v.3l.1,.3v1.1l.2,26.1v.3l-.2,.3v.8l-.1,.3l-.2,.2v.3l-.1,.1l-.2,.3l-.1,.2v.3l-.3,.1l-.2,.3l-.1,.2l-.2,.2l-.1,.1l-.4,.2l-.1,.1l-.3,.2l-.2,.1l-.3,.2h-.1l-.3,.1h-.5l-.3,.2h-.8l-56.5,.1h-.3l-.3,-.1h-.5l-.3,-.2h-.3l-.1,-.1h-.3l-.2,-.2l-.3,-.1l-.1,-.2l-.3,-.1l-.2,-.2l-.1,-.1l-.4,-.2l-.1,-.2l-.2,-.3l-.1,-.1l-.2,-.2l-.1,-.3l-.2,-.1v-.3l-.1,-.2l-.2,-.3V735l-.1,-.3V707.6Z" class="g8_3" />
<path d="M1307.5,707.6v0v-.8l.1,-.3v-.6l.2,-.1l.1,-.3v-.2l.2,-.3l.1,-.1l.2,-.3l.1,-.2l.2,-.2l.1,-.3l.4,-.1l.1,-.2l.2,-.1l.3,-.2l.1,-.1l.3,-.2h.2l.3,-.1l.1,-.2h.6l.3,-.1h58.1l.2,.1h.6l.3,.2l.1,.1h.3l.2,.2l.1,.1l.3,.2l.2,.1l.3,.2l.2,.1l.1,.3l.2,.2l.1,.2l.2,.3l.1,.1l.2,.3l.1,.2v.3l.2,.1v.3l.1,.3v1.1l.2,26.1v.3l-.2,.3v.8l-.1,.3l-.2,.2v.3l-.1,.1l-.2,.3l-.1,.2v.3l-.3,.1l-.2,.3l-.1,.2l-.2,.2l-.1,.1l-.4,.2l-.1,.1l-.3,.2l-.2,.1l-.3,.2h-.1l-.3,.1h-.5l-.3,.2h-.8l-56.5,.1h-.3l-.3,-.1h-.5l-.3,-.2h-.3l-.1,-.1h-.3l-.2,-.2l-.3,-.1l-.1,-.2l-.3,-.1l-.2,-.2l-.1,-.1l-.4,-.2l-.1,-.2l-.2,-.3l-.1,-.1l-.2,-.2l-.1,-.3l-.2,-.1v-.3l-.1,-.2l-.2,-.3V735l-.1,-.3V707.6Zm0,-5v0Zm66.6,36.3v0Z" class="g9_3" />
<path d="M1314.2,733.9l9.8,-26.4m-4.2,25.6l9.7,-25.3m-4,26.1l9.6,-26.4" class="g10_3" />
<path d="M1277.5,617.5v-2.2l.2,-.9l.1,-1.1l.2,-.3m1.4,-3.9l.3,-.5l.4,-.9l.5,-.9l.6,-.8l.5,-.8m3.2,-3l.6,-.5l.7,-.6l1,-.4l.9,-.6l.4,-.2m4.2,-1.4l.3,-.1l.9,-.2l1,-.1h2m4.5,0h4.2m4.5,0h4.2m4.5,0h4.3m4.4,0h4.4m4.3,0h4.4m4.3,0h4.4m4.5,0h4.2m4.5,0h4.2m4.5,0h4.3m4.4,0h4.4m4.3,0h4.4m4.3,0h4.4m4.5,0h4.2m4.5,0h4.3m4.4,0h4.3m4.4,0h4.4m4.3,0h4.4m4.3,0h4.4m4.5,0h4.2m4.3,0h4.5m4.4,0h4.3m4.4,0h4.3m4.4,0h4.4m4.3,0h4.4m4.5,0h4.2m4.3,0h4.5m4.4,0h4.3m4.4,0l.8,.1l.9,.2l1,.3l1,.3l.6,.1m3.8,1.9l.1,.1l1,.6l.7,.6l.8,.7l.8,.7m2.7,3.5l.3,.5l.5,.9l.4,.9l.3,.9l.3,.8m1,4.1l.1,1.1v3.4m0,4.4v4.3m0,4.4v4.3m0,4.4V646m0,4.3v4.4m0,4.3v4.5m0,4.2v4.5m0,4.2v4.5m0,4.4v4.3m0,4.4v4.4m0,4.3v4.5m0,4.2v4.5m0,4.2v4.5m0,4.2v4.5m0,4.4V742m0,4.4v4.3m-.8,4.3l-.1,.9l-.5,1.1l-.3,.7l-.4,1.1l-.2,.3m-2.4,3.5l-.3,.3l-.6,.8l-.8,.6l-.8,.8l-.7,.6m-3.9,2.1l-.6,.3l-1,.3l-1,.3l-1,.2l-.5,.1m-4.4,.3h-4.3m-4.4,0h-4.3m-4.4,0H1512m-4.2,0h-4.5m-4.2,0h-4.5m-4.3,0h-4.4m-4.4,0h-4.3m-4.4,0h-4.3m-4.4,0h-4.5m-4.2,0h-4.5m-4.2,0h-4.5m-4.3,0h-4.4m-4.4,0h-4.3m-4.4,0h-4.3m-4.4,0h-4.5m-4.2,0h-4.5m-4.3,0h-4.4m-4.3,0h-4.4m-4.4,0h-4.3m-4.4,0h-4.3m-4.4,0h-4.5m-4.2,0h-4.5m-4.3,0h-4.4m-4.3,0h-4.4m-4.3,0H1320m-4.4,0h-4.3m-4.4,0h-4.3m-4.4,0h-3.3l-1,-.3m-4.3,-1l-.6,-.3l-.9,-.5l-.9,-.5l-.8,-.4l-.6,-.5m-3.2,-2.7v-.2l-.8,-.7l-.6,-.8l-.6,-.9l-.5,-.8l-.1,-.1m-1.7,-4.2l-.2,-.4l-.3,-.9l-.1,-1.1l-.2,-.9v-.9m0,-4.5v-4.3m0,-4.2v-4.5m0,-4.4V725m0,-4.4v-4.3m0,-4.4v-4.4m0,-4.3v-4.5m0,-4.2V690m0,-4.2v-4.5m0,-4.4v-4.3m0,-4.4v-4.3m0,-4.4v-4.4m0,-4.3v-4.5m0,-4.2v-4.5m0,-4.2v-4.5m0,-4.4v-4.3" class="g11_3" />
<path d="M1273.9,692.9H1236" class="g12_3" />
<path fill-rule="evenodd" d="M1223.1,692.9l13.8,-6.8V700l-13.8,-7.1Z" class="g13_3" />
<path d="M1150.4,692.9h-65.8" class="g12_3" />
<path fill-rule="evenodd" d="M1071.7,692.9l13.8,-6.8V700l-13.8,-7.1Z" class="g13_3" />
<path d="M931.3,644.5h70.3" class="g14_3" />
<path fill-rule="evenodd" d="M1014.4,644.5l-13.7,6.9V637.6l13.7,6.9Z" class="g2_3" />
<path d="M1014.4,709.7H944.2" class="g14_3" />
<path fill-rule="evenodd" d="M931.3,709.7l13.8,-7v13.9l-13.8,-6.9Z" class="g2_3" />
<path fill-rule="evenodd" d="M787.9,658.4c0,2.6,1.7,5.1,4.4,6.6c-2.7,1.4,-4.4,4,-4.4,6.6c0,2.7,1.7,5.1,4.4,6.5c-2.7,1.6,-4.4,4,-4.4,6.7c0,2.6,1.7,5.1,4.6,6.6c-2.9,1.5,-4.6,4,-4.6,6.7h2c0,-.6,0,-1,.3,-1.5h9.9c.1,.5,.1,.9,.1,1.5h2.2c0,-2.7,-1.8,-5.2,-4.6,-6.7c2.8,-1.5,4.6,-4,4.6,-6.6c0,-2.7,-1.8,-5.1,-4.6,-6.7c2.8,-1.4,4.6,-3.8,4.6,-6.5c0,-2.6,-1.8,-5.2,-4.6,-6.6c2.8,-1.5,4.6,-4,4.6,-6.6h-2.2c0,.3,0,.9,-.1,1.4H790c-.1,-.5,-.1,-1.1,-.1,-1.4h-2Zm2.7,2.5h8.9c-.9,1.3,-2.5,2.4,-4.4,3c-2,-.6,-3.6,-1.7,-4.5,-3Zm4.5,5.2c1.9,.6,3.5,1.5,4.4,2.9h-8.9c.9,-1.4,2.5,-2.3,4.5,-2.9Zm-5.1,4.1h10.1c.1,.4,.1,.9,.1,1.4c0,.4,0,.9,-.1,1.3H790c-.1,-.4,-.1,-.9,-.1,-1.3c0,-.5,0,-1,.1,-1.4Zm.6,4h8.9c-.9,1.3,-2.5,2.4,-4.4,2.9c-2,-.5,-3.6,-1.6,-4.5,-2.9Zm4.5,5c1.9,.6,3.5,1.7,4.4,3h-8.9c.9,-1.3,2.5,-2.4,4.5,-3Zm-4.9,4.1h9.9c.1,.5,.1,.9,.1,1.5c0,.5,0,1,-.1,1.3H790c-.1,-.3,-.1,-.8,-.1,-1.3c0,-.6,0,-1,.3,-1.5Zm.4,4h8.9c-.9,1.4,-2.5,2.4,-4.4,3c-2,-.6,-3.6,-1.6,-4.5,-3Zm4.5,5.2c1.9,.6,3.5,1.7,4.4,2.9h-8.9c.9,-1.2,2.5,-2.3,4.5,-2.9Z" class="g1_3" />
<path fill-rule="evenodd" d="M787.9,655.4c0,2.6,1.7,5,4.4,6.5c-2.7,1.4,-4.4,3.8,-4.4,6.6c0,2.7,1.7,5,4.4,6.6c-2.7,1.5,-4.4,3.9,-4.4,6.5c0,2.8,1.7,5.2,4.6,6.8c-2.9,1.5,-4.6,3.9,-4.6,6.5h2c0,-.4,0,-.9,.3,-1.3h9.9c.1,.4,.1,.9,.1,1.3h2.2c0,-2.6,-1.8,-5,-4.6,-6.5c2.8,-1.6,4.6,-4,4.6,-6.8c0,-2.6,-1.8,-5,-4.6,-6.5c2.8,-1.6,4.6,-3.9,4.6,-6.6c0,-2.8,-1.8,-5.2,-4.6,-6.6c2.8,-1.5,4.6,-3.9,4.6,-6.5h-2.2c0,.3,0,.7,-.1,1.3H790c-.1,-.6,-.1,-1,-.1,-1.3h-2Zm2.7,2.4h8.9c-.9,1.4,-2.5,2.4,-4.4,3.1c-2,-.7,-3.6,-1.7,-4.5,-3.1Zm4.5,5c1.9,.7,3.5,1.7,4.4,3.1h-8.9c.9,-1.4,2.5,-2.4,4.5,-3.1Zm-5.1,4.3h10.1c.1,.5,.1,.9,.1,1.4c0,.5,0,.9,-.1,1.4H790c-.1,-.5,-.1,-.9,-.1,-1.4c0,-.5,0,-.9,.1,-1.4Zm.6,4h8.9c-.9,1.4,-2.5,2.4,-4.4,2.9c-2,-.5,-3.6,-1.5,-4.5,-2.9Zm4.5,5c1.9,.6,3.5,1.7,4.4,2.9h-8.9c.9,-1.2,2.5,-2.3,4.5,-2.9Zm-4.9,4.2h9.9c.1,.4,.1,.9,.1,1.3c0,.6,0,1,-.1,1.4H790c-.1,-.4,-.1,-.8,-.1,-1.4c0,-.4,0,-.9,.3,-1.3Zm.4,3.9h8.9c-.9,1.4,-2.5,2.5,-4.4,3.1c-2,-.6,-3.6,-1.7,-4.5,-3.1Zm4.5,5.2c1.9,.6,3.5,1.6,4.4,2.9h-8.9c.9,-1.3,2.5,-2.3,4.5,-2.9Z" class="g2_3" />
<path d="M1077.5,653.1h54.1" class="g12_3" />
<path fill-rule="evenodd" d="M1144.6,653.1l-13.7,6.8V646.2l13.7,6.9Z" class="g13_3" />
<path d="M1077.5,662.8h54.1" class="g12_3" />
<path fill-rule="evenodd" d="M1144.6,662.8l-13.7,6.9V656l13.7,6.8Z" class="g13_3" />
<path d="M1149.3,703.3h-65.8" class="g12_3" />
<path fill-rule="evenodd" d="M1070.7,703.3l13.7,-6.8v13.9l-13.7,-7.1Z" class="g13_3" />
<path d="M1224.5,652h36.7" class="g12_3" />
<path fill-rule="evenodd" d="M1274,652l-13.7,6.9V645.1L1274,652Z" class="g13_3" />
<path d="M1225.7,661.5h36.7" class="g12_3" />
<path fill-rule="evenodd" d="M1275.2,661.5l-13.7,6.8V654.4l13.7,7.1Z" class="g13_3" />
<path d="M1274.8,703.3H1237" class="g12_3" />
<path fill-rule="evenodd" d="M1224.1,703.3l13.9,-6.8v13.9l-13.9,-7.1Z" class="g13_3" />

</svg>
