<?xml version="1.0" encoding="utf-8"?>
<svg x="0" y="0" width="1564" height="1173" viewBox="0 0 1564 1173" version="1.1" style="display: block;margin-left: auto;margin-right: auto;" xmlns="http://www.w3.org/2000/svg" xmlns:xlink="http://www.w3.org/1999/xlink" xmlns:bx="https://boxy-svg.com">
  <defs>
    <clipPath id="c0_2">
      <path d="M0,1173.3V0H1564.4V1173.3Z"/>
    </clipPath>
    <style bx:fonts="DejaVuSans-Oblique_84">@font-face { font-family: DejaVuSans-Oblique_84; src: url("fonts/DejaVuSans-Oblique_84.woff") format("woff"); }</style>
    <style type="text/css">

.g0_2{
fill: #FFFFFF;
}
.g1_2{
fill: none;
stroke: #000000;
stroke-width: 7.6095405;
stroke-linecap: butt;
stroke-linejoin: miter;
stroke-miterlimit: 7;
stroke-opacity: 0.5;
}
.g2_2{
fill: none;
stroke: #F38F18;
stroke-width: 7.6095405;
stroke-linecap: butt;
stroke-linejoin: miter;
stroke-miterlimit: 7;
}
.g3_2{
fill-opacity: 0.5;
}
.g4_2{
fill: #0175AE;
}
.g5_2{
fill: none;
stroke: #000000;
stroke-width: 3.069764;
stroke-linecap: butt;
stroke-linejoin: miter;
stroke-miterlimit: 7;
stroke-opacity: 0.5;
}
.g6_2{
fill: #0077B1;
fill-opacity: 0.52;
}
.g7_2{
fill: none;
stroke: #0077B1;
stroke-width: 3.069764;
stroke-linecap: butt;
stroke-linejoin: miter;
stroke-miterlimit: 7;
}
.g8_2{
fill: #70BF41;
}
.g9_2{
fill: none;
stroke: #0077B1;
stroke-width: 1.513264;
stroke-linecap: butt;
stroke-linejoin: miter;
stroke-miterlimit: 7;
}
.g10_2{
fill: #F38F18;
}

.s1_2{
font-size: 48.89px;
font-family: DejaVuSans-Oblique_84;
fill: #00AB1D;
}
.s2_2{
font-size: 48.89px;
font-family: DejaVuSans-Oblique_84;
fill: #0175AF;
}
.s3_2{
font-size: 36.67px;
font-family: DejaVuSans-Oblique_84;
fill: #000000;
}
.s4_2{
font-size: 24.44px;
font-family: DejaVuSans-Oblique_84;
fill: #000000;
}

</style>
  </defs>
  <path d="M0,0 L0,1173 L1564,1173 L1564,0 Z " fill="#FFFFFF" stroke="none"/>
  <path fill-rule="evenodd" d="M 0 -1.443 L 1564.4 -1.443 L 1564.4 1171.857 L 0 1171.857 L 0 -1.443 Z" class="g0_2" clip-path="url(#c0_2)"/>
  <path fill-rule="evenodd" d="M 0 -1.443 L 1564.4 -1.443 L 1564.4 1171.857 L 0 1171.857 L 0 -1.443 Z" class="g0_2" clip-path="url(#c0_2)"/>
  <image preserveAspectRatio="none" x="7" y="1076" width="60" height="79" xlink:href="2/img/1.png"/>
  <path d="M1140.9,949.5H829.6V454.3h622.9V949.5H1140.9Z" class="g1_2"/>
  <path d="M1140.9,946.4H829.6V451.2h622.9V946.4H1140.9Z" class="g2_2"/>
  <path fill-rule="evenodd" d="M1173.8,750.4c-15.3,0,-30.6,1.7,-42.3,5.3c-23.2,7.1,-23.2,18.5,0,25.5c23.3,7.1,61.2,7.1,84.6,0c23.4,-7,23.4,-18.4,0,-25.5c-11.8,-3.6,-27,-5.3,-42.3,-5.3Zm-59.7,26.3V889.3c0,9.9,26.7,19.1,59.7,19.1c33,0,59.7,-9.2,59.7,-19.1V776.7c-8.4,7.5,-31.9,12.8,-59.7,12.8c-27.7,0,-51.3,-5.3,-59.7,-12.8Z" class="g3_2"/>
  <path fill-rule="evenodd" d="M1173.8,747.3c-15.3,0,-30.6,1.7,-42.3,5.2c-23.2,7.2,-23.2,18.7,0,25.7c23.3,7,61.2,7,84.6,0c23.4,-7,23.4,-18.5,0,-25.7c-11.8,-3.5,-27,-5.2,-42.3,-5.2Zm-59.7,26.3V886.2c0,9.9,26.7,19.1,59.7,19.1c33,0,59.7,-9.2,59.7,-19.1V773.6c-8.4,7.5,-31.9,12.8,-59.7,12.8c-27.7,0,-51.3,-5.3,-59.7,-12.8Z" class="g4_2"/>
  <path fill-rule="evenodd" d="M1215.3,551.6v-.7l.2,-.3v-.5l.2,-.3v-.5l.1,-.3l.2,-.3l.1,-.3l.2,-.4l.3,-.3l.1,-.4l.3,-.3l.2,-.3l.3,-.1l.3,-.3l.3,-.3l.2,-.2l.4,-.1l.3,-.3l.3,-.2l.3,-.1l.3,-.2l.5,-.2h.3l.3,-.1l.5,-.2h83.1l.4,.2l.3,.1h.3l.3,.2l.5,.2l.3,.1l.3,.2l.3,.3l.3,.1l.3,.2l.3,.3l.3,.3l.3,.1l.2,.3l.3,.3l.2,.4l.3,.3l.1,.4l.2,.3l.1,.3l.2,.3v.5l.1,.3v.8l.2,.3V570l-.2,.4v.3l-.1,.3v.5l-.2,.3l-.1,.4l-.2,.4l-.1,.3l-.3,.3l-.2,.3l-.1,.3l-.4,.3l-.3,.1l-.3,.3l-.3,.3l-.1,.2l-.3,.3l-.3,.2l-.5,.1l-.3,.2l-.3,.1l-.5,.2l-.3,.1h-.3l-.4,.2h-1.1l-81,.1h-.3l-.4,-.1h-.3l-.5,-.2h-.3l-.3,-.1h-.5l-.3,-.2l-.3,-.1l-.3,-.3l-.3,-.2l-.4,-.1l-.2,-.4l-.3,-.3l-.3,-.1l-.3,-.3l-.2,-.3l-.3,-.3l-.1,-.3l-.3,-.3l-.2,-.3l-.1,-.4l-.2,-.4l-.1,-.3v-.3l-.2,-.5v-.3l-.2,-.4V551.6Z" class="g3_2"/>
  <path d="M1215.3,551.6v0v-.7l.2,-.3v-.5l.2,-.3v-.5l.1,-.3l.2,-.3l.1,-.3l.2,-.4l.3,-.3l.1,-.4l.3,-.3l.2,-.3l.3,-.1l.3,-.3l.3,-.3l.2,-.2l.4,-.1l.3,-.3l.3,-.2l.3,-.1l.3,-.2l.5,-.2h.3l.3,-.1l.5,-.2h83.1l.4,.2l.3,.1h.3l.3,.2l.5,.2l.3,.1l.3,.2l.3,.3l.3,.1l.3,.2l.3,.3l.3,.3l.3,.1l.2,.3l.3,.3l.2,.4l.3,.3l.1,.4l.2,.3l.1,.3l.2,.3v.5l.1,.3v.8l.2,.3V570l-.2,.4v.3l-.1,.3v.5l-.2,.3l-.1,.4l-.2,.4l-.1,.3l-.3,.3l-.2,.3l-.1,.3l-.4,.3l-.3,.1l-.3,.3l-.3,.3l-.1,.2l-.3,.3l-.3,.2l-.5,.1l-.3,.2l-.3,.1l-.5,.2l-.3,.1h-.3l-.4,.2h-1.1l-81,.1h-.3l-.4,-.1h-.3l-.5,-.2h-.3l-.3,-.1h-.5l-.3,-.2l-.3,-.1l-.3,-.3l-.3,-.2l-.4,-.1l-.2,-.4l-.3,-.3l-.3,-.1l-.3,-.3l-.2,-.3l-.3,-.3l-.1,-.3l-.3,-.3l-.2,-.3l-.1,-.4l-.2,-.4l-.1,-.3v-.3l-.2,-.5v-.3l-.2,-.4V551.6Zm0,-7.2v0Zm95.4,32.1v0Z" class="g5_2"/>
  <path fill-rule="evenodd" d="M1215.3,548.6v-.8l.2,-.5V547l.2,-.3v-.4l.1,-.3l.2,-.3l.1,-.3l.2,-.5l.3,-.3l.1,-.3l.3,-.3l.2,-.3l.3,-.2l.3,-.3l.3,-.3l.2,-.1l.4,-.3l.3,-.2l.3,-.1l.3,-.2l.3,-.2l.5,-.1l.3,-.2h.3l.5,-.1h83.1l.4,.1h.3l.3,.2l.3,.1l.5,.2l.3,.2l.3,.1l.3,.2l.3,.3l.3,.1l.3,.3l.3,.3l.3,.2l.2,.3l.3,.3l.2,.3l.3,.3l.1,.5l.2,.3l.1,.3l.2,.3v.4l.1,.3v.8l.2,.3v18.8l-.2,.5v.3l-.1,.3v.4l-.2,.3l-.1,.3l-.2,.3l-.1,.5l-.3,.3l-.2,.3l-.1,.3l-.4,.3l-.3,.2l-.3,.3l-.3,.3l-.1,.1l-.3,.3l-.3,.2l-.5,.2l-.3,.1l-.3,.2l-.5,.1l-.3,.2h-.3l-.4,.1h-1.1l-81,.2h-.3l-.4,-.2h-.3l-.5,-.1h-.3l-.3,-.2l-.5,-.1h-.3l-.3,-.3l-.3,-.2l-.3,-.2l-.4,-.3l-.2,-.1l-.3,-.3l-.3,-.2l-.3,-.3l-.2,-.3l-.3,-.3l-.1,-.3l-.3,-.3l-.2,-.3l-.1,-.3l-.2,-.5l-.1,-.3v-.3l-.2,-.4v-.3l-.2,-.5V548.6Z" class="g6_2"/>
  <path d="M1215.3,548.6v0v-.8l.2,-.5V547l.2,-.3v-.4l.1,-.3l.2,-.3l.1,-.3l.2,-.5l.3,-.3l.1,-.3l.3,-.3l.2,-.3l.3,-.2l.3,-.3l.3,-.3l.2,-.1l.4,-.3l.3,-.2l.3,-.1l.3,-.2l.3,-.2l.5,-.1l.3,-.2h.3l.5,-.1h83.1l.4,.1h.3l.3,.2l.3,.1l.5,.2l.3,.2l.3,.1l.3,.2l.3,.3l.3,.1l.3,.3l.3,.3l.3,.2l.2,.3l.3,.3l.2,.3l.3,.3l.1,.5l.2,.3l.1,.3l.2,.3v.4l.1,.3v.8l.2,.3v18.8l-.2,.5v.3l-.1,.3v.4l-.2,.3l-.1,.3l-.2,.3l-.1,.5l-.3,.3l-.2,.3l-.1,.3l-.4,.3l-.3,.2l-.3,.3l-.3,.3l-.1,.1l-.3,.3l-.3,.2l-.5,.2l-.3,.1l-.3,.2l-.5,.1l-.3,.2h-.3l-.4,.1h-1.1l-81,.2h-.3l-.4,-.2h-.3l-.5,-.1h-.3l-.3,-.2l-.5,-.1h-.3l-.3,-.3l-.3,-.2l-.3,-.2l-.4,-.3l-.2,-.1l-.3,-.3l-.3,-.2l-.3,-.3l-.2,-.3l-.3,-.3l-.1,-.3l-.3,-.3l-.2,-.3l-.1,-.3l-.2,-.5l-.1,-.3v-.3l-.2,-.4v-.3l-.2,-.5V548.6Zm0,-7.2v0Zm95.4,32.1v0Z" class="g7_2"/>
  <path fill-rule="evenodd" d="M1298.6,549.8V549l.2,-.1v-.3h.1v-.2l.2,-.1v-.2l.1,-.1l.2,-.2l.1,-.1l.2,-.2l.1,-.2h.3v-.1h.2l.1,-.2h1.7l.2,.2h.1l.2,.1h.3l.1,.2v.2h.2l.1,.1v.2h.2l.2,.1v.3l.1,.2l.2,.1v.3l.1,.2v.9l-.1,.1v.5l-.2,.2v.1l-.1,.2v.1h-.2v.2l-.2,.1l-.1,.2l-.2,.1h-.1l-.2,.2l-.1,.1h-.3l-.2,.2h-.1l-.2,.1h-.7l-.2,-.1h-.5l-.1,-.2h-.2l-.1,-.1h-.2l-.1,-.2h-.2v-.1l-.1,-.2l-.2,-.1l-.1,-.2v-.1h-.2V551l-.1,-.1v-.3l-.2,-.2v-.6Z" class="g0_2"/>
  <path fill-rule="evenodd" d="M1291.7,549.8v-.6l.2,-.2v-.3l.1,-.1l.2,-.2v-.1l.1,-.2V548h.2l.2,-.2v-.1h.1l.2,-.2v-.2h.3l.1,-.1h.2l.1,-.2h1.7l.2,.2h.1l.2,.1h.1l.2,.2l.1,.2h.2v.1l.1,.2l.2,.1l.1,.2v.3h.2v.1l.1,.2v1.5l-.1,.2v.3l-.2,.1v.2l-.1,.1l-.2,.2v.1h-.1l-.2,.2v.1h-.1l-.2,.2h-.1v.1h-.3l-.2,.2h-.3l-.2,.1h-.7l-.2,-.1h-.3l-.1,-.2h-.3l-.2,-.1h-.1v-.2h-.2l-.1,-.1v-.2h-.2l-.2,-.1v-.2l-.1,-.1l-.2,-.2v-.3l-.1,-.1v-.4h-.2v-.4Z" class="g8_2"/>
  <path fill-rule="evenodd" d="M1216,586.9v-.3l.1,-.4v-.4l.2,-.4v-.3l.1,-.3l.2,-.3V584l.3,-.3l.1,-.3l.2,-.3l.1,-.5l.3,-.1l.3,-.3l.2,-.3l.3,-.3l.3,-.2l.3,-.3l.3,-.1l.3,-.3l.3,-.2l.3,-.2l.5,-.1l.3,-.2h.3l.5,-.1h.3l.4,-.2h82.4l.3,.2h.4l.3,.1h.4l.4,.2l.3,.1l.3,.2l.3,.2l.3,.3l.5,.1l.1,.3l.3,.2l.4,.3l.3,.3l.3,.3l.1,.1l.2,.5l.3,.3l.1,.3l.2,.3l.1,.5l.2,.3v.3l.1,.3v.4l.2,.4v19.5l-.2,.5v.3l-.1,.3l-.2,.3l-.1,.4l-.2,.3l-.1,.4l-.2,.3l-.3,.3l-.1,.3l-.3,.3l-.3,.3l-.2,.1l-.3,.3l-.3,.3l-.3,.2l-.3,.1l-.3,.4l-.3,.1l-.5,.2h-.3l-.5,.1l-.3,.2h-.7l-.3,.1h-82.1l-.4,-.1h-.3l-.5,-.2h-.3l-.3,-.1l-.5,-.2l-.3,-.1l-.3,-.2l-.3,-.3l-.3,-.2l-.3,-.3l-.3,-.1l-.3,-.3l-.2,-.3l-.3,-.3l-.3,-.2l-.1,-.4l-.2,-.3l-.1,-.4l-.3,-.3v-.3l-.2,-.4l-.1,-.3v-.3l-.2,-.5v-.3l-.1,-.5v-18Z" class="g3_2"/>
  <path d="M1216,586.9v0v-.3l.1,-.4v-.4l.2,-.4v-.3l.1,-.3l.2,-.3V584l.3,-.3l.1,-.3l.2,-.3l.1,-.5l.3,-.1l.3,-.3l.2,-.3l.3,-.3l.3,-.2l.3,-.3l.3,-.1l.3,-.3l.3,-.2l.3,-.2l.5,-.1l.3,-.2h.3l.5,-.1h.3l.4,-.2h82.4l.3,.2h.4l.3,.1h.4l.4,.2l.3,.1l.3,.2l.3,.2l.3,.3l.5,.1l.1,.3l.3,.2l.4,.3l.3,.3l.3,.3l.1,.1l.2,.5l.3,.3l.1,.3l.2,.3l.1,.5l.2,.3v.3l.1,.3v.4l.2,.4v19.5l-.2,.5v.3l-.1,.3l-.2,.3l-.1,.4l-.2,.3l-.1,.4l-.2,.3l-.3,.3l-.1,.3l-.3,.3l-.3,.3l-.2,.1l-.3,.3l-.3,.3l-.3,.2l-.3,.1l-.3,.4l-.3,.1l-.5,.2h-.3l-.5,.1l-.3,.2h-.7l-.3,.1h-82.1l-.4,-.1h-.3l-.5,-.2h-.3l-.3,-.1l-.5,-.2l-.3,-.1l-.3,-.2l-.3,-.3l-.3,-.2l-.3,-.3l-.3,-.1l-.3,-.3l-.2,-.3l-.3,-.3l-.3,-.2l-.1,-.4l-.2,-.3l-.1,-.4l-.3,-.3v-.3l-.2,-.4l-.1,-.3v-.3l-.2,-.5v-.3l-.1,-.5v-18Zm0,-7.2v0Zm95.3,32.1v0Z" class="g5_2"/>
  <path fill-rule="evenodd" d="M1216,583.9v-.3l.1,-.5v-.3l.2,-.5V582l.1,-.3l.2,-.4V581l.3,-.3l.1,-.4l.2,-.3l.1,-.4l.3,-.2l.3,-.3l.2,-.3l.3,-.3l.3,-.1l.3,-.3l.3,-.2l.3,-.3l.3,-.2l.3,-.1l.5,-.2l.3,-.1h.3l.5,-.2h.3l.4,-.1h82.4l.3,.1h.4l.3,.2h.4l.4,.1l.3,.2l.3,.1l.3,.2l.3,.3l.5,.2l.1,.3l.3,.1l.4,.3l.3,.3l.3,.3l.1,.2l.2,.4l.3,.3l.1,.4l.2,.3l.1,.3l.2,.4v.3l.1,.3v.5l.2,.3v19.6l-.2,.3v.4l-.1,.3l-.2,.3l-.1,.5l-.2,.3l-.1,.3l-.2,.3l-.3,.3l-.1,.3l-.3,.3l-.3,.3l-.2,.2l-.3,.3l-.3,.1l-.3,.3l-.3,.2l-.3,.1l-.3,.4h-.5l-.3,.1l-.5,.2h-.3l-.3,.1h-.4l-.3,.2h-82.1l-.4,-.2h-.3l-.5,-.1h-.3l-.3,-.2l-.5,-.1l-.3,-.2l-.3,-.2l-.3,-.3l-.3,-.1l-.3,-.3l-.3,-.2l-.3,-.3l-.2,-.3l-.3,-.3l-.3,-.1l-.1,-.5l-.2,-.3l-.1,-.3l-.3,-.3V604l-.2,-.3l-.1,-.3v-.3l-.2,-.4v-.4l-.1,-.4v-18Z" class="g6_2"/>
  <path d="M1216,583.9v0v-.3l.1,-.5v-.3l.2,-.5V582l.1,-.3l.2,-.4V581l.3,-.3l.1,-.4l.2,-.3l.1,-.4l.3,-.2l.3,-.3l.2,-.3l.3,-.3l.3,-.1l.3,-.3l.3,-.2l.3,-.3l.3,-.2l.3,-.1l.5,-.2l.3,-.1h.3l.5,-.2h.3l.4,-.1h82.4l.3,.1h.4l.3,.2h.4l.4,.1l.3,.2l.3,.1l.3,.2l.3,.3l.5,.2l.1,.3l.3,.1l.4,.3l.3,.3l.3,.3l.1,.2l.2,.4l.3,.3l.1,.4l.2,.3l.1,.3l.2,.4v.3l.1,.3v.5l.2,.3v19.6l-.2,.3v.4l-.1,.3l-.2,.3l-.1,.5l-.2,.3l-.1,.3l-.2,.3l-.3,.3l-.1,.3l-.3,.3l-.3,.3l-.2,.2l-.3,.3l-.3,.1l-.3,.3l-.3,.2l-.3,.1l-.3,.4h-.5l-.3,.1l-.5,.2h-.3l-.3,.1h-.4l-.3,.2h-82.1l-.4,-.2h-.3l-.5,-.1h-.3l-.3,-.2l-.5,-.1l-.3,-.2l-.3,-.2l-.3,-.3l-.3,-.1l-.3,-.3l-.3,-.2l-.3,-.3l-.2,-.3l-.3,-.3l-.3,-.1l-.1,-.5l-.2,-.3l-.1,-.3l-.3,-.3V604l-.2,-.3l-.1,-.3v-.3l-.2,-.4v-.4l-.1,-.4v-18Zm0,-7.2v0Zm95.3,32.1v0Z" class="g7_2"/>
  <path fill-rule="evenodd" d="M1299.2,585.1v-.6l.2,-.2v-.1l.1,-.2v-.3l.2,-.1v-.2h.1v-.2l.2,-.1l.1,-.2h.2v-.1h.1l.2,-.2h.3l.2,-.1l.1,-.2h1.5l.2,.2h.1v.1h.3l.2,.2h.2v.1h.1l.2,.2l.1,.1v.2h.2v.2l.1,.1v.2l.2,.1v.2l.1,.1v1.4l-.1,.1v.4l-.2,.1v.2l-.1,.1v.2h-.2l-.1,.1v.2h-.2l-.1,.1l-.2,.2l-.2,.1h-.3v.2h-.1l-.2,.1h-1.3v-.1h-.3l-.2,-.2h-.3l-.2,-.1v-.2h-.1l-.2,-.1h-.1v-.2l-.2,-.1l-.1,-.2l-.2,-.1v-.3h-.1v-.5l-.2,-.2v-.4Z" class="g0_2"/>
  <path fill-rule="evenodd" d="M1292.3,585.1v-.3l.2,-.2v-.4h.2v-.3l.1,-.2v-.1l.2,-.2l.1,-.2l.2,-.1v-.2h.1l.2,-.1h.1l.2,-.2h.1l.2,-.1h.1l.2,-.2h1.4l.1,.2h.2l.1,.1h.3v.2h.2l.1,.1h.2v.2l.1,.1l.2,.2l.1,.2v.1l.2,.2v.1l.1,.2v.4l.2,.2v.3h-.2v.9l-.1,.2l-.2,.1v.3l-.1,.2h-.2v.1l-.1,.2h-.2v.1h-.1l-.2,.2v.1h-.3l-.1,.2h-.2l-.1,.1h-1.3l-.1,-.1h-.3l-.2,-.2h-.1l-.2,-.1l-.1,-.2h-.2v-.1h-.1l-.2,-.2v-.1h-.1v-.2l-.2,-.1l-.1,-.2v-.1l-.2,-.2v-.5l-.2,-.1v-.3Z" class="g8_2"/>
  <path fill-rule="evenodd" d="M1216,622.2v-.3l.1,-.5v-.3l.2,-.4v-.3l.1,-.3l.2,-.3v-.5l.3,-.3l.1,-.3l.2,-.3l.1,-.5l.3,-.1l.3,-.3l.2,-.3l.3,-.3l.3,-.2l.3,-.3l.3,-.2l.3,-.3l.3,-.1l.3,-.2l.5,-.1l.3,-.2h.3l.5,-.1h.3l.4,-.2h82.4l.3,.2h.4l.3,.1h.4l.4,.2l.3,.1l.3,.2l.3,.1l.3,.3l.5,.2l.1,.3l.3,.2l.4,.3l.3,.3l.3,.3l.1,.1l.2,.5l.3,.3l.1,.3l.2,.3l.1,.5l.2,.3v.3l.1,.3v.4l.2,.3V641l-.2,.5v.3l-.1,.3l-.2,.3l-.1,.4l-.2,.3l-.1,.3l-.2,.3l-.3,.4l-.1,.3l-.3,.3l-.3,.3l-.2,.1l-.3,.3l-.3,.3l-.3,.2l-.3,.1l-.3,.3l-.3,.2l-.5,.2h-.3l-.5,.1l-.3,.2h-.7l-.3,.1h-82.1l-.4,-.1h-.3l-.5,-.2h-.3l-.3,-.1l-.5,-.2l-.3,-.2l-.3,-.1l-.3,-.3l-.3,-.2l-.3,-.3l-.3,-.1l-.3,-.3l-.2,-.3l-.3,-.3l-.3,-.2l-.1,-.5l-.2,-.3l-.1,-.3l-.3,-.3v-.3l-.2,-.4l-.1,-.3v-.3l-.2,-.5v-.3l-.1,-.5v-18Z" class="g3_2"/>
  <path d="M1216,622.2v0v-.3l.1,-.5v-.3l.2,-.4v-.3l.1,-.3l.2,-.3v-.5l.3,-.3l.1,-.3l.2,-.3l.1,-.5l.3,-.1l.3,-.3l.2,-.3l.3,-.3l.3,-.2l.3,-.3l.3,-.2l.3,-.3l.3,-.1l.3,-.2l.5,-.1l.3,-.2h.3l.5,-.1h.3l.4,-.2h82.4l.3,.2h.4l.3,.1h.4l.4,.2l.3,.1l.3,.2l.3,.1l.3,.3l.5,.2l.1,.3l.3,.2l.4,.3l.3,.3l.3,.3l.1,.1l.2,.5l.3,.3l.1,.3l.2,.3l.1,.5l.2,.3v.3l.1,.3v.4l.2,.3V641l-.2,.5v.3l-.1,.3l-.2,.3l-.1,.4l-.2,.3l-.1,.3l-.2,.3l-.3,.4l-.1,.3l-.3,.3l-.3,.3l-.2,.1l-.3,.3l-.3,.3l-.3,.2l-.3,.1l-.3,.3l-.3,.2l-.5,.2h-.3l-.5,.1l-.3,.2h-.7l-.3,.1h-82.1l-.4,-.1h-.3l-.5,-.2h-.3l-.3,-.1l-.5,-.2l-.3,-.2l-.3,-.1l-.3,-.3l-.3,-.2l-.3,-.3l-.3,-.1l-.3,-.3l-.2,-.3l-.3,-.3l-.3,-.2l-.1,-.5l-.2,-.3l-.1,-.3l-.3,-.3v-.3l-.2,-.4l-.1,-.3v-.3l-.2,-.5v-.3l-.1,-.5v-18Zm0,-7.2v0Zm95.3,32.1v0Z" class="g5_2"/>
  <path fill-rule="evenodd" d="M1216,619.2v-.4l.1,-.4v-.3l.2,-.5v-.3l.1,-.3l.2,-.4v-.4l.3,-.3l.1,-.3l.2,-.3l.1,-.4l.3,-.2l.3,-.3l.2,-.3l.3,-.3l.3,-.1l.3,-.4l.3,-.1l.3,-.3l.3,-.2l.3,-.1l.5,-.2l.3,-.1h.3l.5,-.2h.3l.4,-.1h82.4l.3,.1h.4l.3,.2h.4l.4,.1l.3,.2l.3,.1l.3,.2l.3,.3l.5,.1l.1,.4l.3,.1l.4,.3l.3,.3l.3,.3l.1,.2l.2,.4l.3,.3l.1,.3l.2,.3l.1,.4l.2,.4v.3l.1,.3v.5l.2,.3v19.5l-.2,.3v.5l-.1,.3l-.2,.3l-.1,.5l-.2,.3l-.1,.3l-.2,.3l-.3,.3l-.1,.3l-.3,.3l-.3,.3l-.2,.2l-.3,.3l-.3,.1l-.3,.3l-.3,.2l-.3,.1l-.3,.3h-.5l-.3,.2l-.5,.1h-.3l-.3,.2h-.4l-.3,.2h-82.1l-.4,-.2h-.3l-.5,-.2h-.3l-.3,-.1l-.5,-.2l-.3,-.1l-.3,-.2l-.3,-.3l-.3,-.1l-.3,-.3l-.3,-.2l-.3,-.3l-.2,-.3l-.3,-.3l-.3,-.1l-.1,-.5l-.2,-.3l-.1,-.3l-.3,-.3v-.3l-.2,-.5l-.1,-.3v-.3l-.2,-.5v-.3l-.1,-.4v-18Z" class="g6_2"/>
  <path d="M1216,619.2v0v-.4l.1,-.4v-.3l.2,-.5v-.3l.1,-.3l.2,-.4v-.4l.3,-.3l.1,-.3l.2,-.3l.1,-.4l.3,-.2l.3,-.3l.2,-.3l.3,-.3l.3,-.1l.3,-.4l.3,-.1l.3,-.3l.3,-.2l.3,-.1l.5,-.2l.3,-.1h.3l.5,-.2h.3l.4,-.1h82.4l.3,.1h.4l.3,.2h.4l.4,.1l.3,.2l.3,.1l.3,.2l.3,.3l.5,.1l.1,.4l.3,.1l.4,.3l.3,.3l.3,.3l.1,.2l.2,.4l.3,.3l.1,.3l.2,.3l.1,.4l.2,.4v.3l.1,.3v.5l.2,.3v19.5l-.2,.3v.5l-.1,.3l-.2,.3l-.1,.5l-.2,.3l-.1,.3l-.2,.3l-.3,.3l-.1,.3l-.3,.3l-.3,.3l-.2,.2l-.3,.3l-.3,.1l-.3,.3l-.3,.2l-.3,.1l-.3,.3h-.5l-.3,.2l-.5,.1h-.3l-.3,.2h-.4l-.3,.2h-82.1l-.4,-.2h-.3l-.5,-.2h-.3l-.3,-.1l-.5,-.2l-.3,-.1l-.3,-.2l-.3,-.3l-.3,-.1l-.3,-.3l-.3,-.2l-.3,-.3l-.2,-.3l-.3,-.3l-.3,-.1l-.1,-.5l-.2,-.3l-.1,-.3l-.3,-.3v-.3l-.2,-.5l-.1,-.3v-.3l-.2,-.5v-.3l-.1,-.4v-18Zm0,-7.2v0Zm95.3,32.1v0Z" class="g7_2"/>
  <path fill-rule="evenodd" d="M1299.2,620.4v-.6l.2,-.2v-.1l.1,-.2V619l.2,-.2v-.1h.1v-.2l.2,-.1l.1,-.2h.2v-.1h.1l.2,-.2h.3l.2,-.1l.1,-.2h1.5l.2,.2h.1v.1h.3l.2,.2h.2v.1h.1l.2,.2l.1,.1v.2h.2v.1l.1,.2v.2l.2,.1v.2l.1,.1V621l-.1,.1v.3l-.2,.2v.1l-.1,.2v.2h-.2l-.1,.1v.2h-.2l-.1,.1v.2h-.2l-.2,.1h-.1l-.2,.2h-.1l-.2,.1h-1.3V623h-.5l-.1,-.2h-.2l-.2,-.1l-.1,-.2l-.2,-.1h-.1v-.2l-.2,-.1l-.1,-.2l-.2,-.2v-.3h-.1V621l-.2,-.2v-.4Z" class="g0_2"/>
  <path fill-rule="evenodd" d="M1292.3,620.4v-.3l.2,-.2v-.4h.2v-.3l.1,-.2v-.2l.2,-.1l.1,-.2l.2,-.1v-.2h.1l.2,-.1h.1l.2,-.2h.1l.2,-.1h.1l.2,-.2h1.4l.1,.2h.2l.1,.1h.3v.2h.2l.1,.1h.2v.2l.1,.1l.2,.2l.1,.1v.2l.2,.2v.1l.1,.2v.4l.2,.2v.3h-.2v.9l-.1,.1l-.2,.2v.3l-.1,.2h-.2v.1l-.1,.2h-.2v.1l-.1,.2h-.2v.1h-.1l-.2,.2h-.3l-.1,.1h-1.3l-.1,-.1h-.5l-.1,-.2l-.2,-.1h-.1l-.2,-.2v-.1h-.1l-.2,-.2v-.1h-.1v-.2l-.2,-.2l-.1,-.1v-.2l-.2,-.1v-.5l-.2,-.1v-.3Z" class="g8_2"/>
  <path fill-rule="evenodd" d="M1216,657.7v-.5l.1,-.3v-.5l.2,-.3v-.3l.1,-.4l.2,-.3v-.4l.3,-.3l.1,-.4l.2,-.3l.1,-.3l.3,-.3l.3,-.3l.2,-.2l.3,-.3l.3,-.3l.3,-.2l.3,-.3l.3,-.1l.3,-.2l.3,-.1l.5,-.2l.3,-.1l.3,-.2h.5l.3,-.1h83.1l.4,.1h.3l.4,.2l.4,.1l.3,.2l.3,.1l.3,.2l.3,.1l.5,.3l.1,.2l.3,.3l.4,.3l.3,.2l.3,.3l.1,.3l.2,.3l.3,.3l.1,.4l.2,.3l.1,.4l.2,.3v.4l.1,.3v.3l.2,.5v39.4l-.2,.5v.3l-.1,.3l-.2,.4l-.1,.3l-.2,.3l-.1,.3l-.2,.4l-.3,.4l-.1,.2l-.3,.3l-.3,.3l-.2,.3l-.3,.1l-.3,.3l-.3,.2l-.3,.3l-.3,.2l-.3,.1l-.5,.2l-.3,.1h-.5l-.3,.2h-.3l-.4,.1h-82.8l-.3,-.1h-.5l-.3,-.2l-.3,-.1l-.5,-.2l-.3,-.1l-.3,-.2l-.3,-.2l-.3,-.3l-.3,-.1l-.3,-.3l-.3,-.3l-.2,-.2l-.3,-.3l-.3,-.3l-.1,-.3l-.2,-.3l-.1,-.5l-.3,-.3v-.3l-.2,-.3l-.1,-.4v-.3l-.2,-.3V696l-.1,-.3v-38Z" class="g3_2"/>
  <path d="M1216,657.7v0v-.5l.1,-.3v-.5l.2,-.3v-.3l.1,-.4l.2,-.3v-.4l.3,-.3l.1,-.4l.2,-.3l.1,-.3l.3,-.3l.3,-.3l.2,-.2l.3,-.3l.3,-.3l.3,-.2l.3,-.3l.3,-.1l.3,-.2l.3,-.1l.5,-.2l.3,-.1l.3,-.2h.5l.3,-.1h83.1l.4,.1h.3l.4,.2l.4,.1l.3,.2l.3,.1l.3,.2l.3,.1l.5,.3l.1,.2l.3,.3l.4,.3l.3,.2l.3,.3l.1,.3l.2,.3l.3,.3l.1,.4l.2,.3l.1,.4l.2,.3v.4l.1,.3v.3l.2,.5v39.4l-.2,.5v.3l-.1,.3l-.2,.4l-.1,.3l-.2,.3l-.1,.3l-.2,.4l-.3,.4l-.1,.2l-.3,.3l-.3,.3l-.2,.3l-.3,.1l-.3,.3l-.3,.2l-.3,.3l-.3,.2l-.3,.1l-.5,.2l-.3,.1h-.5l-.3,.2h-.3l-.4,.1h-82.8l-.3,-.1h-.5l-.3,-.2l-.3,-.1l-.5,-.2l-.3,-.1l-.3,-.2l-.3,-.2l-.3,-.3l-.3,-.1l-.3,-.3l-.3,-.3l-.2,-.2l-.3,-.3l-.3,-.3l-.1,-.3l-.2,-.3l-.1,-.5l-.3,-.3v-.3l-.2,-.3l-.1,-.4v-.3l-.2,-.3V696l-.1,-.3v-38Zm0,-7.2v0Zm95.3,51.9v0Z" class="g5_2"/>
  <path fill-rule="evenodd" d="M1216,654.6v-.5l.1,-.3v-.4l.2,-.3v-.3l.1,-.5l.2,-.3v-.5l.3,-.3l.1,-.3l.2,-.3l.1,-.3l.3,-.3l.3,-.3l.2,-.1l.3,-.4l.3,-.3l.3,-.1l.3,-.3l.3,-.2l.3,-.1l.3,-.2l.5,-.1l.3,-.2l.3,-.1h.5l.3,-.2h83.1l.4,.2h.3l.4,.1l.4,.2l.3,.1l.3,.2l.3,.1l.3,.2l.5,.3l.1,.1l.3,.3l.4,.4l.3,.1l.3,.3l.1,.3l.2,.3l.3,.3l.1,.3l.2,.3l.1,.5l.2,.3v.5l.1,.3v.3l.2,.4v39.4l-.2,.5v.3l-.1,.3l-.2,.3l-.1,.5l-.2,.3l-.1,.3l-.2,.3l-.3,.5l-.1,.1l-.3,.3l-.3,.3l-.2,.3l-.3,.2l-.3,.3l-.3,.1l-.3,.3l-.3,.2l-.3,.1l-.5,.2l-.3,.2h-.5l-.3,.1h-.3l-.4,.2h-82.8l-.3,-.2l-.5,-.1h-.3l-.3,-.2l-.5,-.2l-.3,-.1l-.3,-.2l-.3,-.3l-.3,-.1l-.3,-.2l-.3,-.3l-.3,-.3l-.2,-.1l-.3,-.3l-.3,-.3l-.1,-.3l-.2,-.4l-.1,-.4l-.3,-.3v-.3l-.2,-.3l-.1,-.5v-.3l-.2,-.5v-.3l-.1,-.3v-38Z" class="g6_2"/>
  <path d="M1216,654.6v0v-.5l.1,-.3v-.4l.2,-.3v-.3l.1,-.5l.2,-.3v-.5l.3,-.3l.1,-.3l.2,-.3l.1,-.3l.3,-.3l.3,-.3l.2,-.1l.3,-.4l.3,-.3l.3,-.1l.3,-.3l.3,-.2l.3,-.1l.3,-.2l.5,-.1l.3,-.2l.3,-.1h.5l.3,-.2h83.1l.4,.2h.3l.4,.1l.4,.2l.3,.1l.3,.2l.3,.1l.3,.2l.5,.3l.1,.1l.3,.3l.4,.4l.3,.1l.3,.3l.1,.3l.2,.3l.3,.3l.1,.3l.2,.3l.1,.5l.2,.3v.5l.1,.3v.3l.2,.4v39.4l-.2,.5v.3l-.1,.3l-.2,.3l-.1,.5l-.2,.3l-.1,.3l-.2,.3l-.3,.5l-.1,.1l-.3,.3l-.3,.3l-.2,.3l-.3,.2l-.3,.3l-.3,.1l-.3,.3l-.3,.2l-.3,.1l-.5,.2l-.3,.2h-.5l-.3,.1h-.3l-.4,.2h-82.8l-.3,-.2l-.5,-.1h-.3l-.3,-.2l-.5,-.2l-.3,-.1l-.3,-.2l-.3,-.3l-.3,-.1l-.3,-.2l-.3,-.3l-.3,-.3l-.2,-.1l-.3,-.3l-.3,-.3l-.1,-.3l-.2,-.4l-.1,-.4l-.3,-.3v-.3l-.2,-.3l-.1,-.5v-.3l-.2,-.5v-.3l-.1,-.3v-38Zm0,-7.2v0Zm95.3,52v0Z" class="g7_2"/>
  <path d="M1225.7,692.3l13.8,-37.9m-5.8,36.6l13.9,-36.3m-5.8,37.6l13.7,-37.9" class="g9_2"/>
  <image preserveAspectRatio="none" x="975" y="583" width="141" height="141" xlink:href="2/img/2.png"/>
  <image preserveAspectRatio="none" x="879" y="507" width="333" height="116" xlink:href="2/img/3.png"/>
  <path fill-rule="evenodd" d="M1140.9,502.6h-121V412.4h242v90.2h-121Z" class="g3_2"/>
  <path fill-rule="evenodd" d="M1140.9,499.5h-121V409.4h242v90.1h-121Z" class="g10_2"/>
  <text x="1039.347" y="462.457" dx="0,0,0,0,0,-0.2,0,0,0,0,-0.1,0,0,-0.1,0,0" class="s4_2" style="white-space: pre; font-size: 24.4px;">/CanDIG/metadata</text>
</svg>