<?xml version="1.0" encoding="UTF-8" standalone="no"?>
<!DOCTYPE svg PUBLIC "-//W3C//DTD SVG 1.1//EN"
"http://www.w3.org/Graphics/SVG/1.1/DTD/svg11.dtd">


<!-- Page 1 -->
<svg x="0" y="0" width="1564" height="1173" viewBox="0 0 1564 1173" version="1.1" xmlns="http://www.w3.org/2000/svg" xmlns:xlink="http://www.w3.org/1999/xlink"
style="display: block;margin-left: auto;margin-right: auto;">
<defs>
<clipPath id="c0_1"><path d="M0,1173.3V0H1564.4V1173.3Z" /></clipPath>

<style type="text/css"><![CDATA[

.g0_1{
fill: #FFFFFF;
}
.g1_1{
fill-opacity: 0.75;
}
.g2_1{
fill: #0175AE;
}
.g3_1{
fill-opacity: 0.5;
}
.g4_1{
fill: #70BF41;
}
.g5_1{
fill: none;
stroke: #000000;
stroke-width: 3.069764;
stroke-linecap: butt;
stroke-linejoin: miter;
stroke-miterlimit: 7;
stroke-opacity: 0.5;
}
.g6_1{
fill: #0077B1;
fill-opacity: 0.52;
}
.g7_1{
fill: none;
stroke: #0077B1;
stroke-width: 3.069764;
stroke-linecap: butt;
stroke-linejoin: miter;
stroke-miterlimit: 7;
}
.g8_1{
fill: none;
stroke: #0077B1;
stroke-width: 1.513264;
stroke-linecap: butt;
stroke-linejoin: miter;
stroke-miterlimit: 7;
}
.g9_1{
fill: none;
stroke: #002452;
stroke-width: 3.069764;
stroke-linecap: butt;
stroke-linejoin: miter;
}
.g10_1{
fill: #6E99B8;
}
.g11_1{
fill: #0077B1;
}


]]></style>

</defs>
<path d="M0,0
L0,1173
L1564,1173
L1564,0 Z " 
fill="#FFFFFF" stroke="none" />
<g clip-path="url(#c0_1)">
<path fill-rule="evenodd" d="M0,.1H1564.4V1173.4H0V.1Z" class="g0_1" />
<path fill-rule="evenodd" d="M0,.1H1564.4V1173.4H0V.1Z" class="g0_1" />
</g>
<path fill-rule="evenodd" d="M1321.1,370v12h-13.6v57.3h34V425.4h6.8v13.9h6.7V425.4h6.9v13.9h34.3V382h-14V370h-61.1Zm6.8,6.2h6.8V382h-6.8v-5.8Zm13.6,0h6.8V382h-6.8v-5.8Zm13.5,0h6.9V382H1355v-5.8Zm13.6,0h6.7V382h-6.7v-5.8Zm-54.3,12.3h6.8v5.9h-6.8v-5.9Zm13.6,0h6.8v5.9h-6.8v-5.9Zm13.6,0h6.8v5.9h-6.8v-5.9Zm13.5,0h6.9v5.9H1355v-5.9Zm13.6,0h6.7v5.9h-6.7v-5.9Zm13.6,0h6.7v5.9h-6.7v-5.9Zm-67.9,12.3h6.8v5.8h-6.8v-5.8Zm13.6,0h6.8v5.8h-6.8v-5.8Zm40.7,0h6.7v5.8h-6.7v-5.8Zm13.6,0h6.7v5.8h-6.7v-5.8Zm-30.4,.3c4.7,0,8.5,3.9,8.5,8.6c0,4.6,-3.8,8.4,-8.5,8.4c-4.8,0,-8.4,-3.8,-8.4,-8.4c0,-4.7,3.6,-8.6,8.4,-8.6Zm-2,3.2v3.4h-3.4v4h3.4v3.2h4v-3.2h3.3v-4h-3.3v-3.4h-4Zm-35.5,8.9h6.8V419h-6.8v-5.8Zm13.6,0h6.8V419h-6.8v-5.8Zm40.7,0h6.7V419h-6.7v-5.8Zm13.6,0h6.7V419h-6.7v-5.8Zm-67.9,12.2h6.8v5.8h-6.8v-5.8Zm13.6,0h6.8v5.8h-6.8v-5.8Zm40.7,0h6.7v5.8h-6.7v-5.8Zm13.6,0h6.7v5.8h-6.7v-5.8Z" class="g1_1" />
<path fill-rule="evenodd" d="M1321.1,370v12h-13.6v57.3h34V425.4h6.8v13.9h6.7V425.4h6.9v13.9h34.3V382h-14V370h-61.1Zm6.8,6.2h6.8V382h-6.8v-5.8Zm13.6,0h6.8V382h-6.8v-5.8Zm13.5,0h6.9V382H1355v-5.8Zm13.6,0h6.7V382h-6.7v-5.8Zm-54.3,12.3h6.8v5.9h-6.8v-5.9Zm13.6,0h6.8v5.9h-6.8v-5.9Zm13.6,0h6.8v5.9h-6.8v-5.9Zm13.5,0h6.9v5.9H1355v-5.9Zm13.6,0h6.7v5.9h-6.7v-5.9Zm13.6,0h6.7v5.9h-6.7v-5.9Zm-67.9,12.3h6.8v5.8h-6.8v-5.8Zm13.6,0h6.8v5.8h-6.8v-5.8Zm40.7,0h6.7v5.8h-6.7v-5.8Zm13.6,0h6.7v5.8h-6.7v-5.8Zm-30.4,.3c4.7,0,8.5,3.9,8.5,8.6c0,4.6,-3.8,8.4,-8.5,8.4c-4.8,0,-8.4,-3.8,-8.4,-8.4c0,-4.7,3.6,-8.6,8.4,-8.6Zm-2,3.2v3.4h-3.4v4h3.4v3.2h4v-3.2h3.3v-4h-3.3v-3.4h-4Zm-35.5,8.9h6.8V419h-6.8v-5.8Zm13.6,0h6.8V419h-6.8v-5.8Zm40.7,0h6.7V419h-6.7v-5.8Zm13.6,0h6.7V419h-6.7v-5.8Zm-67.9,12.2h6.8v5.8h-6.8v-5.8Zm13.6,0h6.8v5.8h-6.8v-5.8Zm40.7,0h6.7v5.8h-6.7v-5.8Zm13.6,0h6.7v5.8h-6.7v-5.8Z" class="g2_1" />
<path fill-rule="evenodd" d="M1217.2,367.7c-5.2,0,-10.6,.6,-14.5,1.8c-8,2.5,-8,6.4,0,8.9c8.1,2.4,21.1,2.4,29.1,0c8,-2.5,8,-6.4,0,-8.9c-3.9,-1.2,-9.3,-1.8,-14.6,-1.8Zm-20.5,9v38.8c0,3.4,9.2,6.6,20.5,6.6c11.4,0,20.6,-3.2,20.6,-6.6V376.7c-2.9,2.6,-11,4.4,-20.6,4.4c-9.5,0,-17.6,-1.8,-20.5,-4.4Z" class="g3_1" />
<path fill-rule="evenodd" d="M1217.2,364.6c-5.2,0,-10.6,.6,-14.5,1.9c-8,2.4,-8,6.2,0,8.8c8.1,2.5,21.1,2.5,29.1,0c8,-2.6,8,-6.4,0,-8.8c-3.9,-1.3,-9.3,-1.9,-14.6,-1.9Zm-20.5,9v38.8c0,3.4,9.2,6.6,20.5,6.6c11.4,0,20.6,-3.2,20.6,-6.6V373.6c-2.9,2.6,-11,4.5,-20.6,4.5c-9.5,0,-17.6,-1.9,-20.5,-4.5Z" class="g2_1" />
<path fill-rule="evenodd" d="M1234.1,380.5c-5.2,0,-10.5,.6,-14.5,1.8c-8.1,2.5,-8.1,6.5,0,8.9c8,2.5,21.1,2.5,29.1,0c8,-2.4,8,-6.4,0,-8.9c-4,-1.2,-9.4,-1.8,-14.6,-1.8Zm-20.4,9v38.8c0,3.4,9.1,6.6,20.4,6.6c11.3,0,20.7,-3.2,20.7,-6.6V389.5c-2.9,2.6,-11,4.5,-20.7,4.5c-9.4,0,-17.5,-1.9,-20.4,-4.5Z" class="g3_1" />
<path fill-rule="evenodd" d="M1234.1,377.5c-5.2,0,-10.5,.6,-14.5,1.8c-8.1,2.4,-8.1,6.3,0,8.9c8,2.2,21.1,2.2,29.1,0c8,-2.6,8,-6.5,0,-8.9c-4,-1.2,-9.4,-1.8,-14.6,-1.8Zm-20.4,9v38.6c0,3.5,9.1,6.7,20.4,6.7c11.3,0,20.7,-3.2,20.7,-6.7V386.5c-2.9,2.6,-11,4.4,-20.7,4.4c-9.4,0,-17.5,-1.8,-20.4,-4.4Z" class="g2_1" />
<image preserveAspectRatio="none" x="1223" y="392" width="14" height="35" xlink:href="1/img/1.png" />
<path fill-rule="evenodd" d="M1252.6,396.6c-5.3,0,-10.5,.6,-14.5,1.8c-8.1,2.4,-8.1,6.4,0,8.8c8,2.5,20.9,2.5,29,0c8.1,-2.4,8.1,-6.4,0,-8.8c-3.9,-1.2,-9.3,-1.8,-14.5,-1.8Zm-20.6,9v38.8c0,3.3,9.2,6.5,20.6,6.5c11.3,0,20.5,-3.2,20.5,-6.5V405.6c-2.9,2.6,-11,4.6,-20.5,4.6c-9.6,0,-17.7,-2,-20.6,-4.6Z" class="g3_1" />
<path fill-rule="evenodd" d="M1252.6,393.5c-5.3,0,-10.5,.6,-14.5,1.8c-8.1,2.5,-8.1,6.4,0,8.9c8,2.4,20.9,2.4,29,0c8.1,-2.5,8.1,-6.4,0,-8.9c-3.9,-1.2,-9.3,-1.8,-14.5,-1.8Zm-20.6,9v38.8c0,3.4,9.2,6.6,20.6,6.6c11.3,0,20.5,-3.2,20.5,-6.6V402.5c-2.9,2.6,-11,4.4,-20.5,4.4c-9.6,0,-17.7,-1.8,-20.6,-4.4Z" class="g2_1" />
<path fill-rule="evenodd" d="M1247,414.3c0,2,1.3,3.9,3.5,5.2c-2.2,1,-3.5,3,-3.5,5.2c0,2.1,1.3,3.9,3.5,5.2c-2.2,1,-3.5,3,-3.5,5.2c0,2.1,1.3,3.9,3.5,5.1c-2.2,1.3,-3.5,3.3,-3.5,5.2h1.5c0,-.3,.2,-.7,.2,-1.2h7.7c.2,.5,.3,.9,.3,1.2h1.6c0,-1.9,-1.4,-3.9,-3.5,-5.2c2.1,-1.2,3.5,-3,3.5,-5.1c0,-2.2,-1.4,-4.2,-3.5,-5.2c2.1,-1.3,3.5,-3.1,3.5,-5.2c0,-2.2,-1.4,-4.2,-3.5,-5.2c2.1,-1.3,3.5,-3.2,3.5,-5.2h-1.6c0,.3,-.1,.7,-.1,1h-7.9c-.2,-.3,-.2,-.7,-.2,-1H1247Zm2.1,2h7c-.7,1,-1.9,1.8,-3.5,2.3c-1.5,-.5,-2.7,-1.3,-3.5,-2.3Zm3.5,3.9c1.6,.5,2.8,1.4,3.5,2.3h-7c.8,-.9,2,-1.8,3.5,-2.3Zm-3.9,3.2h7.9c0,.5,.1,.8,.1,1.3c0,.3,0,.7,-.1,1h-7.9c-.2,-.3,-.2,-.7,-.2,-1c0,-.5,0,-.8,.2,-1.3Zm.4,3.3h7c-.7,1,-1.9,1.8,-3.5,2.2c-1.5,-.4,-2.7,-1.2,-3.5,-2.2Zm3.5,3.9c1.6,.5,2.8,1.4,3.4,2.5h-6.7c.6,-1.1,1.8,-2,3.3,-2.5Zm-3.9,3.2h7.7c.2,.5,.3,.9,.3,1.3c0,.3,0,.7,-.1,1h-7.9c-.2,-.3,-.2,-.7,-.2,-1c0,-.4,.2,-.8,.2,-1.3Zm.4,3.2h7c-.7,1.1,-1.9,2,-3.5,2.5c-1.5,-.5,-2.7,-1.4,-3.5,-2.5Zm3.5,4.2c1.6,.4,2.8,1.2,3.4,2.3h-6.7c.6,-1.1,1.8,-1.9,3.3,-2.3Z" class="g3_1" />
<path fill-rule="evenodd" d="M1247,411.2c0,2,1.3,4,3.5,5.2c-2.2,1.1,-3.5,3.1,-3.5,5.2c0,2.1,1.3,4,3.5,5.2c-2.2,1.1,-3.5,3.1,-3.5,5.2c0,2.1,1.3,4,3.5,5.2c-2.2,1.2,-3.5,3,-3.5,5.2h1.5c0,-.5,.2,-.8,.2,-1.2h7.7c.2,.4,.3,.7,.3,1.2h1.6c0,-2.2,-1.4,-4,-3.5,-5.2c2.1,-1.2,3.5,-3.1,3.5,-5.2c0,-2.1,-1.4,-4.1,-3.5,-5.2c2.1,-1.2,3.5,-3.1,3.5,-5.2c0,-2.1,-1.4,-4.1,-3.5,-5.2c2.1,-1.2,3.5,-3.2,3.5,-5.2h-1.6c0,.3,-.1,.6,-.1,1.1h-7.9c-.2,-.5,-.2,-.8,-.2,-1.1H1247Zm2.1,2h7c-.7,.9,-1.9,1.8,-3.5,2.3c-1.5,-.5,-2.7,-1.4,-3.5,-2.3Zm3.5,4c1.6,.4,2.8,1.4,3.5,2.3h-7c.8,-.9,2,-1.9,3.5,-2.3Zm-3.9,3.2h7.9c0,.4,.1,.8,.1,1.2c0,.3,0,.6,-.1,1.1h-7.9c-.2,-.5,-.2,-.8,-.2,-1.1c0,-.4,0,-.8,.2,-1.2Zm.4,3.2h7c-.7,1.1,-1.9,1.8,-3.5,2.3c-1.5,-.5,-2.7,-1.2,-3.5,-2.3Zm3.5,4c1.6,.4,2.8,1.3,3.4,2.3h-6.7c.6,-1,1.8,-1.9,3.3,-2.3Zm-3.9,3.2h7.7c.2,.4,.3,.7,.3,1.2c0,.3,0,.8,-.1,1.1h-7.9c-.2,-.3,-.2,-.8,-.2,-1.1c0,-.5,.2,-.8,.2,-1.2Zm.4,3.2h7c-.7,1.1,-1.9,2,-3.5,2.4c-1.5,-.4,-2.7,-1.3,-3.5,-2.4Zm3.5,4c1.6,.6,2.8,1.3,3.4,2.2h-6.7c.6,-.9,1.8,-1.6,3.3,-2.2Z" class="g4_1" />
<path fill-rule="evenodd" d="M1137.3,376.7v-.5l.1,-.1v-.5l.2,-.1v-.2l.1,-.1V375l.2,-.1h.1v-.2l.2,-.1l.1,-.2l.2,-.2l.2,-.1h.1l.2,-.2h.3l.1,-.1h.3l.2,-.2h35.9l.1,.2h.3l.2,.1h.3l.1,.2h.2l.2,.1l.1,.2h.2v.2l.1,.1l.2,.2l.1,.1v.2l.2,.1v.2l.1,.1v.2l.2,.1v9.2l-.2,.1v.2l-.1,.2v.3l-.2,.1l-.1,.2v.1l-.2,.2h-.1v.1l-.2,.2h-.1l-.2,.1h-.2l-.1,.2l-.2,.1h-.4l-.2,.2h-.6l-35,.1v-.1h-.7l-.2,-.2h-.3l-.1,-.1h-.2l-.1,-.2l-.2,-.1l-.2,-.2h-.1l-.2,-.1v-.2l-.1,-.1l-.2,-.2v-.1h-.1v-.2l-.2,-.1v-.5l-.1,-.2v-8.2Z" class="g3_1" />
<path d="M1137.3,376.7v0v-.5l.1,-.1v-.5l.2,-.1v-.2l.1,-.1V375l.2,-.1h.1v-.2l.2,-.1l.1,-.2l.2,-.2l.2,-.1h.1l.2,-.2h.3l.1,-.1h.3l.2,-.2h35.9l.1,.2h.3l.2,.1h.3l.1,.2h.2l.2,.1l.1,.2h.2v.2l.1,.1l.2,.2l.1,.1v.2l.2,.1v.2l.1,.1v.2l.2,.1v9.2l-.2,.1v.2l-.1,.2v.3l-.2,.1l-.1,.2v.1l-.2,.2h-.1v.1l-.2,.2h-.1l-.2,.1h-.2l-.1,.2l-.2,.1h-.4l-.2,.2h-.6l-35,.1v-.1h-.7l-.2,-.2h-.3l-.1,-.1h-.2l-.1,-.2l-.2,-.1l-.2,-.2h-.1l-.2,-.1v-.2l-.1,-.1l-.2,-.2v-.1h-.1v-.2l-.2,-.1v-.5l-.1,-.2v-8.2Zm0,-3.1v0Zm41.1,13.9v0Z" class="g5_1" />
<path fill-rule="evenodd" d="M1137.3,373.6v-.4l.1,-.2v-.4l.2,-.2v-.1l.1,-.2V372l.2,-.2l.1,-.1l.2,-.2l.1,-.2l.2,-.1l.2,-.2h.1l.2,-.1h.1l.2,-.2h.4l.2,-.1h35.9l.1,.1h.5l.1,.2h.2l.1,.1h.2l.2,.2l.1,.1h.2v.2l.1,.2h.2v.1l.1,.2v.1l.2,.2v.1l.1,.2v.1l.2,.2V382l-.2,.2v.1l-.1,.2v.3l-.2,.2l-.1,.1v.2h-.2l-.1,.1v.2l-.2,.1h-.1l-.2,.2h-.2l-.1,.1h-.2l-.1,.2h-.3l-.2,.1h-36.3l-.2,-.1h-.1l-.2,-.2h-.3l-.1,-.1v-.2h-.2l-.2,-.1h-.1l-.2,-.2v-.1l-.1,-.2l-.2,-.1v-.2l-.1,-.1l-.2,-.4V382l-.1,-.3v-8.1Z" class="g6_1" />
<path d="M1137.3,373.6v0v-.4l.1,-.2v-.4l.2,-.2v-.1l.1,-.2V372l.2,-.2l.1,-.1l.2,-.2l.1,-.2l.2,-.1l.2,-.2h.1l.2,-.1h.1l.2,-.2h.4l.2,-.1h35.9l.1,.1h.5l.1,.2h.2l.1,.1h.2l.2,.2l.1,.1h.2v.2l.1,.2h.2v.1l.1,.2v.1l.2,.2v.1l.1,.2v.1l.2,.2V382l-.2,.2v.1l-.1,.2v.3l-.2,.2l-.1,.1v.2h-.2l-.1,.1v.2l-.2,.1h-.1l-.2,.2h-.2l-.1,.1h-.2l-.1,.2h-.3l-.2,.1h-36.3l-.2,-.1h-.1l-.2,-.2h-.3l-.1,-.1v-.2h-.2l-.2,-.1h-.1l-.2,-.2v-.1l-.1,-.2l-.2,-.1v-.2l-.1,-.1l-.2,-.4V382l-.1,-.3v-8.1Zm0,-3v0Zm41.1,13.7v0Z" class="g7_1" />
<path fill-rule="evenodd" d="M1173.2,374.2v-.3h.1v-.4h.2v-.2h.1v-.1h.2l.1,-.2h1.1v.2h.2v.1h.1v.2h.2v.4h.1v.5h-.1v.5h-.2v.1h-.1v.2h-.3v.1h-1v-.1h-.3V375h-.1v-.1h-.2v-.3h-.1v-.4Z" class="g0_1" />
<path fill-rule="evenodd" d="M1170.3,374.2v-.4h.1v-.3l.2,-.2h.1v-.1h.2V373h1.1l.1,.2h.2v.1l.1,.2v.1h.2v1.1h-.2v.2h-.1v.1l-.2,.2h-.1v.1h-1l-.1,-.1h-.2V375h-.1v-.1h-.2v-.2l-.1,-.1v-.4Z" class="g4_1" />
<path fill-rule="evenodd" d="M1137.6,392v-.5l.1,-.1v-.5l.2,-.2v-.1l.1,-.2v-.1l.2,-.2l.1,-.1v-.2h.2l.2,-.1v-.2h.1l.2,-.1h.1l.2,-.2h.1l.2,-.1h.4l.2,-.2h35.9l.1,.2h.5l.1,.1h.2l.2,.2h.1l.2,.1h.1l.2,.2v.1h.1l.2,.2v.1l.1,.2v.1l.2,.2v.1l.1,.2v.5l.2,.1v8.6l-.2,.1v.5l-.1,.1v.3l-.2,.2l-.1,.1l-.2,.2l-.1,.1v.2l-.2,.2h-.1l-.2,.1h-.1l-.2,.2h-.2l-.1,.1h-.3l-.2,.2h-36.3l-.2,-.2h-.1l-.2,-.1h-.3l-.1,-.2v-.1h-.2l-.1,-.2l-.2,-.2h-.2v-.1l-.1,-.2l-.2,-.1v-.2l-.1,-.1v-.2l-.2,-.1v-.5l-.1,-.1V392Z" class="g3_1" />
<path d="M1137.6,392v0v-.5l.1,-.1v-.5l.2,-.2v-.1l.1,-.2v-.1l.2,-.2l.1,-.1v-.2h.2l.2,-.1v-.2h.1l.2,-.1h.1l.2,-.2h.1l.2,-.1h.4l.2,-.2h35.9l.1,.2h.5l.1,.1h.2l.2,.2h.1l.2,.1h.1l.2,.2v.1h.1l.2,.2v.1l.1,.2v.1l.2,.2v.1l.1,.2v.5l.2,.1v8.6l-.2,.1v.5l-.1,.1v.3l-.2,.2l-.1,.1l-.2,.2l-.1,.1v.2l-.2,.2h-.1l-.2,.1h-.1l-.2,.2h-.2l-.1,.1h-.3l-.2,.2h-36.3l-.2,-.2h-.1l-.2,-.1h-.3l-.1,-.2v-.1h-.2l-.1,-.2l-.2,-.2h-.2v-.1l-.1,-.2l-.2,-.1v-.2l-.1,-.1v-.2l-.2,-.1v-.5l-.1,-.1V392Zm0,-3.1v0Zm41.1,13.8v0Z" class="g5_1" />
<path fill-rule="evenodd" d="M1137.6,388.9v-.4l.1,-.2v-.5l.2,-.1v-.2l.1,-.1v-.2l.2,-.1l.1,-.2v-.1h.2l.2,-.2v-.1h.1l.2,-.2h.1l.2,-.1h.1l.2,-.2h.1l.2,-.1h36.5l.1,.1h.2l.1,.2h.2l.2,.1h.1l.2,.2h.1l.2,.1v.2h.1l.2,.1v.2l.1,.1v.2l.2,.1v.2l.1,.1v.5l.2,.2V397l-.2,.2v.4l-.1,.2v.3l-.2,.1h-.1v.2l-.2,.1l-.1,.2v.1h-.2l-.1,.2l-.2,.2h-.1l-.2,.1h-.2l-.1,.2h-.5l-.1,.1h-35.9l-.2,-.1h-.4l-.2,-.2h-.1l-.2,-.1h-.1V399l-.2,-.2h-.1l-.2,-.1l-.2,-.2l-.1,-.1l-.2,-.2v-.1l-.1,-.2v-.1l-.2,-.2v-.4l-.1,-.2v-8.1Z" class="g6_1" />
<path d="M1137.6,388.9v0v-.4l.1,-.2v-.5l.2,-.1v-.2l.1,-.1v-.2l.2,-.1l.1,-.2v-.1h.2l.2,-.2v-.1h.1l.2,-.2h.1l.2,-.1h.1l.2,-.2h.1l.2,-.1h36.5l.1,.1h.2l.1,.2h.2l.2,.1h.1l.2,.2h.1l.2,.1v.2h.1l.2,.1v.2l.1,.1v.2l.2,.1v.2l.1,.1v.5l.2,.2V397l-.2,.2v.4l-.1,.2v.3l-.2,.1h-.1v.2l-.2,.1l-.1,.2v.1h-.2l-.1,.2l-.2,.2h-.1l-.2,.1h-.2l-.1,.2h-.5l-.1,.1h-35.9l-.2,-.1h-.4l-.2,-.2h-.1l-.2,-.1h-.1V399l-.2,-.2h-.1l-.2,-.1l-.2,-.2l-.1,-.1l-.2,-.2v-.1l-.1,-.2v-.1l-.2,-.2v-.4l-.1,-.2v-8.1Zm0,-3v0Zm41.1,13.7v0Z" class="g7_1" />
<path fill-rule="evenodd" d="M1173.5,389.4v-.3h.1v-.3l.2,-.2l.1,-.1h.2v-.2h.3l.2,-.1h.3v.1h.3l.1,.2h.2v.1l.1,.2v.1h.2v.9h-.2v.3h-.1v.2h-.2v.1h-.3v.2h-.8v-.2h-.3v-.1h-.1v-.2h-.2v-.3h-.1v-.4Z" class="g0_1" />
<path fill-rule="evenodd" d="M1170.6,389.4v-.5h.1v-.3h.2v-.1h.3v-.2h.3v-.1h.5v.1h.3v.2h.3v.3h.1v.1h.2v.9h-.2v.3h-.1v.2h-.2v.1h-.3l-.1,.2h-.7v-.2h-.3v-.1h-.1l-.2,-.2V390h-.1v-.3l-.2,-.2v-.1h.2Z" class="g4_1" />
<path fill-rule="evenodd" d="M1137.6,407.2v-.4l.1,-.2v-.4l.2,-.2v-.1l.1,-.2v-.1l.2,-.2l.1,-.1v-.2h.2l.2,-.1v-.2h.1l.2,-.1h.1l.2,-.2l.1,-.2h.3l.2,-.1h36.5l.1,.1h.3l.2,.2l.2,.2h.1l.2,.1h.1l.2,.2v.1h.1l.2,.2v.1l.1,.2v.1l.2,.2v.1l.1,.2v.4l.2,.2v8.5l-.2,.2v.5l-.1,.1v.3l-.2,.2h-.1v.1l-.2,.2l-.1,.1l-.2,.2l-.1,.1h-.2l-.1,.2l-.2,.1h-.3l-.2,.2h-.3l-.1,.1h-35.9l-.2,-.1h-.3l-.1,-.2h-.3l-.2,-.1h-.1v-.2l-.2,-.1h-.1l-.2,-.2l-.2,-.1v-.2h-.1l-.2,-.1v-.2l-.1,-.1v-.2l-.2,-.1v-.5l-.1,-.2v-8.1Z" class="g3_1" />
<path d="M1137.6,407.2v0v-.4l.1,-.2v-.4l.2,-.2v-.1l.1,-.2v-.1l.2,-.2l.1,-.1v-.2h.2l.2,-.1v-.2h.1l.2,-.1h.1l.2,-.2l.1,-.2h.3l.2,-.1h36.5l.1,.1h.3l.2,.2l.2,.2h.1l.2,.1h.1l.2,.2v.1h.1l.2,.2v.1l.1,.2v.1l.2,.2v.1l.1,.2v.4l.2,.2v8.5l-.2,.2v.5l-.1,.1v.3l-.2,.2h-.1v.1l-.2,.2l-.1,.1l-.2,.2l-.1,.1h-.2l-.1,.2l-.2,.1h-.3l-.2,.2h-.3l-.1,.1h-35.9l-.2,-.1h-.3l-.1,-.2h-.3l-.2,-.1h-.1v-.2l-.2,-.1h-.1l-.2,-.2l-.2,-.1v-.2h-.1l-.2,-.1v-.2l-.1,-.1v-.2l-.2,-.1v-.5l-.1,-.2v-8.1Zm0,-3v0Zm41.1,13.7v0Z" class="g5_1" />
<path fill-rule="evenodd" d="M1137.6,404.2v-.5l.1,-.3v-.3l.2,-.1v-.2l.1,-.1v-.2l.2,-.1l.1,-.2v-.1h.2l.2,-.2v-.2h.1l.2,-.1l.1,-.2h.2l.1,-.1h.2l.1,-.2h36.8l.2,.2h.1l.2,.1h.2l.1,.2l.2,.1h.1l.2,.2v.2h.1l.2,.1v.2l.1,.1v.2l.2,.1v.2l.1,.1v.3l.2,.3v8.6l-.2,.1v.5l-.1,.2v.3h-.2l-.1,.1v.2l-.2,.1l-.1,.2l-.2,.1l-.1,.2h-.2l-.1,.1h-.2l-.2,.2h-.1l-.2,.1h-.4l-.2,.2h-35.6l-.1,-.2h-.5l-.1,-.1h-.2l-.1,-.2h-.3v-.1l-.2,-.2h-.1l-.2,-.1l-.2,-.2v-.1h-.1l-.2,-.2v-.1l-.1,-.2v-.1l-.2,-.2v-.5l-.1,-.1v-8.1Z" class="g6_1" />
<path d="M1137.6,404.2v0v-.5l.1,-.3v-.3l.2,-.1v-.2l.1,-.1v-.2l.2,-.1l.1,-.2v-.1h.2l.2,-.2v-.2h.1l.2,-.1l.1,-.2h.2l.1,-.1h.2l.1,-.2h36.8l.2,.2h.1l.2,.1h.2l.1,.2l.2,.1h.1l.2,.2v.2h.1l.2,.1v.2l.1,.1v.2l.2,.1v.2l.1,.1v.3l.2,.3v8.6l-.2,.1v.5l-.1,.2v.3h-.2l-.1,.1v.2l-.2,.1l-.1,.2l-.2,.1l-.1,.2h-.2l-.1,.1h-.2l-.2,.2h-.1l-.2,.1h-.4l-.2,.2h-35.6l-.1,-.2h-.5l-.1,-.1h-.2l-.1,-.2h-.3v-.1l-.2,-.2h-.1l-.2,-.1l-.2,-.2v-.1h-.1l-.2,-.2v-.1l-.1,-.2v-.1l-.2,-.2v-.5l-.1,-.1v-8.1Zm0,-3.1v0Zm41.1,13.8v0Z" class="g7_1" />
<path fill-rule="evenodd" d="M1173.5,404.7v-.4l.1,-.1v-.3h.2v-.2h.1l.2,-.1h.1l.2,-.2h.6v.2h.3v.1h.2v.2h.1v.3h.2v.9h-.2v.3h-.1v.2h-.2v.1h-.4v.2h-.5v-.2h-.5v-.1h-.1v-.2h-.2v-.3h-.1v-.4Z" class="g0_1" />
<path fill-rule="evenodd" d="M1170.6,404.7v-.5l.1,-.2v-.1h.2v-.2h.1v-.1h.3v-.2h.8v.2h.2l.1,.1h.2v.2h.1v.3h.2v.9h-.2v.3h-.1v.2h-.2l-.1,.1h-.3v.2h-.5v-.2h-.5v-.1h-.1l-.2,-.2v-.1h-.1V405l-.2,-.2v-.1h.2Z" class="g4_1" />
<path fill-rule="evenodd" d="M1137.6,422.4v-.5l.1,-.1v-.5l.2,-.1V421l.1,-.2v-.1l.2,-.2h.1v-.1l.2,-.2l.2,-.1l.1,-.2l.2,-.1h.1l.2,-.2h.3l.1,-.1h.5l.1,-.2h35.6l.2,.2h.4l.2,.1h.3l.2,.2h.1l.2,.1l.1,.2h.2v.1l.1,.2l.2,.1l.1,.2v.1l.2,.2v.2l.1,.1v.5l.2,.1v17.3l-.2,.1v.5l-.1,.1v.3h-.2l-.1,.2v.2l-.2,.1l-.1,.2l-.2,.1l-.1,.2h-.2l-.1,.1l-.2,.2h-.3l-.2,.1h-.4l-.2,.2h-35.6l-.1,-.2h-.5l-.1,-.1h-.3l-.2,-.2h-.1v-.1l-.2,-.2h-.1l-.2,-.1l-.2,-.2v-.1h-.1l-.2,-.2v-.2l-.1,-.1v-.2l-.2,-.1v-.5l-.1,-.1V422.4Z" class="g3_1" />
<path d="M1137.6,422.4v0v-.5l.1,-.1v-.5l.2,-.1V421l.1,-.2v-.1l.2,-.2h.1v-.1l.2,-.2l.2,-.1l.1,-.2l.2,-.1h.1l.2,-.2h.3l.1,-.1h.5l.1,-.2h35.6l.2,.2h.4l.2,.1h.3l.2,.2h.1l.2,.1l.1,.2h.2v.1l.1,.2l.2,.1l.1,.2v.1l.2,.2v.2l.1,.1v.5l.2,.1v17.3l-.2,.1v.5l-.1,.1v.3h-.2l-.1,.2v.2l-.2,.1l-.1,.2l-.2,.1l-.1,.2h-.2l-.1,.1l-.2,.2h-.3l-.2,.1h-.4l-.2,.2h-35.6l-.1,-.2h-.5l-.1,-.1h-.3l-.2,-.2h-.1v-.1l-.2,-.2h-.1l-.2,-.1l-.2,-.2v-.1h-.1l-.2,-.2v-.2l-.1,-.1v-.2l-.2,-.1v-.5l-.1,-.1V422.4Zm0,-3.1v0Zm41.1,22.5v0Z" class="g5_1" />
<path fill-rule="evenodd" d="M1137.6,419.3v-.4l.1,-.2v-.5l.2,-.1v-.2l.1,-.1v-.2l.2,-.1l.1,-.2l.2,-.1l.2,-.2l.1,-.1l.2,-.2h.1l.2,-.1h.3l.1,-.2h.3l.2,-.1h35.9l.1,.1h.3l.2,.2h.3l.2,.1h.1l.2,.2l.1,.1h.2v.2l.1,.1h.2v.2l.1,.1v.2l.2,.1v.2l.1,.1v.5l.2,.2v17.2l-.2,.2v.4l-.1,.2v.1l-.2,.2l-.1,.1v.2l-.2,.2l-.1,.1l-.2,.2l-.1,.1h-.2l-.1,.2h-.2l-.2,.1h-.1l-.2,.2h-.4l-.2,.1h-35.6l-.1,-.1h-.5l-.1,-.2h-.2l-.1,-.1h-.3v-.2l-.2,-.1h-.1l-.2,-.2l-.2,-.1v-.2l-.1,-.2h-.2v-.1l-.1,-.2v-.1l-.2,-.2v-.4l-.1,-.2V419.3Z" class="g6_1" />
<path d="M1137.6,419.3v0v-.4l.1,-.2v-.5l.2,-.1v-.2l.1,-.1v-.2l.2,-.1l.1,-.2l.2,-.1l.2,-.2l.1,-.1l.2,-.2h.1l.2,-.1h.3l.1,-.2h.3l.2,-.1h35.9l.1,.1h.3l.2,.2h.3l.2,.1h.1l.2,.2l.1,.1h.2v.2l.1,.1h.2v.2l.1,.1v.2l.2,.1v.2l.1,.1v.5l.2,.2v17.2l-.2,.2v.4l-.1,.2v.1l-.2,.2l-.1,.1v.2l-.2,.2l-.1,.1l-.2,.2l-.1,.1h-.2l-.1,.2h-.2l-.2,.1h-.1l-.2,.2h-.4l-.2,.1h-35.6l-.1,-.1h-.5l-.1,-.2h-.2l-.1,-.1h-.3v-.2l-.2,-.1h-.1l-.2,-.2l-.2,-.1v-.2l-.1,-.2h-.2v-.1l-.1,-.2v-.1l-.2,-.2v-.4l-.1,-.2V419.3Zm0,-3v0Zm41.1,22.4v0Z" class="g7_1" />
<path d="M1141.9,435.7l5.8,-16.4m-2.5,15.9l6,-15.7m-2.5,16.2l6,-16.4" class="g8_1" />
<path d="M1119.1,361.6v-1.7l.1,-.6v-.6l.2,-.6l.3,-.7l.2,-.6m2.3,-3.6v0l.4,-.6l.5,-.4l.4,-.4l.5,-.5l.4,-.3l.7,-.3l.4,-.3m4.1,-1.2h.2l.6,-.2h3.7m4.2,0h4.5m4.3,0h4.4m4.4,0h4.3m4.4,0h4.3m4.4,0h4.5m4.2,0h4.5m4.3,0h4.4m4.3,0h4.4m4.4,0h4.3m4.4,0h4.3m4.4,0h4.5m4.2,0h4.5m4.3,0h4.4m4.3,0h4.4m4.4,0h4.3m4.4,0h4.3m4.4,0h.5l.8,.2h.6l.6,.1l.6,.2l.6,.2l.5,.3h.1m3.7,2.2l.4,.4l.5,.6l.3,.4l.5,.5l.3,.4l.3,.7l.3,.4m1.2,4.1v.2l.2,.6v3.7m0,4.2v4.5m0,4.4v4.3m0,4.4v4.3m0,4.4v4.5m0,4.2v4.5m0,4.2v4.5m0,4.2v4.5m0,4.4V434m0,4.4v4.3m-.8,4.3v.3l-.3,.4l-.3,.6l-.3,.7l-.3,.6l-.3,.4l-.3,.5l-.3,.3m-3.4,2.7h-.3l-.6,.3l-.5,.4l-.6,.1l-.6,.2l-.6,.3h-.9m-4.5,.1H1271m-4.5,0h-4.2m-4.5,0h-4.3m-4.4,0h-4.4m-4.3,0H1236m-4.3,0h-4.4m-4.5,0h-4.2m-4.5,0h-4.3m-4.4,0l-4.3,.2m-4.4,0h-4.4m-4.3,0h-4.4m-4.3,0h-4.4m-4.5,0h-4.2m-4.3,0h-4.5m-4.4,0h-4.3m-4.4,0H1140m-4.4,0h-4.4m-4.2,-.8l-.3,-.1l-.6,-.4l-.4,-.1l-.6,-.3l-.7,-.3l-.4,-.5l-.5,-.3l-.3,-.3m-2.7,-3.3v-.4l-.3,-.4l-.3,-.6l-.2,-.6l-.1,-.6l-.4,-.7v-.9m-.1,-4.3v-4.4m0,-4.3v-4.4m0,-4.4v-4.3m0,-4.4v-4.5m0,-4.2v-4.5m0,-4.2v-4.5m0,-4.3v-4.4m0,-4.3v-4.4m0,-4.4V366" class="g9_1" />
<path fill-rule="evenodd" d="M1321.2,626.6v12.1h-13.7V696h34V682.1h6.8V696h6.8V682.1h6.8V696h34.3V638.7h-14V626.6h-61Zm6.9,6.3h6.7v5.8h-6.7v-5.8Zm13.4,0h6.8v5.8h-6.8v-5.8Zm13.6,0h6.8v5.8h-6.8v-5.8Zm13.6,0h6.8v5.8h-6.8v-5.8Zm-54.2,12.2h6.7v6h-6.7v-6Zm13.6,0h6.7v6h-6.7v-6Zm13.4,0h6.8v6h-6.8v-6Zm13.6,0h6.8v6h-6.8v-6Zm13.6,0h6.8v6h-6.8v-6Zm13.5,0h6.9v6h-6.9v-6Zm-67.7,12.4h6.7v5.8h-6.7v-5.8Zm13.6,0h6.7v5.8h-6.7v-5.8Zm40.6,0h6.8v5.8h-6.8v-5.8Zm13.5,0h6.9v5.8h-6.9v-5.8Zm-30.3,.3c4.6,0,8.4,3.8,8.4,8.6c0,4.5,-3.8,8.4,-8.4,8.4c-4.7,0,-8.5,-3.9,-8.5,-8.4c0,-4.8,3.8,-8.6,8.5,-8.6Zm-2,3.2v3.4h-3.3v3.9h3.3v3.3h4v-3.3h3.2v-3.9h-3.2V661h-4Zm-35.4,8.9h6.7v5.8h-6.7v-5.8Zm13.6,0h6.7v5.8h-6.7v-5.8Zm40.6,0h6.8v5.8h-6.8v-5.8Zm13.5,0h6.9v5.8h-6.9v-5.8Zm-67.7,12.2h6.7v6h-6.7v-6Zm13.6,0h6.7v6h-6.7v-6Zm40.6,0h6.8v6h-6.8v-6Zm13.5,0h6.9v6h-6.9v-6Z" class="g1_1" />
<path fill-rule="evenodd" d="M1321.2,626.6v12.1h-13.7V696h34V682.1h6.8V696h6.8V682.1h6.8V696h34.3V638.7h-14V626.6h-61Zm6.9,6.3h6.7v5.8h-6.7v-5.8Zm13.4,0h6.8v5.8h-6.8v-5.8Zm13.6,0h6.8v5.8h-6.8v-5.8Zm13.6,0h6.8v5.8h-6.8v-5.8Zm-54.2,12.2h6.7v6h-6.7v-6Zm13.6,0h6.7v6h-6.7v-6Zm13.4,0h6.8v6h-6.8v-6Zm13.6,0h6.8v6h-6.8v-6Zm13.6,0h6.8v6h-6.8v-6Zm13.5,0h6.9v6h-6.9v-6Zm-67.7,12.4h6.7v5.8h-6.7v-5.8Zm13.6,0h6.7v5.8h-6.7v-5.8Zm40.6,0h6.8v5.8h-6.8v-5.8Zm13.5,0h6.9v5.8h-6.9v-5.8Zm-30.3,.3c4.6,0,8.4,3.8,8.4,8.6c0,4.5,-3.8,8.4,-8.4,8.4c-4.7,0,-8.5,-3.9,-8.5,-8.4c0,-4.8,3.8,-8.6,8.5,-8.6Zm-2,3.2v3.4h-3.3v3.9h3.3v3.3h4v-3.3h3.2v-3.9h-3.2V661h-4Zm-35.4,8.9h6.7v5.8h-6.7v-5.8Zm13.6,0h6.7v5.8h-6.7v-5.8Zm40.6,0h6.8v5.8h-6.8v-5.8Zm13.5,0h6.9v5.8h-6.9v-5.8Zm-67.7,12.2h6.7v6h-6.7v-6Zm13.6,0h6.7v6h-6.7v-6Zm40.6,0h6.8v6h-6.8v-6Zm13.5,0h6.9v6h-6.9v-6Z" class="g2_1" />
<path fill-rule="evenodd" d="M1219.5,624.3c-5.4,0,-10.6,.7,-14.5,1.9c-8.1,2.4,-8.1,6.4,0,8.8c7.9,2.5,21,2.5,29,0c8.1,-2.4,8.1,-6.4,0,-8.8c-4,-1.2,-9.3,-1.9,-14.5,-1.9Zm-20.7,9.1v38.8c0,3.3,9.4,6.5,20.7,6.5c11.3,0,20.4,-3.2,20.4,-6.5V633.4c-2.9,2.6,-11,4.5,-20.4,4.5c-9.7,0,-17.8,-1.9,-20.7,-4.5Z" class="g3_1" />
<path fill-rule="evenodd" d="M1219.5,621.3c-5.4,0,-10.6,.6,-14.5,1.8c-8.1,2.5,-8.1,6.4,0,8.9c7.9,2.4,21,2.4,29,0c8.1,-2.5,8.1,-6.4,0,-8.9c-4,-1.2,-9.3,-1.8,-14.5,-1.8Zm-20.7,9v38.8c0,3.4,9.4,6.6,20.7,6.6c11.3,0,20.4,-3.2,20.4,-6.6V630.3c-2.9,2.6,-11,4.4,-20.4,4.4c-9.7,0,-17.8,-1.8,-20.7,-4.4Z" class="g2_1" />
<path fill-rule="evenodd" d="M1236.3,637.2c-5.2,0,-10.6,.6,-14.5,1.8c-8,2.5,-8,6.4,0,8.9c8.1,2.4,21,2.4,29,0c8.1,-2.5,8.1,-6.4,0,-8.9c-4,-1.2,-9.2,-1.8,-14.5,-1.8Zm-20.5,9V685c0,3.4,9.2,6.6,20.5,6.6c11.4,0,20.6,-3.2,20.6,-6.6V646.2c-2.9,2.6,-11,4.4,-20.6,4.4c-9.5,0,-17.6,-1.8,-20.5,-4.4Z" class="g3_1" />
<path fill-rule="evenodd" d="M1236.3,634.1c-5.2,0,-10.6,.6,-14.5,1.9c-8,2.4,-8,6.2,0,8.8c8.1,2.5,21,2.5,29,0c8.1,-2.6,8.1,-6.4,0,-8.8c-4,-1.3,-9.2,-1.9,-14.5,-1.9Zm-20.5,9v38.8c0,3.4,9.2,6.6,20.5,6.6c11.4,0,20.6,-3.2,20.6,-6.6V643.1c-2.9,2.6,-11,4.5,-20.6,4.5c-9.5,0,-17.6,-1.9,-20.5,-4.5Z" class="g2_1" />
<image preserveAspectRatio="none" x="1225" y="649" width="14" height="35" xlink:href="1/img/2.png" />
<path fill-rule="evenodd" d="M1254.8,653.2c-5.2,0,-10.6,.6,-14.6,1.9c-8,2.4,-8,6.4,0,8.8c8,2.5,21.1,2.5,29.1,0c8.1,-2.4,8.1,-6.4,0,-8.8c-4,-1.3,-9.3,-1.9,-14.5,-1.9Zm-20.7,9V701c0,3.4,9.4,6.6,20.7,6.6c11.3,0,20.4,-3.2,20.4,-6.6V662.2c-2.9,2.6,-11,4.6,-20.4,4.6c-9.7,0,-17.8,-2,-20.7,-4.6Z" class="g3_1" />
<path fill-rule="evenodd" d="M1254.8,650.2c-5.2,0,-10.6,.6,-14.6,1.8c-8,2.4,-8,6.4,0,8.9c8,2.4,21.1,2.4,29.1,0c8.1,-2.5,8.1,-6.5,0,-8.9c-4,-1.2,-9.3,-1.8,-14.5,-1.8Zm-20.7,9V698c0,3.3,9.4,6.6,20.7,6.6c11.3,0,20.4,-3.3,20.4,-6.6V659.2c-2.9,2.6,-11,4.6,-20.4,4.6c-9.7,0,-17.8,-2,-20.7,-4.6Z" class="g2_1" />
<path fill-rule="evenodd" d="M1249.1,670.9c0,2,1.4,4,3.5,5.2c-2.1,1.1,-3.5,3.1,-3.5,5.2c0,2.2,1.4,4,3.5,5.2c-2.1,1.2,-3.5,3.1,-3.5,5.2c0,2.2,1.4,4.1,3.5,5.2c-2.1,1.2,-3.5,3.2,-3.5,5.4h1.5c0,-.5,.2,-1,.3,-1.3h7.8c0,.3,.2,.8,.2,1.3h1.7c0,-2.2,-1.6,-4.2,-3.7,-5.4c2.1,-1.1,3.7,-3,3.7,-5.2c0,-2.1,-1.6,-4,-3.7,-5.2c2.1,-1.2,3.7,-3,3.7,-5.2c0,-2.1,-1.6,-4.1,-3.7,-5.2c2.1,-1.2,3.7,-3.2,3.7,-5.2h-1.7c0,.3,-.2,.8,-.2,1.1h-7.9c-.2,-.3,-.2,-.8,-.2,-1.1h-1.5Zm2.2,2h7c-.8,1.1,-2,1.9,-3.5,2.3c-1.6,-.4,-2.8,-1.2,-3.5,-2.3Zm3.5,4c1.5,.5,2.7,1.4,3.5,2.4h-7c.7,-1,1.9,-1.9,3.5,-2.4Zm-4,3.4h7.9c0,.3,.2,.6,.2,1c0,.3,0,.8,-.2,1.1h-7.9c-.2,-.3,-.2,-.8,-.2,-1.1c0,-.4,0,-.7,.2,-1Zm.5,3h7c-.8,1.1,-2,1.9,-3.5,2.5c-1.6,-.6,-2.8,-1.4,-3.5,-2.5Zm3.5,4c1.5,.4,2.7,1.4,3.3,2.4h-6.7c.6,-1,1.8,-2,3.4,-2.4Zm-3.9,3.4h7.8c0,.3,.2,.7,.2,1c0,.3,0,.8,-.2,1.1h-7.9c-.2,-.3,-.2,-.8,-.2,-1.1c0,-.3,.2,-.7,.3,-1Zm.4,3h7c-.8,1.1,-2,2,-3.5,2.5c-1.6,-.5,-2.8,-1.4,-3.5,-2.5Zm3.5,4.1c1.5,.5,2.7,1.3,3.3,2.3h-6.7c.6,-1,1.8,-1.8,3.4,-2.3Z" class="g3_1" />
<path fill-rule="evenodd" d="M1249.1,667.9c0,2,1.4,4,3.5,5.2c-2.1,1.1,-3.5,3,-3.5,5.2c0,2.1,1.4,3.9,3.5,5.2c-2.1,1,-3.5,3,-3.5,5.2c0,2.1,1.4,3.9,3.5,5.2c-2.1,1.2,-3.5,3.2,-3.5,5.2h1.5c0,-.4,.2,-.8,.3,-1.3h7.8c0,.5,.2,.9,.2,1.3h1.7c0,-2,-1.6,-4,-3.7,-5.2c2.1,-1.3,3.7,-3.1,3.7,-5.2c0,-2.2,-1.6,-4.2,-3.7,-5.2c2.1,-1.3,3.7,-3.1,3.7,-5.2c0,-2.2,-1.6,-4.1,-3.7,-5.2c2.1,-1.2,3.7,-3.2,3.7,-5.2h-1.7c0,.3,-.2,.8,-.2,1.1h-7.9c-.2,-.3,-.2,-.8,-.2,-1.1h-1.5Zm2.2,2h7c-.8,1,-2,1.8,-3.5,2.3c-1.6,-.5,-2.8,-1.3,-3.5,-2.3Zm3.5,3.9c1.5,.5,2.7,1.4,3.5,2.3h-7c.7,-.9,1.9,-1.8,3.5,-2.3Zm-4,3.3h7.9c0,.4,.2,.7,.2,1.2c0,.3,0,.7,-.2,1h-7.9c-.2,-.3,-.2,-.7,-.2,-1c0,-.5,0,-.8,.2,-1.2Zm.5,3.2h7c-.8,1,-2,1.8,-3.5,2.3c-1.6,-.5,-2.8,-1.3,-3.5,-2.3Zm3.5,3.9c1.5,.5,2.7,1.4,3.3,2.3h-6.7c.6,-.9,1.8,-1.8,3.4,-2.3Zm-3.9,3.2h7.8c0,.5,.2,1,.2,1.3c0,.3,0,.7,-.2,1h-7.9c-.2,-.3,-.2,-.7,-.2,-1c0,-.3,.2,-.8,.3,-1.3Zm.4,3.3h7c-.8,1,-2,1.9,-3.5,2.4c-1.6,-.5,-2.8,-1.4,-3.5,-2.4Zm3.5,3.9c1.5,.6,2.7,1.4,3.3,2.5h-6.7c.6,-1.1,1.8,-1.9,3.4,-2.5Z" class="g4_1" />
<path fill-rule="evenodd" d="M1135.8,633.4v-.3l.1,-.2v-.5l.2,-.1v-.2l.1,-.1v-.2l.2,-.1v-.2h.1l.2,-.1v-.2l.1,-.1h.2l.1,-.2v-.1h.3l.2,-.2h.1l.2,-.1h.4l.4,-.2h35.4l.1,.2h.7v.1h.3v.2h.3l.1,.1l.2,.2h.1v.1l.2,.2l.1,.1l.2,.2l.1,.1v.2l.2,.1v.2l.1,.1v1l.2,7.6h-.2v1.1h-.1v.1l-.2,.2v.1l-.1,.2v.1l-.2,.2l-.1,.1l-.2,.2l-.1,.1h-.2l-.1,.2v.1h-.2l-.1,.2h-.3l-.2,.2h-.8l-34.9,.1v-.1h-1.1l-.2,-.2h-.1l-.2,-.2l-.1,-.1h-.2l-.1,-.2l-.2,-.1h-.1v-.2l-.2,-.1l-.1,-.2v-.1l-.2,-.2l-.1,-.1v-.3l-.2,-.2v-.3l-.1,-.1v-8.1Z" class="g3_1" />
<path d="M1135.8,633.4v0v-.3l.1,-.2v-.5l.2,-.1v-.2l.1,-.1v-.2l.2,-.1v-.2h.1l.2,-.1v-.2l.1,-.1h.2l.1,-.2v-.1h.3l.2,-.2h.1l.2,-.1h.4l.4,-.2h35.4l.1,.2h.7v.1h.3v.2h.3l.1,.1l.2,.2h.1v.1l.2,.2l.1,.1l.2,.2l.1,.1v.2l.2,.1v.2l.1,.1v1l.2,7.6h-.2v1.1h-.1v.1l-.2,.2v.1l-.1,.2v.1l-.2,.2l-.1,.1l-.2,.2l-.1,.1h-.2l-.1,.2v.1h-.2l-.1,.2h-.3l-.2,.2h-.8l-34.9,.1v-.1h-1.1l-.2,-.2h-.1l-.2,-.2l-.1,-.1h-.2l-.1,-.2l-.2,-.1h-.1v-.2l-.2,-.1l-.1,-.2v-.1l-.2,-.2l-.1,-.1v-.3l-.2,-.2v-.3l-.1,-.1v-8.1Zm0,-3.1v0Zm41.2,13.9v0Z" class="g5_1" />
<path fill-rule="evenodd" d="M1135.8,630.3V630l.1,-.2v-.4l.2,-.2v-.1l.1,-.2v-.1l.2,-.2v-.1h.1l.2,-.2v-.1l.1,-.2h.2l.1,-.1v-.2h.3v-.1h.3l.2,-.2h.3l.1,-.2h35.9l.4,.2h.3v.2h.3l.3,.1l.1,.2l.2,.1h.1v.2l.2,.1l.1,.2l.2,.1l.1,.2v.1l.2,.2v.1l.1,.2v.9l.2,7.6h-.2v1l-.1,.1v.2l-.2,.1v.2l-.1,.1v.2l-.2,.1h-.1v.2l-.2,.1l-.1,.2h-.2l-.1,.1l-.2,.2l-.1,.1h-.5l-.1,.2h-.7l-34.9,.2V641h-1l-.1,-.2h-.3l-.2,-.1l-.1,-.2h-.2l-.1,-.1l-.2,-.2h-.1v-.1l-.2,-.2l-.1,-.1v-.2l-.2,-.1l-.1,-.2V639l-.2,-.1v-.3l-.1,-.4v-7.9Z" class="g6_1" />
<path d="M1135.8,630.3v0V630l.1,-.2v-.4l.2,-.2v-.1l.1,-.2v-.1l.2,-.2v-.1h.1l.2,-.2v-.1l.1,-.2h.2l.1,-.1v-.2h.3v-.1h.3l.2,-.2h.3l.1,-.2h35.9l.4,.2h.3v.2h.3l.3,.1l.1,.2l.2,.1h.1v.2l.2,.1l.1,.2l.2,.1l.1,.2v.1l.2,.2v.1l.1,.2v.9l.2,7.6h-.2v1l-.1,.1v.2l-.2,.1v.2l-.1,.1v.2l-.2,.1h-.1v.2l-.2,.1l-.1,.2h-.2l-.1,.1l-.2,.2l-.1,.1h-.5l-.1,.2h-.7l-34.9,.2V641h-1l-.1,-.2h-.3l-.2,-.1l-.1,-.2h-.2l-.1,-.1l-.2,-.2h-.1v-.1l-.2,-.2l-.1,-.1v-.2l-.2,-.1l-.1,-.2V639l-.2,-.1v-.3l-.1,-.4v-7.9Zm0,-3.1v0Zm41.2,14v0Z" class="g7_1" />
<path fill-rule="evenodd" d="M1171.7,630.9v-.3h.1v-.3l.2,-.1V630h.1l.2,-.2h.1v-.1h.9v.1h.3v.2h.2v.2h.1v.4h.2v.5h-.2v.4h-.1v.2h-.2v.1h-.3v.2h-.9v-.2h-.3v-.1h-.1v-.2h-.2v-.3h-.1v-.3Z" class="g0_1" />
<path fill-rule="evenodd" d="M1168.8,630.9v-.4h.1v-.3h.2V630h.1v-.2h.3v-.1h.9v.1h.3v.4h.2v.1h.1v1.1h-.1v.1h-.2v.2l-.1,.1h-.2v.2h-.9l-.1,-.2h-.2v-.1h-.1v-.2h-.2v-.1l-.1,-.2v-.3Z" class="g4_1" />
<path fill-rule="evenodd" d="M1136.1,648.6v-.4l.1,-.2v-.3l.2,-.1v-.3l.1,-.2V647l.2,-.2l.1,-.1l.2,-.2l.1,-.2l.2,-.1l.1,-.2h.2l.1,-.1h.2l.1,-.2h.5l.2,-.1h35.9l.1,.1h.5l.1,.2h.2l.1,.1h.2l.1,.2l.2,.1h.1v.2l.2,.2h.1v.1l.2,.2v.1l.1,.2v.1l.2,.2v.1l.2,.2V657l-.2,.2v.1l-.2,.2v.3l-.1,.2l-.2,.1v.2h-.1l-.2,.1v.2l-.1,.1h-.2l-.1,.2h-.2l-.1,.1l-.3,.2h-.3v.1h-36.6l-.1,-.1h-.2l-.1,-.2h-.3l-.2,-.1v-.2h-.1l-.2,-.1h-.1v-.2l-.2,-.1l-.1,-.2V658l-.2,-.2l-.1,-.1v-.4h-.2V657l-.1,-.3v-8.1Z" class="g3_1" />
<path d="M1136.1,648.6v0v-.4l.1,-.2v-.3l.2,-.1v-.3l.1,-.2V647l.2,-.2l.1,-.1l.2,-.2l.1,-.2l.2,-.1l.1,-.2h.2l.1,-.1h.2l.1,-.2h.5l.2,-.1h35.9l.1,.1h.5l.1,.2h.2l.1,.1h.2l.1,.2l.2,.1h.1v.2l.2,.2h.1v.1l.2,.2v.1l.1,.2v.1l.2,.2v.1l.2,.2V657l-.2,.2v.1l-.2,.2v.3l-.1,.2l-.2,.1v.2h-.1l-.2,.1v.2l-.1,.1h-.2l-.1,.2h-.2l-.1,.1l-.3,.2h-.3v.1h-36.6l-.1,-.1h-.2l-.1,-.2h-.3l-.2,-.1v-.2h-.1l-.2,-.1h-.1v-.2l-.2,-.1l-.1,-.2V658l-.2,-.2l-.1,-.1v-.4h-.2V657l-.1,-.3v-8.1Zm0,-3v0Zm41.1,13.7v0Z" class="g5_1" />
<path fill-rule="evenodd" d="M1136.1,645.6v-.5l.1,-.1v-.3l.2,-.2v-.3l.1,-.1v-.2l.2,-.2l.1,-.1v-.2h.2l.1,-.1v-.2h.2l.1,-.1h.2l.1,-.2h.2l.1,-.1h.2l.1,-.2h36.6l.1,.2h.2l.1,.1h.2l.1,.2h.2l.1,.1h.2l.1,.2v.1h.2l.1,.2v.1l.2,.2v.2l.1,.1v.2l.2,.1v.2l.2,.1V654l-.2,.1v.2l-.2,.1v.3l-.1,.2l-.2,.2l-.1,.1l-.2,.2v.1l-.1,.2h-.2l-.1,.1h-.2l-.1,.2l-.3,.1h-.3l-.3,.2h-35.9l-.2,-.2h-.5l-.1,-.1h-.3l-.2,-.2v-.1h-.1l-.2,-.2l-.1,-.1l-.2,-.2l-.1,-.1v-.2l-.2,-.2l-.1,-.1v-.3l-.2,-.2v-.3l-.1,-.1v-8.1Z" class="g6_1" />
<path d="M1136.1,645.6v0v-.5l.1,-.1v-.3l.2,-.2v-.3l.1,-.1v-.2l.2,-.2l.1,-.1v-.2h.2l.1,-.1v-.2h.2l.1,-.1h.2l.1,-.2h.2l.1,-.1h.2l.1,-.2h36.6l.1,.2h.2l.1,.1h.2l.1,.2h.2l.1,.1h.2l.1,.2v.1h.2l.1,.2v.1l.2,.2v.2l.1,.1v.2l.2,.1v.2l.2,.1V654l-.2,.1v.2l-.2,.1v.3l-.1,.2l-.2,.2l-.1,.1l-.2,.2v.1l-.1,.2h-.2l-.1,.1h-.2l-.1,.2l-.3,.1h-.3l-.3,.2h-35.9l-.2,-.2h-.5l-.1,-.1h-.3l-.2,-.2v-.1h-.1l-.2,-.2l-.1,-.1l-.2,-.2l-.1,-.1v-.2l-.2,-.2l-.1,-.1v-.3l-.2,-.2v-.3l-.1,-.1v-8.1Zm0,-3.1v0Zm41.1,13.8v0Z" class="g7_1" />
<path fill-rule="evenodd" d="M1172,646v-.3h.1v-.3h.2v-.1l.1,-.2h.2V645h1l.2,.1h.1v.2l.2,.1l.1,.2v1.1h-.1v.1h-.2v.2h-.1v.1h-.2v.2h-.9l-.1,-.2h-.2V647h-.1v-.2h-.2v-.1l-.1,-.2V646Z" class="g0_1" />
<path fill-rule="evenodd" d="M1169.1,646v-.4h.1v-.2l.2,-.1v-.2h.3V645h1v.1h.3v.3h.2v.2h.1v.9l-.1,.2v.1h-.2v.2h-.1v.1h-.2l-.1,.2h-.9v-.2h-.2V647h-.1v-.2h-.2v-.1h-.1V646Z" class="g4_1" />
<path fill-rule="evenodd" d="M1136.1,663.9v-.4l.1,-.2V663l.2,-.2v-.3l.1,-.1v-.2l.2,-.1l.1,-.2v-.1h.2l.1,-.2v-.1h.2l.1,-.2h.2l.1,-.1h.2l.1,-.2h.2l.1,-.1h36.6l.1,.1h.2l.1,.2h.2l.1,.1h.2l.1,.2h.2l.1,.1v.2h.2l.1,.1v.2l.2,.1v.2l.1,.1v.2l.2,.1v.2l.2,.2v9.1l-.2,.2v.1l-.2,.2v.3l-.1,.1h-.2v.2l-.1,.1l-.2,.2v.1h-.1l-.2,.2l-.1,.2h-.2l-.1,.1l-.3,.2h-.3l-.3,.1h-35.9l-.2,-.1h-.5l-.1,-.2h-.2l-.1,-.1h-.2V674l-.1,-.2h-.2l-.1,-.1v-.2h-.2l-.1,-.1v-.2l-.2,-.1l-.1,-.2v-.3l-.2,-.1v-.3l-.1,-.2v-8.1Z" class="g3_1" />
<path d="M1136.1,663.9v0v-.4l.1,-.2V663l.2,-.2v-.3l.1,-.1v-.2l.2,-.1l.1,-.2v-.1h.2l.1,-.2v-.1h.2l.1,-.2h.2l.1,-.1h.2l.1,-.2h.2l.1,-.1h36.6l.1,.1h.2l.1,.2h.2l.1,.1h.2l.1,.2h.2l.1,.1v.2h.2l.1,.1v.2l.2,.1v.2l.1,.1v.2l.2,.1v.2l.2,.2v9.1l-.2,.2v.1l-.2,.2v.3l-.1,.1h-.2v.2l-.1,.1l-.2,.2v.1h-.1l-.2,.2l-.1,.2h-.2l-.1,.1l-.3,.2h-.3l-.3,.1h-35.9l-.2,-.1h-.5l-.1,-.2h-.2l-.1,-.1h-.2V674l-.1,-.2h-.2l-.1,-.1v-.2h-.2l-.1,-.1v-.2l-.2,-.1l-.1,-.2v-.3l-.2,-.1v-.3l-.1,-.2v-8.1Zm0,-3v0Zm41.1,13.7v0Z" class="g5_1" />
<path fill-rule="evenodd" d="M1136.1,660.9v-.5l.1,-.2v-.3l.2,-.1v-.3l.1,-.2v-.1l.2,-.2l.1,-.1v-.2h.2l.1,-.1v-.2h.2l.1,-.1h.2l.1,-.2l.2,-.1h.3l.1,-.2h36.6l.1,.2h.3l.2,.1l.1,.2h.2l.1,.1h.2l.1,.2v.1h.2l.1,.2v.1l.2,.2v.1l.1,.2v.1l.2,.2v.1l.2,.2v9.2l-.2,.1v.2l-.2,.1v.3h-.1l-.2,.2v.1l-.1,.2l-.2,.1l-.1,.2l-.2,.1h-.1l-.2,.2l-.1,.1h-.3v.2h-.3l-.3,.2h-35.9l-.2,-.2h-.3l-.2,-.2h-.3l-.1,-.1h-.2v-.2l-.1,-.1h-.2l-.1,-.2v-.1l-.2,-.2h-.1v-.1l-.2,-.2l-.1,-.1v-.3l-.2,-.2v-.3l-.1,-.1v-8.1Z" class="g6_1" />
<path d="M1136.1,660.9v0v-.5l.1,-.2v-.3l.2,-.1v-.3l.1,-.2v-.1l.2,-.2l.1,-.1v-.2h.2l.1,-.1v-.2h.2l.1,-.1h.2l.1,-.2l.2,-.1h.3l.1,-.2h36.6l.1,.2h.3l.2,.1l.1,.2h.2l.1,.1h.2l.1,.2v.1h.2l.1,.2v.1l.2,.2v.1l.1,.2v.1l.2,.2v.1l.2,.2v9.2l-.2,.1v.2l-.2,.1v.3h-.1l-.2,.2v.1l-.1,.2l-.2,.1l-.1,.2l-.2,.1h-.1l-.2,.2l-.1,.1h-.3v.2h-.3l-.3,.2h-35.9l-.2,-.2h-.3l-.2,-.2h-.3l-.1,-.1h-.2v-.2l-.1,-.1h-.2l-.1,-.2v-.1l-.2,-.2h-.1v-.1l-.2,-.2l-.1,-.1v-.3l-.2,-.2v-.3l-.1,-.1v-8.1Zm0,-3.1v0Zm41.1,13.8v0Z" class="g7_1" />
<path fill-rule="evenodd" d="M1172,661.3V661l.1,-.1v-.2h.2v-.1l.1,-.2h.2v-.2h.3l.1,-.1h.3v.1h.5v.2h.1v.2h.2v.1l.1,.2v1h-.1v.2h-.2v.1h-.1v.2h-.3v.1h-.6l-.2,-.1h-.1l-.2,-.2h-.1v-.1h-.2v-.3h-.1v-.5Z" class="g0_1" />
<path fill-rule="evenodd" d="M1169.1,661.3v-.4h.1v-.3h.2v-.2h.1l.2,-.2h.3v-.1h.4v.1h.3l.2,.2h.1v.2h.2v.3h.1v.9h-.1v.3h-.2v.1h-.1l-.2,.2h-.1l-.2,.1h-.6v-.1h-.3v-.2h-.1v-.1h-.2v-.2h-.1v-.6Z" class="g4_1" />
<path fill-rule="evenodd" d="M1136.1,679v-.4l.1,-.2v-.3l.2,-.1v-.3l.1,-.2v-.1h.2l.1,-.2v-.1l.2,-.2l.1,-.2l.2,-.1l.1,-.2h.3l.2,-.1h.1l.2,-.2h.5l.1,-.1h35.6l.2,.1h.4l.2,.2h.1l.2,.1h.3l.1,.2l.2,.1h.1v.2l.2,.2l.1,.1v.2h.2v.3h.1v.1l.2,.2v.1l.2,.2v17.9l-.2,.1v.2l-.2,.1v.3l-.1,.2h-.2v.1l-.1,.2l-.2,.1l-.1,.2l-.2,.1h-.1l-.2,.2l-.1,.1h-.3v.2h-.3l-.3,.1h-35.9l-.2,-.1h-.3l-.2,-.2h-.3l-.1,-.1h-.2v-.2l-.1,-.1h-.2l-.1,-.2v-.1l-.2,-.2h-.1v-.1l-.2,-.2l-.1,-.1v-.3l-.2,-.2V696l-.1,-.2V679Z" class="g3_1" />
<path d="M1136.1,679v0v-.4l.1,-.2v-.3l.2,-.1v-.3l.1,-.2v-.1h.2l.1,-.2v-.1l.2,-.2l.1,-.2l.2,-.1l.1,-.2h.3l.2,-.1h.1l.2,-.2h.5l.1,-.1h35.6l.2,.1h.4l.2,.2h.1l.2,.1h.3l.1,.2l.2,.1h.1v.2l.2,.2l.1,.1v.2h.2v.3h.1v.1l.2,.2v.1l.2,.2v17.9l-.2,.1v.2l-.2,.1v.3l-.1,.2h-.2v.1l-.1,.2l-.2,.1l-.1,.2l-.2,.1h-.1l-.2,.2l-.1,.1h-.3v.2h-.3l-.3,.1h-35.9l-.2,-.1h-.3l-.2,-.2h-.3l-.1,-.1h-.2v-.2l-.1,-.1h-.2l-.1,-.2v-.1l-.2,-.2h-.1v-.1l-.2,-.2l-.1,-.1v-.3l-.2,-.2V696l-.1,-.2V679Zm0,-3v0Zm41.1,22.4v0Z" class="g5_1" />
<path fill-rule="evenodd" d="M1136.1,676v-.5l.1,-.1v-.3l.2,-.2v-.3l.1,-.1v-.2l.2,-.1h.1V674l.2,-.2l.1,-.1l.2,-.2l.1,-.1h.2l.1,-.2h.3l.2,-.1h.3l.2,-.2h35.9l.1,.2h.3l.2,.1h.3l.1,.2h.2l.1,.1l.2,.2h.1v.1l.2,.2l.1,.2l.2,.1v.2l.1,.1v.2l.2,.1v.2l.2,.1v17.9l-.2,.1v.2l-.2,.2v.3h-.1l-.2,.1v.2l-.1,.1l-.2,.2l-.1,.1l-.2,.2h-.1l-.2,.1h-.1v.2h-.3v.1h-.6l-.2,.2h-35.6l-.1,-.2h-.5l-.2,-.1h-.1l-.2,-.2h-.3v-.1l-.1,-.2h-.2l-.1,-.1v-.2l-.2,-.1h-.1V694l-.2,-.1l-.1,-.2v-.3l-.2,-.2v-.3l-.1,-.1V676Z" class="g6_1" />
<path d="M1136.1,676v0v-.5l.1,-.1v-.3l.2,-.2v-.3l.1,-.1v-.2l.2,-.1h.1V674l.2,-.2l.1,-.1l.2,-.2l.1,-.1h.2l.1,-.2h.3l.2,-.1h.3l.2,-.2h35.9l.1,.2h.3l.2,.1h.3l.1,.2h.2l.1,.1l.2,.2h.1v.1l.2,.2l.1,.2l.2,.1v.2l.1,.1v.2l.2,.1v.2l.2,.1v17.9l-.2,.1v.2l-.2,.2v.3h-.1l-.2,.1v.2l-.1,.1l-.2,.2l-.1,.1l-.2,.2h-.1l-.2,.1h-.1v.2h-.3v.1h-.6l-.2,.2h-35.6l-.1,-.2h-.5l-.2,-.1h-.1l-.2,-.2h-.3v-.1l-.1,-.2h-.2l-.1,-.1v-.2l-.2,-.1h-.1V694l-.2,-.1l-.1,-.2v-.3l-.2,-.2v-.3l-.1,-.1V676Zm0,-3.1v0Zm41.1,22.5v0Z" class="g7_1" />
<path d="M1140.3,692.3l6,-16.3m-2.5,15.9l5.9,-15.8m-2.5,16.2l6,-16.3" class="g8_1" />
<path d="M1121.2,620.8v-1l.2,-.6v-.7l.1,-.6l.2,-.6l.1,-.6l.2,-.6m2.3,-3.7v0l.5,-.4l.4,-.5l.5,-.4l.4,-.4l.6,-.3l.6,-.4l.4,-.2m4.2,-1.3v0h4.3m4.4,0h4.3m4.4,0h4.3m4.5,0h4.4m4.3,0h4.4m4.3,0h4.4m4.4,0h4.3m4.4,0h4.3m4.4,0h4.3m4.5,0h4.2m4.5,0h4.4m4.3,0h4.4m4.4,0h4.3m4.4,0h4.3m4.5,0h4.2m4.5,0h4.2m4.5,0h4.4m4.3,0h1.2l.6,.1l.6,.2h.6l.6,.3l.7,.1m3.6,2.3l.5,.5l.4,.4l.5,.5l.3,.4l.5,.7l.3,.4l.3,.6m1.2,4.2v4.2m0,4.5v4.2m0,4.5V641m0,4.3v4.4m0,4.3v4.4m.1,4.4v4.3m0,4.5v4.2m0,4.5v4.2m0,4.5v4.4m0,4.3v4.4m-.7,4.1l-.2,.3l-.3,.7l-.1,.6l-.3,.4l-.3,.6l-.5,.5l-.3,.4l-.2,.4m-3.5,2.7l-.3,.2l-.4,.3l-.6,.1l-.7,.3l-.6,.2l-.6,.1h-.6l-.1,.2m-4.5,.1h-4.4m-4.3,0h-4.4m-4.3,0h-4.4m-4.4,0H1247m-4.5,0h-4.2m-4.5,0h-4.2m-4.5,0h-4.4m-4.3,0H1212m-4.3,0h-4.4m-4.5,0h-4.2m-4.5,0h-4.2m-4.5,0h-4.2m-4.5,0h-4.4m-4.3,0h-4.4m-4.3,0h-4.4m-4.5,0h-4.2m-4.5,0h-4.2m-4.3,-.7h-.2l-.6,-.3l-.6,-.3l-.5,-.3l-.6,-.4l-.4,-.3l-.6,-.4l-.2,-.2m-2.7,-3.3l-.2,-.3l-.3,-.6l-.1,-.7l-.4,-.6l-.1,-.4l-.2,-.6l-.1,-.7v-.3m-.2,-4.4v-4.4m0,-4.3v-4.4m0,-4.3v-4.4m0,-4.5V669m0,-4.5v-4.3m0,-4.4v-4.3m0,-4.4v-4.3m0,-4.4V634m0,-4.3v-4.4" class="g9_1" />
<path fill-rule="evenodd" d="M745.2,704.6c-1.5,0,-2.9,1.2,-2.9,2.9v86.7c0,1.6,1.4,2.9,2.9,2.9h53.1l-.3,.8l-2.2,11.3h-6.7v4.3h39v-4.3h-6.8L819,797.9l-.1,-.8h55.6c1.7,0,2.9,-1.3,2.9,-2.9V707.5c0,-1.7,-1.2,-2.9,-2.9,-2.9H745.2Zm64.7,2.6c.7,0,1.4,.6,1.4,1.3c0,.6,-.7,1.2,-1.4,1.2c-.6,0,-1.2,-.6,-1.2,-1.2c0,-.7,.6,-1.3,1.2,-1.3Zm-59.8,6.1H869.8v67.9H750.1V713.3Z" class="g3_1" />
<path fill-rule="evenodd" d="M745.2,701.5c-1.5,0,-2.9,1.2,-2.9,2.9v86.8c0,1.5,1.4,2.9,2.9,2.9h53.1l-.3,.7l-2.2,11.4h-6.7v4.2h39v-4.2h-6.8L819,794.8l-.1,-.7h55.6c1.7,0,2.9,-1.4,2.9,-2.9V704.4c0,-1.7,-1.2,-2.9,-2.9,-2.9H745.2Zm64.7,2.6c.7,0,1.4,.6,1.4,1.4c0,.6,-.7,1.2,-1.4,1.2c-.6,0,-1.2,-.6,-1.2,-1.2c0,-.8,.6,-1.4,1.2,-1.4Zm-59.8,6.1H869.8v68H750.1v-68Z" class="g2_1" />
<path fill-rule="evenodd" d="M767.6,813.2c6.4,5.5,9,13.3,10,19.8c1.3,6.8,.5,13.8,-5.2,17.2c-1.8,.9,-3.8,1.2,-5.8,.9H750.9l-16.2,-.3c-1.8,.3,-3.7,.1,-5.2,-.6c-6.3,-3,-7.8,-10,-7,-16.7c.7,-6.9,3.2,-14.7,9.8,-20.3c10,-8.7,25.2,-8.7,35.3,0Z" class="g3_1" />
<path fill-rule="evenodd" d="M767.6,810.1c6.4,5.5,9,13.2,10,19.9c1.3,6.7,.5,13.7,-5.2,16.9c-1.8,1.1,-3.8,1.4,-5.8,1.1H750.9l-16.2,-.3c-1.8,.3,-3.7,.2,-5.2,-.8c-6.3,-2.9,-7.8,-9.7,-7,-16.5c.7,-6.8,3.2,-14.6,9.8,-20.3c10,-8.7,25.2,-8.7,35.3,0Z" class="g10_1" />
<path fill-rule="evenodd" d="M732.7,798.2v-1.8l.2,-.9l.1,-.8l.2,-.9l.3,-.9l.3,-.8l.3,-.9l.3,-.8l.5,-.7l.4,-.8l.5,-.8l.6,-.7l.4,-.7l.7,-.7l.6,-.6l.7,-.6l.6,-.6l.8,-.5l.8,-.5l.7,-.4l.8,-.5l.8,-.3l.9,-.4l.7,-.2l1,-.3l.7,-.2l.9,-.1l1,-.2h.9l.9,-.1l.9,.1h.9l.9,.2l1,.1l.9,.2l.7,.3l1,.3l.9,.3l.7,.5l.8,.4l.8,.5l.7,.4l.8,.7l.8,.6l.6,.6l.6,.7l.6,.7l.6,.7l.5,.8l.4,.7l.5,.8l.4,.9l.3,.8l.3,.9l.4,.9l.1,.9l.2,1l.1,.7l.2,1.1v.9l-.2,.9v.9l-.1,1l-.2,.9l-.1,.7l-.4,1l-.3,.9l-.3,.9l-.4,.8l-.5,.9l-.4,.7l-.5,.6l-.6,.8l-.6,.8l-.6,.6l-.6,.7l-.8,.7l-.8,.4l-.7,.6l-.8,.5l-.8,.4l-.7,.3l-.9,.5l-1,.3l-.7,.2l-.9,.3l-1,.1l-.9,.2h-3.6l-1,-.2l-.9,-.1l-.9,-.3l-.9,-.2l-.8,-.3l-.9,-.5l-.8,-.3l-.9,-.4l-.7,-.5l-.8,-.6l-.8,-.4l-.6,-.7l-.7,-.6l-.6,-.7l-.7,-.6l-.4,-.8l-.6,-.8l-.5,-.7l-.4,-.9l-.3,-.8l-.5,-.9l-.3,-.8l-.2,-.9l-.3,-.9l-.1,-.9l-.2,-1v-1.8Z" class="g3_1" />
<path fill-rule="evenodd" d="M732.7,796.5v-1.8l.2,-.9l.1,-.8l.2,-.9l.3,-.9l.3,-.8l.3,-.9l.3,-.8l.5,-.7l.4,-.8l.5,-.8l.6,-.7l.4,-.6l.7,-.8l.6,-.6l.7,-.6l.6,-.6l.8,-.5l.8,-.4l.7,-.5l.8,-.5l.8,-.3l.9,-.4l.7,-.2l1,-.3l.7,-.1l.9,-.2l1,-.1h.9l.9,-.2l.9,.2h.9l.9,.1l1,.2l.9,.1l.7,.3l1,.3l.9,.3l.7,.5l.8,.4l.8,.5l.7,.5l.8,.6l.8,.6l.6,.6l.6,.8l.6,.6l.6,.7l.5,.8l.4,.8l.5,.7l.4,.9l.3,.8l.3,.9l.4,.9l.1,1l.2,.7l.1,.9l.2,1.1v.9l-.2,.9v1l-.1,.9l-.2,.9l-.1,.8l-.4,.9l-.3,.9l-.3,.9l-.4,.8l-.5,.7l-.4,1l-.5,.6l-.6,.7l-.6,.8l-.6,.6l-.6,.8l-.8,.4l-.8,.6l-.7,.6l-.8,.5l-.8,.5l-.7,.3l-.9,.4l-1,.3l-.7,.2l-.9,.3l-1,.1l-.9,.2h-3.6l-1,-.2l-.9,-.1l-.9,-.3l-.9,-.2L744,813l-.9,-.4l-.8,-.3l-.9,-.5l-.7,-.5l-.8,-.6l-.8,-.6l-.6,-.4l-.7,-.6l-.6,-.8l-.7,-.8l-.4,-.6l-.6,-.7l-.5,-.8l-.4,-.9l-.3,-.8l-.5,-.9l-.3,-.8l-.2,-.9l-.3,-.9l-.1,-.9l-.2,-.9v-1.9Z" class="g11_1" />
<path fill-rule="evenodd" d="M1324.4,919.5v12.1h-13.7v57.1h34.1V975h6.7v13.7h6.8V975h6.8v13.7h34.3V931.6h-14V919.5h-61Zm6.8,6.1h6.7v6h-6.7v-6Zm13.6,0h6.7v6h-6.7v-6Zm13.5,0h6.8v6h-6.8v-6Zm13.5,0h6.9v6h-6.9v-6ZM1317.7,938h6.7v5.8h-6.7V938Zm13.5,0h6.7v5.8h-6.7V938Zm13.6,0h6.7v5.8h-6.7V938Zm13.5,0h6.8v5.8h-6.8V938Zm13.5,0h6.9v5.8h-6.9V938Zm13.6,0h6.7v5.8h-6.7V938Zm-67.7,12.4h6.7v5.8h-6.7v-5.8Zm13.5,0h6.7v5.8h-6.7v-5.8Zm40.6,0h6.9v5.8h-6.9v-5.8Zm13.6,0h6.7v5.8h-6.7v-5.8Zm-30.4,.3c4.7,0,8.5,3.8,8.5,8.4c0,4.7,-3.8,8.5,-8.5,8.5c-4.6,0,-8.4,-3.8,-8.4,-8.5c0,-4.6,3.8,-8.4,8.4,-8.4Zm-2,3.2v3.2h-3.2v4h3.2v3.3h4v-3.3h3.3v-4H1357v-3.2h-4Zm-35.3,8.7h6.7v5.8h-6.7v-5.8Zm13.5,0h6.7v5.8h-6.7v-5.8Zm40.6,0h6.9v5.8h-6.9v-5.8Zm13.6,0h6.7v5.8h-6.7v-5.8ZM1317.7,975h6.7v5.8h-6.7V975Zm13.5,0h6.7v5.8h-6.7V975Zm40.6,0h6.9v5.8h-6.9V975Zm13.6,0h6.7v5.8h-6.7V975Z" class="g1_1" />
<path fill-rule="evenodd" d="M1324.4,919.5v12.1h-13.7v57.1h34.1V975h6.7v13.7h6.8V975h6.8v13.7h34.3V931.6h-14V919.5h-61Zm6.8,6.1h6.7v6h-6.7v-6Zm13.6,0h6.7v6h-6.7v-6Zm13.5,0h6.8v6h-6.8v-6Zm13.5,0h6.9v6h-6.9v-6ZM1317.7,938h6.7v5.8h-6.7V938Zm13.5,0h6.7v5.8h-6.7V938Zm13.6,0h6.7v5.8h-6.7V938Zm13.5,0h6.8v5.8h-6.8V938Zm13.5,0h6.9v5.8h-6.9V938Zm13.6,0h6.7v5.8h-6.7V938Zm-67.7,12.4h6.7v5.8h-6.7v-5.8Zm13.5,0h6.7v5.8h-6.7v-5.8Zm40.6,0h6.9v5.8h-6.9v-5.8Zm13.6,0h6.7v5.8h-6.7v-5.8Zm-30.4,.3c4.7,0,8.5,3.8,8.5,8.4c0,4.7,-3.8,8.5,-8.5,8.5c-4.6,0,-8.4,-3.8,-8.4,-8.5c0,-4.6,3.8,-8.4,8.4,-8.4Zm-2,3.2v3.2h-3.2v4h3.2v3.3h4v-3.3h3.3v-4H1357v-3.2h-4Zm-35.3,8.7h6.7v5.8h-6.7v-5.8Zm13.5,0h6.7v5.8h-6.7v-5.8Zm40.6,0h6.9v5.8h-6.9v-5.8Zm13.6,0h6.7v5.8h-6.7v-5.8ZM1317.7,975h6.7v5.8h-6.7V975Zm13.5,0h6.7v5.8h-6.7V975Zm40.6,0h6.9v5.8h-6.9V975Zm13.6,0h6.7v5.8h-6.7V975Z" class="g2_1" />
<path fill-rule="evenodd" d="M1222.5,917.2c-5.2,0,-10.4,.6,-14.3,1.9c-8.1,2.4,-8.1,6.2,0,8.7c7.9,2.4,20.9,2.4,29,0c7.9,-2.5,7.9,-6.3,0,-8.7c-4,-1.3,-9.3,-1.9,-14.7,-1.9Zm-20.4,9v38.7c0,3.5,9.1,6.6,20.4,6.6c11.5,0,20.7,-3.1,20.7,-6.6V926.2c-3,2.6,-11,4.5,-20.7,4.5c-9.4,0,-17.5,-1.9,-20.4,-4.5Z" class="g3_1" />
<path fill-rule="evenodd" d="M1222.5,914.2c-5.2,0,-10.4,.4,-14.3,1.8c-8.1,2.4,-8.1,6.3,0,8.7c7.9,2.5,20.9,2.5,29,0c7.9,-2.4,7.9,-6.3,0,-8.7c-4,-1.4,-9.3,-1.8,-14.7,-1.8Zm-20.4,9v38.6c0,3.5,9.1,6.6,20.4,6.6c11.5,0,20.7,-3.1,20.7,-6.6V923.2c-3,2.6,-11,4.4,-20.7,4.4c-9.4,0,-17.5,-1.8,-20.4,-4.4Z" class="g2_1" />
<path fill-rule="evenodd" d="M1239.5,930.1c-5.4,0,-10.6,.6,-14.5,1.8c-8.1,2.4,-8.1,6.3,0,8.7c7.9,2.4,21.1,2.4,29,0c8.1,-2.4,8.1,-6.3,0,-8.7c-4,-1.2,-9.3,-1.8,-14.5,-1.8Zm-20.6,9v38.6c0,3.5,9.1,6.6,20.6,6.6c11.3,0,20.5,-3.1,20.5,-6.6V939.1c-2.9,2.6,-11,4.4,-20.5,4.4c-9.6,0,-17.7,-1.8,-20.6,-4.4Z" class="g3_1" />
<path fill-rule="evenodd" d="M1239.5,927c-5.4,0,-10.6,.5,-14.5,1.8c-8.1,2.3,-8.1,6.3,0,8.7c7.9,2.5,21.1,2.5,29,0c8.1,-2.4,8.1,-6.4,0,-8.7c-4,-1.3,-9.3,-1.8,-14.5,-1.8Zm-20.6,9v38.7c0,3.3,9.1,6.5,20.6,6.5c11.3,0,20.5,-3.2,20.5,-6.5V936c-2.9,2.6,-11,4.4,-20.5,4.4c-9.6,0,-17.7,-1.8,-20.6,-4.4Z" class="g2_1" />
<image preserveAspectRatio="none" x="1228" y="942" width="14" height="34" xlink:href="1/img/3.png" />
<path fill-rule="evenodd" d="M1258,946.1c-5.4,0,-10.6,.6,-14.5,1.8c-8.1,2.5,-8.1,6.3,0,8.7c7.9,2.5,20.9,2.5,29,0c7.9,-2.4,7.9,-6.2,0,-8.7c-4,-1.2,-9.3,-1.8,-14.5,-1.8Zm-20.7,9v38.7c0,3.5,9.2,6.5,20.7,6.5c11.3,0,20.4,-3,20.4,-6.5V955.1c-2.9,2.6,-11,4.4,-20.4,4.4c-9.7,0,-17.8,-1.8,-20.7,-4.4Z" class="g3_1" />
<path fill-rule="evenodd" d="M1258,943c-5.4,0,-10.6,.7,-14.5,1.9c-8.1,2.4,-8.1,6.2,0,8.7c7.9,2.4,20.9,2.4,29,0c7.9,-2.5,7.9,-6.3,0,-8.7c-4,-1.2,-9.3,-1.9,-14.5,-1.9Zm-20.7,9.1v38.6c0,3.5,9.2,6.6,20.7,6.6c11.3,0,20.4,-3.1,20.4,-6.6V952.1c-2.9,2.6,-11,4.4,-20.4,4.4c-9.7,0,-17.8,-1.8,-20.7,-4.4Z" class="g2_1" />
<path fill-rule="evenodd" d="M1252.3,963.7c0,2.1,1.2,4.1,3.5,5.2c-2.3,1.2,-3.5,3.2,-3.5,5.2c0,2.1,1.2,4.1,3.5,5.1c-2.3,1.3,-3.5,3.3,-3.5,5.2c0,2.2,1.2,4.2,3.5,5.4c-2.3,1.1,-3.5,3,-3.5,5.2h1.5c0,-.5,0,-.8,.2,-1.2h7.8c.1,.4,.3,.7,.3,1.2h1.5c0,-2.2,-1.3,-4.1,-3.5,-5.2c2.2,-1.2,3.5,-3.2,3.5,-5.4c0,-1.9,-1.3,-3.9,-3.5,-5.2c2.2,-1,3.5,-3,3.5,-5.1c0,-2,-1.3,-4,-3.5,-5.2c2.2,-1.1,3.5,-3.1,3.5,-5.2h-1.5c0,.4,-.2,.7,-.2,1H1254c-.2,-.3,-.2,-.6,-.2,-1h-1.5Zm2.2,2h6.8c-.6,1,-1.8,1.9,-3.3,2.4c-1.6,-.5,-2.8,-1.4,-3.5,-2.4Zm3.5,4.1c1.5,.4,2.7,1.2,3.3,2.3h-6.8c.7,-1.1,1.9,-1.9,3.5,-2.3Zm-4,3.2h7.9c0,.4,.2,.7,.2,1.1c0,.4,-.2,.7,-.2,1H1254c-.2,-.3,-.2,-.6,-.2,-1c0,-.4,0,-.7,.2,-1.1Zm.5,3h6.8c-.6,1.3,-1.8,2,-3.3,2.5c-1.6,-.5,-2.8,-1.2,-3.5,-2.5Zm3.5,4.2c1.5,.4,2.7,1.2,3.3,2.3h-6.8c.7,-1.1,1.9,-1.9,3.5,-2.3Zm-4,3.2h7.8c.1,.4,.3,.7,.3,1c0,.5,-.2,.8,-.2,1.3H1254c-.2,-.5,-.2,-.8,-.2,-1.3c0,-.3,0,-.6,.2,-1Zm.5,3.2h6.8c-.6,1.1,-1.8,1.8,-3.3,2.3c-1.6,-.5,-2.8,-1.2,-3.5,-2.3Zm3.5,4c1.5,.4,2.7,1.2,3.3,2.2h-6.8c.7,-1,1.9,-1.8,3.5,-2.2Z" class="g3_1" />
<path fill-rule="evenodd" d="M1252.3,960.6c0,2.1,1.2,4.1,3.5,5.2c-2.3,1.2,-3.5,3.1,-3.5,5.2c0,2.1,1.2,4.1,3.5,5.2c-2.3,1.2,-3.5,3.2,-3.5,5.2c0,2.1,1.2,4.1,3.5,5.3c-2.3,1.1,-3.5,3.1,-3.5,5.2h1.5c0,-.4,0,-.7,.2,-1.2h7.8c.1,.5,.3,.8,.3,1.2h1.5c0,-2.1,-1.3,-4.1,-3.5,-5.2c2.2,-1.2,3.5,-3.2,3.5,-5.3c0,-2,-1.3,-4,-3.5,-5.2c2.2,-1.1,3.5,-3.1,3.5,-5.2c0,-2.1,-1.3,-4,-3.5,-5.2c2.2,-1.1,3.5,-3.1,3.5,-5.2h-1.5c0,.5,-.2,.8,-.2,1.1H1254c-.2,-.3,-.2,-.6,-.2,-1.1h-1.5Zm2.2,2h6.8c-.6,1.1,-1.8,2,-3.3,2.4c-1.6,-.4,-2.8,-1.3,-3.5,-2.4Zm3.5,4.1c1.5,.3,2.7,1.2,3.3,2.3h-6.8c.7,-1.1,1.9,-2,3.5,-2.3Zm-4,3.2h7.9c0,.3,.2,.8,.2,1.1c0,.5,-.2,.8,-.2,1.1H1254c-.2,-.3,-.2,-.6,-.2,-1.1c0,-.3,0,-.8,.2,-1.1Zm.5,3.1h6.8c-.6,1.1,-1.8,2,-3.3,2.4c-1.6,-.4,-2.8,-1.3,-3.5,-2.4Zm3.5,4.1c1.5,.5,2.7,1.2,3.3,2.3h-6.8c.7,-1.1,1.9,-1.8,3.5,-2.3Zm-4,3.2h7.8c.1,.3,.3,.8,.3,1.1c0,.4,-.2,.8,-.2,1.1H1254c-.2,-.3,-.2,-.7,-.2,-1.1c0,-.3,0,-.8,.2,-1.1Zm.5,3.2h6.8c-.6,.9,-1.8,1.9,-3.3,2.3c-1.6,-.4,-2.8,-1.4,-3.5,-2.3Zm3.5,4c1.5,.5,2.7,1.2,3.3,2.3h-6.8c.7,-1.1,1.9,-1.8,3.5,-2.3Z" class="g4_1" />
<path fill-rule="evenodd" d="M1139,926.2v-.4l.1,-.2v-.3l.2,-.1v-.3l.1,-.2v-.1l.2,-.2l.1,-.2v-.1h.2l.1,-.2v-.1h.2l.1,-.2h.2l.1,-.1l.2,-.2h.3l.2,-.1h36.5l.1,.1h.3l.2,.2l.1,.1h.2l.1,.2h.2l.1,.1v.2h.2l.1,.1v.2l.2,.2v.1l.2,.2v.1l.1,.2v.1l.2,.2v9.1l-.2,.2v.1l-.1,.2v.3l-.2,.2h-.2v.1l-.1,.2l-.2,.1v.2h-.1l-.2,.1l-.1,.2h-.2l-.1,.1h-.3v.2h-.3l-.3,.1h-35.9l-.2,-.1h-.3l-.2,-.2h-.3l-.1,-.1h-.2v-.2l-.1,-.1h-.2l-.1,-.2v-.1h-.2l-.1,-.2v-.1l-.2,-.2l-.1,-.2v-.3l-.2,-.1v-.3l-.1,-.2v-8.1Z" class="g3_1" />
<path d="M1139,926.2v0v-.4l.1,-.2v-.3l.2,-.1v-.3l.1,-.2v-.1l.2,-.2l.1,-.2v-.1h.2l.1,-.2v-.1h.2l.1,-.2h.2l.1,-.1l.2,-.2h.3l.2,-.1h36.5l.1,.1h.3l.2,.2l.1,.1h.2l.1,.2h.2l.1,.1v.2h.2l.1,.1v.2l.2,.2v.1l.2,.2v.1l.1,.2v.1l.2,.2v9.1l-.2,.2v.1l-.1,.2v.3l-.2,.2h-.2v.1l-.1,.2l-.2,.1v.2h-.1l-.2,.1l-.1,.2h-.2l-.1,.1h-.3v.2h-.3l-.3,.1h-35.9l-.2,-.1h-.3l-.2,-.2h-.3l-.1,-.1h-.2v-.2l-.1,-.1h-.2l-.1,-.2v-.1h-.2l-.1,-.2v-.1l-.2,-.2l-.1,-.2v-.3l-.2,-.1v-.3l-.1,-.2v-8.1Zm0,-3v0Zm41.1,13.7v0Z" class="g5_1" />
<path fill-rule="evenodd" d="M1139,923.2v-.5l.1,-.1v-.3l.2,-.2v-.3l.1,-.1v-.2l.2,-.2l.1,-.1V921h.2l.1,-.1v-.2h.2l.1,-.1l.2,-.2h.1l.2,-.1h.1l.2,-.2h36.8l.2,.2h.1l.2,.1h.1l.2,.2l.1,.1h.2l.1,.2v.1h.2l.1,.2v.1l.2,.2v.2l.2,.1v.2l.1,.1v.2l.2,.1v9.2l-.2,.1v.2l-.1,.1v.3h-.2l-.2,.2v.2l-.1,.1l-.2,.2l-.1,.1l-.2,.2h-.1l-.2,.1l-.1,.2h-.3v.1h-.6l-.2,.2h-35.6l-.1,-.2h-.5l-.2,-.1h-.3l-.1,-.2h-.2v-.1l-.1,-.2h-.2l-.1,-.1v-.2l-.2,-.1h-.1v-.2l-.2,-.2l-.1,-.1v-.3l-.2,-.2v-.3l-.1,-.1v-8.1Z" class="g6_1" />
<path d="M1139,923.2v0v-.5l.1,-.1v-.3l.2,-.2v-.3l.1,-.1v-.2l.2,-.2l.1,-.1V921h.2l.1,-.1v-.2h.2l.1,-.1l.2,-.2h.1l.2,-.1h.1l.2,-.2h36.8l.2,.2h.1l.2,.1h.1l.2,.2l.1,.1h.2l.1,.2v.1h.2l.1,.2v.1l.2,.2v.2l.2,.1v.2l.1,.1v.2l.2,.1v9.2l-.2,.1v.2l-.1,.1v.3h-.2l-.2,.2v.2l-.1,.1l-.2,.2l-.1,.1l-.2,.2h-.1l-.2,.1l-.1,.2h-.3v.1h-.6l-.2,.2h-35.6l-.1,-.2h-.5l-.2,-.1h-.3l-.1,-.2h-.2v-.1l-.1,-.2h-.2l-.1,-.1v-.2l-.2,-.1h-.1v-.2l-.2,-.2l-.1,-.1v-.3l-.2,-.2v-.3l-.1,-.1v-8.1Zm0,-3.1v0Zm41.1,13.8v0Z" class="g7_1" />
<path fill-rule="evenodd" d="M1174.9,923.6v-.3l.1,-.1V923h.2v-.3h.3v-.1h.3l.1,-.2h.3v.2h.5v.1h.1v.2h.2v.1h.2v1.2h-.2v.2h-.2v.2h-.1v.1h-.3v.2h-.8v-.2h-.1l-.2,-.1h-.1v-.2h-.2v-.3h-.1v-.5Z" class="g0_1" />
<path fill-rule="evenodd" d="M1172,923.6v-.4l.1,-.2v-.1h.2v-.2h.1l.2,-.1h.3v-.2h.4v.2h.3l.2,.1h.1v.2h.2v.3h.1v.9h-.1v.3h-.2v.2h-.1l-.2,.1h-.1l-.2,.2h-.6v-.2h-.3v-.1h-.1v-.2h-.2v-.2h-.1v-.6Z" class="g4_1" />
<path fill-rule="evenodd" d="M1139.3,941.5v-.8l.1,-.3l.2,-.3l.1,-.3l.2,-.1v-.2l.1,-.1l.2,-.2l.1,-.1h.2l.1,-.2l.2,-.1h.1l.2,-.2h.2l.1,-.1h36.8l.2,.1h.1l.2,.2h.1l.2,.1l.1,.2l.2,.1h.1l.2,.2v.1l.2,.2l.1,.1v.2l.2,.1v.3h.1v.3l.2,.4v8.5l-.2,.2v.3l-.1,.1v.3h-.2v.2l-.1,.1l-.2,.2v.1l-.2,.2h-.1l-.2,.1v.2h-.1l-.2,.1h-.1l-.2,.2h-.1l-.2,.2h-.4l-.2,.1H1142l-.1,-.1h-.5l-.1,-.2h-.2l-.2,-.2h-.3l-.1,-.1l-.2,-.2l-.1,-.1l-.2,-.2l-.1,-.1v-.2h-.2v-.1l-.1,-.2v-.1l-.2,-.2v-.3l-.1,-.1v-8.3Z" class="g3_1" />
<path d="M1139.3,941.5v0v-.8l.1,-.3l.2,-.3l.1,-.3l.2,-.1v-.2l.1,-.1l.2,-.2l.1,-.1h.2l.1,-.2l.2,-.1h.1l.2,-.2h.2l.1,-.1h36.8l.2,.1h.1l.2,.2h.1l.2,.1l.1,.2l.2,.1h.1l.2,.2v.1l.2,.2l.1,.1v.2l.2,.1v.3h.1v.3l.2,.4v8.5l-.2,.2v.3l-.1,.1v.3h-.2v.2l-.1,.1l-.2,.2v.1l-.2,.2h-.1l-.2,.1v.2h-.1l-.2,.1h-.1l-.2,.2h-.1l-.2,.2h-.4l-.2,.1H1142l-.1,-.1h-.5l-.1,-.2h-.2l-.2,-.2h-.3l-.1,-.1l-.2,-.2l-.1,-.1l-.2,-.2l-.1,-.1v-.2h-.2v-.1l-.1,-.2v-.1l-.2,-.2v-.3l-.1,-.1v-8.3Zm0,-3v0Zm41.1,13.7v0Z" class="g5_1" />
<path fill-rule="evenodd" d="M1139.3,938.5v-1l.1,-.1v-.2l.2,-.1v-.2l.1,-.1v-.2h.2v-.1l.1,-.2l.2,-.1l.1,-.2l.2,-.1h.1l.2,-.2h.1l.2,-.1h.2l.1,-.2h.5l.1,-.2h35.6l.2,.2h.4l.2,.2h.1l.2,.1h.1l.2,.2h.1v.1l.2,.2h.1l.2,.1v.2l.2,.1h.1v.3h.2v.3l.1,.2v.3l.2,.1v8.8l-.2,.1v.3l-.1,.2v.3h-.2v.1l-.1,.2l-.2,.1v.2l-.2,.1h-.1l-.2,.2v.1h-.1l-.2,.2h-.1l-.2,.1h-.3l-.1,.2h-.3l-.2,.2H1142l-.1,-.2h-.5l-.1,-.2h-.2l-.2,-.1h-.1l-.2,-.2h-.1l-.2,-.1v-.2h-.1l-.2,-.1l-.1,-.2v-.1l-.2,-.2l-.1,-.1v-.2l-.2,-.1v-.3l-.1,-.2v-8.2Z" class="g6_1" />
<path d="M1139.3,938.5v0v-1l.1,-.1v-.2l.2,-.1v-.2l.1,-.1v-.2h.2v-.1l.1,-.2l.2,-.1l.1,-.2l.2,-.1h.1l.2,-.2h.1l.2,-.1h.2l.1,-.2h.5l.1,-.2h35.6l.2,.2h.4l.2,.2h.1l.2,.1h.1l.2,.2h.1v.1l.2,.2h.1l.2,.1v.2l.2,.1h.1v.3h.2v.3l.1,.2v.3l.2,.1v8.8l-.2,.1v.3l-.1,.2v.3h-.2v.1l-.1,.2l-.2,.1v.2l-.2,.1h-.1l-.2,.2v.1h-.1l-.2,.2h-.1l-.2,.1h-.3l-.1,.2h-.3l-.2,.2H1142l-.1,-.2h-.5l-.1,-.2h-.2l-.2,-.1h-.1l-.2,-.2h-.1l-.2,-.1v-.2h-.1l-.2,-.1l-.1,-.2v-.1l-.2,-.2l-.1,-.1v-.2l-.2,-.1v-.3l-.1,-.2v-8.2Zm0,-3.3v0Zm41.1,14v0Z" class="g7_1" />
<path fill-rule="evenodd" d="M1175.2,938.9v-.4h.1v-.2l.2,-.1V938h.1v-.2h.3l.2,-.1h.6v.1h.3l.2,.2v.2h.1v.1h.2v1.1l-.2,.1l-.1,.2v.1h-.4v.2h-.3v.1h-.4V940h-.3v-.2h-.3v-.3h-.2v-.1h-.1v-.5Z" class="g0_1" />
<path fill-rule="evenodd" d="M1172.3,938.9v-.4l.1,-.2v-.1h.2V938h.1v-.2h.3v-.1h.8v.1h.3v.2h.1v.2h.2v.3h.2v.9h-.2v.1h-.2v.3h-.3v.2h-.3v.1h-.4V940h-.3v-.2h-.3v-.1l-.2,-.2l-.1,-.1v-.5Z" class="g4_1" />
<path fill-rule="evenodd" d="M1139.3,956.6v-.7l.1,-.2v-.1l.2,-.2v-.1l.1,-.2V955h.2v-.2l.1,-.1l.2,-.2v-.2h.1l.2,-.1l.1,-.2h.3l.2,-.1h.2l.1,-.2h.5l.1,-.1h35.6l.2,.1h.4l.2,.2h.1l.2,.1h.3l.1,.2v.1h.2l.1,.2l.2,.2v.1l.2,.2h.1v.3h.2v.3l.1,.1v.3l.2,.2v8.5l-.2,.3v.3h-.1v.4l-.2,.1v.2l-.1,.1l-.2,.2v.1l-.2,.2h-.1l-.2,.1l-.1,.2l-.2,.1h-.1l-.2,.2h-.3l-.1,.1h-.8l-35,.2v-.2h-.9l-.1,-.1h-.2l-.2,-.2h-.1l-.2,-.1h-.1l-.2,-.2v-.1h-.1l-.2,-.2l-.1,-.1v-.2l-.2,-.1l-.1,-.2v-.1l-.2,-.2v-.3l-.1,-.2v-8.4Z" class="g3_1" />
<path d="M1139.3,956.6v0v-.7l.1,-.2v-.1l.2,-.2v-.1l.1,-.2V955h.2v-.2l.1,-.1l.2,-.2v-.2h.1l.2,-.1l.1,-.2h.3l.2,-.1h.2l.1,-.2h.5l.1,-.1h35.6l.2,.1h.4l.2,.2h.1l.2,.1h.3l.1,.2v.1h.2l.1,.2l.2,.2v.1l.2,.2h.1v.3h.2v.3l.1,.1v.3l.2,.2v8.5l-.2,.3v.3h-.1v.4l-.2,.1v.2l-.1,.1l-.2,.2v.1l-.2,.2h-.1l-.2,.1l-.1,.2l-.2,.1h-.1l-.2,.2h-.3l-.1,.1h-.8l-35,.2v-.2h-.9l-.1,-.1h-.2l-.2,-.2h-.1l-.2,-.1h-.1l-.2,-.2v-.1h-.1l-.2,-.2l-.1,-.1v-.2l-.2,-.1l-.1,-.2v-.1l-.2,-.2v-.3l-.1,-.2v-8.4Zm0,-3v0Zm41.1,13.9v0Z" class="g5_1" />
<path fill-rule="evenodd" d="M1139.3,953.6v-.8l.1,-.1v-.2l.2,-.1v-.2l.1,-.1v-.2l.2,-.2l.1,-.1l.2,-.2v-.1h.1l.2,-.2l.1,-.1h.2l.1,-.2h.4l.1,-.1h.3l.2,-.2h35.9l.1,.2h.3l.2,.1h.3l.1,.2h.2l.1,.1v.2h.2l.1,.1l.2,.2v.1h.2l.1,.2v.2l.2,.1v.3l.1,.2v.3l.2,.1v8.6l-.2,.1v.3l-.1,.2v.3l-.2,.1v.2l-.1,.2l-.2,.1v.2h-.2l-.1,.1l-.2,.2l-.1,.1l-.2,.2h-.1l-.2,.1h-.4l-.2,.2h-.6l-35,.1v-.1h-.7l-.2,-.2h-.3l-.2,-.1h-.1l-.2,-.2h-.1l-.2,-.1v-.2h-.1l-.2,-.1l-.1,-.2v-.1l-.2,-.2v-.2h-.1v-.1l-.2,-.2v-.3l-.1,-.1v-8.4Z" class="g6_1" />
<path d="M1139.3,953.6v0v-.8l.1,-.1v-.2l.2,-.1v-.2l.1,-.1v-.2l.2,-.2l.1,-.1l.2,-.2v-.1h.1l.2,-.2l.1,-.1h.2l.1,-.2h.4l.1,-.1h.3l.2,-.2h35.9l.1,.2h.3l.2,.1h.3l.1,.2h.2l.1,.1v.2h.2l.1,.1l.2,.2v.1h.2l.1,.2v.2l.2,.1v.3l.1,.2v.3l.2,.1v8.6l-.2,.1v.3l-.1,.2v.3l-.2,.1v.2l-.1,.2l-.2,.1v.2h-.2l-.1,.1l-.2,.2l-.1,.1l-.2,.2h-.1l-.2,.1h-.4l-.2,.2h-.6l-35,.1v-.1h-.7l-.2,-.2h-.3l-.2,-.1h-.1l-.2,-.2h-.1l-.2,-.1v-.2h-.1l-.2,-.1l-.1,-.2v-.1l-.2,-.2v-.2h-.1v-.1l-.2,-.2v-.3l-.1,-.1v-8.4Zm0,-3.1v0Zm41.1,13.9v0Z" class="g7_1" />
<path fill-rule="evenodd" d="M1175.2,954.2v-.5h.1v-.3h.2v-.1h.1v-.2h.3V953h.9v.1h.4v.3h.1v.2h.2v1.1h-.2v.1l-.1,.2l-.2,.1h-.2v.2h-1v-.2h-.2V955h-.1v-.2h-.2v-.1h-.1v-.5Z" class="g0_1" />
<path fill-rule="evenodd" d="M1172.3,954.2v-.6h.1v-.2h.2v-.1h.1v-.2h.2l.1,-.1h.9v.1h.2l.1,.2v.1h.2v.2l.2,.1v1h-.2v.1h-.2v.2h-.1v.1h-.2v.2h-1v-.2h-.2l-.1,-.1l-.2,-.2v-.1h-.1v-.5Z" class="g4_1" />
<path fill-rule="evenodd" d="M1139.3,971.9v-.7l.1,-.2v-.2l.2,-.1v-.2l.1,-.1v-.2l.2,-.1v-.2l.1,-.1h.2v-.2l.1,-.1h.2l.1,-.2h.2l.1,-.1h.2l.2,-.2h.1l.2,-.1h36.5l.1,.1h.2l.1,.2h.2l.1,.1h.2l.1,.2l.2,.1l.1,.2h.2v.1l.2,.2l.1,.1v.2l.2,.1v.3l.1,.2v.3l.2,.2v17.1l-.2,.1v.3l-.1,.2v.3l-.2,.1v.2l-.1,.1l-.2,.2v.1h-.2l-.1,.2l-.2,.2l-.1,.1l-.2,.2h-.1l-.2,.1h-.3l-.1,.2h-.8l-35,.1v-.1h-.9l-.1,-.2h-.2l-.2,-.1h-.1l-.2,-.2h-.1l-.2,-.1v-.2h-.1l-.2,-.2l-.1,-.1v-.2l-.2,-.1v-.2h-.1v-.1l-.2,-.2V989l-.1,-.1v-17Z" class="g3_1" />
<path d="M1139.3,971.9v0v-.7l.1,-.2v-.2l.2,-.1v-.2l.1,-.1v-.2l.2,-.1v-.2l.1,-.1h.2v-.2l.1,-.1h.2l.1,-.2h.2l.1,-.1h.2l.2,-.2h.1l.2,-.1h36.5l.1,.1h.2l.1,.2h.2l.1,.1h.2l.1,.2l.2,.1l.1,.2h.2v.1l.2,.2l.1,.1v.2l.2,.1v.3l.1,.2v.3l.2,.2v17.1l-.2,.1v.3l-.1,.2v.3l-.2,.1v.2l-.1,.1l-.2,.2v.1h-.2l-.1,.2l-.2,.2l-.1,.1l-.2,.2h-.1l-.2,.1h-.3l-.1,.2h-.8l-35,.1v-.1h-.9l-.1,-.2h-.2l-.2,-.1h-.1l-.2,-.2h-.1l-.2,-.1v-.2h-.1l-.2,-.2l-.1,-.1v-.2l-.2,-.1v-.2h-.1v-.1l-.2,-.2V989l-.1,-.1v-17Zm0,-3v0Zm41.1,22.4v0Z" class="g5_1" />
<path fill-rule="evenodd" d="M1139.3,968.9v-.8l.1,-.2v-.1l.2,-.2v-.1l.1,-.2v-.1l.2,-.2v-.1l.1,-.2h.2v-.1l.1,-.2h.2l.1,-.1h.2l.1,-.2l.2,-.1h.3l.2,-.2h36.5l.1,.2h.3l.2,.1l.1,.2h.2l.1,.1l.2,.2l.1,.1h.2v.2l.2,.1l.1,.2v.1l.2,.2v.3l.1,.1v.3l.2,.2v17.1l-.2,.2v.3l-.1,.1v.3l-.2,.2v.1l-.1,.2l-.2,.1l-.2,.2l-.1,.1l-.2,.2l-.1,.2h-.2l-.1,.1l-.2,.2h-.4l-.2,.1h-.6l-35,.2v-.2h-.7l-.2,-.1h-.3l-.2,-.2h-.1l-.2,-.1h-.1l-.2,-.2v-.2h-.1l-.2,-.1l-.1,-.2v-.1l-.2,-.2v-.1l-.1,-.2l-.2,-.3V986l-.1,-.2V968.9Z" class="g6_1" />
<path d="M1139.3,968.9v0v-.8l.1,-.2v-.1l.2,-.2v-.1l.1,-.2v-.1l.2,-.2v-.1l.1,-.2h.2v-.1l.1,-.2h.2l.1,-.1h.2l.1,-.2l.2,-.1h.3l.2,-.2h36.5l.1,.2h.3l.2,.1l.1,.2h.2l.1,.1l.2,.2l.1,.1h.2v.2l.2,.1l.1,.2v.1l.2,.2v.3l.1,.1v.3l.2,.2v17.1l-.2,.2v.3l-.1,.1v.3l-.2,.2v.1l-.1,.2l-.2,.1l-.2,.2l-.1,.1l-.2,.2l-.1,.2h-.2l-.1,.1l-.2,.2h-.4l-.2,.1h-.6l-35,.2v-.2h-.7l-.2,-.1h-.3l-.2,-.2h-.1l-.2,-.1h-.1l-.2,-.2v-.2h-.1l-.2,-.1l-.1,-.2v-.1l-.2,-.2v-.1l-.1,-.2l-.2,-.3V986l-.1,-.2V968.9Zm0,-3.1v0Zm41.1,22.5v0Z" class="g7_1" />
<path d="M1143.4,985.2l5.9,-16.3m-2.4,15.8l6,-15.7m-2.5,16.2l6,-16.3" class="g8_1" />
<path d="M1124.4,913.7V912l.2,-.6l.2,-.7V910l.3,-.6l.1,-.4m2.3,-3.7v-.1l.5,-.5l.4,-.5l.5,-.3l.4,-.4l.6,-.3l.5,-.3l.5,-.3m4.1,-1.3h.1l.7,-.1h3.6m4.4,0h4.3m4.5,0h4.2m4.5,0h4.2m4.5,0h4.2m4.5,0h4.4m4.3,0h4.4m4.3,0h4.4m4.5,0h4.2m4.5,0h4.2m4.5,0h4.3m4.4,0h4.4m4.3,0h4.4m4.3,0h4.4m4.5,0h4.2m4.5,0h4.2m4.5,0h4.3m4.4,0h.4l.8,.1h.6l.6,.2l.6,.1l.7,.2l.6,.1v.2m3.6,2.1l.5,.5l.4,.5l.4,.6l.4,.4l.3,.5l.5,.6l.1,.4m1.2,4.2v.1l.2,.6v3.7m0,4.3V925m0,4.4v4.3m0,4.5v4.2m0,4.5v4.2m0,4.5V960m0,4.3v4.4m0,4.3v4.4m0,4.4v4.3m0,4.5v4.2m-.8,4.3v.3l-.3,.5l-.3,.6l-.1,.6l-.3,.5l-.5,.6l-.3,.4l-.3,.3m-3.4,2.6l-.3,.2l-.4,.3l-.6,.3l-.6,.1l-.7,.2l-.6,.1l-.6,.2h-.3m-4.3,.2h-4.4m-4.4,0h-4.3m-4.4,0h-4.3m-4.4,0H1250m-4.2,0h-4.3m-4.5,0h-4.4m-4.3,0h-4.4m-4.3,0h-4.4m-4.4,0h-4.3m-4.4,0h-4.5m-4.3,0h-4.2m-4.5,0h-4.4m-4.3,0h-4.4m-4.3,0h-4.4m-4.4,0h-4.3m-4.4,0h-4.3m-4.5,0h-4.2m-4.3,-.7l-.3,-.1l-.5,-.3l-.6,-.2l-.6,-.3l-.5,-.3l-.6,-.4l-.4,-.3l-.3,-.3m-2.6,-3.4l-.2,-.3l-.3,-.5l-.3,-.6l-.1,-.6l-.2,-.6l-.1,-.6l-.2,-.6v-.3m-.2,-4.5V988m0,-4.5v-4.3m0,-4.4v-4.3m0,-4.4v-4.4m0,-4.3V953m0,-4.3v-4.4m0,-4.5v-4.2m0,-4.5v-4.3m0,-4.4v-4.3" class="g9_1" />

</svg>
