<?xml version="1.0" encoding="UTF-8" standalone="no"?>
<!DOCTYPE svg PUBLIC "-//W3C//DTD SVG 1.1//EN"
"http://www.w3.org/Graphics/SVG/1.1/DTD/svg11.dtd">


<!-- Page 1 -->
<svg x="0" y="0" width="1564" height="1173" viewBox="0 0 1564 1173" version="1.1" xmlns="http://www.w3.org/2000/svg" xmlns:xlink="http://www.w3.org/1999/xlink"
style="display: block;margin-left: auto;margin-right: auto;">
<defs>
<clipPath id="c0_1"><path d="M0,1173.3V0H1564.4V1173.3Z" /></clipPath>

<style type="text/css"><![CDATA[

.g0_1{
fill: #FFFFFF;
}
.g1_1{
fill-opacity: 0.5;
}
.g2_1{
fill: #99195E;
}
.g3_1{
fill-opacity: 0.4;
}
.g4_1{
fill: #99195E;
fill-opacity: 0.4;
}
.g5_1{
fill: #0175AE;
}
.g6_1{
fill: #027001;
}
.g7_1{
fill: #DA7E00;
}
.g8_1{
fill: #70BF41;
}
.g9_1{
fill: none;
stroke: #F39019;
stroke-width: 7.6095405;
stroke-linecap: butt;
stroke-linejoin: miter;
}
.g10_1{
fill: #F39019;
}
.g11_1{
fill: #E68500;
}
.g12_1{
fill: #F39019;
fill-opacity: 0.5;
}
.g13_1{
fill: none;
stroke: #027001;
stroke-width: 7.6095405;
stroke-linecap: butt;
stroke-linejoin: miter;
}
.g14_1{
fill: none;
stroke: #0076BA;
stroke-width: 7.6095405;
stroke-linecap: butt;
stroke-linejoin: miter;
}
.g15_1{
fill: #0076BA;
}
.g16_1{
fill: none;
stroke: #000000;
stroke-width: 3.069764;
stroke-linecap: butt;
stroke-linejoin: miter;
stroke-miterlimit: 7;
}
.g17_1{
fill: #61D836;
}
.g18_1{
fill: #F5D328;
}
.g19_1{
fill: #EE230C;
}

.s1_1{
font-size: 36.67px;
font-family: DejaVuSans-Bold_2w;
fill: #000000;
}
.s2_1{
font-size: 36.67px;
font-family: DejaVuSans-Oblique_2_;
fill: #000000;
}

]]></style>

</defs>
<path d="M0,0
L0,1173
L1564,1173
L1564,0 Z " 
fill="#FFFFFF" stroke="none" />
<g clip-path="url(#c0_1)">
<path fill-rule="evenodd" d="M0,.1H1564.4V1173.4H0V.1Z" class="g0_1" />
<path fill-rule="evenodd" d="M0,.1H1564.4V1173.4H0V.1Z" class="g0_1" />
</g>
<path fill-rule="evenodd" d="M1469.6,733.4c-1.6,0,-2.6,1.3,-2.6,2.6v18.1c0,1.3,1,2.6,2.6,2.6H1500c1.3,0,2.4,-1.3,2.4,-2.6V736c0,-1.3,-1.1,-2.6,-2.4,-2.6h-30.4Zm1.7,7.7h.3v1.8h-2.2c0,-1.1,.8,-1.8,1.9,-1.8Zm.7,0h2.8c1,0,1.9,.7,1.9,1.8H1472v-1.8Zm-2.6,2.4h2.2V745h-2.2v-1.5Zm2.6,0h2V745h-2v-1.5Zm2.5,0h2.2V745h-2.2v-1.5Zm-5.1,2.2h2.2v1.8h-.3c-1.1,0,-1.9,-.8,-1.9,-1.8Zm2.6,0h2v1.8h-2v-1.8Zm2.5,0h2.2c0,1,-.9,1.8,-1.9,1.8h-.3v-1.8Zm-4.8,5.3h.6c.2,0,.3,.2,.3,.3v1.2c0,.2,-.1,.3,-.3,.3h-.6c-.1,0,-.1,-.1,-.1,-.3v-1.2c0,-.1,0,-.3,.1,-.3Zm1.6,0h.6v1.5h.3v-.3q0,-.1,0,-.1q.1,0,.1,0v.6q0,.1,-.1,.1h-.9c0,0,-.2,0,-.2,-.1c0,0,.2,-.2,.2,-.2h.3v-1.2h-.3c0,0,-.2,-.1,-.2,-.1c0,0,.2,-.2,.2,-.2Zm1.6,0h.8c.1,0,.3,.2,.3,.3v.5c0,.1,-.2,.3,-.3,.3h-.6v.4h.7c0,0,.2,.2,.2,.2c0,.1,-.2,.1,-.2,.1h-1v-.7c0,-.2,.1,-.3,.3,-.3h.6v-.5h-.8c0,0,-.1,-.1,-.1,-.1c0,0,.1,-.2,.1,-.2Zm1.7,0h.8c.1,0,.1,.2,.1,.2v.6c0,0,0,.1,0,.1q0,.2,0,.3v.3c0,.2,0,.3,-.1,.3h-.8q-.1,0,-.1,-.1c0,0,0,-.2,.1,-.2h.8v-.3q0,-.1,-.2,-.1h-.4v-.2c0,0,0,-.1,0,-.1h.4q.2,0,.2,0v-.5h-.8c-.1,0,-.1,-.1,-.1,-.1c0,0,0,-.2,.1,-.2Zm3.4,0c0,0,0,.2,0,.2v.9h.4v-.8c0,0,0,-.1,.2,-.1c.1,0,.1,.1,.1,.1v.8q0,.1,0,.1v.5q0,.1,-.1,.1q-.2,0,-.2,-.1v-.5h-.6v-1c0,0,0,-.2,.2,-.2Zm3,0h.2c.1,0,.1,.2,.1,.2c0,0,0,.1,-.1,.1v.8h.7q.2,0,.2,0v.6q0,.1,-.2,.1h-.9v-1.6c0,0,0,-.2,0,-.2Zm1.7,0h1.1v.8l-.3,.4q-.2,0,-.2,0v.5q0,.1,-.1,.1v-.7l.3,-.3q.1,0,.1,-.2v-.3h-.9v-.1c0,0,0,-.2,0,-.2Zm3.5,0h.5c0,0,.1,.2,.1,.2v.6c0,0,.2,.1,.2,.3v.4c0,.2,-.2,.3,-.2,.3h-.7c-.2,0,-.2,-.1,-.2,-.3v-.4c0,-.2,0,-.3,.2,-.3v-.6c0,0,0,-.2,.1,-.2Zm1.4,0h.9c.2,0,.2,.2,.2,.2v1.5q0,.1,-.2,.1h-.1v-.1c0,0,0,-.2,0,-.2v-.6h-.8c0,0,-.2,-.1,-.2,-.1v-.6c0,0,.2,-.2,.2,-.2Zm1.8,0h.6c.2,0,.3,.2,.3,.3v1.2c0,.2,-.1,.3,-.3,.3h-.6c-.1,0,-.3,-.1,-.3,-.3v-1.2c0,-.1,.2,-.3,.3,-.3Zm1.6,0h.6v1.5h.1v-.3q0,-.1,.2,-.1c0,0,.1,0,.1,0v.6c0,.1,-.1,.1,-.1,.1h-.9q-.2,0,-.2,-.1c0,0,0,-.2,.2,-.2h.3v-1.2h-.3c-.2,0,-.2,-.1,-.2,-.1c0,0,0,-.2,.2,-.2Zm3.2,0h.7c.2,0,.3,.2,.3,.3v.5c0,.1,-.1,.3,-.3,.3h-.7v.4h.9c0,0,.1,.2,.1,.2c0,.1,-.1,.1,-.1,.1H1494v-.7c0,-.2,.2,-.3,.2,-.3h.7v-.5h-.7c-.2,0,-.2,-.1,-.2,-.1c0,0,0,-.2,.2,-.2Zm1.6,0h.8c.2,0,.2,.2,.2,.2v.6c0,0,0,.1,0,.1q0,.2,0,.3v.3c0,.2,0,.3,-.2,.3h-.8q-.1,0,-.1,-.1c0,0,0,-.2,.1,-.2h.8v-.3c0,-.1,-.1,-.1,-.1,-.1h-.5c0,0,-.2,0,-.2,-.2c0,0,.2,-.1,.2,-.1h.5c0,0,.1,0,.1,0v-.5h-.8c-.1,0,-.1,-.1,-.1,-.1c0,0,0,-.2,.1,-.2Zm1.7,0c.2,0,.2,.2,.2,.2v.9h.4v-.8c0,0,0,-.1,.2,-.1c0,0,.1,.1,.1,.1v.8q0,.1,0,.1v.5c0,.1,-.1,.1,-.1,.1q-.2,0,-.2,-.1v-.5h-.7v-1c0,0,.1,-.2,.1,-.2Zm-18,0h.8c.1,0,.3,.2,.3,.2c0,0,-.2,.1,-.2,.1h-.6v.5h.5c.1,0,.1,.1,.1,.3v.4c0,.2,0,.3,-.1,.3h-.6l-.4,-.1q0,-.2,.2,-.2h.8v-.4h-.8V751Zm19.7,0h.8c.1,0,.1,.2,.1,.2c0,0,0,.1,-.1,.1h-.5l-.1,.5h.6c0,0,.1,.1,.1,.3v.4c0,.2,-.1,.3,-.1,.3h-.6c0,0,-.2,0,-.2,0l-.1,-.1q0,-.2,0,-.2h.9v-.4h-.8V751Zm-12.8,.3v.5h.1v-.5h-.1Zm-16.7,0v1.2h.6v-1.2h-.6Zm18,0v.3h.7v-.3h-.7Zm1.7,0v1.2h.6v-1.2h-.6Zm-3.3,.8v.4h.7v-.4h-.7Zm-4.9,.1v.3h.7v-.3h-.7Z" class="g1_1" />
<path fill-rule="evenodd" d="M1469.6,730.4c-1.6,0,-2.6,1,-2.6,2.6v18c0,1.4,1,2.4,2.6,2.4H1500c1.3,0,2.4,-1,2.4,-2.4V733c0,-1.6,-1.1,-2.6,-2.4,-2.6h-30.4Zm1.7,7.6h.3v1.8h-2.2c0,-1,.8,-1.8,1.9,-1.8Zm.7,0h2.8c1,0,1.9,.8,1.9,1.8H1472V738Zm-2.6,2.5h2.2V742h-2.2v-1.5Zm2.6,0h2V742h-2v-1.5Zm2.5,0h2.2V742h-2.2v-1.5Zm-5.1,2.1h2.2v1.8h-.3c-1.1,0,-1.9,-.7,-1.9,-1.8Zm2.6,0h2v1.8h-2v-1.8Zm2.5,0h2.2c0,1.1,-.9,1.8,-1.9,1.8h-.3v-1.8Zm-4.8,5.3h.6c.2,0,.3,.2,.3,.3v1.3c0,.1,-.1,.3,-.3,.3h-.6c-.1,0,-.1,-.2,-.1,-.3v-1.3c0,-.1,0,-.3,.1,-.3Zm1.6,0h.6v1.6h.3v-.3q0,-.2,0,-.2q.1,0,.1,0v.6c0,0,0,.2,-.1,.2h-.9c0,0,-.2,-.2,-.2,-.2c0,0,.2,-.1,.2,-.1h.3v-1.3h-.3c0,0,-.2,-.1,-.2,-.1c0,-.2,.2,-.2,.2,-.2Zm1.6,0h.8c.1,0,.3,.2,.3,.3v.5c0,.2,-.2,.3,-.3,.3h-.6v.5h.7c0,0,.2,.1,.2,.1c0,0,-.2,.2,-.2,.2h-1V749c0,-.1,.1,-.3,.3,-.3h.6v-.5h-.8c0,0,-.1,-.1,-.1,-.1c0,-.2,.1,-.2,.1,-.2Zm1.7,0h.8c.1,0,.1,.2,.1,.2v.6c0,0,0,.2,0,.2c0,0,0,.1,0,.3v.3c0,.1,0,.3,-.1,.3h-.8c-.1,0,-.1,-.2,-.1,-.2c0,0,0,-.1,.1,-.1h.8v-.3q0,-.2,-.2,-.2h-.4c0,0,0,-.1,0,-.1c0,0,0,-.2,0,-.2h.4q.2,0,.2,-.1v-.4h-.8c-.1,0,-.1,-.1,-.1,-.1q0,-.2,.1,-.2Zm3.4,0v1h.4v-.7c0,0,0,-.1,.2,-.1c.1,0,.1,.1,.1,.1v.7q0,.1,0,.1q0,.2,0,.2v.4c0,0,0,.2,-.1,.2c-.2,0,-.2,-.2,-.2,-.2v-.4h-.6v-1.1q0,-.2,.2,-.2Zm3,0h.2q.1,0,.1,.2c0,0,0,.1,-.1,.1v.7h.7c.2,0,.2,.1,.2,.1v.6c0,0,0,.2,-.2,.2h-.9c0,0,0,-.2,0,-.2v-1.5q0,-.2,0,-.2Zm1.7,0h1.1v.8l-.3,.5q-.2,0,-.2,0v.4c0,0,0,.2,-.1,.2c0,0,0,-.2,0,-.2V749l.3,-.3q.1,-.1,.1,-.1v-.4h-.9v-.1q0,-.2,0,-.2Zm3.5,0h.5c0,0,.1,0,.1,.2v.6c0,0,.2,.2,.2,.3v.5c0,.1,-.2,.3,-.2,.3h-.7c-.2,0,-.2,-.2,-.2,-.3V749c0,-.1,0,-.3,.2,-.3v-.6q0,-.2,.1,-.2Zm1.4,0h.9q.2,0,.2,.2v1.5c0,0,0,.2,-.2,.2h-.1c0,0,0,-.2,0,-.2c0,0,0,-.1,0,-.1v-.6h-.8c0,0,-.2,-.2,-.2,-.2v-.6c0,-.2,.2,-.2,.2,-.2Zm1.8,0h.6c.2,0,.3,.2,.3,.3v1.3c0,.1,-.1,.3,-.3,.3h-.6c-.1,0,-.3,-.2,-.3,-.3v-1.3c0,-.1,.2,-.3,.3,-.3Zm1.6,0h.6v1.6h.1v-.3q0,-.2,.2,-.2c0,0,.1,0,.1,0v.6c0,0,-.1,.2,-.1,.2h-.9c-.2,0,-.2,-.2,-.2,-.2c0,0,0,-.1,.2,-.1h.3v-1.3h-.3c-.2,0,-.2,-.1,-.2,-.1q0,-.2,.2,-.2Zm3.2,0h.7c.2,0,.3,.2,.3,.3v.5c0,.2,-.1,.3,-.3,.3h-.7v.5h.9c0,0,.1,.1,.1,.1c0,0,-.1,.2,-.1,.2H1494V749c0,-.1,.2,-.3,.2,-.3h.7v-.5h-.7c-.2,0,-.2,-.1,-.2,-.1q0,-.2,.2,-.2Zm1.6,0h.8c.2,0,.2,.2,.2,.2v.6c0,0,0,.2,0,.2c0,0,0,.1,0,.3v.3c0,.1,0,.3,-.2,.3h-.8c-.1,0,-.1,-.2,-.1,-.2c0,0,0,-.1,.1,-.1h.8v-.3c0,-.2,-.1,-.2,-.1,-.2h-.5c0,0,-.2,-.1,-.2,-.1c0,0,.2,-.2,.2,-.2h.5c0,0,.1,0,.1,-.1v-.4h-.8c-.1,0,-.1,-.1,-.1,-.1q0,-.2,.1,-.2Zm1.7,0q.2,0,.2,.2v.8h.4v-.7c0,0,0,-.1,.2,-.1c0,0,.1,.1,.1,.1v.7q0,.1,0,.1q0,.2,0,.2v.4c0,0,-.1,.2,-.1,.2c-.2,0,-.2,-.2,-.2,-.2v-.4h-.7v-1.1c0,-.2,.1,-.2,.1,-.2Zm-18,0h.8c.1,0,.3,0,.3,.2c0,0,-.2,.1,-.2,.1h-.6v.5h.5c.1,0,.1,.2,.1,.3v.5c0,.1,0,.3,-.1,.3h-.6l-.4,-.2q0,-.1,.2,-.1h.8V749h-.8v-1.1Zm19.7,0h.8q.1,0,.1,.2c0,0,0,.1,-.1,.1h-.5l-.1,.5h.6c0,0,.1,.2,.1,.3v.5c0,.1,-.1,.3,-.1,.3h-.6c0,0,-.2,0,-.2,0l-.1,-.2q0,-.1,0,-.1h.9V749h-.8v-1.1Zm-12.8,.3v.5h.1v-.5h-.1Zm-16.7,0v1.3h.6v-1.3h-.6Zm18,0v.4h.7v-.4h-.7Zm1.7,0v1.3h.6v-1.3h-.6Zm-3.3,.8v.5h.7V749h-.7Zm-4.9,.2v.3h.7v-.3h-.7Z" class="g2_1" />
<path fill-rule="evenodd" d="M1459,743.7c3.4,3,4.8,7.1,5.5,10.8c.6,3.5,.2,7.5,-2.9,9.3c-1,.5,-2.1,.6,-3.2,.5h-8.5l-8.9,-.2c-.9,.2,-2,0,-2.9,-.3c-3.4,-1.6,-4.1,-5.3,-3.8,-9.1c.4,-3.7,1.8,-8,5.3,-11c5.5,-4.8,13.8,-4.8,19.4,0Z" class="g3_1" />
<path fill-rule="evenodd" d="M1459,740.6c3.4,3.1,4.8,7.2,5.5,10.9c.6,3.5,.2,7.4,-2.9,9.1c-1,.6,-2.1,.8,-3.2,.6h-8.5l-8.9,-.1c-.9,.1,-2,0,-2.9,-.5c-3.4,-1.5,-4.1,-5.2,-3.8,-9c.4,-3.7,1.8,-7.9,5.3,-11c5.5,-4.9,13.8,-4.7,19.4,0Z" class="g4_1" />
<path fill-rule="evenodd" d="M1440.5,733.1v-.4l.2,-.5v-.5l.1,-.4v-.5l.2,-.4l.2,-.3l.1,-.5l.2,-.4l.3,-.4l.1,-.4l.3,-.5l.3,-.3l.2,-.3l.3,-.3l.3,-.3l.5,-.3l.3,-.3l.3,-.3l.4,-.3l.3,-.2l.5,-.3l.4,-.1l.3,-.2l.5,-.1h.5l.4,-.2l.5,-.1h2.7l.3,.1l.6,.2h.4l.4,.1l.5,.3l.4,.2l.3,.1l.5,.3l.5,.3l.3,.3l.3,.4l.4,.3l.3,.3l.3,.3l.2,.3l.3,.4l.3,.3l.1,.5l.4,.5l.1,.4l.2,.5l.1,.4v.3l.2,.6v.5l.1,.5v.4h-.1v1.4l-.2,.5l-.1,.4v.3l-.3,.6l-.2,.3l-.2,.5l-.1,.5l-.3,.3l-.3,.4l-.2,.3l-.3,.3l-.4,.5l-.3,.3l-.3,.3l-.3,.3l-.5,.2l-.5,.3l-.3,.3l-.4,.1l-.5,.2l-.4,.1l-.4,.2l-.6,.1h-.3l-.4,.2h-1.9l-.6,-.2h-.3l-.4,-.1l-.5,-.2l-.5,-.1l-.4,-.2l-.5,-.1l-.3,-.3l-.4,-.2l-.3,-.3l-.5,-.3l-.3,-.3l-.5,-.3l-.3,-.3l-.3,-.5l-.1,-.3l-.3,-.3l-.3,-.4l-.2,-.5l-.1,-.5l-.3,-.3l-.2,-.4l-.2,-.5V735l-.1,-.5V734l-.2,-.4v-.5Z" class="g1_1" />
<path fill-rule="evenodd" d="M1440.5,731.4V731l.2,-.5v-.4l.1,-.5v-.4l.2,-.5l.2,-.3l.1,-.5l.2,-.4l.3,-.3l.1,-.5l.3,-.5l.3,-.3l.2,-.3l.3,-.3l.3,-.3l.5,-.3l.3,-.3l.3,-.3l.4,-.3l.3,-.1l.5,-.4l.4,-.1l.3,-.2l.5,-.1l.5,-.2h.4l.5,-.1h.4l.5,-.2h.9l.5,.2h.4l.3,.1h.6l.4,.2l.4,.1l.5,.3l.4,.2l.3,.2l.5,.3l.5,.3l.3,.3l.3,.1l.4,.3l.3,.5l.3,.3l.2,.3l.3,.5l.3,.3l.1,.4l.4,.5l.1,.4l.2,.5l.1,.5v.3l.2,.6v.4l.1,.3v.6h-.1v1.4l-.2,.5l-.1,.4v.3l-.3,.7l-.2,.3l-.2,.4l-.1,.5l-.3,.3l-.3,.4l-.2,.3l-.3,.3l-.4,.5l-.3,.3l-.3,.3l-.3,.3l-.5,.2l-.5,.3l-.3,.1l-.4,.3l-.5,.2l-.4,.1l-.4,.2l-.6,.2h-.3l-.4,.1h-1.9l-.6,-.1h-.3l-.4,-.2l-.5,-.2l-.5,-.1l-.4,-.2l-.5,-.1l-.3,-.3l-.4,-.2l-.3,-.3l-.5,-.3l-.3,-.3l-.5,-.3l-.3,-.3l-.3,-.5l-.1,-.3l-.3,-.3l-.3,-.4l-.2,-.5l-.1,-.4l-.3,-.3l-.2,-.5l-.2,-.5v-.4l-.1,-.5v-.4l-.2,-.5v-.5Z" class="g2_1" />
<path fill-rule="evenodd" d="M522.3,713.6c-12.9,0,-23.5,10.4,-23.5,23.3v19.6h.2c-3.7,4.9,-5.8,11,-5.8,17.6c0,16.5,13.3,29.8,29.8,29.8c16.5,0,29.9,-13.3,29.9,-29.8c0,-7.4,-2.7,-14.1,-7,-19.3V736.9c0,-12.9,-10.7,-23.3,-23.6,-23.3Zm0,10.4c7.2,0,13,5.8,13,12.9v10c-3.8,-1.7,-7.9,-2.6,-12.3,-2.6c-4.9,0,-9.7,1.2,-13.8,3.3V736.9c0,-7.1,6,-12.9,13.1,-12.9Zm.7,34.2c8.7,0,15.8,7.2,15.8,15.9c0,8.7,-7.1,15.9,-15.8,15.9c-8.7,0,-15.8,-7.2,-15.8,-15.9c0,-8.7,7.1,-15.9,15.8,-15.9Zm0,2.7c-7.4,0,-13.2,5.8,-13.2,13.2c0,7.3,5.8,13.3,13.2,13.3c7.3,0,13.3,-6,13.3,-13.3c0,-7.4,-6,-13.2,-13.3,-13.2Z" class="g1_1" />
<path fill-rule="evenodd" d="M522.3,710.4c-12.9,0,-23.5,10.5,-23.5,23.5v19.5h.2c-3.7,4.9,-5.8,11,-5.8,17.6c0,16.5,13.3,29.8,29.8,29.8c16.5,0,29.9,-13.3,29.9,-29.8c0,-7.3,-2.7,-14,-7,-19.2V733.9c0,-13,-10.7,-23.5,-23.6,-23.5Zm0,10.5c7.2,0,13,5.8,13,13v9.9c-3.8,-1.7,-7.9,-2.6,-12.3,-2.6c-4.9,0,-9.7,1.2,-13.8,3.2V733.9c0,-7.2,6,-13,13.1,-13Zm.7,34.2c8.7,0,15.8,7.2,15.8,15.9c0,8.7,-7.1,15.7,-15.8,15.7c-8.7,0,-15.8,-7,-15.8,-15.7c0,-8.7,7.1,-15.9,15.8,-15.9Zm0,2.6c-7.4,0,-13.2,6,-13.2,13.3c0,7.3,5.8,13.2,13.2,13.2c7.3,0,13.3,-5.9,13.3,-13.2c0,-7.3,-6,-13.3,-13.3,-13.3Z" class="g5_1" />
<path fill-rule="evenodd" d="M94,398.4v22.9H67.8V530.5h65V504h12.8v26.5h13V504h12.8v26.5h65.4V421.3H210.2V398.4H94Zm12.9,11.9h12.9v11H106.9v-11Zm25.9,0h12.8v11H132.8v-11Zm25.8,0h12.8v11H158.6v-11Zm25.8,0h12.8v11H184.4v-11ZM81.1,433.7H94v11.1H81.1V433.7Zm25.8,0h12.9v11.1H106.9V433.7Zm25.9,0h12.8v11.1H132.8V433.7Zm25.8,0h12.8v11.1H158.6V433.7Zm25.8,0h12.8v11.1H184.4V433.7Zm25.8,0h12.9v11.1H210.2V433.7ZM81.1,457.2H94v11H81.1v-11Zm25.8,0h12.9v11H106.9v-11Zm77.5,0h12.8v11H184.4v-11Zm25.8,0h12.9v11H210.2v-11Zm-57.9,.6c8.9,0,16.2,7.2,16.2,16.1c0,8.8,-7.3,16.2,-16.2,16.2c-8.8,0,-16.2,-7.4,-16.2,-16.2c0,-8.9,7.4,-16.1,16.2,-16.1Zm-3.8,6.1V470h-6.3v7.7h6.3v6.2h7.6v-6.2h6.3V470h-6.3v-6.1h-7.6ZM81.1,480.6H94v11.1H81.1V480.6Zm25.8,0h12.9v11.1H106.9V480.6Zm77.5,0h12.8v11.1H184.4V480.6Zm25.8,0h12.9v11.1H210.2V480.6ZM81.1,504H94v11.1H81.1V504Zm25.8,0h12.9v11.1H106.9V504Zm77.5,0h12.8v11.1H184.4V504Zm25.8,0h12.9v11.1H210.2V504Z" class="g1_1" />
<path fill-rule="evenodd" d="M94,395.3v22.9H67.8V527.3h65V500.9h12.8v26.4h13V500.9h12.8v26.4h65.4V418.2H210.2V395.3H94Zm12.9,11.9h12.9v11H106.9v-11Zm25.9,0h12.8v11H132.8v-11Zm25.8,0h12.8v11H158.6v-11Zm25.8,0h12.8v11H184.4v-11ZM81.1,430.6H94v11.2H81.1V430.6Zm25.8,0h12.9v11.2H106.9V430.6Zm25.9,0h12.8v11.2H132.8V430.6Zm25.8,0h12.8v11.2H158.6V430.6Zm25.8,0h12.8v11.2H184.4V430.6Zm25.8,0h12.9v11.2H210.2V430.6ZM81.1,454.2H94v11H81.1v-11Zm25.8,0h12.9v11H106.9v-11Zm77.5,0h12.8v11H184.4v-11Zm25.8,0h12.9v11H210.2v-11Zm-57.9,.6c8.9,0,16.2,7.1,16.2,16c0,8.9,-7.3,16.2,-16.2,16.2c-8.8,0,-16.2,-7.3,-16.2,-16.2c0,-8.9,7.4,-16,16.2,-16Zm-3.8,5.9V467h-6.3v7.6h6.3v6.3h7.6v-6.3h6.3V467h-6.3v-6.3h-7.6ZM81.1,477.5H94v11H81.1v-11Zm25.8,0h12.9v11H106.9v-11Zm77.5,0h12.8v11H184.4v-11Zm25.8,0h12.9v11H210.2v-11ZM81.1,500.9H94v11.2H81.1V500.9Zm25.8,0h12.9v11.2H106.9V500.9Zm77.5,0h12.8v11.2H184.4V500.9Zm25.8,0h12.9v11.2H210.2V500.9Z" class="g6_1" />
<path fill-rule="evenodd" d="M612,648.6c-16.5,0,-33.1,1.9,-45.7,5.7c-25.2,7.6,-25.2,20,0,27.6c25.3,7.5,66.2,7.5,91.4,0c25.2,-7.6,25.2,-20,0,-27.6C645,650.5,628.5,648.6,612,648.6Zm-64.6,28.3V798.7c0,10.7,28.9,20.4,64.6,20.4c35.6,0,64.7,-9.7,64.7,-20.4V676.9C667.3,685,642,691,612,691c-29.9,0,-55.4,-6,-64.6,-14.1Z" class="g1_1" />
<path fill-rule="evenodd" d="M612,645.4c-16.5,0,-33.1,2,-45.7,5.8c-25.2,7.7,-25.2,20,0,27.5c25.3,7.7,66.2,7.7,91.4,0c25.2,-7.5,25.2,-19.8,0,-27.5C645,647.4,628.5,645.4,612,645.4Zm-64.6,28.4V795.5c0,10.8,28.9,20.6,64.6,20.6c35.6,0,64.7,-9.8,64.7,-20.6V673.8c-9.4,8.1,-34.7,13.9,-64.7,13.9c-29.9,0,-55.4,-5.8,-64.6,-13.9Z" class="g5_1" />
<path fill-rule="evenodd" d="M539.8,109.6c-2.2,0,-3.7,1.7,-3.7,3.7V220.7c0,2,1.5,3.7,3.7,3.7h65.4l-.2,.9l-2.9,14h-8.3v5.2H642v-5.2h-8.1l-2.9,-14l-.2,-.9h68.9c2,0,3.5,-1.7,3.5,-3.7V113.3c0,-2,-1.5,-3.7,-3.5,-3.7H539.8Zm79.9,3.4c.9,0,1.6,.8,1.6,1.7c0,.7,-.7,1.5,-1.6,1.5c-.9,0,-1.6,-.8,-1.6,-1.5c0,-.9,.7,-1.7,1.6,-1.7Zm-74,7.5H693.6v84.3H545.7V120.5Z" class="g1_1" />
<path fill-rule="evenodd" d="M539.8,106.6c-2.2,0,-3.7,1.7,-3.7,3.6V217.7c0,1.9,1.5,3.6,3.7,3.6h65.4l-.2,.9l-2.9,14.1h-8.3v5.2H642v-5.2h-8.1L631,222.2l-.2,-.9h68.9c2,0,3.5,-1.7,3.5,-3.6V110.2c0,-1.9,-1.5,-3.6,-3.5,-3.6H539.8Zm79.9,3.3c.9,0,1.6,.8,1.6,1.7c0,.8,-.7,1.6,-1.6,1.6c-.9,0,-1.6,-.8,-1.6,-1.6c0,-.9,.7,-1.7,1.6,-1.7Zm-74,7.5H693.6v84.4H545.7V117.4Z" class="g7_1" />
<path fill-rule="evenodd" d="M595.5,699.8c0,6,4,11.6,10.3,15c-6.3,3.4,-10.3,9,-10.3,15.1c0,6.1,4,11.6,10.3,15c-6.3,3.3,-10.3,9,-10.3,15.1c0,6.1,4,11.8,10.3,15.1c-6.3,3.4,-10.3,9.1,-10.3,15.2h4.6c0,-1.3,.2,-2.3,.6,-3.6h22.6c.3,1.3,.6,2.3,.6,3.6h4.6c0,-6.1,-3.9,-11.8,-10.4,-15.2c6.5,-3.3,10.4,-9,10.4,-15.1c0,-6.1,-3.9,-11.8,-10.4,-15.1c6.5,-3.4,10.4,-8.9,10.4,-15c0,-6.1,-3.9,-11.7,-10.4,-15.1c6.5,-3.4,10.4,-9,10.4,-15h-4.6c0,1.1,-.3,2.2,-.6,3.2H600.6c-.3,-1,-.5,-2.1,-.5,-3.2h-4.6Zm6.4,5.8H622c-2,3.1,-5.5,5.5,-10,6.9c-4.6,-1.4,-8.1,-3.8,-10.1,-6.9ZM612,717.2c4.5,1.3,8,3.9,10,6.8H601.9c2,-2.9,5.7,-5.5,10.1,-6.8Zm-11.4,9.5h22.7c.3,1.1,.6,2.1,.6,3.2c0,1.1,-.1,2.2,-.6,3.1H600.6c-.3,-.9,-.5,-2,-.5,-3.1c0,-1.1,.2,-2.1,.5,-3.2Zm1.3,9H622c-2,3.1,-5.5,5.5,-10,6.9c-4.6,-1.4,-8.1,-3.8,-10.1,-6.9ZM612,747.3c4.5,1.4,8,3.9,10,6.8H602.1c2,-2.9,5.5,-5.4,9.9,-6.8Zm-11.4,9.5h22.7c.3,.9,.6,2.1,.6,3.2c0,1.1,-.1,2.2,-.6,3.1H600.6c-.3,-.9,-.5,-2,-.5,-3.1c0,-1.1,.2,-2.3,.5,-3.2Zm1.3,9h20.2c-2,3.1,-5.6,5.5,-10.1,6.9c-4.6,-1.4,-8.1,-3.8,-10.1,-6.9ZM612,777.6c4.5,1.2,7.8,3.6,10,6.6H602.1c2,-3,5.5,-5.4,9.9,-6.6Z" class="g1_1" />
<path fill-rule="evenodd" d="M595.5,696.8c0,5.9,4,11.6,10.3,14.9c-6.3,3.4,-10.3,9,-10.3,15.2c0,6.1,4,11.6,10.3,14.9c-6.3,3.4,-10.3,9,-10.3,15.2c0,6.1,4,11.7,10.3,15.1c-6.3,3.3,-10.3,9,-10.3,15.1h4.6c0,-1.2,.2,-2.4,.6,-3.5h22.6c.3,1.1,.6,2.3,.6,3.5h4.6c0,-6.1,-3.9,-11.8,-10.4,-15.1c6.5,-3.4,10.4,-9,10.4,-15.1c0,-6.2,-3.9,-11.8,-10.4,-15.2c6.5,-3.3,10.4,-8.8,10.4,-14.9c0,-6.2,-3.9,-11.8,-10.4,-15.2c6.5,-3.3,10.4,-9,10.4,-14.9h-4.6c0,1,-.3,2.1,-.6,3.2H600.6c-.3,-1.1,-.5,-2.2,-.5,-3.2h-4.6Zm6.4,5.8H622c-2,3,-5.5,5.5,-10,6.8c-4.6,-1.3,-8.1,-3.8,-10.1,-6.8ZM612,714.2c4.5,1.2,8,3.6,10,6.7H601.9c2,-3.1,5.7,-5.5,10.1,-6.7Zm-11.4,9.5h22.7c.3,1,.6,1.9,.6,3.2c0,1,-.1,1.9,-.6,3H600.6c-.3,-1.1,-.5,-2,-.5,-3c0,-1.3,.2,-2.2,.5,-3.2Zm1.3,9H622c-2,3,-5.5,5.5,-10,6.8c-4.6,-1.3,-8.1,-3.8,-10.1,-6.8ZM612,744.3c4.5,1.4,8,3.6,10,6.7H602.1c2,-3.1,5.5,-5.3,9.9,-6.7Zm-11.4,9.4h22.7c.3,1,.6,2.2,.6,3.3c0,1,-.1,1.9,-.6,3H600.6c-.3,-1.1,-.5,-2,-.5,-3c0,-1.1,.2,-2.3,.5,-3.3Zm1.3,9.1h20.2c-2,3,-5.6,5.5,-10.1,6.8c-4.6,-1.3,-8.1,-3.8,-10.1,-6.8ZM612,774.5c4.5,1.2,7.8,3.5,10,6.6H602.1c2,-3.1,5.5,-5.4,9.9,-6.6Z" class="g8_1" />
<path d="M450.5,241L263.2,395" class="g9_1" />
<path fill-rule="evenodd" d="M246.7,408.6l10.4,-23.4l14.5,17.6l-24.9,5.8Z" class="g10_1" />
<text x="206" y="296" class="s1_1">1</text>
<path d="M614.6,611.5V255.7" class="g9_1" />
<path fill-rule="evenodd" d="M614.6,632.9L603.2,610h22.7l-11.3,22.9Z" class="g10_1" />
<path fill-rule="evenodd" d="M352.8,402.8c-3.2,0,-6,2.6,-6,6v43.5c0,3.2,2.8,6,6,6h73.3c3.2,0,6,-2.8,6,-6V408.8c0,-3.4,-2.8,-6,-6,-6H352.8ZM357,421h.7v4.6h-5.1v-.2c0,-2.4,2,-4.4,4.4,-4.4Zm1.9,0h6.7c2.4,0,4.4,2,4.4,4.4v.2H358.9V421Zm-6.3,5.8h5.1v4h-5.1v-4Zm6.3,0h4.6v4h-4.6v-4Zm5.9,0H370v4h-5.2v-4ZM352.6,432h5.1v4.4H357c-2.4,0,-4.4,-2,-4.4,-4.4Zm6.3,0h4.6v4.4h-4.6V432Zm5.9,0H370c0,2.4,-2,4.4,-4.4,4.4h-.8V432Zm-11.4,13h1.7c.3,0,.6,.1,.6,.6v3.2c0,.3,-.3,.5,-.6,.5h-1.7c-.3,0,-.6,-.2,-.6,-.5v-3.4c0,-.3,.3,-.4,.6,-.4Zm3.6,0h1.4v3.8h.6v-1.2c0,-.2,.2,-.3,.3,-.3c.2,0,.3,.1,.3,.3V449c0,.3,-.1,.3,-.3,.3H357c-.1,0,-.3,0,-.3,-.3c0,-.2,.2,-.2,.3,-.2h1v-3.4h-1c-.1,0,-.3,0,-.3,-.1c0,-.2,.2,-.3,.3,-.3Zm4.2,0H363c.3,0,.6,.1,.6,.6v1.2c0,.3,-.3,.6,-.6,.6h-1.7v1.4h2c.2,0,.3,0,.3,.2c0,.3,-.1,.3,-.3,.3h-2.4v-1.9c0,-.3,.1,-.6,.4,-.6H363v-1.4h-1.8q-.3,0,-.3,-.1c0,-.2,0,-.3,.3,-.3Zm3.9,0H367c.3,0,.4,.1,.4,.4v1.3c0,.1,0,.3,-.1,.4c.1,.2,.1,.3,.1,.6v1.1c0,.3,-.1,.5,-.4,.5h-1.9q-.3,0,-.3,-.3q0,-.2,.3,-.2H367v-1.1c0,-.1,-.2,-.3,-.3,-.3h-1.1c-.2,0,-.3,-.1,-.3,-.3c0,-.1,.1,-.3,.3,-.3h1.1c.1,0,.3,0,.3,-.3v-1.1h-1.9q-.3,0,-.3,-.1c0,-.2,0,-.3,.3,-.3Zm8,0c.1,0,.1,.1,.1,.3v2h1.3v-1.6c0,-.1,0,-.3,.3,-.3c.1,0,.1,.2,.1,.3v1.6q.3,.1,.3,.3c0,.1,-.1,.3,-.1,.3V449q-.2,.3,-.3,.3q-.3,0,-.3,-.3v-1.1h-1.7v-2.6c0,-.2,.1,-.3,.3,-.3Zm7.6,0h.3c.2,0,.3,.1,.3,.3c0,.1,-.1,.1,-.3,.1v1.9h1.9c.3,0,.3,.1,.3,.3V449q0,.3,-.3,.3h-2.2c-.1,0,-.3,0,-.3,-.3v-3.7c0,-.2,.2,-.3,.3,-.3Zm4,0h2.4v1.7q0,.1,0,.3l-.9,.6q-.1,.1,-.1,.3V449q0,.3,-.3,.3c-.2,0,-.3,0,-.3,-.3v-1.4c0,-.2,.1,-.2,.1,-.2l.9,-.7c0,-.2,.2,-.2,.2,-.3v-1H385c0,.3,-.2,.3,-.3,.3c-.2,0,-.3,-.1,-.3,-.3v-.1c0,-.2,.1,-.3,.3,-.3Zm8.2,0H394c.2,0,.3,.1,.3,.3v1.5c.3,.2,.6,.3,.6,.6v1.4c0,.3,-.3,.5,-.6,.5h-1.7c-.3,0,-.4,-.2,-.4,-.5v-1.4c0,-.3,.1,-.4,.4,-.6v-1.5c0,-.2,.2,-.3,.3,-.3Zm3.6,0h2.1c.2,0,.3,.1,.3,.3v3.8c0,.2,-.1,.2,-.3,.2h-.3c-.2,0,-.3,0,-.3,-.3c0,0,.1,-.2,.3,-.2V447h-1.8c-.3,0,-.3,-.2,-.3,-.3v-1.4c0,-.2,0,-.3,.3,-.3Zm4.1,0h1.7c.3,0,.6,.1,.6,.6v3.2c0,.3,-.3,.5,-.6,.5h-1.7c-.3,0,-.5,-.2,-.5,-.5v-3.4c0,-.3,.2,-.4,.5,-.4Zm3.8,0h1.4v3.8h.4v-1.2c0,-.2,.2,-.3,.3,-.3c.2,0,.3,.1,.3,.3V449c0,.3,-.1,.3,-.3,.3h-2.1c-.1,0,-.3,0,-.3,-.3c0,-.2,.2,-.2,.3,-.2h.8v-3.4h-.8c-.1,0,-.3,0,-.3,-.1c0,-.2,.2,-.3,.3,-.3Zm7.6,0h2c.3,0,.5,.1,.5,.6v1.2c0,.3,-.2,.6,-.5,.6h-1.7v1.4h1.9c.1,0,.3,0,.3,.2c0,.3,-.2,.3,-.3,.3h-2.5v-1.9c0,-.3,.3,-.6,.6,-.6H414v-1.4h-2c-.1,0,-.3,0,-.3,-.1c0,-.2,.2,-.3,.3,-.3Zm4,0h2c.3,0,.5,.1,.5,.4v1.3c0,.1,0,.3,-.2,.4c.2,.2,.2,.3,.2,.6v1.1c0,.3,-.2,.5,-.5,.5h-2c-.1,0,-.3,0,-.3,-.3c0,-.2,.2,-.2,.3,-.2h2v-1.1c0,-.1,-.2,-.3,-.3,-.3h-1.1c-.1,0,-.3,-.1,-.3,-.3c0,-.1,.2,-.3,.3,-.3h1.1q.1,0,.1,-.3v-1.1H416c-.1,0,-.3,0,-.3,-.1c0,-.2,.2,-.3,.3,-.3Zm4.3,0c.1,0,.3,.1,.3,.3v2h1.1v-1.6c0,-.1,.1,-.3,.3,-.3c.1,0,.3,.2,.3,.3v1.6q.1,.1,.1,.3c0,.1,0,.3,-.1,.3V449c0,.3,-.2,.3,-.3,.3c-.2,0,-.3,0,-.3,-.3v-1.1H420v-2.6c0,-.2,.1,-.3,.3,-.3Zm-43.2,0h1.8c.1,0,.3,.1,.3,.3c0,.1,-.2,.1,-.3,.1h-1.4v1.4h1.1c.4,0,.6,.3,.6,.6v1.4c0,.3,-.2,.5,-.6,.5h-1.2c0,0,-.3,0,-.3,0l-.3,-.2q-.4,-.1,-.4,-.3c0,-.1,.2,-.3,.4,-.3h.1v.2h.5q0,.1,0,.1h1.2v-1.4h-1.5V445Zm47.2,0h1.8c.3,0,.5,.1,.5,.3c0,.1,-.2,.1,-.5,.1h-1.2v1.4h1c.4,0,.7,.3,.7,.6v1.4c0,.3,-.3,.5,-.7,.5h-1.3c0,0,-.2,0,-.3,0l-.3,-.2c-.2,-.1,-.3,-.1,-.3,-.3c0,-.1,.1,-.3,.3,-.3c0,0,.1,0,.1,0l.2,.2h.3q0,.1,0,.1h1.3v-1.4h-1.6V445Zm-31.1,.4v1.4h.7v-1.4h-.7Zm-39.8,0v3.4h1.7v-3.4h-1.7Zm43.2,0v1h1.7v-1h-1.7Zm4,0v3.4h1.7v-3.4h-1.7Zm-8,2v1.4h1.7v-1.4h-1.7Zm-11.6,.5v.9h1.7v-.9H381Z" class="g1_1" />
<path fill-rule="evenodd" d="M352.8,399.8c-3.2,0,-6,2.6,-6,5.9v43.6c0,3.2,2.8,5.9,6,5.9h73.3c3.2,0,6,-2.7,6,-5.9V405.7c0,-3.3,-2.8,-5.9,-6,-5.9H352.8Zm4.2,18.1h.7v4.6h-5.1v-.1c0,-2.5,2,-4.5,4.4,-4.5Zm1.9,0h6.7c2.4,0,4.4,2,4.4,4.5v.1H358.9v-4.6Zm-6.3,5.8h5.1v4h-5.1v-4Zm6.3,0h4.6v4h-4.6v-4Zm5.9,0H370v4h-5.2v-4Zm-12.2,5.2h5.1v4.5H357c-2.4,0,-4.4,-2,-4.4,-4.5Zm6.3,0h4.6v4.5h-4.6v-4.5Zm5.9,0H370c0,2.5,-2,4.5,-4.4,4.5h-.8v-4.5Zm-11.4,13h1.7c.3,0,.6,.2,.6,.6v3.2c0,.4,-.3,.5,-.6,.5h-1.7c-.3,0,-.6,-.1,-.6,-.5v-3.3c0,-.3,.3,-.5,.6,-.5Zm3.6,0h1.4v3.8h.6v-1.2c0,-.1,.2,-.3,.3,-.3c.2,0,.3,.2,.3,.3v1.4c0,.2,-.1,.3,-.3,.3H357c-.1,0,-.3,-.1,-.3,-.3c0,-.2,.2,-.2,.3,-.2h1v-3.3h-1c-.1,0,-.3,0,-.3,-.2c0,-.3,.2,-.3,.3,-.3Zm4.2,0H363c.3,0,.6,.2,.6,.6v1.3c0,.3,-.3,.6,-.6,.6h-1.7v1.3h2c.2,0,.3,0,.3,.2c0,.2,-.1,.3,-.3,.3h-2.4v-1.8c0,-.3,.1,-.6,.4,-.6H363v-1.4h-1.8q-.3,0,-.3,-.2q0,-.3,.3,-.3Zm3.9,0H367c.3,0,.4,.2,.4,.5v1.2c0,.2,0,.3,-.1,.5c.1,.1,.1,.3,.1,.6v1c0,.4,-.1,.5,-.4,.5h-1.9c-.3,0,-.3,-.1,-.3,-.3q0,-.2,.3,-.2H367v-1c0,-.2,-.2,-.3,-.3,-.3h-1.1c-.2,0,-.3,-.2,-.3,-.3c0,-.2,.1,-.3,.3,-.3h1.1c.1,0,.3,0,.3,-.3v-1.1h-1.9q-.3,0,-.3,-.2q0,-.3,.3,-.3Zm8,0q.1,0,.1,.3v2h1.3v-1.5c0,-.2,0,-.3,.3,-.3c.1,0,.1,.1,.1,.3v1.5c.3,0,.3,.2,.3,.3c0,.2,-.1,.3,-.1,.3v1.1c-.2,.2,-.2,.3,-.3,.3c-.3,0,-.3,-.1,-.3,-.3v-1.1h-1.7v-2.6c0,-.3,.1,-.3,.3,-.3Zm7.6,0h.3c.2,0,.3,0,.3,.3c0,0,-.1,.2,-.3,.2v1.8h1.9c.3,0,.3,.2,.3,.3v1.4c0,.2,0,.3,-.3,.3h-2.2c-.1,0,-.3,-.1,-.3,-.3v-3.7c0,-.3,.2,-.3,.3,-.3Zm4,0h2.4v1.7q0,.2,0,.2l-.9,.7q-.1,.2,-.1,.3v1.1c0,.2,0,.3,-.3,.3c-.2,0,-.3,-.1,-.3,-.3v-1.4c0,-.1,.1,-.1,.1,-.1l.9,-.8c0,-.1,.2,-.1,.2,-.3v-.9H385c0,.1,-.2,.3,-.3,.3c-.2,0,-.3,-.2,-.3,-.3v-.2c0,-.3,.1,-.3,.3,-.3Zm8.2,0H394c.2,0,.3,0,.3,.3v1.6c.3,0,.6,.3,.6,.6v1.3c0,.4,-.3,.5,-.6,.5h-1.7c-.3,0,-.4,-.1,-.4,-.5v-1.3c0,-.3,.1,-.6,.4,-.6v-1.6c0,-.3,.2,-.3,.3,-.3Zm3.6,0h2.1c.2,0,.3,0,.3,.3v3.9c0,0,-.1,.1,-.3,.1h-.3c-.2,0,-.3,-.1,-.3,-.3c0,-.2,.1,-.2,.3,-.2v-1.8h-1.8c-.3,0,-.3,-.1,-.3,-.3v-1.4q0,-.3,.3,-.3Zm4.1,0h1.7c.3,0,.6,.2,.6,.6v3.2c0,.4,-.3,.5,-.6,.5h-1.7c-.3,0,-.5,-.1,-.5,-.5v-3.3c0,-.3,.2,-.5,.5,-.5Zm3.8,0h1.4v3.8h.4v-1.2c0,-.1,.2,-.3,.3,-.3c.2,0,.3,.2,.3,.3v1.4c0,.2,-.1,.3,-.3,.3h-2.1c-.1,0,-.3,-.1,-.3,-.3c0,-.2,.2,-.2,.3,-.2h.8v-3.3h-.8c-.1,0,-.3,0,-.3,-.2c0,-.3,.2,-.3,.3,-.3Zm7.6,0h2c.3,0,.5,.2,.5,.6v1.3c0,.3,-.2,.6,-.5,.6h-1.7v1.3h1.9c.1,0,.3,0,.3,.2c0,.2,-.2,.3,-.3,.3h-2.5v-1.8c0,-.3,.3,-.6,.6,-.6H414v-1.4h-2c-.1,0,-.3,0,-.3,-.2c0,-.3,.2,-.3,.3,-.3Zm4,0h2c.3,0,.5,.2,.5,.5v1.2c0,.2,0,.3,-.2,.5c.2,.1,.2,.3,.2,.6v1c0,.4,-.2,.5,-.5,.5h-2c-.1,0,-.3,-.1,-.3,-.3c0,-.2,.2,-.2,.3,-.2h2v-1c0,-.2,-.2,-.3,-.3,-.3h-1.1c-.1,0,-.3,-.2,-.3,-.3c0,-.2,.2,-.3,.3,-.3h1.1q.1,0,.1,-.3v-1.1H416c-.1,0,-.3,0,-.3,-.2c0,-.3,.2,-.3,.3,-.3Zm4.3,0c.1,0,.3,0,.3,.3v2h1.1v-1.5c0,-.2,.1,-.3,.3,-.3c.1,0,.3,.1,.3,.3v1.5c.1,0,.1,.2,.1,.3c0,.2,0,.3,-.1,.3v1.1c0,.2,-.2,.3,-.3,.3c-.2,0,-.3,-.1,-.3,-.3v-1.1H420v-2.6c0,-.3,.1,-.3,.3,-.3Zm-43.2,0h1.8c.1,0,.3,0,.3,.3c0,.2,-.2,.2,-.3,.2h-1.4v1.4h1.1c.4,0,.6,.3,.6,.6v1.3c0,.4,-.2,.5,-.6,.5h-1.2c0,0,-.3,0,-.3,0l-.3,-.1q-.4,-.2,-.4,-.4c0,-.1,.2,-.3,.4,-.3h.1l.3,.2h.2q0,.1,0,.1h1.2v-1.3h-1.5v-2.5Zm47.2,0h1.8c.3,0,.5,0,.5,.3c0,.2,-.2,.2,-.5,.2h-1.2v1.4h1c.4,0,.7,.3,.7,.6v1.3c0,.4,-.3,.5,-.7,.5h-1.3c0,0,-.2,0,-.3,0l-.3,-.1c-.2,-.2,-.3,-.2,-.3,-.4c0,-.1,.1,-.3,.3,-.3c0,0,.1,0,.1,0h.2l.3,.2q0,.1,0,.1h1.3v-1.3h-1.6v-2.5Zm-31.1,.5v1.4h.7v-1.4h-.7Zm-39.8,0v3.3h1.7v-3.3h-1.7Zm43.2,0v.9h1.7v-.9h-1.7Zm4,0v3.3h1.7v-3.3h-1.7Zm-8,2v1.3h1.7v-1.3h-1.7Zm-11.6,.4v.9h1.7v-.9H381Z" class="g11_1" />
<text x="315" y="442" class="s1_1">2</text>
<path fill-rule="evenodd" d="M534.1,234.8c8,6.7,11.2,16.3,12.7,24.6c1.5,8.2,.5,17.1,-6.6,21c-2.3,1.4,-4.7,1.9,-7.2,1.4H513.5l-20.2,-.4c-2.3,.4,-4.4,.1,-6.5,-1c-7.7,-3.5,-9.7,-12,-8.8,-20.4c1,-8.6,4.2,-18.2,12.3,-25.2c12.5,-11,31.3,-11,43.8,0Z" class="g1_1" />
<path fill-rule="evenodd" d="M534.1,231.6c8,6.8,11.2,16.5,12.7,24.7c1.5,8.3,.5,17.1,-6.6,21.1c-2.3,1.4,-4.7,1.8,-7.2,1.4H513.5l-20.2,-.5c-2.3,.5,-4.4,.2,-6.5,-.9c-7.7,-3.5,-9.7,-12.1,-8.8,-20.6c1,-8.4,4.2,-18.1,12.3,-25.2c12.5,-10.9,31.3,-10.9,43.8,0Z" class="g12_1" />
<path fill-rule="evenodd" d="M492.3,212.5l.1,-1.3v-.9l.2,-1.1l.1,-1l.3,-1.1l.3,-1.1l.3,-.9l.5,-1l.4,-1l.5,-.9l.6,-.9l.6,-.8l.6,-.9l.6,-.7l.8,-.8l.8,-.8l.7,-.7l1,-.6l.9,-.7l.7,-.6l1.1,-.4l.9,-.5l.9,-.4l1.1,-.3l1.1,-.4l.9,-.3l1.1,-.1l1,-.2h4.3l.9,.2l1.1,.1l1.1,.3l1,.4l1,.3l1,.4l.9,.5l1,.4l.9,.6l.7,.7l.9,.6l.8,.7l.8,.6l.7,1l.8,.7l.6,.8l.6,.9l.5,.9l.6,.9l.5,1l.3,1l.4,.9l.3,1.1l.2,1.1l.1,1l.2,1.1l.1,.9v2.3l-.1,.9l-.2,1.1l-.1,1.1l-.2,1.1l-.3,1l-.4,.9l-.3,1.1l-.5,.9l-.6,.9l-.5,1l-.6,.7l-.6,.9l-.8,.8l-.7,.8l-.6,.7l-1,.8l-.7,.6l-.9,.6l-.9,.6l-1,.5l-.9,.4l-1,.5l-1,.3l-1,.3l-1.1,.3l-1.1,.2l-.9,.1h-4.3l-.9,-.1l-1.1,-.2l-.9,-.3l-1,-.3l-1,-.3l-.9,-.5l-1,-.3l-1,-.4l-.7,-.6l-.9,-.5l-.8,-.8l-.8,-.6l-.7,-.6l-.8,-.7l-.8,-.8l-.6,-.8l-.6,-.7l-.6,-.9l-.5,-1l-.4,-.9l-.5,-.9l-.4,-.9l-.3,-1.1l-.3,-.9l-.2,-1.1l-.1,-.9l-.2,-1.1l-.1,-1v-.9Z" class="g1_1" />
<path fill-rule="evenodd" d="M492.3,210.6l.1,-1v-1l.2,-1l.1,-1.1l.3,-1.1l.3,-1l.3,-1l.5,-1l.4,-.9l.5,-1l.6,-.9l.6,-.7l.6,-1l.6,-.7l.8,-.8l.8,-.7l.7,-.8l1,-.6l.9,-.6l.7,-.6l1.1,-.5l.9,-.5l.9,-.4l1.1,-.3l1.1,-.3l.9,-.3l1.1,-.2l1,-.1h4.3l.9,.1l1.1,.2l1.1,.3l1,.3l1,.3l1,.4l.9,.5l1,.5l.9,.6l.7,.6l.9,.6l.8,.8l.8,.6l.7,.7l.8,.9l.6,.8l.6,.9l.5,.9l.6,1l.5,.9l.3,1l.4,1l.3,1l.2,1.1l.1,1.1l.2,1l.1,1v2.2l-.1,1l-.2,1l-.1,1.1l-.2,1.1l-.3,1l-.4,1l-.3,1l-.5,.9l-.6,1l-.5,.9l-.6,.7l-.6,1l-.8,.7l-.7,.8l-.6,.7l-1,.8l-.7,.6l-.9,.6l-.9,.6l-1,.5l-.9,.5l-1,.4l-1,.3l-1,.3l-1.1,.3l-1.1,.2l-.9,.1h-4.3l-.9,-.1l-1.1,-.2l-.9,-.3l-1,-.3l-1,-.3l-.9,-.4l-1,-.3l-1,-.5l-.7,-.6l-.9,-.5l-.8,-.7l-.8,-.6l-.7,-.7l-.8,-.7l-.8,-.8l-.6,-.7l-.6,-1l-.6,-.7l-.5,-.9l-.4,-1l-.5,-.9l-.4,-.9l-.3,-1.1l-.3,-.9l-.2,-1.1l-.1,-.9l-.2,-1l-.1,-1.1v-1.1Z" class="g10_1" />
<path d="M442.1,298L243.7,462.7" class="g13_1" />
<path fill-rule="evenodd" d="M458.5,284.4l-10.3,23.4L433.6,290.2l24.9,-5.8Z" class="g6_1" />
<path fill-rule="evenodd" d="M542.1,534.5c-2.5,0,-4.5,2,-4.5,4.4v31.8c0,2.5,2,4.5,4.5,4.5h53.6c2.4,0,4.4,-2,4.4,-4.5V538.9c0,-2.4,-2,-4.4,-4.4,-4.4H542.1Zm3,13.5h.5v3.2h-3.8c0,-1.9,1.5,-3.2,3.3,-3.2Zm1.4,0h4.9c1.8,0,3.3,1.3,3.3,3.2h-8.2V548Zm-4.7,4.1h3.8V555h-3.8v-2.9Zm4.7,0h3.3V555h-3.3v-2.9Zm4.3,0h3.9V555h-3.9v-2.9Zm-9,3.8h3.8v3.4h-.5c-1.8,0,-3.3,-1.6,-3.3,-3.2v-.2Zm4.7,0h3.3v3.4h-3.3v-3.4Zm4.3,0h3.9v.2c0,1.6,-1.5,3.2,-3.3,3.2h-.6v-3.4Zm-8.3,9.5h1.2c.2,0,.3,.3,.3,.4v2.5c0,.1,-.1,.3,-.3,.3h-1.3c-.2,0,-.3,-.2,-.3,-.3v-2.5c0,-.1,.1,-.4,.4,-.4Zm2.8,0h.9v2.9h.4v-.9c0,0,0,-.2,.2,-.2c.1,0,.1,.2,.1,.2v1q0,.2,-.1,.2h-1.5c-.2,0,-.3,0,-.3,-.2c0,-.1,.1,-.1,.3,-.1h.4v-2.5h-.4c-.2,0,-.3,0,-.3,-.1c0,-.2,.1,-.3,.3,-.3Zm2.9,0h1.3c.2,0,.3,.3,.3,.4v.9c0,.4,-.1,.5,-.3,.5h-1.2v1.1h1.4q.1,0,.1,.1q0,.2,-.1,.2h-1.8v-1.4c0,-.1,.1,-.5,.4,-.5h1.2v-.9h-1.3c-.2,0,-.3,0,-.3,-.1c0,-.2,.1,-.3,.3,-.3Zm2.9,0h1.3c.2,0,.3,.1,.3,.4v.9c0,0,0,.2,0,.4c0,.1,0,.3,0,.4v.8c0,.1,-.1,.3,-.3,.3h-1.3c-.2,0,-.3,0,-.3,-.2c0,-.1,.1,-.1,.3,-.1h1.3v-.8c0,-.1,-.1,-.3,-.3,-.3h-.7c0,0,-.2,0,-.2,-.1c0,-.2,.2,-.2,.2,-.2h.7c.2,0,.3,-.2,.3,-.3v-.8h-1.3c-.2,0,-.3,0,-.3,-.1c0,-.2,.1,-.3,.3,-.3Zm5.8,0c.1,0,.1,.1,.1,.3v1.5h.9V566q0,-.2,.2,-.2q.1,0,.1,.2v1.2c.2,0,.4,0,.4,.2c0,.1,-.2,.3,-.4,.3v.7q0,.2,-.1,.2q-.2,0,-.2,-.2v-.7h-1.2v-2c0,-.2,0,-.3,.2,-.3Zm5.6,0h.2c.1,0,.1,.1,.1,.3q0,.1,-.1,.1v1.4h1.4c.1,0,.3,0,.3,.2v1c0,.2,-.2,.2,-.3,.2h-1.6q-.1,0,-.1,-.2v-2.7c0,-.2,0,-.3,.1,-.3Zm2.9,0h1.9v1.3l-.2,.2l-.6,.5q0,.1,0,.3v.7c0,.2,-.2,.2,-.3,.2q-.2,0,-.2,-.2v-1.2l.8,-.5q0,-.1,0,-.3v-.6h-1.2q0,.2,-.2,.2c-.1,0,-.3,0,-.3,-.2v-.1c0,-.2,.2,-.3,.3,-.3Zm6.1,0h.8c.2,0,.2,.1,.2,.3v1.2c.3,0,.4,.2,.4,.3v.9c0,.3,-.1,.5,-.4,.5h-1.3c-.1,0,-.3,-.2,-.3,-.3v-1.1c0,-.1,.2,-.3,.3,-.3v-1.2c0,-.2,.2,-.3,.3,-.3Zm2.5,0h1.7c0,0,.1,.1,.1,.3v2.7c0,.2,-.1,.2,-.1,.2h-.3c0,0,-.2,0,-.2,-.2c0,-.1,.2,-.1,.2,-.1v-1.4H574c-.2,0,-.2,-.2,-.2,-.2v-1c0,-.2,0,-.3,.2,-.3Zm3,0h1.3c.3,0,.4,.3,.4,.4v2.5c0,.1,-.1,.3,-.4,.3H577c-.1,0,-.3,-.2,-.3,-.3v-2.5c0,-.1,.2,-.4,.3,-.4Zm2.8,0h1.1v2.9h.4v-.9c0,0,0,-.2,.2,-.2c.1,0,.1,.2,.1,.2v1q0,.2,-.1,.2h-1.7q-.2,0,-.2,-.2q0,-.1,.2,-.1h.6v-2.5h-.6q-.2,0,-.2,-.1c0,-.2,0,-.3,.2,-.3Zm5.6,0H587c.1,0,.3,.3,.3,.4v.9c0,.4,-.2,.5,-.3,.5h-1.3v1.1h1.4c0,0,.2,0,.2,.1c0,.2,-.2,.2,-.2,.2h-1.8v-1.4c0,-.1,.1,-.5,.4,-.5H587v-.9h-1.6c0,0,-.1,0,-.1,-.1c0,-.2,.1,-.3,.1,-.3Zm2.9,0h1.6c.1,0,.3,.1,.3,.4v.9c0,0,0,.2,-.2,.4c.2,.1,.2,.3,.2,.4v.8c0,.1,-.2,.3,-.3,.3h-1.6c0,0,-.1,0,-.1,-.2c0,-.1,.1,-.1,.1,-.1h1.6v-.8c0,-.1,-.2,-.3,-.3,-.3h-.8q-.1,0,-.1,-.1q0,-.2,.1,-.2h.8c.1,0,.3,-.2,.3,-.3v-.8h-1.6c0,0,-.1,0,-.1,-.1c0,-.2,.1,-.3,.1,-.3Zm3.3,0c.1,0,.1,.1,.1,.3v1.5h.8V566c0,-.2,.1,-.2,.3,-.2q.1,0,.1,.2v1.2q.2,0,.2,.2c0,.1,0,.3,-.2,.3v.7q0,.2,-.1,.2c-.2,0,-.3,0,-.3,-.2v-.7h-1.2v-2c0,-.2,.1,-.3,.3,-.3Zm-31.8,0h1.4c.1,0,.3,.1,.3,.3c0,.1,-.2,.1,-.3,.1h-1v1.1h.8c.2,0,.5,.2,.5,.3v.9c0,.3,-.3,.5,-.5,.5h-.9q-.2,0,-.3,0l-.2,-.2c-.1,0,-.3,0,-.3,-.1c0,-.2,.2,-.2,.3,-.2h.3l.2,.2h.9v-1.1h-1.2v-1.8Zm34.7,0h1.3c.2,0,.3,.1,.3,.3c0,.1,-.1,.1,-.3,.1h-.9v1.1h.8c.1,0,.4,.2,.4,.3v.9c0,.3,-.3,.5,-.4,.5h-.9c-.2,0,-.3,0,-.3,0l-.3,-.2c0,0,-.2,0,-.2,-.1c0,-.2,.2,-.2,.2,-.2q.1,0,.1,0h.5v.2h.9v-1.1h-1.2v-1.8Zm-22.8,.4v1.1h.5v-1.1h-.5Zm-29.2,0v2.5h1.2v-2.5h-1.2Zm31.6,0v.6h1.3v-.6h-1.3Zm2.9,0v2.5h1.3v-2.5H577Zm-5.8,1.4v1.1h1.3v-1.1h-1.3Zm-8.5,.5v.4h1.2v-.4h-1.2Z" class="g1_1" />
<path fill-rule="evenodd" d="M542.1,531.5c-2.5,0,-4.5,1.9,-4.5,4.4v31.8c0,2.4,2,4.4,4.5,4.4h53.6c2.4,0,4.4,-2,4.4,-4.4V535.9c0,-2.5,-2,-4.4,-4.4,-4.4H542.1Zm3,13.2h.5v3.4h-3.8c0,-1.8,1.5,-3.4,3.3,-3.4Zm1.4,0h4.9c1.8,0,3.3,1.6,3.3,3.4h-8.2v-3.4Zm-4.7,4.3h3.8v2.9h-3.8V549Zm4.7,0h3.3v2.9h-3.3V549Zm4.3,0h3.9v2.9h-3.9V549Zm-9,3.8h3.8v3.4h-.5c-1.8,0,-3.3,-1.5,-3.3,-3.4Zm4.7,0h3.3v3.4h-3.3v-3.4Zm4.3,0h3.9c0,1.9,-1.5,3.4,-3.3,3.4h-.6v-3.4Zm-8.3,9.5h1.2c.2,0,.3,.3,.3,.5v2.4c0,.2,-.1,.3,-.3,.3h-1.3c-.2,0,-.3,-.1,-.3,-.3v-2.4c0,-.2,.1,-.5,.4,-.5Zm2.8,0h.9v2.9h.4v-.9q0,-.1,.2,-.1q.1,0,.1,.1v1.1q0,.1,-.1,.1h-1.5c-.2,0,-.3,0,-.3,-.1c0,-.2,.1,-.2,.3,-.2h.4v-2.4h-.4c-.2,0,-.3,-.2,-.3,-.2c0,-.1,.1,-.3,.3,-.3Zm2.9,0h1.3c.2,0,.3,.3,.3,.5v.9c0,.3,-.1,.5,-.3,.5h-1.2v1h1.4q.1,0,.1,.2q0,.1,-.1,.1h-1.8v-1.3c0,-.4,.1,-.5,.4,-.5h1.2v-.9h-1.3c-.2,0,-.3,-.2,-.3,-.2c0,-.1,.1,-.3,.3,-.3Zm2.9,0h1.3c.2,0,.3,.2,.3,.3v.9c0,.2,0,.3,0,.5q0,.2,0,.5v.7c0,.2,-.1,.3,-.3,.3h-1.3c-.2,0,-.3,0,-.3,-.1c0,-.2,.1,-.2,.3,-.2h1.3v-.7c0,-.2,-.1,-.3,-.3,-.3h-.7c0,0,-.2,0,-.2,-.2c0,-.2,.2,-.2,.2,-.2h.7c.2,0,.3,-.1,.3,-.3v-.7h-1.3c-.2,0,-.3,-.2,-.3,-.2c0,-.1,.1,-.3,.3,-.3Zm5.8,0c.1,0,.1,.2,.1,.3v1.6h.9v-1.3c0,-.1,0,-.3,.2,-.3c.1,0,.1,.2,.1,.3v1.3c.2,0,.4,0,.4,.1c0,.2,-.2,.2,-.4,.2v.9q0,.1,-.1,.1q-.2,0,-.2,-.1v-.9h-1.2v-1.9c0,-.1,0,-.3,.2,-.3Zm5.6,0h.2c.1,0,.1,.2,.1,.3c0,0,0,.2,-.1,.2v1.4h1.4c.1,0,.3,0,.3,.1v1.1c0,.1,-.2,.1,-.3,.1h-1.6q-.1,0,-.1,-.1v-2.8c0,-.1,0,-.3,.1,-.3Zm2.9,0h1.9v1.2q0,.2,-.2,.3l-.6,.5q0,.2,0,.2v.9c0,.1,-.2,.1,-.3,.1q-.2,0,-.2,-.1v-1.1c0,0,0,-.1,0,-.1l.8,-.7v-.7h-1.2q0,.1,-.2,.1c-.1,0,-.3,0,-.3,-.1v-.2c0,-.1,.2,-.3,.3,-.3Zm6.1,0h.8c.2,0,.2,.2,.2,.3v1.2c.3,0,.4,.2,.4,.4v.9c0,.3,-.1,.4,-.4,.4h-1.3c-.1,0,-.3,-.1,-.3,-.3v-1c0,-.2,.2,-.4,.3,-.4v-1.2c0,-.1,.2,-.3,.3,-.3Zm2.5,0h1.7c0,0,.1,.2,.1,.3v2.8c0,.1,-.1,.1,-.1,.1h-.3c0,0,-.2,0,-.2,-.1c0,-.2,.2,-.2,.2,-.2v-1.4H574c-.2,0,-.2,-.1,-.2,-.3v-.9c0,-.1,0,-.3,.2,-.3Zm3,0h1.3c.3,0,.4,.3,.4,.5v2.4c0,.2,-.1,.3,-.4,.3H577c-.1,0,-.3,-.1,-.3,-.3v-2.4c0,-.2,.2,-.5,.3,-.5Zm2.8,0h1.1v2.9h.4v-.9q0,-.1,.2,-.1q.1,0,.1,.1v1.1q0,.1,-.1,.1h-1.7q-.2,0,-.2,-.1q0,-.2,.2,-.2h.6v-2.4h-.6c-.2,0,-.2,-.2,-.2,-.2c0,-.1,0,-.3,.2,-.3Zm5.6,0H587c.1,0,.3,.3,.3,.5v.9c0,.3,-.2,.5,-.3,.5h-1.3v1h1.4c0,0,.2,0,.2,.2c0,.1,-.2,.1,-.2,.1h-1.8v-1.3c0,-.4,.1,-.5,.4,-.5H587v-.9h-1.6c0,0,-.1,-.2,-.1,-.2c0,-.1,.1,-.3,.1,-.3Zm2.9,0h1.6c.1,0,.3,.2,.3,.3v.9c0,.2,0,.3,-.2,.5q.2,.2,.2,.5v.7c0,.2,-.2,.3,-.3,.3h-1.6c0,0,-.1,0,-.1,-.1c0,-.2,.1,-.2,.1,-.2h1.6v-.7c0,-.2,-.2,-.3,-.3,-.3h-.8q-.1,0,-.1,-.2q0,-.2,.1,-.2h.8c.1,0,.3,-.1,.3,-.3v-.7h-1.6c0,0,-.1,-.2,-.1,-.2c0,-.1,.1,-.3,.1,-.3Zm3.3,0c.1,0,.1,.2,.1,.3v1.6h.8v-1.3c0,-.1,.1,-.3,.3,-.3c.1,0,.1,.2,.1,.3v1.3q.2,0,.2,.1q0,.2,-.2,.2v.9q0,.1,-.1,.1c-.2,0,-.3,0,-.3,-.1v-.9h-1.2v-1.9c0,-.1,.1,-.3,.3,-.3Zm-31.8,0h1.4c.1,0,.3,.2,.3,.3c0,0,-.2,.2,-.3,.2h-1v1h.8c.2,0,.5,.2,.5,.4v.9c0,.3,-.3,.4,-.5,.4h-.9q-.2,0,-.3,0l-.2,-.1c-.1,0,-.3,-.2,-.3,-.2c0,-.1,.2,-.1,.3,-.1h.3l.2,.1h.9v-1h-1.2v-1.9Zm34.7,0h1.3c.2,0,.3,.2,.3,.3c0,0,-.1,.2,-.3,.2h-.9v1h.8c.1,0,.4,.2,.4,.4v.9c0,.3,-.3,.4,-.4,.4h-.9c-.2,0,-.3,0,-.3,0l-.3,-.1c0,0,-.2,-.2,-.2,-.2c0,-.1,.2,-.1,.2,-.1q.1,0,.1,0h.5v.1h.9v-1h-1.2v-1.9Zm-22.8,.5v1h.5v-1h-.5Zm-29.2,0v2.4h1.2v-2.4h-1.2Zm31.6,0v.6h1.3v-.6h-1.3Zm2.9,0v2.4h1.3v-2.4H577Zm-5.8,1.4v1h1.3v-1h-1.3Zm-8.5,.3v.6h1.2v-.6h-1.2Z" class="g11_1" />
<text x="492" y="566" class="s1_1">3</text>
<path d="M1232.9,673.7l-212,-163.9" class="g14_1" />
<path fill-rule="evenodd" d="M1003.9,496.8l25.1,4.9l-13.9,18.1l-11.2,-23Z" class="g15_1" />
<path fill-rule="evenodd" d="M1128.7,536c-2.3,0,-4.1,1.9,-4.1,4.2v30.5c0,2.3,1.8,4.1,4.1,4.1h51.4c2.2,0,4.1,-1.8,4.1,-4.1V540.2c0,-2.3,-1.9,-4.2,-4.1,-4.2h-51.4Zm2.9,12.9h.5v3h-3.5c0,-1.7,1.3,-3,3,-3Zm1.4,0h4.7c1.7,0,3.1,1.3,3.1,3H1133v-3Zm-4.4,3.9h3.5v2.8h-3.5v-2.8Zm4.4,0h3.2v2.8H1133v-2.8Zm4.1,0h3.7v2.8h-3.7v-2.8Zm-8.5,3.7h3.5v3.1h-.5c-1.7,0,-3,-1.4,-3,-3.1Zm4.4,0h3.2v3.1H1133v-3.1Zm4.1,0h3.7c0,1.7,-1.4,3.1,-3.1,3.1h-.6v-3.1Zm-7.9,9h1c.4,0,.5,.3,.5,.5v2.3c0,.1,-.1,.3,-.5,.3H1129c-.1,0,-.3,-.2,-.3,-.3V566c0,-.2,.2,-.5,.5,-.5Zm2.6,0h.9v2.8h.5v-.8c0,-.1,0,-.3,.1,-.3c.2,0,.2,.2,.2,.3v.9q0,.2,-.2,.2h-1.5c-.2,0,-.3,0,-.3,-.2c0,-.1,.1,-.1,.3,-.1h.4V566h-.4c-.2,0,-.3,-.2,-.3,-.2c0,-.1,.1,-.3,.3,-.3Zm2.7,0h1.4c.2,0,.3,.2,.3,.5v.9c0,.2,-.1,.5,-.3,.5h-1.2v.9h1.4q.1,0,.1,.1q0,.2,-.1,.2h-1.7v-1.2c0,-.3,.1,-.5,.3,-.5h1.2V566h-1.4c-.1,0,-.1,-.2,-.1,-.2c0,-.1,0,-.3,.1,-.3Zm2.8,0h1.4c.1,0,.3,.2,.3,.3v.9c0,.2,0,.4,0,.4c0,.1,0,.3,0,.4v.8c0,.1,0,.3,-.3,.3h-1.4q-.2,0,-.2,-.2q0,-.1,.2,-.1h1.4v-.8q0,-.1,-.2,-.1h-.8c-.1,0,-.3,-.2,-.3,-.3c0,0,.2,-.2,.3,-.2h.8c.2,0,.2,-.2,.2,-.2V566h-1.4c-.2,0,-.2,-.2,-.2,-.2c0,-.1,0,-.3,.2,-.3Zm5.6,0c0,0,.2,.2,.2,.3v1.4h.7v-1.1c0,-.1,.2,-.3,.2,-.3c.2,0,.3,.2,.3,.3v1.1c.2,0,.2,.2,.2,.2c0,.1,-.2,.3,-.2,.3v.7c0,.2,-.1,.2,-.3,.2c0,0,-.2,0,-.2,-.2v-.7h-1.2v-1.9c0,-.1,.2,-.3,.3,-.3Zm5.4,0h.1c.2,0,.3,.2,.3,.3c0,0,-.1,.2,-.3,.2v1.2h1.4c.2,0,.2,.2,.2,.2v1q0,.2,-.2,.2h-1.5q-.2,0,-.2,-.2v-2.6c0,-.1,0,-.3,.2,-.3Zm2.7,0h1.9v1.2c0,0,0,.2,-.2,.2l-.6,.6v.9c0,.2,-.2,.2,-.3,.2c0,0,-.2,0,-.2,-.2v-1l.7,-.7c.1,0,.1,-.1,.1,-.1V566h-1.1q-.1,.1,-.3,.1c0,0,-.1,-.1,-.1,-.1v-.2c0,-.1,0,-.3,.1,-.3Zm5.8,0h.8c.1,0,.1,.2,.1,.3v1.1c.4,0,.5,.2,.5,.5v.9c0,.1,-.1,.3,-.5,.3h-1c-.3,0,-.5,-.2,-.5,-.3v-.9c0,-.3,.2,-.5,.5,-.5v-1.1c0,-.1,0,-.3,.1,-.3Zm2.5,0h1.5c.2,0,.2,.2,.2,.3v2.6q0,.2,-.2,.2h-.1c-.2,0,-.4,0,-.4,-.2c0,-.1,.2,-.1,.4,-.1v-1.2h-1.4c-.2,0,-.2,-.2,-.2,-.4v-.9c0,-.1,0,-.3,.2,-.3Zm2.9,0h1.2c.2,0,.5,.3,.5,.5v2.3c0,.1,-.3,.3,-.5,.3h-1.2c-.2,0,-.3,-.2,-.3,-.3V566c0,-.2,.1,-.5,.3,-.5Zm2.7,0h.9v2.8h.4v-.8c0,-.1,.1,-.3,.3,-.3c0,0,.1,.2,.1,.3v.9c0,.2,-.1,.2,-.1,.2h-1.6q-.3,0,-.3,-.2q0,-.1,.3,-.1h.5V566h-.5c-.3,0,-.3,-.2,-.3,-.2c0,-.1,0,-.3,.3,-.3Zm5.4,0h1.4c.1,0,.3,.2,.3,.5v.9c0,.2,-.2,.5,-.3,.5h-1.3v.9h1.4q.2,0,.2,.1q0,.2,-.2,.2H1170v-1.2c0,-.3,.1,-.5,.4,-.5h1.3V566h-1.4c-.2,0,-.3,-.2,-.3,-.2c0,-.1,.1,-.3,.3,-.3Zm2.7,0h1.4c.2,0,.3,.2,.3,.3v.9c0,.2,0,.4,-.1,.4c.1,.1,.1,.3,.1,.4v.8c0,.1,-.1,.3,-.3,.3H1173q-.1,0,-.1,-.2q0,-.1,.1,-.1h1.4v-.8c0,-.1,-.2,-.1,-.3,-.1h-.8c0,0,-.1,-.2,-.1,-.3c0,0,.1,-.2,.1,-.2h.8c.1,0,.3,-.2,.3,-.2V566H1173c-.1,0,-.1,-.2,-.1,-.2c0,-.1,0,-.3,.1,-.3Zm2.9,0c.2,0,.3,.2,.3,.3v1.4h.8v-1.1c0,-.1,0,-.3,.2,-.3c.1,0,.1,.2,.1,.3v1.1c.2,0,.3,.2,.3,.2c0,.1,-.1,.3,-.1,.3h-.2v.7q0,.2,-.1,.2q-.2,0,-.2,-.2v-.7h-1.2v-1.9c0,-.1,.1,-.3,.1,-.3Zm-30.2,0h1.4c0,0,.1,.2,.1,.3c0,0,-.1,.2,-.1,.2h-1v.9h.6c.4,0,.5,.2,.5,.5v.9c0,.1,-.1,.3,-.5,.3h-.7q-.2,0,-.3,0l-.2,-.2q-.1,0,-.1,-.1q0,-.2,.1,-.2h.3q0,.2,0,.2h.9v-.9h-1v-1.9Zm33.1,0h1.3c.1,0,.3,.2,.3,.3c0,0,-.2,.2,-.3,.2h-1v.9h.8c.3,0,.5,.2,.5,.5v.9c0,.1,-.2,.3,-.5,.3h-.9c0,0,-.2,0,-.2,0l-.3,-.2q-.1,0,-.1,-.1c0,-.2,.1,-.2,.1,-.2c0,0,.2,0,.2,0h.3q0,.2,0,.2h.9v-.9h-1.1v-1.9ZM1157,566v.9h.4V566h-.4Zm-27.8,0v2.3h1V566h-1Zm30.2,0v.6h1.3V566h-1.3Zm2.8,0v2.3h1.2V566h-1.2Zm-5.5,1.4v.9h1v-.9h-1Zm-8.3,.3v.6h1.3v-.6h-1.3Z" class="g1_1" />
<path fill-rule="evenodd" d="M1128.7,533c-2.3,0,-4.1,1.8,-4.1,4.1v30.6c0,2.3,1.8,4.1,4.1,4.1h51.4c2.2,0,4.1,-1.8,4.1,-4.1V537.1c0,-2.3,-1.9,-4.1,-4.1,-4.1h-51.4Zm2.9,12.8h.5v3.1h-3.5c0,-1.7,1.3,-3.1,3,-3.1Zm1.4,0h4.7c1.7,0,3.1,1.4,3.1,3.1H1133v-3.1Zm-4.4,4h3.5v2.7h-3.5v-2.7Zm4.4,0h3.2v2.7H1133v-2.7Zm4.1,0h3.7v2.7h-3.7v-2.7Zm-8.5,3.7h3.5v3h-.5c-1.7,0,-3,-1.4,-3,-3Zm4.4,0h3.2v3H1133v-3Zm4.1,0h3.7c0,1.6,-1.4,3,-3.1,3h-.6v-3Zm-7.9,9h1c.4,0,.5,.1,.5,.4v2.3c0,.2,-.1,.3,-.5,.3H1129c-.1,0,-.3,-.1,-.3,-.3v-2.3c0,-.3,.2,-.4,.5,-.4Zm2.6,0h.9v2.7h.5v-.7c0,-.2,0,-.3,.1,-.3c.2,0,.2,.1,.2,.3v.9q0,.1,-.2,.1h-1.5c-.2,0,-.3,0,-.3,-.1c0,-.2,.1,-.2,.3,-.2h.4v-2.3h-.4c-.2,0,-.3,-.1,-.3,-.3c0,0,.1,-.1,.3,-.1Zm2.7,0h1.4c.2,0,.3,.1,.3,.4v.9c0,.2,-.1,.4,-.3,.4h-1.2v1h1.4q.1,0,.1,.2q0,.1,-.1,.1h-1.7v-1.3c0,-.2,.1,-.4,.3,-.4h1.2v-.9h-1.4c-.1,0,-.1,-.1,-.1,-.3c0,0,0,-.1,.1,-.1Zm2.8,0h1.4c.1,0,.3,.1,.3,.3v.9q0,.1,0,.3c0,.2,0,.3,0,.5v.7c0,.2,0,.3,-.3,.3h-1.4q-.2,0,-.2,-.1q0,-.2,.2,-.2h1.4v-.7c0,-.2,0,-.3,-.2,-.3h-.8c-.1,0,-.3,0,-.3,-.2c0,-.2,.2,-.2,.3,-.2h.8c.2,0,.2,-.1,.2,-.3v-.6h-1.4c-.2,0,-.2,-.1,-.2,-.3c0,0,0,-.1,.2,-.1Zm5.6,0c0,0,.2,.1,.2,.1v1.6h.7v-1.1c0,-.2,.2,-.3,.2,-.3c.2,0,.3,.1,.3,.3v1.1q.2,0,.2,.1c0,.2,-.2,.3,-.2,.3v.8c0,.1,-.1,.1,-.3,.1c0,0,-.2,0,-.2,-.1v-.8h-1.2v-1.8c0,-.2,.2,-.3,.3,-.3Zm5.4,0h.1c.2,0,.3,.1,.3,.1c0,.2,-.1,.3,-.3,.3v1.3h1.4q.2,0,.2,.1v1.1q0,.1,-.2,.1h-1.5q-.2,0,-.2,-.1v-2.8c0,0,0,-.1,.2,-.1Zm2.7,0h1.9v1.2c0,0,0,.1,-.2,.1l-.6,.7v.9c0,.1,-.2,.1,-.3,.1c0,0,-.2,0,-.2,-.1v-1.2l.7,-.5q.1,-.2,.1,-.2v-.6h-1.1c-.1,0,-.1,.2,-.3,.2c0,0,-.1,-.2,-.1,-.2v-.1c0,-.2,0,-.3,.1,-.3Zm5.8,0h.8c.1,0,.1,.1,.1,.1v1.2c.4,0,.5,.2,.5,.5v.9c0,.2,-.1,.3,-.5,.3h-1c-.3,0,-.5,-.1,-.5,-.3v-1c0,-.2,.2,-.4,.5,-.4v-1.2c0,0,0,-.1,.1,-.1Zm2.5,0h1.5c.2,0,.2,.1,.2,.1v2.8q0,.1,-.2,.1h-.1c-.2,0,-.4,0,-.4,-.1c0,-.2,.2,-.2,.4,-.2v-1.4h-1.4q-.2,0,-.2,-.1v-1.1c0,0,0,-.1,.2,-.1Zm2.9,0h1.2c.2,0,.5,.1,.5,.4v2.3c0,.2,-.3,.3,-.5,.3h-1.2c-.2,0,-.3,-.1,-.3,-.3v-2.3c0,-.3,.1,-.4,.3,-.4Zm2.7,0h.9v2.7h.4v-.7c0,-.2,.1,-.3,.3,-.3c0,0,.1,.1,.1,.3v.9c0,.1,-.1,.1,-.1,.1h-1.6q-.3,0,-.3,-.1q0,-.2,.3,-.2h.5v-2.3h-.5c-.3,0,-.3,-.1,-.3,-.3c0,0,0,-.1,.3,-.1Zm5.4,0h1.4c.1,0,.3,.1,.3,.4v.9c0,.2,-.2,.4,-.3,.4h-1.3v1h1.4q.2,0,.2,.2q0,.1,-.2,.1H1170v-1.3c0,-.2,.1,-.4,.4,-.4h1.3v-.9h-1.4c-.2,0,-.3,-.1,-.3,-.3c0,0,.1,-.1,.3,-.1Zm2.7,0h1.4c.2,0,.3,.1,.3,.3v.9q0,.1,-.1,.3c.1,.2,.1,.3,.1,.5v.7c0,.2,-.1,.3,-.3,.3H1173q-.1,0,-.1,-.1q0,-.2,.1,-.2h1.4v-.7c0,-.2,-.2,-.3,-.3,-.3h-.8c0,0,-.1,0,-.1,-.2c0,-.2,.1,-.2,.1,-.2h.8c.1,0,.3,-.1,.3,-.3v-.6H1173c-.1,0,-.1,-.1,-.1,-.3c0,0,0,-.1,.1,-.1Zm2.9,0c.2,0,.3,.1,.3,.1v1.6h.8v-1.1c0,-.2,0,-.3,.2,-.3c.1,0,.1,.1,.1,.3v1.1c.2,0,.3,0,.3,.1c0,.2,-.1,.3,-.1,.3h-.2v.8q0,.1,-.1,.1q-.2,0,-.2,-.1v-.8h-1.2v-1.8c0,-.2,.1,-.3,.1,-.3Zm-30.2,0h1.4c0,0,.1,.1,.1,.1c0,.2,-.1,.3,-.1,.3h-1v.9h.6c.4,0,.5,.2,.5,.4v1c0,.2,-.1,.3,-.5,.3h-.7q-.2,0,-.3,0l-.2,-.1c-.1,0,-.1,-.2,-.1,-.2q0,-.1,.1,-.1h.3q0,.1,0,.1h.9v-1h-1v-1.7Zm33.1,0h1.3c.1,0,.3,.1,.3,.1c0,.2,-.2,.3,-.3,.3h-1v.9h.8c.3,0,.5,.2,.5,.4v1c0,.2,-.2,.3,-.5,.3h-.9c0,0,-.2,0,-.2,0l-.3,-.1c-.1,0,-.1,-.2,-.1,-.2c0,-.1,.1,-.1,.1,-.1c0,0,.2,0,.2,0h.3q0,.1,0,.1h.9v-1h-1.1v-1.7Zm-21.8,.4v.9h.4v-.9h-.4Zm-27.8,0v2.3h1v-2.3h-1Zm30.2,0v.6h1.3v-.6h-1.3Zm2.8,0v2.3h1.2v-2.3h-1.2Zm-5.5,1.3v1h1v-1h-1Zm-8.3,.3v.7h1.3v-.7h-1.3Z" class="g11_1" />
<text x="1183" y="567" class="s2_1">?</text>
<path d="M1205.1,714.5L965.6,532.2" class="g13_1" />
<path fill-rule="evenodd" d="M1222.1,727.5L1197,722.6l13.9,-18.2l11.2,23.1Z" class="g6_1" />
<path fill-rule="evenodd" d="M1521.8,682.1c-.3,0,-.4,0,-.7,.1c-.7,.7,-1.4,1.7,-1.3,3.6c.3,3.2,2.9,4.1,1.1,7.4c0,0,-1.4,-.3,-4.4,.4c-2.5,.4,-3.5,.1,-4.6,.7c-1.8,.9,-1.2,3.4,.6,4.1c-1.5,1.1,-2,3.6,.8,4.5c-1.6,1.7,-1.7,3.6,.7,4.3c-1.5,1.6,-.1,3.6,1.6,3.6c12.9,0,10.8,-.9,14.8,-.9c4.4,0,7.5,1.8,7.5,1.8V698.3c0,0,-3.9,-1.1,-6.3,-2.5c-1.1,-.4,-2.1,-1.2,-3.2,-4.7c-.9,-3.4,-3.4,-3.7,-4.1,-5c-.5,-.6,-1.3,-2.5,-1.7,-3.5c-.2,-.4,-.5,-.5,-.8,-.5Z" class="g1_1" />
<path fill-rule="evenodd" d="M1521.8,679c-.3,0,-.4,0,-.7,.2c-.7,.6,-1.4,1.7,-1.3,3.5c.3,3.1,2.9,4.1,1.1,7.5c0,0,-1.4,-.3,-4.4,.3c-2.5,.5,-3.5,.2,-4.6,.8c-1.8,.9,-1.2,3.3,.6,4.1c-1.5,1.1,-2,3.3,.8,4.4c-1.6,1.7,-1.7,3.7,.7,4.3c-1.5,1.7,-.1,3.7,1.6,3.7c12.9,0,10.8,-1,14.8,-1c4.4,0,7.5,1.7,7.5,1.7V695.2c0,0,-3.9,-1,-6.3,-2.4c-1.1,-.5,-2.1,-1.2,-3.2,-4.7c-.9,-3.4,-3.4,-3.7,-4.1,-5.1c-.5,-.8,-1.3,-2.4,-1.7,-3.5c-.2,-.3,-.5,-.5,-.8,-.5Z" class="g8_1" />
<path fill-rule="evenodd" d="M1244.8,713.6c-12.8,0,-23.3,10.4,-23.3,23.3v19.6c-3.6,4.9,-5.7,11,-5.7,17.6c0,16.5,13.3,29.8,29.8,29.8c16.5,0,29.9,-13.3,29.9,-29.8c0,-7.4,-2.7,-14.1,-7.1,-19.3V736.9c0,-12.9,-10.6,-23.3,-23.6,-23.3Zm0,10.4c7.4,0,13.2,5.8,13.2,12.9v10c-3.8,-1.7,-8,-2.6,-12.4,-2.6c-4.9,0,-9.6,1.2,-13.8,3.3V736.9c0,-7.1,5.9,-12.9,13,-12.9Zm.8,34.2c8.7,0,15.9,7.2,15.9,15.9c0,8.7,-7.2,15.9,-15.9,15.9c-8.7,0,-15.7,-7.2,-15.7,-15.9c0,-8.7,7,-15.9,15.7,-15.9Zm0,2.7c-7.3,0,-13.1,5.8,-13.1,13.2c0,7.3,5.8,13.3,13.1,13.3c7.3,0,13.3,-6,13.3,-13.3c0,-7.4,-6,-13.2,-13.3,-13.2Z" class="g1_1" />
<path fill-rule="evenodd" d="M1244.8,710.4c-12.8,0,-23.3,10.5,-23.3,23.5v19.5c-3.6,4.9,-5.7,11,-5.7,17.6c0,16.5,13.3,29.8,29.8,29.8c16.5,0,29.9,-13.3,29.9,-29.8c0,-7.3,-2.7,-14,-7.1,-19.2V733.9c0,-13,-10.6,-23.5,-23.6,-23.5Zm0,10.5c7.4,0,13.2,5.8,13.2,13v9.9c-3.8,-1.7,-8,-2.6,-12.4,-2.6c-4.9,0,-9.6,1.2,-13.8,3.2V733.9c0,-7.2,5.9,-13,13,-13Zm.8,34.2c8.7,0,15.9,7.2,15.9,15.9c0,8.7,-7.2,15.7,-15.9,15.7c-8.7,0,-15.7,-7,-15.7,-15.7c0,-8.7,7,-15.9,15.7,-15.9Zm0,2.6c-7.3,0,-13.1,6,-13.1,13.3c0,7.3,5.8,13.2,13.1,13.2c7.3,0,13.3,-5.9,13.3,-13.2c0,-7.3,-6,-13.3,-13.3,-13.3Z" class="g5_1" />
<path fill-rule="evenodd" d="M1334.7,648.6c-16.5,0,-33.2,1.9,-45.7,5.7c-25.2,7.6,-25.2,20,0,27.6c25.2,7.5,66.1,7.5,91.3,0c25.3,-7.6,25.3,-20,0,-27.6c-12.6,-3.8,-29.1,-5.7,-45.6,-5.7ZM1270,676.9V798.7c0,10.7,28.9,20.4,64.7,20.4c35.6,0,64.4,-9.7,64.4,-20.4V676.9C1390,685,1364.6,691,1334.7,691c-30,0,-55.5,-6,-64.7,-14.1Z" class="g1_1" />
<path fill-rule="evenodd" d="M1334.7,645.4c-16.5,0,-33.2,2,-45.7,5.8c-25.2,7.7,-25.2,20,0,27.5c25.2,7.7,66.1,7.7,91.3,0c25.3,-7.5,25.3,-19.8,0,-27.5c-12.6,-3.8,-29.1,-5.8,-45.6,-5.8ZM1270,673.8V795.5c0,10.8,28.9,20.6,64.7,20.6c35.6,0,64.4,-9.8,64.4,-20.6V673.8c-9.1,8.1,-34.5,13.9,-64.4,13.9c-30,0,-55.5,-5.8,-64.7,-13.9Z" class="g5_1" />
<path fill-rule="evenodd" d="M1262.3,109.6c-2,0,-3.6,1.7,-3.6,3.7V220.7c0,2,1.6,3.7,3.6,3.7h65.5l-.2,.9l-2.9,14h-8.2v5.2h48.1v-5.2h-8.2l-2.8,-14l-.1,-.9h68.9c1.9,0,3.5,-1.7,3.5,-3.7V113.3c0,-2,-1.6,-3.7,-3.5,-3.7H1262.3Zm80,3.4c.9,0,1.5,.8,1.5,1.7c0,.7,-.6,1.5,-1.5,1.5c-.9,0,-1.7,-.8,-1.7,-1.5c0,-.9,.8,-1.7,1.7,-1.7Zm-73.9,7.5h147.9v84.3H1268.4V120.5Z" class="g1_1" />
<path fill-rule="evenodd" d="M1262.3,106.6c-2,0,-3.6,1.7,-3.6,3.6V217.7c0,1.9,1.6,3.6,3.6,3.6h65.5l-.2,.9l-2.9,14.1h-8.2v5.2h48.1v-5.2h-8.2l-2.8,-14.1l-.1,-.9h68.9c1.9,0,3.5,-1.7,3.5,-3.6V110.2c0,-1.9,-1.6,-3.6,-3.5,-3.6H1262.3Zm80,3.3c.9,0,1.5,.8,1.5,1.7c0,.8,-.6,1.6,-1.5,1.6c-.9,0,-1.7,-.8,-1.7,-1.6c0,-.9,.8,-1.7,1.7,-1.7Zm-73.9,7.5h147.9v84.4H1268.4V117.4Z" class="g7_1" />
<path fill-rule="evenodd" d="M1318.2,699.8c0,6,3.9,11.6,10.2,15c-6.3,3.4,-10.2,9,-10.2,15.1c0,6.1,3.9,11.6,10.2,15c-6.3,3.3,-10.2,9,-10.2,15.1c0,6.1,3.9,11.8,10.2,15.1c-6.3,3.4,-10.2,9.1,-10.2,15.2h4.5c0,-1.3,.2,-2.3,.7,-3.6H1346c.3,1.3,.6,2.3,.6,3.6h4.6c0,-6.1,-4.2,-11.8,-10.4,-15.2c6.2,-3.3,10.4,-9,10.4,-15.1c0,-6.1,-4,-11.8,-10.4,-15.1c6.4,-3.4,10.4,-8.9,10.4,-15c0,-6.1,-4,-11.7,-10.4,-15.1c6.4,-3.4,10.4,-9,10.4,-15h-4.6c0,1.1,-.3,2.2,-.6,3.2h-22.8c-.3,-1,-.5,-2.1,-.5,-3.2h-4.5Zm6.4,5.8h20c-2,3.1,-5.5,5.5,-9.9,6.9c-4.6,-1.4,-8.1,-3.8,-10.1,-6.9Zm10.1,11.6c4.4,1.3,7.9,3.9,9.9,6.8h-20c2,-2.9,5.6,-5.5,10.1,-6.8Zm-11.5,9.5H1346c.3,1.1,.6,2.1,.6,3.2c0,1.1,-.2,2.2,-.6,3.1h-22.8c-.3,-.9,-.5,-2,-.5,-3.1c0,-1.1,.2,-2.1,.5,-3.2Zm1.4,9h20c-2,3.1,-5.5,5.5,-9.9,6.9c-4.6,-1.4,-8.1,-3.8,-10.1,-6.9Zm10.1,11.6c4.2,1.4,7.8,3.9,9.9,6.8h-19.9c2,-2.9,5.5,-5.4,10,-6.8Zm-11.5,9.5H1346c.3,.9,.6,2.1,.6,3.2c0,1.1,-.2,2.2,-.6,3.1h-22.8c-.3,-.9,-.5,-2,-.5,-3.1c0,-1.1,.2,-2.3,.5,-3.2Zm1.2,9h20.4c-2,3.1,-5.7,5.5,-10.1,6.9c-4.6,-1.4,-8.1,-3.8,-10.3,-6.9Zm10.3,11.8c4.2,1.2,7.8,3.6,9.7,6.6h-19.7c2,-3,5.5,-5.4,10,-6.6Z" class="g1_1" />
<path fill-rule="evenodd" d="M1318.2,696.8c0,5.9,3.9,11.6,10.2,14.9c-6.3,3.4,-10.2,9,-10.2,15.2c0,6.1,3.9,11.6,10.2,14.9c-6.3,3.4,-10.2,9,-10.2,15.2c0,6.1,3.9,11.7,10.2,15.1c-6.3,3.3,-10.2,9,-10.2,15.1h4.5c0,-1.2,.2,-2.4,.7,-3.5H1346c.3,1.1,.6,2.3,.6,3.5h4.6c0,-6.1,-4.2,-11.8,-10.4,-15.1c6.2,-3.4,10.4,-9,10.4,-15.1c0,-6.2,-4,-11.8,-10.4,-15.2c6.4,-3.3,10.4,-8.8,10.4,-14.9c0,-6.2,-4,-11.8,-10.4,-15.2c6.4,-3.3,10.4,-9,10.4,-14.9h-4.6c0,1,-.3,2.1,-.6,3.2h-22.8c-.3,-1.1,-.5,-2.2,-.5,-3.2h-4.5Zm6.4,5.8h20c-2,3,-5.5,5.5,-9.9,6.8c-4.6,-1.3,-8.1,-3.8,-10.1,-6.8Zm10.1,11.6c4.4,1.2,7.9,3.6,9.9,6.7h-20c2,-3.1,5.6,-5.5,10.1,-6.7Zm-11.5,9.5H1346c.3,1,.6,1.9,.6,3.2c0,1,-.2,1.9,-.6,3h-22.8c-.3,-1.1,-.5,-2,-.5,-3c0,-1.3,.2,-2.2,.5,-3.2Zm1.4,9h20c-2,3,-5.5,5.5,-9.9,6.8c-4.6,-1.3,-8.1,-3.8,-10.1,-6.8Zm10.1,11.6c4.2,1.4,7.8,3.6,9.9,6.7h-19.9c2,-3.1,5.5,-5.3,10,-6.7Zm-11.5,9.4H1346c.3,1,.6,2.2,.6,3.3c0,1,-.2,1.9,-.6,3h-22.8c-.3,-1.1,-.5,-2,-.5,-3c0,-1.1,.2,-2.3,.5,-3.3Zm1.2,9.1h20.4c-2,3,-5.7,5.5,-10.1,6.8c-4.6,-1.3,-8.1,-3.8,-10.3,-6.8Zm10.3,11.7c4.2,1.2,7.8,3.5,9.7,6.6h-19.7c2,-3.1,5.5,-5.4,10,-6.6Z" class="g8_1" />
<path fill-rule="evenodd" d="M1256.7,234.8c8,6.7,11.2,16.3,12.7,24.6c1.6,8.2,.5,17.1,-6.5,21c-2.3,1.4,-4.8,1.9,-7.4,1.4h-19.4l-20.1,-.4c-2.3,.4,-4.5,.1,-6.6,-1c-7.7,-3.5,-9.6,-12,-8.7,-20.4c.9,-8.6,4.1,-18.2,12.2,-25.2c12.5,-11,31.3,-11,43.8,0Z" class="g1_1" />
<path fill-rule="evenodd" d="M1256.7,231.6c8,6.8,11.2,16.5,12.7,24.7c1.6,8.3,.5,17.1,-6.5,21.1c-2.3,1.4,-4.8,1.8,-7.4,1.4h-19.4l-20.1,-.5c-2.3,.5,-4.5,.2,-6.6,-.9c-7.7,-3.5,-9.6,-12.1,-8.7,-20.6c.9,-8.4,4.1,-18.1,12.2,-25.2c12.5,-10.9,31.3,-10.9,43.8,0Z" class="g12_1" />
<path fill-rule="evenodd" d="M1214.9,212.5l.1,-1.3v-.9l.2,-1.1l.1,-1l.4,-1.1l.3,-1.1l.3,-.9l.4,-1l.5,-1l.4,-.9l.7,-.9l.6,-.8l.6,-.9l.6,-.7l.7,-.8l.8,-.8l.8,-.7l.9,-.6l.9,-.7l.8,-.6l1,-.4l1,-.5l.9,-.4l1,-.3l1,-.4l1,-.3l1.1,-.1l1.1,-.2h4.2l1,.2l1,.1l1.1,.3l1.1,.4l.9,.3l1.1,.4l.9,.5l.9,.4l.9,.6l.8,.7l.9,.6l.8,.7l.7,.6l.8,1l.7,.7l.7,.8l.6,.9l.4,.9l.6,.9l.5,1l.3,1l.5,.9l.3,1.1l.1,1.1l.2,1l.1,1.1l.2,.9v2.3l-.2,.9l-.1,1.1l-.2,1.1l-.1,1.1l-.3,1l-.5,.9l-.3,1.1l-.5,.9l-.6,.9l-.4,1l-.6,.7l-.7,.9l-.7,.8l-.8,.8l-.7,.7l-.8,.8l-.8,.6l-.9,.6l-.9,.6l-.9,.5l-.9,.4l-1.1,.5l-.9,.3l-1.1,.3l-1.1,.3l-1,.2l-1,.1h-4.2l-.9,-.1l-1.1,-.2l-.9,-.3l-1.1,-.3l-.9,-.3l-.9,-.5l-1.1,-.3l-.9,-.4l-.8,-.6l-.9,-.5l-.8,-.8l-.7,-.6l-.9,-.6l-.7,-.7l-.7,-.8l-.6,-.8l-.6,-.7l-.7,-.9l-.4,-1l-.5,-.9l-.4,-.9l-.5,-.9l-.3,-1.1l-.3,-.9l-.2,-1.1l-.1,-.9l-.2,-1.1l-.1,-1v-.9Z" class="g1_1" />
<path fill-rule="evenodd" d="M1214.9,210.6l.1,-1v-1l.2,-1l.1,-1.1l.4,-1.1l.3,-1l.3,-1l.4,-1l.5,-.9l.4,-1l.7,-.9l.6,-.7l.6,-1l.6,-.7l.7,-.8l.8,-.7l.8,-.8l.9,-.6l.9,-.6l.8,-.6l1,-.5l1,-.5l.9,-.4l1,-.3l1,-.3l1,-.3l1.1,-.2l1.1,-.1h4.2l1,.1l1,.2l1.1,.3l1.1,.3l.9,.3l1.1,.4l.9,.5l.9,.5l.9,.6l.8,.6l.9,.6l.8,.8l.7,.6l.8,.7l.7,.9l.7,.8l.6,.9l.4,.9l.6,1l.5,.9l.3,1l.5,1l.3,1l.1,1.1l.2,1.1l.1,1l.2,1v2.2l-.2,1l-.1,1l-.2,1.1l-.1,1.1l-.3,1l-.5,1l-.3,1l-.5,.9l-.6,1l-.4,.9l-.6,.7l-.7,1l-.7,.7l-.8,.8l-.7,.7l-.8,.8l-.8,.6l-.9,.6l-.9,.6l-.9,.5l-.9,.5l-1.1,.4l-.9,.3l-1.1,.3l-1.1,.3l-1,.2l-1,.1h-4.2l-.9,-.1l-1.1,-.2l-.9,-.3l-1.1,-.3l-.9,-.3l-.9,-.4l-1.1,-.3l-.9,-.5l-.8,-.6l-.9,-.5l-.8,-.7l-.7,-.6l-.9,-.7l-.7,-.7l-.7,-.8l-.6,-.7l-.6,-1l-.7,-.7l-.4,-.9l-.5,-1l-.4,-.9l-.5,-.9l-.3,-1.1l-.3,-.9l-.2,-1.1l-.1,-.9l-.2,-1l-.1,-1.1v-1.1Z" class="g10_1" />
<path d="M776.1,722.4v-522" class="g16_1" />
<text x="1091" y="545" class="s1_1">4</text>
<text x="997" y="642" class="s1_1">5</text>
<path d="M1369.3,276.3V632.1" class="g14_1" />
<path fill-rule="evenodd" d="M1369.3,254.9l11.5,22.9H1358l11.3,-22.9Z" class="g15_1" />
<path fill-rule="evenodd" d="M1328.1,440.4c0,5.7,3.7,11,9.8,14.2c-6.1,3.2,-9.8,8.4,-9.8,14.2c0,5.8,3.7,11.2,9.8,14.2c-6.1,3.2,-9.8,8.6,-9.8,14.2c0,5.8,3.8,11.2,9.8,14.4c-6,3.2,-9.8,8.6,-9.8,14.2h4.3c0,-1.1,.1,-2.1,.6,-3.2h21.4c.3,1.1,.6,2.1,.6,3.2h4.3c0,-5.6,-3.9,-11,-9.8,-14.2c5.9,-3.2,9.8,-8.6,9.8,-14.4c0,-5.6,-3.9,-11,-9.8,-14.2c5.9,-3,9.8,-8.4,9.8,-14.2c0,-5.8,-3.9,-11,-9.8,-14.2c5.9,-3.2,9.8,-8.5,9.8,-14.2H1355c0,1.1,-.3,2,-.6,3.1h-21.6c-.3,-1.1,-.4,-2,-.4,-3.1h-4.3Zm6.1,5.5h19c-2,2.9,-5.2,5.2,-9.5,6.4c-4.3,-1.2,-7.7,-3.5,-9.5,-6.4Zm9.5,11c4.3,1.2,7.5,3.5,9.5,6.3h-19c1.8,-2.8,5.2,-5.1,9.5,-6.3Zm-10.9,8.9h21.6c.3,1,.6,1.9,.6,3c0,.9,-.2,2,-.6,2.9h-21.6c-.3,-.9,-.4,-2,-.4,-2.9c0,-1.1,.1,-2,.4,-3Zm1.4,8.5h19c-1.9,2.9,-5.2,5.2,-9.5,6.4c-4.3,-1.2,-7.7,-3.5,-9.5,-6.4Zm9.5,11c4.1,1.2,7.5,3.5,9.5,6.3h-19c2,-2.8,5.4,-5.1,9.5,-6.3Zm-10.7,8.9h21.4c.3,1,.6,2.1,.6,3c0,1.1,-.2,2,-.5,2.9h-21.7c-.3,-.9,-.4,-1.8,-.4,-2.9c0,-.9,.1,-2,.6,-3Zm1.1,8.5h19.1c-1.9,2.9,-5.2,5.2,-9.5,6.6c-4.3,-1.4,-7.7,-3.7,-9.6,-6.6Zm9.6,11.2c4.1,1.2,7.5,3.3,9.3,6.1h-18.6c1.8,-2.8,5.2,-4.9,9.3,-6.1Z" class="g1_1" />
<path fill-rule="evenodd" d="M1328.1,437.3c0,5.7,3.7,11,9.8,14.3c-6.1,3.2,-9.8,8.4,-9.8,14.2c0,5.8,3.7,11,9.8,14.2c-6.1,3.2,-9.8,8.5,-9.8,14.2c0,5.8,3.8,11.1,9.8,14.3c-6,3.2,-9.8,8.4,-9.8,14.2h4.3c0,-1,.1,-2.1,.6,-3.2h21.4c.3,1.1,.6,2.2,.6,3.2h4.3c0,-5.8,-3.9,-11,-9.8,-14.2c5.9,-3.2,9.8,-8.5,9.8,-14.3c0,-5.7,-3.9,-11,-9.8,-14.2c5.9,-3.2,9.8,-8.4,9.8,-14.2c0,-5.8,-3.9,-11,-9.8,-14.2c5.9,-3.3,9.8,-8.6,9.8,-14.3H1355c0,1,-.3,2,-.6,2.9h-21.6c-.3,-.9,-.4,-1.9,-.4,-2.9h-4.3Zm6.1,5.5h19c-2,2.9,-5.2,5.2,-9.5,6.5c-4.3,-1.3,-7.7,-3.6,-9.5,-6.5Zm9.5,11c4.3,1.3,7.5,3.6,9.5,6.3h-19c1.8,-2.7,5.2,-5,9.5,-6.3Zm-10.9,8.9h21.6c.3,.9,.6,2,.6,3.1c0,.9,-.2,1.9,-.6,2.9h-21.6c-.3,-1,-.4,-2,-.4,-2.9c0,-1.1,.1,-2.2,.4,-3.1Zm1.4,8.6h19c-1.9,2.9,-5.2,5.2,-9.5,6.4c-4.3,-1.2,-7.7,-3.5,-9.5,-6.4Zm9.5,11c4.1,1.2,7.5,3.5,9.5,6.2h-19c2,-2.7,5.4,-5,9.5,-6.2Zm-10.7,8.8h21.4c.3,1.1,.6,2.2,.6,3.1c0,1,-.2,2,-.5,2.9h-21.7c-.3,-.9,-.4,-1.9,-.4,-2.9c0,-.9,.1,-2,.6,-3.1Zm1.1,8.6h19.1c-1.9,2.9,-5.2,5.2,-9.5,6.5c-4.3,-1.3,-7.7,-3.6,-9.6,-6.5Zm9.6,11.1c4.1,1.3,7.5,3.4,9.3,6.1h-18.6c1.8,-2.7,5.2,-4.8,9.3,-6.1Z" class="g8_1" />
<text x="1291" y="494" class="s1_1">6</text>
<path fill-rule="evenodd" d="M847.8,398.4v22.9H821.6V530.5h65V504h12.8v26.5h13V504h12.8v26.5h65.4V421.3H964V398.4H847.8Zm13,11.9h12.8v11H860.8v-11Zm25.8,0h12.8v11H886.6v-11Zm25.8,0h12.8v11H912.4v-11Zm25.8,0H951v11H938.2v-11ZM834.9,433.7h12.9v11.1H834.9V433.7Zm25.9,0h12.8v11.1H860.8V433.7Zm25.8,0h12.8v11.1H886.6V433.7Zm25.8,0h12.8v11.1H912.4V433.7Zm25.8,0H951v11.1H938.2V433.7Zm25.8,0h12.9v11.1H964V433.7ZM834.9,457.2h12.9v11H834.9v-11Zm25.9,0h12.8v11H860.8v-11Zm77.4,0H951v11H938.2v-11Zm25.8,0h12.9v11H964v-11Zm-57.9,.6c8.9,0,16.2,7.2,16.2,16.1c0,8.8,-7.3,16.2,-16.2,16.2c-8.8,0,-16.2,-7.4,-16.2,-16.2c0,-8.9,7.4,-16.1,16.2,-16.1Zm-3.8,6.1V470H896v7.7h6.3v6.2h7.6v-6.2h6.3V470h-6.3v-6.1h-7.6Zm-67.4,16.7h12.9v11.1H834.9V480.6Zm25.9,0h12.8v11.1H860.8V480.6Zm77.4,0H951v11.1H938.2V480.6Zm25.8,0h12.9v11.1H964V480.6ZM834.9,504h12.9v11.1H834.9V504Zm25.9,0h12.8v11.1H860.8V504Zm77.4,0H951v11.1H938.2V504Zm25.8,0h12.9v11.1H964V504Z" class="g1_1" />
<path fill-rule="evenodd" d="M847.8,395.3v22.9H821.6V527.3h65V500.9h12.8v26.4h13V500.9h12.8v26.4h65.4V418.2H964V395.3H847.8Zm13,11.9h12.8v11H860.8v-11Zm25.8,0h12.8v11H886.6v-11Zm25.8,0h12.8v11H912.4v-11Zm25.8,0H951v11H938.2v-11ZM834.9,430.6h12.9v11.2H834.9V430.6Zm25.9,0h12.8v11.2H860.8V430.6Zm25.8,0h12.8v11.2H886.6V430.6Zm25.8,0h12.8v11.2H912.4V430.6Zm25.8,0H951v11.2H938.2V430.6Zm25.8,0h12.9v11.2H964V430.6ZM834.9,454.2h12.9v11H834.9v-11Zm25.9,0h12.8v11H860.8v-11Zm77.4,0H951v11H938.2v-11Zm25.8,0h12.9v11H964v-11Zm-57.9,.6c8.9,0,16.2,7.1,16.2,16c0,8.9,-7.3,16.2,-16.2,16.2c-8.8,0,-16.2,-7.3,-16.2,-16.2c0,-8.9,7.4,-16,16.2,-16Zm-3.8,5.9V467H896v7.6h6.3v6.3h7.6v-6.3h6.3V467h-6.3v-6.3h-7.6Zm-67.4,16.8h12.9v11H834.9v-11Zm25.9,0h12.8v11H860.8v-11Zm77.4,0H951v11H938.2v-11Zm25.8,0h12.9v11H964v-11ZM834.9,500.9h12.9v11.2H834.9V500.9Zm25.9,0h12.8v11.2H860.8V500.9Zm77.4,0H951v11.2H938.2V500.9Zm25.8,0h12.9v11.2H964V500.9Z" class="g6_1" />
<text x="186" y="932" dx="0,0,0,-0.1,0,0.1,-0.1,0,0,0,-0.1,0.1,0,0,0,0,0,-0.1,-0.8,0" class="s1_1">Sending the ID token</text>
<text x="929" y="927" dx="0,-2.1,0,0.1,0.1,0,0,0,0.1,-0.1,0,0,-0.2,0.1,0,0,-0.1,-0.8,0,-0.1" class="s1_1">Validating ID token,</text>
<text x="897" y="971" dx="0,0.1,0,0.1,0,0,0.1,-0.1,0,0,0,-0.1,0,0,-0.1,0.1,0.1,-0.1,0,0,0.1,-0.1" class="s1_1">Deciding Authorization</text>
<path fill-rule="evenodd" d="M1470.9,687.3c-1.3,0,-2.4,1.1,-2.4,2.4v18.2c0,1.4,1.1,2.5,2.4,2.5h30.4c1.4,0,2.6,-1.1,2.6,-2.5V689.7c0,-1.3,-1.2,-2.4,-2.6,-2.4h-30.4Zm1.7,7.6h.3v1.9h-2.1c0,-1.1,.9,-1.9,1.8,-1.9Zm.9,0h2.8c.9,0,1.8,.8,1.8,1.9h-4.6v-1.9Zm-2.7,2.3h2.1v1.7h-2.1v-1.7Zm2.7,0h1.9v1.7h-1.9v-1.7Zm2.3,0h2.3v1.7h-2.3v-1.7Zm-5,2.2h2.1v1.9h-.3c-.9,0,-1.8,-.9,-1.8,-1.8v-.1Zm2.7,0h1.9v1.9h-1.9v-1.9Zm2.3,0h2.3v.1c0,.9,-.9,1.8,-1.8,1.8h-.5v-1.9Zm-4.7,5.5h.8c.1,0,.3,0,.3,.1v1.4c0,.1,-.2,.1,-.3,.1h-.8c0,0,-.2,0,-.2,-.1V705c0,-.1,.2,-.1,.2,-.1Zm1.5,0h.6v1.5h.3v-.5c0,0,0,-.1,0,-.1c.2,0,.2,.1,.2,.1v.6h-1.1q0,-.1,0,-.1h.5V705h-.5v-.1Zm1.9,0h.7q.2,0,.2,.1v.6q0,.2,-.2,.2h-.7v.6h.7q.2,0,.2,.1h-1.1v-.7q0,-.2,.2,-.2h.7V705h-.7q-.2,0,-.2,-.1h.2Zm1.5,0h.7c.2,0,.4,0,.4,.1v.5q0,.1,-.2,.3c.2,0,.2,.1,.2,.1v.5c0,.1,-.2,.1,-.4,.1h-.7c0,0,-.2,0,-.2,0c0,-.1,.2,-.1,.2,-.1h.7v-.5c0,0,0,-.1,0,-.1h-.4q-.2,0,-.2,0q0,-.2,.2,-.2h.4V705h-.7c0,0,-.2,0,-.2,-.1c0,0,.2,0,.2,0Zm3.3,0c0,0,.2,0,.2,.1v.8h.5v-.6c0,0,0,-.2,0,-.2c.1,0,.1,.2,.1,.2v.6q.2,0,.2,.1c0,0,0,.2,-.2,.2v.4h-.1v-.4h-.8V705c0,-.1,.1,-.1,.1,-.1Zm3.3,0h.1q0,.1,0,.1v.8h.8c0,0,.1,0,.1,.1v.6c0,0,-.1,0,-.1,0h-.9q-.2,0,-.2,0v-1.6h.2Zm1.6,0h1v.6q0,.1,0,.1l-.4,.3v.6c0,0,-.1,0,-.1,0q-.2,0,-.2,0v-.7l.5,-.3V705h-.8q0,.2,0,.2q-.1,0,-.1,-.2q0,-.1,.1,-.1Zm3.4,0h.5q.1,0,.1,.1v.6q.2,0,.2,.3v.5q0,.1,-.2,.1h-.8c0,0,-.1,0,-.1,-.1v-.6c0,-.2,.1,-.2,.1,-.2V705c0,-.1,.2,-.1,.2,-.1Zm1.4,0h.9q.1,0,.1,0v1.6h-.1q-.2,0,-.2,0q0,-.1,.2,-.1v-.8h-.9v-.7Zm1.8,0h.8c0,0,.1,0,.1,.1v1.4c0,.1,-.1,.1,-.1,.1h-.8q-.1,0,-.1,-.1V705q0,-.1,.1,-.1Zm1.5,0h.6v1.5h.2v-.5c0,0,.2,-.1,.2,-.1c.1,0,.1,.1,.1,.1v.6h-1.1c0,0,-.1,0,-.1,0c0,-.1,.1,-.1,.1,-.1h.3V705h-.3c0,0,-.1,0,-.1,-.1c0,0,.1,0,.1,0Zm3.2,0h.8c.2,0,.3,0,.3,.1v.6c0,.2,-.1,.2,-.3,.2h-.6v.6h.8c0,0,.1,0,.1,.1c0,0,-.1,0,-.1,0h-1.1v-.7c0,-.2,.1,-.2,.3,-.2h.6V705h-.8c0,0,-.1,0,-.1,-.1c0,0,.1,0,.1,0Zm1.7,0h.8c.1,0,.3,0,.3,.1v.5c0,.1,-.2,.1,-.2,.3c0,0,.2,.1,.2,.1v.5c0,.1,-.2,.1,-.3,.1h-.8q-.1,0,-.1,0q0,-.1,.1,-.1h.8v-.5c0,0,0,-.1,-.2,-.1h-.3q-.1,0,-.1,0q0,-.2,.1,-.2h.3q.2,0,.2,-.1V705h-.8q-.1,0,-.1,-.1h.1Zm1.9,0v.9h.4v-.6c0,0,.2,-.2,.2,-.2c0,0,.1,.2,.1,.2v.6c0,0,.2,0,.2,.1c0,0,-.2,.2,-.2,.2v.4c0,0,-.1,0,-.1,0c0,0,-.2,0,-.2,0v-.4h-.6V705q0,-.1,.2,-.1Zm-18.1,0h.8c0,0,.1,0,.1,0c0,.1,-.1,.1,-.1,.1h-.6v.6h.4c.2,0,.3,0,.3,.2v.6c0,.1,-.1,.1,-.3,.1h-.4q-.2,0,-.2,0h-.1c0,0,-.2,0,-.2,-.1c0,0,.2,-.2,.2,-.2h.1v.2h.6v-.6h-.6v-.9Zm19.6,0h.7q.2,0,.2,0q0,.1,-.2,.1h-.4v.6h.4q.2,0,.2,.2v.6q0,.1,-.2,.1h-.9v-.1c0,0,0,-.2,0,-.2q.2,0,.2,0l.1,.2h.6v-.6h-.7v-.9Zm-12.9,.1v.6h.2V705h-.2Zm-16.6,0v1.4h.8V705h-.8Zm18,0v.5h.8V705h-.8Zm1.7,0v1.4h.8V705h-.8Zm-3.4,.8v.6h.8v-.6h-.8Zm-4.7,.3v.3h.6v-.3h-.6Z" class="g1_1" />
<path fill-rule="evenodd" d="M1470.9,684.2c-1.3,0,-2.4,1.1,-2.4,2.5v18.2c0,1.3,1.1,2.4,2.4,2.4h30.4c1.4,0,2.6,-1.1,2.6,-2.4V686.7c0,-1.4,-1.2,-2.5,-2.6,-2.5h-30.4Zm1.7,7.5h.3v2h-2.1v-.1c0,-1,.9,-1.9,1.8,-1.9Zm.9,0h2.8c.9,0,1.8,.9,1.8,1.9v.1h-4.6v-2Zm-2.7,2.5h2.1v1.6h-2.1v-1.6Zm2.7,0h1.9v1.6h-1.9v-1.6Zm2.3,0h2.3v1.6h-2.3v-1.6Zm-5,2.1h2.1v1.8h-.3c-.9,0,-1.8,-.7,-1.8,-1.6v-.2Zm2.7,0h1.9v1.8h-1.9v-1.8Zm2.3,0h2.3v.2c0,.9,-.9,1.6,-1.8,1.6h-.5v-1.8Zm-4.7,5.5h.8c.1,0,.3,0,.3,.2v1.3c0,.2,-.2,.2,-.3,.2h-.8c0,0,-.2,0,-.2,-.2V702c0,-.2,.2,-.2,.2,-.2Zm1.5,0h.6v1.5h.3v-.4q0,-.2,0,-.2q.2,0,.2,.2v.6h-1.1q0,-.2,0,-.2h.5V702h-.5v-.2Zm1.9,0h.7q.2,0,.2,.2v.6q0,.1,-.2,.1h-.7v.6h.7q.2,0,.2,.2h-1.1v-.8q0,-.1,.2,-.1h.7V702h-.7q-.2,0,-.2,-.2h.2Zm1.5,0h.7c.2,0,.4,0,.4,.2v.4q0,.2,-.2,.3q.2,0,.2,.2v.4c0,.2,-.2,.2,-.4,.2h-.7c0,0,-.2,0,-.2,0c0,-.2,.2,-.2,.2,-.2h.7v-.4q0,-.2,0,-.2h-.4q-.2,0,-.2,0q0,-.1,.2,-.1h.4V702h-.7c0,0,-.2,0,-.2,-.2c0,0,.2,0,.2,0Zm3.3,0c0,0,.2,0,.2,.2v.7h.5v-.6q0,-.1,0,-.1q.1,0,.1,.1v.6q.2,0,.2,.2c0,0,0,.1,-.2,.1v.3q0,.2,-.1,.2V703h-.8v-1c0,-.2,.1,-.2,.1,-.2Zm3.3,0h.1q0,.2,0,.2v.7h.8c0,0,.1,0,.1,.2v.6c0,0,-.1,0,-.1,0h-.9q-.2,0,-.2,0v-1.7h.2Zm1.6,0h1v.6q0,.2,0,.2l-.4,.3v.4c0,.2,-.1,.2,-.1,.2q-.2,0,-.2,0v-.6q0,-.2,0,-.2l.5,-.3V702h-.8q0,.1,0,.1c-.1,0,-.1,-.1,-.1,-.1q0,-.2,.1,-.2Zm3.4,0h.5q.1,0,.1,.2v.6q.2,0,.2,.1v.6q0,.2,-.2,.2h-.8c0,0,-.1,0,-.1,-.2v-.6c0,-.1,.1,-.1,.1,-.1V702c0,-.2,.2,-.2,.2,-.2Zm1.4,0h.9q.1,0,.1,0v1.7h-.1q-.2,0,-.2,0q0,-.2,.2,-.2v-.7h-.9v-.8Zm1.8,0h.8c0,0,.1,0,.1,.2v1.3c0,.2,-.1,.2,-.1,.2h-.8q-.1,0,-.1,-.2V702q0,-.2,.1,-.2Zm1.5,0h.6v1.5h.2v-.4c0,-.2,.2,-.2,.2,-.2q.1,0,.1,.2v.6h-1.1c0,0,-.1,0,-.1,0c0,-.2,.1,-.2,.1,-.2h.3V702h-.3c0,0,-.1,0,-.1,-.2c0,0,.1,0,.1,0Zm3.2,0h.8c.2,0,.3,0,.3,.2v.6c0,.1,-.1,.1,-.3,.1h-.6v.6h.8c0,0,.1,0,.1,.2c0,0,-.1,0,-.1,0h-1.1v-.8c0,-.1,.1,-.1,.3,-.1h.6V702h-.8c0,0,-.1,0,-.1,-.2c0,0,.1,0,.1,0Zm1.7,0h.8c.1,0,.3,0,.3,.2v.4c0,.2,-.2,.2,-.2,.3c0,0,.2,0,.2,.2v.4c0,.2,-.2,.2,-.3,.2h-.8q-.1,0,-.1,0q0,-.2,.1,-.2h.8v-.4q0,-.2,-.2,-.2h-.3q-.1,0,-.1,0q0,-.1,.1,-.1h.3q.2,0,.2,-.2V702h-.8q-.1,0,-.1,-.2h.1Zm1.9,0v.9h.4v-.6c0,-.1,.2,-.1,.2,-.1c0,0,.1,0,.1,.1v.6c0,0,.2,0,.2,.2c0,0,-.2,.1,-.2,.1v.3c0,.2,-.1,.2,-.1,.2c0,0,-.2,0,-.2,0V703h-.6v-1q0,-.2,.2,-.2Zm-18.1,0h.8c0,0,.1,0,.1,0c0,.2,-.1,.2,-.1,.2h-.6v.6h.4c.2,0,.3,0,.3,.1v.6c0,.2,-.1,.2,-.3,.2h-.4q-.2,0,-.2,0h-.1c0,0,-.2,-.2,-.2,-.2c0,0,.2,-.1,.2,-.1h.1v.1h.6v-.6h-.6v-.9Zm19.6,0h.7q.2,0,.2,0q0,.2,-.2,.2h-.4v.6h.4q.2,0,.2,.1v.6q0,.2,-.2,.2h-.9c0,0,0,-.2,0,-.2c0,0,0,-.1,0,-.1q.2,0,.2,0l.1,.1h.6v-.6h-.7v-.9Zm-12.9,.2v.6h.2V702h-.2Zm-16.6,0v1.3h.8V702h-.8Zm18,0v.3h.8V702h-.8Zm1.7,0v1.3h.8V702h-.8Zm-3.4,.7v.6h.8v-.6h-.8Zm-4.7,.3v.3h.6V703h-.6Z" class="g11_1" />
<image preserveAspectRatio="none" x="557" y="123" width="122" height="78" xlink:href="1/img/1.png" />
<path fill-rule="evenodd" d="M1460.4,697.5c3.4,2.9,4.7,7.1,5.5,10.7c.6,3.7,.2,7.7,-2.9,9.3c-1.1,.7,-2.1,.8,-3.2,.7h-8.6l-8.8,-.2c-.9,.2,-2,0,-2.9,-.5c-3.4,-1.5,-4.2,-5.3,-3.8,-9c.4,-3.6,1.8,-7.9,5.3,-11c5.7,-4.9,13.8,-4.9,19.4,0Z" class="g1_1" />
<path fill-rule="evenodd" d="M1460.4,694.5c3.4,2.9,4.7,7,5.5,10.7c.6,3.6,.2,7.5,-2.9,9.3c-1.1,.6,-2.1,.7,-3.2,.6h-8.6l-8.8,-.2c-.9,.2,-2,0,-2.9,-.4c-3.4,-1.5,-4.2,-5.4,-3.8,-9c.4,-3.8,1.8,-8,5.3,-11c5.7,-4.9,13.8,-4.9,19.4,0Z" class="g12_1" />
<path fill-rule="evenodd" d="M1442.1,686.8v-1.2l.1,-.4v-.5l.2,-.5l.1,-.4l.2,-.3l.1,-.5l.3,-.4l.2,-.4l.3,-.4l.3,-.3l.2,-.5l.3,-.3l.3,-.3l.4,-.3l.3,-.3l.3,-.1l.5,-.4l.3,-.3l.5,-.1l.4,-.2l.5,-.1l.3,-.2l.4,-.1l.5,-.2h.5l.4,-.1h1.8l.5,.1h.5l.4,.2l.3,.1l.5,.2l.4,.1l.5,.2l.5,.3l.3,.1l.4,.4l.3,.3l.3,.3l.5,.3l.3,.3l.3,.4l.2,.3l.3,.3l.3,.5l.1,.5l.3,.4l.2,.3l.1,.5l.2,.4v.5l.1,.5v.4l.2,.5v.4h-.2v1.4l-.1,.5l-.2,.4v.5l-.3,.4l-.1,.5l-.2,.5l-.1,.3l-.3,.4l-.3,.3l-.2,.5l-.3,.3l-.5,.3l-.3,.5l-.3,.3l-.3,.1l-.4,.3l-.3,.3l-.5,.2l-.5,.1l-.4,.3l-.5,.2l-.3,.1h-.4l-.5,.2h-.5l-.4,.1h-.9l-.5,-.1h-.4l-.5,-.2h-.5l-.4,-.1l-.5,-.2l-.4,-.3l-.5,-.1l-.3,-.2l-.5,-.3l-.3,-.1l-.4,-.3l-.3,-.3l-.3,-.4l-.3,-.4l-.3,-.3l-.3,-.3l-.4,-.5l-.3,-.3l-.1,-.4l-.2,-.5l-.3,-.5l-.1,-.4v-.5l-.2,-.3l-.1,-.4v-1.6Z" class="g1_1" />
<path fill-rule="evenodd" d="M1442.1,685.2v-1.3l.1,-.4V683l.2,-.4l.1,-.5l.2,-.5l.1,-.3l.3,-.4l.2,-.3l.3,-.5l.3,-.3l.2,-.5l.3,-.3l.3,-.3l.4,-.3l.3,-.3l.3,-.1l.5,-.3l.3,-.3l.5,-.2l.4,-.1l.5,-.2l.3,-.2l.4,-.1l.5,-.2h.5l.4,-.1h1.8l.5,.1h.5l.4,.2l.3,.1l.5,.2l.4,.2l.5,.1l.5,.3l.3,.2l.4,.3l.3,.3l.3,.3l.5,.3l.3,.3l.3,.5l.2,.3l.3,.3l.3,.4l.1,.5l.3,.4l.2,.3l.1,.5l.2,.5v.4l.1,.5v.4l.2,.5v.5h-.2v1.3l-.1,.5l-.2,.4v.5l-.3,.5l-.1,.4l-.2,.3l-.1,.5l-.3,.4l-.3,.3l-.2,.5l-.3,.3l-.5,.3l-.3,.3l-.3,.3l-.3,.3l-.4,.3l-.3,.3l-.5,.2l-.5,.1l-.4,.4l-.5,.1l-.3,.2h-.4l-.5,.1h-.5l-.4,.2h-.9l-.5,-.2h-.4l-.5,-.1h-.5l-.4,-.2l-.5,-.1l-.4,-.4l-.5,-.1l-.3,-.2l-.5,-.3l-.3,-.3l-.4,-.3l-.3,-.3l-.3,-.1l-.3,-.5l-.3,-.3l-.3,-.3l-.4,-.5l-.3,-.3l-.1,-.4l-.2,-.5l-.3,-.4l-.1,-.5v-.5l-.2,-.3l-.1,-.6v-1.3Z" class="g10_1" />
<path fill-rule="evenodd" d="M1057.4,613.5c-.6,-.5,-16.1,16.8,-18.8,20.2c-.2,.3,-.3,.4,-.5,.6c-.1,-.2,-.3,-.3,-.4,-.6c-1.3,-1.4,-1.9,-2.6,-3.1,-4c-.4,-.6,-1.1,-1.2,-1.5,-1.7c-.2,-.3,-.5,-.3,-.8,-.1c-.3,0,-.7,0,-1,.3c-.2,.1,0,.4,0,.6c0,.3,-1.1,.3,-1.7,.7c-.2,0,.1,.5,0,.5c-.2,.3,-.3,.3,-.2,.6c1.2,3.1,3.1,5.7,4.6,8.9c2.4,4.9,2.7,1.8,3.5,2.4c2.2,1.8,1.2,2.3,6.1,-4.1c2.2,-3.1,13.3,-16.8,15.8,-19.6c.3,-.3,.6,-.6,.7,-1q.5,-.8,-.1,-1.4c-.2,-.3,-.3,-.3,-.6,-.3c-.6,0,-1,-.3,-1,-.8c0,-.1,0,-.3,0,-.4c-.1,-.2,-.7,-.6,-1,-.8Z" class="g17_1" />
<path fill-rule="evenodd" d="M1288.5,131.3c0,3.5,2.5,7.1,6.3,9c-3.8,2,-6.3,5.5,-6.3,9.2c0,3.7,2.5,7,6.3,9.2c-3.8,2,-6.3,5.3,-6.3,9.1c0,3.7,2.5,7.1,6.3,9.1c-3.8,2.1,-6.3,5.5,-6.3,9.1h2.8c0,-.6,.1,-1.3,.4,-2h13.6c.3,.7,.5,1.4,.5,2h2.7c0,-3.6,-2.4,-7,-6.2,-9.1c3.8,-2,6.2,-5.4,6.2,-9.1c0,-3.8,-2.4,-7.1,-6.2,-9.1c3.8,-2.2,6.2,-5.5,6.2,-9.2c0,-3.7,-2.4,-7.2,-6.2,-9.2c3.8,-1.9,6.2,-5.5,6.2,-9h-2.7c0,.6,-.2,1.3,-.3,1.9h-13.9c-.2,-.6,-.3,-1.3,-.3,-1.9h-2.8Zm4,3.5h12.1c-1.3,1.9,-3.4,3.3,-6,4.2h-.1c-2.6,-.9,-4.8,-2.3,-6,-4.2Zm6,6.9c2.7,.9,4.8,2.5,6.1,4.1h-12.1c1.2,-1.6,3.4,-3.2,6,-4.1Zm-6.9,5.8h13.9c.1,.6,.3,1.4,.3,2c0,.6,-.2,1.2,-.3,1.8h-13.9c-.2,-.6,-.3,-1.2,-.3,-1.8c0,-.6,.1,-1.4,.3,-2Zm.9,5.5h12.1c-1.3,1.9,-3.4,3.4,-6.1,4.2c-2.6,-.8,-4.8,-2.3,-6,-4.2Zm6,7.1c2.7,.9,4.8,2.2,6.1,4.1h-12.1c1.2,-1.9,3.4,-3.2,6,-4.1Zm-6.8,5.8h13.6c.3,.6,.5,1.2,.5,1.9c0,.7,-.2,1.3,-.3,1.9h-13.9c-.2,-.6,-.3,-1.2,-.3,-1.9c0,-.7,.1,-1.3,.4,-1.9Zm.6,5.5h12.4c-1.2,1.6,-3.3,3.2,-6.2,4.1c-2.6,-.9,-4.9,-2.5,-6.2,-4.1Zm6.2,7c2.7,.8,4.8,2.1,6.1,4h-12.1c1.2,-1.9,3.4,-3.2,6,-4Z" class="g8_1" />
<path fill-rule="evenodd" d="M265.1,259.5c-10.1,0,-18.4,11.2,-18.4,24.8c0,13.6,8.3,24.7,18.4,24.7c8.4,0,15.4,-7.8,17.5,-18.2c.2,-1,1.1,-1.8,2.2,-1.8h3.6v.8c0,1,.8,1.8,1.9,1.8c1,0,1.8,-.8,1.8,-1.8V289h48.4v.8c0,1,1,1.8,2,1.8c.9,0,1.9,-.8,1.9,-1.8V289h9.4c.5,0,.8,.3,.8,.8v7c0,.4,-.3,.8,-.8,.8h-.4c-.5,0,-.8,.3,-.8,.6v4.2c0,.3,.3,.7,.8,.7h4.9c.3,0,.6,-.4,.6,-.7V300c0,-.5,.3,-.8,.7,-.8h2.3c.3,0,.6,.3,.6,.8v2.4c0,.3,.3,.7,.8,.7H368c.5,0,.8,-.4,.8,-.7v-4.2c0,-.3,-.3,-.6,-.8,-.6h-.4c-.5,0,-.8,-.4,-.8,-.8v-7c0,-.5,.3,-.8,.8,-.8h6.7c.9,0,1.7,-.8,1.7,-1.7v-6.1c0,-.9,-.8,-1.7,-1.7,-1.7H344.4v-.7c0,-1.1,-1,-1.9,-1.9,-1.9c-1,0,-2,.8,-2,1.9v.7H292.1v-.7c0,-1.1,-.8,-1.9,-1.8,-1.9c-1.1,0,-1.9,.8,-1.9,1.9v.7h-3.6c-1.1,0,-2,-.7,-2.2,-1.8c-2.1,-10.4,-9.1,-18.2,-17.5,-18.2Zm0,7c4.7,0,8.5,4.6,8.5,10.3c0,2.3,-.6,4.3,-1.7,5.9c-.4,1,-.4,2.2,0,3.1c1.1,1.7,1.7,3.7,1.7,5.9c0,5.7,-3.8,10.3,-8.5,10.3c-4.9,0,-8.7,-4.6,-8.7,-10.3c0,-2.2,.6,-4.2,1.5,-5.9c.6,-.9,.6,-2.1,0,-3.1c-.9,-1.6,-1.5,-3.6,-1.5,-5.9c0,-5.7,3.8,-10.3,8.7,-10.3Z" class="g1_1" />
<path fill-rule="evenodd" d="M265.1,256.5c-10.1,0,-18.4,11,-18.4,24.7c0,13.6,8.3,24.8,18.4,24.8c8.4,0,15.4,-7.8,17.5,-18.4c.2,-.9,1.1,-1.7,2.2,-1.7h3.6v.8c0,.9,.8,1.8,1.9,1.8c1,0,1.8,-.9,1.8,-1.8v-.8h48.4v.8c0,.9,1,1.8,2,1.8c.9,0,1.9,-.9,1.9,-1.8v-.8h9.4c.5,0,.8,.3,.8,.7v7.1c0,.5,-.3,.8,-.8,.8h-.4c-.5,0,-.8,.3,-.8,.6v4.1c0,.5,.3,.8,.8,.8h4.9c.3,0,.6,-.3,.6,-.8v-2.3c0,-.4,.3,-.7,.7,-.7h2.3c.3,0,.6,.3,.6,.7v2.3c0,.5,.3,.8,.8,.8H368c.5,0,.8,-.3,.8,-.8v-4.1c0,-.3,-.3,-.6,-.8,-.6h-.4c-.5,0,-.8,-.3,-.8,-.8v-7.1c0,-.4,.3,-.7,.8,-.7h6.7c.9,0,1.7,-.7,1.7,-1.6v-6.1c0,-1,-.8,-1.7,-1.7,-1.7H344.4v-.8c0,-1.1,-1,-1.8,-1.9,-1.8c-1,0,-2,.7,-2,1.8v.8H292.1v-.8c0,-1.1,-.8,-1.8,-1.8,-1.8c-1.1,0,-1.9,.7,-1.9,1.8v.8h-3.6c-1.1,0,-2,-.8,-2.2,-1.9c-2.1,-10.4,-9.1,-18.1,-17.5,-18.1Zm0,7c4.7,0,8.5,4.6,8.5,10.2c0,2.3,-.6,4.3,-1.7,6c-.4,.9,-.4,2.1,0,3c1.1,1.7,1.7,3.7,1.7,6c0,5.6,-3.8,10.2,-8.5,10.2c-4.9,0,-8.7,-4.6,-8.7,-10.2c0,-2.3,.6,-4.4,1.5,-6c.6,-.9,.6,-2.1,0,-3c-.9,-1.7,-1.5,-3.7,-1.5,-6c0,-5.6,3.8,-10.2,8.7,-10.2Z" class="g18_1" />
<path fill-rule="evenodd" d="M1522.1,762.5c-.3,0,-.4,0,-.7,-.2c-.6,-.6,-1.4,-1.7,-1.3,-3.5c.3,-3.1,2.9,-4.1,1.1,-7.5c0,0,-1.4,.3,-4.4,-.3c-2.5,-.5,-3.5,-.2,-4.6,-.8c-1.8,-.9,-1.2,-3.3,.6,-4.1c-1.5,-1.1,-2,-3.4,.8,-4.4c-1.6,-1.7,-1.7,-3.7,.7,-4.3c-1.5,-1.7,-.1,-3.7,1.6,-3.7c12.9,0,10.8,1,14.8,1c4.4,0,7.5,-1.7,7.5,-1.7v13.3c0,0,-3.9,1,-6.3,2.4c-1.1,.5,-2.1,1.2,-3.2,4.7c-1.1,3.4,-3.4,3.7,-4.1,5.1c-.5,.7,-1.3,2.4,-1.7,3.5c-.2,.3,-.5,.5,-.8,.5Z" class="g1_1" />
<path fill-rule="evenodd" d="M1522.1,759.4c-.3,0,-.4,0,-.7,-.2c-.6,-.6,-1.4,-1.6,-1.3,-3.5c.3,-3.2,2.9,-4.1,1.1,-7.5c0,0,-1.4,.4,-4.4,-.3c-2.5,-.4,-3.5,-.1,-4.6,-.7c-1.8,-.9,-1.2,-3.4,.6,-4.1c-1.5,-1.1,-2,-3.6,.8,-4.5c-1.6,-1.7,-1.7,-3.6,.7,-4.3c-1.5,-1.6,-.1,-3.6,1.6,-3.6c12.9,0,10.8,.9,14.8,.9c4.4,0,7.5,-1.8,7.5,-1.8v13.4c0,0,-3.9,1.1,-6.3,2.5c-1.1,.4,-2.1,1.2,-3.2,4.7c-1.1,3.3,-3.4,3.7,-4.1,5c-.5,.6,-1.3,2.3,-1.7,3.5c-.2,.3,-.5,.5,-.8,.5Z" class="g19_1" />


<!-- Any embedded fonts defined here -->
<style type="text/css" ><![CDATA[

@font-face {
	font-family: DejaVuSans-Bold_2w;
	src: url("fonts/DejaVuSans-Bold_2w.woff") format("woff");
}

@font-face {
	font-family: DejaVuSans-Oblique_2_;
	src: url("fonts/DejaVuSans-Oblique_2_.woff") format("woff");
}

]]></style>

</svg>
