<?xml version="1.0" encoding="UTF-8" standalone="no"?>
<!DOCTYPE svg PUBLIC "-//W3C//DTD SVG 1.1//EN"
"http://www.w3.org/Graphics/SVG/1.1/DTD/svg11.dtd">


<!-- Page 2 -->
<svg x="0" y="0" width="1564" height="1173" viewBox="0 0 1564 1173" version="1.1" xmlns="http://www.w3.org/2000/svg" xmlns:xlink="http://www.w3.org/1999/xlink"
style="display: block;margin-left: auto;margin-right: auto;">
<defs>
<clipPath id="c0_2"><path d="M0,1173.3V0H1564.4V1173.3Z" /></clipPath>

<style type="text/css"><![CDATA[

.g0_2{
fill: #FFFFFF;
}
.g1_2{
fill-opacity: 0.5;
}
.g2_2{
fill: #F5D328;
}
.g3_2{
fill: #0175AE;
}
.g4_2{
fill: #027001;
}
.g5_2{
fill: #DA7E00;
}
.g6_2{
fill: #70BF41;
}
.g7_2{
fill: none;
stroke: #F39019;
stroke-width: 7.6095405;
stroke-linecap: butt;
stroke-linejoin: miter;
}
.g8_2{
fill: #F39019;
}
.g9_2{
fill: #F08A00;
}
.g10_2{
fill: #F39019;
fill-opacity: 0.5;
}
.g11_2{
fill: none;
stroke: #027001;
stroke-width: 7.6095405;
stroke-linecap: butt;
stroke-linejoin: miter;
}
.g12_2{
fill: none;
stroke: #0076BA;
stroke-width: 7.6095405;
stroke-linecap: butt;
stroke-linejoin: miter;
}
.g13_2{
fill: #0076BA;
}

.s1_2{
font-size: 36.67px;
font-family: DejaVuSans-Bold_2w;
fill: #000000;
}
.s2_2{
font-size: 36.67px;
font-family: DejaVuSans-Oblique_2_;
fill: #000000;
}

]]></style>

</defs>
<path d="M0,0
L0,1173
L1564,1173
L1564,0 Z " 
fill="#FFFFFF" stroke="none" />
<g clip-path="url(#c0_2)">
<path fill-rule="evenodd" d="M0,.1H1564.4V1173.4H0V.1Z" class="g0_2" />
<path fill-rule="evenodd" d="M0,.1H1564.4V1173.4H0V.1Z" class="g0_2" />
</g>
<path fill-rule="evenodd" d="M555.3,247.3c-10,0,-18.1,11.1,-18.1,24.7c0,13.6,8.1,24.8,18.1,24.8c8.5,0,15.5,-7.8,17.6,-18.2c.2,-1.1,1.1,-1.8,2.2,-1.8h3.6v.7c0,1.1,.9,1.9,1.9,1.9c1,0,1.9,-.8,1.9,-1.9v-.7H631v.7c0,1.1,.7,1.9,1.8,1.9c1.1,0,1.8,-.8,1.8,-1.9v-.7h9.7c.3,0,.6,.3,.6,.7v7.1c0,.4,-.3,.7,-.6,.7h-.6c-.4,0,-.8,.3,-.8,.6v4.3c0,.3,.4,.6,.8,.6h4.8c.3,0,.7,-.3,.7,-.6v-2.4c0,-.5,.3,-.8,.7,-.8h2.3c.5,0,.8,.3,.8,.8v2.4c0,.3,.3,.6,.6,.6h4.9c.3,0,.7,-.3,.7,-.6v-4.3c0,-.3,-.4,-.6,-.7,-.6h-.6c-.3,0,-.6,-.3,-.6,-.7v-7.1c0,-.4,.3,-.7,.6,-.7h6.8c1,0,1.7,-.8,1.7,-1.7V269c-.1,-.9,-.9,-1.7,-1.8,-1.7h-30v-.8c0,-1,-.7,-1.8,-1.8,-1.8c-1.1,0,-1.8,.8,-1.8,1.8v.8H582.5v-.8c0,-1,-.9,-1.8,-1.9,-1.8c-1,0,-1.9,.8,-1.9,1.8v.8h-3.6c-1.1,0,-2,-.8,-2.2,-1.8c-2.1,-10.4,-9.1,-18.2,-17.6,-18.2Zm0,7c4.8,0,8.8,4.6,8.8,10.3c0,2.2,-.7,4.2,-1.7,6.1c-.6,.7,-.6,2,0,2.9c1,1.6,1.7,3.6,1.7,5.9c0,5.7,-4,10.3,-8.8,10.3c-4.8,0,-8.7,-4.6,-8.7,-10.3c0,-2.3,.7,-4.3,1.7,-5.9c.5,-.9,.5,-2.2,0,-2.9c-1,-1.9,-1.7,-3.9,-1.7,-6.1c0,-5.7,3.9,-10.3,8.7,-10.3Z" class="g1_2" />
<path fill-rule="evenodd" d="M555.3,244.2c-10,0,-18.1,11,-18.1,24.8c0,13.6,8.1,24.7,18.1,24.7c8.5,0,15.5,-7.8,17.6,-18.1c.2,-1.1,1.1,-1.9,2.2,-1.9h3.6v.8c0,1.1,.9,1.8,1.9,1.8c1,0,1.9,-.7,1.9,-1.8v-.8H631v.8c0,1.1,.7,1.8,1.8,1.8c1.1,0,1.8,-.7,1.8,-1.8v-.8h9.7c.3,0,.6,.3,.6,.6v7.2c0,.5,-.3,.8,-.6,.8h-.6c-.4,0,-.8,.3,-.8,.6v4.3c0,.3,.4,.6,.8,.6h4.8c.3,0,.7,-.3,.7,-.6v-2.5c0,-.4,.3,-.7,.7,-.7h2.3c.5,0,.8,.3,.8,.7v2.5c0,.3,.3,.6,.6,.6h4.9c.3,0,.7,-.3,.7,-.6v-4.3c0,-.3,-.4,-.6,-.7,-.6h-.6c-.3,0,-.6,-.3,-.6,-.8v-7.2c0,-.3,.3,-.6,.6,-.6h6.8c1,0,1.7,-.7,1.7,-1.7v-6.1c-.1,-.9,-.9,-1.7,-1.8,-1.7h-30v-.7c0,-1.1,-.7,-1.8,-1.8,-1.8c-1.1,0,-1.8,.7,-1.8,1.8v.7H582.5v-.7c0,-1.1,-.9,-1.8,-1.9,-1.8c-1,0,-1.9,.7,-1.9,1.8v.7h-3.6c-1.1,0,-2,-.7,-2.2,-1.8C570.8,252,563.8,244.2,555.3,244.2Zm0,7.1c4.8,0,8.8,4.5,8.8,10.2c0,2.3,-.7,4.3,-1.7,6c-.6,.9,-.6,2.1,0,3c1,1.7,1.7,3.7,1.7,6c0,5.6,-4,10.2,-8.8,10.2c-4.8,0,-8.7,-4.6,-8.7,-10.2c0,-2.3,.7,-4.5,1.7,-6c.5,-.9,.5,-2.1,0,-3c-1,-1.7,-1.7,-3.7,-1.7,-6c0,-5.7,3.9,-10.2,8.7,-10.2Z" class="g2_2" />
<path fill-rule="evenodd" d="M842.3,814.2c-13,0,-23.6,10.6,-23.6,23.6v19.5h.2c-3.7,4.9,-5.8,11,-5.8,17.6c0,16.5,13.4,29.8,29.9,29.8c16.4,0,29.8,-13.3,29.8,-29.8c0,-7.3,-2.7,-14.1,-7,-19.2V837.8c0,-13,-10.6,-23.6,-23.5,-23.6Zm0,10.6c7.1,0,12.9,5.8,12.9,13v9.9c-3.8,-1.7,-7.9,-2.6,-12.2,-2.6c-5,0,-9.7,1.2,-13.9,3.4V837.8c0,-7.2,6,-13,13.2,-13ZM843,859c8.7,0,15.8,7.2,15.8,15.9c0,8.7,-7.1,15.7,-15.8,15.7c-8.8,0,-15.9,-7,-15.9,-15.7c0,-8.7,7.1,-15.9,15.9,-15.9Zm0,2.8c-7.3,0,-13.3,5.8,-13.3,13.1c0,7.3,6,13.1,13.3,13.1c7.2,0,13.2,-5.8,13.2,-13.1c0,-7.3,-6,-13.1,-13.2,-13.1Z" class="g1_2" />
<path fill-rule="evenodd" d="M842.3,811.2c-13,0,-23.6,10.5,-23.6,23.5v19.6h.2c-3.7,4.9,-5.8,11,-5.8,17.5c0,16.5,13.4,29.8,29.9,29.8c16.4,0,29.8,-13.3,29.8,-29.8c0,-7.3,-2.7,-14,-7,-19.2V834.7c0,-13,-10.6,-23.5,-23.5,-23.5Zm0,10.5c7.1,0,12.9,5.8,12.9,13v10c-3.8,-1.7,-7.9,-2.6,-12.2,-2.6c-5,0,-9.7,1,-13.9,3.2V834.7c0,-7.2,6,-13,13.2,-13ZM843,856c8.7,0,15.8,7.1,15.8,15.8c0,8.8,-7.1,15.8,-15.8,15.8c-8.8,0,-15.9,-7,-15.9,-15.8c0,-8.7,7.1,-15.8,15.9,-15.8Zm0,2.6c-7.3,0,-13.3,5.9,-13.3,13.2c0,7.2,6,13.2,13.3,13.2c7.2,0,13.2,-6,13.2,-13.2c0,-7.3,-6,-13.2,-13.2,-13.2Z" class="g3_2" />
<path fill-rule="evenodd" d="M339.9,444.2v22.9H313.8V576.2h64.9V549.8h12.9v26.4h13V549.8h12.8v26.4h65.4V467.1H456.2V444.2H339.9Zm13,11.9h12.8v11H352.9v-11Zm25.8,0h12.9v11H378.7v-11Zm25.9,0h12.8v11H404.6v-11Zm25.8,0h12.8v11H430.4v-11ZM327.1,479.5h12.8v11.2H327.1V479.5Zm25.8,0h12.8v11.2H352.9V479.5Zm25.8,0h12.9v11.2H378.7V479.5Zm25.9,0h12.8v11.2H404.6V479.5Zm25.8,0h12.8v11.2H430.4V479.5Zm25.8,0H469v11.2H456.2V479.5ZM327.1,503h12.8v11H327.1V503Zm25.8,0h12.8v11H352.9V503Zm77.5,0h12.8v11H430.4V503Zm25.8,0H469v11H456.2V503Zm-57.9,.7c8.9,0,16.2,7.1,16.2,16c0,8.9,-7.3,16.2,-16.2,16.2c-8.9,0,-16.1,-7.3,-16.1,-16.2c0,-8.9,7.2,-16,16.1,-16Zm-3.8,6.1v6.1h-6.3v7.6h6.3v6.3h7.6v-6.3h6.3v-7.6h-6.3v-6.1h-7.6Zm-67.4,16.6h12.8v11.2H327.1V526.4Zm25.8,0h12.8v11.2H352.9V526.4Zm77.5,0h12.8v11.2H430.4V526.4Zm25.8,0H469v11.2H456.2V526.4ZM327.1,549.8h12.8v11.1H327.1V549.8Zm25.8,0h12.8v11.1H352.9V549.8Zm77.5,0h12.8v11.1H430.4V549.8Zm25.8,0H469v11.1H456.2V549.8Z" class="g1_2" />
<path fill-rule="evenodd" d="M339.9,441.2v22.9H313.8V573.2h64.9V546.7h12.9v26.5h13V546.7h12.8v26.5h65.4V464.1H456.2V441.2H339.9Zm13,11.7h12.8v11.2H352.9V452.9Zm25.8,0h12.9v11.2H378.7V452.9Zm25.9,0h12.8v11.2H404.6V452.9Zm25.8,0h12.8v11.2H430.4V452.9ZM327.1,476.5h12.8v11.1H327.1V476.5Zm25.8,0h12.8v11.1H352.9V476.5Zm25.8,0h12.9v11.1H378.7V476.5Zm25.9,0h12.8v11.1H404.6V476.5Zm25.8,0h12.8v11.1H430.4V476.5Zm25.8,0H469v11.1H456.2V476.5ZM327.1,499.8h12.8V511H327.1V499.8Zm25.8,0h12.8V511H352.9V499.8Zm77.5,0h12.8V511H430.4V499.8Zm25.8,0H469V511H456.2V499.8Zm-57.9,.6c8.9,0,16.2,7.4,16.2,16.2c0,8.9,-7.3,16.2,-16.2,16.2c-8.9,0,-16.1,-7.3,-16.1,-16.2c0,-8.8,7.2,-16.2,16.1,-16.2Zm-3.8,6.2v6.2h-6.3v7.7h6.3v6.2h7.6v-6.2h6.3v-7.7h-6.3v-6.2h-7.6Zm-67.4,16.8h12.8v11H327.1v-11Zm25.8,0h12.8v11H352.9v-11Zm77.5,0h12.8v11H430.4v-11Zm25.8,0H469v11H456.2v-11ZM327.1,546.7h12.8v11.2H327.1V546.7Zm25.8,0h12.8v11.2H352.9V546.7Zm77.5,0h12.8v11.2H430.4V546.7Zm25.8,0H469v11.2H456.2V546.7Z" class="g4_2" />
<path fill-rule="evenodd" d="M931.9,749.5c-16.5,0,-33.1,1.8,-45.6,5.6c-25.2,7.7,-25.2,20,0,27.5c25.2,7.7,66.1,7.7,91.3,0c25.2,-7.5,25.2,-19.8,0,-27.5c-12.7,-3.8,-29.2,-5.6,-45.7,-5.6Zm-64.6,28.2V899.3c0,10.9,28.9,20.7,64.6,20.7c35.6,0,64.7,-9.8,64.7,-20.7V777.7c-9.3,8.1,-34.7,13.9,-64.7,13.9c-29.9,0,-55.4,-5.8,-64.6,-13.9Z" class="g1_2" />
<path fill-rule="evenodd" d="M931.9,746.3c-16.5,0,-33.1,1.9,-45.6,5.8c-25.2,7.6,-25.2,19.8,0,27.5c25.2,7.6,66.1,7.6,91.3,0c25.2,-7.7,25.2,-19.9,0,-27.5c-12.7,-3.9,-29.2,-5.8,-45.7,-5.8Zm-64.6,28.4V896.3c0,10.8,28.9,20.6,64.6,20.6c35.6,0,64.7,-9.8,64.7,-20.6V774.7c-9.3,8.1,-34.7,13.9,-64.7,13.9c-29.9,0,-55.4,-5.8,-64.6,-13.9Z" class="g3_2" />
<path fill-rule="evenodd" d="M829.9,109.6c-2,0,-3.5,1.7,-3.5,3.7V220.7c0,2,1.5,3.7,3.5,3.7h65.5l-.3,.9l-2.7,14h-8.3v5.2h48.2v-5.2H924l-2.7,-14l-.4,-.9h68.9c2,0,3.7,-1.7,3.7,-3.7V113.3c0,-2,-1.7,-3.7,-3.7,-3.7H829.9Zm80,3.4c1,0,1.6,.8,1.6,1.7c0,.7,-.6,1.5,-1.6,1.5c-.9,0,-1.6,-.8,-1.6,-1.5c0,-.9,.7,-1.7,1.6,-1.7ZM836,120.5H983.9v84.3H836V120.5Z" class="g1_2" />
<path fill-rule="evenodd" d="M829.9,106.6c-2,0,-3.5,1.7,-3.5,3.6V217.7c0,1.9,1.5,3.6,3.5,3.6h65.5l-.3,.9l-2.7,14.1h-8.3v5.2h48.2v-5.2H924l-2.7,-14.1l-.4,-.9h68.9c2,0,3.7,-1.7,3.7,-3.6V110.2c0,-1.9,-1.7,-3.6,-3.7,-3.6H829.9Zm80,3.3c1,0,1.6,.8,1.6,1.7c0,.8,-.6,1.6,-1.6,1.6c-.9,0,-1.6,-.8,-1.6,-1.6c0,-.9,.7,-1.7,1.6,-1.7ZM836,117.4H983.9v84.4H836V117.4Z" class="g5_2" />
<path fill-rule="evenodd" d="M915.4,800.7c0,5.9,4,11.6,10.3,14.9c-6.3,3.4,-10.3,9,-10.3,15.1c0,6.2,4,11.7,10.3,15c-6.3,3.4,-10.3,9,-10.3,15.1c0,6.2,4,11.8,10.3,15.2c-6.3,3.3,-10.3,9,-10.3,15.1H920c0,-1.2,.2,-2.4,.6,-3.5h22.7c.3,1.1,.6,2.3,.6,3.5h4.5c0,-6.1,-3.9,-11.8,-10.3,-15.1c6.4,-3.4,10.3,-9,10.3,-15.2c0,-6.1,-3.9,-11.7,-10.3,-15.1c6.4,-3.3,10.3,-8.8,10.3,-15c0,-6.1,-3.9,-11.7,-10.3,-15.1c6.4,-3.3,10.3,-9,10.3,-14.9h-4.5c0,1,-.3,2.1,-.6,3.2H920.5c-.3,-1.1,-.5,-2.2,-.5,-3.2h-4.6Zm6.5,5.8h20c-2,3,-5.5,5.5,-10,6.8c-4.5,-1.3,-8.1,-3.8,-10,-6.8Zm10,11.6c4.5,1.2,8,3.6,10,6.7h-20c1.9,-3.1,5.6,-5.5,10,-6.7Zm-11.4,9.4h22.8c.3,1.1,.6,2,.6,3.2c0,1.1,-.2,2,-.6,3.1H920.5c-.3,-1.1,-.5,-2,-.5,-3.1c0,-1.2,.2,-2.1,.5,-3.2Zm1.4,9.1h20c-2,3,-5.5,5.5,-10,6.8c-4.5,-1.3,-8.1,-3.8,-10,-6.8Zm10,11.6c4.5,1.3,7.8,3.6,10,6.7H922c2,-3.1,5.5,-5.4,9.9,-6.7Zm-11.4,9.4h22.8c.3,1,.6,2.2,.6,3.2c0,1.1,-.2,2,-.6,3.1H920.5c-.3,-1.1,-.5,-2,-.5,-3.1c0,-1,.2,-2.2,.5,-3.2Zm1.4,9.1H942c-2,3,-5.6,5.5,-10.1,6.8c-4.5,-1.3,-8.1,-3.8,-10,-6.8Zm10,11.7c4.5,1.2,7.8,3.5,10,6.6H922c2,-3.1,5.5,-5.4,9.9,-6.6Z" class="g1_2" />
<path fill-rule="evenodd" d="M915.4,797.6c0,6,4,11.6,10.3,15c-6.3,3.3,-10.3,9,-10.3,14.9c0,6.2,4,11.8,10.3,15.2c-6.3,3.3,-10.3,9,-10.3,15.1c0,6.1,4,11.8,10.3,15.1c-6.3,3.4,-10.3,9,-10.3,15.1H920c0,-1.2,.2,-2.4,.6,-3.5h22.7c.3,1.1,.6,2.3,.6,3.5h4.5c0,-6.1,-3.9,-11.7,-10.3,-15.1c6.4,-3.3,10.3,-9,10.3,-15.1c0,-6.1,-3.9,-11.8,-10.3,-15.1c6.4,-3.4,10.3,-9,10.3,-15.2c0,-5.9,-3.9,-11.6,-10.3,-14.9c6.4,-3.4,10.3,-9,10.3,-15h-4.5c0,1.1,-.3,2.1,-.6,3.1H920.5c-.3,-1,-.5,-2,-.5,-3.1h-4.6Zm6.5,5.8h20c-2,3.1,-5.5,5.5,-10,6.7c-4.5,-1.2,-8.1,-3.6,-10,-6.7Zm10,11.6c4.5,1.2,8,3.7,10,6.7h-20c1.9,-3,5.6,-5.5,10,-6.7Zm-11.4,9.5h22.8c.3,1.1,.6,2,.6,3c0,1.3,-.2,2.2,-.6,3.2H920.5c-.3,-1,-.5,-1.9,-.5,-3.2c0,-1,.2,-1.9,.5,-3Zm1.4,9h20c-2,3.1,-5.5,5.5,-10,6.7c-4.5,-1.2,-8.1,-3.6,-10,-6.7Zm10,11.6c4.5,1.2,7.8,3.7,10,6.7H922c2,-3,5.5,-5.5,9.9,-6.7Zm-11.4,9.3h22.8c.3,1.1,.6,2.3,.6,3.4c0,1.1,-.2,2,-.6,3H920.5c-.3,-1,-.5,-1.9,-.5,-3c0,-1.1,.2,-2.3,.5,-3.4Zm1.4,9.2H942c-2,3.1,-5.6,5.5,-10.1,6.9c-4.5,-1.4,-8.1,-3.8,-10,-6.9Zm10,11.8c4.5,1.2,7.8,3.5,10,6.5H922c2,-3,5.5,-5.3,9.9,-6.5Z" class="g6_2" />
<path d="M740.8,241L491.9,423.3" class="g7_2" />
<path fill-rule="evenodd" d="M474.7,436l11.7,-22.8l13.5,18.5L474.7,436Z" class="g8_2" />
<text x="497" y="283" class="s1_2">1</text>
<path d="M904.9,710.5V255.7" class="g7_2" />
<path fill-rule="evenodd" d="M904.9,731.9L893.4,709h23l-11.5,22.9Z" class="g8_2" />
<path fill-rule="evenodd" d="M649.5,391.4c-3.4,0,-6,2.6,-6,5.9v43.6c0,3.3,2.6,5.9,6,5.9h73.1c3.4,0,6,-2.6,6,-5.9V397.3c0,-3.3,-2.6,-5.9,-6,-5.9H649.5Zm4.1,18.1h.7v4.6h-5.1V414c0,-2.5,1.9,-4.5,4.4,-4.5Zm2,0h6.5c2.6,0,4.6,2,4.6,4.5v.1H655.6v-4.6Zm-6.4,5.8h5.1v4h-5.1v-4Zm6.4,0h4.6v4h-4.6v-4Zm5.8,0h5.3v4h-5.3v-4Zm-12.2,5.2h5.1v4.6h-.7c-2.5,0,-4.4,-2,-4.4,-4.6Zm6.4,0h4.6v4.6h-4.6v-4.6Zm5.8,0h5.3c0,2.6,-2,4.6,-4.6,4.6h-.7v-4.6Zm-11.3,13h1.5c.3,0,.6,.3,.6,.6v3.2c0,.4,-.3,.7,-.6,.7h-1.5c-.3,0,-.6,-.3,-.6,-.7v-3.2c0,-.3,.3,-.6,.6,-.6Zm3.6,0h1.4v3.8h.5v-1.2c0,-.1,.1,-.1,.3,-.1c.1,0,.3,0,.3,.1v1.6c0,.1,-.2,.3,-.3,.3h-2.2c-.1,0,-.3,-.2,-.3,-.3c0,-.4,.2,-.4,.3,-.4h.8v-3.2h-.8c-.1,0,-.3,-.1,-.3,-.3c0,-.1,.2,-.3,.3,-.3Zm4,0h1.8c.3,0,.7,.3,.7,.6v1.3c0,.4,-.4,.6,-.7,.6H658v1.3h1.8c.2,0,.4,0,.4,.4c0,.1,-.2,.3,-.4,.3h-2.4v-2c0,-.3,.3,-.6,.6,-.6h1.5v-1.3h-1.8c-.1,0,-.3,-.1,-.3,-.3c0,-.1,.2,-.3,.3,-.3Zm4,0h2c.3,0,.4,.2,.4,.5v1.2c0,.2,0,.3,-.1,.5q.1,.3,.1,.6v1c0,.4,-.1,.7,-.4,.7h-2c-.2,0,-.3,-.2,-.3,-.3c0,-.4,.1,-.4,.3,-.4h2v-1c0,-.2,-.2,-.3,-.3,-.3h-1.1c-.2,0,-.3,-.2,-.3,-.3c0,-.2,.1,-.3,.3,-.3h1.1q.1,0,.1,-.3v-1h-1.8c-.2,0,-.3,-.1,-.3,-.3c0,-.1,.1,-.3,.3,-.3Zm7.9,0c.2,0,.3,.2,.3,.3V436H671v-1.7c0,-.2,.2,-.3,.3,-.3c.2,0,.3,.1,.3,.3V436c.2,0,.3,0,.3,.1c0,.2,-.1,.3,-.3,.3v1.1c0,.3,-.1,.5,-.3,.5c-.1,0,-.3,-.2,-.3,-.3v-1.3h-1.7v-2.6c0,-.1,.2,-.3,.3,-.3Zm7.7,0h.3c.1,0,.3,.2,.3,.3c0,.2,0,.3,-.3,.3V436h2c.1,0,.3,0,.3,.1v1.6c0,.1,-.2,.3,-.3,.3h-2.3c0,0,-.2,-.2,-.2,-.3v-3.9c0,-.1,0,-.3,.2,-.3Zm3.9,0h2.6v1.7q0,.2,-.1,.3l-.9,.6q0,.2,0,.3v1.1c0,.3,-.2,.5,-.3,.5c-.2,0,-.3,-.2,-.3,-.3v-1.6c0,0,0,-.1,.1,-.1l.8,-.8q.1,-.1,.1,-.3v-.8h-1.7q0,.2,-.3,.2c-.1,0,-.1,-.2,-.1,-.3v-.2c0,-.1,0,-.3,.1,-.3Zm8.4,0h1.1c.2,0,.3,.2,.3,.3v1.6c.3,.1,.5,.3,.5,.6v1.3c0,.4,-.3,.7,-.5,.7h-1.7c-.3,0,-.6,-.3,-.6,-.7V436c0,-.3,.3,-.5,.6,-.6v-1.6c0,-.1,0,-.3,.3,-.3Zm3.4,0h2.1c.2,0,.3,.2,.3,.3v3.9c0,.1,-.1,.3,-.3,.3H695c-.2,0,-.3,-.2,-.3,-.3c0,-.2,0,-.4,.1,-.4v-1.8H693c-.2,0,-.3,-.1,-.3,-.3v-1.4c0,-.1,.1,-.3,.3,-.3Zm4.3,0H699c.3,0,.4,.3,.4,.6v3.2c0,.4,-.1,.7,-.4,.7h-1.7c-.3,0,-.6,-.3,-.6,-.7v-3.2c0,-.3,.3,-.6,.6,-.6Zm3.6,0h1.4v3.8h.6v-1.2q0,-.1,.3,-.1q.2,0,.2,.1v1.6c0,.1,0,.3,-.2,.3h-2.3c-.1,0,-.3,-.2,-.3,-.3c0,-.4,.2,-.4,.3,-.4h1v-3.2h-1c-.1,0,-.3,-.1,-.3,-.3c0,-.1,.2,-.3,.3,-.3Zm7.8,0h1.9c.3,0,.6,.3,.6,.6v1.3c0,.4,-.3,.6,-.6,.6h-1.7v1.3h2c.1,0,.3,0,.3,.4c0,.1,-.2,.3,-.3,.3h-2.5v-2c0,-.3,.2,-.6,.5,-.6h1.7v-1.3h-1.9c-.3,0,-.3,-.1,-.3,-.3c0,-.1,0,-.3,.3,-.3Zm4,0h1.8c.3,0,.7,.2,.7,.5v1.2c0,.2,-.2,.3,-.4,.5c.2,.3,.4,.3,.4,.6v1c0,.4,-.4,.7,-.7,.7h-1.8c-.1,0,-.3,-.2,-.3,-.3c0,-.4,.2,-.4,.3,-.4h1.8v-1c0,-.2,-.1,-.3,-.3,-.3h-1c-.2,0,-.3,-.2,-.3,-.3c0,-.2,.1,-.3,.3,-.3h1c.2,0,.3,0,.3,-.3v-1h-1.8c-.1,0,-.3,-.1,-.3,-.3c0,-.1,.2,-.3,.3,-.3Zm4.1,0c.3,0,.3,.2,.3,.3V436h1.3v-1.7c0,-.2,0,-.3,.1,-.3c.2,0,.3,.1,.3,.3V436c.2,0,.3,0,.3,.1c0,.2,-.1,.3,-.3,.3v1.1c0,.3,-.1,.5,-.3,.5c-.1,0,-.1,-.2,-.1,-.3v-1.3h-1.9v-2.6c0,-.1,.2,-.3,.3,-.3Zm-43.2,0h1.8c.3,0,.3,.2,.3,.3c0,.2,0,.3,-.3,.3h-1.2v1.3h1.1c.3,0,.4,.3,.4,.6v1.3c0,.4,-.1,.7,-.4,.7h-1.2c-.2,0,-.3,-.2,-.5,-.2l-.3,-.1c-.2,0,-.2,-.2,-.2,-.4c0,-.1,0,-.3,.2,-.3q.1,0,.1,0l.2,.2l.3,.1h1.4V436h-1.7v-2.5Zm47.4,0h1.8c.1,0,.3,.2,.3,.3c0,.2,-.2,.3,-.3,.3h-1.4v1.3h1.1c.3,0,.6,.3,.6,.6v1.3c0,.4,-.3,.7,-.6,.7h-1.2c-.2,0,-.3,-.2,-.3,-.2l-.3,-.1c-.4,0,-.4,-.2,-.4,-.4c0,-.1,.2,-.3,.4,-.3l.1,.2l.3,.1q.2,0,.2,0h1.2V436H721v-2.5Zm-31.2,.6v1.3h.6v-1.3h-.6Zm-39.7,0v3.2h1.5v-3.2h-1.5Zm43.2,0v.8h1.5v-.8h-1.5Zm4,0v3.2H699v-3.2h-1.7Zm-8,1.9v1.3h1.6V436h-1.6Zm-11.7,.4v.9h1.7v-.9h-1.7Z" class="g1_2" />
<path fill-rule="evenodd" d="M649.5,388.3c-3.4,0,-6,2.6,-6,6v43.5c0,3.4,2.6,6,6,6h73.1c3.4,0,6,-2.6,6,-6V394.3c0,-3.4,-2.6,-6,-6,-6H649.5Zm4.1,18.2h.7v4.6h-5.1v-.2c0,-2.4,1.9,-4.4,4.4,-4.4Zm2,0h6.5c2.6,0,4.6,2,4.6,4.4v.2H655.6v-4.6Zm-6.4,5.8h5.1v4h-5.1v-4Zm6.4,0h4.6v4h-4.6v-4Zm5.8,0h5.3v4h-5.3v-4Zm-12.2,5.2h5.1v4.6h-.7c-2.5,0,-4.4,-2.2,-4.4,-4.6Zm6.4,0h4.6v4.6h-4.6v-4.6Zm5.8,0h5.3c0,2.4,-2,4.6,-4.6,4.6h-.7v-4.6Zm-11.3,13h1.5c.3,0,.6,.1,.6,.6v3.2c0,.3,-.3,.4,-.6,.4h-1.5c-.3,0,-.6,-.1,-.6,-.4v-3.4c0,-.3,.3,-.4,.6,-.4Zm3.6,0h1.4v3.8h.5v-1.2c0,-.2,.1,-.3,.3,-.3c.1,0,.3,.1,.3,.3v1.3c0,.3,-.2,.3,-.3,.3h-2.2c-.1,0,-.3,0,-.3,-.3c0,-.1,.2,-.1,.3,-.1h.8v-3.4h-.8c-.1,0,-.3,0,-.3,-.1c0,-.2,.2,-.3,.3,-.3Zm4,0h1.8c.3,0,.7,.1,.7,.6v1.2c0,.5,-.4,.6,-.7,.6H658v1.4h1.8c.2,0,.4,0,.4,.1c0,.3,-.2,.3,-.4,.3h-2.4v-1.8c0,-.3,.3,-.6,.6,-.6h1.5v-1.4h-1.8c-.1,0,-.3,0,-.3,-.1c0,-.2,.2,-.3,.3,-.3Zm4,0h2c.3,0,.4,.1,.4,.4v1.3c0,.1,0,.3,-.1,.4c.1,.2,.1,.3,.1,.6v1.1c0,.3,-.1,.4,-.4,.4h-2c-.2,0,-.3,0,-.3,-.3c0,-.1,.1,-.1,.3,-.1h2v-1.1c0,-.1,-.2,-.3,-.3,-.3h-1.1c-.2,0,-.3,-.1,-.3,-.3c0,-.1,.1,-.3,.3,-.3h1.1q.1,0,.1,-.3v-1.1h-1.8c-.2,0,-.3,0,-.3,-.1c0,-.2,.1,-.3,.3,-.3Zm7.9,0c.2,0,.3,.1,.3,.3v2H671v-1.6c0,-.1,.2,-.3,.3,-.3c.2,0,.3,.2,.3,.3v1.6c.2,.1,.3,.1,.3,.3c0,.1,-.1,.3,-.3,.3v1c0,.3,-.1,.3,-.3,.3c-.1,0,-.3,0,-.3,-.3v-1h-1.7v-2.6c0,-.2,.2,-.3,.3,-.3Zm7.7,0h.3c.1,0,.3,.1,.3,.3q0,.1,-.3,.1v1.9h2c.1,0,.3,.1,.3,.3v1.3c0,.3,-.2,.3,-.3,.3h-2.3c0,0,-.2,0,-.2,-.3v-3.6c0,-.2,0,-.3,.2,-.3Zm3.9,0h2.6v1.7q0,.1,-.1,.3l-.9,.6q0,.1,0,.3v1c0,.3,-.2,.3,-.3,.3c-.2,0,-.3,0,-.3,-.3v-1.3c0,0,0,-.2,.1,-.2l.8,-.7q.1,-.2,.1,-.4v-.9h-1.7q0,.3,-.3,.3c-.1,0,-.1,-.1,-.1,-.3v-.1c0,-.2,0,-.3,.1,-.3Zm8.4,0h1.1c.2,0,.3,.1,.3,.3v1.5c.3,.2,.5,.3,.5,.6v1.4c0,.3,-.3,.4,-.5,.4h-1.7c-.3,0,-.6,-.1,-.6,-.4v-1.4c0,-.3,.3,-.4,.6,-.6v-1.5c0,-.2,0,-.3,.3,-.3Zm3.4,0h2.1c.2,0,.3,.1,.3,.3v3.8c0,.1,-.1,.1,-.3,.1H695c-.2,0,-.3,0,-.3,-.3c0,0,0,-.1,.1,-.1v-1.8H693c-.2,0,-.3,-.2,-.3,-.3v-1.4c0,-.2,.1,-.3,.3,-.3Zm4.3,0H699c.3,0,.4,.1,.4,.6v3.2c0,.3,-.1,.4,-.4,.4h-1.7c-.3,0,-.6,-.1,-.6,-.4v-3.4c0,-.3,.3,-.4,.6,-.4Zm3.6,0h1.4v3.8h.6v-1.2c0,-.2,0,-.3,.3,-.3c.2,0,.2,.1,.2,.3v1.3q0,.3,-.2,.3h-2.3c-.1,0,-.3,0,-.3,-.3c0,-.1,.2,-.1,.3,-.1h1v-3.4h-1c-.1,0,-.3,0,-.3,-.1c0,-.2,.2,-.3,.3,-.3Zm7.8,0h1.9c.3,0,.6,.1,.6,.6v1.2c0,.5,-.3,.6,-.6,.6h-1.7v1.4h2c.1,0,.3,0,.3,.1c0,.3,-.2,.3,-.3,.3h-2.5v-1.8c0,-.3,.2,-.6,.5,-.6h1.7v-1.4h-1.9q-.3,0,-.3,-.1c0,-.2,0,-.3,.3,-.3Zm4,0h1.8c.3,0,.7,.1,.7,.4v1.3c0,.1,-.2,.3,-.4,.4c.2,.2,.4,.3,.4,.6v1.1c0,.3,-.4,.4,-.7,.4h-1.8c-.1,0,-.3,0,-.3,-.3c0,-.1,.2,-.1,.3,-.1h1.8v-1.1c0,-.1,-.1,-.3,-.3,-.3h-1c-.2,0,-.3,-.1,-.3,-.3c0,-.1,.1,-.3,.3,-.3h1c.2,0,.3,0,.3,-.3v-1.1h-1.8c-.1,0,-.3,0,-.3,-.1c0,-.2,.2,-.3,.3,-.3Zm4.1,0c.3,0,.3,.1,.3,.3v2h1.3v-1.6c0,-.1,0,-.3,.1,-.3c.2,0,.3,.2,.3,.3v1.6c.2,.1,.3,.1,.3,.3c0,.1,-.1,.3,-.3,.3v1c0,.3,-.1,.3,-.3,.3q-.1,0,-.1,-.3v-1h-1.9v-2.6c0,-.2,.2,-.3,.3,-.3Zm-43.2,0h1.8c.3,0,.3,.1,.3,.3q0,.1,-.3,.1h-1.2v1.4h1.1c.3,0,.4,.3,.4,.6v1.4c0,.3,-.1,.4,-.4,.4h-1.2c-.2,0,-.3,0,-.5,0l-.3,-.1q-.2,-.2,-.2,-.3c0,-.2,0,-.3,.2,-.3q.1,0,.1,0l.2,.1h.3q0,.2,0,.2h1.4v-1.4h-1.7v-2.4Zm47.4,0h1.8c.1,0,.3,.1,.3,.3c0,.1,-.2,.1,-.3,.1h-1.4v1.4h1.1c.3,0,.6,.3,.6,.6v1.4c0,.3,-.3,.4,-.6,.4h-1.2c-.2,0,-.3,0,-.3,0l-.3,-.1q-.4,-.2,-.4,-.3c0,-.2,.2,-.3,.4,-.3l.1,.1h.3q.2,.2,.2,.2h1.2v-1.4H721v-2.4Zm-31.2,.4v1.4h.6v-1.4h-.6Zm-39.7,0v3.4h1.5v-3.4h-1.5Zm43.2,0v.9h1.5v-.9h-1.5Zm4,0v3.4H699v-3.4h-1.7Zm-8,2v1.4h1.6v-1.4h-1.6Zm-11.7,.5v.9h1.7v-.9h-1.7Z" class="g9_2" />
<text x="605" y="442" class="s1_2">2</text>
<path fill-rule="evenodd" d="M824.4,234.8c7.9,6.7,11.1,16.3,12.7,24.6c1.3,8.2,.4,17.1,-6.8,21c-2.1,1.4,-4.5,1.9,-7.1,1.4H803.8l-20.4,-.4c-2.1,.4,-4.2,.1,-6.4,-1c-7.8,-3.5,-9.6,-12,-8.7,-20.4c.9,-8.6,4.1,-18.2,12.2,-25.2c12.6,-11,31.4,-11,43.9,0Z" class="g1_2" />
<path fill-rule="evenodd" d="M824.4,231.6c7.9,6.8,11.1,16.5,12.7,24.7c1.3,8.3,.4,17.1,-6.8,21.1c-2.1,1.4,-4.5,1.8,-7.1,1.4H803.8l-20.4,-.5c-2.1,.5,-4.2,.2,-6.4,-.9c-7.8,-3.5,-9.6,-12.1,-8.7,-20.6c.9,-8.4,4.1,-18.1,12.2,-25.2c12.6,-10.9,31.4,-10.9,43.9,0Z" class="g10_2" />
<path fill-rule="evenodd" d="M782.5,212.5l.2,-1.3v-.9l.1,-1.1l.2,-1l.3,-1.1l.3,-1.1l.3,-.9l.5,-1l.4,-1l.5,-.9l.6,-.9l.6,-.8l.6,-.9l.8,-.7l.6,-.8l.7,-.8l1,-.7l.7,-.6l.9,-.7l1,-.6l.9,-.4l.9,-.5l1.1,-.4l.9,-.3l1.1,-.4l.9,-.3l1,-.1l1.1,-.2H805l1.1,.2l.9,.1l1,.3l1.1,.4l.9,.3l1.1,.4l.9,.5l.9,.4l.9,.6l1,.7l.7,.6l.8,.7l.8,.6l.7,1l.8,.7l.6,.8l.6,.9l.5,.9l.6,.9l.4,1l.3,1l.5,.9l.3,1.1l.2,1.1l.3,1v1.1l.1,.9v2.3l-.1,.9v1.1l-.3,1.1l-.2,1.1l-.3,1l-.5,.9l-.3,1.1l-.4,.9l-.6,.9l-.5,1l-.6,.7l-.6,.9l-.8,.8l-.7,.8l-.7,.7l-.9,.8l-.7,.6l-1,.6l-.9,.6l-.9,.5l-.9,.4l-1.1,.5l-.9,.3L808,232l-1,.3l-.9,.2l-1.1,.1h-4.1l-1.1,-.1l-1.1,-.2l-.9,-.3l-1.1,-.3l-.9,-.3l-.9,-.5l-1.1,-.3l-.7,-.4l-.9,-.6l-1,-.5l-.7,-.8l-.8,-.6l-.8,-.6l-.7,-.7l-.8,-.8l-.6,-.8l-.6,-.7l-.6,-.9l-.5,-1l-.4,-.9l-.5,-.9l-.4,-.9l-.4,-1.1l-.3,-.9l-.1,-1.1l-.2,-.9l-.1,-1.1l-.2,-1v-.9Z" class="g1_2" />
<path fill-rule="evenodd" d="M782.5,210.6l.2,-1v-1l.1,-1l.2,-1.1l.3,-1.1l.3,-1l.3,-1l.5,-1l.4,-.9l.5,-1l.6,-.9l.6,-.7l.6,-1l.8,-.7l.6,-.8l.7,-.7l1,-.8l.7,-.6l.9,-.6l1,-.6l.9,-.5l.9,-.5l1.1,-.4l.9,-.3l1.1,-.3l.9,-.3l1,-.2l1.1,-.1H805l1.1,.1l.9,.2l1,.3l1.1,.3l.9,.3l1.1,.4l.9,.5l.9,.5l.9,.6l1,.6l.7,.6l.8,.8l.8,.6l.7,.7l.8,.9l.6,.8l.6,.9l.5,.9l.6,1l.4,.9l.3,1l.5,1l.3,1l.2,1.1l.3,1.1v1l.1,1v2.2l-.1,1v1l-.3,1.1l-.2,1.1l-.3,1l-.5,1l-.3,1l-.4,.9l-.6,1l-.5,.9l-.6,.7l-.6,1l-.8,.7l-.7,.8l-.7,.7l-.9,.8l-.7,.6l-1,.6l-.9,.6l-.9,.5l-.9,.5l-1.1,.4l-.9,.3l-1.1,.3l-1,.3l-.9,.2l-1.1,.1h-4.1l-1.1,-.1l-1.1,-.2l-.9,-.3l-1.1,-.3l-.9,-.3l-.9,-.4l-1.1,-.3l-.7,-.5l-.9,-.6l-1,-.5l-.7,-.7l-.8,-.6l-.8,-.7l-.7,-.7l-.8,-.8l-.6,-.7l-.6,-1l-.6,-.7l-.5,-.9l-.4,-1l-.5,-.9l-.4,-.9l-.4,-1.1l-.3,-.9l-.1,-1.1l-.2,-.9l-.1,-1l-.2,-1.1v-1.1Z" class="g8_2" />
<path d="M719.9,303.4L502.6,468.8" class="g11_2" />
<path fill-rule="evenodd" d="M736.8,290.4l-11.3,23L711.6,295.3l25.2,-4.9Z" class="g4_2" />
<path fill-rule="evenodd" d="M832.3,534.5c-2.4,0,-4.4,2,-4.4,4.4v31.8c0,2.5,2,4.5,4.4,4.5H886c2.4,0,4.4,-2,4.4,-4.5V538.9c0,-2.4,-2,-4.4,-4.4,-4.4H832.3Zm3.1,13.5h.4v3.2H832c0,-1.9,1.6,-3.2,3.4,-3.2Zm1.4,0h4.9c1.8,0,3.3,1.3,3.3,3.2h-8.2V548Zm-4.8,4.1h3.8V555H832v-2.9Zm4.8,0h3.3V555h-3.3v-2.9Zm4.2,0h4V555h-4v-2.9Zm-9,3.8h3.8v3.4h-.4c-1.8,0,-3.4,-1.6,-3.4,-3.2v-.2Zm4.8,0h3.3v3.4h-3.3v-3.4Zm4.2,0h4v.2c0,1.6,-1.5,3.2,-3.3,3.2H841v-3.4Zm-8.2,9.5H834c.2,0,.3,.3,.3,.4v2.5c0,.1,-.1,.3,-.3,.3h-1.4c-.1,0,-.3,-.2,-.3,-.3v-2.5c0,-.1,.2,-.4,.5,-.4Zm2.7,0h1v2.9h.4v-.9c0,0,0,-.2,.2,-.2c.1,0,.3,.2,.3,.2v1c0,.2,-.2,.2,-.3,.2h-1.6c-.1,0,-.3,0,-.3,-.2c0,-.1,.2,-.1,.3,-.1h.5v-2.5h-.5c-.1,0,-.3,0,-.3,-.1c0,-.2,.2,-.3,.3,-.3Zm2.9,0h1.4c.2,0,.3,.3,.3,.4v.9c0,.4,-.1,.5,-.3,.5h-1.2v1.1H840q.1,0,.1,.1q0,.2,-.1,.2h-1.9v-1.4c0,-.1,.2,-.5,.5,-.5h1.2v-.9h-1.4c-.1,0,-.3,0,-.3,-.1c0,-.2,.2,-.3,.3,-.3Zm2.9,0h1.4c.2,0,.3,.1,.3,.4v.9c0,0,0,.2,0,.4c0,.1,0,.3,0,.4v.8c0,.1,-.1,.3,-.3,.3h-1.4c-.1,0,-.3,0,-.3,-.2c0,-.1,.2,-.1,.3,-.1h1.4v-.8c0,-.1,-.1,-.3,-.1,-.3h-.9c0,0,-.2,0,-.2,-.1c0,-.2,.2,-.2,.2,-.2h.9c0,0,.1,-.2,.1,-.3v-.8h-1.4c-.1,0,-.3,0,-.3,-.1c0,-.2,.2,-.3,.3,-.3Zm5.9,0c.1,0,.1,.1,.1,.3v1.5h.9V566q0,-.2,.2,-.2q.1,0,.1,.2v1.2c.2,0,.3,0,.3,.2c0,.1,-.1,.3,-.3,.3v.7q0,.2,-.1,.2q-.2,0,-.2,-.2v-.7H847v-2c0,-.2,0,-.3,.2,-.3Zm5.6,0h.2c.1,0,.3,.1,.3,.3c0,.1,-.2,.1,-.3,.1v1.4h1.3c.2,0,.3,0,.3,.2v1c0,.2,-.1,.2,-.3,.2h-1.5q-.1,0,-.1,-.2v-2.7c0,-.2,0,-.3,.1,-.3Zm2.9,0h1.8v1.3l-.1,.2l-.6,.5q0,.1,0,.3v.7c0,.2,-.2,.2,-.3,.2c0,0,-.2,0,-.2,-.2v-1l.2,-.2l.6,-.5q0,-.1,0,-.3v-.6h-1.2q0,.2,-.2,.2q-.1,0,-.1,-.2v-.1c0,-.2,0,-.3,.1,-.3Zm6.1,0h.8c.1,0,.1,.1,.1,.3v1.2c.3,0,.5,.2,.5,.3v.9c0,.3,-.2,.5,-.5,.5h-1.2c-.1,0,-.3,-.2,-.3,-.3v-1.1c0,-.1,.2,-.3,.3,-.3v-1.2c0,-.2,.2,-.3,.3,-.3Zm2.5,0h1.6c0,0,.2,.1,.2,.3v2.7c0,.2,-.2,.2,-.2,.2h-.3c0,0,-.1,0,-.1,-.2c0,-.1,.1,-.1,.1,-.1v-1.4h-1.3c-.2,0,-.2,-.2,-.2,-.2v-1c0,-.2,0,-.3,.2,-.3Zm3.2,0h1c.3,0,.5,.3,.5,.4v2.5c0,.1,-.2,.3,-.5,.3h-1c-.3,0,-.5,-.2,-.5,-.3v-2.5c0,-.1,.2,-.4,.5,-.4Zm2.6,0h1v2.9h.5v-.9c0,0,0,-.2,.1,-.2c.2,0,.2,.2,.2,.2v1q0,.2,-.2,.2h-1.6c0,0,-.2,0,-.2,-.2c0,-.1,.2,-.1,.2,-.1h.6v-2.5h-.6c0,0,-.2,0,-.2,-.1c0,-.2,.2,-.3,.2,-.3Zm5.8,0h1.4c.1,0,.3,.3,.3,.4v.9c0,.4,-.2,.5,-.3,.5H876v1.1h1.4q.2,0,.2,.1q0,.2,-.2,.2h-1.8v-1.4c0,-.1,.1,-.5,.4,-.5h1.3v-.9h-1.4c-.2,0,-.3,0,-.3,-.1c0,-.2,.1,-.3,.3,-.3Zm2.7,0h1.6c.1,0,.3,.1,.3,.4v.9c0,0,0,.2,-.2,.4c.2,.1,.2,.3,.2,.4v.8c0,.1,-.2,.3,-.3,.3h-1.6c0,0,-.1,0,-.1,-.2c0,-.1,.1,-.1,.1,-.1h1.6v-.8c0,-.1,-.2,-.3,-.4,-.3h-.7q-.2,0,-.2,-.1q0,-.2,.2,-.2h.7c.2,0,.4,-.2,.4,-.3v-.8h-1.6c0,0,-.1,0,-.1,-.1c0,-.2,.1,-.3,.1,-.3Zm3.2,0c.2,0,.2,.1,.2,.3v1.5h.7V566c0,-.2,.2,-.2,.4,-.2q.1,0,.1,.2v1.2q.2,0,.2,.2c0,.1,0,.3,-.2,.3v.7q0,.2,-.1,.2c-.2,0,-.4,0,-.4,-.2v-.7h-1.2v-2c0,-.2,.2,-.3,.3,-.3Zm-31.7,0h1.3c.2,0,.3,.1,.3,.3c0,.1,-.1,.1,-.3,.1h-.9v1.1h.8c.1,0,.4,.2,.4,.3v.9c0,.3,-.3,.5,-.4,.5h-.9c0,0,-.2,0,-.3,0l-.2,-.2c-.1,0,-.3,0,-.3,-.1c0,-.2,.2,-.2,.3,-.2h.5v.2h.9v-1.1h-1.2v-1.8Zm34.6,0h1.4c.2,0,.3,.1,.3,.3c0,.1,-.1,.1,-.3,.1h-.9v1.1h.8c.3,0,.4,.2,.4,.3v.9c0,.3,-.3,.5,-.4,.5h-1c-.1,0,-.3,0,-.3,0l-.3,-.2c0,0,-.1,0,-.1,-.1c0,-.2,.1,-.2,.1,-.2q.2,0,.2,0h.4v.2h1v-1.1h-1.3v-1.8Zm-22.7,.4v1.1h.4v-1.1H862Zm-29.2,0v2.5H834v-2.5h-1.2Zm31.8,0v.6h1v-.6h-1Zm2.9,0v2.5h1v-2.5h-1Zm-6,1.4v1.1h1.2v-1.1h-1.2Zm-8.5,.5v.4h1.2v-.4H853Z" class="g1_2" />
<path fill-rule="evenodd" d="M832.3,531.5c-2.4,0,-4.4,1.9,-4.4,4.4v31.8c0,2.4,2,4.4,4.4,4.4H886c2.4,0,4.4,-2,4.4,-4.4V535.9c0,-2.5,-2,-4.4,-4.4,-4.4H832.3Zm3.1,13.2h.4v3.4H832c0,-1.8,1.6,-3.4,3.4,-3.4Zm1.4,0h4.9c1.8,0,3.3,1.6,3.3,3.4h-8.2v-3.4ZM832,549h3.8v2.9H832V549Zm4.8,0h3.3v2.9h-3.3V549Zm4.2,0h4v2.9h-4V549Zm-9,3.8h3.8v3.4h-.4c-1.8,0,-3.4,-1.5,-3.4,-3.4Zm4.8,0h3.3v3.4h-3.3v-3.4Zm4.2,0h4c0,1.9,-1.5,3.4,-3.3,3.4H841v-3.4Zm-8.2,9.5H834c.2,0,.3,.3,.3,.5v2.4c0,.2,-.1,.3,-.3,.3h-1.4c-.1,0,-.3,-.1,-.3,-.3v-2.4c0,-.2,.2,-.5,.5,-.5Zm2.7,0h1v2.9h.4v-.9q0,-.1,.2,-.1c.1,0,.3,0,.3,.1v1.1c0,.1,-.2,.1,-.3,.1h-1.6c-.1,0,-.3,0,-.3,-.1c0,-.2,.2,-.2,.3,-.2h.5v-2.4h-.5c-.1,0,-.3,-.2,-.3,-.2c0,-.1,.2,-.3,.3,-.3Zm2.9,0h1.4c.2,0,.3,.3,.3,.5v.9c0,.3,-.1,.5,-.3,.5h-1.2v1H840q.1,0,.1,.2q0,.1,-.1,.1h-1.9v-1.3c0,-.4,.2,-.5,.5,-.5h1.2v-.9h-1.4c-.1,0,-.3,-.2,-.3,-.2c0,-.1,.2,-.3,.3,-.3Zm2.9,0h1.4c.2,0,.3,.2,.3,.3v.9c0,.2,0,.3,0,.5q0,.2,0,.5v.7c0,.2,-.1,.3,-.3,.3h-1.4c-.1,0,-.3,0,-.3,-.1c0,-.2,.2,-.2,.3,-.2h1.4v-.7c0,-.2,-.1,-.3,-.1,-.3h-.9c0,0,-.2,0,-.2,-.2c0,-.2,.2,-.2,.2,-.2h.9c0,0,.1,-.1,.1,-.3v-.7h-1.4c-.1,0,-.3,-.2,-.3,-.2c0,-.1,.2,-.3,.3,-.3Zm5.9,0c.1,0,.1,.2,.1,.3v1.6h.9v-1.3c0,-.1,0,-.3,.2,-.3c.1,0,.1,.2,.1,.3v1.3c.2,0,.3,0,.3,.1c0,.2,-.1,.2,-.3,.2v.9q0,.1,-.1,.1q-.2,0,-.2,-.1v-.9H847v-1.9c0,-.1,0,-.3,.2,-.3Zm5.6,0h.2c.1,0,.3,.2,.3,.3c0,0,-.2,.2,-.3,.2v1.4h1.3c.2,0,.3,0,.3,.1v1.1c0,.1,-.1,.1,-.3,.1h-1.5q-.1,0,-.1,-.1v-2.8c0,-.1,0,-.3,.1,-.3Zm2.9,0h1.8v1.2q0,.2,-.1,.3l-.6,.5q0,.2,0,.2v.9c0,.1,-.2,.1,-.3,.1c0,0,-.2,0,-.2,-.1v-1.1c0,0,0,-.1,.2,-.1l.6,-.7v-.7h-1.2q0,.1,-.2,.1q-.1,0,-.1,-.1v-.2c0,-.1,0,-.3,.1,-.3Zm6.1,0h.8c.1,0,.1,.2,.1,.3v1.2c.3,0,.5,.2,.5,.4v.9c0,.3,-.2,.4,-.5,.4h-1.2c-.1,0,-.3,-.1,-.3,-.3v-1c0,-.2,.2,-.4,.3,-.4v-1.2c0,-.1,.2,-.3,.3,-.3Zm2.5,0h1.6c0,0,.2,.2,.2,.3v2.8c0,.1,-.2,.1,-.2,.1h-.3c0,0,-.1,0,-.1,-.1c0,-.2,.1,-.2,.1,-.2v-1.4h-1.3c-.2,0,-.2,-.1,-.2,-.3v-.9c0,-.1,0,-.3,.2,-.3Zm3.2,0h1c.3,0,.5,.3,.5,.5v2.4c0,.2,-.2,.3,-.5,.3h-1c-.3,0,-.5,-.1,-.5,-.3v-2.4c0,-.2,.2,-.5,.5,-.5Zm2.6,0h1v2.9h.5v-.9q0,-.1,.1,-.1q.2,0,.2,.1v1.1q0,.1,-.2,.1h-1.6c0,0,-.2,0,-.2,-.1c0,-.2,.2,-.2,.2,-.2h.6v-2.4h-.6c0,0,-.2,-.2,-.2,-.2c0,-.1,.2,-.3,.2,-.3Zm5.8,0h1.4c.1,0,.3,.3,.3,.5v.9c0,.3,-.2,.5,-.3,.5H876v1h1.4q.2,0,.2,.2q0,.1,-.2,.1h-1.8v-1.3c0,-.4,.1,-.5,.4,-.5h1.3v-.9h-1.4c-.2,0,-.3,-.2,-.3,-.2c0,-.1,.1,-.3,.3,-.3Zm2.7,0h1.6c.1,0,.3,.2,.3,.3v.9c0,.2,0,.3,-.2,.5q.2,.2,.2,.5v.7c0,.2,-.2,.3,-.3,.3h-1.6c0,0,-.1,0,-.1,-.1c0,-.2,.1,-.2,.1,-.2h1.6v-.7c0,-.2,-.2,-.3,-.4,-.3h-.7q-.2,0,-.2,-.2q0,-.2,.2,-.2h.7c.2,0,.4,-.1,.4,-.3v-.7h-1.6c0,0,-.1,-.2,-.1,-.2c0,-.1,.1,-.3,.1,-.3Zm3.2,0c.2,0,.2,.2,.2,.3v1.6h.7v-1.3c0,-.1,.2,-.3,.4,-.3c.1,0,.1,.2,.1,.3v1.3q.2,0,.2,.1q0,.2,-.2,.2v.9q0,.1,-.1,.1c-.2,0,-.4,0,-.4,-.1v-.9h-1.2v-1.9c0,-.1,.2,-.3,.3,-.3Zm-31.7,0h1.3c.2,0,.3,.2,.3,.3c0,0,-.1,.2,-.3,.2h-.9v1h.8c.1,0,.4,.2,.4,.4v.9c0,.3,-.3,.4,-.4,.4h-.9c0,0,-.2,0,-.3,0l-.2,-.1c-.1,0,-.3,-.2,-.3,-.2c0,-.1,.2,-.1,.3,-.1h.5v.1h.9v-1h-1.2v-1.9Zm34.6,0h1.4c.2,0,.3,.2,.3,.3c0,0,-.1,.2,-.3,.2h-.9v1h.8c.3,0,.4,.2,.4,.4v.9c0,.3,-.3,.4,-.4,.4h-1c-.1,0,-.3,0,-.3,0l-.3,-.1c0,0,-.1,-.2,-.1,-.2c0,-.1,.1,-.1,.1,-.1q.2,0,.2,0h.4v.1h1v-1h-1.3v-1.9Zm-22.7,.5v1h.4v-1H862Zm-29.2,0v2.4H834v-2.4h-1.2Zm31.8,0v.6h1v-.6h-1Zm2.9,0v2.4h1v-2.4h-1Zm-6,1.4v1h1.2v-1h-1.2Zm-8.5,.3v.6h1.2v-.6H853Z" class="g9_2" />
<text x="783" y="566" class="s1_2">3</text>
<path d="M834.2,777.3L523.7,578.7" class="g12_2" />
<path fill-rule="evenodd" d="M505.7,567.1l25.5,2.7l-12.4,19.3l-13.1,-22Z" class="g13_2" />
<path fill-rule="evenodd" d="M634.2,599.7c-2.3,0,-4.1,1.9,-4.1,4.2v30.4c0,2.3,1.8,4.3,4.1,4.3h51.3c2.3,0,4.1,-2,4.1,-4.3V603.9c0,-2.3,-1.8,-4.2,-4.1,-4.2H634.2Zm2.9,12.7h.4v3.2H634v-.1c0,-1.7,1.4,-3.1,3.1,-3.1Zm1.4,0h4.7c1.7,0,3.1,1.4,3.1,3.1v.1h-7.8v-3.2Zm-4.5,4.2h3.5v2.6H634v-2.6Zm4.5,0h3.2v2.6h-3.2v-2.6Zm4.1,0h3.7v2.6h-3.7v-2.6Zm-8.6,3.5h3.5v3.2h-.4c-1.7,0,-3.1,-1.4,-3.1,-3.1v-.1Zm4.5,0h3.2v3.2h-3.2v-3.2Zm4.1,0h3.7v.1c0,1.7,-1.4,3.1,-3.1,3.1h-.6v-3.2Zm-8,9.1h1.1c.3,0,.5,.2,.5,.3v2.3c0,.3,-.2,.5,-.5,.5h-1.1c-.3,0,-.4,-.3,-.4,-.5v-2.3c0,-.1,.1,-.3,.4,-.3Zm2.6,0h1v2.6h.4v-.7q0,-.2,.2,-.2q.1,0,.1,.2v.9c0,.1,0,.3,-.1,.3h-1.6c-.1,0,-.3,-.2,-.3,-.3c0,0,.2,-.2,.3,-.2h.6v-2.3h-.6c-.1,0,-.3,0,-.3,-.1c0,-.2,.2,-.2,.3,-.2Zm2.8,0h1.4c.1,0,.3,.2,.3,.3v1c0,.3,-.2,.4,-.3,.4h-1.3v.9h1.4c.2,0,.2,.2,.2,.2c0,.1,0,.3,-.2,.3h-1.7v-1.4c0,-.1,.2,-.4,.3,-.4h1.3v-1H640q-.2,0,-.2,-.1q0,-.2,.2,-.2Zm2.7,0h1.4c.2,0,.5,.2,.5,.3v1c0,0,-.2,.1,-.2,.3q.2,.1,.2,.3v.7c0,.3,-.2,.5,-.5,.5h-1.4c0,0,-.1,-.2,-.1,-.3c0,0,.1,-.2,.1,-.2h1.4v-.6c0,-.1,0,-.3,-.1,-.3h-.8c-.2,0,-.2,-.1,-.2,-.1c0,-.2,0,-.3,.2,-.3h.8q.1,0,.1,-.2v-.8h-1.4c0,0,-.1,0,-.1,-.1c0,-.2,.1,-.2,.1,-.2Zm5.7,0q.1,0,.1,.2v1.5h.8v-1.2c0,-.2,.2,-.2,.2,-.2c.1,0,.3,0,.3,.2v1.2q.1,0,.1,.2c0,0,-.1,.1,-.1,.1v.8c0,.1,-.2,.3,-.3,.3c0,0,-.2,-.2,-.2,-.3v-.8h-1.1v-1.8q0,-.2,.2,-.2Zm5.3,0h.2c.1,0,.3,0,.3,.2c0,.1,-.2,.1,-.3,.1v1.3h1.4c.1,0,.3,.1,.3,.3v.9c0,.1,-.2,.3,-.3,.3h-1.6c-.1,0,-.1,-.2,-.1,-.3v-2.6q0,-.2,.1,-.2Zm2.8,0h1.8v1.3l-.1,.1l-.6,.5c0,0,0,.1,0,.1v.8c0,.1,-.2,.3,-.3,.3c0,0,-.2,-.2,-.2,-.3v-.9c0,0,0,-.2,.2,-.2l.6,-.4q0,-.2,0,-.3v-.7h-1.1q-.2,.2,-.3,.2c0,0,-.2,0,-.2,-.2v-.1q0,-.2,.2,-.2Zm5.8,0h.8c.1,0,.3,0,.3,.2v1.1c.1,.1,.3,.3,.3,.4v.9c0,.3,-.2,.5,-.3,.5h-1.3c-.3,0,-.4,-.2,-.4,-.5v-.9c0,-.1,.1,-.3,.4,-.4v-1.1q0,-.2,.2,-.2Zm2.4,0h1.6q.1,0,.1,.2V632c0,.1,0,.3,-.1,.3h-.2c-.1,0,-.1,-.2,-.1,-.3c0,0,0,-.2,.1,-.2v-1.2h-1.4c-.1,0,-.1,-.1,-.1,-.1v-1.1q0,-.2,.1,-.2Zm2.9,0h1.3c.3,0,.4,.2,.4,.3v2.3c0,.3,-.3,.5,-.4,.5h-1.3c-.1,0,-.3,-.3,-.3,-.5v-2.3c0,-.1,.2,-.3,.3,-.3Zm2.8,0h.9v2.6h.3v-.7c0,-.2,.2,-.2,.3,-.2c0,0,.2,0,.2,.2v.9c0,.1,-.2,.3,-.2,.3h-1.5c-.2,0,-.3,-.2,-.3,-.3c0,0,.1,-.2,.3,-.2h.4v-2.3h-.4c-.2,0,-.3,0,-.3,-.1c0,-.2,.1,-.2,.3,-.2Zm5.3,0h1.4c.2,0,.3,.2,.3,.3v1c0,.3,-.1,.4,-.3,.4h-1.2v.9h1.4c.1,0,.1,.2,.1,.2c0,.1,0,.3,-.1,.3h-1.9v-1.4c0,-.1,.3,-.4,.5,-.4h1.2v-1h-1.4c-.1,0,-.3,0,-.3,-.1c0,-.2,.2,-.2,.3,-.2Zm2.8,0h1.4c.1,0,.3,.2,.3,.3v1c0,0,0,.1,0,.3q0,.1,0,.3v.7c0,.3,-.2,.5,-.3,.5h-1.4c-.2,0,-.2,-.2,-.2,-.3c0,0,0,-.2,.2,-.2h1.4v-.6c0,-.1,-.2,-.3,-.3,-.3h-.7c-.1,0,-.3,-.1,-.3,-.1c0,-.2,.2,-.3,.3,-.3h.7c.1,0,.3,0,.3,-.2v-.8h-1.4q-.2,0,-.2,-.1q0,-.2,.2,-.2Zm3,0c0,0,.2,0,.2,.2v1.5h.8v-1.2q0,-.2,.1,-.2q.2,0,.2,.2v1.2c.1,0,.3,0,.3,.2c0,0,-.2,.1,-.2,.1h-.1v.8c0,.1,0,.3,-.2,.3c-.1,0,-.1,-.2,-.1,-.3v-.8h-1.3v-1.8c0,-.2,.2,-.2,.3,-.2Zm-30.4,0h1.4q.2,0,.2,.2q0,.1,-.2,.1h-.9v1h.8c.1,0,.3,.3,.3,.4v.9c0,.3,-.2,.5,-.3,.5h-1c-.1,0,-.1,-.2,-.3,-.2H651q-.2,-.1,-.2,-.3c0,0,0,-.1,.2,-.1h.1l.2,.1q.1,0,.1,0h1v-.9h-1.3v-1.7Zm33.2,0h1.4c0,0,.1,0,.1,.2c0,.1,-.1,.1,-.1,.1h-1.1v1h.8c.3,0,.4,.3,.4,.4v.9c0,.3,-.1,.5,-.4,.5h-1c0,0,-.1,-.2,-.1,-.2H684q-.2,-.1,-.2,-.3c0,0,.2,-.1,.3,-.1l.3,.1h1v-.9h-1.1v-1.7Zm-21.9,.3v1h.5v-1h-.5Zm-27.8,0v2.3h1.1v-2.3h-1.1Zm30.3,0v.7h1.2v-.7h-1.2Zm2.7,0v2.3h1.3v-2.3h-1.3Zm-5.5,1.4v.9h1.3v-.9h-1.3Zm-8.2,.3v.6h1.2v-.6h-1.2Z" class="g1_2" />
<path fill-rule="evenodd" d="M634.2,596.5c-2.3,0,-4.1,2,-4.1,4.3v30.4c0,2.3,1.8,4.1,4.1,4.1h51.3c2.3,0,4.1,-1.8,4.1,-4.1V600.8c0,-2.3,-1.8,-4.3,-4.1,-4.3H634.2Zm2.9,12.9h.4v3.2H634v-.2c0,-1.7,1.4,-3,3.1,-3Zm1.4,0h4.7c1.7,0,3.1,1.3,3.1,3v.2h-7.8v-3.2Zm-4.5,3.9h3.5v2.8H634v-2.8Zm4.5,0h3.2v2.8h-3.2v-2.8Zm4.1,0h3.7v2.8h-3.7v-2.8ZM634,617h3.5v3.2h-.4c-1.7,0,-3.1,-1.4,-3.1,-3V617Zm4.5,0h3.2v3.2h-3.2V617Zm4.1,0h3.7v.2c0,1.6,-1.4,3,-3.1,3h-.6V617Zm-8,9h1.1c.3,0,.5,.3,.5,.5v2.3c0,.1,-.2,.4,-.5,.4h-1.1c-.3,0,-.4,-.3,-.4,-.4v-2.3c0,-.2,.1,-.5,.4,-.5Zm2.6,0h1v2.8h.4V628q0,-.1,.2,-.1q.1,0,.1,.1v.9c0,.2,0,.3,-.1,.3h-1.6c-.1,0,-.3,-.1,-.3,-.3c0,0,.2,-.1,.3,-.1h.6v-2.3h-.6c-.1,0,-.3,0,-.3,-.2c0,-.1,.2,-.3,.3,-.3Zm2.8,0h1.4c.1,0,.3,.3,.3,.5v.9c0,.3,-.2,.5,-.3,.5h-1.3v.9h1.4c.2,0,.2,.1,.2,.1c0,.2,0,.3,-.2,.3h-1.7v-1.3c0,-.3,.2,-.5,.3,-.5h1.3v-.9H640q-.2,0,-.2,-.2c0,-.1,0,-.3,.2,-.3Zm2.7,0h1.4c.2,0,.5,.3,.5,.5v.7c0,.2,-.2,.4,-.2,.5q.2,.2,.2,.3v.8c0,.1,-.2,.4,-.5,.4h-1.4c0,0,-.1,-.1,-.1,-.3c0,0,.1,-.1,.1,-.1h1.4v-.6q0,-.3,-.1,-.3h-.8c-.2,0,-.2,-.2,-.2,-.2c0,-.1,0,-.3,.2,-.3h.8q.1,0,.1,-.2v-.7h-1.4c0,0,-.1,0,-.1,-.2c0,-.1,.1,-.3,.1,-.3Zm5.7,0c.1,0,.1,.2,.1,.3v1.6h.8v-1.3c0,-.1,.2,-.1,.2,-.1c.1,0,.3,0,.3,.1v1.3q.1,0,.1,.1c0,0,-.1,.2,-.1,.2v.7c0,.2,-.2,.3,-.3,.3c0,0,-.2,-.1,-.2,-.3v-.7h-1.1v-1.9c0,-.1,0,-.3,.2,-.3Zm5.3,0h.2c.1,0,.3,.2,.3,.3c0,0,-.2,.2,-.3,.2v1.2h1.4c.1,0,.3,.2,.3,.3v.9c0,.2,-.2,.3,-.3,.3h-1.6c-.1,0,-.1,-.1,-.1,-.3v-2.6c0,-.1,0,-.3,.1,-.3Zm2.8,0h1.8v1.2q0,.2,-.1,.4l-.6,.4c0,0,0,.2,0,.2v.7c0,.2,-.2,.3,-.3,.3c0,0,-.2,-.1,-.2,-.3V628q0,-.1,.2,-.1l.6,-.7v-.7h-1.1q-.2,.1,-.3,.1c0,0,-.2,0,-.2,-.1v-.2c0,-.1,0,-.3,.2,-.3Zm5.8,0h.8c.1,0,.3,.2,.3,.3v1.1c.1,.2,.3,.2,.3,.5v.9c0,.1,-.2,.4,-.3,.4h-1.3c-.3,0,-.4,-.3,-.4,-.4v-.9c0,-.3,.1,-.3,.4,-.5v-1.1c0,-.1,0,-.3,.2,-.3Zm2.4,0h1.6c.1,0,.1,.2,.1,.3v2.6c0,.2,0,.3,-.1,.3h-.2c-.1,0,-.1,-.1,-.1,-.3c0,0,0,-.1,.1,-.1v-1.2h-1.4c-.1,0,-.1,-.2,-.1,-.4v-.9c0,-.1,0,-.3,.1,-.3Zm2.9,0h1.3c.3,0,.4,.3,.4,.5v2.3c0,.1,-.3,.4,-.4,.4h-1.3c-.1,0,-.3,-.3,-.3,-.4v-2.3c0,-.2,.2,-.5,.3,-.5Zm2.8,0h.9v2.8h.3V628c0,-.1,.2,-.1,.3,-.1c0,0,.2,0,.2,.1v.9c0,.2,-.2,.3,-.2,.3h-1.5c-.2,0,-.3,-.1,-.3,-.3c0,0,.1,-.1,.3,-.1h.4v-2.3h-.4c-.2,0,-.3,0,-.3,-.2c0,-.1,.1,-.3,.3,-.3Zm5.3,0h1.4c.2,0,.3,.3,.3,.5v.9c0,.3,-.1,.5,-.3,.5h-1.2v.9h1.4c.1,0,.1,.1,.1,.1c0,.2,0,.3,-.1,.3h-1.9v-1.3c0,-.3,.3,-.5,.5,-.5h1.2v-.9h-1.4c-.1,0,-.3,0,-.3,-.2c0,-.1,.2,-.3,.3,-.3Zm2.8,0h1.4c.1,0,.3,.3,.3,.5v.7c0,.2,0,.4,0,.5q0,.2,0,.3v.8c0,.1,-.2,.4,-.3,.4h-1.4c-.2,0,-.2,-.1,-.2,-.3c0,0,0,-.1,.2,-.1h1.4v-.6c0,-.3,-.2,-.3,-.3,-.3h-.7c-.1,0,-.3,-.2,-.3,-.2c0,-.1,.2,-.3,.3,-.3h.7c.1,0,.3,0,.3,-.2v-.7h-1.4q-.2,0,-.2,-.2c0,-.1,0,-.3,.2,-.3Zm3,0c0,0,.2,.2,.2,.3v1.6h.8v-1.3q0,-.1,.1,-.1q.2,0,.2,.1v1.3c.1,0,.3,0,.3,.1c0,0,-.2,.2,-.2,.2h-.1v.7c0,.2,0,.3,-.2,.3c-.1,0,-.1,-.1,-.1,-.3v-.7h-1.3v-1.9c0,-.1,.2,-.3,.3,-.3Zm-30.4,.2h1.4c.2,-.2,.2,0,.2,.1q0,.2,-.2,.2h-.9v.9h.8c.1,0,.3,.2,.3,.5v.9c0,.1,-.2,.4,-.3,.4h-1c-.1,0,-.1,-.1,-.3,-.1l-.1,-.2q-.2,0,-.2,-.1q0,-.2,.2,-.2h.1l.2,.2q.1,0,.1,0h1v-.9h-1.3v-1.7Zm33.2,0h1.4c0,-.2,.1,0,.1,.1c0,.2,-.1,.2,-.1,.2h-1.1v.9h.8c.3,0,.4,.2,.4,.5v.9c0,.1,-.1,.4,-.4,.4h-1c0,0,-.1,-.1,-.1,-.1l-.3,-.2q-.2,0,-.2,-.1c0,-.2,.2,-.2,.3,-.2l.3,.2h1v-.9h-1.1v-1.7Zm-21.9,.3v.9h.5v-.9h-.5Zm-27.8,0v2.3h1.1v-2.3h-1.1Zm30.3,0v.6h1.2v-.6h-1.2Zm2.7,0v2.3h1.3v-2.3h-1.3Zm-5.5,1.4v.9h1.3v-.9h-1.3Zm-8.2,.3v.6h1.2v-.6h-1.2Z" class="g9_2" />
<text x="689" y="630" class="s2_2">?</text>
<path d="M792.2,798.4L511.7,623" class="g11_2" />
<path fill-rule="evenodd" d="M810.2,809.7l-25.5,-2.5l12.2,-19.4l13.3,21.9Z" class="g4_2" />
<text x="585" y="725" class="s2_2">!</text>
<path fill-rule="evenodd" d="M559.3,683.2c-.3,0,-.6,0,-.7,.3c-1,.7,-1.9,2.1,-1.7,4.6c.3,3.9,3.8,5.3,1.3,9.6c0,0,-1.9,-.2,-5.8,.6c-3.2,.6,-4.5,.1,-5.9,.9c-2.5,1.2,-1.7,4.4,.8,5.5c-2.2,1.2,-2.6,4.4,.9,5.8c-2.2,2,-2.2,4.7,1,5.7c-2.1,2.1,-.1,4.7,2.2,4.7c16.8,0,13.9,-1.2,19.2,-1.2c5.8,0,9.8,2.3,9.8,2.3V704.4c0,0,-4.9,-1.4,-8.2,-3.2c-1.4,-.6,-2.8,-1.5,-4.2,-6.3c-1.3,-4.2,-4.2,-4.7,-5.3,-6.5c-.6,-1,-1.5,-3.1,-2.2,-4.6c-.3,-.5,-.7,-.6,-1.2,-.6Z" class="g1_2" />
<path fill-rule="evenodd" d="M559.3,680c-.3,0,-.6,.1,-.7,.3c-1,.9,-1.9,2.3,-1.7,4.5c.3,4.2,3.8,5.5,1.3,9.8c0,0,-1.9,-.1,-5.8,.6c-3.2,.6,-4.5,.2,-5.9,1c-2.5,1.2,-1.7,4.4,.8,5.5c-2.2,1.2,-2.6,4.4,.9,5.8c-2.2,1.9,-2.2,4.5,1,5.5c-2.1,2.2,-.1,4.8,2.2,4.8c16.8,0,13.9,-1.2,19.2,-1.2c5.8,0,9.8,2.3,9.8,2.3V701.3c0,0,-4.9,-1.3,-8.2,-3.2c-1.4,-.6,-2.8,-1.5,-4.2,-6.2c-1.3,-4.3,-4.2,-4.8,-5.3,-6.6c-.6,-.9,-1.5,-3.1,-2.2,-4.6c-.3,-.4,-.7,-.7,-1.2,-.7Z" class="g6_2" />
<text x="597" y="608" class="s1_2">4</text>
<text x="513" y="701" class="s1_2">5</text>
<path d="M961,276.3V705.2" class="g12_2" />
<path fill-rule="evenodd" d="M961,254.9l11.4,22.9H949.5L961,254.9Z" class="g13_2" />
<path fill-rule="evenodd" d="M977,440.4c0,5.7,3.7,11,9.6,14.2c-5.9,3.2,-9.6,8.4,-9.6,14.2c0,5.8,3.7,11.2,9.8,14.2c-6.1,3.2,-9.8,8.6,-9.8,14.2c0,5.8,3.8,11.2,9.8,14.4c-6,3.2,-9.8,8.6,-9.8,14.2h4.3c0,-1.1,.1,-2.1,.6,-3.2h21.4c.3,1.1,.6,2.1,.6,3.2h4.3c0,-5.6,-3.8,-11,-9.8,-14.2c6,-3.2,9.8,-8.6,9.8,-14.4c0,-5.6,-3.8,-11,-9.8,-14.2c6,-3,9.8,-8.4,9.8,-14.2c0,-5.8,-3.8,-11,-9.8,-14.2c6,-3.2,9.8,-8.5,9.8,-14.2h-4.3c0,1.1,-.3,2,-.6,3.1H981.7c-.3,-1.1,-.4,-2,-.4,-3.1H977Zm6.1,5.5h19c-2,2.9,-5.2,5.2,-9.5,6.4c-4.3,-1.2,-7.6,-3.5,-9.5,-6.4Zm9.5,11c4.3,1.2,7.5,3.5,9.5,6.3h-19c1.9,-2.8,5.2,-5.1,9.5,-6.3Zm-10.9,8.9h21.6c.3,1,.6,1.9,.6,3c0,.9,-.1,2,-.6,2.9H981.7c-.3,-.9,-.4,-2,-.4,-2.9c0,-1.1,.1,-2,.4,-3Zm1.4,8.5h19c-1.9,2.9,-5.2,5.2,-9.5,6.4c-4.3,-1.2,-7.6,-3.5,-9.5,-6.4Zm9.5,11c4.1,1.2,7.5,3.5,9.5,6.3h-19c2,-2.8,5.4,-5.1,9.5,-6.3Zm-10.7,8.9h21.4c.3,1,.6,2.1,.6,3c0,1.1,-.1,2,-.5,2.9H981.7c-.3,-.9,-.4,-1.8,-.4,-2.9c0,-.9,.1,-2,.6,-3Zm1.1,8.5h19.1c-1.9,2.9,-5.2,5.2,-9.5,6.6c-4.3,-1.4,-7.6,-3.7,-9.6,-6.6Zm9.6,11.2c4.1,1.2,7.3,3.3,9.3,6.1H983.1c2,-2.8,5.4,-4.9,9.5,-6.1Z" class="g1_2" />
<path fill-rule="evenodd" d="M977,437.3c0,5.7,3.7,11,9.6,14.3c-5.9,3.2,-9.6,8.4,-9.6,14.2c0,5.8,3.7,11,9.8,14.2c-6.1,3.2,-9.8,8.5,-9.8,14.2c0,5.8,3.8,11.1,9.8,14.3c-6,3.2,-9.8,8.4,-9.8,14.2h4.3c0,-1,.1,-2.1,.6,-3.2h21.4c.3,1.1,.6,2.2,.6,3.2h4.3c0,-5.8,-3.8,-11,-9.8,-14.2c6,-3.2,9.8,-8.5,9.8,-14.3c0,-5.7,-3.8,-11,-9.8,-14.2c6,-3.2,9.8,-8.4,9.8,-14.2c0,-5.8,-3.8,-11,-9.8,-14.2c6,-3.3,9.8,-8.6,9.8,-14.3h-4.3c0,1,-.3,2,-.6,2.9H981.7c-.3,-.9,-.4,-1.9,-.4,-2.9H977Zm6.1,5.5h19c-2,2.9,-5.2,5.2,-9.5,6.5c-4.3,-1.3,-7.6,-3.6,-9.5,-6.5Zm9.5,11c4.3,1.3,7.5,3.6,9.5,6.3h-19c1.9,-2.7,5.2,-5,9.5,-6.3Zm-10.9,8.9h21.6c.3,.9,.6,2,.6,3.1c0,.9,-.1,1.9,-.6,2.9H981.7c-.3,-1,-.4,-2,-.4,-2.9c0,-1.1,.1,-2.2,.4,-3.1Zm1.4,8.6h19c-1.9,2.9,-5.2,5.2,-9.5,6.4c-4.3,-1.2,-7.6,-3.5,-9.5,-6.4Zm9.5,11c4.1,1.2,7.5,3.5,9.5,6.2h-19c2,-2.7,5.4,-5,9.5,-6.2Zm-10.7,8.8h21.4c.3,1.1,.6,2.2,.6,3.1c0,1,-.1,2,-.5,2.9H981.7c-.3,-.9,-.4,-1.9,-.4,-2.9c0,-.9,.1,-2,.6,-3.1Zm1.1,8.6h19.1c-1.9,2.9,-5.2,5.2,-9.5,6.5c-4.3,-1.3,-7.6,-3.6,-9.6,-6.5Zm9.6,11.1c4.1,1.3,7.3,3.4,9.3,6.1H983.1c2,-2.7,5.4,-4.8,9.5,-6.1Z" class="g6_2" />
<text x="1023" y="508" class="s1_2">6</text>


<!-- Any embedded fonts defined here -->
<style type="text/css" ><![CDATA[

@font-face {
	font-family: DejaVuSans-Bold_2w;
	src: url("fonts/DejaVuSans-Bold_2w.woff") format("woff");
}

@font-face {
	font-family: DejaVuSans-Oblique_2_;
	src: url("fonts/DejaVuSans-Oblique_2_.woff") format("woff");
}

]]></style>

</svg>
