<?xml version="1.0" encoding="UTF-8" standalone="no"?>
<!DOCTYPE svg PUBLIC "-//W3C//DTD SVG 1.1//EN"
"http://www.w3.org/Graphics/SVG/1.1/DTD/svg11.dtd">


<!-- Page 4 -->
<svg x="0" y="0" width="1564" height="1173" viewBox="0 0 1564 1173" version="1.1" xmlns="http://www.w3.org/2000/svg" xmlns:xlink="http://www.w3.org/1999/xlink"
style="display: block;margin-left: auto;margin-right: auto;">
<defs>
<clipPath id="c0_4"><path d="M0,1173.3V0H1564.4V1173.3Z" /></clipPath>

<style type="text/css"><![CDATA[

.g0_4{
fill: #FFFFFF;
}
.g1_4{
fill-opacity: 0.5;
}
.g2_4{
fill: #0175AE;
}
.g3_4{
fill: #70BF41;
}
.g4_4{
fill: none;
stroke: #000000;
stroke-width: 3.069764;
stroke-linecap: butt;
stroke-linejoin: miter;
stroke-miterlimit: 7;
stroke-opacity: 0.5;
}
.g5_4{
fill: #0077B1;
fill-opacity: 0.52;
}
.g6_4{
fill: none;
stroke: #0077B1;
stroke-width: 3.069764;
stroke-linecap: butt;
stroke-linejoin: miter;
stroke-miterlimit: 7;
}
.g7_4{
fill: none;
stroke: #000000;
stroke-width: 3.069764;
stroke-linecap: butt;
stroke-linejoin: miter;
}
.g8_4{
}
.g9_4{
fill: #F38F18;
}
.g10_4{
fill: #F38F18;
fill-opacity: 0.5;
}
.g11_4{
fill: none;
stroke: #F38F18;
stroke-width: 6.0962915;
stroke-linecap: butt;
stroke-linejoin: miter;
}
.g12_4{
fill-opacity: 0.34;
}
.g13_4{
fill: none;
stroke: #000000;
stroke-width: 6.0962915;
stroke-linecap: butt;
stroke-linejoin: miter;
stroke-opacity: 0.5;
}
.g14_4{
fill: #FFFFFF;
fill-opacity: 0.34;
}
.g15_4{
fill: none;
stroke: #002452;
stroke-width: 6.0962915;
stroke-linecap: butt;
stroke-linejoin: miter;
}
.g16_4{
fill-opacity: 0.75;
}
.g17_4{
fill: #5290B7;
}

.s1_4{
font-size: 27.50px;
font-family: DejaVuSans-Oblique_c-;
fill: #000000;
}
.s2_4{
font-size: 36.67px;
font-family: DejaVuSans_d3;
fill: #000000;
}

]]></style>

</defs>
<path d="M0,0
L0,1173
L1564,1173
L1564,0 Z " 
fill="#FFFFFF" stroke="none" />
<g clip-path="url(#c0_4)">
<path fill-rule="evenodd" d="M0,.1H1564.4V1173.4H0V.1Z" class="g0_4" />
<path fill-rule="evenodd" d="M0,.1H1564.4V1173.4H0V.1Z" class="g0_4" />
</g>
<path fill-rule="evenodd" d="M1164.8,743.1c-12.5,0,-25.1,1.5,-34.6,4.4c-19,5.6,-19,15.1,0,20.9c19.1,5.7,50.2,5.7,69.3,0c19.1,-5.8,19.1,-15.3,0,-20.9c-9.7,-2.9,-22.2,-4.4,-34.7,-4.4Zm-48.9,21.5v92.1c0,8.3,21.8,15.8,48.9,15.8c27,0,49,-7.5,49,-15.8V764.6c-7,6.1,-26.3,10.5,-49,10.5c-22.6,0,-42,-4.4,-48.9,-10.5Z" class="g1_4" />
<path fill-rule="evenodd" d="M1164.8,740c-12.5,0,-25.1,1.5,-34.6,4.4c-19,5.7,-19,15.2,0,21c19.1,5.6,50.2,5.6,69.3,0c19.1,-5.8,19.1,-15.3,0,-21c-9.7,-2.9,-22.2,-4.4,-34.7,-4.4Zm-48.9,21.5v92.2c0,8.2,21.8,15.7,48.9,15.7c27,0,49,-7.5,49,-15.7V761.5c-7,6.2,-26.3,10.6,-49,10.6c-22.6,0,-42,-4.4,-48.9,-10.6Z" class="g2_4" />
<path fill-rule="evenodd" d="M1152.4,782c0,4.4,2.9,8.7,7.8,11.3c-4.9,2.6,-7.8,6.9,-7.8,11.5c0,4.6,2.9,8.8,7.8,11.4c-4.9,2.5,-7.8,6.8,-7.8,11.3c0,4.8,2.9,9.1,7.8,11.5c-4.9,2.6,-7.8,6.9,-7.8,11.5h3.4c0,-1,.1,-1.7,.4,-2.6h17.1c.3,.9,.5,1.6,.5,2.6h3.5c0,-4.6,-3.1,-8.9,-7.8,-11.5c4.7,-2.4,7.8,-6.7,7.8,-11.5c0,-4.5,-3.1,-8.8,-7.8,-11.3c4.7,-2.6,7.8,-6.8,7.8,-11.4c0,-4.6,-3.1,-8.9,-7.8,-11.5c4.7,-2.6,7.8,-6.9,7.8,-11.3h-3.5c0,.8,-.2,1.5,-.3,2.3h-17.3c-.3,-.8,-.4,-1.5,-.4,-2.3h-3.4Zm4.9,4.4h15.1c-1.5,2.3,-4.3,4.2,-7.6,5.1c-3.4,-.9,-6,-2.8,-7.5,-5.1Zm7.5,8.8c3.3,1,6.1,2.9,7.6,5.1h-15.1c1.5,-2.2,4.1,-4.1,7.5,-5.1Zm-8.6,7.1h17.3c.1,.8,.3,1.6,.3,2.5c0,.7,-.2,1.5,-.3,2.3h-17.3c-.3,-.8,-.4,-1.6,-.4,-2.3c0,-.9,.1,-1.7,.4,-2.5Zm.9,6.9h15.3c-1.5,2.3,-4.3,4.1,-7.6,5.2c-3.4,-1.1,-6,-2.9,-7.7,-5.2Zm7.7,8.9c3.3,.9,5.9,2.7,7.6,5h-15.1c1.5,-2.3,4.3,-4.1,7.5,-5Zm-8.6,7h17.3c.1,.8,.3,1.7,.3,2.4c0,1,-.2,1.7,-.3,2.5h-17.3c-.3,-.8,-.4,-1.5,-.4,-2.5c0,-.7,.1,-1.6,.4,-2.4Zm.9,6.9h15.5c-1.7,2.3,-4.3,4.2,-7.8,5.2c-3.4,-1,-6.1,-2.9,-7.7,-5.2Zm7.7,8.8c3.3,1.1,5.9,2.9,7.5,5.1h-15c1.5,-2.2,4.3,-4,7.5,-5.1Z" class="g1_4" />
<path fill-rule="evenodd" d="M1152.4,779c0,4.4,2.9,8.7,7.8,11.3c-4.9,2.6,-7.8,6.8,-7.8,11.4c0,4.6,2.9,8.9,7.8,11.3c-4.9,2.6,-7.8,6.9,-7.8,11.5c0,4.7,2.9,8.8,7.8,11.4c-4.9,2.6,-7.8,6.9,-7.8,11.5h3.4c0,-.9,.1,-1.7,.4,-2.6h17.1c.3,.9,.5,1.7,.5,2.6h3.5c0,-4.6,-3.1,-8.9,-7.8,-11.5c4.7,-2.6,7.8,-6.7,7.8,-11.4c0,-4.6,-3.1,-8.9,-7.8,-11.5c4.7,-2.4,7.8,-6.7,7.8,-11.3c0,-4.6,-3.1,-8.8,-7.8,-11.4c4.7,-2.6,7.8,-6.9,7.8,-11.3h-3.5c0,.7,-.2,1.5,-.3,2.2h-17.3c-.3,-.7,-.4,-1.5,-.4,-2.2h-3.4Zm4.9,4.2h15.1c-1.5,2.3,-4.3,4.3,-7.6,5.2c-3.4,-.9,-6,-2.9,-7.5,-5.2Zm7.5,8.9c3.3,1.1,6.1,2.9,7.6,5h-15.1c1.5,-2.1,4.1,-3.9,7.5,-5Zm-8.6,7.2h17.3c.1,.7,.3,1.5,.3,2.4c0,.8,-.2,1.5,-.3,2.3h-17.3c-.3,-.8,-.4,-1.5,-.4,-2.3c0,-.9,.1,-1.7,.4,-2.4Zm.9,6.9h15.3c-1.5,2.2,-4.3,4.1,-7.6,5.1c-3.4,-1,-6,-2.9,-7.7,-5.1Zm7.7,8.7c3.3,1,5.9,2.9,7.6,5.2h-15.1c1.5,-2.3,4.3,-4.2,7.5,-5.2Zm-8.6,7.1h17.3c.1,.8,.3,1.7,.3,2.5c0,.7,-.2,1.7,-.3,2.4h-17.3c-.3,-.7,-.4,-1.7,-.4,-2.4c0,-.8,.1,-1.7,.4,-2.5Zm.9,6.9h15.5c-1.7,2.3,-4.3,4.1,-7.8,5.2c-3.4,-1.1,-6.1,-2.9,-7.7,-5.2Zm7.7,8.9c3.3,1,5.9,2.7,7.5,5h-15c1.5,-2.3,4.3,-4,7.5,-5Z" class="g3_4" />
<path fill-rule="evenodd" d="M1019.9,604v-.7l.2,-.3v-.5l.1,-.3l.2,-.5l.2,-.3V601l.3,-.3l.1,-.3l.2,-.3l.3,-.4l.1,-.4l.3,-.2l.3,-.3l.3,-.3l.2,-.3l.5,-.1l.3,-.3l.3,-.2l.3,-.1l.3,-.3h.4l.3,-.2l.5,-.2l.3,-.1h.5l.3,-.2h86.7l.5,.2h.3l.5,.1l.3,.2l.4,.2h.3l.3,.3l.5,.1l.3,.2l.3,.3l.3,.1l.3,.3l.3,.3l.3,.3l.2,.2l.3,.4l.1,.4l.3,.3l.2,.3l.2,.3l.1,.4l.2,.3l.1,.5v.3l.2,.5v1l.1,18.7h-.1v1.2l-.2,.3v.5l-.1,.3l-.2,.4l-.1,.3l-.2,.3l-.2,.5l-.3,.3l-.1,.3l-.3,.3l-.2,.3l-.3,.3l-.3,.3l-.3,.2l-.3,.3l-.3,.1l-.3,.3l-.3,.2l-.5,.1l-.3,.2l-.3,.1l-.4,.2h-.3l-.5,.2h-1.2l-85.3,.1v-.1h-1l-.5,-.2h-.3l-.5,-.2l-.3,-.1l-.4,-.2l-.3,-.1l-.3,-.2l-.3,-.3l-.3,-.1l-.4,-.3l-.3,-.2l-.3,-.3l-.3,-.3l-.3,-.3l-.1,-.3l-.3,-.3l-.2,-.3l-.1,-.3l-.3,-.5v-.3l-.2,-.3l-.2,-.4l-.1,-.4v-.4l-.2,-.5V604Z" class="g1_4" />
<path d="M1019.9,604v0v-.7l.2,-.3v-.5l.1,-.3l.2,-.5l.2,-.3V601l.3,-.3l.1,-.3l.2,-.3l.3,-.4l.1,-.4l.3,-.2l.3,-.3l.3,-.3l.2,-.3l.5,-.1l.3,-.3l.3,-.2l.3,-.1l.3,-.3h.4l.3,-.2l.5,-.2l.3,-.1h.5l.3,-.2h86.7l.5,.2h.3l.5,.1l.3,.2l.4,.2h.3l.3,.3l.5,.1l.3,.2l.3,.3l.3,.1l.3,.3l.3,.3l.3,.3l.2,.2l.3,.4l.1,.4l.3,.3l.2,.3l.2,.3l.1,.4l.2,.3l.1,.5v.3l.2,.5v1l.1,18.7h-.1v1.2l-.2,.3v.5l-.1,.3l-.2,.4l-.1,.3l-.2,.3l-.2,.5l-.3,.3l-.1,.3l-.3,.3l-.2,.3l-.3,.3l-.3,.3l-.3,.2l-.3,.3l-.3,.1l-.3,.3l-.3,.2l-.5,.1l-.3,.2l-.3,.1l-.4,.2h-.3l-.5,.2h-1.2l-85.3,.1v-.1h-1l-.5,-.2h-.3l-.5,-.2l-.3,-.1l-.4,-.2l-.3,-.1l-.3,-.2l-.3,-.3l-.3,-.1l-.4,-.3l-.3,-.2l-.3,-.3l-.3,-.3l-.3,-.3l-.1,-.3l-.3,-.3l-.2,-.3l-.1,-.3l-.3,-.5v-.3l-.2,-.3l-.2,-.4l-.1,-.4v-.4l-.2,-.5V604Zm0,-7.5v0Zm100.4,33.8v0Z" class="g4_4" />
<path fill-rule="evenodd" d="M1019.9,601v-.8l.2,-.3v-.5l.1,-.3l.2,-.4l.2,-.3v-.5l.3,-.3l.1,-.3l.2,-.5l.3,-.3l.1,-.3l.3,-.3l.3,-.3l.3,-.1l.2,-.3l.5,-.3l.3,-.2l.3,-.1l.3,-.4l.3,-.1l.4,-.2h.3l.5,-.1l.3,-.2h.5l.3,-.1h86.7l.5,.1h.3l.5,.2l.3,.1h.4l.3,.2l.3,.1l.5,.4l.3,.1l.3,.2l.3,.3l.3,.3l.3,.1l.3,.3l.2,.3l.3,.3l.1,.3l.3,.5l.2,.3l.2,.3l.1,.5l.2,.3l.1,.4v.3l.2,.5V601l.1,18.6h-.1v1.2l-.2,.3v.5l-.1,.3l-.2,.5l-.1,.3l-.2,.3l-.2,.4l-.3,.3l-.1,.3l-.3,.3l-.2,.4l-.3,.3l-.3,.3l-.3,.1l-.3,.3l-.3,.2l-.3,.1l-.3,.3l-.5,.2l-.3,.1l-.3,.2l-.4,.1h-.3l-.5,.2h-1.2l-85.3,.1v-.1h-1l-.5,-.2h-.3l-.5,-.1l-.3,-.2l-.4,-.1l-.3,-.2l-.3,-.1l-.3,-.3l-.3,-.2l-.4,-.3l-.3,-.1l-.3,-.3l-.3,-.3l-.3,-.4l-.1,-.3l-.3,-.3l-.2,-.3l-.1,-.3l-.3,-.4v-.3l-.2,-.3l-.2,-.5l-.1,-.5v-.3l-.2,-.4V601Z" class="g5_4" />
<path d="M1019.9,601v0v-.8l.2,-.3v-.5l.1,-.3l.2,-.4l.2,-.3v-.5l.3,-.3l.1,-.3l.2,-.5l.3,-.3l.1,-.3l.3,-.3l.3,-.3l.3,-.1l.2,-.3l.5,-.3l.3,-.2l.3,-.1l.3,-.4l.3,-.1l.4,-.2h.3l.5,-.1l.3,-.2h.5l.3,-.1h86.7l.5,.1h.3l.5,.2l.3,.1h.4l.3,.2l.3,.1l.5,.4l.3,.1l.3,.2l.3,.3l.3,.3l.3,.1l.3,.3l.2,.3l.3,.3l.1,.3l.3,.5l.2,.3l.2,.3l.1,.5l.2,.3l.1,.4v.3l.2,.5V601l.1,18.6h-.1v1.2l-.2,.3v.5l-.1,.3l-.2,.5l-.1,.3l-.2,.3l-.2,.4l-.3,.3l-.1,.3l-.3,.3l-.2,.4l-.3,.3l-.3,.3l-.3,.1l-.3,.3l-.3,.2l-.3,.1l-.3,.3l-.5,.2l-.3,.1l-.3,.2l-.4,.1h-.3l-.5,.2h-1.2l-85.3,.1v-.1h-1l-.5,-.2h-.3l-.5,-.1l-.3,-.2l-.4,-.1l-.3,-.2l-.3,-.1l-.3,-.3l-.3,-.2l-.4,-.3l-.3,-.1l-.3,-.3l-.3,-.3l-.3,-.4l-.1,-.3l-.3,-.3l-.2,-.3l-.1,-.3l-.3,-.4v-.3l-.2,-.3l-.2,-.5l-.1,-.5v-.3l-.2,-.4V601Zm0,-7.5v0Zm100.4,33.7v0Z" class="g6_4" />
<path fill-rule="evenodd" d="M1107.5,602.3V602l.1,-.1v-.6l.2,-.2V601l.1,-.2v-.1h.2l.2,-.2v-.1l.1,-.2l.2,-.1l.1,-.2h.2l.1,-.2h.2l.1,-.1h.2v-.2h1.8l.2,.2h.1l.2,.1h.1l.2,.2l.1,.2h.2l.1,.1v.2l.2,.1l.1,.2l.2,.1v.2l.1,.1v.3l.2,.2V603h-.2v.3l-.1,.1v.2l-.2,.1v.2l-.1,.1l-.2,.2v.1h-.1l-.2,.2l-.1,.1l-.2,.2h-.1l-.2,.1h-.3l-.1,.2h-.4l-.1,.1h-.3v-.1h-.8l-.1,-.2h-.2l-.1,-.1h-.2l-.1,-.2h-.2l-.1,-.1v-.2h-.2l-.1,-.1V604h-.2l-.2,-.1v-.3l-.1,-.2v-.1l-.2,-.2v-.4h-.1v-.4Z" class="g0_4" />
<path fill-rule="evenodd" d="M1100.5,602.3v-.9l.1,-.1v-.2l.2,-.1v-.2l.1,-.1l.2,-.2v-.1l.1,-.2l.2,-.1h.1v-.2h.2l.1,-.2h.2l.1,-.1h.2l.1,-.2h1.7l.2,.2h.1l.2,.1h.1l.2,.2h.1v.2h.2l.1,.1l.2,.2v.1l.2,.2l.1,.1l.2,.2v.3l.1,.1v.5l.2,.1v.3h-.2v.7l-.1,.3v.1l-.2,.2v.1l-.1,.2v.1h-.2l-.2,.2v.1h-.1l-.2,.2v.1h-.1l-.2,.2h-.1l-.2,.1h-.3l-.1,.2h-.3v.1h-.3v-.1h-.8l-.2,-.2h-.3l-.1,-.1h-.2l-.1,-.2h-.2v-.1l-.1,-.2h-.2v-.1l-.1,-.2h-.2v-.1l-.1,-.2v-.1l-.2,-.2v-.3l-.1,-.1v-.7Z" class="g3_4" />
<path fill-rule="evenodd" d="M519.1,780v-.4l.2,-.2v-.1l.1,-.2V779l.2,-.2l.2,-.1v-.2h.1v-.2h.3l.2,-.1h.3V778h.9v.2h.3v.1h.3v.2h.1v.2h.2v.1h.2v.2l.1,.1v.2l.2,.1v1.2h-.2v.2l-.1,.1v.2l-.2,.1h-.2v.4H522v.1h-.1l-.2,.2h-1.3v-.2h-.3v-.1h-.2l-.1,-.2l-.2,-.2l-.2,-.1v-.2h-.1v-.3h-.2V780Z" class="g0_4" />
<path fill-rule="evenodd" d="M514.4,780v-.4l.2,-.2v-.3l.1,-.1l.2,-.2v-.1h.1v-.2h.2v-.2h.3v-.1h.3l.1,-.2h.9v.2h.4v.1h.3v.2h.1v.2h.2v.1l.1,.2l.2,.1v.5h.1v.9l-.1,.1v.2l-.2,.1v.2l-.1,.1h-.2v.2l-.1,.2h-.2v.1h-.1l-.2,.2h-1.4l-.1,-.2h-.2v-.1h-.1l-.2,-.2l-.1,-.2l-.2,-.1l-.1,-.2v-.3h-.2V780Z" class="g3_4" />
<image preserveAspectRatio="none" x="564" y="333" width="298" height="67" xlink:href="4/img/1.png" />
<text x="1249" y="533" dx="0,-2.9,0.1,-0.1,0.1,0,0,0.1,-0.1,0,0,0,0,0.1" class="s1_4">Task Execution</text>
<path d="M1090.4,667l68.3,68.3" class="g7_4" />
<path fill-rule="evenodd" d="M1084.3,660.9l9.7,3.2l-6.5,6.5l-3.2,-9.7Z" class="g8_4" />
<path fill-rule="evenodd" d="M1164.8,741.4l-9.8,-3.2l6.6,-6.6l3.2,9.8Z" class="g8_4" />
<path d="M1212.7,739.5l122.4,-70.8" class="g7_4" />
<path fill-rule="evenodd" d="M1205.3,743.8l5.6,-8.5l4.6,7.9l-10.2,.6Z" class="g8_4" />
<path fill-rule="evenodd" d="M1342.6,664.4l-5.6,8.5l-4.6,-7.9l10.2,-.6Z" class="g8_4" />
<path d="M753.7,416.3L986.8,567.4" class="g7_4" />
<path fill-rule="evenodd" d="M746.5,411.5l10.2,1.2l-5,7.8l-5.2,-9Z" class="g8_4" />
<path fill-rule="evenodd" d="M994.1,571.9l-10.4,-1l5.1,-7.8l5.3,8.8Z" class="g8_4" />
<path d="M812.6,406.3L1327.5,597" class="g7_4" />
<path fill-rule="evenodd" d="M804.7,403.4l10.2,-1.2l-3.2,8.7l-7,-7.5Z" class="g8_4" />
<path fill-rule="evenodd" d="M1335.6,600.1l-10.3,1l3.3,-8.7l7,7.7Z" class="g8_4" />
<path fill-rule="evenodd" d="M888.7,666.7H771.1V588.4h235.4v78.3H888.7Z" class="g0_4" />
<text x="777" y="622" dx="0,0,0,0,0,0,0,0.1,-1.7,0,0,0.1,0,0,0,-0.1" class="s1_4">Reads, Variants,</text>
<text x="808" y="655" dx="0,0.1,0,0,-0.1,0,0.1,0,0,0" class="s1_4">&amp; Metadata</text>
<path fill-rule="evenodd" d="M1155.2,122.5c-1.1,0,-2,.9,-2,2v59.7c0,1.1,.9,2,2,2h36.3l-.1,.6l-1.6,7.8h-4.6v2.9H1212v-2.9h-4.6l-1.5,-7.8l-.2,-.6h38.4c1,0,2,-.9,2,-2V124.5c0,-1.1,-1,-2,-2,-2h-88.9Zm44.4,1.8c.5,0,.9,.5,.9,.9c0,.5,-.4,.9,-.9,.9c-.4,0,-.9,-.4,-.9,-.9c0,-.4,.5,-.9,.9,-.9Zm-41.1,4.1h82.2v46.9h-82.2V128.4Z" class="g1_4" />
<path fill-rule="evenodd" d="M1155.2,119.4c-1.1,0,-2,.9,-2,2v59.7c0,1.1,.9,2,2,2h36.3l-.1,.6l-1.6,7.8h-4.6v2.9H1212v-2.9h-4.6l-1.5,-7.8l-.2,-.6h38.4c1,0,2,-.9,2,-2V121.4c0,-1.1,-1,-2,-2,-2h-88.9Zm44.4,1.8c.5,0,.9,.5,.9,1c0,.4,-.4,.9,-.9,.9c-.4,0,-.9,-.5,-.9,-.9c0,-.5,.5,-1,.9,-1Zm-41.1,4.2h82.2v46.9h-82.2V125.4Z" class="g9_4" />
<path fill-rule="evenodd" d="M1166.3,197.2c7.3,6.2,10.2,15.1,11.6,22.7c1.4,7.7,.5,15.9,-6.1,19.8c-2,1,-4.4,1.5,-6.7,1h-18l-18.7,-.3c-2,.3,-4.1,0,-5.9,-.7c-7.2,-3.4,-9.1,-11.4,-8.1,-19.1c.7,-8,3.6,-16.9,11.3,-23.4c11.6,-10.3,28.8,-10.1,40.6,0Z" class="g1_4" />
<path fill-rule="evenodd" d="M1166.3,194.1c7.3,6.3,10.2,15.1,11.6,22.8c1.4,7.6,.5,15.9,-6.1,19.5c-2,1.3,-4.4,1.7,-6.7,1.3h-18l-18.7,-.3c-2,.3,-4.1,0,-5.9,-1c-7.2,-3.2,-9.1,-11.1,-8.1,-19.1c.7,-7.7,3.6,-16.8,11.3,-23.2c11.6,-10.2,28.8,-10.1,40.6,0Z" class="g10_4" />
<path fill-rule="evenodd" d="M1126.1,180.1v-2.2l.2,-1l.1,-1l.3,-1l.3,-1.1l.3,-1.1l.5,-.9l.5,-.9l.6,-.9l.4,-.9l.6,-.9l.7,-1l.7,-.7l.6,-.8l.8,-.8l.9,-.6l.8,-.6l.9,-.6l.9,-.6l.9,-.5l.9,-.4l1.1,-.5l.9,-.3l1.1,-.3l1.1,-.3l.9,-.1l1.1,-.2l1,-.2h2.2l1,.2l1.1,.2l1.1,.1l.9,.3l1.1,.3l.9,.3l1,.5l1,.4l.9,.5l.9,.6l.9,.6l.8,.6l.7,.6l1,.8l.6,.8l.7,.7l.6,1l.7,.9l.6,.9l.4,.9l.5,.9l.4,.9l.3,1.1l.3,1.1l.4,.9l.1,1.1l.2,1v4.3l-.2,1.1l-.1,1l-.4,1l-.3,1l-.3,1.1l-.4,.9l-.5,.9l-.4,1l-.6,.9l-.7,.9l-.6,.9l-.7,.8l-.6,.7l-.8,.8l-.9,.6l-.8,.8l-.9,.4l-.9,.6l-.9,.6l-1,.4l-1,.4l-.9,.5l-1.1,.1l-.9,.3l-1.1,.2l-1.1,.1l-1,.2h-1.1l-1.1,-.2h-.9l-1.1,-.1l-1,-.2l-.9,-.3l-1.1,-.1l-.9,-.3l-1,-.5l-.9,-.5l-.9,-.4l-.9,-.5l-.9,-.6l-.8,-.6l-.7,-.6l-.8,-.8l-.8,-.6l-.7,-.7l-.7,-1l-.6,-.7l-.6,-.9l-.4,-1l-.5,-.9l-.4,-.7l-.4,-1.1l-.3,-.9l-.3,-.9l-.3,-1.1l-.1,-1.1l-.2,-1v-1l-.1,-1h.1Z" class="g1_4" />
<path fill-rule="evenodd" d="M1126.1,178.4v-2.2l.2,-1l.1,-.9l.3,-1.1l.3,-1.1l.3,-1l.5,-1l.5,-.9l.6,-.9l.4,-.9l.6,-.9l.7,-.9l.7,-.8l.6,-.8l.8,-.7l.9,-.6l.8,-.7l.9,-.6l.9,-.6l.9,-.4l.9,-.5l1.1,-.5l.9,-.3l1.1,-.3l1.1,-.3l.9,-.1l1.1,-.2l1,-.1h2.2l1,.1l1.1,.2l1.1,.1l.9,.3l1.1,.3l.9,.3l1,.5l1,.5l.9,.4l.9,.6l.9,.6l.8,.7l.7,.6l1,.7l.6,.8l.7,.8l.6,.9l.7,.9l.6,.9l.4,.9l.5,.9l.4,1l.3,1l.3,1.1l.4,.9l.1,1.1l.2,1v4.3l-.2,1.1l-.1,1.1l-.4,.9l-.3,1.1l-.3,1l-.4,.9l-.5,1l-.4,.9l-.6,.9l-.7,.9l-.6,.9l-.7,.8l-.6,.7l-.8,.8l-.9,.6l-.8,.6l-.9,.6l-.9,.7l-.9,.6l-1,.3l-1,.4l-.9,.3l-1.1,.3l-.9,.3l-1.1,.2l-1.1,.2l-1,.1h-1.1l-1.1,-.1h-.9l-1.1,-.2l-1,-.2l-.9,-.3l-1.1,-.1l-.9,-.5l-1,-.3l-.9,-.4l-.9,-.5l-.9,-.4l-.9,-.7l-.8,-.6l-.7,-.6l-.8,-.7l-.8,-.7l-.7,-.9l-.7,-.7l-.6,-.8l-.6,-.9l-.4,-.9l-.5,-1l-.4,-.9l-.4,-.9l-.3,-.9l-.3,-1.1l-.3,-.9l-.1,-1.1l-.2,-1v-.9l-.1,-1.1h.1Z" class="g9_4" />
<path d="M1068.1,543.4l72.8,-267.5" class="g11_4" />
<path fill-rule="evenodd" d="M1063.5,559.9l-4,-20l17.7,4.7l-13.7,15.3Z" class="g9_4" />
<path fill-rule="evenodd" d="M1145.5,259.4l4,20l-17.7,-4.9l13.7,-15.1Z" class="g9_4" />
<path d="M1285.8,431.2L1172.9,275.9" class="g11_4" />
<path fill-rule="evenodd" d="M1295.9,445.1l-18.4,-9.4l15,-10.9l3.4,20.3Z" class="g9_4" />
<path fill-rule="evenodd" d="M1162.9,262.1l18.2,9.3l-14.9,10.9l-3.3,-20.2Z" class="g9_4" />
<path fill-rule="evenodd" d="M1352.7,731.9H1210V479.8h285.5V731.9H1352.7Z" class="g12_4" />
<path d="M1360.3,731.9h-24.9m-17.1,0h-17.2m-17.3,0h-17.3m-17.1,0h-17.2m-17.2,0h-5V719.7m0,-17.1V685.3m0,-17.3V650.8m0,-17.1V616.4m0,-17.3V582m0,-17.2V547.5m0,-17.3V513.1m0,-17.2V479.8h1.1m17.2,0h17.3m17.3,0H1280m17.2,0h17.1m17.3,0h17.3m17.2,0h17.2m17.2,0h17.3m17.2,0h17.2m17.2,0h17.3m8.8,8.4v17.1m0,17.3v17.3m0,17.2v17.1m0,17.3v17.3m0,17.1v17.2m0,17.3v17.3m0,17.1V712m0,17.3v2.6h-14.6m-17.1,0h-17.3m-17.3,0h-17.1m-17.2,0h-17.3" class="g13_4" />
<path fill-rule="evenodd" d="M1352.7,728.8H1210v-252h285.5v252H1352.7Z" class="g14_4" />
<path d="M1360.3,728.8h-24.9m-17.1,0h-17.2m-17.3,0h-17.3m-17.1,0h-17.2m-17.2,0h-5V716.6m0,-17.2V682.2m0,-17.2V647.7m0,-17.1V613.3m0,-17.2V579m0,-17.3V544.4m0,-17.2V510.1m0,-17.3v-16h1.1m17.2,0h17.3m17.3,0H1280m17.2,0h17.1m17.3,0h17.3m17.2,0h17.2m17.2,0h17.3m17.2,0h17.2m17.2,0h17.3m8.8,8.4v17.1m0,17.2v17.3m0,17.3v17.1m0,17.2v17.3m0,17.1v17.3m0,17.2v17.2m0,17.2V709m0,17.2v2.6h-14.6m-17.1,0h-17.3m-17.3,0h-17.1m-17.2,0h-17.3" class="g15_4" />
<path fill-rule="evenodd" d="M581.5,414.6v-.8l.1,-.3v-.4l.2,-.4l.1,-.4V412l.2,-.5l.1,-.3l.3,-.3l.2,-.4l.1,-.3l.4,-.4l.3,-.3l.3,-.3l.3,-.1l.1,-.3l.3,-.3l.3,-.2l.5,-.1l.3,-.3l.3,-.2l.5,-.1h.3l.4,-.2l.3,-.2h.5l.3,-.1H675l.4,.1h.3l.5,.2l.3,.2h.5l.3,.1l.3,.2l.4,.3l.3,.1l.3,.2l.3,.3l.4,.3l.3,.1l.3,.3l.1,.3l.3,.4l.2,.3l.3,.4l.1,.3l.2,.3l.1,.5l.2,.3l.1,.4v.4l.2,.4v1.1l.1,18.6h-.1v1.2l-.2,.3v.5l-.1,.3l-.2,.5l-.1,.3l-.2,.3l-.1,.4l-.3,.3l-.2,.4l-.3,.3l-.1,.3l-.3,.3l-.3,.1l-.4,.3l-.3,.3l-.3,.2l-.3,.1l-.3,.3l-.4,.2l-.3,.1l-.3,.2l-.5,.2h-.5l-.3,.1h-1.2l-85.2,.2v-.2h-1.1l-.5,-.1h-.3l-.4,-.2l-.3,-.2l-.5,-.1l-.3,-.2l-.3,-.1l-.3,-.3l-.5,-.2l-.1,-.3l-.3,-.1l-.3,-.3l-.3,-.3l-.3,-.3l-.2,-.3l-.3,-.4l-.2,-.3l-.3,-.3l-.1,-.4l-.2,-.3v-.3l-.1,-.5l-.2,-.5v-.3l-.1,-.4V414.6Z" class="g1_4" />
<path d="M581.5,414.6v0v-.8l.1,-.3v-.4l.2,-.4l.1,-.4V412l.2,-.5l.1,-.3l.3,-.3l.2,-.4l.1,-.3l.4,-.4l.3,-.3l.3,-.3l.3,-.1l.1,-.3l.3,-.3l.3,-.2l.5,-.1l.3,-.3l.3,-.2l.5,-.1h.3l.4,-.2l.3,-.2h.5l.3,-.1H675l.4,.1h.3l.5,.2l.3,.2h.5l.3,.1l.3,.2l.4,.3l.3,.1l.3,.2l.3,.3l.4,.3l.3,.1l.3,.3l.1,.3l.3,.4l.2,.3l.3,.4l.1,.3l.2,.3l.1,.5l.2,.3l.1,.4v.4l.2,.4v1.1l.1,18.6h-.1v1.2l-.2,.3v.5l-.1,.3l-.2,.5l-.1,.3l-.2,.3l-.1,.4l-.3,.3l-.2,.4l-.3,.3l-.1,.3l-.3,.3l-.3,.1l-.4,.3l-.3,.3l-.3,.2l-.3,.1l-.3,.3l-.4,.2l-.3,.1l-.3,.2l-.5,.2h-.5l-.3,.1h-1.2l-85.2,.2v-.2h-1.1l-.5,-.1h-.3l-.4,-.2l-.3,-.2l-.5,-.1l-.3,-.2l-.3,-.1l-.3,-.3l-.5,-.2l-.1,-.3l-.3,-.1l-.3,-.3l-.3,-.3l-.3,-.3l-.2,-.3l-.3,-.4l-.2,-.3l-.3,-.3l-.1,-.4l-.2,-.3v-.3l-.1,-.5l-.2,-.5v-.3l-.1,-.4V414.6Zm0,-7.5v0Zm100.3,33.8v0Z" class="g4_4" />
<path fill-rule="evenodd" d="M581.5,411.5v-.7l.1,-.3V410l.2,-.5l.1,-.3v-.3l.2,-.4l.1,-.3l.3,-.3l.2,-.5l.1,-.3l.4,-.3l.3,-.3l.3,-.3l.3,-.2l.1,-.3l.3,-.3l.3,-.1l.5,-.3l.3,-.2l.3,-.1l.5,-.2l.3,-.2h.4l.3,-.1l.5,-.2h87.5l.3,.2l.5,.1h.3l.5,.2l.3,.2l.3,.1l.4,.2l.3,.3l.3,.1l.3,.3l.4,.3l.3,.2l.3,.3l.1,.3l.3,.3l.2,.3l.3,.5l.1,.3l.2,.3l.1,.4l.2,.3l.1,.3v.5l.2,.5v1l.1,18.7h-.1v1l-.2,.5v.5l-.1,.3l-.2,.3l-.1,.4l-.2,.3l-.1,.3l-.3,.3l-.2,.5l-.3,.3l-.1,.3l-.3,.3l-.3,.2l-.4,.3l-.3,.1l-.3,.3l-.3,.2l-.3,.3l-.4,.1l-.3,.2l-.3,.1h-.5l-.5,.2l-.3,.2H587.9l-.5,-.2l-.3,-.2h-.4l-.3,-.1l-.5,-.2l-.3,-.1l-.3,-.2l-.3,-.3l-.5,-.1l-.1,-.3l-.3,-.2l-.3,-.3l-.3,-.3l-.3,-.3l-.2,-.3l-.3,-.3l-.2,-.3l-.3,-.5l-.1,-.3l-.2,-.3v-.4l-.1,-.3l-.2,-.5v-.3l-.1,-.5V411.5Z" class="g5_4" />
<path d="M581.5,411.5v0v-.7l.1,-.3V410l.2,-.5l.1,-.3v-.3l.2,-.4l.1,-.3l.3,-.3l.2,-.5l.1,-.3l.4,-.3l.3,-.3l.3,-.3l.3,-.2l.1,-.3l.3,-.3l.3,-.1l.5,-.3l.3,-.2l.3,-.1l.5,-.2l.3,-.2h.4l.3,-.1l.5,-.2h87.5l.3,.2l.5,.1h.3l.5,.2l.3,.2l.3,.1l.4,.2l.3,.3l.3,.1l.3,.3l.4,.3l.3,.2l.3,.3l.1,.3l.3,.3l.2,.3l.3,.5l.1,.3l.2,.3l.1,.4l.2,.3l.1,.3v.5l.2,.5v1l.1,18.7h-.1v1l-.2,.5v.5l-.1,.3l-.2,.3l-.1,.4l-.2,.3l-.1,.3l-.3,.3l-.2,.5l-.3,.3l-.1,.3l-.3,.3l-.3,.2l-.4,.3l-.3,.1l-.3,.3l-.3,.2l-.3,.3l-.4,.1l-.3,.2l-.3,.1h-.5l-.5,.2l-.3,.2H587.9l-.5,-.2l-.3,-.2h-.4l-.3,-.1l-.5,-.2l-.3,-.1l-.3,-.2l-.3,-.3l-.5,-.1l-.1,-.3l-.3,-.2l-.3,-.3l-.3,-.3l-.3,-.3l-.2,-.3l-.3,-.3l-.2,-.3l-.3,-.5l-.1,-.3l-.2,-.3v-.4l-.1,-.3l-.2,-.5v-.3l-.1,-.5V411.5Zm0,-7.5v0Zm100.3,33.7v0Z" class="g6_4" />
<path fill-rule="evenodd" d="M669,412.9v-.3l.2,-.2v-.6l.1,-.1v-.2l.2,-.1v-.2h.1v-.1l.2,-.2l.1,-.1l.2,-.2l.1,-.1h.2l.1,-.2h.2l.1,-.1h.2l.2,-.2h1.5l.1,.2h.3l.2,.1h.1v.2h.2l.2,.1l.1,.2h.2v.1l.1,.2l.2,.1l.1,.2v.1l.2,.2v.3l.1,.1v1.4l-.1,.2v.3h-.2v.1l-.1,.2v.1l-.2,.2v.1h-.1v.2l-.2,.1h-.1l-.2,.2l-.2,.1h-.1l-.2,.2H673l-.2,.2h-.4l-.2,.1h-.3v-.1H671l-.2,-.2l-.1,-.2h-.2l-.1,-.1h-.2l-.1,-.2l-.2,-.1l-.1,-.2h-.2v-.1l-.1,-.2v-.3l-.2,-.1l-.1,-.3v-.3l-.2,-.2v-.3Z" class="g0_4" />
<path fill-rule="evenodd" d="M661.8,412.9v-.3l.2,-.2V412l.1,-.2v-.3l.2,-.1l.1,-.2l.2,-.1v-.2l.1,-.1h.2l.2,-.2v-.1h.1l.2,-.2h.1l.2,-.1h.3l.1,-.2h1.4l.2,.2h.3l.1,.1h.2l.1,.2h.2v.1l.1,.2h.2l.1,.1v.2l.2,.1l.1,.2v.1l.2,.2v.1l.1,.2v1.7l-.1,.1v.2h-.2v.3l-.1,.1l-.2,.2v.1h-.1v.2l-.2,.1h-.1v.2l-.2,.1h-.3l-.1,.2h-.2l-.1,.2h-.5l-.2,.1h-.3v-.1H664l-.2,-.2h-.1l-.2,-.2h-.1l-.2,-.1h-.1V415h-.2l-.2,-.1v-.2h-.1l-.2,-.1v-.2l-.1,-.1v-.2l-.2,-.1v-.3H662v-.3l-.2,-.2v-.3Z" class="g3_4" />
<path fill-rule="evenodd" d="M1302.6,626.8V626l.1,-.4v-.3l.2,-.5l.1,-.3V624l.2,-.3l.1,-.3l.4,-.4l.1,-.3l.2,-.3l.3,-.3l.3,-.4l.3,-.3l.1,-.3l.3,-.1l.3,-.3l.3,-.2l.5,-.3l.3,-.1l.3,-.2l.5,-.1l.3,-.2l.4,-.1h.3l.5,-.2h87.5l.3,.2h.5l.3,.1l.5,.2l.3,.1l.3,.2l.4,.1l.3,.3l.4,.2l.3,.3l.3,.1l.3,.3l.3,.3l.1,.4l.3,.3l.2,.3l.3,.3l.1,.4l.2,.3l.1,.3l.2,.5l.2,.3v.5l.1,.3v1.2l.2,18.6h-.2v1.1l-.1,.5v.3l-.2,.4l-.2,.3l-.1,.5l-.2,.3l-.1,.3l-.3,.3l-.2,.5l-.3,.3l-.1,.3l-.3,.1l-.3,.3l-.3,.3l-.3,.2l-.4,.3l-.3,.1l-.3,.4l-.4,.1l-.3,.2h-.3l-.5,.1l-.5,.2h-.3l-.4,.1h-86.8l-.3,-.1h-.5l-.3,-.2h-.4l-.3,-.1l-.5,-.2l-.3,-.1l-.3,-.4l-.3,-.1l-.5,-.2l-.3,-.3l-.3,-.3l-.1,-.3l-.3,-.1l-.3,-.3l-.2,-.3l-.3,-.3l-.1,-.4l-.4,-.4l-.1,-.3l-.2,-.5v-.3l-.1,-.3l-.2,-.4v-.3l-.1,-.5V626.8Z" class="g1_4" />
<path d="M1302.6,626.8v0V626l.1,-.4v-.3l.2,-.5l.1,-.3V624l.2,-.3l.1,-.3l.4,-.4l.1,-.3l.2,-.3l.3,-.3l.3,-.4l.3,-.3l.1,-.3l.3,-.1l.3,-.3l.3,-.2l.5,-.3l.3,-.1l.3,-.2l.5,-.1l.3,-.2l.4,-.1h.3l.5,-.2h87.5l.3,.2h.5l.3,.1l.5,.2l.3,.1l.3,.2l.4,.1l.3,.3l.4,.2l.3,.3l.3,.1l.3,.3l.3,.3l.1,.4l.3,.3l.2,.3l.3,.3l.1,.4l.2,.3l.1,.3l.2,.5l.2,.3v.5l.1,.3v1.2l.2,18.6h-.2v1.1l-.1,.5v.3l-.2,.4l-.2,.3l-.1,.5l-.2,.3l-.1,.3l-.3,.3l-.2,.5l-.3,.3l-.1,.3l-.3,.1l-.3,.3l-.3,.3l-.3,.2l-.4,.3l-.3,.1l-.3,.4l-.4,.1l-.3,.2h-.3l-.5,.1l-.5,.2h-.3l-.4,.1h-86.8l-.3,-.1h-.5l-.3,-.2h-.4l-.3,-.1l-.5,-.2l-.3,-.1l-.3,-.4l-.3,-.1l-.5,-.2l-.3,-.3l-.3,-.3l-.1,-.3l-.3,-.1l-.3,-.3l-.2,-.3l-.3,-.3l-.1,-.4l-.4,-.4l-.1,-.3l-.2,-.5v-.3l-.1,-.3l-.2,-.4v-.3l-.1,-.5V626.8Zm0,-7.5v0ZM1403,652.9v0Z" class="g4_4" />
<path fill-rule="evenodd" d="M1302.6,623.7V623l.1,-.5v-.3l.2,-.5l.1,-.3V621l.2,-.3l.1,-.5l.4,-.3l.1,-.3l.2,-.3l.3,-.3l.3,-.3l.3,-.3l.1,-.3l.3,-.2l.3,-.3l.3,-.1l.5,-.3l.3,-.2l.3,-.1l.5,-.2l.3,-.1l.4,-.2h.3l.5,-.2h87.5l.3,.2h.5l.3,.2l.5,.1l.3,.2l.3,.1l.4,.2l.3,.3l.4,.1l.3,.3l.3,.2l.3,.3l.3,.3l.1,.3l.3,.3l.2,.3l.3,.3l.1,.3l.2,.5l.1,.3l.2,.4l.2,.3v.5l.1,.3v1.2l.2,18.5h-.2v1.2l-.1,.5v.3l-.2,.5l-.2,.3l-.1,.4l-.2,.3l-.1,.3l-.3,.3l-.2,.4l-.3,.3l-.1,.3l-.3,.3l-.3,.3l-.3,.3l-.3,.1l-.4,.3l-.3,.2l-.3,.1l-.4,.3h-.3l-.3,.2l-.5,.2l-.5,.1h-.3l-.4,.2h-86.8l-.3,-.2h-.5l-.3,-.1h-.4l-.3,-.2l-.5,-.2l-.3,-.3l-.3,-.1l-.3,-.2l-.5,-.3l-.3,-.1l-.3,-.3l-.1,-.3l-.3,-.2l-.3,-.3l-.2,-.3l-.3,-.5l-.1,-.3l-.4,-.3l-.1,-.3l-.2,-.4v-.3l-.1,-.3l-.2,-.5v-.5l-.1,-.3V623.7Z" class="g5_4" />
<path d="M1302.6,623.7v0V623l.1,-.5v-.3l.2,-.5l.1,-.3V621l.2,-.3l.1,-.5l.4,-.3l.1,-.3l.2,-.3l.3,-.3l.3,-.3l.3,-.3l.1,-.3l.3,-.2l.3,-.3l.3,-.1l.5,-.3l.3,-.2l.3,-.1l.5,-.2l.3,-.1l.4,-.2h.3l.5,-.2h87.5l.3,.2h.5l.3,.2l.5,.1l.3,.2l.3,.1l.4,.2l.3,.3l.4,.1l.3,.3l.3,.2l.3,.3l.3,.3l.1,.3l.3,.3l.2,.3l.3,.3l.1,.3l.2,.5l.1,.3l.2,.4l.2,.3v.5l.1,.3v1.2l.2,18.5h-.2v1.2l-.1,.5v.3l-.2,.5l-.2,.3l-.1,.4l-.2,.3l-.1,.3l-.3,.3l-.2,.4l-.3,.3l-.1,.3l-.3,.3l-.3,.3l-.3,.3l-.3,.1l-.4,.3l-.3,.2l-.3,.1l-.4,.3h-.3l-.3,.2l-.5,.2l-.5,.1h-.3l-.4,.2h-86.8l-.3,-.2h-.5l-.3,-.1h-.4l-.3,-.2l-.5,-.2l-.3,-.3l-.3,-.1l-.3,-.2l-.5,-.3l-.3,-.1l-.3,-.3l-.1,-.3l-.3,-.2l-.3,-.3l-.2,-.3l-.3,-.5l-.1,-.3l-.4,-.3l-.1,-.3l-.2,-.4v-.3l-.1,-.3l-.2,-.5v-.5l-.1,-.3V623.7Zm0,-7.5v0ZM1403,649.9v0Z" class="g6_4" />
<path fill-rule="evenodd" d="M1390.1,625v-.3l.2,-.2V624l.1,-.1v-.2l.2,-.3h.1v-.1l.2,-.2V623h.1l.2,-.2l.1,-.1l.2,-.2h.2l.1,-.1h.2l.1,-.2h.3l.2,-.1h1l.2,.1h.3l.1,.2h.2l.2,.1h.1l.2,.2l.1,.1l.2,.2h.1v.1l.2,.2v.1l.1,.2v.1h.2v.2l.1,.1v1.7l-.1,.2v.1l-.2,.2v.1l-.1,.2v.1l-.2,.2l-.1,.1l-.2,.2l-.1,.1l-.2,.2l-.1,.2h-.4l-.1,.1h-.3l-.2,.2h-1l-.2,-.2h-.3l-.1,-.1h-.2l-.1,-.2h-.2l-.2,-.2l-.1,-.1l-.2,-.2l-.1,-.1l-.2,-.2v-.1l-.1,-.2l-.2,-.1v-.3l-.1,-.2v-.3l-.2,-.1V625Z" class="g0_4" />
<path fill-rule="evenodd" d="M1382.9,625v-.3l.2,-.2V624l.2,-.1v-.2l.1,-.3h.2v-.1l.1,-.2V623h.2l.1,-.2l.2,-.1l.1,-.2h.2l.1,-.1h.2l.1,-.2h.3v-.1h1.3l.1,.1h.3l.2,.2h.1l.2,.1h.1v.2h.2l.1,.1l.2,.2h.1v.1l.2,.2v.1l.1,.2v.1h.2v.2l.2,.1v1.7l-.2,.2v.1l-.2,.2v.1l-.1,.2l-.2,.1v.2l-.1,.1l-.2,.2l-.1,.1h-.2v.2l-.1,.2h-.3l-.2,.1h-.3l-.1,.2h-1.3v-.2h-.3l-.1,-.1h-.2l-.1,-.2h-.2l-.1,-.2l-.2,-.1l-.1,-.2l-.2,-.1l-.1,-.2v-.1l-.2,-.2l-.1,-.1v-.3l-.2,-.2v-.3l-.2,-.1V625Z" class="g3_4" />
<path fill-rule="evenodd" d="M1352.7,653.4h-17V618.8h34v34.6h-17Z" class="g1_4" />
<path fill-rule="evenodd" d="M1352.7,650.3h-17V615.8h34v34.5h-17Z" class="g0_4" />
<image preserveAspectRatio="none" x="1334" y="619" width="38" height="28" xlink:href="4/img/2.png" />
<path fill-rule="evenodd" d="M461.2,340.6v13.6H445.7V419h38.5V403.3h7.6V419h7.8V403.3h7.6V419H546V354.2H530.1V340.6H461.2Zm7.7,7.1h7.6v6.5h-7.6v-6.5Zm15.3,0h7.6v6.5h-7.6v-6.5Zm15.4,0h7.6v6.5h-7.6v-6.5Zm15.3,0h7.6v6.5h-7.6v-6.5Zm-61.3,13.9h7.6v6.5h-7.6v-6.5Zm15.3,0h7.6v6.5h-7.6v-6.5Zm15.3,0h7.6v6.5h-7.6v-6.5Zm15.4,0h7.6v6.5h-7.6v-6.5Zm15.3,0h7.6v6.5h-7.6v-6.5Zm15.2,0h7.7v6.5h-7.7v-6.5Zm-76.5,13.9h7.6V382h-7.6v-6.5Zm15.3,0h7.6V382h-7.6v-6.5Zm46,0h7.6V382h-7.6v-6.5Zm15.2,0h7.7V382h-7.7v-6.5Zm-34.3,.4c5.3,0,9.6,4.3,9.6,9.5c0,5.3,-4.3,9.6,-9.6,9.6c-5.2,0,-9.5,-4.3,-9.5,-9.6c0,-5.2,4.3,-9.5,9.5,-9.5Zm-2.2,3.5v3.9H490v4.4h3.6v3.7h4.5v-3.7h3.8v-4.4h-3.8v-3.9h-4.5Zm-40,10h7.6v6.5h-7.6v-6.5Zm15.3,0h7.6v6.5h-7.6v-6.5Zm46,0h7.6v6.5h-7.6v-6.5Zm15.2,0h7.7v6.5h-7.7v-6.5Zm-76.5,13.9h7.6v6.5h-7.6v-6.5Zm15.3,0h7.6v6.5h-7.6v-6.5Zm46,0h7.6v6.5h-7.6v-6.5Zm15.2,0h7.7v6.5h-7.7v-6.5Z" class="g16_4" />
<path fill-rule="evenodd" d="M461.2,340.6v13.6H445.7V419h38.5V403.3h7.6V419h7.8V403.3h7.6V419H546V354.2H530.1V340.6H461.2Zm7.7,7.1h7.6v6.5h-7.6v-6.5Zm15.3,0h7.6v6.5h-7.6v-6.5Zm15.4,0h7.6v6.5h-7.6v-6.5Zm15.3,0h7.6v6.5h-7.6v-6.5Zm-61.3,13.9h7.6v6.5h-7.6v-6.5Zm15.3,0h7.6v6.5h-7.6v-6.5Zm15.3,0h7.6v6.5h-7.6v-6.5Zm15.4,0h7.6v6.5h-7.6v-6.5Zm15.3,0h7.6v6.5h-7.6v-6.5Zm15.2,0h7.7v6.5h-7.7v-6.5Zm-76.5,13.9h7.6V382h-7.6v-6.5Zm15.3,0h7.6V382h-7.6v-6.5Zm46,0h7.6V382h-7.6v-6.5Zm15.2,0h7.7V382h-7.7v-6.5Zm-34.3,.4c5.3,0,9.6,4.3,9.6,9.5c0,5.3,-4.3,9.6,-9.6,9.6c-5.2,0,-9.5,-4.3,-9.5,-9.6c0,-5.2,4.3,-9.5,9.5,-9.5Zm-2.2,3.5v3.9H490v4.4h3.6v3.7h4.5v-3.7h3.8v-4.4h-3.8v-3.9h-4.5Zm-40,10h7.6v6.5h-7.6v-6.5Zm15.3,0h7.6v6.5h-7.6v-6.5Zm46,0h7.6v6.5h-7.6v-6.5Zm15.2,0h7.7v6.5h-7.7v-6.5Zm-76.5,13.9h7.6v6.5h-7.6v-6.5Zm15.3,0h7.6v6.5h-7.6v-6.5Zm46,0h7.6v6.5h-7.6v-6.5Zm15.2,0h7.7v6.5h-7.7v-6.5Z" class="g17_4" />
<text x="454" y="327" dx="0,-0.1,0" class="s2_4">UHN</text>


<!-- Any embedded fonts defined here -->
<style type="text/css" ><![CDATA[

@font-face {
	font-family: DejaVuSans-Oblique_c-;
	src: url("fonts/DejaVuSans-Oblique_c-.woff") format("woff");
}

@font-face {
	font-family: DejaVuSans_d3;
	src: url("fonts/DejaVuSans_d3.woff") format("woff");
}

]]></style>

</svg>
