<?xml version="1.0" encoding="UTF-8" standalone="no"?>
<!DOCTYPE svg PUBLIC "-//W3C//DTD SVG 1.1//EN"
"http://www.w3.org/Graphics/SVG/1.1/DTD/svg11.dtd">


<!-- Page 4 -->
<svg x="0" y="0" width="1564" height="1173" viewBox="0 0 1564 1173" version="1.1" xmlns="http://www.w3.org/2000/svg" xmlns:xlink="http://www.w3.org/1999/xlink"
style="display: block;margin-left: auto;margin-right: auto;">
<defs>
<clipPath id="c0_4"><path d="M0,1173.3V0H1564.4V1173.3Z" /></clipPath>

<style type="text/css"><![CDATA[

.g0_4{
fill: #FFFFFF;
}
.g1_4{
fill-opacity: 0.5;
}
.g2_4{
fill: #0175AE;
}
.g3_4{
fill: #70BF41;
}
.g4_4{
fill: none;
stroke: #F38F18;
stroke-width: 7.6095405;
stroke-linecap: butt;
stroke-linejoin: miter;
}
.g5_4{
fill: #F38F18;
}
.g6_4{
fill: #00882B;
}
.g7_4{
fill: #00AB1D;
}
.g8_4{
fill: none;
stroke: #F38F18;
stroke-width: 4.583028;
stroke-linecap: butt;
stroke-linejoin: miter;
}

.s1_4{
font-size: 36.67px;
font-family: DejaVuSans-Oblique_5c;
fill: #000000;
}

]]></style>

</defs>
<path d="M0,0
L0,1173
L1564,1173
L1564,0 Z " 
fill="#FFFFFF" stroke="none" />
<g clip-path="url(#c0_4)">
<path fill-rule="evenodd" d="M0,.1H1564.4V1173.4H0V.1Z" class="g0_4" />
<path fill-rule="evenodd" d="M0,.1H1564.4V1173.4H0V.1Z" class="g0_4" />
</g>
<path fill-rule="evenodd" d="M1030.3,393.8c-10.1,0,-20.3,1.2,-28.1,3.5c-15.6,4.8,-15.6,12.4,0,17.1c15.6,4.8,40.8,4.8,56.4,0c15.6,-4.7,15.6,-12.3,0,-17.1c-7.8,-2.3,-18,-3.5,-28.3,-3.5Zm-39.8,17.6v75.1c0,6.6,17.8,12.7,39.8,12.7c22.2,0,40.1,-6.1,40.1,-12.7V411.4c-5.7,5,-21.4,8.5,-40.1,8.5c-18.5,0,-34,-3.5,-39.8,-8.5Z" class="g1_4" />
<path fill-rule="evenodd" d="M1030.3,390.7c-10.1,0,-20.3,1.3,-28.1,3.6c-15.6,4.7,-15.6,12.3,0,17.1c15.6,4.7,40.8,4.7,56.4,0c15.6,-4.8,15.6,-12.4,0,-17.1c-7.8,-2.3,-18,-3.6,-28.3,-3.6Zm-39.8,17.6v75.2c0,6.6,17.8,12.7,39.8,12.7c22.2,0,40.1,-6.1,40.1,-12.7V408.3c-5.7,5.1,-21.4,8.6,-40.1,8.6c-18.5,0,-34,-3.5,-39.8,-8.6Z" class="g2_4" />
<path fill-rule="evenodd" d="M1150.7,921.8c-2,0,-3.5,1.5,-3.5,3.5v107.4c0,2,1.5,3.7,3.5,3.7h65.6l-.3,1.1l-2.8,13.9H1205v5.3h48.1v-5.3h-8.3l-2.7,-13.9l-.3,-1.1h68.9c2,0,3.6,-1.7,3.6,-3.7V925.3c0,-2,-1.6,-3.5,-3.6,-3.5h-160Zm80.1,3.2c.7,0,1.5,.8,1.5,1.7c0,.9,-.8,1.5,-1.5,1.5c-.9,0,-1.7,-.6,-1.7,-1.5c0,-.9,.8,-1.7,1.7,-1.7Zm-74,7.5h147.9v84.3H1156.8V932.5Z" class="g1_4" />
<path fill-rule="evenodd" d="M1150.7,918.7c-2,0,-3.5,1.6,-3.5,3.6v107.4c0,2,1.5,3.6,3.5,3.6h65.6l-.3,.9l-2.8,14.1H1205v5.4h48.1v-5.4h-8.3l-2.7,-14.1l-.3,-.9h68.9c2,0,3.6,-1.6,3.6,-3.6V922.3c0,-2,-1.6,-3.6,-3.6,-3.6h-160Zm80.1,3.3c.7,0,1.5,.7,1.5,1.6c0,1,-.8,1.6,-1.5,1.6c-.9,0,-1.7,-.6,-1.7,-1.6c0,-.9,.8,-1.6,1.7,-1.6Zm-74,7.4h147.9v84.4H1156.8V929.4Z" class="g2_4" />
<path fill-rule="evenodd" d="M1264.4,595.3c0,6,4,11.6,10.2,15c-6.2,3.4,-10.2,9,-10.2,15.1c0,6.1,4,11.6,10.2,15c-6.2,3.3,-10.2,9,-10.2,15.1c0,6.1,4,11.8,10.2,15.1c-6.2,3.4,-10.2,9.1,-10.2,15.2h4.6c0,-1.3,.1,-2.3,.6,-3.6h22.6c.5,1.3,.6,2.3,.6,3.6h4.6c0,-6.1,-4,-11.8,-10.4,-15.2c6.4,-3.3,10.4,-9,10.4,-15.1c0,-6.1,-4,-11.8,-10.4,-15.1c6.4,-3.4,10.4,-8.9,10.4,-15c0,-6.1,-4,-11.7,-10.2,-15.1c6.2,-3.4,10.2,-9,10.2,-15h-4.6c0,1.1,-.1,2.2,-.6,3.2h-22.8c-.3,-1,-.4,-2.1,-.4,-3.2h-4.6Zm6.6,5.8h19.8c-2,3.1,-5.5,5.5,-9.9,6.9c-4.4,-1.4,-8,-3.8,-9.9,-6.9Zm9.9,11.6c4.4,1.3,7.9,3.9,9.9,6.8h-20c2.1,-2.9,5.7,-5.5,10.1,-6.8Zm-11.5,9.5h22.8c.5,1.1,.6,2.1,.6,3.2c0,1.1,-.1,2.2,-.5,3.1h-22.9c-.3,-.9,-.4,-2,-.4,-3.1c0,-1.1,.1,-2.1,.4,-3.2Zm1.4,9H1291c-2.2,3.1,-5.7,5.5,-10.1,6.9c-4.4,-1.4,-8.1,-3.8,-10.1,-6.9Zm10.1,11.6c4.4,1.4,7.9,3.9,9.9,6.8H1271c1.9,-2.9,5.5,-5.4,9.9,-6.8Zm-11.5,9.5h22.8c.5,.9,.6,2.1,.6,3.2c0,1.1,-.1,2.2,-.5,3.1h-22.9c-.3,-.9,-.4,-2,-.4,-3.1c0,-1.1,.1,-2.3,.4,-3.2Zm1.4,9H1291c-2,3.1,-5.5,5.5,-10.1,6.9c-4.6,-1.4,-8.1,-3.8,-10.1,-6.9Zm10.1,11.8c4.4,1.2,7.8,3.6,9.9,6.6H1271c1.9,-3,5.5,-5.4,9.9,-6.6Z" class="g1_4" />
<path fill-rule="evenodd" d="M1264.4,592.3c0,5.9,4,11.6,10.2,14.9c-6.2,3.4,-10.2,9,-10.2,15.2c0,6.1,4,11.6,10.2,14.9c-6.2,3.4,-10.2,9,-10.2,15.2c0,6.1,4,11.7,10.2,15.1c-6.2,3.3,-10.2,9,-10.2,15.1h4.6c0,-1.2,.1,-2.4,.6,-3.5h22.6c.5,1.1,.6,2.3,.6,3.5h4.6c0,-6.1,-4,-11.8,-10.4,-15.1c6.4,-3.4,10.4,-9,10.4,-15.1c0,-6.2,-4,-11.8,-10.4,-15.2c6.4,-3.3,10.4,-8.8,10.4,-14.9c0,-6.2,-4,-11.8,-10.2,-15.2c6.2,-3.3,10.2,-9,10.2,-14.9h-4.6c0,1,-.1,2.1,-.6,3.2h-22.8c-.3,-1.1,-.4,-2.2,-.4,-3.2h-4.6Zm6.6,5.8h19.8c-2,3,-5.5,5.5,-9.9,6.8c-4.4,-1.3,-8,-3.8,-9.9,-6.8Zm9.9,11.6c4.4,1.2,7.9,3.6,9.9,6.7h-20c2.1,-3.1,5.7,-5.5,10.1,-6.7Zm-11.5,9.5h22.8c.5,1,.6,1.9,.6,3.2c0,1,-.1,1.9,-.5,3h-22.9c-.3,-1.1,-.4,-2,-.4,-3c0,-1.3,.1,-2.2,.4,-3.2Zm1.4,9H1291c-2.2,3,-5.7,5.5,-10.1,6.8c-4.4,-1.3,-8.1,-3.8,-10.1,-6.8Zm10.1,11.6c4.4,1.4,7.9,3.6,9.9,6.7H1271c1.9,-3.1,5.5,-5.3,9.9,-6.7Zm-11.5,9.4h22.8c.5,1,.6,2.2,.6,3.3c0,1,-.1,1.9,-.5,3h-22.9c-.3,-1.1,-.4,-2,-.4,-3c0,-1.1,.1,-2.3,.4,-3.3Zm1.4,9.1H1291c-2,3,-5.5,5.5,-10.1,6.8c-4.6,-1.3,-8.1,-3.8,-10.1,-6.8Zm10.1,11.7c4.4,1.2,7.8,3.5,9.9,6.6H1271c1.9,-3.1,5.5,-5.4,9.9,-6.6Z" class="g3_4" />
<path d="M1197.2,589.2V893.5" class="g4_4" />
<path fill-rule="evenodd" d="M1197.2,567.8l11.3,22.9h-22.8l11.5,-22.9Z" class="g5_4" />
<path d="M1246.7,588.3V892.6" class="g4_4" />
<path fill-rule="evenodd" d="M1246.7,914l-11.3,-22.9h22.7L1246.7,914Z" class="g5_4" />
<path fill-rule="evenodd" d="M1131.2,831.2c-2.3,0,-4.2,1.8,-4.2,4.1v30.4c0,2.3,1.9,4.3,4.2,4.3h51.3c2.3,0,4.1,-2,4.1,-4.3V835.3c0,-2.3,-1.8,-4.1,-4.1,-4.1h-51.3Zm2.9,12.7h.4v3.2H1131v-.2c0,-1.6,1.4,-3,3.1,-3Zm1.3,0h4.8c1.7,0,3,1.4,3,3v.2h-7.8v-3.2ZM1131,848h3.5v2.8H1131V848Zm4.4,0h3.3v2.8h-3.3V848Zm4.2,0h3.6v2.8h-3.6V848Zm-8.6,3.5h3.5v3.2h-.4c-1.7,0,-3.1,-1.3,-3.1,-3v-.2Zm4.4,0h3.3v3.2h-3.3v-3.2Zm4.2,0h3.6v.2c0,1.7,-1.3,3,-3,3h-.6v-3.2Zm-8,9.2h1.1c.3,0,.5,.1,.5,.5v2.1c0,.3,-.2,.4,-.5,.4h-1.1c-.1,0,-.4,-.3,-.4,-.4V861c0,-.2,.3,-.3,.4,-.3Zm2.6,0h.9v2.6h.5v-.8q0,-.1,.2,-.1q.1,0,.1,.1v.9c0,.2,0,.3,-.1,.3h-1.6c-.1,0,-.1,-.1,-.1,-.3c0,0,0,-.1,.1,-.1h.6V861h-.6q-.1,0,-.1,-.2q0,-.1,.1,-.1Zm2.8,0h1.3c.2,0,.4,.1,.4,.5v.9c0,.1,-.2,.3,-.4,.3h-1.2v.9h1.4c.2,0,.2,.1,.2,.1c0,.2,0,.3,-.2,.3h-1.7v-1.3c0,-.2,.2,-.3,.3,-.3h1.2V861H1137q-.2,0,-.2,-.2q0,-.1,.2,-.1Zm2.9,0h1.2c.2,0,.5,.1,.5,.3v.9c0,.2,-.2,.2,-.2,.3q.2,.2,.2,.3v.8c0,.3,-.2,.4,-.5,.4h-1.2c-.2,0,-.3,-.1,-.3,-.3c0,0,.1,-.1,.3,-.1h1.2v-.6c0,-.2,0,-.3,-.2,-.3h-.7c-.2,0,-.2,-.2,-.2,-.2q0,-.1,.2,-.1h.7c.2,0,.2,-.2,.2,-.3V861h-1.2c-.2,0,-.3,0,-.3,-.2c0,-.1,.1,-.1,.3,-.1Zm5.5,0q.1,0,.1,.1v1.6h.8v-1.2c0,0,.1,-.2,.1,-.2c.2,0,.3,.2,.3,.2v1.2q.2,0,.2,.1c0,0,-.2,.2,-.2,.2v.7c0,.2,-.1,.3,-.3,.3c0,0,-.1,-.1,-.1,-.3v-.7h-1.1v-1.9q0,-.1,.2,-.1Zm5.3,0h.2c.1,0,.3,0,.3,.1c0,.2,-.2,.2,-.3,.2v1.2h1.4c.1,0,.3,.2,.3,.3v.9c0,.2,-.2,.3,-.3,.3h-1.6c-.1,0,-.1,-.1,-.1,-.3v-2.6q0,-.1,.1,-.1Zm2.8,0h1.8v1.2c0,0,0,.2,-.1,.2l-.7,.4c0,0,0,.2,0,.2v.7c0,.2,-.1,.3,-.3,.3c0,0,-.1,-.1,-.1,-.3v-.9c0,0,0,-.1,.1,-.1l.6,-.5q0,-.1,0,-.3V861h-1q-.2,.2,-.3,.2c0,0,-.2,0,-.2,-.2v-.2c0,-.1,.2,-.1,.2,-.1Zm5.8,0h.7c.2,0,.3,.1,.3,.1v1.3c.2,0,.4,.1,.4,.3v.9c0,.3,-.2,.4,-.4,.4h-1.2c-.1,0,-.4,-.1,-.4,-.4v-.9c0,-.2,.3,-.3,.4,-.3v-1.3q0,-.1,.2,-.1Zm2.4,0h1.6q.1,0,.1,.1v2.6c0,.2,0,.3,-.1,.3h-.2c-.2,0,-.2,-.1,-.2,-.3c0,0,0,-.1,.2,-.1v-1.2h-1.4q-.1,0,-.1,-.2v-1.1q0,-.1,.1,-.1Zm2.9,0h1.2c.4,0,.5,.1,.5,.5v2.1c0,.3,-.3,.4,-.5,.4h-1.2c-.1,0,-.3,-.3,-.3,-.4V861c0,-.2,.2,-.3,.3,-.3Zm2.8,0h.9v2.6h.3v-.8c0,-.1,.2,-.1,.3,-.1c0,0,.2,0,.2,.1v.9c0,.2,-.2,.3,-.2,.3h-1.5c-.2,0,-.3,-.1,-.3,-.3c0,0,.1,-.1,.3,-.1h.4V861h-.4c-.2,0,-.3,0,-.3,-.2c0,-.1,.1,-.1,.3,-.1Zm5.3,0h1.4c.1,0,.3,.1,.3,.5v.9c0,.1,-.2,.3,-.3,.3h-1.2v.9h1.3c.2,0,.2,.1,.2,.1c0,.2,0,.3,-.2,.3h-1.6v-1.3c0,-.2,.1,-.3,.3,-.3h1.2V861h-1.4q-.1,0,-.1,-.2q0,-.1,.1,-.1Zm2.8,0h1.3c.2,0,.4,.1,.4,.3v.9q0,.2,0,.3q0,.2,0,.3v.8c0,.3,-.2,.4,-.4,.4h-1.3c-.2,0,-.2,-.1,-.2,-.3c0,0,0,-.1,.2,-.1h1.3v-.6c0,-.2,-.1,-.3,-.3,-.3h-.6c-.1,0,-.3,-.2,-.3,-.2c0,-.1,.2,-.1,.3,-.1h.6c.2,0,.3,-.2,.3,-.3V861h-1.3q-.2,0,-.2,-.2q0,-.1,.2,-.1Zm3,0c0,0,.2,0,.2,.1v1.6h.7v-1.2c0,0,0,-.2,.2,-.2c.2,0,.2,.2,.2,.2v1.2c.1,0,.3,0,.3,.1c0,0,-.2,.2,-.2,.2h-.1v.7c0,.2,0,.3,-.2,.3c-.2,0,-.2,-.1,-.2,-.3v-.7h-1.2v-1.9c0,-.1,.2,-.1,.3,-.1Zm-30.4,0h1.4q.2,0,.2,.1q0,.2,-.2,.2h-.9v1.1h.7c.2,0,.4,.1,.4,.3v.9c0,.3,-.2,.4,-.4,.4h-.9q-.1,0,-.3,-.1h-.1q-.2,-.2,-.2,-.3c0,0,0,-.2,.2,-.2h.1l.2,.2q.1,0,.1,0h.9v-.9h-1.2v-1.7Zm33.2,0h1.4c0,0,.1,0,.1,.1c0,.2,-.1,.2,-.1,.2h-1.1v1.1h.7c.4,0,.5,.1,.5,.3v.9c0,.3,-.1,.4,-.5,.4h-.9c0,0,-.1,0,-.1,-.1h-.3c0,-.2,-.2,-.2,-.2,-.3c0,0,.2,-.2,.3,-.2l.3,.2h.9v-.9h-1v-1.7Zm-21.9,.3v1.1h.5V861h-.5Zm-27.8,0v2.3h1.1V861h-1.1Zm30.3,0v.8h1.2V861h-1.2Zm2.7,0v2.3h1.2V861h-1.2Zm-5.5,1.4v.9h1.2v-.9h-1.2Zm-8.2,.3v.6h1.2v-.6h-1.2Z" class="g1_4" />
<path fill-rule="evenodd" d="M1131.2,828.2c-2.3,0,-4.2,1.8,-4.2,4.1v30.4c0,2.3,1.9,4.3,4.2,4.3h51.3c2.3,0,4.1,-2,4.1,-4.3V832.3c0,-2.3,-1.8,-4.1,-4.1,-4.1h-51.3Zm2.9,12.6h.4V844H1131v-.1c0,-1.7,1.4,-3.1,3.1,-3.1Zm1.3,0h4.8c1.7,0,3,1.4,3,3.1v.1h-7.8v-3.2ZM1131,845h3.5v2.6H1131V845Zm4.4,0h3.3v2.6h-3.3V845Zm4.2,0h3.6v2.6h-3.6V845Zm-8.6,3.5h3.5v3.2h-.4c-1.7,0,-3.1,-1.4,-3.1,-3.1v-.1Zm4.4,0h3.3v3.2h-3.3v-3.2Zm4.2,0h3.6v.1c0,1.7,-1.3,3.1,-3,3.1h-.6v-3.2Zm-8,9.1h1.1c.3,0,.5,.2,.5,.3v2.3c0,.3,-.2,.5,-.5,.5h-1.1c-.1,0,-.4,-.3,-.4,-.5v-2.3c0,-.1,.3,-.3,.4,-.3Zm2.6,0h.9v2.6h.5v-.7q0,-.2,.2,-.2q.1,0,.1,.2v.9c0,.1,0,.3,-.1,.3h-1.6c-.1,0,-.1,-.2,-.1,-.3c0,0,0,-.2,.1,-.2h.6v-2.3h-.6q-.1,0,-.1,-.1q0,-.2,.1,-.2Zm2.8,0h1.3c.2,0,.4,.2,.4,.3v1c0,.3,-.2,.4,-.4,.4h-1.2v.9h1.4c.2,0,.2,.2,.2,.2c0,.1,0,.3,-.2,.3h-1.7v-1.4c0,-.1,.2,-.4,.3,-.4h1.2v-1H1137q-.2,0,-.2,-.1q0,-.2,.2,-.2Zm2.9,0h1.2c.2,0,.5,.2,.5,.3v1c0,0,-.2,.1,-.2,.3q.2,.1,.2,.3v.7c0,.3,-.2,.5,-.5,.5h-1.2c-.2,0,-.3,-.2,-.3,-.3c0,0,.1,-.2,.3,-.2h1.2v-.6c0,-.1,0,-.3,-.2,-.3h-.7c-.2,0,-.2,-.1,-.2,-.1c0,-.2,0,-.3,.2,-.3h.7q.2,0,.2,-.2v-.8h-1.2c-.2,0,-.3,0,-.3,-.1c0,-.2,.1,-.2,.3,-.2Zm5.5,0q.1,0,.1,.2v1.5h.8v-1.2c0,-.2,.1,-.2,.1,-.2c.2,0,.3,0,.3,.2v1.2q.2,0,.2,.2c0,0,-.2,.1,-.2,.1v.8c0,.1,-.1,.3,-.3,.3c0,0,-.1,-.2,-.1,-.3v-.8h-1.1v-1.8q0,-.2,.2,-.2Zm5.3,0h.2c.1,0,.3,0,.3,.2c0,.1,-.2,.1,-.3,.1v1.3h1.4c.1,0,.3,.1,.3,.3v.9c0,.1,-.2,.3,-.3,.3h-1.6c-.1,0,-.1,-.2,-.1,-.3v-2.6q0,-.2,.1,-.2Zm2.8,0h1.8v1.3l-.1,.1l-.7,.5c0,0,0,.1,0,.1v.8c0,.1,-.1,.3,-.3,.3c0,0,-.1,-.2,-.1,-.3v-.9c0,0,0,-.2,.1,-.2l.6,-.4q0,-.2,0,-.3v-.7h-1q-.2,.2,-.3,.2c0,0,-.2,0,-.2,-.2v-.1c0,-.2,.2,-.2,.2,-.2Zm5.8,0h.7c.2,0,.3,0,.3,.2v1.1c.2,.1,.4,.3,.4,.4v.9c0,.3,-.2,.5,-.4,.5h-1.2c-.1,0,-.4,-.2,-.4,-.5v-.9c0,-.1,.3,-.3,.4,-.4v-1.1q0,-.2,.2,-.2Zm2.4,0h1.6q.1,0,.1,.2v2.6c0,.1,0,.3,-.1,.3h-.2c-.2,0,-.2,-.2,-.2,-.3c0,0,0,-.2,.2,-.2V859h-1.4c-.1,0,-.1,-.1,-.1,-.1v-1.1q0,-.2,.1,-.2Zm2.9,0h1.2c.4,0,.5,.2,.5,.3v2.3c0,.3,-.3,.5,-.5,.5h-1.2c-.1,0,-.3,-.3,-.3,-.5v-2.3c0,-.1,.2,-.3,.3,-.3Zm2.8,0h.9v2.6h.3v-.7c0,-.2,.2,-.2,.3,-.2c0,0,.2,0,.2,.2v.9c0,.1,-.2,.3,-.2,.3h-1.5c-.2,0,-.3,-.2,-.3,-.3c0,0,.1,-.2,.3,-.2h.4v-2.3h-.4c-.2,0,-.3,0,-.3,-.1c0,-.2,.1,-.2,.3,-.2Zm5.3,0h1.4c.1,0,.3,.2,.3,.3v1c0,.3,-.2,.4,-.3,.4h-1.2v.9h1.3c.2,0,.2,.2,.2,.2c0,.1,0,.3,-.2,.3h-1.6v-1.4c0,-.1,.1,-.4,.3,-.4h1.2v-1h-1.4q-.1,0,-.1,-.1q0,-.2,.1,-.2Zm2.8,0h1.3c.2,0,.4,.2,.4,.3v1c0,0,0,.1,0,.3q0,.1,0,.3v.7c0,.3,-.2,.5,-.4,.5h-1.3c-.2,0,-.2,-.2,-.2,-.3c0,0,0,-.2,.2,-.2h1.3v-.6c0,-.1,-.1,-.3,-.3,-.3h-.6c-.1,0,-.3,-.1,-.3,-.1c0,-.2,.2,-.3,.3,-.3h.6c.2,0,.3,0,.3,-.2v-.8h-1.3q-.2,0,-.2,-.1q0,-.2,.2,-.2Zm3,0c0,0,.2,0,.2,.2v1.5h.7v-1.2q0,-.2,.2,-.2q.2,0,.2,.2v1.2c.1,0,.3,0,.3,.2c0,0,-.2,.1,-.2,.1h-.1v.8c0,.1,0,.3,-.2,.3c-.2,0,-.2,-.2,-.2,-.3v-.8h-1.2v-1.8c0,-.2,.2,-.2,.3,-.2Zm-30.4,0h1.4q.2,0,.2,.2q0,.1,-.2,.1h-.9v1h.7c.2,0,.4,.3,.4,.4v.9c0,.3,-.2,.5,-.4,.5h-.9c-.1,0,-.1,-.2,-.3,-.2h-.1q-.2,-.1,-.2,-.3c0,0,0,-.1,.2,-.1h.1l.2,.1q.1,0,.1,0h.9v-.9h-1.2v-1.7Zm33.2,0h1.4c0,0,.1,0,.1,.2c0,.1,-.1,.1,-.1,.1h-1.1v1h.7c.4,0,.5,.3,.5,.4v.9c0,.3,-.1,.5,-.5,.5h-.9c0,0,-.1,-.2,-.1,-.2h-.3c0,-.1,-.2,-.1,-.2,-.3c0,0,.2,-.1,.3,-.1l.3,.1h.9v-.9h-1v-1.7Zm-21.9,.3v1h.5v-1h-.5Zm-27.8,0v2.3h1.1v-2.3h-1.1Zm30.3,0v.7h1.2v-.7h-1.2Zm2.7,0v2.3h1.2v-2.3h-1.2Zm-5.5,1.4v.9h1.2v-.9h-1.2Zm-8.2,.3v.6h1.2v-.6h-1.2Z" class="g6_4" />
<path fill-rule="evenodd" d="M1139.1,566.7h-156V527.9h312v38.8h-156Z" class="g1_4" />
<path fill-rule="evenodd" d="M1139.1,563.5h-156V524.7h312v38.8h-156Z" class="g7_4" />
<text x="955" y="373" dx="0,-2.3,0,0,0,0.1,0,-0.2" class="s1_4">Variants</text>
<path fill-rule="evenodd" d="M1210.5,393.8c-10.1,0,-20.4,1.2,-28.2,3.5c-15.5,4.8,-15.5,12.4,0,17.1c15.6,4.8,40.8,4.8,56.4,0c15.6,-4.7,15.6,-12.3,0,-17.1c-7.8,-2.3,-18,-3.5,-28.2,-3.5Zm-39.9,17.6v75.1c0,6.6,17.9,12.7,39.9,12.7c22.1,0,39.8,-6.1,39.8,-12.7V411.4c-5.6,5,-21.4,8.5,-39.8,8.5c-18.5,0,-34.3,-3.5,-39.9,-8.5Z" class="g1_4" />
<path fill-rule="evenodd" d="M1210.5,390.7c-10.1,0,-20.4,1.3,-28.2,3.6c-15.5,4.7,-15.5,12.3,0,17.1c15.6,4.7,40.8,4.7,56.4,0c15.6,-4.8,15.6,-12.4,0,-17.1c-7.8,-2.3,-18,-3.6,-28.2,-3.6Zm-39.9,17.6v75.2c0,6.6,17.9,12.7,39.9,12.7c22.1,0,39.8,-6.1,39.8,-12.7V408.3c-5.6,5.1,-21.4,8.6,-39.8,8.6c-18.5,0,-34.3,-3.5,-39.9,-8.6Z" class="g2_4" />
<text x="1115" y="373" dx="0,0,0,-0.1,0.1,-0.1,0,0.1" class="s1_4">Workfows</text>
<path d="M1090.8,452.5h67.1" class="g8_4" />
<path fill-rule="evenodd" d="M1170.7,452.5l-13.7,6.8V445.6l13.7,6.9Z" class="g5_4" />
<path d="M1091.1,423.1h78.6" class="g8_4" />
<path fill-rule="evenodd" d="M1078.3,423.1l13.8,-6.8V430l-13.8,-6.9Z" class="g5_4" />
<path fill-rule="evenodd" d="M1143.2,394.4c-1.2,0,-2.3,.9,-2.3,2.2v16.1c0,1.3,1.1,2.3,2.3,2.3h27.2c1.3,0,2.3,-1,2.3,-2.3V396.6c0,-1.3,-1,-2.2,-2.3,-2.2h-27.2Zm1.6,6.7h.3v1.7h-2c0,-.9,.7,-1.7,1.7,-1.7Zm.7,0h2.5c.9,0,1.7,.8,1.7,1.7h-4.2v-1.7Zm-2.4,2.2h2v1.5h-2v-1.5Zm2.4,0h1.7v1.5h-1.7v-1.5Zm2.2,0h2v1.5h-2v-1.5Zm-4.6,2h2v1.6h-.3c-1,0,-1.7,-.7,-1.7,-1.6Zm2.4,0h1.7v1.6h-1.7v-1.6Zm2.2,0h2c0,.9,-.8,1.6,-1.7,1.6h-.3v-1.6Zm-4.3,4.9h.6q.2,0,.2,.1v1.2c0,0,0,.2,-.2,.2h-.6c-.2,0,-.2,-.2,-.2,-.2v-1.2q0,-.1,.2,-.1Zm1.4,0h.6v1.3h.1v-.4c0,0,0,-.2,0,-.2c.2,0,.2,.2,.2,.2v.4q0,.2,-.2,.2h-.7v-.2h.3v-1.2h-.3v-.1Zm1.5,0h.8c0,0,.1,0,.1,.1v.5c0,.1,-.1,.3,-.1,.3h-.7v.4h.7q.1,0,.1,0q0,.2,-.1,.2h-1v-.6c0,-.2,.2,-.3,.3,-.3h.7v-.5h-.8q-.2,0,-.2,-.1h.2Zm1.5,0h.6c.2,0,.3,0,.3,.1v.5c0,0,-.1,0,-.1,.1c0,0,.1,.2,.1,.2v.4c0,0,-.1,.2,-.3,.2h-.6q-.1,0,-.1,-.2h.7v-.4h-.4c0,0,-.2,-.2,-.2,-.2c0,-.1,.2,-.1,.2,-.1h.4v-.5h-.6q-.1,0,-.1,-.1h.1Zm2.9,0q.2,0,.2,0v.7h.3v-.4c0,-.2,.1,-.2,.1,-.2c0,0,.2,0,.2,.2v.4c0,0,0,.2,0,.2c0,0,0,.1,0,.1v.3c0,.2,-.2,.2,-.2,.2c0,0,-.1,0,-.1,-.2v-.3h-.6v-1c0,0,.1,0,.1,0Zm2.9,0q.2,0,.2,0q0,.1,-.2,.1v.6h.8c.1,0,.1,.2,.1,.2v.4q0,.2,-.1,.2h-.8q-.1,0,-.1,-.2v-1.3h.1Zm1.6,0h.9v.6h-.2l-.3,.3v.4q0,.2,-.1,.2v-.6l.3,-.3c0,0,0,-.2,0,-.2v-.3h-.6c0,0,0,.2,0,.2c-.2,0,-.2,-.2,-.2,-.2v-.1h.2Zm3,0h.3q.2,0,.2,0v.6c.1,0,.3,.1,.3,.3v.4c0,0,-.2,.2,-.3,.2h-.6c-.2,0,-.2,-.2,-.2,-.2v-.4c0,-.2,0,-.3,.2,-.3v-.6h.1Zm1.2,0h.8q.1,0,.1,0v1.3q0,.2,0,.2h-.1q-.2,0,-.2,-.2h.2v-.7h-.8c0,0,-.1,0,-.1,0v-.6c0,0,.1,0,.1,0Zm1.6,0h.6c.1,0,.3,0,.3,.1v1.2c0,0,-.2,.2,-.3,.2h-.6c0,0,-.2,-.2,-.2,-.2v-1.2c0,-.1,.2,-.1,.2,-.1Zm1.3,0h.6v1.3h.2v-.4c0,0,.2,-.2,.2,-.2c0,0,.1,.2,.1,.2v.4c0,.2,-.1,.2,-.1,.2h-1v-.2h.3v-1.2h-.3v-.1Zm2.9,0h.8q.2,0,.2,.1v.5c0,.1,0,.3,-.2,.3h-.6v.4h.8q0,.2,0,.2h-1v-.6c0,-.2,0,-.3,.2,-.3h.6v-.5h-.8v-.1Zm1.6,0h.7c0,0,.2,0,.2,.1v.5l-.2,.1c.2,0,.2,.2,.2,.2v.4c0,0,-.2,.2,-.2,.2h-.7c0,0,-.2,0,-.2,-.2c0,0,.2,0,.2,0h.7v-.4c0,0,-.1,0,-.1,0h-.3c-.2,0,-.2,-.2,-.2,-.2q0,-.1,.2,-.1h.3c0,0,.1,0,.1,-.2v-.3h-.7c0,0,-.2,0,-.2,-.1c0,0,.2,0,.2,0Zm1.6,0v.7h.5v-.4q0,-.2,.2,-.2v.6c.1,0,.1,.2,.1,.2c0,0,0,.1,-.1,.1v.3q0,.2,0,.2q-.2,0,-.2,-.2v-.3h-.6v-1h.1Zm-16.1,0h.6q.1,0,.1,0q0,.1,-.1,.1h-.5v.5h.5c.1,0,.1,.1,.1,.3v.4c0,0,-.1,.2,-.1,.2h-.5q-.1,0,-.1,0l-.2,-.2q-.2,0,-.2,0c0,0,.2,-.1,.2,-.1h.2v.1h.6v-.4h-.6v-.9Zm17.5,0h.8c0,0,.1,0,.1,0c0,.1,-.1,.1,-.1,.1h-.5v.5h.3c.2,0,.3,.1,.3,.3v.4c0,0,-.1,.2,-.3,.2h-.6l-.1,-.2c0,0,0,-.1,0,-.1q.1,0,.1,0l.2,.1h.4v-.4h-.6v-.9Zm-11.6,.1v.5h.3v-.5h-.3Zm-14.8,0v1.2h.6v-1.2h-.6Zm16.2,0v.3h.6v-.3h-.6Zm1.4,0v1.2h.6v-1.2h-.6Zm-2.9,.8v.4h.6v-.4h-.6Zm-4.5,.1v.3h.6v-.3h-.6Z" class="g1_4" />
<path fill-rule="evenodd" d="M1143.2,391.4c-1.2,0,-2.3,.9,-2.3,2.1v16.2c0,1.2,1.1,2.3,2.3,2.3h27.2c1.3,0,2.3,-1.1,2.3,-2.3V393.5c0,-1.2,-1,-2.1,-2.3,-2.1h-27.2Zm1.6,6.7h.3v1.7h-2c0,-1,.7,-1.7,1.7,-1.7Zm.7,0h2.5c.9,0,1.7,.7,1.7,1.7h-4.2v-1.7Zm-2.4,2.1h2v1.5h-2v-1.5Zm2.4,0h1.7v1.5h-1.7v-1.5Zm2.2,0h2v1.5h-2v-1.5Zm-4.6,2h2v1.7h-.3c-1,0,-1.7,-.8,-1.7,-1.7Zm2.4,0h1.7v1.7h-1.7v-1.7Zm2.2,0h2c0,.9,-.8,1.7,-1.7,1.7h-.3v-1.7Zm-4.3,4.7h.6c.2,0,.2,.2,.2,.3v1.3c0,0,0,.1,-.2,.1h-.6c-.2,0,-.2,-.1,-.2,-.1v-1.3c0,-.1,0,-.3,.2,-.3Zm1.4,0h.6v1.6h.1V408q0,-.1,0,-.1q.2,0,.2,.1v.5q0,.1,-.2,.1h-.7v-.1h.3v-1.3h-.3v-.1c0,0,0,-.2,0,-.2Zm1.5,0h.8c0,0,.1,.2,.1,.3v.5c0,.2,-.1,.2,-.1,.2h-.7v.6h.7q.1,0,.1,0q0,.1,-.1,.1h-1v-.7c0,0,.2,-.2,.3,-.2h.7v-.5h-.8q-.2,0,-.2,-.1c0,0,0,-.2,.2,-.2Zm1.5,0h.6c.2,0,.3,.2,.3,.3v.4c0,.1,-.1,.1,-.1,.3c0,0,.1,0,.1,.1v.5c0,0,-.1,.1,-.3,.1h-.6q-.1,0,-.1,-.1h.7V408c0,0,0,-.1,0,-.1h-.4c0,0,-.2,0,-.2,0c0,-.2,.2,-.2,.2,-.2h.4v-.5h-.6q-.1,0,-.1,-.1c0,0,0,-.2,.1,-.2Zm2.9,0c.2,0,.2,.2,.2,.2v.8h.3v-.7c0,0,.1,0,.1,0c0,0,.2,0,.2,0v.8c0,0,0,.2,0,.2v.3c0,.1,-.2,.1,-.2,.1c0,0,-.1,0,-.1,-.1v-.3h-.6v-1.1c0,0,.1,-.2,.1,-.2Zm2.9,0c.2,0,.2,.2,.2,.2q0,.1,-.2,.1v.7h.8q.1,0,.1,.1v.5q0,.1,-.1,.1h-.8q-.1,0,-.1,-.1v-1.4c0,0,0,-.2,.1,-.2Zm1.6,0h.9v.7q0,.1,-.2,.1l-.3,.3v.5q0,.1,-.1,.1V408c0,0,0,-.1,0,-.1l.3,-.3v-.4h-.6q-.2,0,-.2,0v-.1c0,0,0,-.2,.2,-.2Zm3,0h.3c.2,0,.2,.2,.2,.2v.6c.1,0,.3,.2,.3,.2v.6c0,0,-.2,.1,-.3,.1h-.6c-.2,0,-.2,-.1,-.2,-.1v-.6c0,0,0,-.2,.2,-.2v-.6c0,0,0,-.2,.1,-.2Zm1.2,0h.8c.1,0,.1,.2,.1,.2v1.4q0,.1,0,.1h-.1q-.2,0,-.2,-.1h.2v-.8h-.8c0,0,-.1,0,-.1,-.1v-.5c0,0,.1,-.2,.1,-.2Zm1.6,0h.6c.1,0,.3,.2,.3,.3v1.3c0,0,-.2,.1,-.3,.1h-.6c0,0,-.2,-.1,-.2,-.1v-1.3c0,-.1,.2,-.3,.2,-.3Zm1.3,0h.6v1.6h.2V408c0,-.1,.2,-.1,.2,-.1c0,0,.1,0,.1,.1v.5c0,.1,-.1,.1,-.1,.1h-1v-.1h.3v-1.3h-.3v-.1c0,0,0,-.2,0,-.2Zm2.9,0h.8c.2,0,.2,.2,.2,.3v.5q0,.2,-.2,.2h-.6v.6h.8q0,.1,0,.1h-1v-.7c0,0,0,-.2,.2,-.2h.6v-.5h-.8v-.1c0,0,0,-.2,0,-.2Zm1.6,0h.7c0,0,.2,.2,.2,.3v.4q0,.1,-.2,.3q.2,0,.2,.1v.5c0,0,-.2,.1,-.2,.1h-.7c0,0,-.2,0,-.2,-.1c0,0,.2,0,.2,0h.7V408c0,0,-.1,-.1,-.1,-.1h-.3q-.2,0,-.2,0q0,-.2,.2,-.2h.3c0,0,.1,0,.1,-.1v-.4h-.7c0,0,-.2,0,-.2,-.1c0,0,.2,-.2,.2,-.2Zm1.6,0c0,0,0,.2,0,.2v.8h.5v-.7h.2v.7q.1,0,.1,.1c0,0,0,.2,-.1,.2v.3q0,.1,0,.1q-.2,0,-.2,-.1v-.3h-.6v-1.1c0,0,0,-.2,.1,-.2Zm-16.1,0h.6c.1,0,.1,.2,.1,.2q0,.1,-.1,.1h-.5v.5h.5c.1,0,.1,.2,.1,.2v.6c0,0,-.1,.1,-.1,.1h-.5q-.1,0,-.1,0l-.2,-.1q-.2,0,-.2,0c0,0,.2,-.2,.2,-.2h.2v.2h.6v-.6h-.6v-1Zm17.5,0h.8c0,0,.1,.2,.1,.2c0,.1,-.1,.1,-.1,.1h-.5v.5h.3c.2,0,.3,.2,.3,.2v.6c0,0,-.1,.1,-.3,.1h-.6l-.1,-.1c0,0,0,-.2,0,-.2q.1,0,.1,0l.2,.2h.4v-.6h-.6v-1Zm-11.6,.3v.5h.3v-.5h-.3Zm-14.8,0v1.3h.6v-1.3h-.6Zm16.2,0v.4h.6v-.4h-.6Zm1.4,0v1.3h.6v-1.3h-.6Zm-2.9,.7v.6h.6v-.6h-.6Zm-4.5,.3v.3h.6v-.3h-.6Z" class="g6_4" />
<path fill-rule="evenodd" d="M1093.4,458.9c0,3.2,2.2,6.3,5.5,7.9c-3.3,1.9,-5.5,4.9,-5.5,8.1c0,3.2,2.2,6.3,5.5,8c-3.3,1.8,-5.5,4.9,-5.5,8.1c0,3.2,2.2,6.2,5.5,8.1c-3.3,1.6,-5.5,4.7,-5.5,7.9h2.5c0,-.6,0,-1.2,.3,-1.8h12.1c.1,.6,.3,1.2,.3,1.8h2.4c0,-3.2,-2.1,-6.3,-5.7,-7.9c3.6,-1.9,5.7,-4.9,5.7,-8.1c0,-3.2,-2.1,-6.3,-5.5,-8.1c3.4,-1.7,5.5,-4.8,5.5,-8c0,-3.2,-2.1,-6.2,-5.5,-8.1c3.4,-1.6,5.5,-4.7,5.5,-7.9h-2.4c0,.6,-.2,1.2,-.3,1.7H1096c-.1,-.5,-.1,-1.1,-.1,-1.7h-2.5Zm3.4,3.2h10.7c-1.1,1.5,-2.9,2.9,-5.4,3.5c-2.3,-.6,-4.2,-2,-5.3,-3.5Zm5.3,6.1c2.5,.8,4.3,2,5.4,3.5h-10.7c1.1,-1.5,3,-2.7,5.3,-3.5Zm-6.1,5h12.3c.1,.7,.3,1.1,.3,1.7c0,.6,-.2,1.1,-.3,1.7H1096c-.1,-.6,-.1,-1.1,-.1,-1.7c0,-.6,0,-1,.1,-1.7Zm.8,4.8h10.7c-1.1,1.7,-2.9,3,-5.4,3.7c-2.3,-.7,-4.2,-2,-5.3,-3.7Zm5.3,6.2c2.3,.7,4.3,2,5.4,3.6h-10.6c1.1,-1.6,2.9,-2.9,5.2,-3.6Zm-5.9,4.9h12.1c.1,.6,.3,1.3,.3,1.9c0,.4,-.2,1,-.3,1.7H1096c-.1,-.7,-.1,-1.3,-.1,-1.7c0,-.6,0,-1.3,.3,-1.9Zm.6,4.9h10.7c-1.1,1.7,-2.9,2.9,-5.4,3.7c-2.3,-.8,-4.2,-2,-5.3,-3.7Zm5.3,6.3c2.3,.8,4.3,2,5.4,3.5h-10.6c1.1,-1.5,2.9,-2.7,5.2,-3.5Z" class="g1_4" />
<path fill-rule="evenodd" d="M1093.4,455.8c0,3.2,2.2,6.3,5.5,8c-3.3,1.8,-5.5,4.9,-5.5,8.1c0,3.2,2.2,6.2,5.5,7.9c-3.3,1.9,-5.5,4.9,-5.5,8.1c0,3.2,2.2,6.3,5.5,8c-3.3,1.8,-5.5,4.8,-5.5,8.1h2.5c0,-.7,0,-1.3,.3,-1.9h12.1c.1,.6,.3,1.2,.3,1.9h2.4c0,-3.3,-2.1,-6.3,-5.7,-8.1c3.6,-1.7,5.7,-4.8,5.7,-8c0,-3.2,-2.1,-6.2,-5.5,-8.1c3.4,-1.7,5.5,-4.7,5.5,-7.9c0,-3.2,-2.1,-6.3,-5.5,-8.1c3.4,-1.7,5.5,-4.8,5.5,-8h-2.4c0,.6,-.2,1.3,-.3,1.7H1096c-.1,-.4,-.1,-1.1,-.1,-1.7h-2.5Zm3.4,3.2h10.7c-1.1,1.6,-2.9,2.9,-5.4,3.6c-2.3,-.7,-4.2,-2,-5.3,-3.6Zm5.3,6.2c2.5,.6,4.3,1.9,5.4,3.5h-10.7c1.1,-1.6,3,-2.9,5.3,-3.5Zm-6.1,5h12.3c.1,.5,.3,1.1,.3,1.7c0,.4,-.2,1,-.3,1.7H1096c-.1,-.7,-.1,-1.3,-.1,-1.7c0,-.6,0,-1.2,.1,-1.7Zm.8,4.7h10.7c-1.1,1.7,-2.9,2.9,-5.4,3.7c-2.3,-.8,-4.2,-2,-5.3,-3.7Zm5.3,6.3c2.3,.6,4.3,2,5.4,3.5h-10.6c1.1,-1.5,2.9,-2.9,5.2,-3.5Zm-5.9,4.9h12.1c.1,.6,.3,1.2,.3,1.8c0,.5,-.2,1.1,-.3,1.5H1096c-.1,-.4,-.1,-1,-.1,-1.5c0,-.6,0,-1.2,.3,-1.8Zm.6,4.9h10.7c-1.1,1.7,-2.9,2.9,-5.4,3.6c-2.3,-.7,-4.2,-1.9,-5.3,-3.6Zm5.3,6.2c2.3,.6,4.3,2,5.4,3.5h-10.6c1.1,-1.5,2.9,-2.9,5.2,-3.5Z" class="g3_4" />
<image preserveAspectRatio="none" x="1108" y="525" width="32" height="43" xlink:href="4/img/1.png" />


<!-- Any embedded fonts defined here -->
<style type="text/css" ><![CDATA[

@font-face {
	font-family: DejaVuSans-Oblique_5c;
	src: url("fonts/DejaVuSans-Oblique_5c.woff") format("woff");
}

]]></style>

</svg>
