<?xml version="1.0" encoding="utf-8"?>
<svg x="0" y="0" width="1564" height="1173" viewBox="0 0 1564 1173" version="1.1" style="display: block;margin-left: auto;margin-right: auto;" xmlns="http://www.w3.org/2000/svg" xmlns:xlink="http://www.w3.org/1999/xlink" xmlns:bx="https://boxy-svg.com">
  <defs>
    <clipPath id="c0_4">
      <path d="M0,1173.3V0H1564.4V1173.3Z"/>
    </clipPath>
    <style bx:fonts="DejaVuSans-Oblique_84">@font-face { font-family: DejaVuSans-Oblique_84; src: url("fonts/DejaVuSans-Oblique_84.woff") format("woff"); }</style>
    <style type="text/css">

.g0_4{
fill: #FFFFFF;
}
.g1_4{
fill: none;
stroke: #000000;
stroke-width: 7.6095405;
stroke-linecap: butt;
stroke-linejoin: miter;
stroke-miterlimit: 7;
stroke-opacity: 0.5;
}
.g2_4{
fill: none;
stroke: #F5D328;
stroke-width: 7.6095405;
stroke-linecap: butt;
stroke-linejoin: miter;
stroke-miterlimit: 7;
}
.g3_4{
fill-opacity: 0.5;
}
.g4_4{
fill: none;
stroke: #000000;
stroke-width: 3.069764;
stroke-linecap: butt;
stroke-linejoin: miter;
stroke-miterlimit: 7;
stroke-opacity: 0.5;
}
.g5_4{
fill: #0077B1;
fill-opacity: 0.52;
}
.g6_4{
fill: none;
stroke: #0077B1;
stroke-width: 3.069764;
stroke-linecap: butt;
stroke-linejoin: miter;
stroke-miterlimit: 7;
}
.g7_4{
fill: #70BF41;
}
.g8_4{
fill: none;
stroke: #0077B1;
stroke-width: 1.513264;
stroke-linecap: butt;
stroke-linejoin: miter;
stroke-miterlimit: 7;
}
.g9_4{
fill: #F5D328;
}

.s1_4{
font-size: 48.89px;
font-family: DejaVuSans-Oblique_84;
fill: #00AB1D;
}
.s2_4{
font-size: 48.89px;
font-family: DejaVuSans-Oblique_84;
fill: #0175AF;
}
.s3_4{
font-size: 36.67px;
font-family: DejaVuSans-Oblique_84;
fill: #000000;
}
.s4_4{
font-size: 24.44px;
font-family: DejaVuSans-Oblique_84;
fill: #000000;
}

</style>
  </defs>
  <path d="M0,0 L0,1173 L1564,1173 L1564,0 Z " fill="#FFFFFF" stroke="none"/>
  <g clip-path="url(#c0_4)">
    <path fill-rule="evenodd" d="M0,.1H1564.4V1173.4H0V.1Z" class="g0_4"/>
    <path fill-rule="evenodd" d="M0,.1H1564.4V1173.4H0V.1Z" class="g0_4"/>
  </g>
  <image preserveAspectRatio="none" x="7" y="1076" width="60" height="79" xlink:href="4/img/1.png"/>
  <path d="M1140.9,824.6H823v-377h635.9v377h-318Z" class="g1_4"/>
  <path d="M1140.9,821.6H823V444.5h635.9V821.6h-318Z" class="g2_4"/>
  <path fill-rule="evenodd" d="M1173.3,573.2v-1l.2,-.3v-.4l.1,-.3l.2,-.3l.1,-.3v-.3l.2,-.3l.1,-.2l.4,-.3l.1,-.3l.2,-.2l.3,-.3l.3,-.3l.1,-.1l.3,-.2l.3,-.1l.3,-.3h.2l.3,-.2l.3,-.1l.3,-.2l.3,-.1h.6l.5,-.2h72.3l.3,.2h.7l.3,.1l.3,.2l.3,.1l.3,.2h.3l.2,.3l.3,.1l.3,.2l.2,.1l.3,.3l.3,.3l.1,.2l.2,.3l.1,.3l.3,.3v.2l.2,.3l.1,.3l.2,.3l.1,.3v.7l.2,.4v16.8l-.2,.3v.6l-.1,.3l-.2,.3v.3l-.3,.3v.3l-.3,.3l-.1,.3l-.2,.2l-.1,.3l-.3,.1l-.3,.3l-.2,.2l-.3,.3l-.1,.1l-.4,.2l-.3,.1l-.3,.2l-.3,.2l-.3,.1h-.3l-.3,.2h-.7l-.4,.1h-71.6l-.3,-.1h-.6l-.3,-.2h-.5l-.3,-.1l-.3,-.2l-.3,-.2l-.2,-.1l-.3,-.2l-.3,-.1l-.3,-.2l-.1,-.3l-.3,-.1l-.2,-.3l-.3,-.2l-.1,-.3l-.2,-.3l-.2,-.3l-.3,-.3v-.2l-.1,-.3l-.2,-.3l-.1,-.4V590l-.2,-.3V573.2Z" class="g3_4"/>
  <path d="M1173.3,573.2v0v-1l.2,-.3v-.4l.1,-.3l.2,-.3l.1,-.3v-.3l.2,-.3l.1,-.2l.4,-.3l.1,-.3l.2,-.2l.3,-.3l.3,-.3l.1,-.1l.3,-.2l.3,-.1l.3,-.3h.2l.3,-.2l.3,-.1l.3,-.2l.3,-.1h.6l.5,-.2h72.3l.3,.2h.7l.3,.1l.3,.2l.3,.1l.3,.2h.3l.2,.3l.3,.1l.3,.2l.2,.1l.3,.3l.3,.3l.1,.2l.2,.3l.1,.3l.3,.3v.2l.2,.3l.1,.3l.2,.3l.1,.3v.7l.2,.4v16.8l-.2,.3v.6l-.1,.3l-.2,.3v.3l-.3,.3v.3l-.3,.3l-.1,.3l-.2,.2l-.1,.3l-.3,.1l-.3,.3l-.2,.2l-.3,.3l-.1,.1l-.4,.2l-.3,.1l-.3,.2l-.3,.2l-.3,.1h-.3l-.3,.2h-.7l-.4,.1h-71.6l-.3,-.1h-.6l-.3,-.2h-.5l-.3,-.1l-.3,-.2l-.3,-.2l-.2,-.1l-.3,-.2l-.3,-.1l-.3,-.2l-.1,-.3l-.3,-.1l-.2,-.3l-.3,-.2l-.1,-.3l-.2,-.3l-.2,-.3l-.3,-.3v-.2l-.1,-.3l-.2,-.3l-.1,-.4V590l-.2,-.3V573.2Zm0,-6.3v0Zm83.6,28.1v0Z" class="g4_4"/>
  <path fill-rule="evenodd" d="M1173.3,570.1V569l.2,-.3v-.3l.1,-.3l.2,-.3l.1,-.3v-.3l.2,-.3l.1,-.2l.4,-.3l.1,-.3l.2,-.3l.3,-.1l.3,-.3l.1,-.2l.3,-.1l.3,-.3l.3,-.2l.2,-.1h.3l.3,-.2l.3,-.1l.3,-.2h.5l.1,-.2h73.1l.3,.2h.4l.3,.2l.3,.1l.3,.2h.3l.3,.1l.2,.2l.3,.3l.3,.1l.2,.2l.3,.3l.3,.1l.1,.3l.2,.3l.1,.3l.3,.4v.1l.2,.3l.1,.3l.2,.3l.1,.3v.6l.2,.5v16.8l-.2,.3v.6l-.1,.3l-.2,.3v.3l-.3,.3v.3l-.3,.4l-.1,.3l-.2,.1l-.1,.3l-.3,.2l-.3,.3l-.2,.1l-.3,.3l-.1,.2l-.4,.1l-.3,.2l-.3,.1l-.3,.2l-.3,.2h-.3l-.3,.1h-.7l-.4,.2h-71.6l-.3,-.2h-.6l-.3,-.1h-.5l-.3,-.2l-.3,-.2l-.3,-.1l-.2,-.2l-.3,-.1l-.3,-.2l-.3,-.3l-.1,-.1l-.3,-.2l-.2,-.3l-.3,-.1l-.1,-.3l-.2,-.3l-.2,-.4l-.3,-.3v-.3l-.1,-.3l-.2,-.3l-.1,-.3v-.3l-.2,-.3V570.1Z" class="g5_4"/>
  <path d="M1173.3,570.1v0V569l.2,-.3v-.3l.1,-.3l.2,-.3l.1,-.3v-.3l.2,-.3l.1,-.2l.4,-.3l.1,-.3l.2,-.3l.3,-.1l.3,-.3l.1,-.2l.3,-.1l.3,-.3l.3,-.2l.2,-.1h.3l.3,-.2l.3,-.1l.3,-.2h.5l.1,-.2h73.1l.3,.2h.4l.3,.2l.3,.1l.3,.2h.3l.3,.1l.2,.2l.3,.3l.3,.1l.2,.2l.3,.3l.3,.1l.1,.3l.2,.3l.1,.3l.3,.4v.1l.2,.3l.1,.3l.2,.3l.1,.3v.6l.2,.5v16.8l-.2,.3v.6l-.1,.3l-.2,.3v.3l-.3,.3v.3l-.3,.4l-.1,.3l-.2,.1l-.1,.3l-.3,.2l-.3,.3l-.2,.1l-.3,.3l-.1,.2l-.4,.1l-.3,.2l-.3,.1l-.3,.2l-.3,.2h-.3l-.3,.1h-.7l-.4,.2h-71.6l-.3,-.2h-.6l-.3,-.1h-.5l-.3,-.2l-.3,-.2l-.3,-.1l-.2,-.2l-.3,-.1l-.3,-.2l-.3,-.3l-.1,-.1l-.3,-.2l-.2,-.3l-.3,-.1l-.1,-.3l-.2,-.3l-.2,-.4l-.3,-.3v-.3l-.1,-.3l-.2,-.3l-.1,-.3v-.3l-.2,-.3V570.1Zm0,-6.3v0Zm83.6,28.2v0Z" class="g6_4"/>
  <path fill-rule="evenodd" d="M1246.4,571.2v-.6l.1,-.2v-.3h.2v-.3l.1,-.1l.2,-.2v-.2h.1l.2,-.1l.1,-.2h.3v-.1h.3l.2,-.2h1.2l.2,.2h.1l.2,.1h.1l.2,.2h.1v.1h.2l.1,.2v.2l.2,.1v.2l.1,.1v.2l.2,.1v.3l.2,.2v.3h-.2v.6l-.2,.1v.3l-.1,.2l-.2,.2v.1h-.1v.2h-.2v.1l-.1,.2h-.2l-.1,.1h-.2l-.1,.2h-.5l-.1,.1h-.2v-.1h-.8l-.1,-.2h-.2l-.1,-.1h-.3V573l-.2,-.1l-.1,-.2l-.2,-.1l-.1,-.2v-.2l-.2,-.1v-.2l-.1,-.1v-.6Z" class="g0_4"/>
  <path fill-rule="evenodd" d="M1240.4,571.2v-.6l.2,-.2v-.3l.1,-.1v-.2l.2,-.1l.1,-.2v-.2h.2l.1,-.1l.2,-.2h.1l.2,-.1h.3l.1,-.2h1.3v.2h.3l.1,.1h.2l.1,.2h.2v.1h.1v.2l.2,.2l.1,.1v.2l.2,.1v.2l.1,.1v1.4l-.1,.1v.2l-.2,.1v.2l-.1,.2v.1h-.2v.2h-.1v.1l-.2,.2h-.1l-.2,.1h-.1l-.2,.2h-.4l-.2,.1h-.2v-.1h-.7l-.2,-.2h-.3v-.1h-.3V573l-.1,-.1l-.2,-.2h-.1v-.1l-.2,-.2l-.1,-.2v-.3l-.2,-.1v-.6Z" class="g7_4"/>
  <path fill-rule="evenodd" d="M1173.9,604.2V603l.2,-.5l.1,-.3v-.3l.2,-.3l.2,-.3l.1,-.3l.2,-.2l.3,-.3l.1,-.3l.2,-.1l.1,-.4l.3,-.3l.3,-.1l.3,-.2l.2,-.3l.3,-.1l.3,-.2h.3l.3,-.1l.3,-.2l.3,-.1h.6l.3,-.2h72.5l.3,.2h.6l.3,.1l.3,.2l.3,.1h.3l.3,.2l.3,.1l.3,.3l.2,.2l.3,.1l.3,.3l.1,.4l.3,.1l.2,.3l.1,.3l.2,.3l.1,.2l.2,.3l.2,.3l.1,.3v.3l.2,.5v.6l.1,.3v16.2l-.1,.3v.6l-.2,.3v.3l-.1,.3l-.2,.3l-.2,.3l-.1,.3l-.2,.3l-.1,.3l-.2,.2l-.3,.3l-.1,.1l-.3,.3l-.2,.2l-.3,.3l-.3,.2l-.3,.1l-.3,.2l-.2,.1l-.3,.2l-.3,.1h-.4l-.3,.2h-.6l-.3,.1h-71.8l-.4,-.1h-.6l-.3,-.2h-.3l-.3,-.1l-.3,-.2l-.3,-.1l-.3,-.2l-.3,-.1l-.2,-.2l-.3,-.1l-.3,-.4l-.1,-.1l-.3,-.3l-.2,-.2l-.1,-.3l-.3,-.3l-.2,-.3l-.1,-.3l-.2,-.1l-.2,-.3v-.4l-.1,-.4l-.2,-.3V604.2Z" class="g3_4"/>
  <path d="M1173.9,604.2v0V603l.2,-.5l.1,-.3v-.3l.2,-.3l.2,-.3l.1,-.3l.2,-.2l.3,-.3l.1,-.3l.2,-.1l.1,-.4l.3,-.3l.3,-.1l.3,-.2l.2,-.3l.3,-.1l.3,-.2h.3l.3,-.1l.3,-.2l.3,-.1h.6l.3,-.2h72.5l.3,.2h.6l.3,.1l.3,.2l.3,.1h.3l.3,.2l.3,.1l.3,.3l.2,.2l.3,.1l.3,.3l.1,.4l.3,.1l.2,.3l.1,.3l.2,.3l.1,.2l.2,.3l.2,.3l.1,.3v.3l.2,.5v.6l.1,.3v16.2l-.1,.3v.6l-.2,.3v.3l-.1,.3l-.2,.3l-.2,.3l-.1,.3l-.2,.3l-.1,.3l-.2,.2l-.3,.3l-.1,.1l-.3,.3l-.2,.2l-.3,.3l-.3,.2l-.3,.1l-.3,.2l-.2,.1l-.3,.2l-.3,.1h-.4l-.3,.2h-.6l-.3,.1h-71.8l-.4,-.1h-.6l-.3,-.2h-.3l-.3,-.1l-.3,-.2l-.3,-.1l-.3,-.2l-.3,-.1l-.2,-.2l-.3,-.1l-.3,-.4l-.1,-.1l-.3,-.3l-.2,-.2l-.1,-.3l-.3,-.3l-.2,-.3l-.1,-.3l-.2,-.1l-.2,-.3v-.4l-.1,-.4l-.2,-.3V604.2Zm0,-6.3v0Zm83.6,28.1v0Z" class="g4_4"/>
  <path fill-rule="evenodd" d="M1173.9,601.1v-1.4l.2,-.3l.1,-.3v-.3l.2,-.3l.2,-.3l.1,-.3l.2,-.1l.3,-.3l.1,-.3l.2,-.4l.1,-.1l.3,-.3l.3,-.2l.3,-.1l.2,-.3l.3,-.2l.3,-.1h.3l.3,-.2l.3,-.1l.3,-.2h.3l.3,-.1h73.1l.3,.1h.3l.3,.2l.3,.1l.3,.2h.3l.3,.1l.3,.2l.3,.3l.2,.1l.3,.2l.3,.3l.1,.1l.3,.4l.2,.3l.1,.3l.2,.3l.1,.1l.2,.3l.2,.3l.1,.3v.3l.2,.3v.8l.1,.3V617l-.1,.3v.6l-.2,.3v.3l-.1,.3l-.2,.4l-.2,.3l-.1,.3l-.2,.3l-.1,.1l-.2,.3l-.3,.3l-.1,.2l-.3,.3l-.2,.1l-.3,.3l-.3,.2l-.3,.2l-.3,.1l-.2,.2l-.3,.1l-.3,.2h-.4l-.3,.1h-.6l-.3,.2h-71.8l-.4,-.2h-.6l-.3,-.1h-.3l-.3,-.2l-.3,-.1l-.3,-.2l-.3,-.1l-.3,-.2l-.2,-.2l-.3,-.3l-.3,-.1l-.1,-.2l-.3,-.3l-.2,-.3l-.1,-.1l-.3,-.3l-.2,-.3l-.1,-.3l-.2,-.3l-.2,-.4v-.3l-.1,-.3l-.2,-.3V601.1Z" class="g5_4"/>
  <path d="M1173.9,601.1v0v-1.4l.2,-.3l.1,-.3v-.3l.2,-.3l.2,-.3l.1,-.3l.2,-.1l.3,-.3l.1,-.3l.2,-.4l.1,-.1l.3,-.3l.3,-.2l.3,-.1l.2,-.3l.3,-.2l.3,-.1h.3l.3,-.2l.3,-.1l.3,-.2h.3l.3,-.1h73.1l.3,.1h.3l.3,.2l.3,.1l.3,.2h.3l.3,.1l.3,.2l.3,.3l.2,.1l.3,.2l.3,.3l.1,.1l.3,.4l.2,.3l.1,.3l.2,.3l.1,.1l.2,.3l.2,.3l.1,.3v.3l.2,.3v.8l.1,.3V617l-.1,.3v.6l-.2,.3v.3l-.1,.3l-.2,.4l-.2,.3l-.1,.3l-.2,.3l-.1,.1l-.2,.3l-.3,.3l-.1,.2l-.3,.3l-.2,.1l-.3,.3l-.3,.2l-.3,.2l-.3,.1l-.2,.2l-.3,.1l-.3,.2h-.4l-.3,.1h-.6l-.3,.2h-71.8l-.4,-.2h-.6l-.3,-.1h-.3l-.3,-.2l-.3,-.1l-.3,-.2l-.3,-.1l-.3,-.2l-.2,-.2l-.3,-.3l-.3,-.1l-.1,-.2l-.3,-.3l-.2,-.3l-.1,-.1l-.3,-.3l-.2,-.3l-.1,-.3l-.2,-.3l-.2,-.4v-.3l-.1,-.3l-.2,-.3V601.1Zm0,-6.2v0Zm83.6,28.1v0Z" class="g6_4"/>
  <path fill-rule="evenodd" d="M1247,602.2v-.8l.1,-.1v-.2l.2,-.1v-.2l.1,-.1v-.2l.2,-.1h.1v-.2h.2l.1,-.1h.2l.1,-.2h.4v-.2h1.2l.1,.2h.3v.2h.3l.2,.1l.1,.2h.2v.1l.2,.2l.1,.1v.2l.2,.1v.3l.1,.2v1.1l-.1,.1v.3l-.2,.2v.1h-.1v.3h-.2l-.2,.2l-.1,.1h-.2v.2h-.1l-.2,.1h-.1l-.2,.2h-.3l-.1,.1h-.3v-.1h-.6v-.2h-.5l-.2,-.1l-.1,-.2h-.2v-.1h-.1v-.2h-.2v-.1l-.1,-.2l-.2,-.1V603h-.1v-.8Z" class="g0_4"/>
  <path fill-rule="evenodd" d="M1240.9,602.2v-.3l.1,-.2v-.3l.2,-.1v-.2l.1,-.1v-.2l.2,-.1v-.2l.1,-.1h.2v-.2h.1l.2,-.1h.1l.2,-.2h.1l.2,-.2h1.2l.2,.2h.3v.2h.3l.1,.1l.2,.2h.1v.1l.2,.2l.1,.1v.3h.2v.3l.2,.2v1.1l-.2,.1v.2l-.2,.1v.3h-.1v.2l-.2,.1l-.1,.2l-.2,.1h-.1v.2h-.2l-.1,.1h-.2l-.1,.2h-.3l-.2,.1h-.3v-.1h-.6l-.2,-.2h-.3l-.1,-.1l-.2,-.2h-.1v-.1h-.2v-.2h-.1v-.1l-.2,-.2l-.1,-.1V603h-.2v-.5l-.1,-.2v-.1Z" class="g7_4"/>
  <path fill-rule="evenodd" d="M1173.9,635.2v-1.4l.2,-.3l.1,-.3v-.3l.2,-.3l.2,-.3l.1,-.3l.2,-.3l.3,-.2l.1,-.3l.2,-.3l.1,-.1l.3,-.3l.3,-.2l.3,-.1l.2,-.4l.3,-.1l.3,-.2l.3,-.1l.3,-.2h.3l.3,-.1l.3,-.2h73.7l.3,.2l.3,.1h.3l.3,.2l.3,.1l.3,.2l.3,.1l.3,.4l.2,.1l.3,.2l.3,.3l.1,.1l.3,.3l.2,.3l.1,.2l.2,.3l.1,.3l.2,.3l.2,.3l.1,.3v.3l.2,.3v.6l.1,.3v16.2l-.1,.3v.8l-.2,.3v.3l-.1,.3l-.2,.3l-.2,.3l-.1,.3l-.2,.3l-.1,.2l-.2,.3l-.3,.3l-.1,.2l-.3,.3l-.2,.1l-.3,.2l-.3,.3l-.3,.1l-.3,.2l-.2,.1h-.3l-.3,.2l-.4,.1h-.3l-.3,.2h-.9l-71.1,.1v-.1h-1.1l-.3,-.2h-.3l-.3,-.1l-.3,-.2h-.3l-.3,-.1l-.3,-.2l-.3,-.1l-.2,-.2l-.3,-.3l-.3,-.1l-.1,-.3l-.3,-.2l-.2,-.3l-.1,-.2l-.3,-.3l-.2,-.3l-.1,-.3l-.2,-.3l-.2,-.3v-.3l-.1,-.3l-.2,-.3V635.2Z" class="g3_4"/>
  <path d="M1173.9,635.2v0v-1.4l.2,-.3l.1,-.3v-.3l.2,-.3l.2,-.3l.1,-.3l.2,-.3l.3,-.2l.1,-.3l.2,-.3l.1,-.1l.3,-.3l.3,-.2l.3,-.1l.2,-.4l.3,-.1l.3,-.2l.3,-.1l.3,-.2h.3l.3,-.1l.3,-.2h73.7l.3,.2l.3,.1h.3l.3,.2l.3,.1l.3,.2l.3,.1l.3,.4l.2,.1l.3,.2l.3,.3l.1,.1l.3,.3l.2,.3l.1,.2l.2,.3l.1,.3l.2,.3l.2,.3l.1,.3v.3l.2,.3v.6l.1,.3v16.2l-.1,.3v.8l-.2,.3v.3l-.1,.3l-.2,.3l-.2,.3l-.1,.3l-.2,.3l-.1,.2l-.2,.3l-.3,.3l-.1,.2l-.3,.3l-.2,.1l-.3,.2l-.3,.3l-.3,.1l-.3,.2l-.2,.1h-.3l-.3,.2l-.4,.1h-.3l-.3,.2h-.9l-71.1,.1v-.1h-1.1l-.3,-.2h-.3l-.3,-.1l-.3,-.2h-.3l-.3,-.1l-.3,-.2l-.3,-.1l-.2,-.2l-.3,-.3l-.3,-.1l-.1,-.3l-.3,-.2l-.2,-.3l-.1,-.2l-.3,-.3l-.2,-.3l-.1,-.3l-.2,-.3l-.2,-.3v-.3l-.1,-.3l-.2,-.3V635.2Zm0,-6.3v0Zm83.6,28.1v0Z" class="g4_4"/>
  <path fill-rule="evenodd" d="M1173.9,632.1v-1.3l.2,-.3l.1,-.3v-.4l.2,-.3l.2,-.3l.1,-.3l.2,-.3l.3,-.1l.1,-.3l.2,-.3l.1,-.3l.3,-.2l.3,-.2l.3,-.3l.2,-.1l.3,-.2l.3,-.1l.3,-.2l.3,-.1l.3,-.2h.3l.3,-.1h.6l.4,-.2h71.8l.3,.2h.6l.3,.1h.3l.3,.2l.3,.1l.3,.2l.3,.1l.3,.2l.3,.1l.2,.3l.3,.2l.3,.2l.1,.3l.3,.3l.2,.3l.1,.1l.2,.3l.1,.3l.2,.3l.2,.3l.1,.4v.3l.2,.3v.6l.1,.3v16.2l-.1,.3v.7l-.2,.3v.4l-.1,.3l-.2,.3l-.2,.3l-.1,.1l-.2,.3l-.1,.3l-.2,.3l-.3,.3l-.1,.2l-.3,.2l-.2,.3l-.3,.1l-.3,.2l-.3,.3l-.3,.1h-.2l-.3,.2l-.3,.1l-.4,.2h-.3l-.3,.1h-73.1l-.3,-.1h-.3l-.3,-.2l-.3,-.1h-.3l-.3,-.2l-.3,-.1l-.3,-.2l-.2,-.1l-.3,-.3l-.3,-.2l-.1,-.3l-.3,-.2l-.2,-.3l-.1,-.3l-.3,-.1l-.2,-.3l-.1,-.3l-.2,-.3l-.2,-.3v-.3l-.1,-.4l-.2,-.3V632.1Z" class="g5_4"/>
  <path d="M1173.9,632.1v0v-1.3l.2,-.3l.1,-.3v-.4l.2,-.3l.2,-.3l.1,-.3l.2,-.3l.3,-.1l.1,-.3l.2,-.3l.1,-.3l.3,-.2l.3,-.2l.3,-.3l.2,-.1l.3,-.2l.3,-.1l.3,-.2l.3,-.1l.3,-.2h.3l.3,-.1h.6l.4,-.2h71.8l.3,.2h.6l.3,.1h.3l.3,.2l.3,.1l.3,.2l.3,.1l.3,.2l.3,.1l.2,.3l.3,.2l.3,.2l.1,.3l.3,.3l.2,.3l.1,.1l.2,.3l.1,.3l.2,.3l.2,.3l.1,.4v.3l.2,.3v.6l.1,.3v16.2l-.1,.3v.7l-.2,.3v.4l-.1,.3l-.2,.3l-.2,.3l-.1,.1l-.2,.3l-.1,.3l-.2,.3l-.3,.3l-.1,.2l-.3,.2l-.2,.3l-.3,.1l-.3,.2l-.3,.3l-.3,.1h-.2l-.3,.2l-.3,.1l-.4,.2h-.3l-.3,.1h-73.1l-.3,-.1h-.3l-.3,-.2l-.3,-.1h-.3l-.3,-.2l-.3,-.1l-.3,-.2l-.2,-.1l-.3,-.3l-.3,-.2l-.1,-.3l-.3,-.2l-.2,-.3l-.1,-.3l-.3,-.1l-.2,-.3l-.1,-.3l-.2,-.3l-.2,-.3v-.3l-.1,-.4l-.2,-.3V632.1Zm0,-6.4v0Zm83.6,28.1v0Z" class="g6_4"/>
  <path fill-rule="evenodd" d="M1247,633.1v-.7l.1,-.1V632l.2,-.2l.1,-.1v-.2l.2,-.1l.1,-.2h.2l.1,-.1l.2,-.2h.3l.2,-.1h1.3l.2,.1h.1l.2,.2h.1l.2,.1h.1l.2,.2v.1h.2v.2l.1,.1l.2,.2v.4h.1v1.3h-.1v.4h-.2v.2l-.1,.1v.2l-.2,.1h-.2v.2l-.1,.1h-.2v.2h-.1l-.2,.1h-.3l-.1,.2h-1.1l-.1,-.2h-.4l-.1,-.1h-.2V635h-.3v-.1l-.1,-.2l-.2,-.1v-.2h-.1v-.1l-.2,-.2V634l-.1,-.2v-.7Z" class="g0_4"/>
  <path fill-rule="evenodd" d="M1240.9,633.1v-.2l.1,-.2v-.3l.2,-.1V632l.1,-.2l.2,-.1v-.2l.1,-.1l.2,-.2h.1l.2,-.1l.1,-.2h.3v-.1h1.6l.1,.1h.2l.1,.2h.2l.1,.1h.2l.1,.2v.1h.2v.2l.1,.1v.2l.2,.1v.3h.2v1.3h-.2v.3l-.2,.1v.2l-.1,.1v.2h-.2v.1h-.1v.2l-.2,.1h-.1v.2h-.2l-.1,.1h-.3l-.2,.2h-1.1l-.1,-.2h-.3l-.2,-.1h-.1V635h-.3v-.1l-.2,-.2l-.1,-.1v-.2h-.2v-.1l-.1,-.2V634l-.2,-.2v-.3l-.1,-.1v-.3Z" class="g7_4"/>
  <path fill-rule="evenodd" d="M1173.9,666.2v-1.4l.2,-.3l.1,-.3v-.3l.2,-.3l.2,-.3l.1,-.3l.2,-.3l.3,-.2l.1,-.3l.2,-.3l.1,-.3l.3,-.1l.3,-.2l.3,-.1l.2,-.3l.3,-.2l.3,-.1l.3,-.2l.3,-.2h.3l.3,-.1l.3,-.2h73.7l.3,.2l.3,.1h.3l.3,.2l.3,.2l.3,.1l.3,.2l.3,.3l.2,.1l.3,.2l.3,.1l.1,.3l.3,.3l.2,.3l.1,.2l.2,.3l.1,.3l.2,.3l.2,.3l.1,.3v.3l.2,.3v.6l.1,.3v33.8l-.1,.3v.6l-.2,.3v.3l-.1,.3l-.2,.4l-.2,.3l-.1,.3l-.2,.3l-.1,.3l-.2,.1l-.3,.3l-.1,.3l-.3,.2l-.2,.1l-.3,.3l-.3,.2l-.3,.2l-.3,.1l-.2,.2l-.3,.1l-.3,.2h-.4l-.3,.1h-.3l-.3,.2h-72.5l-.3,-.2h-.3l-.3,-.1h-.3l-.3,-.2l-.3,-.1l-.3,-.2l-.3,-.1l-.3,-.2l-.2,-.2l-.3,-.1l-.3,-.3l-.1,-.2l-.3,-.3l-.2,-.1l-.1,-.3l-.3,-.3l-.2,-.3l-.1,-.3l-.2,-.2l-.2,-.3v-.3l-.1,-.5l-.2,-.3V666.2Z" class="g3_4"/>
  <path d="M1173.9,666.2v0v-1.4l.2,-.3l.1,-.3v-.3l.2,-.3l.2,-.3l.1,-.3l.2,-.3l.3,-.2l.1,-.3l.2,-.3l.1,-.3l.3,-.1l.3,-.2l.3,-.1l.2,-.3l.3,-.2l.3,-.1l.3,-.2l.3,-.2h.3l.3,-.1l.3,-.2h73.7l.3,.2l.3,.1h.3l.3,.2l.3,.2l.3,.1l.3,.2l.3,.3l.2,.1l.3,.2l.3,.1l.1,.3l.3,.3l.2,.3l.1,.2l.2,.3l.1,.3l.2,.3l.2,.3l.1,.3v.3l.2,.3v.6l.1,.3v33.8l-.1,.3v.6l-.2,.3v.3l-.1,.3l-.2,.4l-.2,.3l-.1,.3l-.2,.3l-.1,.3l-.2,.1l-.3,.3l-.1,.3l-.3,.2l-.2,.1l-.3,.3l-.3,.2l-.3,.2l-.3,.1l-.2,.2l-.3,.1l-.3,.2h-.4l-.3,.1h-.3l-.3,.2h-72.5l-.3,-.2h-.3l-.3,-.1h-.3l-.3,-.2l-.3,-.1l-.3,-.2l-.3,-.1l-.3,-.2l-.2,-.2l-.3,-.1l-.3,-.3l-.1,-.2l-.3,-.3l-.2,-.1l-.1,-.3l-.3,-.3l-.2,-.3l-.1,-.3l-.2,-.2l-.2,-.3v-.3l-.1,-.5l-.2,-.3V666.2Zm0,-6.3v0Zm83.6,45.6v0Z" class="g4_4"/>
  <path fill-rule="evenodd" d="M1173.9,663.2v-1.4l.2,-.3l.1,-.3v-.3l.2,-.3l.2,-.4l.1,-.3l.2,-.3l.3,-.3l.1,-.1l.2,-.3l.1,-.3l.3,-.2l.3,-.1l.3,-.3l.2,-.2l.3,-.1l.3,-.2l.3,-.2l.3,-.1l.3,-.2h.3l.3,-.1h.6l.4,-.2h71.8l.3,.2h.6l.3,.1h.3l.3,.2l.3,.1l.3,.2l.3,.2l.3,.1l.3,.2l.2,.3l.3,.1l.3,.2l.1,.3l.3,.3l.2,.1l.1,.3l.2,.3l.1,.3l.2,.4l.2,.3l.1,.3v.3l.2,.3v.6l.1,.3v33.8l-.1,.3v.6l-.2,.3v.3l-.1,.3l-.2,.3l-.2,.3l-.1,.3l-.2,.3l-.1,.3l-.2,.2l-.3,.3l-.1,.1l-.3,.3l-.2,.2l-.3,.3l-.3,.1l-.3,.2l-.3,.2l-.2,.1l-.3,.2l-.3,.1h-.4l-.3,.2h-.6l-.3,.1h-71.8l-.4,-.1h-.6l-.3,-.2h-.3l-.3,-.1l-.3,-.2l-.3,-.1l-.3,-.2l-.3,-.2l-.2,-.1l-.3,-.2l-.3,-.3l-.1,-.1l-.3,-.3l-.2,-.2l-.1,-.3l-.3,-.3l-.2,-.3l-.1,-.3l-.2,-.2l-.2,-.3v-.3l-.1,-.4l-.2,-.3V663.2Z" class="g5_4"/>
  <path d="M1173.9,663.2v0v-1.4l.2,-.3l.1,-.3v-.3l.2,-.3l.2,-.4l.1,-.3l.2,-.3l.3,-.3l.1,-.1l.2,-.3l.1,-.3l.3,-.2l.3,-.1l.3,-.3l.2,-.2l.3,-.1l.3,-.2l.3,-.2l.3,-.1l.3,-.2h.3l.3,-.1h.6l.4,-.2h71.8l.3,.2h.6l.3,.1h.3l.3,.2l.3,.1l.3,.2l.3,.2l.3,.1l.3,.2l.2,.3l.3,.1l.3,.2l.1,.3l.3,.3l.2,.1l.1,.3l.2,.3l.1,.3l.2,.4l.2,.3l.1,.3v.3l.2,.3v.6l.1,.3v33.8l-.1,.3v.6l-.2,.3v.3l-.1,.3l-.2,.3l-.2,.3l-.1,.3l-.2,.3l-.1,.3l-.2,.2l-.3,.3l-.1,.1l-.3,.3l-.2,.2l-.3,.3l-.3,.1l-.3,.2l-.3,.2l-.2,.1l-.3,.2l-.3,.1h-.4l-.3,.2h-.6l-.3,.1h-71.8l-.4,-.1h-.6l-.3,-.2h-.3l-.3,-.1l-.3,-.2l-.3,-.1l-.3,-.2l-.3,-.2l-.2,-.1l-.3,-.2l-.3,-.3l-.1,-.1l-.3,-.3l-.2,-.2l-.1,-.3l-.3,-.3l-.2,-.3l-.1,-.3l-.2,-.2l-.2,-.3v-.3l-.1,-.4l-.2,-.3V663.2Zm0,-6.5v0Zm83.6,45.7v0Z" class="g6_4"/>
  <path d="M1182.3,696.2L1194.6,663m-5.2,32.1l12.2,-31.8m-5,32.9l12,-33.2" class="g8_4"/>
  <path fill-rule="evenodd" d="M1140.9,502.6h-121V412.4h242v90.2h-121Z" class="g3_4"/>
  <path fill-rule="evenodd" d="M1140.9,499.5h-121V409.4h242v90.1h-121Z" class="g9_4"/>
  <text x="1037" y="464" dx="0,0,-0.1,0.1,0,-0.2,0,-0.1,0,0,0.1,0,0,0,0,-0.1" class="s4_4" style="white-space: pre;">/CanDIG/variants</text>
  <image preserveAspectRatio="none" x="949" y="530" width="206" height="206" xlink:href="4/img/2.png"/>
</svg>