<?xml version="1.0" encoding="UTF-8" standalone="no"?>
<!DOCTYPE svg PUBLIC "-//W3C//DTD SVG 1.1//EN"
"http://www.w3.org/Graphics/SVG/1.1/DTD/svg11.dtd">


<!-- Page 5 -->
<svg x="0" y="0" width="1564" height="1173" viewBox="0 0 1564 1173" version="1.1" xmlns="http://www.w3.org/2000/svg" xmlns:xlink="http://www.w3.org/1999/xlink"
style="display: block;margin-left: auto;margin-right: auto;">
<defs>
<clipPath id="c0_5"><path d="M0,1173.3V0H1564.4V1173.3Z" /></clipPath>

<style type="text/css"><![CDATA[

.g0_5{
fill: #FFFFFF;
}
.g1_5{
fill-opacity: 0.5;
}
.g2_5{
fill: none;
stroke: #000000;
stroke-width: 3.069764;
stroke-linecap: butt;
stroke-linejoin: miter;
stroke-opacity: 0.5;
}
.g3_5{
fill: #0077B1;
fill-opacity: 0.52;
}
.g4_5{
fill: none;
stroke: #0077B1;
stroke-width: 3.069764;
stroke-linecap: butt;
stroke-linejoin: miter;
}
.g5_5{
fill: #70BF41;
}
.g6_5{
fill: none;
stroke: #0077B1;
stroke-width: 1.513264;
stroke-linecap: butt;
stroke-linejoin: miter;
stroke-miterlimit: 7;
}
.g7_5{
fill: #FFFFFF;
fill-opacity: 0.15;
}
.g8_5{
fill-opacity: 0.75;
}
.g9_5{
fill: #0175AE;
}
.g10_5{
fill: none;
stroke: #F38F18;
stroke-width: 4.583028;
stroke-linecap: butt;
stroke-linejoin: miter;
}
.g11_5{
fill: #F38F18;
}
.g12_5{
fill: none;
stroke: #000000;
stroke-width: 3.069764;
stroke-linecap: butt;
stroke-linejoin: miter;
stroke-miterlimit: 7;
stroke-opacity: 0.5;
}
.g13_5{
fill: #FCD186;
}
.g14_5{
fill: none;
stroke: #F38F18;
stroke-width: 3.069764;
stroke-linecap: butt;
stroke-linejoin: miter;
stroke-miterlimit: 7;
}
.g15_5{
fill: none;
stroke: #70BF41;
stroke-width: 4.583028;
stroke-linecap: butt;
stroke-linejoin: miter;
}
.g16_5{
fill: none;
stroke: #0077B1;
stroke-width: 3.069764;
stroke-linecap: butt;
stroke-linejoin: miter;
stroke-miterlimit: 7;
}
.g17_5{
fill: none;
stroke: #002452;
stroke-width: 3.069764;
stroke-linecap: butt;
stroke-linejoin: miter;
}
.g18_5{
fill: #FFFFFF;
fill-opacity: 0.24000001;
}


]]></style>

</defs>
<path d="M0,0
L0,1173
L1564,1173
L1564,0 Z " 
fill="#FFFFFF" stroke="none" />
<g clip-path="url(#c0_5)">
<path fill-rule="evenodd" d="M0,.1H1564.4V1173.4H0V.1Z" class="g0_5" />
<path fill-rule="evenodd" d="M0,.1H1564.4V1173.4H0V.1Z" class="g0_5" />
</g>
<path fill-rule="evenodd" d="M1166.6,841.7V841l.2,-.2v-.4l.1,-.2v-.1l.2,-.3l.1,-.2l.2,-.1v-.3l.1,-.2l.2,-.2l.1,-.1l.2,-.2l.1,-.1l.2,-.2h.1l.4,-.1l.1,-.2l.2,-.1h.3l.1,-.2h.5l.1,-.1h48.6l.2,.1h.4l.3,.2h.2l.1,.1l.3,.2l.2,.1h.1l.2,.2l.1,.1l.2,.2l.2,.1l.1,.2l.2,.2l.1,.3l.2,.1v.2l.1,.3l.2,.1v.3l.1,.3v.9l.2,10.3v.1l-.2,.3v.7l-.1,.1v.3l-.2,.2l-.1,.1v.2l-.2,.3l-.1,.1l-.2,.2l-.1,.1v.2l-.4,.1l-.1,.2l-.2,.1l-.1,.2l-.2,.2h-.3l-.1,.1l-.2,.2h-.4l-.2,.1h-.9l-47.4,.2h-.1l-.2,-.2h-.7l-.2,-.1h-.1l-.3,-.2l-.2,-.1h-.1l-.4,-.2l-.1,-.2l-.2,-.1l-.1,-.2h-.2l-.1,-.3l-.2,-.1l-.1,-.2v-.1l-.2,-.2l-.1,-.1l-.2,-.3v-.2l-.1,-.1v-.5l-.2,-.3V841.7Z" class="g1_5" />
<path d="M1166.6,841.7v0V841l.2,-.2v-.4l.1,-.2v-.1l.2,-.3l.1,-.2l.2,-.1v-.3l.1,-.2l.2,-.2m2.6,-1.3h3m3.2,0h3.1m3.1,0h3m3.1,0h3m3.1,0h3m3.2,0h3.1m3.1,0h3m3.1,0h3m3.1,.3h.3l.1,.1l.3,.2l.2,.1h.1l.2,.2l.1,.1l.2,.2l.2,.1l.1,.2l.2,.2l.1,.3l.2,.1v.2m.4,2.9v3m.2,3.1v3m-1.1,2.9h-.1v.2l-.4,.1l-.1,.2l-.2,.1l-.1,.2l-.2,.2h-.3l-.1,.1l-.2,.2h-.4l-.2,.1h-.4m-3.1,0h-3.1m-3,0h-3.1m-3,0h-3.1m-3,0l-3.2,.2m-3.1,0h-3.1m-3,0h-3.1m-3,0h-3.1m-3,0h-2l-.2,-.2h-.7l-.2,-.1h-.1m-2.3,-2v0l-.2,-.3v-.2l-.1,-.1v-.5l-.2,-.3v-1.5m0,-3.1v-3" class="g2_5" />
<path fill-rule="evenodd" d="M1166.6,838.5v-.6l.2,-.1v-.5l.1,-.1v-.3l.2,-.2l.1,-.1l.2,-.4v-.1l.1,-.2l.2,-.1l.1,-.2l.2,-.1l.1,-.2l.2,-.1l.1,-.2h.4l.1,-.1l.2,-.2h.3l.1,-.1h.5l.1,-.2h48.6l.2,.2h.4l.3,.1h.2l.1,.2l.3,.1h.2l.1,.2l.2,.1l.1,.2l.2,.1l.2,.2l.1,.1l.2,.2l.1,.1l.2,.4v.1l.1,.2l.2,.3v.3l.1,.3v.7l.2,10.4v.2l-.2,.1v.8l-.1,.2v.3l-.2,.1l-.1,.2v.1l-.2,.3l-.1,.2l-.2,.1l-.1,.2v.1l-.4,.2l-.1,.1l-.2,.2l-.1,.1h-.2l-.3,.2l-.1,.1h-.2l-.1,.2h-.3l-.2,.2h-49.3l-.2,-.2h-.1l-.3,-.2l-.2,-.1h-.1l-.4,-.2l-.1,-.1l-.2,-.2l-.1,-.1l-.2,-.2l-.1,-.1l-.2,-.2l-.1,-.1v-.2l-.2,-.1l-.1,-.3l-.2,-.2v-.1l-.1,-.3v-.4l-.2,-.3v-11Z" class="g3_5" />
<path d="M1166.6,838.7v-.8l.2,-.1v-.5l.1,-.1v-.3l.2,-.2l.1,-.1l.2,-.4v-.1l.1,-.2l.2,-.1m2.6,-1.4h3m3.2,0h3.1m3.1,0h3m3.1,0h3m3.1,0h3m3.2,0h3.1m3.1,0h3m3.1,0h3m3.1,.3h.3l.1,.2l.3,.1h.2l.1,.2l.2,.1l.1,.2l.2,.1l.2,.2l.1,.1l.2,.2l.1,.1l.2,.4v.1m.4,2.9v3.1m.2,3v3.1m-1.1,2.9h-.1v.1l-.4,.2l-.1,.1l-.2,.2l-.1,.1h-.2l-.3,.2l-.1,.1h-.2l-.1,.2h-.3l-.2,.2h-.4m-3.1,0h-3.1m-3,0h-3.1m-3,0h-3.1m-3,0H1194m-3.1,0h-3.1m-3,0h-3.1m-3,0h-3.1m-3,0h-2.9l-.2,-.2h-.1m-2.3,-2v-.1l-.2,-.2v-.1l-.1,-.3v-.4l-.2,-.3V848m0,-3v-3.3" class="g4_5" />
<path fill-rule="evenodd" d="M1215.2,839.3v-.1l.1,-.2v-.5h.2v-.1l.2,-.2l.1,-.1l.2,-.2h.1l.2,-.1h.3l.1,-.2h.3v.2h.5l.1,.1h.2l.1,.2v.1h.2v.2h.2v.3h.1v.9l-.1,.2v.3l-.2,.1l-.2,.2v.1h-.1l-.2,.2h-.1v.1h-1.2v-.1h-.2l-.1,-.2h-.2v-.1h-.1v-.2h-.2v-.1h-.2v-.5l-.1,-.1v-.2Z" class="g0_5" />
<path fill-rule="evenodd" d="M1211.2,839.3v-.1l.2,-.2v-.5h.1v-.1l.2,-.2l.1,-.1v-.2h.3v-.1h.5l.1,-.2h.4v.2h.4l.2,.1h.1l.2,.2v.1h.1v.2l.2,.1v.2h.1v.9l-.1,.2v.3h-.2v.1l-.1,.2v.1h-.2l-.1,.2h-.2v.1h-1.2v-.1h-.2l-.1,-.2h-.2v-.1h-.1v-.2h-.2v-.1h-.1v-.5l-.2,-.1v-.2Z" class="g5_5" />
<path fill-rule="evenodd" d="M1166.9,862.2v-.1l.2,-.2v-.7l.1,-.2v-.2l.2,-.3v-.1l.1,-.2l.2,-.3l.1,-.1v-.2l.2,-.1l.1,-.2l.2,-.1l.1,-.2l.4,-.1h.1l.2,-.2l.1,-.1l.3,-.2h.2l.1,-.2h.5l.1,-.1H1219l.3,.1h.3l.3,.2h.2l.1,.2l.3,.1l.2,.2h.1l.2,.1l.2,.2l.3,.1v.2l.1,.1l.2,.2l.1,.1l.2,.3v.2l.1,.1l.2,.3v.2l.1,.2v1l.2,10.4v.2l-.2,.3v.6l-.1,.1v.5l-.2,.1l-.1,.2l-.2,.3l-.1,.2v.1l-.2,.2l-.1,.1l-.2,.2l-.1,.1l-.4,.2l-.1,.1h-.2l-.1,.2l-.3,.1h-.2l-.1,.2h-.3l-.2,.1h-49.2l-.3,-.1h-.1l-.2,-.2l-.3,-.1h-.1l-.2,-.2l-.1,-.1l-.4,-.2l-.1,-.1h-.2l-.1,-.3l-.2,-.2v-.1l-.1,-.2l-.2,-.2l-.1,-.3v-.1l-.2,-.2v-.3l-.1,-.1v-.6l-.2,-.3V862.2Z" class="g1_5" />
<path d="M1166.9,862.4v-.3l.2,-.2v-.7l.1,-.2v-.2l.2,-.3v-.1l.1,-.2l.2,-.3l.1,-.1v-.2l.2,-.1m2.7,-1.4v0h3.1m3,0h3.1m3.1,0h3m3.1,0h3m3.2,0h3.1m3,0h3.1m3.1,0h3m3.1,0h3.2m2.9,.3h.3l.1,.2l.3,.1l.2,.2h.1l.2,.1l.2,.2l.3,.1v.2l.1,.1l.2,.2l.1,.1l.2,.3v.2m.4,2.9v3m.2,3.1v3.1m-1.1,2.9v0l-.1,.1l-.2,.2l-.1,.1l-.4,.2l-.1,.1h-.2l-.1,.2l-.3,.1h-.2l-.1,.2h-.3l-.2,.1h-.4m-2.9,0h-3.3m-3,0h-3.1m-3,0h-3.1m-3,0h-3.1m-3,0h-3.2m-3.1,0H1182m-3,0h-3.1m-3,0h-2.8l-.3,-.1m-2.3,-2l-.1,-.2v-.1l-.2,-.2v-.3l-.1,-.1v-.6l-.2,-.3v-1.1m0,-3.1v-3.2" class="g2_5" />
<path fill-rule="evenodd" d="M1166.9,859.2V859l.2,-.1v-.8l.1,-.2v-.3l.2,-.1v-.2l.1,-.3l.2,-.1l.1,-.2v-.1l.2,-.2l.1,-.1l.2,-.2l.1,-.1l.4,-.2l.1,-.1h.2l.1,-.2l.3,-.2h.2l.1,-.1h.3l.2,-.2h49l.2,.2h.1l.3,.1h.2l.1,.2l.3,.2h.2l.1,.1l.2,.2l.2,.1l.3,.2v.1l.1,.2l.2,.1l.1,.2l.2,.3v.1l.1,.2l.2,.1v.3l.1,.2v1.1l.2,10.4v.1l-.2,.2v.7l-.1,.2v.4l-.2,.2l-.1,.1l-.2,.3l-.1,.2v.2l-.2,.1l-.1,.2l-.2,.1l-.1,.2l-.4,.1l-.1,.2h-.2l-.1,.1l-.3,.2h-.2l-.1,.1h-.5l-.1,.2h-48.9l-.2,-.2h-.4l-.2,-.1l-.3,-.2h-.1l-.2,-.1l-.1,-.2l-.4,-.1l-.1,-.2l-.2,-.1l-.1,-.2l-.2,-.1V872l-.1,-.2l-.2,-.1l-.1,-.3v-.2l-.2,-.1v-.3l-.1,-.2V870l-.2,-.3V859.2Z" class="g3_5" />
<path d="M1166.9,859.3V859l.2,-.1v-.8l.1,-.2v-.3l.2,-.1v-.2l.1,-.3l.2,-.1l.1,-.2v-.1l.2,-.2m2.7,-1.4v0h3.1m3,0h3.1m3.1,0h3m3.1,0h3m3.2,0h3.1m3,0h3.1m3.1,0h3m3.1,0h3.2m2.9,.3h.3l.1,.2l.3,.2h.2l.1,.1l.2,.2l.2,.1l.3,.2v.1l.1,.2l.2,.1l.1,.2l.2,.3v.1m.4,2.9v3.1m.2,3v3.1m-1.1,2.9v0l-.1,.2l-.2,.1l-.1,.2l-.4,.1l-.1,.2h-.2l-.1,.1l-.3,.2h-.2l-.1,.1h-.5l-.1,.2h-.3m-2.9,0h-3.3m-3,0h-3.1m-3,0h-3.1m-3,0h-3.1m-3,0h-3.2m-3.1,0H1182m-3,0h-3.1m-3,0h-2.6l-.2,-.2h-.3m-2.3,-2l-.1,-.1v-.2l-.2,-.1v-.3l-.1,-.2V870l-.2,-.3v-1.1m0,-3.2v-3" class="g4_5" />
<path fill-rule="evenodd" d="M1215.7,859.9v-.6l.1,-.1V859h.2v-.1l.1,-.2l.2,-.1h.1l.2,-.2h.3l.1,-.2h.3l.2,.2h.3l.1,.2h.2l.2,.1l.1,.2l.2,.1v.2l.1,.1v.3l.2,.2v.1h-.2v.5l-.1,.1v.3h-.2l-.1,.2v.2h-.2v.1h-.2l-.1,.2h-1.1l-.1,-.2h-.2l-.1,-.1l-.2,-.2h-.1v-.2h-.2v-.3h-.1v-.6Z" class="g0_5" />
<path fill-rule="evenodd" d="M1211.5,859.9v-.1l.2,-.2v-.3l.1,-.1V859l.2,-.1l.1,-.2l.2,-.1h.1l.2,-.2h.3l.2,-.2h.3l.1,.2h.3l.2,.2h.1l.2,.1l.1,.2v.1h.2v.2l.1,.1v1.1l-.1,.1v.2l-.2,.1l-.1,.2v.2h-.2v.1h-.1l-.2,.2h-1.1l-.1,-.2h-.2l-.1,-.1h-.2V861h-.1v-.2h-.2v-.3h-.1v-.3l-.2,-.1v-.2Z" class="g5_5" />
<path fill-rule="evenodd" d="M1166.9,882.8v-.1l.2,-.2v-.7l.1,-.2v-.1l.2,-.3V881l.1,-.1l.2,-.3l.1,-.2v-.2l.2,-.1l.1,-.2l.2,-.1l.1,-.2l.4,-.1l.1,-.2h.2l.1,-.1l.3,-.2h.2l.1,-.1h.3l.2,-.2h49l.2,.2h.1l.3,.1h.2l.1,.2l.3,.1h.2l.1,.2l.2,.1l.2,.2l.3,.1v.2l.1,.1l.2,.2l.1,.2l.2,.3v.1l.1,.2l.2,.3v.1l.1,.2v1l.2,10.4v.2l-.2,.1v.8l-.1,.2v.4l-.2,.2l-.1,.1l-.2,.3l-.1,.2v.1l-.2,.2l-.1,.1l-.2,.2l-.1,.1l-.4,.2l-.1,.1h-.2l-.1,.2l-.3,.2h-.2l-.1,.1h-.3l-.2,.2h-49.2l-.3,-.2h-.1l-.2,-.1l-.3,-.2h-.1l-.2,-.2l-.1,-.1l-.4,-.2l-.1,-.1l-.2,-.2l-.1,-.1l-.2,-.2v-.1l-.1,-.2l-.2,-.1l-.1,-.3v-.2l-.2,-.1v-.3l-.1,-.2v-.6l-.2,-.3V882.8Z" class="g1_5" />
<path d="M1166.9,883v-.3l.2,-.2v-.7l.1,-.2v-.1l.2,-.3V881l.1,-.1l.2,-.3l.1,-.2v-.2l.2,-.1m2.7,-1.4v0h3.1m3,0h3.1m3.1,0h3m3.1,0h3m3.2,0h3.1m3,0h3.1m3.1,0h3m3.1,0h3.2m2.9,.3h.3l.1,.2l.3,.1h.2l.1,.2l.2,.1l.2,.2l.3,.1v.2l.1,.1l.2,.2l.1,.2l.2,.3v.1m.4,2.9V887m.2,3v3.1m-1.1,2.9v0l-.1,.1l-.2,.2l-.1,.1l-.4,.2l-.1,.1h-.2l-.1,.2l-.3,.2h-.2l-.1,.1h-.3l-.2,.2h-.4m-2.9,0h-3.3m-3,0h-3.1m-3,0h-3.1m-3,0h-3.1m-3,0h-3.2m-3.1,0H1182m-3,0h-3.1m-3,0h-2.8l-.3,-.2m-2.3,-2l-.1,-.1v-.2l-.2,-.1v-.3l-.1,-.2v-.6l-.2,-.3v-1.1m0,-3v-3.2" class="g2_5" />
<path fill-rule="evenodd" d="M1166.9,879.8v-.2l.2,-.3v-.6l.1,-.1v-.3l.2,-.2V878l.1,-.3l.2,-.2l.1,-.2v-.1l.2,-.2l.1,-.1l.2,-.2l.1,-.1l.4,-.2l.1,-.1l.2,-.2h.1l.3,-.1h.2l.1,-.2h.3l.2,-.1h49l.2,.1h.1l.3,.2h.2l.1,.1h.3l.2,.2l.1,.1l.2,.2l.2,.1l.3,.2v.1l.1,.2l.2,.1l.1,.2l.2,.3v.2l.1,.1l.2,.2v.3l.1,.1v1.1l.2,10.2v.3l-.2,.2v.7l-.1,.2v.5l-.2,.1l-.1,.2l-.2,.3l-.1,.1v.2l-.2,.1l-.1,.2l-.2,.1l-.1,.2l-.4,.1h-.1l-.2,.2l-.1,.1l-.3,.2h-.2l-.1,.2h-.5l-.1,.1h-48.9l-.2,-.1h-.4l-.2,-.2l-.3,-.2h-.1l-.2,-.1l-.1,-.2l-.4,-.1l-.1,-.2l-.2,-.1l-.1,-.2l-.2,-.1v-.2l-.1,-.1l-.2,-.2l-.1,-.3v-.1l-.2,-.2v-.3l-.1,-.2v-.6l-.2,-.3V879.8Z" class="g3_5" />
<path d="M1166.9,879.9v-.3l.2,-.3v-.6l.1,-.1v-.3l.2,-.2V878l.1,-.3l.2,-.2l.1,-.2v-.1l.2,-.2m2.7,-1.3v0h3.1m3,0h3.1m3.1,0h3m3.1,0h3m3.2,0h3.1m3,0h3.1m3.1,0h3m3.1,0h3.2m2.9,.3h.3l.1,.1h.3l.2,.2l.1,.1l.2,.2l.2,.1l.3,.2v.1l.1,.2l.2,.1l.1,.2l.2,.3v.2m.4,2.9v3m.2,3.1v3m-1.1,2.9v0l-.1,.2l-.2,.1l-.1,.2l-.4,.1h-.1l-.2,.2l-.1,.1l-.3,.2h-.2l-.1,.2h-.5l-.1,.1h-.3m-2.9,0h-3.3m-3,0h-3.1m-3,0h-3.1m-3,0h-3.1m-3,0h-3.2m-3.1,0H1182m-3,0h-3.1m-3,0h-2.6l-.2,-.1h-.3m-2.3,-2l-.1,-.2v-.1l-.2,-.2v-.3l-.1,-.2v-.6l-.2,-.3v-1m0,-3.2V883" class="g4_5" />
<path fill-rule="evenodd" d="M1215.7,880.6v-.7l.1,-.1v-.2h.2v-.1l.1,-.2l.2,-.1h.1V879h.5l.1,-.1h.3l.2,.1h.4v.2h.2l.2,.1l.1,.2l.2,.1v.2l.1,.1v.3l.2,.2v.2h-.2v.4l-.1,.2v.3h-.2l-.1,.1v.2h-.2v.1h-.5v.2h-.7l-.2,-.2h-.3l-.1,-.1l-.2,-.2h-.1v-.1h-.2v-.3h-.1v-.6Z" class="g0_5" />
<path fill-rule="evenodd" d="M1211.5,880.6v-.2l.2,-.2v-.3l.1,-.1v-.2l.2,-.1l.1,-.2l.2,-.1h.1V879h.5l.2,-.1h.3l.1,.1h.5v.2h.1l.2,.1l.1,.2v.1h.2v.2l.1,.1V881l-.1,.2v.1l-.2,.2l-.1,.1l-.2,.2v.1h-.4v.2h-.8l-.2,-.2h-.3l-.1,-.1h-.2v-.2h-.1v-.1h-.2v-.3h-.1v-.3l-.2,-.2v-.1Z" class="g5_5" />
<path fill-rule="evenodd" d="M1166.9,903.6v-.1l.2,-.3v-.6l.1,-.4v-.1l.2,-.2v-.3l.1,-.1l.2,-.2l.1,-.1V901l.2,-.3l.1,-.1h.2l.1,-.2l.4,-.1l.1,-.2l.2,-.1h.1l.3,-.2l.2,-.1h.1l.3,-.2h.6l.2,-.2h47.7l.3,.2h.6l.1,.2h.3l.2,.1l.1,.2h.3l.2,.1l.1,.2l.2,.1l.2,.2h.3v.1l.1,.3l.2,.2l.1,.1l.2,.2v.1l.1,.3l.2,.2v.1l.1,.4v1l.2,21.9v.3l-.2,.1v.6l-.1,.3v.4l-.2,.3l-.1,.1l-.2,.2l-.1,.3v.1l-.2,.2l-.1,.1l-.2,.2l-.1,.1h-.4l-.1,.2l-.2,.1l-.1,.2l-.3,.1h-.3l-.3,.2h-.2l-.1,.1h-48.9l-.2,-.1h-.3l-.1,-.2h-.2l-.3,-.1l-.1,-.2h-.2l-.1,-.1l-.4,-.2l-.1,-.1l-.2,-.2l-.1,-.1l-.2,-.2v-.1l-.1,-.2l-.2,-.1l-.1,-.3v-.2l-.2,-.1v-.4l-.1,-.1v-.8l-.2,-.1V903.6Z" class="g1_5" />
<path d="M1166.9,903.6v-.1l.2,-.3v-.6l.1,-.4v-.1l.2,-.2v-.3l.1,-.1l.2,-.2l.1,-.1V901l.2,-.3m2.7,-1.2v0l.2,-.2h2.9m3,0h3.1m3.1,0h3m3.1,0h3m3.2,0h3.1m3,0h3.1m3.1,0h3m3.1,0h3.2m2.9,.4h.1l.2,.1l.1,.2h.3l.2,.1l.1,.2l.2,.1l.2,.2h.3v.1l.1,.3l.2,.2l.1,.1l.2,.2v.1m.4,2.9v3.2m0,3.1v3.1m.2,3V920m0,3v2.8l-.2,.1v.2m-1.3,2.6v.1h-.4l-.1,.2l-.2,.1l-.1,.2l-.3,.1h-.3l-.3,.2h-.2l-.1,.1h-.9m-3.1,0h-3.1m-3,0H1206m-3,0h-3.1m-3,0h-3.2m-3.1,0h-3.1m-3,0h-3.1m-3,0h-3.1m-3,0h-2l-.2,-.1h-.3l-.1,-.2h-.2l-.3,-.1m-2,-2.3v-.2l-.1,-.1v-.8l-.2,-.1v-1.9m0,-3v-3.1m0,-3v-3.1m0,-3v-3.2" class="g2_5" />
<path fill-rule="evenodd" d="M1166.9,900.6v-.3l.2,-.2v-.6l.1,-.3V899l.2,-.1v-.3l.1,-.2l.2,-.1l.1,-.2V898l.2,-.3l.1,-.2l.2,-.1h.1l.4,-.2l.1,-.1l.2,-.2l.1,-.2h.3l.2,-.1h.1l.3,-.2h.6l.2,-.1h47.7l.3,.1h.6l.1,.2h.3l.2,.1h.1l.3,.2l.2,.2l.1,.1l.2,.2h.2l.3,.1v.2l.1,.3l.2,.1l.1,.2l.2,.1v.2l.1,.3l.2,.1v.2l.1,.3v1.1l.2,21.8v.3l-.2,.2v.6l-.1,.3v.3l-.2,.3l-.1,.2l-.2,.1l-.1,.2v.3l-.2,.1l-.1,.2l-.2,.1h-.1l-.4,.2l-.1,.1l-.2,.2l-.1,.1h-.3l-.2,.2h-.1l-.3,.1h-.6l-.2,.2h-48.3l-.1,-.2h-.5l-.1,-.1h-.2l-.3,-.2l-.1,-.1l-.2,-.2h-.1l-.4,-.1l-.1,-.2l-.2,-.1l-.1,-.2l-.2,-.1V925l-.1,-.1l-.2,-.3l-.1,-.2v-.2l-.2,-.3v-.1l-.1,-.2v-.7l-.2,-.2V900.6Z" class="g3_5" />
<path d="M1166.9,900.6v-.3l.2,-.2v-.6l.1,-.3V899l.2,-.1v-.3l.1,-.2l.2,-.1l.1,-.2V898l.2,-.3m2.7,-1.3v0l.2,-.1h2.9m3,0h3.1m3.1,0h3m3.1,0h3m3.2,0h3.1m3,0h3.1m3.1,0h3m3.1,0h3.2m2.9,.3h.1l.2,.1h.1l.3,.2l.2,.2l.1,.1l.2,.2h.2l.3,.1v.2l.1,.3l.2,.1l.1,.2l.2,.1v.2m.4,2.9v3m0,3.2v3.1m.2,3.1v3m0,3.1v2.7l-.2,.2v.1m-1.3,2.6v0l-.4,.2l-.1,.1l-.2,.2l-.1,.1h-.3l-.2,.2h-.1l-.3,.1h-.6l-.2,.2h-.4m-3.1,0h-3.1m-3,0H1206m-3,0h-3.1m-3,0h-3.2m-3.1,0h-3.1m-3,0h-3.1m-3,0h-3.1m-3,0h-1.9l-.1,-.2h-.5l-.1,-.1h-.2l-.3,-.2m-2,-2.3v-.1l-.1,-.2v-.7l-.2,-.2v-1.8m0,-3.1v-3m0,-3.1v-3m0,-3.2v-3.1" class="g4_5" />
<path d="M1172.7,922.6l8,-22.2m-3.4,21.4l8.1,-21.2m-3.4,22l8.1,-22.2" class="g6_5" />
<path fill-rule="evenodd" d="M1194.4,935.7h-31.5V825.4h63V935.7h-31.5Z" class="g7_5" />
<path fill-rule="evenodd" d="M947.8,316v21.3H923.7V438h59.9V413.5h11.9V438h11.9V413.5h11.8V438h60.3V337.3h-24.6V316H947.8Zm12,11h11.9v10.3H959.8V327Zm23.8,0h11.9v10.3H983.6V327Zm23.8,0h11.8v10.3h-11.8V327Zm23.9,0H1043v10.3h-11.7V327Zm-95.4,21.6h11.9V359H935.9V348.6Zm23.9,0h11.9V359H959.8V348.6Zm23.8,0h11.9V359H983.6V348.6Zm23.8,0h11.8V359h-11.8V348.6Zm23.9,0H1043V359h-11.7V348.6Zm23.6,0h11.9V359h-11.9V348.6Zm-119,21.7h11.9v10.2H935.9V370.3Zm23.9,0h11.9v10.2H959.8V370.3Zm71.5,0H1043v10.2h-11.7V370.3Zm23.6,0h11.9v10.2h-11.9V370.3Zm-53.3,.6c8.3,0,14.8,6.6,14.8,14.8c0,8.3,-6.5,14.8,-14.8,14.8c-8.2,0,-14.8,-6.5,-14.8,-14.8c0,-8.2,6.6,-14.8,14.8,-14.8Zm-3.5,5.5v5.8h-5.7v7h5.7V395h7v-5.8h5.8v-7h-5.8v-5.8h-7Zm-62.2,15.4h11.9v10.3H935.9V391.8Zm23.9,0h11.9v10.3H959.8V391.8Zm71.5,0H1043v10.3h-11.7V391.8Zm23.6,0h11.9v10.3h-11.9V391.8Zm-119,21.7h11.9v10.2H935.9V413.5Zm23.9,0h11.9v10.2H959.8V413.5Zm71.5,0H1043v10.2h-11.7V413.5Zm23.6,0h11.9v10.2h-11.9V413.5Z" class="g8_5" />
<path fill-rule="evenodd" d="M947.8,316v21.3H923.7V438h59.9V413.5h11.9V438h11.9V413.5h11.8V438h60.3V337.3h-24.6V316H947.8Zm12,11h11.9v10.3H959.8V327Zm23.8,0h11.9v10.3H983.6V327Zm23.8,0h11.8v10.3h-11.8V327Zm23.9,0H1043v10.3h-11.7V327Zm-95.4,21.6h11.9V359H935.9V348.6Zm23.9,0h11.9V359H959.8V348.6Zm23.8,0h11.9V359H983.6V348.6Zm23.8,0h11.8V359h-11.8V348.6Zm23.9,0H1043V359h-11.7V348.6Zm23.6,0h11.9V359h-11.9V348.6Zm-119,21.7h11.9v10.2H935.9V370.3Zm23.9,0h11.9v10.2H959.8V370.3Zm71.5,0H1043v10.2h-11.7V370.3Zm23.6,0h11.9v10.2h-11.9V370.3Zm-53.3,.6c8.3,0,14.8,6.6,14.8,14.8c0,8.3,-6.5,14.8,-14.8,14.8c-8.2,0,-14.8,-6.5,-14.8,-14.8c0,-8.2,6.6,-14.8,14.8,-14.8Zm-3.5,5.5v5.8h-5.7v7h5.7V395h7v-5.8h5.8v-7h-5.8v-5.8h-7Zm-62.2,15.4h11.9v10.3H935.9V391.8Zm23.9,0h11.9v10.3H959.8V391.8Zm71.5,0H1043v10.3h-11.7V391.8Zm23.6,0h11.9v10.3h-11.9V391.8Zm-119,21.7h11.9v10.2H935.9V413.5Zm23.9,0h11.9v10.2H959.8V413.5Zm71.5,0H1043v10.2h-11.7V413.5Zm23.6,0h11.9v10.2h-11.9V413.5Z" class="g9_5" />
<path fill-rule="evenodd" d="M1176.7,945.5c-1.8,0,-3.4,1.5,-3.4,3.3v99c0,1.9,1.6,3.4,3.4,3.4H1237l-.1,.9l-2.6,13h-7.6v4.7h44.4v-4.7h-7.6l-2.6,-13l-.2,-.9h63.6c1.8,0,3.3,-1.5,3.3,-3.4v-99c0,-1.8,-1.5,-3.3,-3.3,-3.3H1176.7Zm73.8,3c.8,0,1.4,.7,1.4,1.6c0,.7,-.6,1.3,-1.4,1.3c-.9,0,-1.5,-.6,-1.5,-1.3c0,-.9,.6,-1.6,1.5,-1.6Zm-68.3,6.9h136.4v77.8H1182.2V955.4Z" class="g1_5" />
<path fill-rule="evenodd" d="M1176.7,942.4c-1.8,0,-3.4,1.6,-3.4,3.2v99.2c0,1.8,1.6,3.4,3.4,3.4H1237l-.1,.9l-2.6,13h-7.6v4.7h44.4v-4.7h-7.6l-2.6,-13l-.2,-.9h63.6c1.8,0,3.3,-1.6,3.3,-3.4V945.6c0,-1.6,-1.5,-3.2,-3.3,-3.2H1176.7Zm73.8,3.1c.8,0,1.4,.6,1.4,1.5c0,.8,-.6,1.4,-1.4,1.4c-.9,0,-1.5,-.6,-1.5,-1.4c0,-.9,.6,-1.5,1.5,-1.5Zm-68.3,6.9h136.4v77.7H1182.2V952.4Z" class="g9_5" />
<path fill-rule="evenodd" d="M1432.6,714.9v27.5H1068.2v-55h364.4v27.5Z" class="g1_5" />
<path fill-rule="evenodd" d="M1432.6,711.9v27.5H1068.2v-55h364.4v27.5Z" class="g5_5" />
<path d="M1230.5,545.4V504.6" class="g10_5" />
<path fill-rule="evenodd" d="M1230.5,491.7l6.8,13.8h-13.7l6.9,-13.8Z" class="g11_5" />
<path fill-rule="evenodd" d="M1432.3,586.8v36H1068.5V550.6h363.8v36.2Z" class="g1_5" />
<path d="M1432.3,586.8v36H1068.5V550.6h363.8v36.2Z" class="g12_5" />
<path fill-rule="evenodd" d="M1432.3,583.6v36.2H1068.5V547.5h363.8v36.1Z" class="g13_5" />
<path d="M1432.3,583.6v36.2H1068.5V547.5h363.8v36.1Z" class="g14_5" />
<image preserveAspectRatio="none" x="1197" y="551" width="265" height="61" xlink:href="5/img/1.png" />
<path d="M1283,492.2v42.2" class="g10_5" />
<path fill-rule="evenodd" d="M1283,547.2l-6.8,-13.8h13.9l-7.1,13.8Z" class="g11_5" />
<path d="M1230.5,672.5V642.2" class="g10_5" />
<path fill-rule="evenodd" d="M1230.5,629.4l6.8,13.7h-13.7l6.9,-13.7Z" class="g11_5" />
<path d="M1283,623v42.1" class="g10_5" />
<path fill-rule="evenodd" d="M1283,678.1l-6.8,-13.9h13.9l-7.1,13.9Z" class="g11_5" />
<path d="M1230.5,928.7V755.3" class="g15_5" />
<path fill-rule="evenodd" d="M1230.5,742.4l6.8,13.8h-13.7l6.9,-13.8Z" class="g5_5" />
<path d="M1272.9,742.4V915.8" class="g15_5" />
<path fill-rule="evenodd" d="M1272.9,928.7l-6.8,-13.8H1280l-7.1,13.8Z" class="g5_5" />
<path fill-rule="evenodd" d="M1264.2,332.4c-9.3,0,-18.4,1.1,-25.6,3.2c-14.1,4.3,-14.1,11.1,0,15.4c14.2,4.3,36.9,4.3,51.2,0c14,-4.3,14,-11.1,0,-15.4c-7.1,-2.1,-16.4,-3.2,-25.6,-3.2ZM1228,348.3v68c0,5.9,16.2,11.4,36.2,11.4c19.9,0,36.1,-5.5,36.1,-11.4v-68c-5.1,4.6,-19.4,7.8,-36.1,7.8c-16.8,0,-31,-3.2,-36.2,-7.8Z" class="g1_5" />
<path fill-rule="evenodd" d="M1264.2,329.3c-9.3,0,-18.4,1.1,-25.6,3.2c-14.1,4.3,-14.1,11.2,0,15.5c14.2,4.2,36.9,4.2,51.2,0c14,-4.3,14,-11.2,0,-15.5c-7.1,-2.1,-16.4,-3.2,-25.6,-3.2ZM1228,345.2v68c0,6,16.2,11.5,36.2,11.5c19.9,0,36.1,-5.5,36.1,-11.5v-68c-5.1,4.5,-19.4,7.8,-36.1,7.8c-16.8,0,-31,-3.3,-36.2,-7.8Z" class="g9_5" />
<path fill-rule="evenodd" d="M1293.9,355c-9.3,0,-18.7,1.1,-25.7,3.1c-14,4.2,-14,11.3,0,15.5c14.2,4.2,37,4.2,51.2,0c14,-4.2,14,-11.3,0,-15.5c-7,-2,-16.4,-3.1,-25.5,-3.1Zm-36.2,15.7v68.2c0,5.9,16.2,11.4,36.2,11.4c19.8,0,36,-5.5,36,-11.4V370.7c-5.2,4.6,-19.4,7.8,-36,7.8c-16.8,0,-31,-3.2,-36.2,-7.8Z" class="g1_5" />
<path fill-rule="evenodd" d="M1293.9,351.9c-9.3,0,-18.7,1,-25.7,3.1c-14,4.3,-14,11.2,0,15.4c14.2,4.3,37,4.3,51.2,0c14,-4.2,14,-11.1,0,-15.4c-7,-2.1,-16.4,-3.1,-25.5,-3.1Zm-36.2,15.8v68.1c0,6,16.2,11.5,36.2,11.5c19.8,0,36,-5.5,36,-11.5V367.7c-5.2,4.6,-19.4,7.8,-36,7.8c-16.8,0,-31,-3.2,-36.2,-7.8Z" class="g9_5" />
<image preserveAspectRatio="none" x="1274" y="378" width="24" height="61" xlink:href="5/img/2.png" />
<path fill-rule="evenodd" d="M1326.3,383.1c-9.4,0,-18.7,1.1,-25.7,3.2c-14.1,4.3,-14.1,11.2,0,15.4c14.2,4.3,37,4.3,51.2,0c14,-4.2,14,-11.1,0,-15.4c-7,-2.1,-16.4,-3.2,-25.5,-3.2ZM1290.1,399v68c0,6.1,16.2,11.6,36.2,11.6c19.8,0,36,-5.5,36,-11.6V399c-5.2,4.6,-19.4,7.8,-36,7.8c-16.8,0,-31.1,-3.2,-36.2,-7.8Z" class="g1_5" />
<path fill-rule="evenodd" d="M1326.3,380.1c-9.4,0,-18.7,1,-25.7,3.2c-14.1,4.2,-14.1,11.1,0,15.4c14.2,4.3,37,4.3,51.2,0c14,-4.3,14,-11.2,0,-15.4c-7,-2.2,-16.4,-3.2,-25.5,-3.2Zm-36.2,15.8v68c0,6.1,16.2,11.6,36.2,11.6c19.8,0,36,-5.5,36,-11.6v-68c-5.2,4.6,-19.4,7.8,-36,7.8c-16.8,0,-31.1,-3.2,-36.2,-7.8Z" class="g9_5" />
<path fill-rule="evenodd" d="M1316.2,414.1c0,3.7,2.4,7.1,6.2,9.2c-3.8,2,-6.2,5.3,-6.2,9.2c0,3.6,2.4,7,6.2,9.1c-3.8,2,-6.2,5.4,-6.2,9.2c0,3.7,2.4,7,6.2,9.2c-3.8,1.9,-6.2,5.5,-6.2,9.1h2.7c0,-.7,.2,-1.4,.3,-2.1h13.9c.2,.7,.3,1.4,.3,2.1h2.8c0,-3.6,-2.4,-7.2,-6.3,-9.1c3.9,-2.2,6.3,-5.5,6.3,-9.2c0,-3.8,-2.4,-7.2,-6.3,-9.2c3.9,-2.1,6.3,-5.5,6.3,-9.1c0,-3.9,-2.4,-7.2,-6.3,-9.2c3.9,-2.1,6.3,-5.5,6.3,-9.2h-2.8c0,.6,-.1,1.2,-.3,2h-13.9c-.1,-.8,-.3,-1.4,-.3,-2h-2.7Zm4,3.5h12c-1.2,1.9,-3.3,3.4,-5.9,4.2c-2.8,-.8,-4.9,-2.3,-6.1,-4.2Zm6.1,7.1c2.6,.9,4.7,2.3,5.9,4.1h-12c1.2,-1.8,3.3,-3.2,6.1,-4.1Zm-7.1,5.8h13.9c.2,.6,.3,1.3,.3,2c0,.6,-.1,1.2,-.3,1.8h-13.9c-.1,-.6,-.3,-1.2,-.3,-1.8c0,-.7,.2,-1.4,.3,-2Zm1,5.5h12.2c-1.2,1.8,-3.5,3.3,-6.1,4.1c-2.8,-.8,-4.9,-2.3,-6.1,-4.1Zm6.1,7c2.6,.8,4.7,2.3,5.9,4.1h-12c1.2,-1.8,3.3,-3.3,6.1,-4.1Zm-7.1,5.8h13.9c.2,.6,.3,1.2,.3,2c0,.6,-.1,1.2,-.3,1.8h-13.9c-.1,-.6,-.3,-1.2,-.3,-1.8c0,-.8,.2,-1.4,.3,-2Zm.8,5.5h12.4c-1.2,1.8,-3.5,3.4,-6.1,4.1c-2.8,-.7,-4.9,-2.3,-6.3,-4.1Zm6.3,7c2.6,.9,4.7,2.3,5.9,4.2h-12c1.2,-1.9,3.3,-3.3,6.1,-4.2Z" class="g1_5" />
<path fill-rule="evenodd" d="M1316.2,411.1c0,3.6,2.4,7,6.2,9.1c-3.8,2,-6.2,5.4,-6.2,9.2c0,3.7,2.4,7,6.2,9.2c-3.8,2,-6.2,5.3,-6.2,9.1c0,3.7,2.4,7.1,6.2,9.2c-3.8,2,-6.2,5.3,-6.2,9.2h2.7c0,-.8,.2,-1.6,.3,-2.2h13.9c.2,.6,.3,1.4,.3,2.2h2.8c0,-3.9,-2.4,-7.2,-6.3,-9.2c3.9,-2.1,6.3,-5.5,6.3,-9.2c0,-3.8,-2.4,-7.1,-6.3,-9.1c3.9,-2.2,6.3,-5.5,6.3,-9.2c0,-3.8,-2.4,-7.2,-6.3,-9.2c3.9,-2.1,6.3,-5.5,6.3,-9.1h-2.8c0,.6,-.1,1.2,-.3,2h-13.9c-.1,-.8,-.3,-1.4,-.3,-2h-2.7Zm4,3.5h12c-1.2,1.8,-3.3,3.3,-5.9,4.1c-2.8,-.8,-4.9,-2.3,-6.1,-4.1Zm6.1,7c2.6,.9,4.7,2.3,5.9,4.1h-12c1.2,-1.8,3.3,-3.2,6.1,-4.1Zm-7.1,5.8h13.9c.2,.6,.3,1.2,.3,2c0,.6,-.1,1.2,-.3,1.8h-13.9c-.1,-.6,-.3,-1.2,-.3,-1.8c0,-.8,.2,-1.4,.3,-2Zm1,5.5h12.2c-1.2,1.8,-3.5,3.4,-6.1,4.1c-2.8,-.7,-4.9,-2.3,-6.1,-4.1Zm6.1,7c2.6,.8,4.7,2.3,5.9,4.2h-12c1.2,-1.9,3.3,-3.4,6.1,-4.2Zm-7.1,5.8h13.9c.2,.7,.3,1.3,.3,2c0,.6,-.1,1.3,-.3,1.9h-13.9c-.1,-.6,-.3,-1.3,-.3,-1.9c0,-.7,.2,-1.3,.3,-2Zm.8,5.5h12.4c-1.2,1.9,-3.5,3.4,-6.1,4.2c-2.8,-.8,-4.9,-2.3,-6.3,-4.2Zm6.3,7.1c2.6,.7,4.7,2.3,5.9,3.9h-12c1.2,-1.6,3.3,-3.2,6.1,-3.9Z" class="g5_5" />
<path fill-rule="evenodd" d="M1123.7,348.3v-.6l.1,-.3v-.7l.2,-.1v-.3l.1,-.3l.2,-.2l.1,-.3l.2,-.3l.2,-.1l.1,-.3l.2,-.2l.3,-.1l.1,-.3l.2,-.2l.3,-.2l.1,-.1l.3,-.2l.3,-.1l.2,-.2l.3,-.1h.3l.2,-.2h.6l.3,-.1h62.5l.3,.1h.6l.1,.2h.3l.3,.1l.2,.2l.3,.1l.3,.2l.2,.1l.3,.2l.1,.2l.2,.3l.3,.1l.1,.2l.2,.3l.1,.1l.2,.3l.1,.3l.2,.2l.1,.3v.3l.2,.1v.7l.1,.3v14.8l-.1,.1v.3l-.2,.3v.4l-.1,.3l-.2,.1l-.1,.3l-.2,.3l-.1,.2l-.2,.1l-.1,.3l-.2,.2l-.3,.3l-.1,.1l-.3,.2l-.2,.2l-.3,.1l-.2,.2l-.3,.1l-.3,.2h-.3l-.1,.1h-.6l-.3,.2h-62.8l-.3,-.2h-.3l-.2,-.1h-.3l-.3,-.2l-.2,-.1l-.3,-.2l-.3,-.1l-.1,-.2l-.3,-.2l-.2,-.1l-.1,-.2l-.3,-.3l-.2,-.1l-.1,-.3l-.2,-.2l-.2,-.3l-.1,-.1l-.2,-.3l-.1,-.3v-.4l-.2,-.1v-.6l-.1,-.3V348.3Z" class="g1_5" />
<path d="M1123.7,348.3v0v-.6l.1,-.3v-.7l.2,-.1v-.3l.1,-.3l.2,-.2l.1,-.3l.2,-.3l.2,-.1l.1,-.3l.2,-.2l.3,-.1l.1,-.3l.2,-.2l.3,-.2l.1,-.1l.3,-.2l.3,-.1l.2,-.2l.3,-.1h.3l.2,-.2h.6l.3,-.1h62.5l.3,.1h.6l.1,.2h.3l.3,.1l.2,.2l.3,.1l.3,.2l.2,.1l.3,.2l.1,.2l.2,.3l.3,.1l.1,.2l.2,.3l.1,.1l.2,.3l.1,.3l.2,.2l.1,.3v.3l.2,.1v.7l.1,.3v14.8l-.1,.1v.3l-.2,.3v.4l-.1,.3l-.2,.1l-.1,.3l-.2,.3l-.1,.2l-.2,.1l-.1,.3l-.2,.2l-.3,.3l-.1,.1l-.3,.2l-.2,.2l-.3,.1l-.2,.2l-.3,.1l-.3,.2h-.3l-.1,.1h-.6l-.3,.2h-62.8l-.3,-.2h-.3l-.2,-.1h-.3l-.3,-.2l-.2,-.1l-.3,-.2l-.3,-.1l-.1,-.2l-.3,-.2l-.2,-.1l-.1,-.2l-.3,-.3l-.2,-.1l-.1,-.3l-.2,-.2l-.2,-.3l-.1,-.1l-.2,-.3l-.1,-.3v-.4l-.2,-.1v-.6l-.1,-.3V348.3Zm0,-5.5v0Zm72.2,24.3v0Z" class="g12_5" />
<path fill-rule="evenodd" d="M1123.7,345.2v-.6l.1,-.3v-.6l.2,-.2v-.3l.1,-.3l.2,-.3l.1,-.1l.2,-.3l.2,-.2l.1,-.3l.2,-.1l.3,-.4l.1,-.1l.2,-.2l.3,-.1l.1,-.2l.3,-.1l.3,-.2l.2,-.1l.3,-.2h.3l.2,-.1h.3l.3,-.2h63.1l.3,.2h.3l.1,.1h.3l.3,.2l.2,.1l.3,.2l.3,.1l.2,.2l.3,.1l.1,.2l.2,.1l.3,.4l.1,.1l.2,.3l.1,.2l.2,.3l.1,.1l.2,.3l.1,.3v.3l.2,.2v.6l.1,.3v14.8l-.1,.2v.3l-.2,.3v.3l-.1,.2l-.2,.3l-.1,.3l-.2,.3l-.1,.1l-.2,.2l-.1,.3l-.2,.1l-.3,.3l-.1,.2l-.3,.1l-.2,.2l-.3,.1l-.2,.2l-.3,.2h-.3l-.3,.1l-.1,.2h-.9l-.3,.1h-62.2l-.3,-.1h-.6l-.2,-.2h-.3l-.3,-.1l-.2,-.2l-.3,-.2l-.3,-.1l-.1,-.2l-.3,-.1l-.2,-.2l-.1,-.3l-.3,-.1l-.2,-.2l-.1,-.3l-.2,-.1l-.2,-.3l-.1,-.3l-.2,-.2l-.1,-.3v-.3l-.2,-.2v-.6l-.1,-.3V345.2Z" class="g3_5" />
<path d="M1123.7,345.2v0v-.6l.1,-.3v-.6l.2,-.2v-.3l.1,-.3l.2,-.3l.1,-.1l.2,-.3l.2,-.2l.1,-.3l.2,-.1l.3,-.4l.1,-.1l.2,-.2l.3,-.1l.1,-.2l.3,-.1l.3,-.2l.2,-.1l.3,-.2h.3l.2,-.1h.3l.3,-.2h63.1l.3,.2h.3l.1,.1h.3l.3,.2l.2,.1l.3,.2l.3,.1l.2,.2l.3,.1l.1,.2l.2,.1l.3,.4l.1,.1l.2,.3l.1,.2l.2,.3l.1,.1l.2,.3l.1,.3v.3l.2,.2v.6l.1,.3v14.8l-.1,.2v.3l-.2,.3v.3l-.1,.2l-.2,.3l-.1,.3l-.2,.3l-.1,.1l-.2,.2l-.1,.3l-.2,.1l-.3,.3l-.1,.2l-.3,.1l-.2,.2l-.3,.1l-.2,.2l-.3,.2h-.3l-.3,.1l-.1,.2h-.9l-.3,.1h-62.2l-.3,-.1h-.6l-.2,-.2h-.3l-.3,-.1l-.2,-.2l-.3,-.2l-.3,-.1l-.1,-.2l-.3,-.1l-.2,-.2l-.1,-.3l-.3,-.1l-.2,-.2l-.1,-.3l-.2,-.1l-.2,-.3l-.1,-.3l-.2,-.2l-.1,-.3v-.3l-.2,-.2v-.6l-.1,-.3V345.2Zm0,-5.5v0Zm72.2,24.3v0Z" class="g16_5" />
<path fill-rule="evenodd" d="M1186.8,346v-.6l.1,-.2v-.1l.2,-.2v-.1h.1v-.2l.2,-.1h.1v-.2h.2l.1,-.1h.2l.2,-.2h.3l.1,-.2h.5v.2h.4l.2,.2h.1l.2,.1l.1,.2h.2v.1l.1,.2l.2,.1v.2h.2v.4h.1v.9l-.1,.2v.3l-.2,.2l-.2,.1v.2l-.1,.1h-.2v.2h-.1v.1h-.2l-.1,.2h-.3l-.2,.1h-.7l-.2,-.1h-.5v-.2h-.1l-.2,-.1h-.1v-.2l-.2,-.1l-.1,-.2l-.2,-.1v-.4h-.1v-.3l-.2,-.1V346h.2Z" class="g0_5" />
<path fill-rule="evenodd" d="M1181.6,346v-.5l.1,-.1v-.3h.2v-.3h.1v-.2h.2v-.1h.1l.2,-.2l.2,-.1h.1l.2,-.2h.4v-.2h.5l.1,.2h.3l.2,.2h.1l.2,.1h.1v.2h.2l.1,.1v.2l.2,.1l.2,.2v.3l.1,.1v1.1l-.1,.1v.4h-.2v.1l-.2,.2l-.1,.1l-.2,.2l-.1,.1h-.2l-.1,.2h-.3l-.2,.1h-.7l-.2,-.1h-.4v-.2h-.2v-.1h-.2l-.1,-.2l-.2,-.1v-.2h-.1v-.1h-.2v-.4l-.1,-.1V346Z" class="g5_5" />
<path fill-rule="evenodd" d="M1124.1,375v-.6l.2,-.3v-.5l.1,-.3V373l.2,-.3l.2,-.1l.1,-.3l.2,-.3l.1,-.2l.2,-.1l.1,-.4l.3,-.1l.2,-.3l.1,-.2l.3,-.1l.2,-.2l.3,-.1l.3,-.2l.1,-.1h.4l.3,-.2l.3,-.1h.7l.3,-.2h61.9l.3,.2h.9l.2,.1l.3,.2h.3l.1,.1l.4,.2l.3,.1l.1,.2l.3,.1l.2,.2l.3,.3l.1,.1l.2,.4l.1,.1l.2,.2l.1,.3l.2,.3l.1,.1l.2,.3v.3l.2,.3v.5l.1,.3v14.8l-.1,.3v.5l-.2,.3l-.2,.3l-.1,.1l-.2,.4v.3l-.3,.1l-.1,.3l-.2,.2l-.1,.1l-.3,.3l-.2,.2l-.1,.1l-.3,.2l-.3,.1l-.2,.2l-.3,.1l-.3,.2h-.2l-.3,.2h-.6l-.3,.1h-62.8l-.1,-.1h-.6l-.3,-.2l-.4,-.2l-.1,-.1l-.3,-.2h-.3l-.2,-.3l-.3,-.1l-.1,-.2l-.2,-.1l-.3,-.3l-.1,-.2l-.2,-.1l-.1,-.3l-.2,-.3l-.1,-.2l-.2,-.3l-.2,-.3v-.2l-.1,-.3v-.6l-.2,-.3V375Z" class="g1_5" />
<path d="M1124.1,375v0v-.6l.2,-.3v-.5l.1,-.3V373l.2,-.3l.2,-.1l.1,-.3l.2,-.3l.1,-.2l.2,-.1l.1,-.4l.3,-.1l.2,-.3l.1,-.2l.3,-.1l.2,-.2l.3,-.1l.3,-.2l.1,-.1h.4l.3,-.2l.3,-.1h.7l.3,-.2h61.9l.3,.2h.9l.2,.1l.3,.2h.3l.1,.1l.4,.2l.3,.1l.1,.2l.3,.1l.2,.2l.3,.3l.1,.1l.2,.4l.1,.1l.2,.2l.1,.3l.2,.3l.1,.1l.2,.3v.3l.2,.3v.5l.1,.3v14.8l-.1,.3v.5l-.2,.3l-.2,.3l-.1,.1l-.2,.4v.3l-.3,.1l-.1,.3l-.2,.2l-.1,.1l-.3,.3l-.2,.2l-.1,.1l-.3,.2l-.3,.1l-.2,.2l-.3,.1l-.3,.2h-.2l-.3,.2h-.6l-.3,.1h-62.8l-.1,-.1h-.6l-.3,-.2l-.4,-.2l-.1,-.1l-.3,-.2h-.3l-.2,-.3l-.3,-.1l-.1,-.2l-.2,-.1l-.3,-.3l-.1,-.2l-.2,-.1l-.1,-.3l-.2,-.3l-.1,-.2l-.2,-.3l-.2,-.3v-.2l-.1,-.3v-.6l-.2,-.3V375Zm0,-5.5v0Zm72.3,24.3v0Z" class="g12_5" />
<path fill-rule="evenodd" d="M1124.1,372v-.7l.2,-.3v-.6l.1,-.1V370l.2,-.3l.2,-.2l.1,-.3l.2,-.3l.1,-.2l.2,-.3l.1,-.1l.3,-.2l.2,-.3l.1,-.1l.3,-.2l.2,-.1l.3,-.2l.3,-.1l.1,-.2l.4,-.1h.3l.3,-.2h.4l.3,-.1h62.5l.3,.1h.6l.2,.2h.3l.3,.1l.1,.2l.4,.1l.3,.2l.1,.1l.3,.2l.2,.1l.3,.3l.1,.2l.2,.1l.1,.3l.2,.2l.1,.3l.2,.3l.1,.2l.2,.3v.3l.2,.1v.6l.1,.3v14.9l-.1,.3v.4l-.2,.3l-.2,.3l-.1,.2l-.2,.3v.3l-.3,.2l-.1,.3l-.2,.1l-.1,.2l-.3,.3l-.2,.1l-.1,.2l-.3,.1l-.3,.2l-.2,.1l-.3,.2l-.3,.1h-.2l-.3,.2h-.6l-.3,.1h-62.8l-.1,-.1h-.3l-.3,-.2h-.3l-.4,-.1l-.1,-.2l-.3,-.1l-.3,-.2l-.2,-.1l-.3,-.2l-.1,-.1l-.2,-.2l-.3,-.3l-.1,-.1l-.2,-.3l-.1,-.2l-.2,-.3l-.1,-.2l-.2,-.3l-.2,-.3v-.3l-.1,-.1v-.6l-.2,-.3V372Z" class="g3_5" />
<path d="M1124.1,372v0v-.7l.2,-.3v-.6l.1,-.1V370l.2,-.3l.2,-.2l.1,-.3l.2,-.3l.1,-.2l.2,-.3l.1,-.1l.3,-.2l.2,-.3l.1,-.1l.3,-.2l.2,-.1l.3,-.2l.3,-.1l.1,-.2l.4,-.1h.3l.3,-.2h.4l.3,-.1h62.5l.3,.1h.6l.2,.2h.3l.3,.1l.1,.2l.4,.1l.3,.2l.1,.1l.3,.2l.2,.1l.3,.3l.1,.2l.2,.1l.1,.3l.2,.2l.1,.3l.2,.3l.1,.2l.2,.3v.3l.2,.1v.6l.1,.3v14.9l-.1,.3v.4l-.2,.3l-.2,.3l-.1,.2l-.2,.3v.3l-.3,.2l-.1,.3l-.2,.1l-.1,.2l-.3,.3l-.2,.1l-.1,.2l-.3,.1l-.3,.2l-.2,.1l-.3,.2l-.3,.1h-.2l-.3,.2h-.6l-.3,.1h-62.8l-.1,-.1h-.3l-.3,-.2h-.3l-.4,-.1l-.1,-.2l-.3,-.1l-.3,-.2l-.2,-.1l-.3,-.2l-.1,-.1l-.2,-.2l-.3,-.3l-.1,-.1l-.2,-.3l-.1,-.2l-.2,-.3l-.1,-.2l-.2,-.3l-.2,-.3v-.3l-.1,-.1v-.6l-.2,-.3V372Zm0,-5.5v0Zm72.3,24.2v0Z" class="g16_5" />
<path fill-rule="evenodd" d="M1187.2,372.7v-.4l.2,-.2V372l.1,-.2v-.1l.2,-.2v-.2h.1v-.1h.2l.2,-.2h.1l.2,-.1l.1,-.2h1.4l.1,.2h.2l.1,.1l.2,.2h.2v.1l.1,.2l.2,.2v.1l.1,.2v.1l.2,.2v1l-.2,.2v.1l-.1,.2v.1l-.2,.2l-.1,.1l-.2,.2h-.2v.2h-.1l-.2,.1h-.1l-.2,.2h-1.2v-.2h-.3v-.1h-.1l-.2,-.2h-.2v-.2h-.1v-.1l-.2,-.2v-.1h-.1v-.3h-.2v-.8Z" class="g0_5" />
<path fill-rule="evenodd" d="M1182,372.7v-.4h.2V372h.1v-.3l.2,-.2v-.2h.2l.1,-.1l.2,-.2h.1l.2,-.1l.1,-.2h1.5v.2h.3v.1h.2v.2h.2v.1h.1v.2h.2v.2l.1,.1v.2h.2v1.5l-.2,.1v.2l-.1,.1l-.2,.2l-.1,.1l-.2,.2l-.2,.2h-.1l-.2,.1h-.1l-.2,.2h-1l-.2,-.2h-.1l-.2,-.1h-.1l-.2,-.2l-.1,-.2l-.2,-.1v-.2h-.2v-.1l-.1,-.2v-.1l-.2,-.2v-.6Z" class="g5_5" />
<path fill-rule="evenodd" d="M1124.1,401.7v-.4l.2,-.3v-.6l.1,-.3v-.2l.2,-.3l.2,-.3l.1,-.1l.2,-.4l.1,-.3l.2,-.1l.1,-.2l.3,-.3l.2,-.1l.1,-.2l.3,-.1l.2,-.3h.3l.3,-.2l.1,-.1l.4,-.2l.3,-.1h.6l.1,-.2h63.1l.3,.2h.5l.3,.1l.3,.2l.1,.1l.4,.2h.3l.1,.3l.3,.1l.2,.2l.3,.1l.1,.3l.2,.2l.1,.1l.2,.3l.1,.4l.2,.1l.1,.3l.2,.3v.2l.2,.3v.6l.1,.3V416l-.1,.3v.6l-.2,.1l-.2,.3l-.1,.3l-.2,.3v.2l-.3,.3l-.1,.2l-.2,.3l-.1,.1l-.3,.2l-.2,.3l-.1,.1l-.3,.2l-.3,.1h-.2l-.3,.2l-.3,.1l-.2,.2h-.3l-.3,.1h-1l-61.5,.2h-.3l-.3,-.2h-.7l-.3,-.1l-.3,-.2h-.4l-.1,-.1l-.3,-.2l-.3,-.1l-.2,-.2l-.3,-.1l-.1,-.2l-.2,-.3l-.3,-.1l-.1,-.3l-.2,-.2l-.1,-.2l-.2,-.3l-.1,-.3l-.2,-.3l-.2,-.1v-.3l-.1,-.3v-.5l-.2,-.3V401.7Z" class="g1_5" />
<path d="M1124.1,401.7v0v-.4l.2,-.3v-.6l.1,-.3v-.2l.2,-.3l.2,-.3l.1,-.1l.2,-.4l.1,-.3l.2,-.1l.1,-.2l.3,-.3l.2,-.1l.1,-.2l.3,-.1l.2,-.3h.3l.3,-.2l.1,-.1l.4,-.2l.3,-.1h.6l.1,-.2h63.1l.3,.2h.5l.3,.1l.3,.2l.1,.1l.4,.2h.3l.1,.3l.3,.1l.2,.2l.3,.1l.1,.3l.2,.2l.1,.1l.2,.3l.1,.4l.2,.1l.1,.3l.2,.3v.2l.2,.3v.6l.1,.3V416l-.1,.3v.6l-.2,.1l-.2,.3l-.1,.3l-.2,.3v.2l-.3,.3l-.1,.2l-.2,.3l-.1,.1l-.3,.2l-.2,.3l-.1,.1l-.3,.2l-.3,.1h-.2l-.3,.2l-.3,.1l-.2,.2h-.3l-.3,.1h-1l-61.5,.2h-.3l-.3,-.2h-.7l-.3,-.1l-.3,-.2h-.4l-.1,-.1l-.3,-.2l-.3,-.1l-.2,-.2l-.3,-.1l-.1,-.2l-.2,-.3l-.3,-.1l-.1,-.3l-.2,-.2l-.1,-.2l-.2,-.3l-.1,-.3l-.2,-.3l-.2,-.1v-.3l-.1,-.3v-.5l-.2,-.3V401.7Zm0,-5.3v0Zm72.3,24.3v0Z" class="g12_5" />
<path fill-rule="evenodd" d="M1124.1,398.7v-.5l.2,-.3v-.6l.1,-.3v-.1l.2,-.3l.2,-.4l.1,-.3l.2,-.1l.1,-.3l.2,-.2l.1,-.3l.3,-.1l.2,-.2l.1,-.1l.3,-.3l.2,-.2l.3,-.1h.3l.1,-.2l.4,-.1l.3,-.2h.3l.3,-.2h63.5l.3,.2h.2l.3,.2l.3,.1l.1,.2h.4l.3,.1l.1,.2l.3,.3l.2,.1l.3,.2l.1,.1l.2,.3l.1,.2l.2,.3l.1,.1l.2,.3l.1,.4l.2,.3v.1l.2,.3v.6l.1,.3v14.7l-.1,.3v.6l-.2,.2l-.2,.3l-.1,.3l-.2,.1v.3l-.3,.3l-.1,.2l-.2,.2l-.1,.3l-.3,.1l-.2,.2l-.1,.3l-.3,.1h-.3l-.2,.2l-.3,.1l-.3,.2l-.2,.1h-.6l-.3,.2h-.7l-61.5,.1h-.3l-.3,-.1h-.4l-.3,-.2h-.3l-.3,-.1l-.4,-.2h-.1l-.3,-.1l-.3,-.2l-.2,-.1l-.3,-.2l-.1,-.1l-.2,-.3l-.3,-.2l-.1,-.3l-.2,-.2l-.1,-.3l-.2,-.1l-.1,-.3l-.2,-.3l-.2,-.2v-.3l-.1,-.3v-.4l-.2,-.4v-14Z" class="g3_5" />
<path d="M1124.1,398.7v0v-.5l.2,-.3v-.6l.1,-.3v-.1l.2,-.3l.2,-.4l.1,-.3l.2,-.1l.1,-.3l.2,-.2l.1,-.3l.3,-.1l.2,-.2l.1,-.1l.3,-.3l.2,-.2l.3,-.1h.3l.1,-.2l.4,-.1l.3,-.2h.3l.3,-.2h63.5l.3,.2h.2l.3,.2l.3,.1l.1,.2h.4l.3,.1l.1,.2l.3,.3l.2,.1l.3,.2l.1,.1l.2,.3l.1,.2l.2,.3l.1,.1l.2,.3l.1,.4l.2,.3v.1l.2,.3v.6l.1,.3v14.7l-.1,.3v.6l-.2,.2l-.2,.3l-.1,.3l-.2,.1v.3l-.3,.3l-.1,.2l-.2,.2l-.1,.3l-.3,.1l-.2,.2l-.1,.3l-.3,.1h-.3l-.2,.2l-.3,.1l-.3,.2l-.2,.1h-.6l-.3,.2h-.7l-61.5,.1h-.3l-.3,-.1h-.4l-.3,-.2h-.3l-.3,-.1l-.4,-.2h-.1l-.3,-.1l-.3,-.2l-.2,-.1l-.3,-.2l-.1,-.1l-.2,-.3l-.3,-.2l-.1,-.3l-.2,-.2l-.1,-.3l-.2,-.1l-.1,-.3l-.2,-.3l-.2,-.2v-.3l-.1,-.3v-.4l-.2,-.4v-14Zm0,-5.4v0Zm72.3,24.3v0Z" class="g16_5" />
<path fill-rule="evenodd" d="M1187.2,399.6V399l.2,-.2v-.1l.1,-.2v-.1l.2,-.2l.1,-.1v-.2h.2l.2,-.1h.1l.2,-.2h.1l.2,-.1h1.2v.1h.3l.1,.2l.2,.1h.2v.2l.1,.1l.2,.2v.1l.1,.2v.1l.2,.2v1.2h-.2v.3h-.1v.2l-.2,.1l-.1,.2v.1h-.4v.2h-.1v.1h-.3l-.2,.2h-1.2v-.2h-.3l-.1,-.1l-.2,-.2h-.2V401h-.1v-.2h-.2v-.3h-.1v-.3h-.2v-.6Z" class="g0_5" />
<path fill-rule="evenodd" d="M1182,399.6V399h.2v-.3h.1v-.3l.2,-.2l.2,-.1l.1,-.2l.2,-.1h.1l.2,-.2h.3v-.1h1.2l.1,.1h.3v.2h.2v.1h.2v.2h.1v.1h.2v.3h.1v.2l.2,.1v1.4l-.2,.2v.1l-.1,.2l-.2,.1l-.1,.2v.1h-.2l-.2,.2l-.1,.1h-.3l-.2,.2h-1l-.2,-.2h-.3l-.1,-.1l-.2,-.2l-.1,-.1l-.2,-.2l-.2,-.1v-.2l-.1,-.1v-.2l-.2,-.1v-.5Z" class="g5_5" />
<path fill-rule="evenodd" d="M1124.1,428.5V428l.2,-.3v-.6l.1,-.3v-.1l.2,-.4l.2,-.3l.1,-.3l.2,-.1l.1,-.3l.2,-.2l.1,-.1l.3,-.3l.2,-.2l.1,-.1l.3,-.3l.2,-.2l.3,-.2h.3l.1,-.1l.4,-.2l.3,-.1h.3l.3,-.2h63.5l.3,.2h.2l.3,.1l.3,.2l.1,.1h.4l.3,.2l.1,.2l.3,.3l.2,.1l.3,.2l.1,.3l.2,.1l.1,.2l.2,.3l.1,.1l.2,.3l.1,.3l.2,.4v.1l.2,.3v.6l.1,.3v29.8l-.1,.3v.6l-.2,.2l-.2,.3l-.1,.3l-.2,.2v.3l-.3,.3l-.1,.1l-.2,.2l-.1,.3l-.3,.1l-.2,.2l-.1,.1l-.3,.3h-.3l-.2,.2l-.3,.1l-.3,.2l-.2,.1h-.6l-.3,.2h-.7l-61.5,.2h-.3l-.3,-.2h-.4l-.3,-.2h-.3l-.3,-.1l-.4,-.2h-.1l-.3,-.1l-.3,-.2l-.2,-.1l-.3,-.2l-.1,-.3l-.2,-.1l-.3,-.2l-.1,-.3l-.2,-.1l-.1,-.3l-.2,-.2l-.1,-.3l-.2,-.3l-.2,-.2v-.3l-.1,-.3V458l-.2,-.3V428.5Z" class="g1_5" />
<path d="M1124.1,428.5v0V428l.2,-.3v-.6l.1,-.3v-.1l.2,-.4l.2,-.3l.1,-.3l.2,-.1l.1,-.3l.2,-.2l.1,-.1l.3,-.3l.2,-.2l.1,-.1l.3,-.3l.2,-.2l.3,-.2h.3l.1,-.1l.4,-.2l.3,-.1h.3l.3,-.2h63.5l.3,.2h.2l.3,.1l.3,.2l.1,.1h.4l.3,.2l.1,.2l.3,.3l.2,.1l.3,.2l.1,.3l.2,.1l.1,.2l.2,.3l.1,.1l.2,.3l.1,.3l.2,.4v.1l.2,.3v.6l.1,.3v29.8l-.1,.3v.6l-.2,.2l-.2,.3l-.1,.3l-.2,.2v.3l-.3,.3l-.1,.1l-.2,.2l-.1,.3l-.3,.1l-.2,.2l-.1,.1l-.3,.3h-.3l-.2,.2l-.3,.1l-.3,.2l-.2,.1h-.6l-.3,.2h-.7l-61.5,.2h-.3l-.3,-.2h-.4l-.3,-.2h-.3l-.3,-.1l-.4,-.2h-.1l-.3,-.1l-.3,-.2l-.2,-.1l-.3,-.2l-.1,-.3l-.2,-.1l-.3,-.2l-.1,-.3l-.2,-.1l-.1,-.3l-.2,-.2l-.1,-.3l-.2,-.3l-.2,-.2v-.3l-.1,-.3V458l-.2,-.3V428.5Zm0,-5.4v0Zm72.3,39.5v0Z" class="g12_5" />
<path fill-rule="evenodd" d="M1124.1,425.4V425l.2,-.3v-.6l.1,-.4v-.3l.2,-.1l.2,-.3l.1,-.3l.2,-.2l.1,-.3l.2,-.1l.1,-.3l.3,-.2l.2,-.1l.1,-.3l.3,-.2l.2,-.2l.3,-.1l.3,-.2h.1l.4,-.1l.3,-.2h.3l.3,-.1h.4l.3,-.2h61.9l.3,.2h.6l.3,.1h.2l.3,.2l.3,.1h.1l.4,.2l.3,.1l.1,.2l.3,.2l.2,.3l.3,.1l.1,.2l.2,.3l.1,.1l.2,.3l.1,.2l.2,.3l.1,.3l.2,.1v.3l.2,.4v.6l.1,.3v29.8l-.1,.3v.4l-.2,.3l-.2,.3l-.1,.3l-.2,.2v.3l-.3,.2l-.1,.3l-.2,.1l-.1,.3l-.3,.2l-.2,.1l-.1,.2l-.3,.1l-.3,.2l-.2,.1l-.3,.2l-.3,.1h-.2l-.3,.2h-.3l-.3,.1h-63.2l-.3,-.1h-.3l-.3,-.2l-.4,-.1l-.1,-.2h-.3l-.3,-.1l-.2,-.2l-.3,-.3l-.1,-.1l-.2,-.2l-.3,-.1l-.1,-.3l-.2,-.2l-.1,-.3l-.2,-.2l-.1,-.3l-.2,-.3l-.2,-.3v-.1l-.1,-.3v-.6l-.2,-.3V425.4Z" class="g3_5" />
<path d="M1124.1,425.4v0V425l.2,-.3v-.6l.1,-.4v-.3l.2,-.1l.2,-.3l.1,-.3l.2,-.2l.1,-.3l.2,-.1l.1,-.3l.3,-.2l.2,-.1l.1,-.3l.3,-.2l.2,-.2l.3,-.1l.3,-.2h.1l.4,-.1l.3,-.2h.3l.3,-.1h.4l.3,-.2h61.9l.3,.2h.6l.3,.1h.2l.3,.2l.3,.1h.1l.4,.2l.3,.1l.1,.2l.3,.2l.2,.3l.3,.1l.1,.2l.2,.3l.1,.1l.2,.3l.1,.2l.2,.3l.1,.3l.2,.1v.3l.2,.4v.6l.1,.3v29.8l-.1,.3v.4l-.2,.3l-.2,.3l-.1,.3l-.2,.2v.3l-.3,.2l-.1,.3l-.2,.1l-.1,.3l-.3,.2l-.2,.1l-.1,.2l-.3,.1l-.3,.2l-.2,.1l-.3,.2l-.3,.1h-.2l-.3,.2h-.3l-.3,.1h-63.2l-.3,-.1h-.3l-.3,-.2l-.4,-.1l-.1,-.2h-.3l-.3,-.1l-.2,-.2l-.3,-.3l-.1,-.1l-.2,-.2l-.3,-.1l-.1,-.3l-.2,-.2l-.1,-.3l-.2,-.2l-.1,-.3l-.2,-.3l-.2,-.3v-.1l-.1,-.3v-.6l-.2,-.3V425.4Zm0,-5.5v0Zm72.3,39.4v0Z" class="g16_5" />
<path d="M1131.5,454.2L1142,425.4m-4.4,27.8l10.5,-27.5m-4.4,28.5l10.5,-28.8" class="g6_5" />
<path d="M1091.6,282.6v-1.1l.1,-1.1v-1l.4,-1.1m1.2,-4.1l.1,-.2l.5,-1l.4,-1l.7,-.9l.6,-.7m2.7,-3.2l.2,-.4l.9,-.6l.9,-.7l.9,-.6l.6,-.3m4,-1.9l.3,-.1l1.1,-.3l1.1,-.3l1.2,-.2l.6,-.1m4.3,-.2h4.4m4.4,0h4.3m4.4,0h4.3m4.4,0h4.5m4.2,0h4.3m4.5,0h4.4m4.3,0h4.4m4.3,0h4.4m4.4,0h4.3m4.4,0h4.5m4.2,0h4.3m4.5,0h4.4m4.3,0h4.4m4.3,0h4.4m4.4,0h4.3m4.4,0h4.3m4.5,0h4.2m4.5,0h4.4m4.3,0h4.4m4.3,0h4.4m4.4,0h4.3m4.4,0h4.3m4.5,0h4.2m4.5,0h4.4m4.3,0h4.4m4.3,0h4.4m4.4,0h4.3m4.4,0h4.3m4.5,0h4.2m4.5,0h4.2m4.5,.8l.9,.3l1.1,.3l.9,.4l1,.5m3.7,2.4v0l.9,.6l.8,1l.8,.7l.6,.8m2.4,3.7h.2l.4,1l.3,1.1l.5,1.1l.1,.7m.8,4.5v.1l.2,1.1v3m0,4.5v4.2m0,4.5v4.3m0,4.4v4.3m0,4.4v4.4m0,4.3v4.4m0,4.3V338m0,4.5v4.2m0,4.5v4.3m0,4.4v4.3m0,4.4V373m0,4.3v4.4m0,4.3v4.4m0,4.3v4.5m0,4.4v4.3m0,4.4v4.3m0,4.4v4.4m0,4.3v4.4m0,4.3v4.4m0,4.3v4.5m0,4.2v4.5m0,4.4V469m-.2,4.4v.3l-.1,1.1l-.2,1l-.3,1.1l-.2,.8m-1.6,4l-.3,.3l-.7,1l-.6,.9l-.6,.8l-.4,.6m-3.2,2.9l-.3,.3l-1,.6l-.9,.6l-1.1,.7l-.4,.1m-4.1,1.4l-.6,.1l-1.1,.3l-1.1,.2h-1.5m-4.4,.2h-4.3m-4.5,0h-4.2m-4.5,0h-4.2m-4.5,0h-4.2m-4.5,0h-4.4m-4.3,0h-4.4m-4.3,0h-4.4m-4.5,0h-4.2m-4.5,0H1293m-4.5,0h-4.3m-4.4,0h-4.4m-4.3,0h-4.4m-4.3,0H1258m-4.5,0h-4.2m-4.5,0h-4.2m-4.5,0h-4.3m-4.4,0H1223m-4.3,0h-4.4m-4.3,0h-4.4m-4.5,0h-4.2m-4.5,0h-4.2m-4.5,0h-4.3m-4.4,0h-4.4m-4.3,0h-4.4m-4.3,0h-4.4m-4.5,0h-4.2m-4.5,0h-4.2m-4.5,0H1127m-4.4,0h-4.3m-4.4,0h-2.3l-1.1,-.2l-1,-.2m-4.2,-1h-.3l-.9,-.5l-1,-.4l-1,-.7l-.7,-.3m-3.4,-2.7l-.3,-.3l-.8,-.8l-.6,-.7l-.7,-1l-.3,-.6m-2.2,-3.8l-.1,-.4l-.3,-1.1l-.3,-1.1l-.3,-1.1l-.2,-.6m-.3,-4.2v-4.5m0,-4.3v-4.4m0,-4.3v-4.4m0,-4.3v-4.4m0,-4.4v-4.3m0,-4.4V423m0,-4.4v-4.5m0,-4.3v-4.2m0,-4.5v-4.4m0,-4.3V388m0,-4.4v-4.3m0,-4.4v-4.3m0,-4.4v-4.5m0,-4.3v-4.2m0,-4.5v-4.4m0,-4.3v-4.4m0,-4.3v-4.4m0,-4.4v-4.3m0,-4.5v-4.2m0,-4.5v-4.2m0,-4.5v-4.4m0,-4.3v-4.4" class="g17_5" />
<path fill-rule="evenodd" d="M1177.8,285v-.4l.1,-.2v-.3l.2,-.1v-.3l.1,-.2v-.2l.2,-.1V283h.1l.2,-.1l.1,-.2v-.1h.2l.1,-.2h.2l.1,-.1h.2l.2,-.2h.4l.2,-.1h34.9l.2,.1h.5l.1,.2h.2l.1,.1h.2l.1,.2l.2,.1l.1,.2v.1h.2l.1,.2v.1l.2,.2v.2l.1,.1v.2l.2,.1v.5l.1,.1v8l-.1,.3v.3l-.2,.1v.3l-.1,.2l-.2,.1v.2l-.1,.1l-.2,.2l-.1,.2l-.2,.1l-.1,.2h-.2l-.1,.1h-.2l-.1,.2h-.5l-.2,.1h-35.1l-.1,-.1h-.3l-.2,-.2h-.2l-.1,-.1h-.2l-.1,-.2h-.2v-.1l-.1,-.2h-.2v-.2l-.1,-.1l-.2,-.2v-.1l-.1,-.2v-.3h-.2v-.3l-.1,-.1v-8Z" class="g1_5" />
<path d="M1177.8,285v-.4l.1,-.2v-.3l.2,-.1v-.3l.1,-.2v-.2l.2,-.1V283h.1l.2,-.1l.1,-.2v-.1h.2l.1,-.2m3.1,-.4h3m3.1,0h3.1m3.2,0h3m3.1,0h3m3.1,0h3m3.1,0h2.4l.2,.1h.5m1.8,2.3v.2l.1,.1v2.8m0,3v2.2l-.1,.3v.3l-.2,.1v.2m-2.3,1.8h-3m-3.1,0h-3m-3.1,0h-3m-3.2,0h-3.1m-3,0h-3.1m-3.1,0h-3m-2.9,-.7v-.2h-.2v-.2l-.1,-.1l-.2,-.2v-.1l-.1,-.2v-.3h-.2v-.3l-.1,-.1v-1.3m0,-3v-3.1" class="g2_5" />
<path fill-rule="evenodd" d="M1177.8,282v-.6h.1v-.3l.2,-.4v-.1l.1,-.2v-.1l.2,-.2V280l.1,-.2h.2l.1,-.1v-.2h.2l.1,-.1l.2,-.2h.3l.2,-.1h.4l.2,-.2h34.9l.2,.2h.5l.1,.1h.3l.2,.2l.1,.1l.2,.2l.1,.1l.2,.2l.1,.1v.2l.2,.1v.2l.1,.1l.2,.4v.3l.1,.3v7.9l-.1,.2v.4l-.2,.2v.3l-.1,.1l-.2,.2v.1h-.1v.2l-.2,.1l-.1,.2l-.2,.1l-.1,.2h-.2l-.1,.2h-.3l-.2,.1h-.3l-.2,.2h-35.1l-.1,-.2h-.3l-.2,-.1h-.2l-.1,-.2h-.2l-.1,-.2h-.2v-.1l-.1,-.2h-.2v-.1l-.1,-.2l-.2,-.1v-.2l-.1,-.1v-.3l-.2,-.2v-.1l-.1,-.2V282Z" class="g3_5" />
<path d="M1177.8,282v-.6h.1v-.3l.2,-.4v-.1l.1,-.2v-.1l.2,-.2V280l.1,-.2h.2l.1,-.1v-.2h.2l.1,-.1m3.1,-.5h3m3.1,0h3.1m3.2,0h3m3.1,0h3m3.1,0h3m3.1,0h2.4l.2,.2h.5m1.8,2.3v0l.1,.3v2.7m0,3.1v2.1l-.1,.2v.4l-.2,.2v.1m-2.3,1.9h-3m-3.1,0h-3m-3.1,0h-3m-3.2,0h-3.1m-3,0h-3.1m-3.1,0h-3m-2.9,-1v0h-.2v-.1l-.1,-.2l-.2,-.1v-.2l-.1,-.1v-.3l-.2,-.2v-.1l-.1,-.2v-1.2m0,-3.1v-3" class="g4_5" />
<path fill-rule="evenodd" d="M1212.7,282.4V282h.2v-.2h.2v-.1l.1,-.2l.2,-.1h.3v-.2h.4v.2h.3v.1h.3v.2l.2,.1v.2l.1,.1v.6h-.1v.3h-.2v.2h-.1v.1h-.2l-.1,.2h-.9v-.2h-.2l-.1,-.1V283h-.2v-.1h-.2v-.5Z" class="g0_5" />
<path fill-rule="evenodd" d="M1209.8,282.4v-.3h.2v-.3h.2v-.1h.1v-.2h.2v-.1h.3l.1,-.2h.3v.2h.5v.1h.1v.2h.2v.3h.1v.9h-.1v.1h-.2v.2l-.1,.1h-.2v.2h-.9l-.1,-.2h-.2v-.1h-.1V283h-.2v-.3h-.2v-.3Z" class="g5_5" />
<path fill-rule="evenodd" d="M1178.1,299.8v-.7l.1,-.2v-.1l.2,-.2v-.3l.1,-.1l.2,-.2l.1,-.1v-.2h.2l.1,-.1l.2,-.2h.1l.2,-.2h.2v-.1h.1l.2,-.2h36l.2,.2h.1l.2,.1h.1l.2,.2l.1,.2l.2,.1h.1v.2l.2,.1l.1,.2l.2,.3l.1,.1v.3l.2,.2v.7l.2,7.5h-.2v.8l-.2,.1v.4l-.1,.1v.2h-.2v.1l-.1,.2l-.2,.1v.2h-.1l-.2,.1h-.1v.2l-.2,.1h-.1l-.2,.2h-.3l-.1,.1h-.8l-34.2,.2v-.2h-.9l-.2,-.1h-.1v-.2h-.2l-.2,-.1h-.1l-.2,-.2h-.1v-.1l-.2,-.2l-.1,-.1l-.2,-.2v-.1l-.1,-.2v-.1l-.2,-.2v-.3l-.1,-.2v-8.1Z" class="g1_5" />
<path d="M1178.1,299.8v-.7l.1,-.2v-.1l.2,-.2v-.3l.1,-.1l.2,-.2l.1,-.1v-.2h.2l.1,-.1l.2,-.2h.1v-.2m3.1,-.3h3.1m3,0h3.1m3,0h3.1m3,0h3.2m3.1,0h3.1m3,0h2.9l.2,.2m1.8,2.3v3m.2,3.1v1.8h-.2v.8l-.2,.1v.4m-2.2,1.6h-3.1m-3.1,0h-3.2m-3,0h-3.1m-3,.2h-3.1m-3,0H1188m-3.1,0h-3.2m-2.7,-.9v0l-.2,-.2l-.1,-.1l-.2,-.2v-.1l-.1,-.2v-.1l-.2,-.2v-.3l-.1,-.2v-1.2m0,-3v-3.1" class="g2_5" />
<path fill-rule="evenodd" d="M1178.1,296.8V296l.1,-.1v-.2l.2,-.1v-.3l.1,-.2V295h.2l.1,-.2v-.1h.2l.1,-.2l.2,-.2h.1l.2,-.1h.2V294h.1l.2,-.1h.4l.2,-.2h34.8l.2,.2h.4l.2,.1h.1l.2,.2h.1l.2,.1l.1,.2l.2,.2h.1v.1l.2,.2h.1v.1l.2,.2v.1l.1,.2v.3l.2,.1v.8l.2,7.5h-.2v.7l-.2,.2v.3l-.1,.2l-.2,.1v.2l-.1,.1l-.2,.2l-.1,.1l-.2,.2h-.1v.1h-.2l-.1,.2l-.2,.1h-.4l-.2,.2h-.6l-34.2,.1v-.1h-.8l-.1,-.2h-.3v-.1h-.2l-.2,-.2h-.1l-.2,-.1h-.1v-.2l-.2,-.1l-.1,-.2V306h-.2v-.2l-.1,-.1v-.2l-.2,-.2V305l-.1,-.1v-8.1Z" class="g3_5" />
<path d="M1178.1,296.8V296l.1,-.1v-.2l.2,-.1v-.3l.1,-.2V295h.2l.1,-.2v-.1h.2l.1,-.2l.2,-.2h.1v-.1m3.1,-.5h3.1m3,0h3.1m3,0h3.1m3,0h3.2m3.1,0h3.1m3,0h2.3l.2,.2h.4l.2,.1m1.8,2.3v2.9m.2,3.2v1.9h-.2v.7l-.2,.2v.1m-2.2,1.9h-3.1m-3.1,0h-3.2m-3,0h-3.1m-3,.1h-3.1m-3,0H1188m-3.1,0h-3.2m-2.7,-.9v0l-.2,-.1l-.1,-.2V306h-.2v-.2l-.1,-.1v-.2l-.2,-.2V305l-.1,-.1v-1.2m0,-3.1v-3" class="g4_5" />
<path fill-rule="evenodd" d="M1213.1,297.2v-.4l.1,-.2l.2,-.1v-.2h.3v-.1h.3V296h.3l.1,.2h.3v.1h.2v.2h.1v.1h.2v.3l.1,.2v.3l-.1,.2v.3h-.2v.1h-.1v.2h-.2v.1h-.3l-.1,.2h-.3v-.2h-.3l-.2,-.1h-.1V298h-.2v-.1h-.1v-.7Z" class="g0_5" />
<path fill-rule="evenodd" d="M1210.2,297.2v-.3l.1,-.1v-.2h.2v-.1l.1,-.2h.2v-.1h.3V296h.4v.2h.3v.1h.3v.3h.2v.3h.1v.7h-.1v.3h-.2v.1l-.1,.2h-.2v.1h-.3v.2h-.4v-.2h-.3v-.1h-.3v-.3h-.2v-.2h-.1v-.5Z" class="g5_5" />
<path fill-rule="evenodd" d="M1178.1,314.7v-.8l.1,-.2v-.1l.2,-.2v-.3h.1V313l.2,-.2l.1,-.1v-.2h.2l.1,-.1l.2,-.2h.1l.2,-.1h.2l.1,-.2h.2l.1,-.1H1216l.1,.1h.2l.1,.2h.3l.2,.1l.1,.2l.2,.1h.1v.2l.2,.1l.1,.2v.1l.2,.2v.1h.1v.3l.2,.2v.8l.2,7.5h-.2v.7l-.2,.2v.3l-.1,.1v.2l-.2,.1l-.1,.2l-.2,.1v.2l-.1,.1h-.2l-.1,.2v.1h-.3l-.2,.2h-.1l-.2,.2h-.4l-.2,.1h-34.8l-.2,-.1h-.6l-.1,-.2l-.2,-.2h-.2l-.1,-.1l-.2,-.2h-.1v-.1l-.2,-.2h-.1V324l-.2,-.2v-.1l-.1,-.2v-.1l-.2,-.2v-.1l-.1,-.3v-8.1Z" class="g1_5" />
<path d="M1178.1,314.7v-.8l.1,-.2v-.1l.2,-.2v-.3h.1V313l.2,-.2l.1,-.1v-.2h.2l.1,-.1l.2,-.2h.1m3.1,-.4h3.1m3,0h3.1m3,0h3.1m3,0h3.2m3.1,0h3.1m3,0h2.8l.1,.1h.2m1.8,2.3v3.1m.2,3v1.9h-.2v.7l-.2,.2v.3m-2.2,1.7l-.2,.1h-2.9m-3.1,0h-3.2m-3,0h-3.1m-3,0h-3.1m-3,0H1188m-3.1,0h-3.2m-2.7,-.9v0l-.2,-.2h-.1V324l-.2,-.2v-.1l-.1,-.2v-.1l-.2,-.2v-.1l-.1,-.3v-1.3m0,-3v-3.1" class="g2_5" />
<path fill-rule="evenodd" d="M1178.1,311.6v-.8l.1,-.1v-.2l.2,-.1v-.3l.1,-.2l.2,-.1l.1,-.2v-.1h.2l.1,-.2l.2,-.1h.1l.2,-.2h.2v-.1h.3l.1,-.2H1216l.1,.2h.3l.2,.1h.1l.2,.2l.1,.1l.2,.2h.1v.1l.2,.2l.1,.1l.2,.3l.1,.2v.3l.2,.1v.8l.2,7.5h-.2v.8l-.2,.1v.3l-.1,.2v.1h-.2v.2l-.1,.1l-.2,.2v.1h-.1l-.2,.2l-.1,.1l-.2,.2h-.1l-.2,.1h-.3l-.1,.2h-.3l-.2,.2h-34.8l-.2,-.2h-.4l-.2,-.2h-.1l-.2,-.1l-.2,-.2h-.1l-.2,-.1h-.1v-.2l-.2,-.1l-.1,-.2l-.2,-.1v-.2l-.1,-.1v-.2l-.2,-.1v-.3l-.1,-.2v-8.1Z" class="g3_5" />
<path d="M1178.1,311.6v-.8l.1,-.1v-.2l.2,-.1v-.3l.1,-.2l.2,-.1l.1,-.2v-.1h.2l.1,-.2l.2,-.1h.1m3.1,-.5h3.1m3,0h3.1m3,0h3.1m3,0h3.2m3.1,0h3.1m3,0h2.8l.1,.2h.2m1.8,2.3v3m.2,3.1v1.8h-.2v.8l-.2,.1v.3m-2.2,1.7l-.2,.2h-2.9m-3.1,0h-3.2m-3,0h-3.1m-3,0h-3.1m-3,0H1188m-3.1,0h-3.2m-2.7,-1v0l-.2,-.1l-.1,-.2l-.2,-.1v-.2l-.1,-.1v-.2l-.2,-.1v-.3l-.1,-.2v-1.2m0,-3.1v-3" class="g4_5" />
<path fill-rule="evenodd" d="M1213.1,312.1v-.5h.1v-.1h.2v-.3h.3V311h.9l.1,.2h.2v.1h.1v.2l.2,.1v.3h.1v.3l-.1,.2v.3h-.2v.1h-.1v.2h-.2v.1h-.3l-.1,.2h-.3v-.2h-.5V313h-.1v-.2h-.2v-.1h-.1v-.6Z" class="g0_5" />
<path fill-rule="evenodd" d="M1210.2,312.1v-.3h.1v-.3h.2v-.2h.1v-.1h.2l.1,-.2h.9v.2h.2l.1,.1v.2h.2v.3h.1v.6l-.1,.1v.2l-.2,.1l-.1,.2l-.2,.1h-.3v.2h-.4v-.2h-.5V313h-.1v-.2h-.2v-.3h-.1v-.4Z" class="g5_5" />
<path fill-rule="evenodd" d="M1178.1,329.6v-.9h.1v-.1l.2,-.2v-.3l.1,-.1v-.2l.2,-.1h.1v-.2l.2,-.2l.1,-.1h.2l.1,-.2h.2l.2,-.1l.1,-.2h.5l.1,-.1h35.2l.1,.1h.5l.1,.2h.2l.1,.1h.2v.2h.1l.2,.1l.1,.2v.2h.2l.1,.1v.2l.2,.1v.2l.1,.1v.3h.2v.9l.2,15.8h-.2v.7l-.2,.2v.3l-.1,.1v.2l-.2,.2v.1l-.1,.2h-.2v.1l-.1,.2h-.2l-.1,.1v.2h-.2l-.1,.1h-.3l-.2,.2h-.3l-.1,.1h-35.3l-.2,-.1h-.3l-.1,-.2l-.2,-.1h-.2l-.1,-.2h-.2l-.1,-.1v-.2h-.2l-.1,-.1v-.2l-.2,-.1v-.2l-.1,-.2l-.2,-.3v-.1l-.1,-.2V329.6Z" class="g1_5" />
<path d="M1178.1,331.6v-2.9h.1v-.1l.2,-.2v-.3l.1,-.1v-.2l.2,-.1h.1v-.2l.2,-.2l.1,-.1h.2l.1,-.2m3.1,-.4h3.1m3,0h3.1m3,0h3.1m3,0h3.2m3.1,0h3.1m3,0h2.5l.1,.1h.5m1.8,2.3v3.1m0,3l.2,3.1m0,3v3.3m-.8,2.9v0h-.2v.1l-.1,.2h-.2l-.1,.1v.2h-.2l-.1,.1h-.3l-.2,.2h-.3l-.1,.1h-1m-3,0h-3.1m-3,0h-3.1m-3,0h-3.1m-3.1,0h-3.2m-3,0H1184m-3,0h-.6l-.2,-.1h-.3l-.1,-.2l-.2,-.1h-.2l-.1,-.2h-.2l-.1,-.1v-.2h-.2l-.1,-.1v-.2l-.2,-.1m-.4,-3.1v-3.1m0,-3v-3.1" class="g2_5" />
<path fill-rule="evenodd" d="M1178.1,326.4v-.7h.1v-.3h.2v-.3l.1,-.2v-.2l.2,-.1l.1,-.2l.2,-.1l.1,-.2h.2l.1,-.1l.2,-.2h.2l.1,-.1h.2l.1,-.2H1216l.1,.2h.2l.1,.1h.3l.2,.2v.1h.1l.2,.2l.1,.1l.2,.2l.1,.1v.2l.2,.2v.1l.1,.2v.3h.2v.7l.2,15.9h-.2v.8l-.2,.1v.3l-.1,.2v.1l-.2,.2v.2h-.1l-.2,.1v.2l-.1,.1h-.2l-.1,.2v.1h-.2l-.1,.2h-.3l-.2,.1h-.4l-.2,.2h-34.8l-.2,-.2h-.6l-.1,-.1l-.2,-.2h-.2l-.1,-.1h-.2l-.1,-.2v-.1h-.2l-.1,-.2v-.1l-.2,-.2v-.2l-.1,-.1v-.2l-.2,-.1v-.2l-.1,-.3V326.4Z" class="g3_5" />
<path d="M1178.1,328.6v-2.9h.1v-.3h.2v-.3l.1,-.2v-.2l.2,-.1l.1,-.2l.2,-.1l.1,-.2h.2l.1,-.1m3.1,-.5h3.1m3,0h3.1m3,0h3.1m3,0h3.2m3.1,0h3.1m3,0h2.8l.1,.2h.2m1.8,2.3v3m0,3.1l.2,3m0,3.1v3m-.8,3v0l-.2,.1v.2l-.1,.1h-.2l-.1,.2v.1h-.2l-.1,.2h-.3l-.2,.1h-.4l-.2,.2h-.8m-3,0h-3.1m-3,0h-3.1m-3,0h-3.1m-3.1,0h-3.2m-3,0H1184m-3,0h-.3l-.2,-.2h-.6l-.1,-.1l-.2,-.2h-.2l-.1,-.1h-.2l-.1,-.2v-.1h-.2l-.1,-.2v-.1l-.2,-.2v-.2m-.4,-2.9v-3m0,-3.1v-3.2" class="g4_5" />
<path d="M1182,342.5l5.8,-16.1m-2.2,15.5l5.8,-15.3m-2.5,15.9l5.8,-16.1" class="g6_5" />
<path fill-rule="evenodd" d="M1197.8,351.9h-22.6V272.3h45.3v79.6h-22.7Z" class="g18_5" />
<path fill-rule="evenodd" d="M1288.4,750.5c0,3.6,2.4,7.1,6.2,9.1c-3.8,2.1,-6.2,5.5,-6.2,9.1c0,3.8,2.4,7.2,6.2,9.2c-3.8,2.1,-6.2,5.5,-6.2,9.2c0,3.6,2.4,7.1,6.2,9.1c-3.8,2.2,-6.2,5.5,-6.2,9.2h2.7c0,-.8,.2,-1.4,.5,-2h13.7c.2,.6,.3,1.2,.3,2h2.9c0,-3.7,-2.6,-7,-6.4,-9.2c3.8,-2,6.4,-5.5,6.4,-9.1c0,-3.7,-2.4,-7.1,-6.4,-9.2c4,-2,6.4,-5.4,6.4,-9.2c0,-3.6,-2.4,-7,-6.4,-9.1c4,-2,6.4,-5.5,6.4,-9.1h-2.9c0,.7,0,1.3,-.3,1.9h-13.9c-.1,-.6,-.3,-1.2,-.3,-1.9h-2.7Zm3.9,3.6h12.3c-1.3,1.8,-3.4,3.3,-6.1,4.1c-2.8,-.8,-4.9,-2.3,-6.2,-4.1Zm6.2,7c2.6,.7,4.8,2.3,6.1,4.1h-12.3c1.3,-1.8,3.4,-3.4,6.2,-4.1Zm-7.1,5.6h13.9c.3,.8,.3,1.4,.3,2c0,.6,0,1.4,-.3,2h-13.9c-.1,-.6,-.3,-1.4,-.3,-2c0,-.6,.2,-1.2,.3,-2Zm.9,5.5h12.3c-1.3,1.9,-3.4,3.4,-6.1,4.3c-2.8,-.9,-4.9,-2.4,-6.2,-4.3Zm6.2,7.2c2.6,.8,4.7,2.2,6.1,4h-12.3c1.3,-1.8,3.4,-3.2,6.2,-4Zm-6.9,5.7h13.7c.3,.6,.3,1.3,.3,2c0,.6,0,1.2,-.3,1.8h-13.9c-.1,-.6,-.3,-1.2,-.3,-1.8c0,-.7,.2,-1.4,.5,-2Zm.7,5.5h12.3c-1.3,1.8,-3.4,3.3,-6.1,4.2c-2.8,-.9,-4.9,-2.4,-6.2,-4.2Zm6.2,7.1c2.6,.8,4.7,2.2,5.9,4h-12.1c1.4,-1.8,3.4,-3.2,6.2,-4Z" class="g1_5" />
<path fill-rule="evenodd" d="M1288.4,747.3c0,3.7,2.4,7.2,6.2,9.2c-3.8,2.1,-6.2,5.5,-6.2,9.2c0,3.6,2.4,7.1,6.2,9.1c-3.8,2.2,-6.2,5.5,-6.2,9.2c0,3.7,2.4,7,6.2,9.2c-3.8,2,-6.2,5.5,-6.2,9.1h2.7c0,-.7,.2,-1.3,.5,-2h13.7c.2,.7,.3,1.3,.3,2h2.9c0,-3.6,-2.6,-7.1,-6.4,-9.1c3.8,-2.2,6.4,-5.5,6.4,-9.2c0,-3.7,-2.4,-7,-6.4,-9.2c4,-2,6.4,-5.5,6.4,-9.1c0,-3.7,-2.4,-7.1,-6.4,-9.2c4,-2,6.4,-5.5,6.4,-9.2h-2.9c0,.8,0,1.4,-.3,2h-13.9c-.1,-.6,-.3,-1.2,-.3,-2h-2.7Zm3.9,3.7h12.3c-1.3,1.8,-3.4,3.4,-6.1,4.1c-2.8,-.7,-4.9,-2.3,-6.2,-4.1Zm6.2,7c2.6,.8,4.8,2.3,6.1,4.2h-12.3c1.3,-1.9,3.4,-3.4,6.2,-4.2Zm-7.1,5.7h13.9c.3,.7,.3,1.4,.3,2c0,.6,0,1.3,-.3,2h-13.9c-.1,-.7,-.3,-1.4,-.3,-2c0,-.6,.2,-1.3,.3,-2Zm.9,5.5h12.3c-1.3,1.8,-3.4,3.3,-6.1,4.3c-2.8,-1,-4.9,-2.5,-6.2,-4.3Zm6.2,7.2c2.6,.7,4.7,2.1,6.1,3.9h-12.3c1.3,-1.8,3.4,-3.2,6.2,-3.9Zm-6.9,5.6h13.7c.3,.6,.3,1.2,.3,2c0,.6,0,1.2,-.3,1.8h-13.9c-.1,-.6,-.3,-1.2,-.3,-1.8c0,-.8,.2,-1.4,.5,-2Zm.7,5.5h12.3c-1.3,1.8,-3.4,3.4,-6.1,4.1c-2.8,-.7,-4.9,-2.3,-6.2,-4.1Zm6.2,7.2c2.6,.8,4.7,2.1,5.9,4h-12.1c1.4,-1.9,3.4,-3.2,6.2,-4Z" class="g5_5" />
<image preserveAspectRatio="none" x="1230" y="684" width="41" height="55" xlink:href="5/img/3.png" />

</svg>
