<?xml version="1.0" encoding="utf-8"?>
<svg x="0" y="0" width="1564" height="1173" viewBox="0 0 1564 1173" version="1.1" style="display: block;margin-left: auto;margin-right: auto;" xmlns="http://www.w3.org/2000/svg" xmlns:xlink="http://www.w3.org/1999/xlink" xmlns:bx="https://boxy-svg.com">
  <defs>
    <clipPath id="c0_5">
      <path d="M0,1173.3V0H1564.4V1173.3Z"/>
    </clipPath>
    <style bx:fonts="DejaVuSans-Oblique_84">@font-face { font-family: DejaVuSans-Oblique_84; src: url("fonts/DejaVuSans-Oblique_84.woff") format("woff"); }</style>
    <style bx:fonts="DejaVuSans_7_">@font-face { font-family: DejaVuSans_7_; src: url("fonts/DejaVuSans_7_.woff") format("woff"); }</style>
    <style type="text/css">

.g0_5{
fill: #FFFFFF;
}
.g1_5{
fill: none;
stroke: #000000;
stroke-width: 7.6095405;
stroke-linecap: butt;
stroke-linejoin: miter;
stroke-miterlimit: 7;
stroke-opacity: 0.5;
}
.g2_5{
fill: none;
stroke: #B36AE1;
stroke-width: 7.6095405;
stroke-linecap: butt;
stroke-linejoin: miter;
stroke-miterlimit: 7;
}
.g3_5{
fill-opacity: 0.5;
}
.g4_5{
fill: none;
stroke: #000000;
stroke-width: 3.069764;
stroke-linecap: butt;
stroke-linejoin: miter;
stroke-miterlimit: 7;
stroke-opacity: 0.5;
}
.g5_5{
fill: #0077B1;
fill-opacity: 0.52;
}
.g6_5{
fill: none;
stroke: #0077B1;
stroke-width: 3.069764;
stroke-linecap: butt;
stroke-linejoin: miter;
stroke-miterlimit: 7;
}
.g7_5{
fill: #70BF41;
}
.g8_5{
fill: none;
stroke: #0077B1;
stroke-width: 1.513264;
stroke-linecap: butt;
stroke-linejoin: miter;
stroke-miterlimit: 7;
}
.g9_5{
fill: #B36AE1;
}

.s1_5{
font-size: 48.89px;
font-family: DejaVuSans-Oblique_84;
fill: #00AB1D;
}
.s2_5{
font-size: 48.89px;
font-family: DejaVuSans-Oblique_84;
fill: #0175AF;
}
.s3_5{
font-size: 36.67px;
font-family: DejaVuSans-Oblique_84;
fill: #000000;
}
.s4_5{
font-size: 24.44px;
font-family: DejaVuSans-Oblique_84;
fill: #000000;
}
.s5_5{
font-size: 51.94px;
font-family: DejaVuSans_7_;
fill: #B36AE1;
}

</style>
  </defs>
  <path d="M0,0 L0,1173 L1564,1173 L1564,0 Z " fill="#FFFFFF" stroke="none"/>
  <g clip-path="url(#c0_5)">
    <path fill-rule="evenodd" d="M0,.1H1564.4V1173.4H0V.1Z" class="g0_5"/>
    <path fill-rule="evenodd" d="M0,.1H1564.4V1173.4H0V.1Z" class="g0_5"/>
  </g>
  <image preserveAspectRatio="none" x="7" y="1076" width="60" height="79" xlink:href="5/img/1.png"/>
  <path d="M1140.9,824.6H823v-377h635.9v377h-318Z" class="g1_5"/>
  <path d="M1140.9,821.6H823V444.5h635.9V821.6h-318Z" class="g2_5"/>
  <path fill-rule="evenodd" d="M1011.4,573.2v-.6l.1,-.4v-.7l.2,-.3l.1,-.3l.2,-.3l.2,-.3V570l.3,-.2l.1,-.3l.2,-.3l.3,-.2l.1,-.3l.3,-.3l.2,-.1l.3,-.2l.3,-.1l.3,-.3h.2l.3,-.2l.3,-.1l.3,-.2l.3,-.1h.7l.3,-.2h72.3l.5,.2h.6l.3,.1l.3,.2l.3,.1l.3,.2h.3l.2,.3l.3,.1l.3,.2l.3,.1l.1,.3l.3,.3l.2,.2l.1,.3l.3,.3l.2,.3l.1,.2v.3l.2,.3l.2,.3l.1,.3v.4l.2,.3v17.5l-.2,.3v.3l-.1,.3l-.2,.3v.3l-.2,.3l-.1,.3l-.2,.3l-.3,.3l-.1,.2l-.2,.3l-.3,.1l-.1,.3l-.3,.2l-.3,.3l-.2,.1l-.3,.2l-.3,.1l-.3,.2l-.3,.2l-.3,.1h-.3l-.3,.2h-.6l-.3,.1h-71.9l-.3,-.1h-.6l-.3,-.2h-.4l-.3,-.1l-.3,-.2l-.3,-.2l-.2,-.1l-.3,-.2l-.3,-.1l-.3,-.2l-.2,-.3l-.3,-.1l-.1,-.3l-.3,-.2l-.2,-.3l-.1,-.3l-.2,-.3l-.1,-.3l-.2,-.2l-.2,-.3l-.1,-.3l-.2,-.4v-.6l-.1,-.3V573.2Z" class="g3_5"/>
  <path d="M1011.4,573.2v0v-.6l.1,-.4v-.7l.2,-.3l.1,-.3l.2,-.3l.2,-.3V570l.3,-.2l.1,-.3l.2,-.3l.3,-.2l.1,-.3l.3,-.3l.2,-.1l.3,-.2l.3,-.1l.3,-.3h.2l.3,-.2l.3,-.1l.3,-.2l.3,-.1h.7l.3,-.2h72.3l.5,.2h.6l.3,.1l.3,.2l.3,.1l.3,.2h.3l.2,.3l.3,.1l.3,.2l.3,.1l.1,.3l.3,.3l.2,.2l.1,.3l.3,.3l.2,.3l.1,.2v.3l.2,.3l.2,.3l.1,.3v.4l.2,.3v17.5l-.2,.3v.3l-.1,.3l-.2,.3v.3l-.2,.3l-.1,.3l-.2,.3l-.3,.3l-.1,.2l-.2,.3l-.3,.1l-.1,.3l-.3,.2l-.3,.3l-.2,.1l-.3,.2l-.3,.1l-.3,.2l-.3,.2l-.3,.1h-.3l-.3,.2h-.6l-.3,.1h-71.9l-.3,-.1h-.6l-.3,-.2h-.4l-.3,-.1l-.3,-.2l-.3,-.2l-.2,-.1l-.3,-.2l-.3,-.1l-.3,-.2l-.2,-.3l-.3,-.1l-.1,-.3l-.3,-.2l-.2,-.3l-.1,-.3l-.2,-.3l-.1,-.3l-.2,-.2l-.2,-.3l-.1,-.3l-.2,-.4v-.6l-.1,-.3V573.2Zm0,-6.3v0ZM1095,595v0Z" class="g4_5"/>
  <path fill-rule="evenodd" d="M1011.4,570.1v-.6l.1,-.5v-.6l.2,-.3l.1,-.3l.2,-.3l.2,-.3v-.3l.3,-.2l.1,-.3l.2,-.3l.3,-.3l.1,-.1l.3,-.3l.2,-.2l.3,-.1l.3,-.3l.3,-.2l.2,-.1h.3l.3,-.2l.3,-.1l.3,-.2h.4l.3,-.2h73.1l.3,.2h.3l.3,.2l.3,.1l.3,.2h.3l.3,.1l.2,.2l.3,.3l.3,.1l.3,.2l.1,.3l.3,.1l.2,.3l.1,.3l.3,.3l.2,.4l.1,.1v.3l.2,.3l.2,.3l.1,.3v.3l.2,.3v17.6l-.2,.3v.3l-.1,.3l-.2,.3v.3l-.2,.3l-.1,.3l-.2,.4l-.3,.3l-.1,.1l-.2,.3l-.3,.2l-.1,.3l-.3,.1l-.3,.3l-.2,.2l-.3,.1l-.3,.2l-.3,.1l-.3,.2l-.3,.2h-.3l-.3,.1h-.6l-.3,.2h-71.9l-.3,-.2h-.6l-.3,-.1h-.4l-.3,-.2l-.3,-.2l-.3,-.1l-.2,-.2l-.3,-.1l-.3,-.2l-.3,-.3l-.2,-.1l-.3,-.2l-.1,-.3l-.3,-.1l-.2,-.3l-.1,-.3l-.2,-.4l-.1,-.3l-.2,-.3l-.2,-.3l-.1,-.3l-.2,-.3v-.6l-.1,-.3V570.1Z" class="g5_5"/>
  <path d="M1011.4,570.1v0v-.6l.1,-.5v-.6l.2,-.3l.1,-.3l.2,-.3l.2,-.3v-.3l.3,-.2l.1,-.3l.2,-.3l.3,-.3l.1,-.1l.3,-.3l.2,-.2l.3,-.1l.3,-.3l.3,-.2l.2,-.1h.3l.3,-.2l.3,-.1l.3,-.2h.4l.3,-.2h73.1l.3,.2h.3l.3,.2l.3,.1l.3,.2h.3l.3,.1l.2,.2l.3,.3l.3,.1l.3,.2l.1,.3l.3,.1l.2,.3l.1,.3l.3,.3l.2,.4l.1,.1v.3l.2,.3l.2,.3l.1,.3v.3l.2,.3v17.6l-.2,.3v.3l-.1,.3l-.2,.3v.3l-.2,.3l-.1,.3l-.2,.4l-.3,.3l-.1,.1l-.2,.3l-.3,.2l-.1,.3l-.3,.1l-.3,.3l-.2,.2l-.3,.1l-.3,.2l-.3,.1l-.3,.2l-.3,.2h-.3l-.3,.1h-.6l-.3,.2h-71.9l-.3,-.2h-.6l-.3,-.1h-.4l-.3,-.2l-.3,-.2l-.3,-.1l-.2,-.2l-.3,-.1l-.3,-.2l-.3,-.3l-.2,-.1l-.3,-.2l-.1,-.3l-.3,-.1l-.2,-.3l-.1,-.3l-.2,-.4l-.1,-.3l-.2,-.3l-.2,-.3l-.1,-.3l-.2,-.3v-.6l-.1,-.3V570.1Zm0,-6.3v0ZM1095,592v0Z" class="g6_5"/>
  <path fill-rule="evenodd" d="M1084.4,571.2v-.6h.2v-.5h.1V570l.2,-.2v-.1l.1,-.2v-.2h.2l.1,-.1l.2,-.2h.3v-.1h.3l.2,-.2h1.2l.1,.2h.2l.1,.1h.2l.1,.2h.2v.1h.1l.2,.2v.2h.1v.3l.2,.1l.2,.2v.4l.1,.2v.3h-.1v.7h-.2v.3l-.2,.2v.2l-.1,.1h-.2v.2h-.1v.1l-.2,.2h-.1l-.2,.1h-.1l-.2,.2h-.4v.1h-.3v-.1h-.8l-.2,-.2h-.1l-.2,-.1h-.3V573l-.1,-.1l-.2,-.2l-.1,-.1v-.2h-.2v-.2l-.1,-.1v-.3l-.2,-.2v-.4Z" class="g0_5"/>
  <path fill-rule="evenodd" d="M1078.5,571.2v-.8l.1,-.1v-.2l.2,-.1v-.2l.1,-.1l.2,-.2v-.2h.1l.2,-.1l.1,-.2h.2l.1,-.1h.3v-.2h1.3l.1,.2h.3l.2,.1h.1l.2,.2l.1,.1h.2v.2l.1,.2l.2,.1v.2l.1,.1v.3l.2,.2v1l-.2,.2v.3l-.1,.1v.2h-.2v.3h-.1l-.2,.2l-.1,.1l-.2,.2h-.1v.1h-.2l-.1,.2h-.5l-.1,.1h-.3v-.1h-.7l-.1,-.2h-.3l-.2,-.1h-.1V573l-.2,-.1h-.1v-.2h-.2v-.1l-.1,-.2l-.2,-.2v-.3h-.1v-.7Z" class="g7_5"/>
  <path fill-rule="evenodd" d="M1012,604.2v-.9l.2,-.3v-.5l.1,-.3l.2,-.3v-.3l.1,-.3l.2,-.3l.1,-.2l.3,-.3l.2,-.3l.1,-.1l.3,-.4l.2,-.3l.3,-.1l.3,-.2l.2,-.3l.3,-.1l.3,-.2h.3l.3,-.1l.3,-.2l.3,-.1h.6l.5,-.2h72.2l.3,.2h.6l.3,.1l.3,.2l.3,.1h.4l.3,.2l.3,.1l.3,.3l.1,.2l.3,.1l.3,.3l.2,.4l.3,.1l.1,.3l.2,.3l.2,.3l.1,.2l.2,.3l.1,.3l.2,.3v.3l.1,.5v.3l.2,.3v16.8l-.2,.3v.3l-.1,.3v.3l-.2,.3l-.1,.3l-.2,.3l-.1,.3l-.2,.3l-.2,.3l-.1,.2l-.3,.3l-.2,.1l-.3,.3l-.1,.2l-.3,.3l-.3,.2l-.3,.1l-.3,.2l-.2,.1l-.3,.2l-.3,.1h-.5l-.3,.2h-.6l-.3,.1H1018l-.3,-.1h-.8l-.3,-.2h-.3l-.3,-.1l-.3,-.2l-.3,-.1l-.3,-.2l-.3,-.1l-.2,-.2l-.3,-.1l-.3,-.4l-.2,-.1l-.3,-.3l-.1,-.2l-.2,-.3l-.1,-.3l-.3,-.3l-.2,-.3l-.1,-.1v-.3l-.2,-.4l-.1,-.4V621l-.2,-.3V604.2Z" class="g3_5"/>
  <path d="M1012,604.2v0v-.9l.2,-.3v-.5l.1,-.3l.2,-.3v-.3l.1,-.3l.2,-.3l.1,-.2l.3,-.3l.2,-.3l.1,-.1l.3,-.4l.2,-.3l.3,-.1l.3,-.2l.2,-.3l.3,-.1l.3,-.2h.3l.3,-.1l.3,-.2l.3,-.1h.6l.5,-.2h72.2l.3,.2h.6l.3,.1l.3,.2l.3,.1h.4l.3,.2l.3,.1l.3,.3l.1,.2l.3,.1l.3,.3l.2,.4l.3,.1l.1,.3l.2,.3l.2,.3l.1,.2l.2,.3l.1,.3l.2,.3v.3l.1,.5v.3l.2,.3v16.8l-.2,.3v.3l-.1,.3v.3l-.2,.3l-.1,.3l-.2,.3l-.1,.3l-.2,.3l-.2,.3l-.1,.2l-.3,.3l-.2,.1l-.3,.3l-.1,.2l-.3,.3l-.3,.2l-.3,.1l-.3,.2l-.2,.1l-.3,.2l-.3,.1h-.5l-.3,.2h-.6l-.3,.1H1018l-.3,-.1h-.8l-.3,-.2h-.3l-.3,-.1l-.3,-.2l-.3,-.1l-.3,-.2l-.3,-.1l-.2,-.2l-.3,-.1l-.3,-.4l-.2,-.1l-.3,-.3l-.1,-.2l-.2,-.3l-.1,-.3l-.3,-.3l-.2,-.3l-.1,-.1v-.3l-.2,-.4l-.1,-.4V621l-.2,-.3V604.2Zm0,-6.3v0Zm83.6,28.1v0Z" class="g4_5"/>
  <path fill-rule="evenodd" d="M1012,601.1v-1l.2,-.4v-.3l.1,-.3l.2,-.3v-.3l.1,-.3l.2,-.3l.1,-.1l.3,-.3l.2,-.3l.1,-.4l.3,-.1l.2,-.3l.3,-.2l.3,-.1l.2,-.3l.3,-.2l.3,-.1h.3l.3,-.2l.3,-.1l.3,-.2h.3l.3,-.1h73l.3,.1h.3l.3,.2l.3,.1l.3,.2h.4l.3,.1l.3,.2l.3,.3l.1,.1l.3,.2l.3,.3l.2,.1l.3,.4l.1,.3l.2,.3l.2,.3l.1,.1l.2,.3l.1,.3l.2,.3v.3l.1,.3v.4l.2,.4v16.8l-.2,.3v.3l-.1,.3v.3l-.2,.3l-.1,.4l-.2,.3l-.1,.3l-.2,.3l-.2,.1l-.1,.3l-.3,.3l-.2,.2l-.3,.3l-.1,.1l-.3,.3l-.3,.2l-.3,.2l-.3,.1l-.2,.2l-.3,.1l-.3,.2h-.5l-.3,.1h-.6l-.3,.2H1018l-.3,-.2h-.8l-.3,-.1h-.3l-.3,-.2l-.3,-.1l-.3,-.2l-.3,-.1l-.3,-.2l-.2,-.2l-.3,-.3l-.3,-.1l-.2,-.2l-.3,-.3l-.1,-.3l-.2,-.1l-.1,-.3l-.3,-.3l-.2,-.3l-.1,-.3v-.4l-.2,-.3l-.1,-.3v-.3l-.2,-.3V601.1Z" class="g5_5"/>
  <path d="M1012,601.1v0v-1l.2,-.4v-.3l.1,-.3l.2,-.3v-.3l.1,-.3l.2,-.3l.1,-.1l.3,-.3l.2,-.3l.1,-.4l.3,-.1l.2,-.3l.3,-.2l.3,-.1l.2,-.3l.3,-.2l.3,-.1h.3l.3,-.2l.3,-.1l.3,-.2h.3l.3,-.1h73l.3,.1h.3l.3,.2l.3,.1l.3,.2h.4l.3,.1l.3,.2l.3,.3l.1,.1l.3,.2l.3,.3l.2,.1l.3,.4l.1,.3l.2,.3l.2,.3l.1,.1l.2,.3l.1,.3l.2,.3v.3l.1,.3v.4l.2,.4v16.8l-.2,.3v.3l-.1,.3v.3l-.2,.3l-.1,.4l-.2,.3l-.1,.3l-.2,.3l-.2,.1l-.1,.3l-.3,.3l-.2,.2l-.3,.3l-.1,.1l-.3,.3l-.3,.2l-.3,.2l-.3,.1l-.2,.2l-.3,.1l-.3,.2h-.5l-.3,.1h-.6l-.3,.2H1018l-.3,-.2h-.8l-.3,-.1h-.3l-.3,-.2l-.3,-.1l-.3,-.2l-.3,-.1l-.3,-.2l-.2,-.2l-.3,-.3l-.3,-.1l-.2,-.2l-.3,-.3l-.1,-.3l-.2,-.1l-.1,-.3l-.3,-.3l-.2,-.3l-.1,-.3v-.4l-.2,-.3l-.1,-.3v-.3l-.2,-.3V601.1Zm0,-6.2v0Zm83.6,28.1v0Z" class="g6_5"/>
  <path fill-rule="evenodd" d="M1085,602.2v-.8l.2,-.1v-.2l.1,-.1v-.2l.2,-.1l.1,-.2v-.1h.2l.1,-.2l.2,-.1h.2l.1,-.2h.3l.2,-.2h1l.2,.2h.3l.1,.2h.2l.1,.1l.2,.2h.2v.1l.1,.2l.2,.1v.2l.1,.1v.2l.2,.1v1.4l-.2,.2v.1l-.1,.2v.1l-.2,.2v.1h-.1v.2h-.2l-.2,.1l-.1,.2h-.2v.1h-.3l-.1,.2h-.3l-.2,.1h-.1v-.1h-.6l-.2,-.2h-.4v-.1h-.2l-.2,-.2l-.1,-.1h-.2v-.2h-.1v-.1l-.2,-.2l-.1,-.1V603h-.2v-.8Z" class="g0_5"/>
  <path fill-rule="evenodd" d="M1078.9,602.2v-.3l.2,-.2v-.4l.1,-.2l.2,-.1v-.3h.1v-.2l.2,-.1h.1v-.2h.2l.1,-.1h.2l.1,-.2h.2l.2,-.2h1.2l.1,.2h.3v.2h.3v.1h.2l.1,.2l.2,.1l.1,.2v.1l.2,.2v.1h.2v.5h.1v.7l-.1,.2v.5l-.2,.1v.3h-.2v.2l-.1,.1l-.2,.2l-.1,.1h-.2v.2h-.1l-.2,.1h-.1l-.2,.2h-.3l-.1,.1h-.3v-.1h-.6l-.2,-.2h-.3l-.2,-.1l-.1,-.2h-.2v-.1h-.1l-.2,-.2l-.1,-.1v-.2l-.2,-.1v-.2l-.1,-.1v-.5l-.2,-.2v-.1Z" class="g7_5"/>
  <path fill-rule="evenodd" d="M1012,635.2v-1.1l.2,-.3v-.3l.1,-.3l.2,-.3v-.3l.1,-.3l.2,-.3l.1,-.3l.3,-.2l.2,-.3l.1,-.3l.3,-.1l.2,-.3l.3,-.2l.3,-.1l.2,-.4l.3,-.1l.3,-.2l.3,-.1l.3,-.2h.3l.3,-.1l.3,-.2h73.6l.3,.2l.3,.1h.3l.3,.2l.4,.1l.3,.2l.3,.1l.3,.4l.1,.1l.3,.2l.3,.3l.2,.1l.3,.3l.1,.3l.2,.2l.2,.3l.1,.3l.2,.3l.1,.3l.2,.3v.3l.1,.3v.3l.2,.3v16.8l-.2,.5v.3l-.1,.3v.3l-.2,.3l-.1,.3l-.2,.3l-.1,.3l-.2,.3l-.2,.2l-.1,.3l-.3,.3l-.2,.2l-.3,.3l-.1,.1l-.3,.2l-.3,.3l-.3,.1l-.3,.2l-.2,.1h-.3l-.3,.2l-.5,.1h-.3l-.1,.2h-1.1l-71,.1v-.1h-1.1l-.3,-.2h-.3l-.3,-.1l-.3,-.2h-.3l-.3,-.1l-.3,-.2l-.3,-.1l-.2,-.2l-.3,-.3l-.3,-.1l-.2,-.3l-.3,-.2l-.1,-.3l-.2,-.2l-.1,-.3l-.3,-.3l-.2,-.3l-.1,-.3v-.3l-.2,-.3l-.1,-.3V652l-.2,-.3V635.2Z" class="g3_5"/>
  <path d="M1012,635.2v0v-1.1l.2,-.3v-.3l.1,-.3l.2,-.3v-.3l.1,-.3l.2,-.3l.1,-.3l.3,-.2l.2,-.3l.1,-.3l.3,-.1l.2,-.3l.3,-.2l.3,-.1l.2,-.4l.3,-.1l.3,-.2l.3,-.1l.3,-.2h.3l.3,-.1l.3,-.2h73.6l.3,.2l.3,.1h.3l.3,.2l.4,.1l.3,.2l.3,.1l.3,.4l.1,.1l.3,.2l.3,.3l.2,.1l.3,.3l.1,.3l.2,.2l.2,.3l.1,.3l.2,.3l.1,.3l.2,.3v.3l.1,.3v.3l.2,.3v16.8l-.2,.5v.3l-.1,.3v.3l-.2,.3l-.1,.3l-.2,.3l-.1,.3l-.2,.3l-.2,.2l-.1,.3l-.3,.3l-.2,.2l-.3,.3l-.1,.1l-.3,.2l-.3,.3l-.3,.1l-.3,.2l-.2,.1h-.3l-.3,.2l-.5,.1h-.3l-.1,.2h-1.1l-71,.1v-.1h-1.1l-.3,-.2h-.3l-.3,-.1l-.3,-.2h-.3l-.3,-.1l-.3,-.2l-.3,-.1l-.2,-.2l-.3,-.3l-.3,-.1l-.2,-.3l-.3,-.2l-.1,-.3l-.2,-.2l-.1,-.3l-.3,-.3l-.2,-.3l-.1,-.3v-.3l-.2,-.3l-.1,-.3V652l-.2,-.3V635.2Zm0,-6.3v0Zm83.6,28.1v0Z" class="g4_5"/>
  <path fill-rule="evenodd" d="M1012,632.1v-1l.2,-.3v-.3l.1,-.3l.2,-.4v-.3l.1,-.3l.2,-.3l.1,-.3l.3,-.1l.2,-.3l.1,-.3l.3,-.3l.2,-.2l.3,-.2l.3,-.3l.2,-.1l.3,-.2l.3,-.1l.3,-.2l.3,-.1l.3,-.2h.3l.3,-.1h.8l.3,-.2h71.6l.3,.2h.6l.3,.1h.3l.3,.2l.3,.1l.4,.2l.3,.1l.3,.2l.3,.1l.1,.3l.3,.2l.3,.2l.2,.3l.3,.3l.1,.3l.2,.1l.2,.3l.1,.3l.2,.3l.1,.3l.2,.4v.3l.1,.3v.3l.2,.3v16.8l-.2,.4v.3l-.1,.3v.4l-.2,.3l-.1,.3l-.2,.3l-.1,.1l-.2,.3l-.2,.3l-.1,.3l-.3,.3l-.2,.2l-.3,.2l-.1,.3l-.3,.1l-.3,.2l-.3,.3l-.3,.1h-.2l-.3,.2l-.3,.1l-.5,.2h-.3l-.1,.1h-73.2l-.3,-.1h-.3l-.3,-.2l-.3,-.1h-.3l-.3,-.2l-.3,-.1l-.3,-.2l-.2,-.1l-.3,-.3l-.3,-.2l-.2,-.3l-.3,-.2l-.1,-.3l-.2,-.3l-.1,-.1l-.3,-.3l-.2,-.3l-.1,-.3v-.3l-.2,-.3l-.1,-.4v-.3l-.2,-.3V632.1Z" class="g5_5"/>
  <path d="M1012,632.1v0v-1l.2,-.3v-.3l.1,-.3l.2,-.4v-.3l.1,-.3l.2,-.3l.1,-.3l.3,-.1l.2,-.3l.1,-.3l.3,-.3l.2,-.2l.3,-.2l.3,-.3l.2,-.1l.3,-.2l.3,-.1l.3,-.2l.3,-.1l.3,-.2h.3l.3,-.1h.8l.3,-.2h71.6l.3,.2h.6l.3,.1h.3l.3,.2l.3,.1l.4,.2l.3,.1l.3,.2l.3,.1l.1,.3l.3,.2l.3,.2l.2,.3l.3,.3l.1,.3l.2,.1l.2,.3l.1,.3l.2,.3l.1,.3l.2,.4v.3l.1,.3v.3l.2,.3v16.8l-.2,.4v.3l-.1,.3v.4l-.2,.3l-.1,.3l-.2,.3l-.1,.1l-.2,.3l-.2,.3l-.1,.3l-.3,.3l-.2,.2l-.3,.2l-.1,.3l-.3,.1l-.3,.2l-.3,.3l-.3,.1h-.2l-.3,.2l-.3,.1l-.5,.2h-.3l-.1,.1h-73.2l-.3,-.1h-.3l-.3,-.2l-.3,-.1h-.3l-.3,-.2l-.3,-.1l-.3,-.2l-.2,-.1l-.3,-.3l-.3,-.2l-.2,-.3l-.3,-.2l-.1,-.3l-.2,-.3l-.1,-.1l-.3,-.3l-.2,-.3l-.1,-.3v-.3l-.2,-.3l-.1,-.4v-.3l-.2,-.3V632.1Zm0,-6.4v0Zm83.6,28.1v0Z" class="g6_5"/>
  <path fill-rule="evenodd" d="M1085,633.1v-.7l.2,-.1V632l.1,-.2l.2,-.1v-.2h.1v-.1l.2,-.2h.1l.2,-.1h.2v-.2h.3l.1,-.1h1.4l.1,.1h.3v.2h.2l.1,.1h.2l.2,.2v.1h.1v.2l.2,.1l.1,.2v.3l.2,.1v1.3l-.2,.1v.3h-.1v.3l-.2,.2l-.1,.1l-.2,.2l-.2,.1l-.1,.2h-.2v.1h-.4l-.2,.2h-1v-.2h-.5l-.1,-.1l-.2,-.2h-.2l-.1,-.1l-.2,-.2l-.1,-.1v-.2h-.2v-.1l-.1,-.2V634l-.2,-.2v-.7Z" class="g0_5"/>
  <path fill-rule="evenodd" d="M1078.9,633.1v-.2l.2,-.2v-.4l.1,-.2V632l.2,-.2v-.1l.1,-.2l.2,-.1l.1,-.2h.2l.1,-.1l.2,-.2h.1l.2,-.1h1.5l.2,.1h.1l.2,.2h.1v.1h.3v.2l.2,.1h.1v.3h.2v.2l.2,.1v.3l.1,.2v.8l-.1,.1v.5l-.2,.1v.2l-.2,.1v.2h-.1v.1h-.2v.2l-.1,.1h-.2v.2h-.1l-.2,.1h-.3l-.1,.2h-1.1l-.1,-.2h-.4l-.1,-.1h-.2V635h-.3v-.1l-.1,-.2h-.2v-.1l-.1,-.2v-.1l-.2,-.2l-.1,-.1v-.5l-.2,-.1v-.3Z" class="g7_5"/>
  <path fill-rule="evenodd" d="M1012,666.2v-1.1l.2,-.3v-.3l.1,-.3l.2,-.3v-.3l.1,-.3l.2,-.3l.1,-.3l.3,-.2l.2,-.3l.1,-.3l.3,-.3l.2,-.1l.3,-.2l.3,-.1l.2,-.3l.3,-.2l.3,-.1l.3,-.2l.3,-.2h.3l.3,-.1l.3,-.2h73.6l.3,.2l.3,.1h.3l.3,.2l.4,.2l.3,.1l.3,.2l.3,.3l.1,.1l.3,.2l.3,.1l.2,.3l.3,.3l.1,.3l.2,.2l.2,.3l.1,.3l.2,.3l.1,.3l.2,.3v.3l.1,.3v.3l.2,.3v34.4l-.2,.3v.3l-.1,.3v.3l-.2,.3l-.1,.4l-.2,.3l-.1,.3l-.2,.3l-.2,.3l-.1,.1l-.3,.3l-.2,.3l-.3,.2l-.1,.1l-.3,.3l-.3,.2l-.3,.2l-.3,.1l-.2,.2l-.3,.1l-.3,.2h-.5l-.3,.1h-.1l-.5,.2h-72.2l-.5,-.2h-.3l-.3,-.1h-.3l-.3,-.2l-.3,-.1l-.3,-.2l-.3,-.1l-.3,-.2l-.2,-.2l-.3,-.1l-.3,-.3l-.2,-.2l-.3,-.3l-.1,-.1l-.2,-.3l-.1,-.3l-.3,-.3l-.2,-.3l-.1,-.2v-.3l-.2,-.3l-.1,-.5v-.3l-.2,-.3V666.2Z" class="g3_5"/>
  <path d="M1012,666.2v0v-1.1l.2,-.3v-.3l.1,-.3l.2,-.3v-.3l.1,-.3l.2,-.3l.1,-.3l.3,-.2l.2,-.3l.1,-.3l.3,-.3l.2,-.1l.3,-.2l.3,-.1l.2,-.3l.3,-.2l.3,-.1l.3,-.2l.3,-.2h.3l.3,-.1l.3,-.2h73.6l.3,.2l.3,.1h.3l.3,.2l.4,.2l.3,.1l.3,.2l.3,.3l.1,.1l.3,.2l.3,.1l.2,.3l.3,.3l.1,.3l.2,.2l.2,.3l.1,.3l.2,.3l.1,.3l.2,.3v.3l.1,.3v.3l.2,.3v34.4l-.2,.3v.3l-.1,.3v.3l-.2,.3l-.1,.4l-.2,.3l-.1,.3l-.2,.3l-.2,.3l-.1,.1l-.3,.3l-.2,.3l-.3,.2l-.1,.1l-.3,.3l-.3,.2l-.3,.2l-.3,.1l-.2,.2l-.3,.1l-.3,.2h-.5l-.3,.1h-.1l-.5,.2h-72.2l-.5,-.2h-.3l-.3,-.1h-.3l-.3,-.2l-.3,-.1l-.3,-.2l-.3,-.1l-.3,-.2l-.2,-.2l-.3,-.1l-.3,-.3l-.2,-.2l-.3,-.3l-.1,-.1l-.2,-.3l-.1,-.3l-.3,-.3l-.2,-.3l-.1,-.2v-.3l-.2,-.3l-.1,-.5v-.3l-.2,-.3V666.2Zm0,-6.3v0Zm83.6,45.6v0Z" class="g4_5"/>
  <path fill-rule="evenodd" d="M1012,663.2v-1.1l.2,-.3v-.3l.1,-.3l.2,-.3v-.3l.1,-.4l.2,-.3l.1,-.3l.3,-.3l.2,-.1l.1,-.3l.3,-.3l.2,-.2l.3,-.1l.3,-.3l.2,-.2l.3,-.1l.3,-.2l.3,-.2l.3,-.1l.3,-.2h.3l.3,-.1h.8l.3,-.2h71.6l.3,.2h.6l.3,.1h.3l.3,.2l.3,.1l.4,.2l.3,.2l.3,.1l.3,.2l.1,.3l.3,.1l.3,.2l.2,.3l.3,.3l.1,.1l.2,.3l.2,.3l.1,.3l.2,.4l.1,.3l.2,.3v.3l.1,.3v.3l.2,.3v34.4l-.2,.3v.3l-.1,.3v.3l-.2,.3l-.1,.3l-.2,.3l-.1,.3l-.2,.3l-.2,.3l-.1,.2l-.3,.3l-.2,.1l-.3,.3l-.1,.2l-.3,.3l-.3,.1l-.3,.2l-.3,.2l-.2,.1l-.3,.2l-.3,.1h-.5l-.3,.2h-.6l-.3,.1H1018l-.3,-.1h-.8l-.3,-.2h-.3l-.3,-.1l-.3,-.2l-.3,-.1l-.3,-.2l-.3,-.2l-.2,-.1l-.3,-.2l-.3,-.3l-.2,-.1l-.3,-.3l-.1,-.2l-.2,-.3l-.1,-.3l-.3,-.3l-.2,-.3l-.1,-.2v-.3l-.2,-.3l-.1,-.4v-.3l-.2,-.3V663.2Z" class="g5_5"/>
  <path d="M1012,663.2v0v-1.1l.2,-.3v-.3l.1,-.3l.2,-.3v-.3l.1,-.4l.2,-.3l.1,-.3l.3,-.3l.2,-.1l.1,-.3l.3,-.3l.2,-.2l.3,-.1l.3,-.3l.2,-.2l.3,-.1l.3,-.2l.3,-.2l.3,-.1l.3,-.2h.3l.3,-.1h.8l.3,-.2h71.6l.3,.2h.6l.3,.1h.3l.3,.2l.3,.1l.4,.2l.3,.2l.3,.1l.3,.2l.1,.3l.3,.1l.3,.2l.2,.3l.3,.3l.1,.1l.2,.3l.2,.3l.1,.3l.2,.4l.1,.3l.2,.3v.3l.1,.3v.3l.2,.3v34.4l-.2,.3v.3l-.1,.3v.3l-.2,.3l-.1,.3l-.2,.3l-.1,.3l-.2,.3l-.2,.3l-.1,.2l-.3,.3l-.2,.1l-.3,.3l-.1,.2l-.3,.3l-.3,.1l-.3,.2l-.3,.2l-.2,.1l-.3,.2l-.3,.1h-.5l-.3,.2h-.6l-.3,.1H1018l-.3,-.1h-.8l-.3,-.2h-.3l-.3,-.1l-.3,-.2l-.3,-.1l-.3,-.2l-.3,-.2l-.2,-.1l-.3,-.2l-.3,-.3l-.2,-.1l-.3,-.3l-.1,-.2l-.2,-.3l-.1,-.3l-.3,-.3l-.2,-.3l-.1,-.2v-.3l-.2,-.3l-.1,-.4v-.3l-.2,-.3V663.2Zm0,-6.5v0Zm83.6,45.7v0Z" class="g6_5"/>
  <path d="M1020.4,696.2L1032.5,663m-5.1,32.1l12.3,-31.8m-5.1,32.9L1046.7,663" class="g8_5"/>
  <path fill-rule="evenodd" d="M1140.9,502.6h-121V412.4h242v90.2h-121Z" class="g3_5"/>
  <path fill-rule="evenodd" d="M1140.9,499.5h-121V409.4h242v90.1h-121Z" class="g9_5"/>
  <text x="1031" y="464" dx="0,0,-0.1,0,0,0,0,-0.1,0,0,-0.1,0,0,0,-0.1" class="s4_5" style="white-space: pre;">/CanDIG/Workflow</text>
  <text x="887" y="588" dx="0,-8.8,0,0.1" class="s5_5" style="white-space: pre;">Toil</text>
  <path fill-rule="evenodd" d="M1115,573.2v-1.3l.1,-.4v-.3l.2,-.3l.1,-.3l.2,-.3l.1,-.3l.2,-.2l.1,-.3l.3,-.3l.2,-.2l.2,-.3l.3,-.3l.3,-.1l.3,-.2l.1,-.1l.3,-.3h.3l.3,-.2l.3,-.1l.3,-.2l.4,-.1h.6l.3,-.2h72.4l.3,.2h.6l.3,.1l.3,.2l.3,.1l.3,.2h.3l.3,.3l.3,.1l.2,.2l.3,.1l.3,.3l.2,.3l.3,.2l.1,.3l.2,.3l.1,.3l.2,.2l.1,.3l.2,.3l.1,.3v.3l.2,.4v.7l.1,.3v16.2l-.1,.3v.6l-.2,.3v.3l-.1,.3l-.2,.3l-.1,.3l-.2,.3l-.1,.3l-.2,.3l-.1,.2l-.3,.3l-.2,.1l-.3,.3l-.1,.2l-.4,.3l-.3,.1l-.3,.2l-.3,.1l-.1,.2l-.3,.2l-.3,.1h-.5l-.3,.2h-.6l-.3,.1h-71.8l-.3,-.1h-.6l-.3,-.2h-.4l-.3,-.1l-.3,-.2l-.3,-.2l-.3,-.1l-.3,-.2l-.1,-.1l-.3,-.2l-.3,-.3l-.2,-.1l-.3,-.3l-.2,-.2l-.3,-.3l-.1,-.3l-.2,-.3l-.1,-.3l-.2,-.2l-.1,-.3l-.2,-.3v-.4l-.1,-.3V573.2Z" class="g3_5"/>
  <path d="M1115,573.2v0v-1.3l.1,-.4v-.3l.2,-.3l.1,-.3l.2,-.3l.1,-.3l.2,-.2l.1,-.3l.3,-.3l.2,-.2l.2,-.3l.3,-.3l.3,-.1l.3,-.2l.1,-.1l.3,-.3h.3l.3,-.2l.3,-.1l.3,-.2l.4,-.1h.6l.3,-.2h72.4l.3,.2h.6l.3,.1l.3,.2l.3,.1l.3,.2h.3l.3,.3l.3,.1l.2,.2l.3,.1l.3,.3l.2,.3l.3,.2l.1,.3l.2,.3l.1,.3l.2,.2l.1,.3l.2,.3l.1,.3v.3l.2,.4v.7l.1,.3v16.2l-.1,.3v.6l-.2,.3v.3l-.1,.3l-.2,.3l-.1,.3l-.2,.3l-.1,.3l-.2,.3l-.1,.2l-.3,.3l-.2,.1l-.3,.3l-.1,.2l-.4,.3l-.3,.1l-.3,.2l-.3,.1l-.1,.2l-.3,.2l-.3,.1h-.5l-.3,.2h-.6l-.3,.1h-71.8l-.3,-.1h-.6l-.3,-.2h-.4l-.3,-.1l-.3,-.2l-.3,-.2l-.3,-.1l-.3,-.2l-.1,-.1l-.3,-.2l-.3,-.3l-.2,-.1l-.3,-.3l-.2,-.2l-.3,-.3l-.1,-.3l-.2,-.3l-.1,-.3l-.2,-.2l-.1,-.3l-.2,-.3v-.4l-.1,-.3V573.2Zm0,-6.3v0Zm83.5,28.1v0Z" class="g4_5"/>
  <path fill-rule="evenodd" d="M1115,570.1v-1.4l.1,-.3v-.3l.2,-.3l.1,-.3l.2,-.3l.1,-.3l.2,-.2l.1,-.3l.3,-.3l.2,-.3l.2,-.1l.3,-.3l.3,-.2l.3,-.1l.1,-.3l.3,-.2l.3,-.1h.3l.3,-.2l.3,-.1l.4,-.2h.3l.3,-.2h73l.3,.2h.3l.3,.2l.3,.1l.3,.2h.3l.3,.1l.3,.2l.3,.3l.2,.1l.3,.2l.3,.3l.2,.1l.3,.3l.1,.3l.2,.3l.1,.4l.2,.1l.1,.3l.2,.3l.1,.3v.3l.2,.3v.8l.1,.3V586l-.1,.3v.6l-.2,.3v.3l-.1,.3l-.2,.3l-.1,.3l-.2,.3l-.1,.4l-.2,.3l-.1,.1l-.3,.3l-.2,.2l-.3,.3l-.1,.1l-.4,.3l-.3,.2l-.3,.1l-.3,.2l-.1,.1l-.3,.2l-.3,.2h-.5l-.3,.1h-.6l-.3,.2h-71.8l-.3,-.2h-.6l-.3,-.1h-.4l-.3,-.2l-.3,-.2l-.3,-.1l-.3,-.2l-.3,-.1l-.1,-.2l-.3,-.3l-.3,-.1l-.2,-.2l-.3,-.3l-.2,-.1l-.3,-.3l-.1,-.3l-.2,-.4l-.1,-.3l-.2,-.3l-.1,-.3l-.2,-.3v-.3l-.1,-.3V570.1Z" class="g5_5"/>
  <path d="M1115,570.1v0v-1.4l.1,-.3v-.3l.2,-.3l.1,-.3l.2,-.3l.1,-.3l.2,-.2l.1,-.3l.3,-.3l.2,-.3l.2,-.1l.3,-.3l.3,-.2l.3,-.1l.1,-.3l.3,-.2l.3,-.1h.3l.3,-.2l.3,-.1l.4,-.2h.3l.3,-.2h73l.3,.2h.3l.3,.2l.3,.1l.3,.2h.3l.3,.1l.3,.2l.3,.3l.2,.1l.3,.2l.3,.3l.2,.1l.3,.3l.1,.3l.2,.3l.1,.4l.2,.1l.1,.3l.2,.3l.1,.3v.3l.2,.3v.8l.1,.3V586l-.1,.3v.6l-.2,.3v.3l-.1,.3l-.2,.3l-.1,.3l-.2,.3l-.1,.4l-.2,.3l-.1,.1l-.3,.3l-.2,.2l-.3,.3l-.1,.1l-.4,.3l-.3,.2l-.3,.1l-.3,.2l-.1,.1l-.3,.2l-.3,.2h-.5l-.3,.1h-.6l-.3,.2h-71.8l-.3,-.2h-.6l-.3,-.1h-.4l-.3,-.2l-.3,-.2l-.3,-.1l-.3,-.2l-.3,-.1l-.1,-.2l-.3,-.3l-.3,-.1l-.2,-.2l-.3,-.3l-.2,-.1l-.3,-.3l-.1,-.3l-.2,-.4l-.1,-.3l-.2,-.3l-.1,-.3l-.2,-.3v-.3l-.1,-.3V570.1Zm0,-6.3v0Zm83.5,28.2v0Z" class="g6_5"/>
  <path fill-rule="evenodd" d="M1187.8,571.2v-.3l.2,-.2v-.3l.2,-.1v-.2l.1,-.1v-.2l.2,-.1v-.2l.1,-.2h.2v-.1h.1l.2,-.2h.1l.2,-.1h.1l.2,-.2h1.2l.2,.2h.3v.1h.3l.1,.2l.2,.1h.1v.2l.2,.2l.1,.1v.3h.2v.3l.1,.2v1l-.1,.2v.1l-.2,.2v.3h-.1v.2l-.2,.1l-.1,.2l-.2,.1l-.1,.2h-.2l-.1,.1l-.2,.2h-.4l-.2,.1h-.3v-.1h-.8v-.2h-.3l-.1,-.1h-.2l-.1,-.2v-.1h-.2v-.2h-.1v-.1l-.2,-.2l-.1,-.2v-.3h-.2v-.4l-.2,-.2v-.1Z" class="g0_5"/>
  <path fill-rule="evenodd" d="M1181.9,571.2v-.3l.1,-.2v-.4l.2,-.2l.1,-.1v-.3h.2v-.2l.2,-.2h.1v-.1h.2l.1,-.2h.2l.1,-.1h.2l.1,-.2h1.2l.2,.2h.3v.1h.3l.2,.2l.1,.1h.2v.2l.1,.2l.2,.1v.3h.1v.5h.2v.7l-.2,.2v.4l-.1,.2v.3h-.2v.2l-.1,.1l-.2,.2l-.1,.1l-.2,.2h-.1l-.2,.1h-.2v.2h-.4l-.2,.1h-.3v-.1h-.7v-.2h-.3l-.2,-.1h-.1l-.2,-.2v-.1h-.1v-.2h-.2l-.2,-.1v-.2l-.1,-.2v-.1l-.2,-.2v-.4l-.1,-.2v-.1Z" class="g7_5"/>
  <path fill-rule="evenodd" d="M1115.4,604.2v-.6l.2,-.3V603l.1,-.5v-.3l.2,-.3l.1,-.3l.2,-.3l.1,-.3l.2,-.2l.2,-.3l.1,-.3l.3,-.1l.2,-.4l.3,-.3l.3,-.1l.1,-.2l.3,-.3l.3,-.1l.3,-.2h.3l.4,-.1l.3,-.2l.3,-.1h.6l.3,-.2h72.2l.5,.2h.6l.3,.1l.3,.2l.3,.1h.3l.3,.2l.4,.1l.1,.3l.3,.2l.3,.1l.2,.3l.3,.4l.1,.1l.2,.3l.3,.3l.1,.3l.2,.2l.1,.3v.3l.2,.3l.1,.3v.5l.2,.3v.9l.2,15.6h-.2v.9l-.2,.3v.3l-.1,.3l-.2,.3v.3l-.1,.3l-.2,.3l-.1,.3l-.2,.3l-.3,.2l-.1,.3l-.3,.1l-.2,.3l-.3,.2l-.1,.3l-.3,.2l-.4,.1l-.3,.2l-.3,.1l-.3,.2l-.3,.1h-.3l-.3,.2h-.6l-.3,.1h-71.8l-.3,-.1h-.6l-.3,-.2h-.3l-.3,-.1l-.4,-.2l-.3,-.1l-.3,-.2l-.3,-.1l-.3,-.2l-.1,-.1l-.3,-.4l-.3,-.1l-.2,-.3l-.1,-.2l-.3,-.3l-.2,-.3l-.2,-.3l-.1,-.3l-.2,-.1l-.1,-.3l-.2,-.4v-.4l-.1,-.3v-.3l-.2,-.3V604.2Z" class="g3_5"/>
  <path d="M1115.4,604.2v0v-.6l.2,-.3V603l.1,-.5v-.3l.2,-.3l.1,-.3l.2,-.3l.1,-.3l.2,-.2l.2,-.3l.1,-.3l.3,-.1l.2,-.4l.3,-.3l.3,-.1l.1,-.2l.3,-.3l.3,-.1l.3,-.2h.3l.4,-.1l.3,-.2l.3,-.1h.6l.3,-.2h72.2l.5,.2h.6l.3,.1l.3,.2l.3,.1h.3l.3,.2l.4,.1l.1,.3l.3,.2l.3,.1l.2,.3l.3,.4l.1,.1l.2,.3l.3,.3l.1,.3l.2,.2l.1,.3v.3l.2,.3l.1,.3v.5l.2,.3v.9l.2,15.6h-.2v.9l-.2,.3v.3l-.1,.3l-.2,.3v.3l-.1,.3l-.2,.3l-.1,.3l-.2,.3l-.3,.2l-.1,.3l-.3,.1l-.2,.3l-.3,.2l-.1,.3l-.3,.2l-.4,.1l-.3,.2l-.3,.1l-.3,.2l-.3,.1h-.3l-.3,.2h-.6l-.3,.1h-71.8l-.3,-.1h-.6l-.3,-.2h-.3l-.3,-.1l-.4,-.2l-.3,-.1l-.3,-.2l-.3,-.1l-.3,-.2l-.1,-.1l-.3,-.4l-.3,-.1l-.2,-.3l-.1,-.2l-.3,-.3l-.2,-.3l-.2,-.3l-.1,-.3l-.2,-.1l-.1,-.3l-.2,-.4v-.4l-.1,-.3v-.3l-.2,-.3V604.2Zm0,-6.3v0Zm83.8,28.1v0Z" class="g4_5"/>
  <path fill-rule="evenodd" d="M1115.4,601.1v-.6l.2,-.4v-.4l.1,-.3v-.3l.2,-.3l.1,-.3l.2,-.3l.1,-.3l.2,-.1l.2,-.3l.1,-.3l.3,-.4l.2,-.1l.3,-.3l.3,-.2l.1,-.1l.3,-.3l.3,-.2l.3,-.1h.3l.4,-.2l.3,-.1l.3,-.2h.3l.3,-.1h73l.3,.1h.3l.3,.2l.3,.1l.3,.2h.3l.3,.1l.4,.2l.1,.3l.3,.1l.3,.2l.2,.3l.3,.1l.1,.4l.2,.3l.3,.3l.1,.3l.2,.1l.1,.3v.3l.2,.3l.1,.3v.3l.2,.4v1l.2,15.5h-.2v1l-.2,.3v.3l-.1,.3l-.2,.3v.4l-.1,.3l-.2,.3l-.1,.3l-.2,.1l-.3,.3l-.1,.3l-.3,.2l-.2,.3l-.3,.1l-.1,.3l-.3,.2l-.4,.2l-.3,.1l-.3,.2l-.3,.1l-.3,.2h-.3l-.3,.1h-.6l-.3,.2h-71.8l-.3,-.2h-.6l-.3,-.1h-.3l-.3,-.2l-.4,-.1l-.3,-.2l-.3,-.1l-.3,-.2l-.3,-.2l-.1,-.3l-.3,-.1l-.3,-.2l-.2,-.3l-.1,-.3l-.3,-.1l-.2,-.3l-.2,-.3l-.1,-.3l-.2,-.3l-.1,-.4l-.2,-.3v-.3l-.1,-.3v-.3l-.2,-.3V601.1Z" class="g5_5"/>
  <path d="M1115.4,601.1v0v-.6l.2,-.4v-.4l.1,-.3v-.3l.2,-.3l.1,-.3l.2,-.3l.1,-.3l.2,-.1l.2,-.3l.1,-.3l.3,-.4l.2,-.1l.3,-.3l.3,-.2l.1,-.1l.3,-.3l.3,-.2l.3,-.1h.3l.4,-.2l.3,-.1l.3,-.2h.3l.3,-.1h73l.3,.1h.3l.3,.2l.3,.1l.3,.2h.3l.3,.1l.4,.2l.1,.3l.3,.1l.3,.2l.2,.3l.3,.1l.1,.4l.2,.3l.3,.3l.1,.3l.2,.1l.1,.3v.3l.2,.3l.1,.3v.3l.2,.4v1l.2,15.5h-.2v1l-.2,.3v.3l-.1,.3l-.2,.3v.4l-.1,.3l-.2,.3l-.1,.3l-.2,.1l-.3,.3l-.1,.3l-.3,.2l-.2,.3l-.3,.1l-.1,.3l-.3,.2l-.4,.2l-.3,.1l-.3,.2l-.3,.1l-.3,.2h-.3l-.3,.1h-.6l-.3,.2h-71.8l-.3,-.2h-.6l-.3,-.1h-.3l-.3,-.2l-.4,-.1l-.3,-.2l-.3,-.1l-.3,-.2l-.3,-.2l-.1,-.3l-.3,-.1l-.3,-.2l-.2,-.3l-.1,-.3l-.3,-.1l-.2,-.3l-.2,-.3l-.1,-.3l-.2,-.3l-.1,-.4l-.2,-.3v-.3l-.1,-.3v-.3l-.2,-.3V601.1Zm0,-6.2v0Zm83.8,28.1v0Z" class="g6_5"/>
  <path fill-rule="evenodd" d="M1188.5,602.2v-.6h.1v-.3l.2,-.2V601l.1,-.2v-.1h.2v-.2l.1,-.1h.2v-.2h.1v-.1h.3v-.2h.3l.2,-.2h1.2l.2,.2h.3v.2h.1l.2,.1h.1v.2h.2l.1,.1v.2h.2v.1l.1,.2v.1l.2,.2v.3h.1v.7l-.1,.2v.5h-.2v.4h-.1v.2l-.2,.1l-.1,.2h-.2v.1h-.1l-.2,.2l-.1,.1h-.2l-.1,.2h-.3l-.2,.1h-.3v-.1h-.6l-.2,-.2h-.3l-.1,-.1h-.2V604h-.1v-.1h-.2l-.1,-.2l-.2,-.1v-.2h-.1v-.3l-.2,-.1v-.2l-.1,-.1v-.5Z" class="g0_5"/>
  <path fill-rule="evenodd" d="M1182.5,602.2v-.6h.2v-.5h.1V601l.2,-.2v-.1l.1,-.2l.2,-.1l.1,-.2h.2v-.1h.3v-.2h.3l.1,-.2h1.3l.1,.2h.2l.1,.2h.2l.1,.1h.2v.2h.1l.2,.1v.2h.1v.3l.2,.1l.1,.2v.4l.2,.2v.3h-.2v.8h-.1v.3l-.2,.1v.2l-.1,.1h-.2v.2h-.1v.1h-.2l-.1,.2l-.2,.1h-.1l-.2,.2h-.5v.1h-.3v-.1h-.6l-.1,-.2h-.3l-.2,-.1h-.1V604h-.2l-.1,-.1l-.2,-.2l-.1,-.1v-.2h-.2v-.1l-.1,-.2v-.3l-.2,-.1v-.5Z" class="g7_5"/>
  <path fill-rule="evenodd" d="M1115.4,635.2v-.8l.2,-.3v-.3l.1,-.3v-.3l.2,-.3l.1,-.3l.2,-.3l.1,-.3l.2,-.3l.2,-.2l.1,-.3l.3,-.3l.2,-.1l.3,-.3l.3,-.2l.1,-.1l.3,-.4l.3,-.1l.3,-.2l.3,-.1l.4,-.2h.3l.3,-.1l.3,-.2h73.6l.3,.2l.3,.1h.3l.3,.2l.3,.1l.3,.2l.4,.1l.1,.4l.3,.1l.3,.2l.2,.3l.3,.1l.1,.3l.2,.3l.3,.2l.1,.3l.2,.3l.1,.3v.3l.2,.3l.1,.3v.3l.2,.3v1.1l.2,15.4h-.2v1.1l-.2,.3v.3l-.1,.3l-.2,.3v.3l-.1,.3l-.2,.3l-.1,.3l-.2,.2l-.3,.3l-.1,.3l-.3,.2l-.2,.3l-.3,.1l-.1,.2l-.3,.3l-.4,.1l-.3,.2l-.3,.1h-.3l-.3,.2l-.3,.1h-.3l-.3,.2h-1.1l-71,.1v-.1h-.9l-.3,-.2h-.3l-.3,-.1l-.3,-.2h-.4l-.3,-.1l-.3,-.2l-.3,-.1l-.3,-.2l-.1,-.3l-.3,-.1l-.3,-.3l-.2,-.2l-.1,-.3l-.3,-.2l-.2,-.3l-.2,-.3l-.1,-.3l-.2,-.3l-.1,-.3l-.2,-.3v-.3l-.1,-.3v-.3l-.2,-.3V635.2Z" class="g3_5"/>
  <path d="M1115.4,635.2v0v-.8l.2,-.3v-.3l.1,-.3v-.3l.2,-.3l.1,-.3l.2,-.3l.1,-.3l.2,-.3l.2,-.2l.1,-.3l.3,-.3l.2,-.1l.3,-.3l.3,-.2l.1,-.1l.3,-.4l.3,-.1l.3,-.2l.3,-.1l.4,-.2h.3l.3,-.1l.3,-.2h73.6l.3,.2l.3,.1h.3l.3,.2l.3,.1l.3,.2l.4,.1l.1,.4l.3,.1l.3,.2l.2,.3l.3,.1l.1,.3l.2,.3l.3,.2l.1,.3l.2,.3l.1,.3v.3l.2,.3l.1,.3v.3l.2,.3v1.1l.2,15.4h-.2v1.1l-.2,.3v.3l-.1,.3l-.2,.3v.3l-.1,.3l-.2,.3l-.1,.3l-.2,.2l-.3,.3l-.1,.3l-.3,.2l-.2,.3l-.3,.1l-.1,.2l-.3,.3l-.4,.1l-.3,.2l-.3,.1h-.3l-.3,.2l-.3,.1h-.3l-.3,.2h-1.1l-71,.1v-.1h-.9l-.3,-.2h-.3l-.3,-.1l-.3,-.2h-.4l-.3,-.1l-.3,-.2l-.3,-.1l-.3,-.2l-.1,-.3l-.3,-.1l-.3,-.3l-.2,-.2l-.1,-.3l-.3,-.2l-.2,-.3l-.2,-.3l-.1,-.3l-.2,-.3l-.1,-.3l-.2,-.3v-.3l-.1,-.3v-.3l-.2,-.3V635.2Zm0,-6.3v0Zm83.8,28.1v0Z" class="g4_5"/>
  <path fill-rule="evenodd" d="M1115.4,632.1v-.7l.2,-.3v-.3l.1,-.3v-.3l.2,-.4l.1,-.3l.2,-.3l.1,-.3l.2,-.3l.2,-.1l.1,-.3l.3,-.3l.2,-.3l.3,-.2l.3,-.2l.1,-.3l.3,-.1l.3,-.2l.3,-.1l.3,-.2l.4,-.1l.3,-.2h.3l.3,-.1h.6l.3,-.2H1193l.3,.2h.8l.3,.1h.3l.3,.2l.3,.1l.3,.2l.3,.1l.4,.2l.1,.1l.3,.3l.3,.2l.2,.2l.3,.3l.1,.3l.2,.3l.3,.1l.1,.3l.2,.3l.1,.3v.3l.2,.4l.1,.3v.3l.2,.3v1l.2,15.5h-.2v1l-.2,.3v.3l-.1,.4l-.2,.3v.3l-.1,.3l-.2,.1l-.1,.3l-.2,.3l-.3,.3l-.1,.3l-.3,.2l-.2,.2l-.3,.3l-.1,.1l-.3,.2l-.4,.3l-.3,.1h-.3l-.3,.2l-.3,.1l-.3,.2h-.3l-.3,.1h-73l-.3,-.1h-.3l-.3,-.2l-.3,-.1h-.4l-.3,-.2l-.3,-.1l-.3,-.2l-.3,-.1l-.1,-.3l-.3,-.2l-.3,-.3l-.2,-.2l-.1,-.3l-.3,-.3l-.2,-.1l-.2,-.3l-.1,-.3l-.2,-.3l-.1,-.3l-.2,-.3v-.4l-.1,-.3v-.3l-.2,-.3V632.1Z" class="g5_5"/>
  <path d="M1115.4,632.1v0v-.7l.2,-.3v-.3l.1,-.3v-.3l.2,-.4l.1,-.3l.2,-.3l.1,-.3l.2,-.3l.2,-.1l.1,-.3l.3,-.3l.2,-.3l.3,-.2l.3,-.2l.1,-.3l.3,-.1l.3,-.2l.3,-.1l.3,-.2l.4,-.1l.3,-.2h.3l.3,-.1h.6l.3,-.2H1193l.3,.2h.8l.3,.1h.3l.3,.2l.3,.1l.3,.2l.3,.1l.4,.2l.1,.1l.3,.3l.3,.2l.2,.2l.3,.3l.1,.3l.2,.3l.3,.1l.1,.3l.2,.3l.1,.3v.3l.2,.4l.1,.3v.3l.2,.3v1l.2,15.5h-.2v1l-.2,.3v.3l-.1,.4l-.2,.3v.3l-.1,.3l-.2,.1l-.1,.3l-.2,.3l-.3,.3l-.1,.3l-.3,.2l-.2,.2l-.3,.3l-.1,.1l-.3,.2l-.4,.3l-.3,.1h-.3l-.3,.2l-.3,.1l-.3,.2h-.3l-.3,.1h-73l-.3,-.1h-.3l-.3,-.2l-.3,-.1h-.4l-.3,-.2l-.3,-.1l-.3,-.2l-.3,-.1l-.1,-.3l-.3,-.2l-.3,-.3l-.2,-.2l-.1,-.3l-.3,-.3l-.2,-.1l-.2,-.3l-.1,-.3l-.2,-.3l-.1,-.3l-.2,-.3v-.4l-.1,-.3v-.3l-.2,-.3V632.1Zm0,-6.4v0Zm83.8,28.1v0Z" class="g6_5"/>
  <path fill-rule="evenodd" d="M1188.5,633.1v-.5l.1,-.2v-.1l.2,-.2v-.3h.1v-.1l.2,-.2l.1,-.1l.2,-.2h.1v-.1h.2l.1,-.2h.2l.1,-.1h1.6l.1,.1h.2l.1,.2l.2,.1h.1l.2,.2l.1,.1l.2,.2v.1h.1v.3l.2,.2v.1l.1,.2v.8l-.1,.1v.3l-.2,.2v.3l-.1,.1v.2h-.2v.1h-.1l-.2,.2v.1h-.1l-.2,.2l-.1,.1h-.3l-.2,.2h-1.1l-.1,-.2h-.5v-.1h-.1l-.2,-.2h-.1v-.1l-.2,-.2h-.1v-.1l-.2,-.2l-.1,-.1v-.2l-.2,-.1v-.3h-.1v-.6Z" class="g0_5"/>
  <path fill-rule="evenodd" d="M1182.5,633.1v-.5l.2,-.2v-.3l.1,-.1v-.2h.2v-.3h.1l.2,-.1v-.2h.3v-.1h.1l.2,-.2h.1l.2,-.1h1.5l.2,.1h.1l.2,.2l.1,.1h.2l.1,.2l.2,.1l.1,.2v.1l.2,.2v.1l.1,.2v.4l.2,.2v.2h-.2v.7l-.1,.2v.1l-.2,.2v.3h-.1l-.2,.1l-.1,.2v.1h-.2l-.1,.2l-.2,.1h-.3l-.1,.2h-1.3v-.2h-.4v-.1h-.2l-.1,-.2h-.2l-.1,-.1v-.2h-.2v-.1l-.1,-.2l-.2,-.1v-.2h-.1v-.4h-.2v-.6Z" class="g7_5"/>
  <path fill-rule="evenodd" d="M1115.4,666.2v-.8l.2,-.3v-.3l.1,-.3v-.3l.2,-.3l.1,-.3l.2,-.3l.1,-.3l.2,-.3l.2,-.2l.1,-.3l.3,-.3l.2,-.3l.3,-.1l.3,-.2l.1,-.1l.3,-.3l.3,-.2l.3,-.1l.3,-.2l.4,-.2h.3l.3,-.1l.3,-.2h73.6l.3,.2l.3,.1h.3l.3,.2l.3,.2l.3,.1l.4,.2l.1,.3l.3,.1l.3,.2l.2,.1l.3,.3l.1,.3l.2,.3l.3,.2l.1,.3l.2,.3l.1,.3v.3l.2,.3l.1,.3v.3l.2,.3v1.1l.2,33h-.2v.9l-.2,.3v.3l-.1,.3l-.2,.3v.4l-.1,.3l-.2,.3l-.1,.3l-.2,.3l-.3,.1l-.1,.3l-.3,.3l-.2,.2l-.3,.1l-.1,.3l-.3,.2l-.4,.2l-.3,.1l-.3,.2l-.3,.1l-.3,.2h-.3l-.3,.1h-.3l-.3,.2h-72.4l-.3,-.2h-.3l-.3,-.1h-.3l-.3,-.2l-.4,-.1l-.3,-.2l-.3,-.1l-.3,-.2l-.3,-.2l-.1,-.1l-.3,-.3l-.3,-.2l-.2,-.3l-.1,-.1l-.3,-.3l-.2,-.3l-.2,-.3l-.1,-.3l-.2,-.2l-.1,-.3l-.2,-.3v-.5l-.1,-.3v-.3l-.2,-.3V666.2Z" class="g3_5"/>
  <path d="M1115.4,666.2v0v-.8l.2,-.3v-.3l.1,-.3v-.3l.2,-.3l.1,-.3l.2,-.3l.1,-.3l.2,-.3l.2,-.2l.1,-.3l.3,-.3l.2,-.3l.3,-.1l.3,-.2l.1,-.1l.3,-.3l.3,-.2l.3,-.1l.3,-.2l.4,-.2h.3l.3,-.1l.3,-.2h73.6l.3,.2l.3,.1h.3l.3,.2l.3,.2l.3,.1l.4,.2l.1,.3l.3,.1l.3,.2l.2,.1l.3,.3l.1,.3l.2,.3l.3,.2l.1,.3l.2,.3l.1,.3v.3l.2,.3l.1,.3v.3l.2,.3v1.1l.2,33h-.2v.9l-.2,.3v.3l-.1,.3l-.2,.3v.4l-.1,.3l-.2,.3l-.1,.3l-.2,.3l-.3,.1l-.1,.3l-.3,.3l-.2,.2l-.3,.1l-.1,.3l-.3,.2l-.4,.2l-.3,.1l-.3,.2l-.3,.1l-.3,.2h-.3l-.3,.1h-.3l-.3,.2h-72.4l-.3,-.2h-.3l-.3,-.1h-.3l-.3,-.2l-.4,-.1l-.3,-.2l-.3,-.1l-.3,-.2l-.3,-.2l-.1,-.1l-.3,-.3l-.3,-.2l-.2,-.3l-.1,-.1l-.3,-.3l-.2,-.3l-.2,-.3l-.1,-.3l-.2,-.2l-.1,-.3l-.2,-.3v-.5l-.1,-.3v-.3l-.2,-.3V666.2Zm0,-6.3v0Zm83.8,45.6v0Z" class="g4_5"/>
  <path fill-rule="evenodd" d="M1115.4,663.2v-.8l.2,-.3v-.3l.1,-.3v-.3l.2,-.3l.1,-.3l.2,-.4l.1,-.3l.2,-.3l.2,-.3l.1,-.1l.3,-.3l.2,-.3l.3,-.2l.3,-.1l.1,-.3l.3,-.2l.3,-.1l.3,-.2l.3,-.2l.4,-.1l.3,-.2h.3l.3,-.1h.6l.3,-.2H1193l.3,.2h.8l.3,.1h.3l.3,.2l.3,.1l.3,.2l.3,.2l.4,.1l.1,.2l.3,.3l.3,.1l.2,.2l.3,.3l.1,.3l.2,.1l.3,.3l.1,.3l.2,.3l.1,.4v.3l.2,.3l.1,.3v.3l.2,.3v1.1l.2,33h-.2v.9l-.2,.3v.3l-.1,.3l-.2,.3v.3l-.1,.3l-.2,.3l-.1,.3l-.2,.3l-.3,.2l-.1,.3l-.3,.1l-.2,.3l-.3,.2l-.1,.3l-.3,.1l-.4,.2l-.3,.2l-.3,.1l-.3,.2l-.3,.1h-.3l-.3,.2h-.6l-.3,.1h-71.8l-.3,-.1h-.6l-.3,-.2h-.3l-.3,-.1l-.4,-.2l-.3,-.1l-.3,-.2l-.3,-.2l-.3,-.1l-.1,-.2l-.3,-.3l-.3,-.1l-.2,-.3l-.1,-.2l-.3,-.3l-.2,-.3l-.2,-.3l-.1,-.3l-.2,-.2l-.1,-.3l-.2,-.3v-.4l-.1,-.3v-.3l-.2,-.3V663.2Z" class="g5_5"/>
  <path d="M1115.4,663.2v0v-.8l.2,-.3v-.3l.1,-.3v-.3l.2,-.3l.1,-.3l.2,-.4l.1,-.3l.2,-.3l.2,-.3l.1,-.1l.3,-.3l.2,-.3l.3,-.2l.3,-.1l.1,-.3l.3,-.2l.3,-.1l.3,-.2l.3,-.2l.4,-.1l.3,-.2h.3l.3,-.1h.6l.3,-.2H1193l.3,.2h.8l.3,.1h.3l.3,.2l.3,.1l.3,.2l.3,.2l.4,.1l.1,.2l.3,.3l.3,.1l.2,.2l.3,.3l.1,.3l.2,.1l.3,.3l.1,.3l.2,.3l.1,.4v.3l.2,.3l.1,.3v.3l.2,.3v1.1l.2,33h-.2v.9l-.2,.3v.3l-.1,.3l-.2,.3v.3l-.1,.3l-.2,.3l-.1,.3l-.2,.3l-.3,.2l-.1,.3l-.3,.1l-.2,.3l-.3,.2l-.1,.3l-.3,.1l-.4,.2l-.3,.2l-.3,.1l-.3,.2l-.3,.1h-.3l-.3,.2h-.6l-.3,.1h-71.8l-.3,-.1h-.6l-.3,-.2h-.3l-.3,-.1l-.4,-.2l-.3,-.1l-.3,-.2l-.3,-.2l-.3,-.1l-.1,-.2l-.3,-.3l-.3,-.1l-.2,-.3l-.1,-.2l-.3,-.3l-.2,-.3l-.2,-.3l-.1,-.3l-.2,-.2l-.1,-.3l-.2,-.3v-.4l-.1,-.3v-.3l-.2,-.3V663.2Zm0,-6.5v0Zm83.8,45.7v0Z" class="g6_5"/>
  <path d="M1124,696.2L1136.1,663m-5.1,32.1l12.1,-31.8m-5.1,32.9L1150.3,663" class="g8_5"/>
  <path fill-rule="evenodd" d="M1218.4,573.2v-.6l.2,-.4v-.7l.1,-.3l.2,-.3l.1,-.3l.2,-.3V570l.3,-.2l.1,-.3l.2,-.3l.1,-.2l.3,-.3l.3,-.3l.2,-.1l.3,-.2l.3,-.1l.3,-.3h.2l.3,-.2l.3,-.1l.3,-.2l.3,-.1h.8l.3,-.2h72.2l.3,.2h.8l.3,.1l.3,.2l.3,.1l.3,.2h.3l.2,.3l.3,.1l.3,.2l.1,.1l.3,.3l.3,.3l.2,.2l.2,.3l.3,.3l.1,.3l.2,.2v.3l.1,.3l.2,.3l.1,.3v.4l.2,.3v17.5l-.2,.3v.3l-.1,.3l-.2,.3v.3l-.1,.3l-.2,.3l-.1,.3l-.3,.3l-.2,.2l-.2,.3l-.3,.1l-.3,.3l-.1,.2l-.3,.3l-.2,.1l-.3,.2l-.3,.1l-.3,.2l-.3,.2l-.3,.1h-.3l-.3,.2h-.6l-.3,.1h-71.8l-.3,-.1h-.7l-.3,-.2h-.4l-.3,-.1l-.3,-.2l-.3,-.2l-.2,-.1l-.3,-.2l-.3,-.1l-.3,-.2l-.2,-.3l-.3,-.1l-.1,-.3l-.3,-.2l-.2,-.3l-.1,-.3l-.2,-.3l-.1,-.3l-.2,-.2l-.1,-.3l-.2,-.3l-.1,-.4v-.6l-.2,-.3V573.2Z" class="g3_5"/>
  <path d="M1218.4,573.2v0v-.6l.2,-.4v-.7l.1,-.3l.2,-.3l.1,-.3l.2,-.3V570l.3,-.2l.1,-.3l.2,-.3l.1,-.2l.3,-.3l.3,-.3l.2,-.1l.3,-.2l.3,-.1l.3,-.3h.2l.3,-.2l.3,-.1l.3,-.2l.3,-.1h.8l.3,-.2h72.2l.3,.2h.8l.3,.1l.3,.2l.3,.1l.3,.2h.3l.2,.3l.3,.1l.3,.2l.1,.1l.3,.3l.3,.3l.2,.2l.2,.3l.3,.3l.1,.3l.2,.2v.3l.1,.3l.2,.3l.1,.3v.4l.2,.3v17.5l-.2,.3v.3l-.1,.3l-.2,.3v.3l-.1,.3l-.2,.3l-.1,.3l-.3,.3l-.2,.2l-.2,.3l-.3,.1l-.3,.3l-.1,.2l-.3,.3l-.2,.1l-.3,.2l-.3,.1l-.3,.2l-.3,.2l-.3,.1h-.3l-.3,.2h-.6l-.3,.1h-71.8l-.3,-.1h-.7l-.3,-.2h-.4l-.3,-.1l-.3,-.2l-.3,-.2l-.2,-.1l-.3,-.2l-.3,-.1l-.3,-.2l-.2,-.3l-.3,-.1l-.1,-.3l-.3,-.2l-.2,-.3l-.1,-.3l-.2,-.3l-.1,-.3l-.2,-.2l-.1,-.3l-.2,-.3l-.1,-.4v-.6l-.2,-.3V573.2Zm0,-6.3v0ZM1302,595v0Z" class="g4_5"/>
  <path fill-rule="evenodd" d="M1218.4,570.1v-.6l.2,-.5v-.6l.1,-.3l.2,-.3l.1,-.3l.2,-.3v-.3l.3,-.2l.1,-.3l.2,-.3l.1,-.3l.3,-.1l.3,-.3l.2,-.2l.3,-.1l.3,-.3l.3,-.2l.2,-.1h.3l.3,-.2l.3,-.1l.3,-.2h.4l.4,-.2h72.8l.3,.2h.5l.3,.2l.3,.1l.3,.2h.3l.3,.1l.2,.2l.3,.3l.3,.1l.1,.2l.3,.3l.3,.1l.2,.3l.2,.3l.3,.3l.1,.4l.2,.1v.3l.1,.3l.2,.3l.1,.3v.3l.2,.3v17.6l-.2,.3v.3l-.1,.3l-.2,.3v.3l-.1,.3l-.2,.3l-.1,.4l-.3,.3l-.2,.1l-.2,.3l-.3,.2l-.3,.3l-.1,.1l-.3,.3l-.2,.2l-.3,.1l-.3,.2l-.3,.1l-.3,.2l-.3,.2h-.3l-.3,.1h-.6l-.3,.2h-71.8l-.3,-.2h-.7l-.3,-.1h-.4l-.3,-.2l-.3,-.2l-.3,-.1l-.2,-.2l-.3,-.1l-.3,-.2l-.3,-.3l-.2,-.1l-.3,-.2l-.1,-.3l-.3,-.1l-.2,-.3l-.1,-.3l-.2,-.4l-.1,-.3l-.2,-.3l-.1,-.3l-.2,-.3l-.1,-.3v-.6l-.2,-.3V570.1Z" class="g5_5"/>
  <path d="M1218.4,570.1v0v-.6l.2,-.5v-.6l.1,-.3l.2,-.3l.1,-.3l.2,-.3v-.3l.3,-.2l.1,-.3l.2,-.3l.1,-.3l.3,-.1l.3,-.3l.2,-.2l.3,-.1l.3,-.3l.3,-.2l.2,-.1h.3l.3,-.2l.3,-.1l.3,-.2h.4l.4,-.2h72.8l.3,.2h.5l.3,.2l.3,.1l.3,.2h.3l.3,.1l.2,.2l.3,.3l.3,.1l.1,.2l.3,.3l.3,.1l.2,.3l.2,.3l.3,.3l.1,.4l.2,.1v.3l.1,.3l.2,.3l.1,.3v.3l.2,.3v17.6l-.2,.3v.3l-.1,.3l-.2,.3v.3l-.1,.3l-.2,.3l-.1,.4l-.3,.3l-.2,.1l-.2,.3l-.3,.2l-.3,.3l-.1,.1l-.3,.3l-.2,.2l-.3,.1l-.3,.2l-.3,.1l-.3,.2l-.3,.2h-.3l-.3,.1h-.6l-.3,.2h-71.8l-.3,-.2h-.7l-.3,-.1h-.4l-.3,-.2l-.3,-.2l-.3,-.1l-.2,-.2l-.3,-.1l-.3,-.2l-.3,-.3l-.2,-.1l-.3,-.2l-.1,-.3l-.3,-.1l-.2,-.3l-.1,-.3l-.2,-.4l-.1,-.3l-.2,-.3l-.1,-.3l-.2,-.3l-.1,-.3v-.6l-.2,-.3V570.1Zm0,-6.3v0ZM1302,592v0Z" class="g6_5"/>
  <path fill-rule="evenodd" d="M1291.4,571.2v-.6l.2,-.2v-.3h.1v-.3l.2,-.1l.1,-.2v-.2h.2l.1,-.1l.2,-.2h.3v-.1h.3l.2,-.2h1.2l.1,.2h.2l.1,.1h.2l.1,.2h.2v.1h.2l.1,.2v.2h.2v.3l.1,.1l.2,.2v.4l.1,.2v.3h-.1v.7h-.2v.3l-.1,.2v.2l-.2,.1h-.1v.2h-.2v.1l-.2,.2h-.1l-.2,.1h-.1l-.2,.2h-.4l-.2,.1h-.1v-.1h-.8l-.1,-.2h-.2l-.1,-.1h-.4V573l-.1,-.1l-.2,-.2l-.1,-.1l-.2,-.2v-.2l-.1,-.1v-.2l-.2,-.1v-.6Z" class="g0_5"/>
  <path fill-rule="evenodd" d="M1285.5,571.2v-.6l.1,-.2v-.3l.2,-.1v-.2l.1,-.1l.2,-.2v-.2h.1l.2,-.1l.1,-.2h.3v-.1h.4l.1,-.2h1.2v.2h.3l.2,.1h.1l.2,.2h.1v.1h.2l.2,.2v.2l.1,.1v.2l.2,.1v.2l.1,.1v.3l.2,.2v.3h-.2v.6l-.1,.1v.3l-.2,.2l-.1,.2v.1h-.2v.2h-.2v.1l-.1,.2h-.2l-.1,.1h-.2l-.1,.2h-.5l-.1,.1h-.2v-.1h-.7l-.2,-.2h-.2l-.1,-.1h-.3V573l-.2,-.1l-.1,-.2h-.2v-.1l-.1,-.2l-.2,-.2v-.3l-.1,-.1v-.6Z" class="g7_5"/>
  <path fill-rule="evenodd" d="M1219,604.2v-.9l.2,-.3v-.5l.1,-.3l.2,-.3v-.3l.1,-.3l.2,-.3l.1,-.2l.3,-.3l.2,-.3l.1,-.1l.3,-.4l.2,-.3l.3,-.1l.3,-.2l.2,-.3l.3,-.1l.3,-.2h.3l.3,-.1l.3,-.2l.3,-.1h.6l.5,-.2h72.2l.3,.2h.6l.4,.1l.3,.2l.3,.1h.3l.3,.2l.3,.1l.3,.3l.1,.2l.3,.1l.4,.3l.1,.4l.3,.1l.2,.3l.1,.3l.2,.3l.1,.2l.2,.3l.1,.3l.2,.3v.3l.1,.5v.6l.2,.3v16.2l-.2,.3v.6l-.1,.3v.3l-.2,.3l-.1,.3l-.2,.3l-.1,.3l-.2,.3l-.1,.3l-.2,.2l-.3,.3l-.1,.1l-.4,.3l-.1,.2l-.3,.3l-.3,.2l-.3,.1l-.3,.2l-.2,.1l-.3,.2l-.3,.1h-.5l-.3,.2h-.6l-.3,.1H1225l-.3,-.1h-.8l-.3,-.2h-.3l-.3,-.1l-.3,-.2l-.3,-.1l-.3,-.2l-.3,-.1l-.2,-.2l-.3,-.1l-.3,-.4l-.2,-.1l-.3,-.3l-.1,-.2l-.2,-.3l-.3,-.3l-.1,-.3l-.2,-.3l-.1,-.1v-.3l-.2,-.4l-.1,-.4V621l-.2,-.3V604.2Z" class="g3_5"/>
  <path d="M1219,604.2v0v-.9l.2,-.3v-.5l.1,-.3l.2,-.3v-.3l.1,-.3l.2,-.3l.1,-.2l.3,-.3l.2,-.3l.1,-.1l.3,-.4l.2,-.3l.3,-.1l.3,-.2l.2,-.3l.3,-.1l.3,-.2h.3l.3,-.1l.3,-.2l.3,-.1h.6l.5,-.2h72.2l.3,.2h.6l.4,.1l.3,.2l.3,.1h.3l.3,.2l.3,.1l.3,.3l.1,.2l.3,.1l.4,.3l.1,.4l.3,.1l.2,.3l.1,.3l.2,.3l.1,.2l.2,.3l.1,.3l.2,.3v.3l.1,.5v.6l.2,.3v16.2l-.2,.3v.6l-.1,.3v.3l-.2,.3l-.1,.3l-.2,.3l-.1,.3l-.2,.3l-.1,.3l-.2,.2l-.3,.3l-.1,.1l-.4,.3l-.1,.2l-.3,.3l-.3,.2l-.3,.1l-.3,.2l-.2,.1l-.3,.2l-.3,.1h-.5l-.3,.2h-.6l-.3,.1H1225l-.3,-.1h-.8l-.3,-.2h-.3l-.3,-.1l-.3,-.2l-.3,-.1l-.3,-.2l-.3,-.1l-.2,-.2l-.3,-.1l-.3,-.4l-.2,-.1l-.3,-.3l-.1,-.2l-.2,-.3l-.3,-.3l-.1,-.3l-.2,-.3l-.1,-.1v-.3l-.2,-.4l-.1,-.4V621l-.2,-.3V604.2Zm0,-6.3v0Zm83.6,28.1v0Z" class="g4_5"/>
  <path fill-rule="evenodd" d="M1219,601.1v-1l.2,-.4v-.3l.1,-.3l.2,-.3v-.3l.1,-.3l.2,-.3l.1,-.1l.3,-.3l.2,-.3l.1,-.4l.3,-.1l.2,-.3l.3,-.2l.3,-.1l.2,-.3l.3,-.2l.3,-.1h.3l.3,-.2l.3,-.1l.3,-.2h.3l.3,-.1h73l.3,.1h.3l.4,.2l.3,.1l.3,.2h.3l.3,.1l.3,.2l.3,.3l.1,.1l.3,.2l.4,.3l.1,.1l.3,.4l.2,.3l.1,.3l.2,.3l.1,.1l.2,.3l.1,.3l.2,.3v.3l.1,.3v.8l.2,.3V617l-.2,.3v.6l-.1,.3v.3l-.2,.3l-.1,.4l-.2,.3l-.1,.3l-.2,.3l-.1,.1l-.2,.3l-.3,.3l-.1,.2l-.4,.3l-.1,.1l-.3,.3l-.3,.2l-.3,.2l-.3,.1l-.2,.2l-.3,.1l-.3,.2h-.5l-.3,.1h-.6l-.3,.2H1225l-.3,-.2h-.8l-.3,-.1h-.3l-.3,-.2l-.3,-.1l-.3,-.2l-.3,-.1l-.3,-.2l-.2,-.2l-.3,-.3l-.3,-.1l-.2,-.2l-.3,-.3l-.1,-.3l-.2,-.1l-.3,-.3l-.1,-.3l-.2,-.3l-.1,-.3v-.4l-.2,-.3l-.1,-.3v-.3l-.2,-.3V601.1Z" class="g5_5"/>
  <path d="M1219,601.1v0v-1l.2,-.4v-.3l.1,-.3l.2,-.3v-.3l.1,-.3l.2,-.3l.1,-.1l.3,-.3l.2,-.3l.1,-.4l.3,-.1l.2,-.3l.3,-.2l.3,-.1l.2,-.3l.3,-.2l.3,-.1h.3l.3,-.2l.3,-.1l.3,-.2h.3l.3,-.1h73l.3,.1h.3l.4,.2l.3,.1l.3,.2h.3l.3,.1l.3,.2l.3,.3l.1,.1l.3,.2l.4,.3l.1,.1l.3,.4l.2,.3l.1,.3l.2,.3l.1,.1l.2,.3l.1,.3l.2,.3v.3l.1,.3v.8l.2,.3V617l-.2,.3v.6l-.1,.3v.3l-.2,.3l-.1,.4l-.2,.3l-.1,.3l-.2,.3l-.1,.1l-.2,.3l-.3,.3l-.1,.2l-.4,.3l-.1,.1l-.3,.3l-.3,.2l-.3,.2l-.3,.1l-.2,.2l-.3,.1l-.3,.2h-.5l-.3,.1h-.6l-.3,.2H1225l-.3,-.2h-.8l-.3,-.1h-.3l-.3,-.2l-.3,-.1l-.3,-.2l-.3,-.1l-.3,-.2l-.2,-.2l-.3,-.3l-.3,-.1l-.2,-.2l-.3,-.3l-.1,-.3l-.2,-.1l-.3,-.3l-.1,-.3l-.2,-.3l-.1,-.3v-.4l-.2,-.3l-.1,-.3v-.3l-.2,-.3V601.1Zm0,-6.2v0Zm83.6,28.1v0Z" class="g6_5"/>
  <path fill-rule="evenodd" d="M1292,602.2v-.8l.2,-.1v-.2l.1,-.1v-.2l.2,-.1l.2,-.2v-.1h.1l.2,-.2l.1,-.1h.2l.1,-.2h.3l.2,-.2h1l.2,.2h.3l.2,.2h.1l.2,.1l.1,.2h.2v.1l.1,.2l.2,.1v.2l.1,.1v.3l.2,.2v1.1l-.2,.1v.3l-.1,.2v.1l-.2,.2v.1h-.1v.2h-.2l-.1,.1l-.2,.2h-.1v.1h-.4l-.1,.2h-.3l-.2,.1h-.3v-.1h-.4l-.2,-.2h-.4v-.1h-.2l-.1,-.2l-.2,-.1h-.1v-.2h-.2v-.1l-.2,-.2l-.1,-.1V603h-.2v-.8Z" class="g0_5"/>
  <path fill-rule="evenodd" d="M1285.9,602.2v-.3l.2,-.2v-.3l.1,-.1v-.2l.2,-.1v-.2l.1,-.1v-.2l.2,-.1h.1v-.2h.2l.2,-.1h.1l.2,-.2h.3v-.2h1.2l.1,.2h.3v.2h.4l.1,.1l.2,.2h.1v.1l.2,.2l.1,.1v.2l.2,.1v.3l.1,.2v1.1l-.1,.1v.3l-.2,.2v.1h-.1v.3h-.2l-.1,.2l-.2,.1h-.1v.2h-.2l-.2,.1h-.1l-.2,.2h-.3l-.1,.1h-.3v-.1h-.6v-.2h-.5l-.1,-.1l-.2,-.2h-.2v-.1h-.1v-.2h-.2v-.1l-.1,-.2l-.2,-.1V603h-.1v-.5l-.2,-.2v-.1Z" class="g7_5"/>
  <path fill-rule="evenodd" d="M1219,635.2v-1.1l.2,-.3v-.3l.1,-.3l.2,-.3v-.3l.1,-.3l.2,-.3l.1,-.3l.3,-.2l.2,-.3l.1,-.3l.3,-.1l.2,-.3l.3,-.2l.3,-.1l.2,-.4l.3,-.1l.3,-.2l.3,-.1l.3,-.2h.3l.3,-.1l.3,-.2h73.6l.3,.2l.4,.1h.3l.3,.2l.3,.1l.3,.2l.3,.1l.3,.4l.1,.1l.3,.2l.4,.3l.1,.1l.3,.3l.2,.3l.1,.2l.2,.3l.1,.3l.2,.3l.1,.3l.2,.3v.3l.1,.3v.6l.2,.3v16.2l-.2,.3v.8l-.1,.3v.3l-.2,.3l-.1,.3l-.2,.3l-.1,.3l-.2,.3l-.1,.2l-.2,.3l-.3,.3l-.1,.2l-.4,.3l-.1,.1l-.3,.2l-.3,.3l-.3,.1l-.3,.2l-.2,.1h-.3l-.3,.2l-.5,.1h-.3l-.3,.2h-.9l-71,.1v-.1h-1.1l-.3,-.2h-.3l-.3,-.1l-.3,-.2h-.3l-.3,-.1l-.3,-.2l-.3,-.1l-.2,-.2l-.3,-.3l-.3,-.1l-.2,-.3l-.3,-.2l-.1,-.3l-.2,-.2l-.3,-.3l-.1,-.3l-.2,-.3l-.1,-.3v-.3l-.2,-.3l-.1,-.3V652l-.2,-.3V635.2Z" class="g3_5"/>
  <path d="M1219,635.2v0v-1.1l.2,-.3v-.3l.1,-.3l.2,-.3v-.3l.1,-.3l.2,-.3l.1,-.3l.3,-.2l.2,-.3l.1,-.3l.3,-.1l.2,-.3l.3,-.2l.3,-.1l.2,-.4l.3,-.1l.3,-.2l.3,-.1l.3,-.2h.3l.3,-.1l.3,-.2h73.6l.3,.2l.4,.1h.3l.3,.2l.3,.1l.3,.2l.3,.1l.3,.4l.1,.1l.3,.2l.4,.3l.1,.1l.3,.3l.2,.3l.1,.2l.2,.3l.1,.3l.2,.3l.1,.3l.2,.3v.3l.1,.3v.6l.2,.3v16.2l-.2,.3v.8l-.1,.3v.3l-.2,.3l-.1,.3l-.2,.3l-.1,.3l-.2,.3l-.1,.2l-.2,.3l-.3,.3l-.1,.2l-.4,.3l-.1,.1l-.3,.2l-.3,.3l-.3,.1l-.3,.2l-.2,.1h-.3l-.3,.2l-.5,.1h-.3l-.3,.2h-.9l-71,.1v-.1h-1.1l-.3,-.2h-.3l-.3,-.1l-.3,-.2h-.3l-.3,-.1l-.3,-.2l-.3,-.1l-.2,-.2l-.3,-.3l-.3,-.1l-.2,-.3l-.3,-.2l-.1,-.3l-.2,-.2l-.3,-.3l-.1,-.3l-.2,-.3l-.1,-.3v-.3l-.2,-.3l-.1,-.3V652l-.2,-.3V635.2Zm0,-6.3v0Zm83.6,28.1v0Z" class="g4_5"/>
  <path fill-rule="evenodd" d="M1219,632.1v-1l.2,-.3v-.3l.1,-.3l.2,-.4v-.3l.1,-.3l.2,-.3l.1,-.3l.3,-.1l.2,-.3l.1,-.3l.3,-.3l.2,-.2l.3,-.2l.3,-.3l.2,-.1l.3,-.2l.3,-.1l.3,-.2l.3,-.1l.3,-.2h.3l.3,-.1h.8l.3,-.2h71.6l.3,.2h.6l.3,.1h.4l.3,.2l.3,.1l.3,.2l.3,.1l.3,.2l.3,.1l.1,.3l.3,.2l.4,.2l.1,.3l.3,.3l.2,.3l.1,.1l.2,.3l.1,.3l.2,.3l.1,.3l.2,.4v.3l.1,.3v.6l.2,.3v16.2l-.2,.3v.7l-.1,.3v.4l-.2,.3l-.1,.3l-.2,.3l-.1,.1l-.2,.3l-.1,.3l-.2,.3l-.3,.3l-.1,.2l-.4,.2l-.1,.3l-.3,.1l-.3,.2l-.3,.3l-.3,.1h-.2l-.3,.2l-.3,.1l-.5,.2h-.3l-.3,.1h-73l-.3,-.1h-.3l-.3,-.2l-.3,-.1h-.3l-.3,-.2l-.3,-.1l-.3,-.2l-.2,-.1l-.3,-.3l-.3,-.2l-.2,-.3l-.3,-.2l-.1,-.3l-.2,-.3l-.3,-.1l-.1,-.3l-.2,-.3l-.1,-.3v-.3l-.2,-.3l-.1,-.4v-.3l-.2,-.3V632.1Z" class="g5_5"/>
  <path d="M1219,632.1v0v-1l.2,-.3v-.3l.1,-.3l.2,-.4v-.3l.1,-.3l.2,-.3l.1,-.3l.3,-.1l.2,-.3l.1,-.3l.3,-.3l.2,-.2l.3,-.2l.3,-.3l.2,-.1l.3,-.2l.3,-.1l.3,-.2l.3,-.1l.3,-.2h.3l.3,-.1h.8l.3,-.2h71.6l.3,.2h.6l.3,.1h.4l.3,.2l.3,.1l.3,.2l.3,.1l.3,.2l.3,.1l.1,.3l.3,.2l.4,.2l.1,.3l.3,.3l.2,.3l.1,.1l.2,.3l.1,.3l.2,.3l.1,.3l.2,.4v.3l.1,.3v.6l.2,.3v16.2l-.2,.3v.7l-.1,.3v.4l-.2,.3l-.1,.3l-.2,.3l-.1,.1l-.2,.3l-.1,.3l-.2,.3l-.3,.3l-.1,.2l-.4,.2l-.1,.3l-.3,.1l-.3,.2l-.3,.3l-.3,.1h-.2l-.3,.2l-.3,.1l-.5,.2h-.3l-.3,.1h-73l-.3,-.1h-.3l-.3,-.2l-.3,-.1h-.3l-.3,-.2l-.3,-.1l-.3,-.2l-.2,-.1l-.3,-.3l-.3,-.2l-.2,-.3l-.3,-.2l-.1,-.3l-.2,-.3l-.3,-.1l-.1,-.3l-.2,-.3l-.1,-.3v-.3l-.2,-.3l-.1,-.4v-.3l-.2,-.3V632.1Zm0,-6.4v0Zm83.6,28.1v0Z" class="g6_5"/>
  <path fill-rule="evenodd" d="M1292,633.1v-.7l.2,-.1V632l.1,-.2l.2,-.1v-.2h.2v-.1l.1,-.2h.2l.1,-.1h.2v-.2h.3l.1,-.1h1.4l.1,.1h.4v.2h.1l.2,.1h.1l.2,.2v.1h.1v.2l.2,.1l.1,.2v.4h.2v1.3h-.2v.4h-.1v.3l-.2,.2l-.1,.1l-.2,.2l-.1,.1l-.2,.2h-.1v.1h-.5l-.2,.2h-1v-.2h-.5l-.1,-.1l-.2,-.2h-.1l-.2,-.1l-.1,-.2l-.2,-.1v-.2h-.2v-.1l-.1,-.2V634l-.2,-.2v-.7Z" class="g0_5"/>
  <path fill-rule="evenodd" d="M1285.9,633.1v-.2l.2,-.2v-.3l.1,-.1V632l.2,-.2l.1,-.1v-.2l.2,-.1l.1,-.2h.2l.2,-.1l.1,-.2h.3l.2,-.1h1.3l.2,.1h.1l.2,.2h.2l.1,.1h.2l.1,.2v.1h.2v.2l.1,.1l.2,.2v.4h.1v1.3h-.1v.4h-.2v.2l-.1,.1v.2l-.2,.1h-.1v.2l-.2,.1h-.1v.2h-.2l-.2,.1h-.3l-.1,.2h-1.1l-.1,-.2h-.3l-.2,-.1h-.1V635h-.4v-.1l-.1,-.2l-.2,-.1v-.2h-.1v-.1l-.2,-.2V634l-.1,-.2v-.3l-.2,-.1v-.3Z" class="g7_5"/>
  <path fill-rule="evenodd" d="M1219,666.2v-1.1l.2,-.3v-.3l.1,-.3l.2,-.3v-.3l.1,-.3l.2,-.3l.1,-.3l.3,-.2l.2,-.3l.1,-.3l.3,-.3l.2,-.1l.3,-.2l.3,-.1l.2,-.3l.3,-.2l.3,-.1l.3,-.2l.3,-.2h.3l.3,-.1l.3,-.2h73.6l.3,.2l.4,.1h.3l.3,.2l.3,.2l.3,.1l.3,.2l.3,.3l.1,.1l.3,.2l.4,.1l.1,.3l.3,.3l.2,.3l.1,.2l.2,.3l.1,.3l.2,.3l.1,.3l.2,.3v.3l.1,.3v.6l.2,.3v33.8l-.2,.3v.6l-.1,.3v.3l-.2,.3l-.1,.4l-.2,.3l-.1,.3l-.2,.3l-.1,.3l-.2,.1l-.3,.3l-.1,.3l-.4,.2l-.1,.1l-.3,.3l-.3,.2l-.3,.2l-.3,.1l-.2,.2l-.3,.1l-.3,.2h-.5l-.3,.1h-.3l-.3,.2h-72.2l-.5,-.2h-.3l-.3,-.1h-.3l-.3,-.2l-.3,-.1l-.3,-.2l-.3,-.1l-.3,-.2l-.2,-.2l-.3,-.1l-.3,-.3l-.2,-.2l-.3,-.3l-.1,-.1l-.2,-.3l-.3,-.3l-.1,-.3l-.2,-.3l-.1,-.2v-.3l-.2,-.3l-.1,-.5v-.3l-.2,-.3V666.2Z" class="g3_5"/>
  <path d="M1219,666.2v0v-1.1l.2,-.3v-.3l.1,-.3l.2,-.3v-.3l.1,-.3l.2,-.3l.1,-.3l.3,-.2l.2,-.3l.1,-.3l.3,-.3l.2,-.1l.3,-.2l.3,-.1l.2,-.3l.3,-.2l.3,-.1l.3,-.2l.3,-.2h.3l.3,-.1l.3,-.2h73.6l.3,.2l.4,.1h.3l.3,.2l.3,.2l.3,.1l.3,.2l.3,.3l.1,.1l.3,.2l.4,.1l.1,.3l.3,.3l.2,.3l.1,.2l.2,.3l.1,.3l.2,.3l.1,.3l.2,.3v.3l.1,.3v.6l.2,.3v33.8l-.2,.3v.6l-.1,.3v.3l-.2,.3l-.1,.4l-.2,.3l-.1,.3l-.2,.3l-.1,.3l-.2,.1l-.3,.3l-.1,.3l-.4,.2l-.1,.1l-.3,.3l-.3,.2l-.3,.2l-.3,.1l-.2,.2l-.3,.1l-.3,.2h-.5l-.3,.1h-.3l-.3,.2h-72.2l-.5,-.2h-.3l-.3,-.1h-.3l-.3,-.2l-.3,-.1l-.3,-.2l-.3,-.1l-.3,-.2l-.2,-.2l-.3,-.1l-.3,-.3l-.2,-.2l-.3,-.3l-.1,-.1l-.2,-.3l-.3,-.3l-.1,-.3l-.2,-.3l-.1,-.2v-.3l-.2,-.3l-.1,-.5v-.3l-.2,-.3V666.2Zm0,-6.3v0Zm83.6,45.6v0Z" class="g4_5"/>
  <path fill-rule="evenodd" d="M1219,663.2v-1.1l.2,-.3v-.3l.1,-.3l.2,-.3v-.3l.1,-.4l.2,-.3l.1,-.3l.3,-.3l.2,-.1l.1,-.3l.3,-.3l.2,-.2l.3,-.1l.3,-.3l.2,-.2l.3,-.1l.3,-.2l.3,-.2l.3,-.1l.3,-.2h.3l.3,-.1h.8l.3,-.2h71.6l.3,.2h.6l.3,.1h.4l.3,.2l.3,.1l.3,.2l.3,.2l.3,.1l.3,.2l.1,.3l.3,.1l.4,.2l.1,.3l.3,.3l.2,.1l.1,.3l.2,.3l.1,.3l.2,.4l.1,.3l.2,.3v.3l.1,.3v.6l.2,.3v33.8l-.2,.3v.6l-.1,.3v.3l-.2,.3l-.1,.3l-.2,.3l-.1,.3l-.2,.3l-.1,.3l-.2,.2l-.3,.3l-.1,.1l-.4,.3l-.1,.2l-.3,.3l-.3,.1l-.3,.2l-.3,.2l-.2,.1l-.3,.2l-.3,.1h-.5l-.3,.2h-.6l-.3,.1H1225l-.3,-.1h-.8l-.3,-.2h-.3l-.3,-.1l-.3,-.2l-.3,-.1l-.3,-.2l-.3,-.2l-.2,-.1l-.3,-.2l-.3,-.3l-.2,-.1l-.3,-.3l-.1,-.2l-.2,-.3l-.3,-.3l-.1,-.3l-.2,-.3l-.1,-.2v-.3l-.2,-.3l-.1,-.4v-.3l-.2,-.3V663.2Z" class="g5_5"/>
  <path d="M1219,663.2v0v-1.1l.2,-.3v-.3l.1,-.3l.2,-.3v-.3l.1,-.4l.2,-.3l.1,-.3l.3,-.3l.2,-.1l.1,-.3l.3,-.3l.2,-.2l.3,-.1l.3,-.3l.2,-.2l.3,-.1l.3,-.2l.3,-.2l.3,-.1l.3,-.2h.3l.3,-.1h.8l.3,-.2h71.6l.3,.2h.6l.3,.1h.4l.3,.2l.3,.1l.3,.2l.3,.2l.3,.1l.3,.2l.1,.3l.3,.1l.4,.2l.1,.3l.3,.3l.2,.1l.1,.3l.2,.3l.1,.3l.2,.4l.1,.3l.2,.3v.3l.1,.3v.6l.2,.3v33.8l-.2,.3v.6l-.1,.3v.3l-.2,.3l-.1,.3l-.2,.3l-.1,.3l-.2,.3l-.1,.3l-.2,.2l-.3,.3l-.1,.1l-.4,.3l-.1,.2l-.3,.3l-.3,.1l-.3,.2l-.3,.2l-.2,.1l-.3,.2l-.3,.1h-.5l-.3,.2h-.6l-.3,.1H1225l-.3,-.1h-.8l-.3,-.2h-.3l-.3,-.1l-.3,-.2l-.3,-.1l-.3,-.2l-.3,-.2l-.2,-.1l-.3,-.2l-.3,-.3l-.2,-.1l-.3,-.3l-.1,-.2l-.2,-.3l-.3,-.3l-.1,-.3l-.2,-.3l-.1,-.2v-.3l-.2,-.3l-.1,-.4v-.3l-.2,-.3V663.2Zm0,-6.5v0Zm83.6,45.7v0Z" class="g6_5"/>
  <path d="M1227.4,696.2L1239.6,663m-5.2,32.1l12.3,-31.8m-5.1,32.9L1253.7,663" class="g8_5"/>
  <text x="1156.022" y="310.228" style="white-space: pre; fill: rgb(51, 51, 51); font-size: 24px;">Enter your text here</text>
</svg>